<?xml version="1.0" encoding="utf-8"?>
<!-- Generator: Adobe Illustrator 19.0.0, SVG Export Plug-In . SVG Version: 6.00 Build 0)  -->
<svg version="1.1" id="machine" xmlns="http://www.w3.org/2000/svg" xmlns:xlink="http://www.w3.org/1999/xlink" x="0px" y="0px"
	 viewBox="0 0 640.5 593.3" style="enable-background:new 0 0 640.5 593.3;" xml:space="preserve">
<style type="text/css">
	.st0{fill:#3B3A3A;}
	.st1{fill:#0F0F0F;}
	.st2{fill:#757575;stroke:#000000;stroke-miterlimit:10;}
	.st3{fill:#504F4F;stroke:#000000;stroke-miterlimit:10;}
	.st4{fill:#191919;stroke:#000000;stroke-miterlimit:10;}
	.st5{opacity:0.65;fill:#C9B8B9;}
	.st6{opacity:0.74;fill:#E5E1E0;}
</style>
<g id="rouage_x5F_machine_x5F_2">
	<path id="XMLID_46_" class="st0" d="M463,268.7c-1.7-0.6-3.6,0.1-4.4,1.7l6.8,2.4C465.7,271.1,464.7,269.3,463,268.7z"/>
	<path id="XMLID_45_" class="st0" d="M460.6,275.6c1.7,0.6,3.6-0.1,4.4-1.7l-6.8-2.4C457.9,273.2,458.9,275,460.6,275.6z"/>
	<path id="XMLID_42_" class="st0" d="M477.3,271.4h-2.4c0-0.8-0.2-1.6-0.3-2.4l2.3-0.7c0.1,0,0.2-0.2,0.2-0.3l-0.3-0.9
		c0-0.1-0.2-0.2-0.3-0.2l-2.3,0.7c-0.2-0.6-0.4-1.1-0.7-1.6l2-1.2c0.1-0.1,0.2-0.2,0.1-0.3l-0.5-0.8c-0.1-0.1-0.2-0.2-0.3-0.1
		l-2,1.2c-0.4-0.6-0.8-1.1-1.3-1.6l1.7-1.7c0.1-0.1,0.1-0.2,0-0.3l-0.7-0.6c-0.1-0.1-0.2-0.1-0.3,0l-1.7,1.7
		c-0.5-0.4-0.9-0.8-1.4-1.1l1.2-2c0.1-0.1,0-0.3-0.1-0.3l-0.8-0.5c-0.1-0.1-0.3,0-0.3,0.1l-1.2,2c-0.5-0.3-1.1-0.5-1.6-0.7l0.7-2.3
		c0-0.1,0-0.3-0.2-0.3l-0.9-0.3c-0.1,0-0.3,0-0.3,0.2l-0.7,2.3c-0.7-0.2-1.5-0.3-2.3-0.3v-2.4c0-0.1-0.1-0.2-0.2-0.2h-0.9
		c-0.1,0-0.2,0.1-0.2,0.2v2.4c-0.8,0-1.5,0.1-2.3,0.3l-0.7-2.3c0-0.1-0.2-0.2-0.3-0.2l-0.9,0.3c-0.1,0-0.2,0.2-0.2,0.3l0.7,2.3
		c-0.6,0.2-1.1,0.4-1.6,0.7l-1.2-2c-0.1-0.1-0.2-0.2-0.3-0.1l-0.8,0.5c-0.1,0.1-0.2,0.2-0.1,0.3l1.2,2c-0.6,0.4-1.1,0.8-1.6,1.3
		l-1.7-1.7c-0.1-0.1-0.2-0.1-0.3,0l-0.7,0.7c-0.1,0.1-0.1,0.2,0,0.3l1.7,1.7c-0.4,0.5-0.8,0.9-1.1,1.4l-2-1.2
		c-0.1-0.1-0.3,0-0.3,0.1l-0.5,0.8c-0.1,0.1,0,0.3,0.1,0.3l2,1.2c-0.3,0.5-0.5,1-0.7,1.6l-2.3-0.7c-0.1,0-0.3,0-0.3,0.2l-0.3,0.9
		c0,0.1,0,0.3,0.2,0.3l2.3,0.7c-0.2,0.8-0.3,1.6-0.4,2.4h-2.4c-0.1,0-0.2,0.1-0.2,0.2v0.9c0,0.1,0.1,0.2,0.2,0.2h2.4
		c0,0.8,0.2,1.6,0.3,2.4l-2.3,0.7c-0.1,0-0.2,0.2-0.2,0.3l0.3,0.9c0,0.1,0.2,0.2,0.3,0.2l2.3-0.7c0.2,0.6,0.4,1.1,0.7,1.6l-2,1.2
		c-0.1,0.1-0.2,0.2-0.1,0.3l0.5,0.8c0.1,0.1,0.2,0.2,0.3,0.1l2-1.2c0.4,0.6,0.8,1.1,1.3,1.6l-1.7,1.7c-0.1,0.1-0.1,0.2,0,0.3
		l0.7,0.6c0.1,0.1,0.2,0.1,0.3,0l1.7-1.7c0.5,0.4,0.9,0.8,1.4,1.1l-1.2,2c-0.1,0.1,0,0.3,0.1,0.3l0.8,0.5c0.1,0.1,0.3,0,0.3-0.1
		l1.2-2c0.5,0.3,1.1,0.5,1.6,0.7l-0.7,2.3c0,0.1,0,0.3,0.2,0.3l0.9,0.3c0.1,0,0.3,0,0.3-0.2l0.7-2.3c0.7,0.2,1.5,0.3,2.3,0.3v2.4
		c0,0.1,0.1,0.2,0.2,0.2h0.9c0.1,0,0.2-0.1,0.2-0.2v-2.4c0.8,0,1.5-0.1,2.3-0.3l0.7,2.3c0,0.1,0.2,0.2,0.3,0.2l0.9-0.3
		c0.1,0,0.2-0.2,0.2-0.3l-0.7-2.3c0.6-0.2,1.1-0.4,1.6-0.7l1.2,2c0.1,0.1,0.2,0.2,0.3,0.1l0.8-0.5c0.1-0.1,0.2-0.2,0.1-0.3l-1.2-2
		c0.6-0.4,1.1-0.8,1.6-1.3l1.7,1.7c0.1,0.1,0.2,0.1,0.3,0l0.7-0.7c0.1-0.1,0.1-0.2,0-0.3l-1.7-1.7c0.4-0.5,0.8-0.9,1.1-1.4l2,1.2
		c0.1,0.1,0.3,0,0.3-0.1l0.5-0.8c0.1-0.1,0-0.3-0.1-0.3l-2-1.2c0.3-0.5,0.5-1,0.7-1.6l2.3,0.7c0.1,0,0.3,0,0.3-0.2l0.3-0.9
		c0-0.1,0-0.3-0.2-0.3l-2.3-0.7c0.2-0.8,0.3-1.6,0.4-2.4h2.4c0.1,0,0.2-0.1,0.2-0.2v-0.9C477.5,271.6,477.4,271.4,477.3,271.4z
		 M461.8,280.4c-4.6,0-8.2-3.7-8.2-8.2c0-4.6,3.7-8.2,8.2-8.2c4.6,0,8.2,3.7,8.2,8.2C470.1,276.7,466.4,280.4,461.8,280.4z"/>
</g>
<g id="rouage_x5F_machine_x5F_1">
	<path id="XMLID_12_" class="st0" d="M478.6,233.5c-3.4-1.2-7.1,0.3-8.8,3.4l13.4,4.8C483.9,238.2,482,234.7,478.6,233.5z"/>
	<path id="XMLID_11_" class="st0" d="M473.7,247.1c3.4,1.2,7.1-0.3,8.8-3.4l-13.4-4.8C468.4,242.4,470.3,245.9,473.7,247.1z"/>
	<path id="XMLID_16_" class="st0" d="M507,238.9h-4.7c-0.1-1.6-0.3-3.2-0.7-4.7l4.5-1.4c0.3-0.1,0.4-0.3,0.3-0.6l-0.5-1.8
		c-0.1-0.3-0.3-0.4-0.6-0.3l-4.5,1.4c-0.4-1.1-0.9-2.2-1.4-3.3l4.1-2.4c0.2-0.1,0.3-0.4,0.2-0.7l-0.9-1.6c-0.1-0.2-0.4-0.3-0.7-0.2
		l-4.1,2.4c-0.8-1.1-1.6-2.2-2.5-3.2l3.3-3.4c0.2-0.2,0.2-0.5,0-0.7l-1.3-1.3c-0.2-0.2-0.5-0.2-0.7,0l-3.3,3.4
		c-0.9-0.8-1.9-1.5-2.9-2.2l2.4-4.1c0.1-0.2,0.1-0.5-0.2-0.7l-1.6-0.9c-0.2-0.1-0.5-0.1-0.7,0.2l-2.4,4.1c-1-0.5-2.1-1-3.2-1.4
		l1.3-4.5c0.1-0.3-0.1-0.5-0.3-0.6l-1.8-0.5c-0.3-0.1-0.5,0.1-0.6,0.3l-1.3,4.5c-1.5-0.3-3-0.6-4.6-0.7v-4.7c0-0.3-0.2-0.5-0.5-0.5
		h-1.9c-0.3,0-0.5,0.2-0.5,0.5v4.7c-1.5,0.1-3,0.3-4.5,0.6l-1.3-4.5c-0.1-0.3-0.3-0.4-0.6-0.3l-1.8,0.5c-0.3,0.1-0.4,0.3-0.3,0.6
		l1.3,4.5c-1.1,0.4-2.2,0.9-3.3,1.4l-2.4-4.1c-0.1-0.2-0.4-0.3-0.7-0.2l-1.6,0.9c-0.2,0.1-0.3,0.4-0.2,0.7l2.4,4.1
		c-1.1,0.7-2.2,1.6-3.2,2.5l-3.3-3.3c-0.2-0.2-0.5-0.2-0.7,0l-1.3,1.3c-0.2,0.2-0.2,0.5,0,0.7l3.3,3.3c-0.8,0.9-1.5,1.9-2.2,2.9
		l-4.1-2.4c-0.2-0.1-0.5-0.1-0.7,0.2l-0.9,1.6c-0.1,0.2-0.1,0.5,0.2,0.7l4.1,2.4c-0.5,1-1,2.1-1.4,3.2l-4.5-1.4
		c-0.3-0.1-0.5,0.1-0.6,0.3l-0.5,1.8c-0.1,0.3,0.1,0.5,0.3,0.6l4.5,1.4c-0.4,1.6-0.6,3.2-0.7,4.8h-4.7c-0.3,0-0.5,0.2-0.5,0.5v1.8
		c0,0.3,0.2,0.5,0.5,0.5h4.7c0.1,1.6,0.3,3.2,0.7,4.7l-4.5,1.4c-0.3,0.1-0.4,0.3-0.3,0.6l0.5,1.8c0.1,0.3,0.3,0.4,0.6,0.3l4.5-1.4
		c0.4,1.1,0.9,2.2,1.4,3.3l-4.1,2.4c-0.2,0.1-0.3,0.4-0.2,0.7l0.9,1.6c0.1,0.2,0.4,0.3,0.7,0.2l4.1-2.4c0.8,1.1,1.6,2.2,2.5,3.2
		l-3.3,3.4c-0.2,0.2-0.2,0.5,0,0.7l1.3,1.3c0.2,0.2,0.5,0.2,0.7,0l3.3-3.4c0.9,0.8,1.9,1.5,2.9,2.2l-2.4,4.1
		c-0.1,0.2-0.1,0.5,0.2,0.7l1.6,0.9c0.2,0.1,0.5,0.1,0.7-0.2l2.4-4.1c1,0.5,2.1,1,3.2,1.4l-1.3,4.5c-0.1,0.3,0.1,0.5,0.3,0.6
		l1.8,0.5c0.3,0.1,0.5-0.1,0.6-0.3l1.3-4.5c1.5,0.3,3,0.6,4.6,0.7v4.7c0,0.3,0.2,0.5,0.5,0.5h1.9c0.3,0,0.5-0.2,0.5-0.5v-4.7
		c1.5-0.1,3-0.3,4.5-0.6l1.3,4.5c0.1,0.3,0.3,0.4,0.6,0.3l1.8-0.5c0.3-0.1,0.4-0.3,0.3-0.6l-1.3-4.5c1.1-0.4,2.2-0.9,3.3-1.4
		l2.4,4.1c0.1,0.2,0.4,0.3,0.7,0.2l1.6-0.9c0.2-0.1,0.3-0.4,0.2-0.7l-2.4-4.1c1.1-0.7,2.2-1.6,3.2-2.5l3.3,3.3
		c0.2,0.2,0.5,0.2,0.7,0l1.3-1.3c0.2-0.2,0.2-0.5,0-0.7l-3.3-3.3c0.8-0.9,1.5-1.9,2.2-2.9l4.1,2.4c0.2,0.1,0.5,0.1,0.7-0.2l0.9-1.6
		c0.1-0.2,0.1-0.5-0.2-0.7l-4.1-2.4c0.5-1,1-2.1,1.4-3.2l4.5,1.4c0.3,0.1,0.5-0.1,0.6-0.3l0.5-1.8c0.1-0.3-0.1-0.5-0.3-0.6l-4.5-1.4
		c0.4-1.6,0.6-3.2,0.7-4.8h4.7c0.3,0,0.5-0.2,0.5-0.5v-1.8C507.5,239.1,507.2,238.9,507,238.9z M476.2,256.7
		c-9.1,0-16.4-7.3-16.4-16.4s7.3-16.4,16.4-16.4s16.4,7.3,16.4,16.4S485.2,256.7,476.2,256.7z"/>
</g>
<g id="corps_1_">
	<g id="XMLID_1_">
		<g id="XMLID_84_">
			<path id="XMLID_89_" class="st1" d="M426.9-13.6c-12.1,8.9-19.3,22.6-25.4,36c-6.3,13.9-7.5,27,0.6,40.4c4,6.7,9.1,12.6,13.5,19
				c4.8,6.9,8.9,14.3,12.1,22.1c6.4,15.5,9.1,32.2,7.7,48.9c-0.2,2.4,3.5,2.4,3.8,0c2.6-30.3-8.7-57.5-26.6-81.4
				c-4.4-5.9-9-12-11.4-19.1c-2.6-7.9-1.3-15.9,1.6-23.5c5.4-14.2,13.5-30,25.9-39.2C430.7-11.8,428.9-15,426.9-13.6L426.9-13.6z"/>
		</g>
	</g>
	<g id="corps">
		<g id="XMLID_2_">
			<path id="XMLID_6_" class="st1" d="M463,148.3v-14h-11.9V92.1h4.5v-2.6c2.4-0.3,4.2-2.3,4.2-4.8s-1.8-4.5-4.2-4.8v-2.6h-4.5V38.3
				h2.5v-3.8c2.6,0,4.8-2.1,4.8-4.8c0-2.6-2.1-4.8-4.8-4.8v-3.8h-2.5v-43.1h-41.5v43.1h-3.5V25c-2.2,0.5-3.8,2.4-3.8,4.7
				s1.6,4.2,3.8,4.7v4.1h3.5v38.9h-4.3v2.6c-2.4,0.3-4.2,2.3-4.2,4.8s1.8,4.5,4.2,4.8v2.6h4.3v42.3h-11.9v14h-33.2v14.3h131.6v-14.3
				H463z"/>
			<path id="XMLID_9_" class="st1" d="M364.6,174.5v0.9v6.3c4,0.6,7.2,3.2,8.1,6.5c-2.4,0.5-4.2,2.7-4.2,5.2v11c0,2.6,2,4.8,4.5,5.2
				v0.8c0,4.3-3.7,7.8-8.4,8.6v10.7c1.4,8.5,4,16.5,7.8,23.7c11.5,22.1,33.3,37,58.2,37c24.9,0,46.6-14.9,58.2-37
				c3.5-6.8,6.1-14.3,7.5-22.2V219c-4.8-0.7-8.4-4.3-8.4-8.6v-20.2c0-4.3,3.7-7.8,8.4-8.6v-6.3v-0.9v-8.1H364.6V174.5z"/>
		</g>
		<g id="XMLID_67_">
			<path id="XMLID_4_" class="st1" d="M374.9,261.1L374.9,261.1c-1.8,0.9-4,0.1-4.9-1.7l-1.8-3.7c-0.9-1.8-0.1-4,1.7-4.9l0,0
				c1.8-0.9,4-0.1,4.9,1.7l1.8,3.7C377.5,258,376.7,260.2,374.9,261.1z"/>
			<g id="XMLID_5_">
				<g id="XMLID_91_">
					<path id="XMLID_95_" class="st1" d="M368.6,255.1c-2.5,4.6-2.9,7.1-0.5,11.8c2.8,5.5,4.1,11.2,5.1,17.2
						c1.9,10.8,4.5,21.6,13.2,29.1c7,6.1,19.1,7.9,27.5,3.9c4.4-2.1,6.7-5.8,8.5-10.2c2.8-7,6-13,11.2-18.5c1.7-1.8-1-4.4-2.7-2.7
						c-3,3.2-5.8,6.7-7.9,10.6c-2.3,4.1-3.4,8.8-5.8,12.8c-6,10-22.9,7.1-29.8-0.1c-6.7-7-8.8-15.9-10.4-25.1
						c-0.8-4.3-1.5-8.7-2.9-12.9c-0.6-1.8-1.4-3.6-2.3-5.4c-1.8-3.4-1.7-5.3,0.2-8.7C373,254.9,369.8,253,368.6,255.1L368.6,255.1z"
						/>
				</g>
			</g>
		</g>
		<g id="XMLID_87_">
			<g id="XMLID_81_">
				<path id="XMLID_96_" class="st1" d="M483.7,196c1.4,0.3,2.8,2.6,3.1,3.9c0.3,1,0.2,2.3,0.3,3.3c0.2,1.5,0.4,3,1.1,4.4
					c1.1,2.2,3.1,3.7,5.6,3.8c8.2,0.3,10-10,11-16c1.5-9.4,1.1-19-0.2-28.4c-0.9-6.3-2.5-16.1-11.1-14.3c-2.4,0.5-1.4,4.1,1,3.6
					c7.1-1.5,7.3,18.1,7.5,21.6c0.3,6.8,0,13.6-1.4,20.2c-0.2,1.1-0.5,2.3-0.8,3.4c-0.3,1.4-0.8,2.6-1.7,3.6
					c-1.2,2.5-3.5,2.5-6.8,0.1c-0.9-1.6-0.5-4-0.8-5.7c-0.6-3.4-2.2-6.5-5.8-7.2C482.4,192,481.3,195.6,483.7,196L483.7,196z"/>
			</g>
		</g>
	</g>
</g>
<g id="boulons">
	<g id="XMLID_19_">
		<path id="XMLID_20_" class="st0" d="M376.6,170.4c-1.5-0.9-3.4-0.6-4.6,0.7l6.1,3.7C378.8,173.2,378.2,171.3,376.6,170.4z"/>
		<path id="XMLID_22_" class="st0" d="M372.8,176.6c1.5,0.9,3.4,0.6,4.6-0.7l-6.1-3.7C370.7,173.8,371.3,175.7,372.8,176.6z"/>
	</g>
	<g id="XMLID_18_">
		<path id="XMLID_23_" class="st0" d="M400.6,173.5c0-1.8-1.3-3.2-3-3.6l0,7.1C399.4,176.7,400.6,175.3,400.6,173.5z"/>
		<path id="XMLID_21_" class="st0" d="M393.4,173.5c0,1.8,1.3,3.2,3,3.6l0-7.1C394.6,170.3,393.4,171.7,393.4,173.5z"/>
	</g>
	<g id="XMLID_24_">
		<path id="XMLID_26_" class="st0" d="M422.3,175.5c1-1.5,0.7-3.4-0.5-4.6l-3.9,5.9C419.4,177.5,421.3,177,422.3,175.5z"/>
		<path id="XMLID_25_" class="st0" d="M416.2,171.5c-1,1.5-0.7,3.4,0.5,4.6l3.9-5.9C419.1,169.5,417.2,170,416.2,171.5z"/>
	</g>
	<g id="XMLID_27_">
		<path id="XMLID_29_" class="st0" d="M441.8,169.9c-1.8-0.1-3.3,1-3.8,2.7l7.1,0.5C444.9,171.4,443.5,170,441.8,169.9z"/>
		<path id="XMLID_28_" class="st0" d="M441.2,177.1c1.8,0.1,3.3-1,3.8-2.7l-7.1-0.5C438.1,175.6,439.5,177,441.2,177.1z"/>
	</g>
	<g id="XMLID_30_">
		<path id="XMLID_32_" class="st0" d="M462.2,170.2c-1.6,0.7-2.4,2.5-2,4.2l6.5-3C465.7,170,463.8,169.5,462.2,170.2z"/>
		<path id="XMLID_31_" class="st0" d="M465.3,176.8c1.6-0.7,2.4-2.5,2-4.2l-6.5,3C461.8,177,463.7,177.5,465.3,176.8z"/>
	</g>
	<g id="XMLID_33_">
		<path id="XMLID_35_" class="st0" d="M482.4,173.5c0,1.8,1.3,3.2,3,3.5l-0.1-7.1C483.6,170.3,482.3,171.8,482.4,173.5z"/>
		<path id="XMLID_34_" class="st0" d="M489.6,173.5c0-1.8-1.3-3.2-3-3.5l0.1,7.1C488.4,176.7,489.7,175.2,489.6,173.5z"/>
	</g>
</g>
<g id="bras-epaule">
	<g id="epaule">
		<polygon id="XMLID_3_" class="st1" points="330,220.5 346.7,239.4 347.6,238.7 331,219.7 		"/>
		<path id="XMLID_51_" class="st1" d="M342.4,210.8l0.8,0.9c0.6,0.7,0.6,1.6,0,2c-0.6,0.5-1.6,0.3-2.1-0.4l-0.8-0.9l-1.2,0.9
			l0.8,0.9c0.6,0.7,0.6,1.6,0,2l0,0c-0.6,0.5-1.5,0.3-2.1-0.4l-0.8-0.9l-1.2,0.9l0.8,0.9c0.6,0.7,0.6,1.6,0,2
			c-0.6,0.5-1.6,0.3-2.1-0.4l-0.8-0.9l-1.8,1.4l16.7,18.9l1.8-1.4l-0.8-1c-0.6-0.7-0.6-1.6,0-2c0.6-0.5,1.6-0.3,2.1,0.4l0.8,1
			l1.2-0.9l-0.8-1c-0.6-0.7-0.6-1.6,0-2l0,0c0.6-0.5,1.5-0.3,2.1,0.4l0.8,1l1.2-0.9l-0.8-1c-0.6-0.7-0.6-1.6,0-2l0,0
			c0.6-0.5,1.6-0.3,2.1,0.4l0.8,1l1.9-1.5l-16.7-18.9L342.4,210.8z"/>
		<path id="XMLID_52_" class="st1" d="M385.8,198.3l-6-6.8c-0.9-1-2.3-1.2-3.2-0.5l-1.9,1.5l-0.4-0.4c-0.2-0.2-0.6-0.3-0.8-0.1
			c-0.2,0.2-0.2,0.5,0,0.8l0.4,0.4l-0.8,0.6c-0.9,0.7-0.9,2.1,0,3.1l0.4,0.5l-19.2,15.1l-1.1-1.2c-0.9-1-2.3-1.2-3.2-0.5l-0.5,0.4
			l-1.5-1.7c-0.8-0.9-2-1.2-2.9-0.7l16.6,18.9c0.6-0.7,0.6-2-0.2-2.9L360,223l0.5-0.4c0.9-0.7,0.9-2.1,0-3.1l-1.1-1.2l19.2-15.1
			l0.4,0.5c0.9,1,2.3,1.2,3.2,0.5l0.8-0.6l0.4,0.4c0.2,0.2,0.6,0.3,0.8,0.1c0.2-0.2,0.2-0.5,0-0.8l-0.4-0.4l1.9-1.5
			C386.7,200.7,386.7,199.3,385.8,198.3z"/>
		<path id="XMLID_53_" class="st1" d="M327.2,222.7c-0.9,0.7-0.9,2.1,0,3.1l1.4,1.6c-2.5,3.2-2.4,7.9,0.3,11.1
			c2.8,3.3,7.5,3.9,11.1,1.9l0.7,0.8c0.9,1,2.3,1.2,3.2,0.5l2-1.5l-16.7-18.9L327.2,222.7z"/>
	</g>
	<g id="bras">
		<path id="bras_x5F_haut_1_" class="st1" d="M336.9,233.6l-1.3-1.7c-1-1.2-2.7-1.4-4-0.5l-74.8,59.4c0,0,0,0,0,0l-0.6-0.4
			c-0.1-0.1-0.2,0-0.2,0l-1,1.4c-0.4-0.2-0.8-0.4-1.2-0.6l0.6-1.6c0-0.1,0-0.2-0.1-0.2l-0.6-0.2c-0.1,0-0.2,0-0.2,0.1l-0.6,1.6
			c-0.5-0.2-1-0.3-1.5-0.4l0.2-1.7c0-0.1-0.1-0.2-0.2-0.2l-0.7-0.1c-0.1,0-0.2,0.1-0.2,0.2l-0.2,1.7c-0.4,0-0.9,0-1.3,0l-0.2-1.7
			c0-0.1-0.1-0.2-0.2-0.2l-0.7,0.1c-0.1,0-0.2,0.1-0.2,0.2l0.2,1.7c-0.4,0.1-0.8,0.2-1.2,0.3l-0.6-1.6c0-0.1-0.1-0.1-0.2-0.1
			l-0.6,0.3c-0.1,0-0.1,0.1-0.1,0.2l0.6,1.6c-0.5,0.2-1.1,0.5-1.6,0.9l-1.1-1.4c-0.1-0.1-0.2-0.1-0.2,0l-0.5,0.4
			c-0.1,0.1-0.1,0.2,0,0.2l1.1,1.4c-0.4,0.4-0.9,0.8-1.2,1.3l-1.4-1c-0.1-0.1-0.2,0-0.2,0l-0.4,0.6c-0.1,0.1,0,0.2,0,0.2l1.4,1
			c-0.2,0.4-0.4,0.8-0.6,1.2l-1.6-0.6c-0.1,0-0.2,0-0.2,0.1l-0.2,0.6c0,0.1,0,0.2,0.1,0.2l1.6,0.6c-0.2,0.5-0.3,1-0.3,1.5l-1.7-0.2
			c-0.1,0-0.2,0.1-0.2,0.2l-0.1,0.7c0,0.1,0.1,0.2,0.2,0.2l1.7,0.2c0,0.4,0,0.9,0,1.3l-1.7,0.3c-0.1,0-0.2,0.1-0.2,0.2l0.1,0.7
			c0,0.1,0.1,0.2,0.2,0.2l1.7-0.2c0.1,0.4,0.2,0.8,0.3,1.2l-1.6,0.7c-0.1,0-0.1,0.1-0.1,0.2l0.3,0.6c0,0.1,0.1,0.1,0.2,0.1l1.6-0.7
			c0.2,0.5,0.5,1,0.9,1.5l-1.4,1.1c-0.1,0.1-0.1,0.2,0,0.2l0.4,0.5c0.1,0.1,0.2,0.1,0.2,0l1.4-1.1c0.4,0.4,0.8,0.8,1.2,1.2l-1,1.4
			c-0.1,0.1,0,0.2,0,0.2l0.6,0.4c0.1,0.1,0.2,0,0.2,0l1-1.4c0.4,0.2,0.8,0.4,1.2,0.6l-0.6,1.6c0,0.1,0,0.2,0.1,0.2l0.6,0.2
			c0.1,0,0.2,0,0.2-0.1l0.6-1.6c0.5,0.2,1,0.3,1.5,0.4l-0.2,1.7c0,0.1,0.1,0.2,0.2,0.2l0.7,0.1c0.1,0,0.2-0.1,0.2-0.2l0.2-1.7
			c0.4,0,0.9,0,1.3,0l0.2,1.7c0,0.1,0.1,0.2,0.2,0.2l0.7-0.1c0.1,0,0.2-0.1,0.2-0.2l-0.2-1.7c0.4-0.1,0.8-0.2,1.2-0.3l0.6,1.6
			c0,0.1,0.1,0.1,0.2,0.1l0.6-0.3c0.1,0,0.1-0.1,0.1-0.2l-0.6-1.6c0.5-0.2,1.1-0.5,1.6-0.9l1.1,1.4c0.1,0.1,0.2,0.1,0.2,0l0.5-0.4
			c0.1-0.1,0.1-0.2,0-0.2l-1.1-1.4c0.4-0.4,0.9-0.8,1.2-1.3l1.4,1c0.1,0.1,0.2,0,0.2,0l0.4-0.6c0.1-0.1,0-0.2,0-0.2l-1.4-1
			c0.2-0.4,0.4-0.8,0.6-1.2l1.6,0.6c0.1,0,0.2,0,0.2-0.1l0.2-0.6c0-0.1,0-0.2-0.1-0.2l-1.6-0.6c0.2-0.5,0.3-1,0.3-1.5l1.7,0.2
			c0.1,0,0.2-0.1,0.2-0.2l0.1-0.7c0-0.1-0.1-0.2-0.2-0.2l-1.7-0.2c0-0.4,0-0.9,0-1.3l1.7-0.3c0.1,0,0.2-0.1,0.2-0.2l-0.1-0.7
			c0-0.1-0.1-0.2-0.2-0.2l-0.7,0.1l76.1-60.4C337.7,236.6,337.9,234.8,336.9,233.6z M253.6,304.7c-2.6,2.1-6.4,1.6-8.5-1
			c-2.1-2.6-1.6-6.4,1-8.5c1.8-1.4,4.2-1.7,6.2-0.8l-4.3,3.4c-1.2,1-1.4,2.7-0.5,4l1.3,1.7c1,1.2,2.7,1.4,4,0.5l2.9-2.3
			C255.3,302.8,254.6,303.9,253.6,304.7z"/>
		<g id="avant-bras">
			<path id="avant_x5F_bras" class="st1" d="M199.2,352.6c0.1-0.7,0-1.5,0-2.2l53.9-42.5c0.6-0.5,0.9-1.1,1-1.8
				c2.4-0.8,4.3-3,4.5-5.7c0.3-3.6-2.4-6.7-5.9-7c-2.8-0.2-5.3,1.3-6.4,3.8l-53.5,42.2c-1.9-1.3-4.2-2.1-6.7-2.3
				c-7.9-0.6-14.9,5.2-15.5,13.2c-0.6,7.9,5.2,14.9,13.2,15.5C191.6,366.4,198.6,360.5,199.2,352.6z M197.5,344.6
				c-0.2-0.4-0.4-0.8-0.7-1.1l50.2-39.6c0.3,0.4,0.6,0.7,0.9,1L197.5,344.6z"/>
			<g id="pince_x5F_haut">
				<path id="XMLID_47_" class="st1" d="M167.8,399.5l19.9-12.2l-0.5-0.8l0.9,0.2l3-11.4c2.1-0.7,4-2.1,5.3-4.2
					c3.1-4.8,1.8-11.2-3.1-14.4c-4.8-3.1-11.2-1.8-14.4,3.1c-2.7,4.1-2,9.5,1.2,12.9l-1.8,6.9l-16.6,10.1L167.8,399.5z"/>
				<g id="XMLID_62_">
					<polygon id="XMLID_72_" class="st1" points="166.3,398.5 150.4,391.1 161.5,390.7 					"/>
					<g id="XMLID_65_">
						<path id="XMLID_70_" class="st1" d="M167.6,396.4c-5.3-2.5-10.6-5-15.9-7.5c-0.4,1.6-0.8,3.1-1.3,4.7
							c3.7-0.1,7.4-0.3,11.1-0.4c-0.7-0.4-1.4-0.8-2.2-1.2c1.6,2.6,3.2,5.3,4.8,7.9c1.7,2.7,6,0.2,4.3-2.5c-1.6-2.6-3.2-5.3-4.8-7.9
							c-0.4-0.7-1.3-1.3-2.2-1.2c-3.7,0.1-7.4,0.3-11.1,0.4c-2.3,0.1-3.6,3.5-1.3,4.7c5.3,2.5,10.6,5,15.9,7.5
							C167.9,402.1,170.5,397.7,167.6,396.4z"/>
					</g>
				</g>
			</g>
			<g id="pince_x5F_bas">
				<path id="XMLID_15_" class="st1" d="M164.7,356.6l1.5-0.2c2.1,1.9,5.4,2.4,8.3,1c1.4-0.7,2.5-1.7,3.3-2.8l0.5-0.1l-0.1-0.7
					c0.9-1.8,1-3.9,0.2-5.7c-1.6-3.4-5.9-4.7-9.7-2.9c-1.9,0.9-3.2,2.3-3.9,4l-3.2,0.5l-0.5-0.4l-11,12.5l6.1,4.6L164.7,356.6z"/>
				<g id="XMLID_60_">
					<polygon id="XMLID_77_" class="st1" points="150.1,363.5 153.4,374.5 155.1,367.2 					"/>
					<g id="XMLID_63_">
						<path id="XMLID_75_" class="st1" d="M147.7,364.2c1.1,3.7,2.2,7.4,3.3,11c0.7,2.3,4.3,2.5,4.8,0c0.6-2.4,1.1-4.9,1.7-7.3
							c0.3-1.2-0.2-2.1-1.1-2.8c-1.6-1.2-3.3-2.5-4.9-3.7c-2.6-1.9-5.1,2.4-2.5,4.3c1.6,1.2,3.3,2.5,4.9,3.7
							c-0.4-0.9-0.8-1.9-1.1-2.8c-0.6,2.4-1.1,4.9-1.7,7.3c1.6,0,3.2,0,4.8,0c-1.1-3.7-2.2-7.4-3.3-11
							C151.6,359.8,146.8,361.1,147.7,364.2z"/>
					</g>
				</g>
			</g>
		</g>
	</g>
</g>
<g id="oeil">
	<circle id="XMLID_39_" class="st2" cx="432.6" cy="222.1" r="17.6"/>
	<circle id="XMLID_36_" class="st3" cx="432.6" cy="222.4" r="13.1"/>
	<circle id="XMLID_17_" class="st4" cx="432.6" cy="222.4" r="10.6"/>
	<circle id="XMLID_37_" class="st5" cx="429.2" cy="220.1" r="3.6"/>
	
		<ellipse id="XMLID_38_" transform="matrix(0.9212 -0.389 0.389 0.9212 -52.999 183.493)" class="st6" cx="426.6" cy="222.6" rx="2" ry="2.6"/>
</g>
</svg>
