<?xml version="1.0" encoding="utf-8"?>
<!-- Generator: Adobe Illustrator 19.0.0, SVG Export Plug-In . SVG Version: 6.00 Build 0)  -->
<svg version="1.1" id="Calque_1" xmlns="http://www.w3.org/2000/svg" xmlns:xlink="http://www.w3.org/1999/xlink" x="0px" y="0px"
	 viewBox="0 0 870.6 119" style="enable-background:new 0 0 870.6 119;" xml:space="preserve">
<style type="text/css">
	.st0{fill:#4D4D4D;}
</style>
<g id="XMLID_25_">
	<rect id="XMLID_29_" x="839.3" y="8.7" class="st0" width="3.2" height="72.3"/>
	<path id="XMLID_28_" class="st0" d="M800.7,12.4V8.7h-6.3V81h6.3v-3.5c0-2.5,1.6-4.6,3.6-4.6h0c2,0,3.6,2.1,3.6,4.6V81h4.1v-3.5
		c0-2.5,1.6-4.6,3.6-4.6h0c2,0,3.6,2.1,3.6,4.6V81h4.1v-3.5c0-2.5,1.6-4.6,3.6-4.6h0c2,0,3.6,2.1,3.6,4.6V81h5.9V8.7h-5.9v3.7
		c0,2.5-1.6,4.6-3.6,4.6h0c-2,0-3.6-2.1-3.6-4.6V8.7h-4.1v3.7c0,2.5-1.6,4.6-3.6,4.6h0c-2,0-3.6-2.1-3.6-4.6V8.7h-4.1v3.7
		c0,2.5-1.6,4.6-3.6,4.6h0C802.3,17,800.7,14.9,800.7,12.4z"/>
	<path id="XMLID_27_" class="st0" d="M787,15.7v6.6h-1.6c-3,0-5.5,3.1-5.5,7v4.6h-65.1v-1.9c0-3.8-2.5-7-5.5-7h-2.7v-1.6
		c0-0.9-0.6-1.7-1.4-1.7c-0.7,0-1.4,0.8-1.4,1.7V25h-6.5c-3,0-5.5,3.1-5.5,7v25.8c0,3.8,2.5,7,5.5,7h6.5v1.6c0,0.9,0.6,1.7,1.4,1.7
		c0.7,0,1.4-0.8,1.4-1.7v-1.6h2.7c3,0,5.5-3.1,5.5-7v-1.9h65.1v4.6c0,3.8,2.5,7,5.5,7h1.6v6.6c0,3.4,2,6.3,4.6,6.8V8.8
		C789,9.4,787,12.3,787,15.7z"/>
	<path id="XMLID_26_" class="st0" d="M851.9,81c3,0,5.5-3.1,5.5-7V15.7c0-3.8-2.5-7-5.5-7h-6.7V81H851.9z"/>
</g>
<rect id="XMLID_24_" x="0" y="33.9" class="st0" width="694.1" height="21.9"/>
<path id="XMLID_23_" class="st0" d="M767.5,77.3l-7.4-5.2c-5.4-3.8-6.7-11.3-2.9-16.7l3.8-5.4c3.8-5.4,11.3-6.7,16.7-2.9l7.4,5.2
	c5.4,3.8,6.7,11.3,2.9,16.7l-3.8,5.4C780.4,79.8,772.8,81.1,767.5,77.3z"/>
<path id="XMLID_22_" class="st0" d="M763,66.8c0,0-8.5,80.5-87.5,9.5s-119-54.5-127.5-20.5c-5,20.1-8.4-36.5-25.4-24.5
	S374.3,74.7,358.1,71.1c-20.6-4.6-39.4-51.9-62.2-44.8c-24.5,7.6-24.5,7.6-24.5,7.6l6.5,6.9l19,0.5l23.5,10c0,0,23.5,29.6,39.5,28.2
	c31.4-2.8,142.4-28.4,158.5-32.2c21-4.9,13.4,13.2,24.5,25.5c6,6.6,16.5-24.5,16.5-24.5l14.5-14c0,0,34.5,7.5,73,27.9
	c21.8,11.5,70.5,67.1,98.6,45.7c23.5-17.9,20.9-29.6,25.9-36.6S763,66.8,763,66.8z"/>
<path id="XMLID_5_" class="st0" d="M215.8,48.7c0,0-54.1,22.7-79.9,17.2S97.7,48.7,97.7,48.7H215.8z"/>
</svg>
