<?xml version="1.0" encoding="utf-8"?>
<!-- Generator: Adobe Illustrator 19.0.0, SVG Export Plug-In . SVG Version: 6.00 Build 0)  -->
<svg version="1.1" id="Calque_1" xmlns="http://www.w3.org/2000/svg" xmlns:xlink="http://www.w3.org/1999/xlink" x="0px" y="0px"
	 viewBox="0 0 1401.9 195.5" style="enable-background:new 0 0 1401.9 195.5;" xml:space="preserve">
<style type="text/css">
	.st0{fill:#4D4D4D;}
</style>
<g id="XMLID_111_">
	<rect id="XMLID_112_" x="468.4" y="16.7" class="st0" width="3.2" height="72.3"/>
	<path id="XMLID_113_" class="st0" d="M480.3,20.4c0,2.5,1.6,4.6,3.6,4.6h0c2,0,3.6-2.1,3.6-4.6v-3.7h4.1v3.7c0,2.5,1.6,4.6,3.6,4.6
		h0c2,0,3.6-2.1,3.6-4.6v-3.7h4.1v3.7c0,2.5,1.6,4.6,3.6,4.6h0c2,0,3.6-2.1,3.6-4.6v-3.7h6.3V89h-6.3v-3.5c0-2.5-1.6-4.6-3.6-4.6h0
		c-2,0-3.6,2.1-3.6,4.6V89h-4.1v-3.5c0-2.5-1.6-4.6-3.6-4.6h0c-2,0-3.6,2.1-3.6,4.6V89h-4.1v-3.5c0-2.5-1.6-4.6-3.6-4.6h0
		c-2,0-3.6,2.1-3.6,4.6V89h-5.9V16.7h5.9V20.4z"/>
	<path id="XMLID_116_" class="st0" d="M519.3,16.8v72.1c2.6-0.6,4.6-3.4,4.6-6.8v-3.7l2.9,4c3.8,5.4,11.3,6.7,16.7,2.9l2.4-1.7
		c10.2,14.9,40.2,58.9,60.5,75.2c33.3,26.8,63.5,23,85.5,11.8c16.2-8.2,91.8-86.2,111.7-106.8h93.2c1.1,1.1,2.1,2.3,3.2,3.5
		c10.7,12.7,23.5,27.5,44.5,32.4c16.1,3.7,24.5-5.4,30.5-10.7c3.8-3.4,15.1-17.5,21.1-25.2h239.2V41.9h-132.1
		c-31.1-4.8-71.1-10-84.7-7.6c-4.6,0.8-9,3.6-13.5,7.6H885c-15-8.4-31.3-10.6-52.1-8.6c-5,0.5-10.6,3.4-17.2,8.6H619.1v-2
		c0-3.8-2.5-7-5.5-7H607v-1.6c0-0.9-0.6-1.7-1.4-1.7c-0.7,0-1.4,0.8-1.4,1.7V33h-2.7c-3,0-5.5,3.1-5.5,7v1.9H531v-4.6
		c0-3.8-2.5-7-5.5-7h-1.6v-6.6C523.9,20.2,521.9,17.4,519.3,16.8z M908.9,63.8h77.1c-12.3,15.4-25,30.4-39.6,27.5
		C928.9,87.8,918.5,75.4,908.9,63.8z M553.1,78c3.3-3.9,3.9-9.7,1-14.2h42v1.9c0,3.8,2.5,7,5.5,7h2.7v1.6c0,0.9,0.6,1.7,1.4,1.7
		c0.7,0,1.4-0.8,1.4-1.7v-1.6h6.5c3,0,5.5-3.1,5.5-7v-2h173.2c-20.2,20.5-48.1,50.4-89.3,87.5C630.9,216,564.3,99.3,553.1,78z"/>
	<path id="XMLID_118_" class="st0" d="M459,16.7h6.7V89H459c-3,0-5.5-3.1-5.5-7V23.7C453.5,19.8,456,16.7,459,16.7z"/>
</g>
<g id="XMLID_25_">
	<rect id="XMLID_29_" x="306.1" y="340.8" class="st0" width="3.2" height="72.3"/>
	<path id="XMLID_28_" class="st0" d="M347.9,344.4v-3.7h6.3V413h-6.3v-3.5c0-2.5-1.6-4.6-3.6-4.6h0c-2,0-3.6,2.1-3.6,4.6v3.5h-4.1
		v-3.5c0-2.5-1.6-4.6-3.6-4.6h0c-2,0-3.6,2.1-3.6,4.6v3.5h-4.1v-3.5c0-2.5-1.6-4.6-3.6-4.6h0c-2,0-3.6,2.1-3.6,4.6v3.5H312v-72.3
		h5.9v3.7c0,2.5,1.6,4.6,3.6,4.6h0c2,0,3.6-2.1,3.6-4.6v-3.7h4.1v3.7c0,2.5,1.6,4.6,3.6,4.6h0c2,0,3.6-2.1,3.6-4.6v-3.7h4.1v3.7
		c0,2.5,1.6,4.6,3.6,4.6h0C346.3,349,347.9,347,347.9,344.4z"/>
	<path id="XMLID_27_" class="st0" d="M361.6,347.7v6.6h1.6c3,0,5.5,3.1,5.5,7v4.6h65.1V364c0-3.8,2.5-7,5.5-7h2.7v-1.6
		c0-0.9,0.6-1.7,1.4-1.7s1.4,0.8,1.4,1.7v1.6h6.5c3,0,5.5,3.1,5.5,7v25.8c0,3.8-2.5,7-5.5,7h-6.5v1.6c0,0.9-0.6,1.7-1.4,1.7
		s-1.4-0.8-1.4-1.7v-1.6h-2.7c-3,0-5.5-3.1-5.5-7v-1.9h-65.1v4.6c0,3.8-2.5,7-5.5,7h-1.6v6.6c0,3.4-2,6.3-4.6,6.8v-72.1
		C359.6,341.4,361.6,344.3,361.6,347.7z"/>
	<path id="XMLID_26_" class="st0" d="M296.7,413c-3,0-5.5-3.1-5.5-7v-58.4c0-3.8,2.5-7,5.5-7h6.7V413H296.7z"/>
</g>
<rect id="XMLID_24_" x="454.5" y="366" class="st0" width="694.1" height="21.9"/>
<path id="XMLID_23_" class="st0" d="M381.1,409.3l7.4-5.2c5.4-3.8,6.7-11.3,2.9-16.7l-3.8-5.4c-3.8-5.4-11.3-6.7-16.7-2.9l-7.4,5.2
	c-5.4,3.8-6.7,11.3-2.9,16.7l3.8,5.4C368.2,411.8,375.7,413.1,381.1,409.3z"/>
<path id="XMLID_22_" class="st0" d="M385.6,398.8c0,0,8.5,80.5,87.5,9.5s119-54.5,127.5-20.5c5,20.1,8.4-36.5,25.4-24.5
	s148.3,43.4,164.4,39.8c20.6-4.6,39.4-51.9,62.2-44.8c24.5,7.6,24.5,7.6,24.5,7.6l-6.5,6.9l-19,0.5l-23.5,10
	c0,0-23.5,29.6-39.5,28.2c-31.4-2.8-142.4-28.4-158.5-32.2c-21-4.9-13.4,13.2-24.5,25.5c-6,6.6-16.5-24.5-16.5-24.5l-14.5-14
	c0,0-34.5,7.5-73,27.9c-21.8,11.5-70.5,67.1-98.6,45.7c-23.5-17.9-20.9-29.6-25.9-36.6S385.6,398.8,385.6,398.8z"/>
<path id="XMLID_2_" class="st0" d="M10.8,23.6h5.6l-1.5-4.8c-0.3-1,0.2-2,1.2-2.3c1-0.3,2,0.2,2.3,1.2l1.8,5.9h7.2L26,18.8
	c-0.3-1,0.2-2,1.2-2.3c1-0.3,2,0.2,2.3,1.2l1.8,5.9h7.2l-1.5-4.8c-0.3-1,0.2-2,1.2-2.3c1-0.3,2,0.2,2.3,1.2l1.8,5.9h7.2l-1.5-4.8
	c-0.3-1,0.2-2,1.2-2.3c1-0.3,2,0.2,2.3,1.2l1.8,5.9h7.2l-1.5-4.8c-0.3-1,0.2-2,1.2-2.3c1-0.3,2,0.2,2.3,1.2l1.8,5.9h7.2l-1.5-4.8
	c-0.3-1,0.2-2,1.2-2.3c1-0.3,2,0.2,2.3,1.2l1.8,5.9h7.2l-1.5-4.8c-0.3-1,0.2-2,1.2-2.3c1-0.3,2,0.2,2.3,1.2l1.8,5.9h7.2l-1.5-4.8
	c-0.3-1,0.2-2,1.2-2.3c1-0.3,2,0.2,2.3,1.2l1.8,5.9h7.2l-1.5-4.8c-0.3-1,0.2-2,1.2-2.3c1-0.3,2,0.2,2.3,1.2l1.8,5.9h7.2l-1.5-4.8
	c-0.3-1,0.2-2,1.2-2.3c1-0.3,2,0.2,2.3,1.2l1.8,5.9h7.2l-1.5-4.8c-0.3-1,0.2-2,1.2-2.3c1-0.3,2,0.2,2.3,1.2l1.8,5.9h7.2l-1.5-4.8
	c-0.3-1,0.2-2,1.2-2.3c1-0.3,2,0.2,2.3,1.2l1.8,5.9h7.2l-1.5-4.8c-0.3-1,0.2-2,1.2-2.3c1-0.3,2,0.2,2.3,1.2l1.8,5.9h7.2l-1.5-4.8
	c-0.3-1,0.2-2,1.2-2.3c1-0.3,2,0.2,2.3,1.2l1.8,5.9h7.2l-1.5-4.8c-0.3-1,0.2-2,1.2-2.3c1-0.3,2,0.2,2.3,1.2l1.8,5.9h7.2l-1.5-4.8
	c-0.3-1,0.2-2,1.2-2.3c1-0.3,2,0.2,2.3,1.2l1.8,5.9h7.2l-1.5-4.8c-0.3-1,0.2-2,1.2-2.3c1-0.3,2,0.2,2.3,1.2l1.8,5.9h7.2l-1.5-4.8
	c-0.3-1,0.2-2,1.2-2.3c1-0.3,2,0.2,2.3,1.2l1.8,5.9h7.2l-1.5-4.8c-0.3-1,0.2-2,1.2-2.3c1-0.3,2,0.2,2.3,1.2l1.8,5.9h7.2l-1.5-4.8
	c-0.3-1,0.2-2,1.2-2.3c1-0.3,2,0.2,2.3,1.2l1.8,5.9h7.2l-1.5-4.8c-0.3-1,0.2-2,1.2-2.3c1-0.3,2,0.2,2.3,1.2l1.8,5.9h7.2l-1.5-4.8
	c-0.3-1,0.2-2,1.2-2.3c1-0.3,2,0.2,2.3,1.2l1.8,5.9h7.2l-1.5-4.8c-0.3-1,0.2-2,1.2-2.3c1-0.3,2,0.2,2.3,1.2l1.8,5.9h7.2l-1.5-4.8
	c-0.3-1,0.2-2,1.2-2.3c1-0.3,2,0.2,2.3,1.2l1.8,5.9h7.2l-1.5-4.8c-0.3-1,0.2-2,1.2-2.3c1-0.3,2,0.2,2.3,1.2l1.8,5.9h7.2l-1.5-4.8
	c-0.3-1,0.2-2,1.2-2.3c1-0.3,2,0.2,2.3,1.2l1.8,5.9h7.2l-1.5-4.8c-0.3-1,0.2-2,1.2-2.3c1-0.3,2,0.2,2.3,1.2l1.8,5.9h7.2l-1.5-4.8
	c-0.3-1,0.2-2,1.2-2.3c1-0.3,2,0.2,2.3,1.2l1.8,5.9h7.2l-1.5-4.8c-0.3-1,0.2-2,1.2-2.3c1-0.3,2,0.2,2.3,1.2l1.8,5.9h7.2l-1.5-4.8
	c-0.3-1,0.2-2,1.2-2.3c1-0.3,2,0.2,2.3,1.2l1.8,5.9h7.2l-1.5-4.8c-0.3-1,0.2-2,1.2-2.3c1-0.3,2,0.2,2.3,1.2l1.8,5.9h7.2l-1.5-4.8
	c-0.3-1,0.2-2,1.2-2.3c1-0.3,2,0.2,2.3,1.2l1.8,5.9h7.2l-1.5-4.8c-0.3-1,0.2-2,1.2-2.3c1-0.3,2,0.2,2.3,1.2l1.8,5.9h7.2l-1.5-4.8
	c-0.3-1,0.2-2,1.2-2.3c1-0.3,2,0.2,2.3,1.2l1.8,5.9h7.2l-1.5-4.8c-0.3-1,0.2-2,1.2-2.3c1-0.3,2,0.2,2.3,1.2l1.8,5.9h7.2l-1.5-4.8
	c-0.3-1,0.2-2,1.2-2.3c1-0.3,2,0.2,2.3,1.2l1.8,5.9h7.2l-1.5-4.8c-0.3-1,0.2-2,1.2-2.3h0c1-0.3,2,0.2,2.3,1.2l1.8,5.9h7.2l-1.5-4.8
	c-0.3-1,0.2-2,1.2-2.3c1-0.3,2,0.2,2.3,1.2l1.8,5.9h7.2l-1.5-4.8c-0.3-1,0.2-2,1.2-2.3c1-0.3,2,0.2,2.3,1.2l1.8,5.9h19.8v60.1h-1.1
	l1,3.2c0.3,1-0.2,2-1.2,2.3c-1,0.3-2-0.2-2.3-1.2l-1.3-4.3h-7.2l1,3.2c0.3,1-0.2,2-1.2,2.3c-1,0.3-2-0.2-2.3-1.2l-1.3-4.3h-7.2
	l1,3.2c0.3,1-0.2,2-1.2,2.3c-1,0.3-2-0.2-2.3-1.2l-1.3-4.3h-7.2l1,3.2c0.3,1-0.2,2-1.2,2.3c-1,0.3-2-0.2-2.3-1.2l-1.3-4.3H415l1,3.2
	c0.3,1-0.2,2-1.2,2.3c-1,0.3-2-0.2-2.3-1.2l-1.3-4.3H404l1,3.2c0.3,1-0.2,2-1.2,2.3c-1,0.3-2-0.2-2.3-1.2l-1.3-4.3h-7.2l1,3.2
	c0.3,1-0.2,2-1.2,2.3c-1,0.3-2-0.2-2.3-1.2l-1.3-4.3h-7.2l1,3.2c0.3,1-0.2,2-1.2,2.3c-1,0.3-2-0.2-2.3-1.2l-1.3-4.3h-7.2l1,3.2
	c0.3,1-0.2,2-1.2,2.3c-1,0.3-2-0.2-2.3-1.2l-1.3-4.3h-7.2l1,3.2c0.3,1-0.2,2-1.2,2.3c-1,0.3-2-0.2-2.3-1.2l-1.3-4.3h-7.2l1,3.2
	c0.3,1-0.2,2-1.2,2.3c-1,0.3-2-0.2-2.3-1.2l-1.3-4.3h-7.2l1,3.2c0.3,1-0.2,2-1.2,2.3c-1,0.3-2-0.2-2.3-1.2l-1.3-4.3h-7.2l1,3.2
	c0.3,1-0.2,2-1.2,2.3c-1,0.3-2-0.2-2.3-1.2l-1.3-4.3h-7.2l1,3.2c0.3,1-0.2,2-1.2,2.3c-1,0.3-2-0.2-2.3-1.2l-1.3-4.3h-7.2l1,3.2
	c0.3,1-0.2,2-1.2,2.3c-1,0.3-2-0.2-2.3-1.2l-1.3-4.3h-7.2l1,3.2c0.3,1-0.2,2-1.2,2.3c-1,0.3-2-0.2-2.3-1.2l-1.3-4.3h-7.2l1,3.2
	c0.3,1-0.2,2-1.2,2.3c-1,0.3-2-0.2-2.3-1.2l-1.3-4.3h-7.2l1,3.2c0.3,1-0.2,2-1.2,2.3c-1,0.3-2-0.2-2.3-1.2l-1.3-4.3h-7.2l1,3.2
	c0.3,1-0.2,2-1.2,2.3c-1,0.3-2-0.2-2.3-1.2l-1.3-4.3h-7.2l1,3.2c0.3,1-0.2,2-1.2,2.3c-1,0.3-2-0.2-2.3-1.2l-1.3-4.3h-7.2l1,3.2
	c0.3,1-0.2,2-1.2,2.3c-1,0.3-2-0.2-2.3-1.2l-1.3-4.3H227l1,3.2c0.3,1-0.2,2-1.2,2.3c-1,0.3-2-0.2-2.3-1.2l-1.3-4.3H216l1,3.2
	c0.3,1-0.2,2-1.2,2.3c-1,0.3-2-0.2-2.3-1.2l-1.3-4.3h-7.2l1,3.2c0.3,1-0.2,2-1.2,2.3c-1,0.3-2-0.2-2.3-1.2l-1.3-4.3h-7.2l1,3.2
	c0.3,1-0.2,2-1.2,2.3l0,0c-1,0.3-2-0.2-2.3-1.2l-1.3-4.3h-7.2l1,3.2c0.3,1-0.2,2-1.2,2.3c-1,0.3-2-0.2-2.3-1.2l-1.3-4.3h-7.2l1,3.2
	c0.3,1-0.2,2-1.2,2.3c-1,0.3-2-0.2-2.3-1.2l-1.3-4.3h-7.2l1,3.2c0.3,1-0.2,2-1.2,2.3c-1,0.3-2-0.2-2.3-1.2l-1.3-4.3h-7.2l1,3.2
	c0.3,1-0.2,2-1.2,2.3c-1,0.3-2-0.2-2.3-1.2l-1.3-4.3h-7.2l1,3.2c0.3,1-0.2,2-1.2,2.3c-1,0.3-2-0.2-2.3-1.2l-1.3-4.3h-7.2l1,3.2
	c0.3,1-0.2,2-1.2,2.3c-1,0.3-2-0.2-2.3-1.2l-1.3-4.3h-7.2l1,3.2c0.3,1-0.2,2-1.2,2.3c-1,0.3-2-0.2-2.3-1.2l-1.3-4.3h-7.2l1,3.2
	c0.3,1-0.2,2-1.2,2.3c-1,0.3-2-0.2-2.3-1.2l-1.3-4.3h-7.2l1,3.2c0.3,1-0.2,2-1.2,2.3c-1,0.3-2-0.2-2.3-1.2l-1.3-4.3h-7.2l1,3.2
	c0.3,1-0.2,2-1.2,2.3c-1,0.3-2-0.2-2.3-1.2l-1.3-4.3h-7.2l1,3.2c0.3,1-0.2,2-1.2,2.3h0c-1,0.3-2-0.2-2.3-1.2l-1.3-4.3h-7.2l1,3.2
	c0.3,1-0.2,2-1.2,2.3c-1,0.3-2-0.2-2.3-1.2l-1.3-4.3h-7.2l1,3.2c0.3,1-0.2,2-1.2,2.3c-1,0.3-2-0.2-2.3-1.2l-1.3-4.3H39l1,3.2
	c0.3,1-0.2,2-1.2,2.3c-1,0.3-2-0.2-2.3-1.2l-1.3-4.3H10.8V23.6z"/>
<rect id="XMLID_1_" x="1230.9" y="41.9" class="st0" width="171.8" height="21.9"/>
<path id="XMLID_4_" class="st0" d="M1156.7,59.5c0,0,114.8,36,160.1,19.3c37.3-13.8,46.9-39.5,58.1-41s23.5-0.8,27.8,1.8
	s4.3,13.3,4.3,13.3l-48,8.4c0,0-33.8,30.4-62.5,30.4c-25.3,0-86-7.9-118-18.9c-12.8-4.4-33.8-7-44.3-11.8S1156.7,59.5,1156.7,59.5z"
	/>
<path id="XMLID_5_" class="st0" d="M932.8,380.7c0,0,54.1,22.7,79.9,17.2s38.3-17.2,38.3-17.2H932.8z"/>
</svg>
