
<svg version="1.1" id="Calque_1" xmlns="http://www.w3.org/2000/svg" xmlns:xlink="http://www.w3.org/1999/xlink" x="0px" y="0px"
	 viewBox="0 0 567 841.9"  xml:space="preserve">
	 <defs>
    <filter id="f1" x="0" y="0">
      <feGaussianBlur in="SourceGraphic" stdDeviation="3" />
    </filter>
  </defs>
  <g filter="url(#f1)">
<path id="XMLID_67_" d="M571.6,643c0,0-27.5-0.9-32.1,11.9s-22,23.9-22,23.9l-17.4-22l-21.1,4.1v22.5l-27.5,19.3l7.3,17.4
	c0,0-0.9,5.5-7.3,4.6c-6.4-0.9-19.3-13.8-19.3-13.8s7.3-35.8,0-38.5c-7.3-2.8-24.8,5.5-24.8,5.5v37.6l-3.7,23.9
	c0,0-11.9,1.8-18.3,4.6c-6.4,2.8-26.6,24.8-43.1,24.8s-53.2,5.5-53.2,13.8s-30.1,24.8-27.9,21.1c2.2-3.7-5.2-33.9-5.2-33.9
	L233,753.1l-25.9-0.9l1.3-50.5l-20-2.8l-6.4-21.1l16-15.6l53.4-44l-9.1-7.3l-81.7,55l-67,25l-31.7-12.9l-9.5,7.1
	c0,0-15.1,11.3-22.1,8.5c-7-2.8-11.9-30.3-11.9-30.3s0.9-18.3-3.7-18.3s-11,10.8-11,10.8l-12.8-25.7l-33.9,213.4h668.8L571.6,643z"
	/>
<rect filter="url(#f1) id="XMLID_68_" x="466.1" y="438.6" transform="matrix(0.9877 -0.1563 0.1563 0.9877 -89.5725 80.6479)" width="3.7" height="342.2"/></g>
</svg>
