<?xml version="1.0" encoding="utf-8"?>
<!-- Generator: Adobe Illustrator 19.0.0, SVG Export Plug-In . SVG Version: 6.00 Build 0)  -->
<svg version="1.1" id="manche_d" xmlns="http://www.w3.org/2000/svg" xmlns:xlink="http://www.w3.org/1999/xlink" x="0px" y="0px"
	 viewBox="282 -198.7 1159.6 1039.6" style="enable-background:new 282 -198.7 1159.6 1039.6;" xml:space="preserve">
<style type="text/css">
	.st0{fill:none;stroke:#000000;stroke-width:6;stroke-miterlimit:10;}
	.st1{fill:none;}
	.st2{fill:none;stroke:#000000;stroke-width:5;stroke-miterlimit:10;}
</style>
<path id="XMLID_43_" d="M1270.4,836.8c-8.9-3.2-18.6,0.8-22.9,8.9l35.1,12.5C1284.3,849.1,1279.4,840,1270.4,836.8z"/>
<path id="XMLID_42_" d="M1257.8,872.4c8.9,3.2,18.6-0.8,22.9-8.9l-35.1-12.5C1243.9,860.1,1248.9,869.2,1257.8,872.4z"/>
<path d="M1243.5,66.2l-46.6,0.4c-3.1,0-5.6,2.4-5.6,5.3v6.4l57.8-0.4v-6.4C1249.1,68.6,1246.6,66.2,1243.5,66.2z"/>
<polygon points="1249.1,80.4 1249.2,83.5 1191.3,83.9 1191.3,80.9 "/>
<path d="M1238.8,120.4c-1.4,0-2.6-1.5-2.6-3.5c0-2,1.2-3.5,2.6-3.5h2.1v-3.9h-2.1c-1.4,0-2.6-1.5-2.6-3.5c-0.1-2,1.2-3.5,2.6-3.5
	h2.1v-3.9h-2.1c-1.4,0-2.6-1.5-2.6-3.5c0-2,1.2-3.5,2.6-3.5h2.1v-5.7l-40.6,0.3v5.7h2c1.4,0,2.6,1.5,2.6,3.5c0.1,2-1.2,3.5-2.6,3.5
	h-2v3.9h2c1.4,0,2.6,1.5,2.6,3.5c0,2-1.2,3.5-2.6,3.5h-2v3.9h2c1.4,0,2.6,1.5,2.6,3.5s-1.2,3.5-2.6,3.5h-2v6.1l40.6-0.3v-6.1
	C1240.8,120.4,1238.8,120.4,1238.8,120.4z"/>
<path class="st0" d="M1201.8,158.9c-10.4,34.2-47.1,34-65.7,61.8c-12.9,19.2-12.5,49.2-2.8,71.4c9.7,22.1,27,37.4,45.2,47.6
	c12.1,6.7,25.2,11.9,34.5,23.8c10,12.7,14.1,30.8,17.8,48.2c2.1,9.8,4.2,20.2,2,30c-2.7,12-11.3,20.1-18.2,28.9
	c-15.1,19.1-24.2,50.3-13.3,73.6c8.8,18.5,33.1,16.3,33.6,47.8c-3,17.5-14.9-1.1-20.6,6.4c-5.6,7.6-11.5,21.3-3.9,25.3
	c3.4,1.9,17.8-9.6,21.5-9.6c3.7,0,2.2,26.3,0.2,34.7c-8.5,41.7-32.8,69.9-26.8,112.9c6,43,22.2,82.7,30.1,125.3
	c4.2,22.4-0.5,40.1-8.2,60.9"/>
<g>
	<path d="M1230.9,231c2.6,0,4.8-2.5,4.7-5.5v-6.5h1.1c0.6,0,1.1-0.6,1.1-1.4c0-0.7-0.6-1.4-1.2-1.4h-1.2v-2.7c0-3-2.2-5.4-4.8-5.4
		h-1.3l-0.3-64.5h3.1c2.6,0,4.8-2.5,4.7-5.5v-1.6h4.5c2.4,0,4.3-2.1,4.7-4.6l-49.3,0.4c0.4,2.6,2.3,4.6,4.6,4.6h2.6l-2.7,2.9
		c-3.7,3.8-4.6,11.2-1.9,16.6l1.2,2.3l3.8,7.1c2.7,3.3,6.6,3.8,9.7,0.9l0.2,41.6h-1.3c-2.6,0-4.8,2.5-4.7,5.5v2.7h-1.1
		c-0.6,0-1.1,0.6-1.1,1.4c0,0.7,0.6,1.4,1.2,1.4h1.1v6.4c0,3,2.2,5.4,4.8,5.4h1.4l14.9-0.1l0,0L1230.9,231z"/>
	<path d="M1233.2,932.6l-0.4-71h6.4c4.5,0,8.2-5.4,8.2-11.9l-0.2-25.6c0-6.5-3.8-11.9-8.2-11.9h-6.4l-0.6-100.8l-0.5-97.5l-0.6-119
		l-0.4-68.8l-1-183l-14.9,0.1l0.9,159.7v11.2l0.5,92.5l0.1,12l0.4,76.5l0.1,10l1.1,207.1l-11.8,0.1c-4.5,0-8.2,5.4-8.2,11.9
		l0.2,25.6c0,6.5,3.8,11.9,8.2,11.9l11.8-0.1l0.4,71L1233.2,932.6z"/>
</g>
<rect x="1214.7" y="225.9" width="14.9" height="34.5"/>
<rect x="1204.8" y="117.2" width="9.9" height="18.9"/>
<rect x="1224.6" y="117.2" width="9.9" height="18.9"/>
<path d="M379.4,832.7c0.1,0.1,0.2,0.1,0.3,0l0.4-0.6c0,0,0,0,0-0.1l-1.4,0.2L379.4,832.7z"/>
<path d="M377.3,832.4l1.5-0.2l-0.7-0.6C377.9,831.9,377.6,832.1,377.3,832.4z"/>
<g>
	<path class="st1" d="M1284.8,817.6l-0.3-3c0.8,1,1.3,2.4,1.4,4c0.1,1.1-0.1,2.3-0.4,3.2C1285.6,820.4,1285.4,818.9,1284.8,817.6z"
		/>
	<path d="M1279.6,828.6l-0.2,0.6c-0.1,0.1-0.1,0.1-0.2,0l-0.4-0.4c-0.1-0.1-0.1-0.2,0-0.3l0.4-1.5c-0.2-0.3-0.5-0.6-0.7-0.7
		l-0.7,1.3c-0.1,0.1-0.1,0.1-0.2,0l-0.4-0.5c-0.1-0.1-0.1-0.2,0-0.3l0.7-1.3c-0.3-0.3-0.5-0.7-0.8-1.1l-0.9,1c-0.1,0.1-0.1,0-0.1,0
		l-0.2-0.5c-0.1-0.1,0-0.1,0-0.2l0.9-1c-0.2-0.4-0.3-0.8-0.5-1.2l-1.1,0.6c0,0-0.1,0-0.1-0.1l-0.2-0.7c0,0,0-0.1,0-0.2l1.1-0.6
		c-0.2-0.5-0.2-1.2-0.4-1.7l-1.2,0.1c-0.1,0.1-0.1,0-0.1-0.1l-0.1-0.6c-0.1-0.1,0-0.1,0-0.2l1.2-0.1c-0.1-0.6-0.1-1.3,0-1.8
		l-1.1-0.4c-0.1-0.1-0.1-0.1-0.1-0.2V816c0.1-0.1,0-0.2,0.1-0.1l1.1,0.4c0.1-0.4,0.1-0.7,0.2-1.1l-1.1-0.8c-0.1-0.1-0.1-0.2,0-0.3
		l0.2-0.6c0.1-0.1,0.1-0.1,0.2,0l1.1,0.8c0,0,0-0.1,0.1-0.2l0.3,3c0.1,0.8,0.3,1.4,0.7,1.8c-0.4,2.4,0.2,5.3,1.7,7
		c2,2.3,4.7,1.8,6.1-0.8c0.5-1,0.7-2.1,0.8-3.2c0.3-1,0.4-2.1,0.4-3.2c-0.1-1.5-0.7-2.9-1.4-4l-0.5-5.2l0.3-1.1
		c0.1-0.1,0.1-0.1,0.2,0l0.4,0.4c0.1,0.1,0.1,0.2,0,0.3l-0.4,1.5c0.2,0.3,0.5,0.6,0.7,0.7l0.7-1.3c0.1-0.1,0.1-0.1,0.2,0l0.4,0.5
		c0.1,0.1,0.1,0.2,0,0.3l-0.7,1.3c0.3,0.3,0.5,0.7,0.8,1.1l0.9-1c0.1-0.1,0.1,0,0.1,0l0.2,0.5c0.1,0.1,0,0.1,0,0.2l-0.9,1
		c0.2,0.4,0.3,0.8,0.5,1.2l1.1-0.6c0,0,0.1,0,0.1,0.1l0.2,0.7c0,0,0,0.1,0,0.2l-1.1,0.6c0.2,0.5,0.2,1.2,0.4,1.7l1.2-0.1
		c0.1-0.1,0.1,0,0.1,0.1l0.1,0.6c0.1,0.1,0,0.1,0,0.2l-1.2,0.1c0.1,0.6,0.1,1.3,0,1.8l1.1,0.4c0.1,0.1,0.1,0.1,0.1,0.2v0.7
		c-0.1,0.1,0,0.2-0.1,0.1l-1.1-0.4c-0.1,0.4-0.1,0.7-0.2,1.1l1.1,0.8c0.1,0.1,0.1,0.2,0,0.3l-0.2,0.6c-0.1,0.1-0.1,0.1-0.2,0
		l-1.1-0.8c-0.2,0.3-0.3,0.7-0.4,1l0.9,1.1c0.1,0.1,0.1,0.2,0,0.3l-0.3,0.5c-0.1,0.1-0.1,0.1-0.2,0l-0.9-1.1c-0.2,0.3-0.5,0.8-0.8,1
		l0.7,1.4c0.1,0.1,0,0.1,0,0.2l-0.3,0.3c-0.1,0.1-0.1,0-0.1,0l-0.7-1.4c-0.2,0.2-0.5,0.5-0.7,0.7l0.5,1.7c0,0,0,0.1,0,0.2l-0.4,0.2
		l2.7,28.7l-5.3,0.5L1279.6,828.6z"/>
	<path class="st1" d="M1279.7,814.5l-0.1-0.8c0.3-0.2,0.5-0.4,0.8-0.6l0.1,1.1C1280.2,814.4,1280,814.5,1279.7,814.5z"/>
	<path d="M1279.1,808.2l0.4,1.5c0.2-0.1,0.4-0.1,0.5-0.2l0.3,3.7c-0.3,0.1-0.6,0.3-0.8,0.6L1279.1,808.2z"/>
	<path d="M1284.2,824.1l-0.5-5.5c-0.2-1.6-1.1-2.7-2.1-2.7l-1.4,0.1c-1.1,0.1-1.8,1.4-1.7,3l0.4,3.7c-0.5-1-0.9-2.2-1-3.4
		c-0.2-2.3,0.5-4.4,1.8-5.6l0.1,0.8c0.3,0,0.5-0.2,0.9-0.2l-0.1-1.1c0.3-0.1,0.6-0.2,0.9-0.3c1.2-0.1,2.3,0.6,3.1,1.7l0.3,3
		c0.6,1.3,0.9,2.8,0.8,4.2C1285.3,822.8,1284.8,823.6,1284.2,824.1z"/>
	<g>
		<path d="M1249.1,743.3c0-0.4,0.1-0.7,0.2-1.1c2.1-4.7,4.1-9.5,6.2-14.2c1-2,3.2-0.1,3,2.2c-0.2,3.6-0.4,7.3-0.6,10.9
			c0,0.7-0.2,1.2-0.6,1.6l5,16.7l4.5,3.1c1.2-1.2,2.6-1.7,4.1-1.6c2.9-3.4,7-3.8,10.4-1.1c1.1-0.8,2.3-1,3.5-0.5l0.8-0.9l1.5-11.6
			c-0.5-0.3-1-0.8-1.2-1.9c-0.5-2.4-1.1-4.8-1.5-7.3c-0.6-2.5,1.6-3.9,2.8-2.1c1.9,2.7,3.8,5.6,5.6,8.4c0.7,1,0.7,2.1,0.4,2.9
			c-0.1,0.7-0.5,1.2-1,1.3l-2,15.1l-0.4-0.2l-1.7,1.9c0.2,1.8-0.1,3.6-0.9,5.3c-0.1,0.2-0.2,0.4-0.3,0.6c0.4,3.7-0.1,7.5-1.6,10.6
			c-1,1.9-2.2,3.3-3.6,4.2l0.6,6.2l-3.9,0.4l-0.5-5.7c-0.3,0-0.6,0.1-0.9,0l0.5,5.8l-3.6,0.3l-0.7-8c-0.4-0.4-0.9-0.8-1.3-1.3
			c-0.5-0.6-1-1.2-1.4-1.9c-1.4-0.3-2.7-1.3-3.8-2.8c-1.3-1.7-2.1-3.8-2.4-6l-7.3-5l0.2-0.8l-0.6,0.4l-6.3-20.8
			C1249.5,746.1,1248.9,744.6,1249.1,743.3z"/>
		<path class="st1" d="M1279.6,809.7l-0.4-1.5l-2-21.9l0.9-0.1l2.1,23.3C1279.9,809.6,1279.8,809.6,1279.6,809.7z"/>
		<path d="M1283.1,809.4l0.2-1.7c0.1-0.1,0-0.1-0.1-0.2l-0.5-0.1c-0.1-0.1-0.1,0-0.1,0.1l-0.2,1.7c-0.3-0.1-0.8-0.1-1.2-0.1
			l-0.2-1.8c-0.1-0.1-0.1-0.2-0.1-0.1l-0.4,0c-0.1,0.1-0.1,0.1,0,0.2l0.2,1.8c-0.2,0.1-0.4,0.1-0.6,0.2l-2.1-23.3l3.9-0.4l2.1,23.5
			l-0.1,0.4C1283.6,809.7,1283.4,809.6,1283.1,809.4z"/>
		<path d="M1279.1,808c-0.1-0.1-0.1-0.1-0.1-0.1l-0.4,0.2c-0.1,0.1,0,0.2,0,0.2l0.3,1.7c-0.2,0.2-0.5,0.5-0.7,0.7l-0.7-1.4
			c-0.1,0-0.1-0.1-0.1,0l-0.3,0.3c0,0.1-0.1,0.1,0,0.2l0.7,1.4c-0.3,0.2-0.5,0.7-0.8,1l-0.9-1.1c-0.1-0.1-0.1-0.1-0.2,0l-2.2-24.5
			l3.6-0.3l2,21.9L1279.1,808z"/>
	</g>
	<path d="M1275.9,811.2l0.9,1.1c0.2-0.3,0.5-0.8,0.8-1l-0.7-1.4c-0.1-0.1,0-0.1,0-0.2l0.3-0.3c0.1-0.1,0.1,0,0.1,0l0.7,1.4
		c0.2-0.2,0.5-0.5,0.7-0.7l-0.3-1.7c0,0,0-0.1,0-0.2l0.4-0.2c0,0,0.1,0,0.1,0.1l0,0.2l0.5,5.5c-1.2,1.1-2,3.2-1.8,5.6
		c0.1,1.2,0.5,2.5,1,3.4l-0.4-3.7c-0.1-1.6,0.6-2.9,1.7-3l1.4-0.1c1.1,0,2,1.1,2.1,2.7l0.5,5.5c0.6-0.5,1-1.3,1.3-2.2
		c-0.1,1.1-0.3,2.2-0.8,3.2c-1.4,2.6-4.1,3.1-6.1,0.8c-1.5-1.7-2.1-4.5-1.7-7c-0.4-0.5-0.6-1-0.7-1.8l-0.3-3
		c0.1-0.3,0.3-0.6,0.4-0.9l-0.5-0.6l-0.1-1.4C1275.8,811.1,1275.8,811.1,1275.9,811.2z"/>
	<path d="M1281.4,812.9c-0.3,0-0.6,0.1-0.9,0.3l-0.3-3.7c0.2,0,0.4-0.1,0.6-0.2l-0.2-1.8c-0.1-0.1,0-0.1,0-0.2l0.4,0
		c0.1-0.1,0.1,0,0.1,0.1l0.2,1.8c0.4,0,0.8,0,1.2,0.1l0.2-1.7c0.1-0.1,0-0.2,0.1-0.1l0.5,0.1c0.1,0.1,0.1,0.1,0.1,0.2l-0.2,1.7
		c0.3,0.2,0.5,0.3,0.8,0.4l0.1-0.4l0.5,5.2C1283.6,813.5,1282.5,812.8,1281.4,812.9z"/>
</g>
<path class="st2" d="M1218.9,71.6c-1.7,0.1-3.1-1.3-3.9-3c-0.8-1.6-1.1-3.5-1.9-5.1c-1.6-3.3-4.8-5.8-5.1-9.5
	c-0.1-2,0.6-3.9,1.3-5.7c0.4-1,0.8-2,1.2-3c0.6-1.5,1.3-3.2,1-4.9c-0.5-2.7-3.1-4.2-5-5.9c-4-3.6-5.5-9.6-6.8-15.1"/>
<path class="st2" d="M1224.1,73.5c1.2-9.4,3-18.7,5.3-27.8c-0.4,1.2,0.3,2.6,1.3,3.3s2.2,0.8,3.4,0.9c2.1-7.1,3.5-14.5,4-22"/>
<ellipse cx="1198.7" cy="19.4" rx="6.3" ry="6"/>
<ellipse cx="1236.9" cy="25.8" rx="6.3" ry="6"/>
<g>
	<ellipse cx="1219.2" cy="713.9" rx="25.7" ry="8.5"/>
	<ellipse cx="1219.2" cy="790.4" rx="25.7" ry="8.5"/>
	<rect x="1193.6" y="713.9" width="51.4" height="76.4"/>
</g>
<g>
	<g>
		<ellipse transform="matrix(0.9016 -0.4326 0.4326 0.9016 -310.37 215.7928)" cx="319.1" cy="790" rx="28.6" ry="8.5"/>
		<ellipse transform="matrix(0.9016 -0.4326 0.4326 0.9016 -336.9289 236.8827)" cx="352.1" cy="858.9" rx="28.6" ry="8.5"/>
		<rect x="307" y="786.2" transform="matrix(0.9016 -0.4326 0.4326 0.9016 -323.6494 226.3378)" width="57.1" height="76.4"/>
	</g>
	<ellipse transform="matrix(0.9016 -0.4326 0.4326 0.9016 -311.5968 216.767)" cx="320.6" cy="793.2" rx="30.8" ry="6.9"/>
	<ellipse transform="matrix(0.9016 -0.4326 0.4326 0.9016 -335.5631 235.7982)" cx="350.4" cy="855.4" rx="30.8" ry="6.9"/>
	<ellipse transform="matrix(0.9016 -0.4326 0.4326 0.9016 -321.3171 224.4857)" cx="332.7" cy="818.4" rx="30.8" ry="6.9"/>
	<ellipse transform="matrix(0.9016 -0.4326 0.4326 0.9016 -327.5714 229.4521)" cx="340.5" cy="834.6" rx="30.8" ry="6.9"/>
</g>
<rect x="293" y="832.4" width="18.6" height="8.2"/>
<rect x="468.6" y="830.8" transform="matrix(0.1396 0.9902 -0.9902 0.1396 1241.3851 248.7007)" width="18" height="15.8"/>
<g>
	<polygon points="1376,755.9 1399.1,745.6 1398.5,744.4 1375.5,754.8 	"/>
	<path d="M1368.7,741.9l1.2-0.6c0.8-0.4,1.7-0.2,2.1,0.5c0.4,0.6,0.1,1.4-0.8,1.9l-1.2,0.6l0.7,1.3l1.2-0.6c0.8-0.4,1.7-0.2,2.1,0.5
		c0.4,0.6,0.1,1.4-0.8,1.9l-1.2,0.6l0.7,1.3l1.2-0.6c0.8-0.4,1.7-0.2,2.1,0.5c0.4,0.6,0.1,1.4-0.8,1.9l-1.2,0.6l1,2.1l23-10.3
		l-1-2.1l-1.1,0.5c-0.8,0.4-1.7,0.2-2.1-0.5c-0.4-0.6-0.1-1.4,0.8-1.9l1.1-0.5l-0.7-1.3l-1.1,0.5c-0.8,0.4-1.7,0.2-2.1-0.5
		c-0.4-0.6-0.1-1.4,0.8-1.9l1.1-0.5l-0.7-1.3l-1.1,0.5c-0.8,0.4-1.7,0.2-2.1-0.5c-0.4-0.6-0.1-1.4,0.8-1.9l1.1-0.5l-1.1-2.1
		l-23,10.3L1368.7,741.9z"/>
	<path d="M1356.2,705.2l1.1,2.1l-0.6,0.2c-0.4,0.2-0.4,0.4-0.3,0.7c0.1,0.3,0.5,0.3,0.8,0.3l0.6-0.2l0.5,0.9c0.5,1,1.8,1.4,3.1,0.9
		l0.5-0.3l11.2,21.7l-1.5,0.6c-1.2,0.5-1.8,1.8-1.3,2.8l0.3,0.5l-2.1,1c-1.1,0.5-1.6,1.7-1.4,2.6l22.9-10.3c-0.6-0.8-1.9-1.1-3-0.5
		l-2.1,0.9l-0.3-0.5c-0.5-1-1.8-1.4-3.1-0.9l-1.5,0.6l-11.2-21.7l0.5-0.3c1.2-0.5,1.8-1.8,1.3-2.8l-0.5-0.9l0.6-0.2
		c0.4-0.2,0.4-0.4,0.3-0.7c-0.1-0.3-0.5-0.3-0.8-0.3l-0.6,0.2l-1.1-2.1c-0.5-1-1.8-1.4-3.1-0.9l-8.3,3.7
		C1356.2,702.8,1355.6,704.1,1356.2,705.2z"/>
	<path d="M1475.1,870.8L1444,853l14.9-65.1l-15.9-3.6l0-21.2h-42.2l0.1,6.4l-5-9.8c1.5-2.1,2.1-4.7,1.5-7.2l1.9-0.9
		c1.2-0.5,1.8-1.8,1.3-2.8l-1.2-2.2l-23,10.3l1.2,2.2c0.5,1,1.8,1.4,3.1,0.9l1-0.5c1.7,2.3,4.3,3.7,7.1,3.7l5,9.8l-31.4-7.2
		l-8.1,35.6l-33.1-19l0.1-0.5l1.9-2.1c0.3-0.3,0.6-1.4,0.6-2.4c0-1-0.3-1.4-0.5-1l-1.5,1.8l0.7-7.2l1.9-2.1c0.3-0.3,0.6-1.4,0.6-2.4
		s-0.3-1.4-0.5-1l-1.5,1.8l0.7-7.2l1.9-2.1c0.3-0.3,0.6-1.4,0.6-2.4c0-1-0.3-1.4-0.5-1l-1.5,1.8l0.7-7.2l1.9-2.1
		c0.3-0.3,0.6-1.4,0.6-2.4c0-1-0.3-1.4-0.5-1l-1.5,1.8l0.7-7.2l1.9-2.1c0.3-0.3,0.6-1.4,0.6-2.4s-0.3-1.4-0.5-1l-1.5,1.8l0.7-7.2
		l1.9-2.1c0.3-0.3,0.6-1.4,0.6-2.4c0-1-0.3-1.4-0.5-1l-1.5,1.8l0.7-7.2l1.9-2.1c0.3-0.3,0.6-1.4,0.6-2.4c0-1-0.3-1.4-0.5-1l-1.5,1.8
		l0.7-7.2l1.9-2.1c0.3-0.3,0.6-1.4,0.6-2.4c0-1-0.3-1.4-0.5-1l-1.5,1.8l0.7-7.2l1.9-2.1c0.3-0.3,0.6-1.4,0.6-2.4c0-1-0.3-1.4-0.5-1
		l-1.5,1.8l0.7-7.2l1.9-2.1c0.3-0.3,0.6-1.4,0.6-2.4s-0.3-1.4-0.5-1l-1.5,1.8l0.7-7.2l1.9-2.1c0.3-0.3,0.6-1.4,0.6-2.4
		c0-1-0.3-1.4-0.5-1l-1.5,1.8l0.7-7.2l1.9-2.1c0.3-0.3,0.6-1.4,0.6-2.4c0-1-0.3-1.4-0.5-1l-1.5,1.8l0.7-7.2l1.9-2.1
		c0.3-0.3,0.6-1.4,0.6-2.4s-0.3-1.4-0.5-1l-1.5,1.8l0.7-7.2l1.9-2.1c0.3-0.3,0.6-1.4,0.6-2.4c0-1-0.3-1.4-0.5-1l-1.5,1.8l0.7-7.2
		l1.9-2.1c0.3-0.3,0.6-1.4,0.6-2.4c0-1-0.3-1.4-0.5-1l-1.5,1.8l0.7-7.2l1.9-2.1c0.3-0.3,0.6-1.4,0.6-2.4c0-1-0.3-1.4-0.5-1l-1.5,1.8
		l0.7-7.2l1.9-2.1c0.3-0.3,0.6-1.4,0.6-2.4c0-1-0.3-1.4-0.5-1l-1.5,1.8l0.7-7.2l1.9-2.1c0.3-0.3,0.6-1.4,0.6-2.4s-0.3-1.4-0.5-1
		l-1.5,1.8l0.7-7.2l1.9-2.1c0.3-0.3,0.6-1.4,0.6-2.4c0-1-0.3-1.4-0.5-1l-1.5,1.8l0.7-7.2l1.9-2.1c0.3-0.3,0.6-1.4,0.6-2.4
		c0-1-0.3-1.4-0.5-1l-1.5,1.8l0.7-7.2l1.9-2.1c0.3-0.3,0.6-1.4,0.6-2.4s-0.3-1.4-0.5-1l-1.5,1.8l0.7-7.2l1.9-2.1
		c0.3-0.3,0.6-1.4,0.6-2.4s-0.3-1.4-0.5-1l-1.5,1.8l0.7-7.2l1.9-2.1c0.3-0.3,0.6-1.4,0.6-2.4s-0.3-1.4-0.5-1l-1.5,1.8l0.7-7.2
		l1.9-2.1c0.3-0.3,0.6-1.4,0.6-2.4s-0.3-1.4-0.5-1l-1.5,1.8l0.7-7.2l1.9-2.1c0.3-0.3,0.6-1.4,0.6-2.4c0-1-0.3-1.4-0.5-1l-1.5,1.8
		l0.7-7.2l1.9-2.1c0.3-0.3,0.6-1.4,0.6-2.4c0-1-0.3-1.4-0.5-1l-1.5,1.8l0.7-7.2l1.9-2.1c0.3-0.3,0.6-1.4,0.6-2.4s-0.3-1.4-0.5-1
		l-1.5,1.8l0.7-7.2l1.9-2.1c0.3-0.3,0.6-1.4,0.6-2.4s-0.3-1.4-0.5-1l-1.5,1.8l0.7-7.2l1.9-2.1c0.3-0.3,0.6-1.4,0.6-2.4
		s-0.3-1.4-0.5-1l-1.5,1.8l0.7-7.2l1.9-2.1c0.3-0.3,0.6-1.4,0.6-2.4c0-1-0.3-1.4-0.5-1l-1.5,1.8l0.7-7.2l1.9-2.1
		c0.3-0.3,0.6-1.4,0.6-2.4c0-1-0.3-1.4-0.5-1l-1.5,1.8l0.7-7.2l1.9-2.1c0.3-0.3,0.6-1.4,0.6-2.4s-0.3-1.4-0.5-1l-1.5,1.8l0.7-7.2
		l1.9-2.1c0.3-0.3,0.6-1.4,0.6-2.4s-0.3-1.4-0.5-1l-1.5,1.7l0.7-7.2l1.9-2.1c0.3-0.3,0.6-1.4,0.6-2.4s-0.3-1.4-0.5-1l-1.5,1.8
		l0.6-5.6l-2.7,0.6l0.4-4.7l-11.3,2.5l-0.4,4.7l-3.1,0.7l-2.5,24.4l-1.4,1.5c-0.3,0.3-0.6,1.4-0.6,2.4s0.3,1.4,0.5,1l1-1.2l-0.8,8.2
		l-1.4,1.5c-0.3,0.3-0.6,1.4-0.6,2.4s0.3,1.4,0.5,1l1-1.2l-0.7,7.2l-1.4,1.5c-0.3,0.3-0.6,1.4-0.6,2.4s0.3,1.4,0.5,1l1-1.2l-0.7,7.2
		l-1.4,1.5c-0.3,0.3-0.6,1.4-0.6,2.4c0,1,0.3,1.4,0.5,1l1-1.2l-0.7,7.2l-1.4,1.5c-0.3,0.3-0.6,1.4-0.6,2.4s0.3,1.4,0.5,1l1-1.2
		l-0.7,7.2l-1.4,1.5c-0.3,0.3-0.6,1.4-0.6,2.4s0.3,1.4,0.5,1l1-1.2l-0.7,7.2l-1.4,1.5c-0.3,0.3-0.6,1.4-0.6,2.4s0.3,1.4,0.5,1l1-1.2
		l-0.7,7.2l-1.4,1.5c-0.3,0.3-0.6,1.4-0.6,2.4s0.3,1.4,0.5,1l1-1.2l-0.7,7.2l-1.4,1.5c-0.3,0.3-0.6,1.4-0.6,2.4c0,1,0.3,1.4,0.5,1
		l1-1.2l-0.7,7.2l-1.4,1.5c-0.3,0.3-0.6,1.4-0.6,2.4c0,1,0.3,1.4,0.5,1l1-1.2l-0.7,7.2l-1.4,1.5c-0.3,0.3-0.6,1.4-0.6,2.4
		s0.3,1.4,0.5,1l1-1.2l-0.7,7.2l-1.4,1.5c-0.3,0.3-0.6,1.4-0.6,2.4c0,1,0.3,1.4,0.5,1l1-1.2l-0.7,7.2l-1.4,1.5
		c-0.3,0.3-0.6,1.4-0.6,2.4c0,1,0.3,1.4,0.5,1l1-1.2l-0.7,7.2l-1.4,1.5c-0.3,0.3-0.6,1.4-0.6,2.4c0,1,0.3,1.4,0.5,1l1-1.2l-0.7,7.2
		l-1.4,1.5c-0.3,0.3-0.6,1.4-0.6,2.4c0,1,0.3,1.4,0.5,1l1-1.2l-0.7,7.2l-1.4,1.5c-0.3,0.3-0.6,1.4-0.6,2.4c0,1,0.3,1.4,0.5,1l1-1.2
		l-0.7,7.2l-1.4,1.5c-0.3,0.3-0.6,1.4-0.6,2.4c0,1,0.3,1.4,0.5,1l1-1.2l-0.7,7.2l-1.4,1.5c-0.3,0.3-0.6,1.4-0.6,2.4
		c0,1,0.3,1.4,0.5,1l1-1.2l-0.8,8.2l-1.4,1.5c-0.3,0.3-0.6,1.4-0.6,2.4c0,1,0.3,1.4,0.5,1l1-1.2l-0.7,7.2l-1.4,1.5
		c-0.3,0.3-0.6,1.4-0.6,2.4c0,1,0.3,1.4,0.5,1l1-1.2l-0.7,7.2l-1.4,1.5c-0.3,0.3-0.6,1.4-0.6,2.4c0,1,0.3,1.4,0.5,1l1-1.2l-0.7,7.2
		l-1.4,1.5c-0.3,0.3-0.6,1.4-0.6,2.4s0.3,1.4,0.5,1l1-1.2l-0.7,7.2l-1.4,1.5c-0.3,0.3-0.6,1.4-0.6,2.4c0,1,0.3,1.4,0.5,1l1-1.2
		l-0.7,7.2l-1.4,1.5c-0.3,0.3-0.6,1.4-0.6,2.4c0,1,0.3,1.4,0.5,1l1-1.2l-0.7,7.2l-1.4,1.5c-0.3,0.3-0.6,1.4-0.6,2.4
		c0,1,0.3,1.4,0.5,1l1-1.2l-0.7,7.2l-1.4,1.5c-0.3,0.3-0.6,1.4-0.6,2.4c0,1,0.3,1.4,0.5,1l1-1.2l-0.7,7.2l-1.4,1.5
		c-0.3,0.3-0.6,1.4-0.6,2.4c0,1,0.3,1.4,0.5,1l1-1.2l-0.7,7.2l-1.4,1.5c-0.3,0.3-0.6,1.4-0.6,2.4c0,1,0.3,1.4,0.5,1l1-1.2l-0.7,7.2
		l-1.4,1.5c-0.3,0.3-0.6,1.4-0.6,2.4c0,1,0.3,1.4,0.5,1l1-1.2l-0.7,7.2l-1.4,1.5c-0.3,0.3-0.6,1.4-0.6,2.4c0,1,0.3,1.4,0.5,1l1-1.2
		l-0.7,7.2l-1.4,1.5c-0.2,0.2-0.4,0.7-0.5,1.3l-139.5-80l5.7-6.3c0.6,0,1.5,0.2,2.2,0.1c0.9,0,1.9-0.1,2.7-0.2c1.8,1,3.8,1.5,6,1.3
		c2.5-0.2,4.6-1.2,6.2-2.7l11.4,2.8l0.3-0.9l0.5,0.8l19.1-11.2c1.2,0.5,2.7-0.2,3.3-1.4c0.2-0.3,0.3-0.7,0.3-1.1
		c0.3-5.9,0.6-11.7,0.9-17.6c0-2.5-3.6-3.1-4.8-1c-1.9,3.2-3.7,6.4-5.6,9.5c-0.4,0.5-0.4,1.2-0.3,1.8l-15.3,9.1l-6.9-1.7
		c-0.7-2.1-2.1-3.9-3.8-5.1c-1.3-5.5-5.8-9.7-11.4-10.7c-0.8-1.7-2.1-3-3.7-3.7l-0.4-1.5l4.9-11c0.8,0.3,1.6,0.2,2.4-0.4
		c1.9-1.5,4-3,5.9-4.6c2.1-1.5,0.4-4.7-2-4.3c-3.7,0.5-7.5,1.1-11.3,1.6c-1.3,0.2-2,1.1-2.1,2.1c-0.2,0.7-0.2,1.4,0.4,2l-6.4,14.3
		l0.6,0.3l0.9,3.2c-1.2,1.3-1.9,3.1-2,5.2c0,0.3,0,0.5,0,0.8c-2.6,2.6-4.2,6.3-4.2,10.3c0,2.5,0.7,4.9,1.8,6.9l-6.4,7l-41.2-23.7
		l2.9-27.2l3.4-2.5h3.2c0.7,0,2.1-0.7,3.1-1.6s1.2-1.6,0.4-1.6h-2.4l8.1-6h3.2c0.7,0,2.1-0.7,3.1-1.6c1-0.9,1.2-1.6,0.4-1.6h-2.4
		l8.1-6h3.2c0.7,0,2.1-0.7,3.1-1.6c1-0.9,1.2-1.6,0.4-1.6h-2.4l8.1-6h3.2c0.7,0,2.1-0.7,3.1-1.6c1-0.9,1.2-1.6,0.4-1.6h-2.4l8.1-6
		h3.2c0.7,0,2.1-0.7,3.1-1.6c1-0.9,1.2-1.6,0.4-1.6h-2.4l8.1-6h3.2c0.7,0,2.1-0.7,3.1-1.6c1-0.9,1.2-1.6,0.4-1.6h-2.4l8.1-6h3.2
		c0.7,0,2.1-0.7,3.1-1.6c1-0.9,1.2-1.6,0.4-1.6h-2.4l8.1-6h3.2c0.7,0,2.1-0.7,3.1-1.6c1-0.9,1.2-1.6,0.4-1.6h-2.4l5.8-4.3h3.2
		c0.7,0,2.1-0.7,3.1-1.6c1-0.9,1.2-1.6,0.4-1.6h-2.4l8.1-6h3.2c0.7,0,2.1-0.7,3.1-1.6c1-0.9,1.2-1.6,0.4-1.6h-2.4l8.1-6h3.2
		c0.7,0,2.1-0.7,3.1-1.6c1-0.9,1.2-1.6,0.4-1.6h-2.4l8.1-6h3.2c0.7,0,2.1-0.7,3.1-1.6c1-0.9,1.2-1.6,0.4-1.6h-2.4l1.2-0.9
		l-24.4-11.4l-22.2,16.5h-4.4c-0.7,0-2.1,0.7-3.1,1.6c-1,0.9-1.2,1.6-0.4,1.6l3.6-0.1l-8.1,6h-4.4c-0.7,0-2.1,0.7-3.1,1.6
		c-1,0.9-1.2,1.6-0.4,1.6l3.6-0.1l-8.1,6h-4.4c-0.7,0-2.1,0.7-3.1,1.6c-1,0.9-1.2,1.6-0.4,1.6l3.6-0.1l-8.1,6h-4.4
		c-0.7,0-2.1,0.7-3.1,1.6c-1,0.9-1.2,1.6-0.4,1.6l3.6-0.1l-8.1,6h-4.4c-0.7,0-2.1,0.7-3.1,1.6c-1,0.9-1.2,1.6-0.4,1.6l3.6-0.1
		l-8.1,6h-4.4c-0.7,0-2.1,0.7-3.1,1.6c-1,0.9-1.2,1.6-0.4,1.6l3.6-0.1l-8.1,6h-4.4c-0.7,0-2.1,0.7-3.1,1.6c-1,0.9-1.2,1.6-0.4,1.6
		l3.6-0.1l-8.1,6h-4.4c-0.3,0-0.7,0.1-1.2,0.3l4.7-43.5l-15.1-1.4l-6.6,61.1l-2.2,1.6h-4.4c-0.7,0-2.1,0.7-3.1,1.6
		c-1,0.9-1.2,1.6-0.4,1.6l3.6-0.1l-8.1,6h-4.4c-0.7,0-2.1,0.7-3.1,1.6s-1.2,1.6-0.4,1.6l3.6-0.1l-8.1,6h-4.4c-0.7,0-2.1,0.7-3.1,1.6
		c-1,0.9-1.2,1.6-0.4,1.6l3.6-0.1l-8.1,6h-4.4c-0.7,0-2.1,0.7-3.1,1.6c-1,0.9-1.2,1.6-0.4,1.6l3.6-0.1l-8.1,6h-4.4
		c-0.7,0-2.1,0.7-3.1,1.6c-1,0.9-1.2,1.6-0.4,1.6l3.6-0.1l-5.9,4.4c0,0,0-0.1-0.1-0.1c-0.4-0.6-0.8-0.8-1-0.4l-0.9,1.9l-2.3-5
		l1.1-2.3c0.2-0.4,0-1.2-0.4-1.8c-0.4-0.6-0.8-0.8-1-0.4l-0.9,1.9l-2.3-5l1.1-2.3c0.2-0.4,0-1.2-0.4-1.8c-0.4-0.6-0.8-0.8-1-0.4
		l-0.9,1.9l-2.3-5l1.1-2.3c0.2-0.4,0-1.2-0.4-1.8c-0.4-0.6-0.8-0.8-1-0.4l-0.9,1.9l-2.3-5l1.1-2.3c0.2-0.4,0-1.2-0.4-1.8
		c-0.4-0.6-0.8-0.8-1-0.4l-0.9,1.9l-2.3-5l1.1-2.3c0.2-0.4,0-1.2-0.4-1.8s-0.8-0.8-1-0.4l-0.9,1.9l-2.3-5l1.1-2.3
		c0.2-0.4,0-1.2-0.4-1.8s-0.8-0.8-1-0.4l-0.9,1.9l-2.3-5l1.1-2.3c0.2-0.4,0-1.2-0.4-1.8s-0.8-0.8-1-0.4l-0.9,1.9l-2.3-5l1.1-2.3
		c0.2-0.4,0-1.2-0.4-1.8s-0.8-0.8-1-0.4l-0.9,1.9l-2.3-5l1.1-2.3c0.2-0.4,0-1.2-0.4-1.8s-0.8-0.8-1-0.4l-0.9,1.9l-2.3-5l1.1-2.3
		c0.2-0.4,0-1.2-0.4-1.8s-0.8-0.8-1-0.4l-0.9,1.9l-2.3-5l1.1-2.3c0.2-0.4,0-1.2-0.4-1.8s-0.8-0.8-1-0.4l-0.9,1.9l-2.3-5l1.1-2.3
		c0.2-0.4,0-1.2-0.4-1.8s-0.8-0.8-1-0.4l-0.9,1.9l-2.3-5l1.1-2.3c0.2-0.4,0-1.2-0.4-1.8s-0.8-0.8-1-0.4l-0.9,1.9l-2.3-5l1.1-2.3
		c0.2-0.4,0-1.2-0.4-1.8s-0.8-0.8-1-0.4l-0.9,1.8l-2.3-5l1.1-2.3c0.2-0.4,0-1.2-0.4-1.8s-0.8-0.8-1-0.4l-0.9,1.9l-1.8-3.9l-2.6,1.7
		l-1.5-3.2l-11,7l1.5,3.2l-3.1,1.9l7.7,16.9l-0.8,1.7c-0.2,0.4,0,1.2,0.4,1.8s0.8,0.8,1,0.4l0.6-1.3l2.6,5.7l-0.8,1.7
		c-0.2,0.4,0,1.2,0.4,1.8s0.8,0.8,1,0.4l0.6-1.3l2.3,5l-0.8,1.7c-0.2,0.4,0,1.2,0.4,1.8s0.8,0.8,1,0.4l0.6-1.3l2.3,5l-0.8,1.7
		c-0.2,0.4,0,1.2,0.4,1.8s0.8,0.8,1,0.4l0.6-1.3l2.3,5l-0.8,1.7c-0.2,0.4,0,1.2,0.4,1.8s0.8,0.8,1,0.4l0.6-1.3l2.3,5l-0.8,1.7
		c-0.2,0.4,0,1.2,0.4,1.8s0.8,0.8,1,0.4l0.6-1.3l2.3,5l-0.8,1.7c-0.2,0.4,0,1.2,0.4,1.8s0.8,0.8,1,0.4l0.6-1.3l2.3,5l-0.8,1.7
		c-0.2,0.4,0,1.2,0.4,1.8s0.8,0.8,1,0.4l0.6-1.3l2.3,5l-0.8,1.7c-0.2,0.4,0,1.2,0.4,1.8s0.8,0.8,1,0.4l0.6-1.3l2.3,5l-0.8,1.7
		c-0.2,0.4,0,1.2,0.4,1.8s0.8,0.8,1,0.4l0.6-1.3l2.3,5l-0.8,1.7c-0.2,0.4,0,1.2,0.4,1.8s0.8,0.8,1,0.4l0.6-1.3l2.3,5l-0.8,1.7
		c-0.2,0.4,0,1.2,0.4,1.8s0.8,0.8,1,0.4l0.6-1.3l2.3,5l-0.8,1.7c-0.2,0.4,0,1.2,0.4,1.8s0.8,0.8,1,0.4l0.6-1.3l2.3,5l-0.2,0.4
		c-0.7,0.3-1.7,0.8-2.4,1.4c-1,0.9-1.2,1.6-0.4,1.6l2.6-0.1c0,0,0,0,0,0.1c0.1,0.2,0.2,0.3,0.3,0.4l-7.4,5.5h-4.4
		c-0.7,0-2.1,0.7-3.1,1.6c-1,0.9-1.2,1.6-0.4,1.6l3.6-0.1l-8.1,6h-4.4c-0.7,0-2.1,0.7-3.1,1.6c-1,0.9-1.2,1.6-0.4,1.6l3.6-0.1
		l-8.1,6h-4.4c-0.7,0-2.1,0.7-3.1,1.6s-1.2,1.6-0.4,1.6l3.6-0.1l-8.1,6h-4.4c-0.7,0-2.1,0.7-3.1,1.6c-1,0.9-1.2,1.6-0.4,1.6l3.6-0.1
		l-8.1,6h-4.4c-0.7,0-2.1,0.7-3.1,1.6c-1,0.9-1.2,1.6-0.4,1.6l3.6-0.1l-8.1,6h-4.4c-0.7,0-2.1,0.7-3.1,1.6c-1,0.9-1.2,1.6-0.4,1.6
		l3.6-0.1l-8.1,6h-4.4c-0.7,0-2.1,0.7-3.1,1.6c-1,0.9-1.2,1.6-0.4,1.6l3.6-0.1l-8.1,6h-4.4c-0.7,0-2.1,0.7-3.1,1.6s-1.2,1.6-0.4,1.6
		l3.6-0.1l-8.1,6h-4.4c-0.7,0-2.1,0.7-3.1,1.6c-1,0.9-1.2,1.6-0.4,1.6l3.6-0.1l-8.1,6h-4.4c-0.7,0-2.1,0.7-3.1,1.6
		c-1,0.9-1.2,1.6-0.4,1.6l3.6-0.1l-8.1,6h-4.4c-0.7,0-2.1,0.7-3.1,1.6c-1,0.9-1.2,1.6-0.4,1.6l3.6-0.1l-8.1,6h-4.4
		c-0.7,0-2.1,0.7-3.1,1.6c-1,0.9-1.2,1.6-0.4,1.6l3.6-0.1l-8.1,6h-4.4c0,0-0.1,0-0.2,0v-11.8h-25.9l0-5.9h-7.9l0,5.9H818l0,8.7
		l-55.3-23.7l7.7-41.7l-3.5-0.6c0.5-6.3-12.8-14-30.3-17.5c-18-3.5-33.5-1.2-34.8,5.2c0,0.1,0,0.2,0,0.2l-6.9-1.3l-3.6,19.6
		l10.2,2.4l-8,31.9l-8.1-1.9l-3,16.3l-12.1,2l-0.8-0.7c-0.2-0.2-0.5-0.2-0.7,0l-1.1,1.2l-4.6,0.8c-0.3-0.2-0.6-0.5-1-0.7l2.6-4.4
		c0.1-0.2,0.1-0.6-0.1-0.7l-1.8-1c-0.2-0.1-0.6-0.1-0.7,0.1l-2.6,4.4c-1.1-0.6-2.3-1.1-3.4-1.5l1.5-4.9c0.1-0.3-0.1-0.6-0.4-0.7
		l-1.9-0.6c-0.3-0.1-0.6,0.1-0.7,0.4l-1.5,4.9c-1.6-0.4-3.3-0.6-5-0.7v-5c0-0.3-0.2-0.5-0.5-0.5h-2c-0.3,0-0.5,0.2-0.5,0.5v5.1
		c-1.7,0.1-3.3,0.3-4.9,0.7l-1.4-4.9c-0.1-0.3-0.4-0.4-0.7-0.4l-1.9,0.6c-0.3,0.1-0.4,0.4-0.4,0.7l1.4,4.9c-1.2,0.4-2.4,1-3.5,1.5
		l-2.6-4.4c-0.1-0.2-0.4-0.3-0.7-0.1l-1.8,1c-0.2,0.1-0.3,0.4-0.1,0.7l2.6,4.4c-1.2,0.8-2.4,1.7-3.5,2.7l-3.7-3.6
		c-0.2-0.2-0.5-0.2-0.7,0l-1.4,1.4c-0.2,0.2-0.2,0.5,0,0.7l3.7,3.7c-0.7,0.7-1.3,1.5-1.8,2.3l-1.5,0.2l-3.5-2
		c-0.2-0.1-0.6-0.1-0.7,0.1l-1,1.8c-0.1,0.2-0.1,0.6,0.1,0.7l0.3,0.2l-21,3.5l-2.5-2.2l1.1-0.7c0.2-0.1,0.3-0.5,0.2-0.7l-1-1.7
		c-0.1-0.2-0.5-0.3-0.7-0.2l-2,1.2l-3.6-3.2l2.2-2.3c0.2-0.2,0.2-0.5,0-0.7l-1.4-1.4c-0.2-0.2-0.5-0.2-0.7,0l-2.4,2.4l-3.1-2.8
		l1.6-2.7c0.1-0.2,0.1-0.5-0.2-0.7l-1.7-1c-0.2-0.1-0.5-0.1-0.7,0.2L580,775l-3.4-3l0.3-1c0.1-0.3-0.1-0.5-0.3-0.6l-1.8-0.5
		c-0.2-0.1-0.3,0-0.5,0.1l-33.1-29.3l-5.4,6.1l29.3,25.9v1.4c-1.6,0.1-3.2,0.3-4.7,0.6l-1.4-4.7c-0.1-0.3-0.4-0.4-0.6-0.3l-1.8,0.5
		c-0.3,0.1-0.4,0.4-0.3,0.6l1.4,4.7c-1.2,0.4-2.3,0.9-3.4,1.4l-2.5-4.2c-0.1-0.2-0.5-0.3-0.7-0.2l-1.7,1c-0.2,0.1-0.3,0.5-0.2,0.7
		l2.5,4.2c-1.2,0.8-2.3,1.6-3.3,2.6l-3.6-3.4c-0.2-0.2-0.5-0.2-0.7,0l-1.4,1.4c-0.2,0.2-0.2,0.5,0,0.7l3.5,3.5
		c-0.8,0.9-1.6,1.9-2.3,3l-4.2-2.5c-0.2-0.1-0.5-0.1-0.7,0.2l-1,1.7c-0.1,0.2-0.1,0.5,0.2,0.7l4.2,2.5c-0.6,1.1-1,2.2-1.5,3.3
		l-4.6-1.5c-0.3-0.1-0.5,0.1-0.6,0.3l-0.6,1.8c-0.1,0.3,0.1,0.5,0.3,0.6l4.7,1.4c-0.3,1.3-0.5,2.6-0.6,3.9l-60.8,10.1l17.2,103.3
		l210.2-35l-0.7-4.3l35.4,6.5l-1,0.8h-4.4c-0.7,0-2.1,0.7-3.1,1.6c-1,0.9-1.2,1.6-0.4,1.6l3.6-0.1l-6.3,4.7l3.9,2.4l-5.2,3.9
		l16.1,9.9l5.2-3.9l4.5,2.8l27.4-20.3h3.2c0.7,0,2.1-0.7,3.1-1.6c1-0.9,1.2-1.6,0.4-1.6h-2.4l9.2-6.8h3.2c0.7,0,2.1-0.7,3.1-1.6
		c1-0.9,1.2-1.6,0.4-1.6h-2.4l0.1-0.1h221.4v-14.8h55.4l-1.3,11.9l15.1,1.4l1.4-13.2h11.9c0.1,0.3,0.2,0.7,0.4,1
		c0.4,0.6,0.8,0.8,1,0.4l0.6-1.3l2.3,5l-0.8,1.7c-0.2,0.4,0,1.2,0.4,1.8c0.4,0.6,0.8,0.8,1,0.4l0.6-1.3l0.3,0.8l13.6-8.5h59.6v2.5
		c0,0.7,0.6,1.3,1.3,1.3h11.1v13.3l-8.8,2.6c-0.6,0.2-1.1,0.9-0.9,1.6l1.4,4.6c0.2,0.6,0.9,1.1,1.6,0.9l6.7-2v12.2l-1.7,1
		c-0.6,0.4-0.8,1.1-0.4,1.7l2.1,3.5v14.3h11.1l3.1,3c0.5,0.5,1.3,0.5,1.8,0l2.9-3h13.1l-6.1,10.5c-0.4,0.6-0.1,1.3,0.4,1.7l4.2,2.4
		c0.6,0.4,1.3,0.1,1.7-0.4l6.2-10.6c2.7,1.3,5.5,2.6,8.3,3.5l-3.5,11.8c-0.2,0.6,0.2,1.3,0.9,1.6l4.6,1.3c0.6,0.2,1.3-0.2,1.6-0.9
		l3.5-11.8c3.9,0.9,7.9,1.5,12,1.7v12.3c0,0.7,0.6,1.3,1.3,1.3h4.8c0.7,0,1.3-0.6,1.3-1.3v-12.3c4-0.2,7.9-0.8,11.8-1.6l3.4,11.8
		c0.2,0.6,0.9,1.1,1.6,0.9l4.6-1.3c0.6-0.2,1.1-0.9,0.9-1.6l-3.4-11.8c3-1,5.8-2.3,8.5-3.6l6.2,10.6c0.4,0.6,1.1,0.8,1.7,0.4
		l4.2-2.4c0.6-0.4,0.8-1.1,0.4-1.7l-6.1-10.5h15l2,2c0.5,0.5,1.3,0.5,1.8,0l2-2h37.9v-50.4l77.9,17.8l2.5-11l27.1,15.5L1475.1,870.8
		z M1118.4,601l1.6,0l-1.7,1.3L1118.4,601z M550.2,796.9c2-7.2,8.5-12.5,16.4-12.5c5.8,0,11,2.9,14.1,7.4L550.2,796.9z M702,762.5
		l-4.8-1.1l8-31.9l4.2,1L702,762.5z M754.9,804.1l12.2,5.2l-13.5,1.9L754.9,804.1z M752.3,870.9h-4.4c-0.7,0-2.1,0.7-3.1,1.6
		c-1,0.9-1.2,1.6-0.4,1.6h3.5l-6.8,5l1.8-9.7h11.4L752.3,870.9z M806.8,827c-0.5,0.5-0.8,0.9-0.9,1.2h-48l40.3-5.5l9.1,3.9
		C807.1,826.7,806.9,826.8,806.8,827z M859.3,792.3v-0.2l0.3,0L859.3,792.3z M906.2,789.9h2.9l-3.5,0.5L906.2,789.9z M1008.2,828.2
		h-91.5l-38.5-16.5l130-17.8V828.2z M1054.7,749.9h-46.6v26.4l-98.1,13.5c0.7-0.2,1.7-0.8,2.4-1.5c1-0.9,1.2-1.6,0.4-1.6h-2.4l8.1-6
		h3.2c0.7,0,2.1-0.7,3.1-1.6c1-0.9,1.2-1.6,0.4-1.6h-2.4l8.1-6h3.2c0.7,0,2.1-0.7,3.1-1.6c1-0.9,1.2-1.6,0.4-1.6h-2.4l8.1-6h3.2
		c0.7,0,2.1-0.7,3.1-1.6c1-0.9,1.2-1.6,0.4-1.6h-2.4l8.1-6h3.2c0.7,0,2.1-0.7,3.1-1.6c1-0.9,1.2-1.6,0.4-1.6h-2.4l8.1-6h3.2
		c0.7,0,2.1-0.7,3.1-1.6c1-0.9,1.2-1.6,0.4-1.6h-2.4l8.1-6h3.2c0.7,0,2.1-0.7,3.1-1.6c1-0.9,1.2-1.6,0.4-1.6h-2.4l8.1-6h3.2
		c0.7,0,2.1-0.7,3.1-1.6c1-0.9,1.2-1.6,0.4-1.6h-2.4l9.2-6.8h3.2c0.7,0,2.1-0.7,3.1-1.6c1-0.9,1.2-1.6,0.4-1.6h-2.4l8.1-6h3.2
		c0.7,0,2.1-0.7,3.1-1.6s1.2-1.6,0.4-1.6h-2.4l7.8-5.8c0.1,0,0.2-0.1,0.3-0.2l0,0h1.2l1.7,3.7l-0.8,1.7c-0.2,0.4,0,1.2,0.4,1.8
		c0.4,0.6,0.8,0.8,1,0.4l0.6-1.3l2.6,5.7l-0.8,1.7c-0.2,0.4,0,1.2,0.4,1.8c0.4,0.6,0.8,0.8,1,0.4l0.6-1.3l2.3,5l-0.8,1.7
		c-0.2,0.4,0,1.2,0.4,1.8c0.4,0.6,0.8,0.8,1,0.4l0.6-1.3l2.3,5l-0.8,1.7c-0.2,0.4,0,1.2,0.4,1.8c0.4,0.6,0.8,0.8,1,0.4l0.6-1.3
		l2.3,5l-0.8,1.7c-0.2,0.4,0,1.2,0.4,1.8c0.4,0.6,0.8,0.8,1,0.4l0.6-1.3l2.3,5l-0.8,1.7c-0.2,0.4,0,1.2,0.4,1.8
		c0.4,0.6,0.8,0.8,1,0.4l0.6-1.3l2.3,5l-0.8,1.7C1054.5,749,1054.6,749.5,1054.7,749.9z M1056.6,749.9l0.1-0.2l0.1,0.2H1056.6z
		 M1069.2,729.8l-0.8-1.8l1.4,0.5L1069.2,729.8z M1087,749.9h-8.6l-1.1-2.3l1.1-2.3c0.2-0.4,0-1.2-0.4-1.8c-0.4-0.6-0.8-0.8-1-0.4
		l-0.9,1.9l-2.3-5l1.1-2.3c0.2-0.4,0-1.2-0.4-1.8c-0.4-0.6-0.8-0.8-1-0.4l-0.9,1.9l-2.3-5l1.1-2.3c0.1-0.2,0.1-0.5,0-0.9l17.1,6.5
		L1087,749.9z M1097.4,654.1l-0.2-0.1l-7.6,13.2l6,3.4l-5.3,49.5l-27-10.3l-1.5,3.9l-1.9-4.1l1.1-2.3c0.2-0.4,0-1.2-0.4-1.8
		c-0.4-0.6-0.8-0.8-1-0.4l-0.9,1.9l-2.3-5l1.1-2.3c0.2-0.4,0-1.2-0.4-1.8c-0.4-0.6-0.8-0.8-1-0.4l-0.9,1.9l-2.3-5l1.1-2.3
		c0.2-0.4,0-1.2-0.4-1.8c-0.4-0.6-0.8-0.8-1-0.4l-0.9,1.9l-2.3-5l0,0c0.2-0.1,0.4-0.3,0.6-0.5c1-0.9,1.2-1.6,0.4-1.6l0.1-0.2
		c0.2-0.3,0-0.9-0.2-1.5l5.8-4.3h3.2c0.7,0,2.1-0.7,3.1-1.6c1-0.9,1.2-1.6,0.4-1.6h-2.4l8.1-6h3.2c0.7,0,2.1-0.7,3.1-1.6
		s1.2-1.6,0.4-1.6h-2.4l8.1-6h3.2c0.7,0,2.1-0.7,3.1-1.6c1-0.9,1.2-1.6,0.4-1.6h-2.4l8.1-6h3.2c0.3,0,0.8-0.1,1.3-0.4L1097.4,654.1z
		 M1098.1,647.9h-0.5l0.5-0.4L1098.1,647.9z M1103.1,742.4l0.1-1.1l0.6,0.2L1103.1,742.4z M1289.2,781.7l9.6,5.5l-3.8,6.4
		c-2.7-1.3-5.5-2.6-8.3-3.5L1289.2,781.7z M1226.8,833.5c7.3-13,21.2-21.7,37.2-21.7c14.7,0,27.6,7.3,35.3,18.5l-0.3,3.1l-0.1,0.1
		H1226.8z M1301.7,796.6c0.1,0,0.1,0,0.2-0.2l1-1.2l-0.3,2.9c-0.4-0.3-0.9-0.6-1.3-0.9L1301.7,796.6z M1343.1,833.5
		C1343.1,833.4,1343.1,833.4,1343.1,833.5l-0.1-0.5l1.3,0.5H1343.1z M1328.3,831.4c-0.6-1.6-1.3-3.2-2-4.8l7.9,3L1328.3,831.4z
		 M1232.8,793.8l-2.2-3.8l5.7,2.2C1235.1,792.7,1233.9,793.2,1232.8,793.8z M1221.3,788.6l5.2,8.9c-1.8,1.2-3.5,2.4-5.2,3.8V788.6z
		 M1350.1,819.4l-15.5-5.9l-1.6-2.7c-0.4-0.6-1.1-0.8-1.7-0.4l-1.9,1.1l-10.8-4.1l0.3-3.5l1.9-2.1c0.2-0.2,0.3-0.5,0.4-0.9l0.5-0.5
		l29,16.6L1350.1,819.4z M1163.3,683.3c0.3,0.3,0.7,0.6,1,0.8l-5,5.5l-1.2-0.7L1163.3,683.3z M1148.8,701.2l-23.4,25.6l-1.4,0.8
		c-0.2-0.2-0.4-0.4-0.5-0.6l24.2-26.4L1148.8,701.2z M1104.9,725.7l5.1-46.8l32.5,18.6l-23.5,25.6l0.3-1.2c0-0.1-0.1-0.2-0.2-0.2
		l-0.7-0.1c-0.1,0-0.2,0.1-0.2,0.2l-0.4,1.6c-0.4,0-0.9,0-1.3-0.1l-0.1-1.7c0-0.1-0.1-0.2-0.2-0.2l-0.7,0c-0.1,0-0.2,0.1-0.2,0.2
		l0.1,1.7c-0.5-0.1-1,0-1.5,0.2l-0.5-1.7c0-0.1-0.1-0.1-0.1-0.1l-0.6,0.2c-0.1,0-0.1,0.1-0.1,0.1l0.5,1.7c-0.4,0.2-0.8,0.3-1.3,0.5
		l-0.9-1.5c0,0-0.1-0.1-0.2-0.1l-0.6,0.4c0,0-0.1,0.1-0.1,0.2l0.9,1.5c-0.5,0.2-1,0.7-1.4,1l-1.3-1.2c0-0.1-0.1-0.1-0.2-0.1
		l-0.4,0.4c-0.1,0-0.1,0.1-0.1,0.2l1.3,1.2c-0.2,0.2-0.3,0.3-0.4,0.5L1104.9,725.7z M1121.6,730.9l-0.5,0.6c-0.3-0.3-0.5-0.6-0.9-1
		l0.8-0.8C1121.2,730,1121.4,730.5,1121.6,730.9z M1115.4,727.1l-1.8,2l-1.6-0.6C1113,727.6,1114.2,727.2,1115.4,727.1z M1107,749.9
		l4.8-5.2l13.7,5.2H1107z M1177.7,749.9l3.4-3.5c0.2-0.2,0.2-0.5,0-0.7l-1.4-1.4c-0.2-0.2-0.5-0.2-0.7,0l-3.4,3.5
		c-0.9-0.8-1.9-1.6-3-2.3l2.5-4.2c0.1-0.2,0.1-0.5-0.2-0.7l-1.7-1c-0.2-0.1-0.5-0.1-0.7,0.2l-2.5,4.2c-1.1-0.5-2.2-1-3.3-1.4
		l1.4-4.7c0.1-0.3-0.1-0.5-0.3-0.6l-1.8-0.5c-0.3-0.1-0.5,0.1-0.6,0.3l-1.4,4.7c-1.6-0.4-3.1-0.6-4.8-0.7v-4.9
		c0-0.3-0.2-0.5-0.5-0.5h-1.9c-0.3,0-0.5,0.2-0.5,0.5v4.9c-1.6,0.1-3.2,0.3-4.7,0.6l-1.4-4.7c-0.1-0.3-0.4-0.4-0.6-0.3l-1.8,0.5
		c-0.3,0.1-0.4,0.4-0.3,0.6l1.4,4.7c0,0,0,0,0,0l-5.4-2.1l-0.4-0.8c-0.1-0.2-0.5-0.3-0.7-0.2l-0.5,0.3l-15.5-5.9l0.4-0.5l0.8,0
		c0.1,0,0.2-0.1,0.2-0.2l0-0.7c0,0,0,0,0-0.1l26-28.5l129,74l-3,10.2c-3.9-0.9-7.9-1.5-12-1.7v-12.1c0-0.7-0.6-1.3-1.3-1.3h-4.8
		c-0.7,0-1.3,0.6-1.3,1.3v10.8l-14.3-5.5l-0.9-3.2c-0.2-0.6-0.9-1.1-1.6-0.9l-4.6,1.3c0,0-0.1,0-0.1,0.1l-17.4-6.6v-20.3
		L1177.7,749.9L1177.7,749.9z"/>
	<polygon points="980.3,528.6 979.4,526.7 959.3,539.4 960.2,541.4 	"/>
	<path d="M962.7,547.1c0.9,1.8,2.4,2.8,3.5,2.1l16.3-10.3c1.1-0.7,1.3-2.8,0.3-4.5l-1.9-4.1L960.8,543L962.7,547.1z"/>
</g>
</svg>
