<?xml version="1.0" encoding="utf-8"?>
<!-- Generator: Adobe Illustrator 19.0.0, SVG Export Plug-In . SVG Version: 6.00 Build 0)  -->
<svg version="1.1" id="manche_d" xmlns="http://www.w3.org/2000/svg" xmlns:xlink="http://www.w3.org/1999/xlink" x="0px" y="0px"
	 viewBox="282 0.4 1159.6 840.5" style="enable-background:new 282 0.4 1159.6 840.5;" xml:space="preserve">
<style type="text/css">
	.st0{fill:#0D0D0F;}
	.st1{fill:none;stroke:#000000;stroke-width:6;stroke-miterlimit:10;}
</style>
<g>
	<g>
		<path id="XMLID_2_" class="st0" d="M1130.9,550.7c-5-1.8-10.6,0.4-13,5l20,7.1C1138.8,557.8,1136,552.6,1130.9,550.7z"/>
		<path id="XMLID_1_" class="st0" d="M1123.8,571c5,1.8,10.6-0.4,13-5l-20-7.1C1115.9,564,1118.7,569.2,1123.8,571z"/>
		<path d="M1173.1,558.8h-7c-0.1-2.4-0.5-4.8-1-7.1l6.7-2c0.4-0.1,0.6-0.5,0.5-0.9l-0.8-2.6c-0.1-0.4-0.5-0.6-0.9-0.5l-6.7,2
			c-0.6-1.7-1.3-3.3-2.1-4.8l6-3.5c0.3-0.2,0.4-0.6,0.2-1l-1.4-2.4c-0.2-0.3-0.6-0.4-1-0.2l-6,3.5c-1.1-1.7-2.4-3.3-3.7-4.8l4.9-5
			c0.3-0.3,0.3-0.7,0-1l-2-1.9c-0.3-0.3-0.7-0.3-1,0l-4.9,5c-1.3-1.2-2.8-2.3-4.3-3.3l3.5-6c0.2-0.3,0.1-0.8-0.2-1l-2.4-1.4
			c-0.3-0.2-0.8-0.1-1,0.2l-3.5,6c-1.5-0.8-3.1-1.5-4.7-2l2-6.7c0.1-0.4-0.1-0.8-0.5-0.9l-2.6-0.8c-0.4-0.1-0.8,0.1-0.9,0.5l-2,6.7
			c-2.2-0.5-4.5-0.8-6.8-1V515c0-0.4-0.3-0.7-0.7-0.7h-2.7c-0.4,0-0.7,0.3-0.7,0.7v7c-2.3,0.1-4.5,0.4-6.7,0.9l-1.9-6.7
			c-0.1-0.4-0.5-0.6-0.9-0.5l-2.6,0.8c-0.4,0.1-0.6,0.5-0.5,0.9l1.9,6.7c-1.7,0.6-3.3,1.3-4.8,2.1l-3.5-6c-0.2-0.3-0.6-0.4-1-0.2
			l-2.4,1.4c-0.3,0.2-0.4,0.6-0.2,1l3.5,6c-1.7,1.1-3.3,2.3-4.8,3.7l-5.1-4.9c-0.3-0.3-0.7-0.3-1,0l-1.9,1.9c-0.3,0.3-0.3,0.7,0,1
			l5,5c-1.2,1.3-2.3,2.7-3.3,4.2l-6-3.5c-0.3-0.2-0.8-0.1-1,0.2l-1.4,2.4c-0.2,0.3-0.1,0.8,0.2,1l6,3.5c-0.8,1.5-1.5,3.1-2.1,4.7
			l-6.7-2c-0.4-0.1-0.8,0.1-0.9,0.5l-0.8,2.6c-0.1,0.4,0.1,0.8,0.5,0.9l6.7,2c-0.6,2.3-0.9,4.7-1,7.2h-6.9c-0.4,0-0.7,0.3-0.7,0.7
			v2.7c0,0.4,0.3,0.7,0.7,0.7h7c0.1,2.4,0.5,4.8,1,7.1l-6.7,2c-0.4,0.1-0.6,0.5-0.5,0.9l0.8,2.6c0.1,0.4,0.5,0.6,0.9,0.5l6.7-2
			c0.6,1.7,1.3,3.3,2.1,4.8l-6,3.5c-0.3,0.2-0.4,0.6-0.2,1l1.4,2.4c0.2,0.3,0.6,0.4,1,0.2l6-3.5c1.1,1.7,2.4,3.3,3.7,4.8l-4.9,5
			c-0.3,0.3-0.3,0.7,0,1l2,1.9c0.3,0.3,0.7,0.3,1,0l4.9-5c1.3,1.2,2.8,2.3,4.3,3.3l-3.5,6c-0.2,0.3-0.1,0.8,0.2,1l2.4,1.4
			c0.3,0.2,0.8,0.1,1-0.2l3.5-6c1.5,0.8,3.1,1.5,4.7,2l-2,6.7c-0.1,0.4,0.1,0.8,0.5,0.9l2.6,0.8c0.4,0.1,0.8-0.1,0.9-0.5l2-6.7
			c2.2,0.5,4.5,0.8,6.8,1v7c0,0.4,0.3,0.7,0.7,0.7h2.7c0.4,0,0.7-0.3,0.7-0.7v-7c2.3-0.1,4.5-0.4,6.7-0.9l1.9,6.7
			c0.1,0.4,0.5,0.6,0.9,0.5l2.6-0.8c0.4-0.1,0.6-0.5,0.5-0.9l-1.9-6.7c1.7-0.6,3.3-1.3,4.8-2.1l3.5,6c0.2,0.3,0.6,0.4,1,0.2l2.4-1.4
			c0.3-0.2,0.4-0.6,0.2-1l-3.5-6c1.7-1.1,3.3-2.3,4.8-3.7l5,4.9c0.3,0.3,0.7,0.3,1,0l1.9-1.9c0.3-0.3,0.3-0.7,0-1l-4.8-5
			c1.2-1.3,2.3-2.7,3.3-4.2l6,3.5c0.3,0.2,0.8,0.1,1-0.2l1.4-2.4c0.2-0.3,0.1-0.8-0.2-1l-6-3.5c0.8-1.5,1.5-3.1,2.1-4.7l6.7,2
			c0.4,0.1,0.8-0.1,0.9-0.5l0.8-2.6c0.1-0.4-0.1-0.8-0.5-0.9l-6.7-2c0.6-2.3,0.9-4.7,1-7.2h7c0.4,0,0.7-0.3,0.7-0.7v-2.7
			C1173.8,559.1,1173.5,558.8,1173.1,558.8z M1127.4,585.2c-13.5,0-24.4-10.9-24.4-24.4s10.9-24.4,24.4-24.4s24.4,10.9,24.4,24.4
			C1151.7,574.3,1140.8,585.2,1127.4,585.2z"/>
	</g>
	<path d="M1250.4,525.2l-22.2,16.5h-4.4c-0.7,0-2.1,0.7-3.1,1.6c-1,0.9-1.2,1.6-0.4,1.6l3.6-0.1l-8.1,6h-4.4c-0.7,0-2.1,0.7-3.1,1.6
		c-1,0.9-1.2,1.6-0.4,1.6l3.6-0.1l-8.1,6h-4.4c-0.7,0-2.1,0.7-3.1,1.6c-1,0.9-1.2,1.6-0.4,1.6l3.6-0.1l-8.1,6h-4.4
		c-0.7,0-2.1,0.7-3.1,1.6c-1,0.9-1.2,1.6-0.4,1.6l3.6-0.1l-8.1,6h-4.4c-0.7,0-2.1,0.7-3.1,1.6c-1,0.9-1.2,1.6-0.4,1.6l3.6-0.1
		l-8.1,6h-4.4c-0.7,0-2.1,0.7-3.1,1.6c-1,0.9-1.2,1.6-0.4,1.6l3.6-0.1l-8.1,6h-4.4c-0.7,0-2.1,0.7-3.1,1.6c-1,0.9-1.2,1.6-0.4,1.6
		l3.6-0.1l-8.1,6h-4.4c-0.7,0-2.1,0.7-3.1,1.6c-1,0.9-1.2,1.6-0.4,1.6l3.6-0.1l-8.1,6h-4.4c-0.7,0-2.1,0.7-3.1,1.6
		c-1,0.9-1.2,1.6-0.4,1.6l3.6-0.1l-8.1,6h-4.4c-0.7,0-2.1,0.7-3.1,1.6c-1,0.9-1.2,1.6-0.4,1.6l3.6-0.1l-8.1,6h-4.4
		c-0.7,0-2.1,0.7-3.1,1.6s-1.2,1.6-0.4,1.6l3.6-0.1l-8.1,6h-4.4c-0.7,0-2.1,0.7-3.1,1.6c-1,0.9-1.2,1.6-0.4,1.6l3.6-0.1l-8.1,6h-4.4
		c-0.7,0-2.1,0.7-3.1,1.6c-1,0.9-1.2,1.6-0.4,1.6l3.6-0.1l-8.1,6h-4.4c-0.7,0-2.1,0.7-3.1,1.6c-1,0.9-1.2,1.6-0.4,1.6l3.6-0.1
		l-8.1,6h-4.4c-0.7,0-2.1,0.7-3.1,1.6c-1,0.9-1.2,1.6-0.4,1.6l3.6-0.1l-8.1,6h-4.4c-0.7,0-2.1,0.7-3.1,1.6s-1.2,1.6-0.4,1.6l3.6-0.1
		l-8.1,6h-4.4c-0.7,0-2.1,0.7-3.1,1.6c-1,0.9-1.2,1.6-0.4,1.6l3.6-0.1l-8.1,6h-4.4c-0.7,0-2.1,0.7-3.1,1.6c-1,0.9-1.2,1.6-0.4,1.6
		l3.6-0.1l-8.1,6h-4.4c-0.7,0-2.1,0.7-3.1,1.6s-1.2,1.6-0.4,1.6l3.6-0.1l-8.1,6h-4.4c-0.7,0-2.1,0.7-3.1,1.6c-1,0.9-1.2,1.6-0.4,1.6
		l3.6-0.1l-8.1,6h-4.4c-0.7,0-2.1,0.7-3.1,1.6c-1,0.9-1.2,1.6-0.4,1.6l3.6-0.1l-8.1,6h-4.4c-0.7,0-2.1,0.7-3.1,1.6
		c-1,0.9-1.2,1.6-0.4,1.6l3.6-0.1l-8.1,6H951c-0.7,0-2.1,0.7-3.1,1.6c-1,0.9-1.2,1.6-0.4,1.6l3.6-0.1l-8.1,6h-4.4
		c-0.7,0-2.1,0.7-3.1,1.6s-1.2,1.6-0.4,1.6l3.6-0.1l-8.1,6h-4.4c-0.7,0-2.1,0.7-3.1,1.6c-1,0.9-1.2,1.6-0.4,1.6l3.6-0.1l-8.1,6h-4.4
		c-0.7,0-2.1,0.7-3.1,1.6c-1,0.9-1.2,1.6-0.4,1.6l3.6-0.1l-8.1,6h-4.4c-0.7,0-2.1,0.7-3.1,1.6c-1,0.9-1.2,1.6-0.4,1.6l3.6-0.1
		l-8.1,6H889c-0.7,0-2.1,0.7-3.1,1.6c-1,0.9-1.2,1.6-0.4,1.6l3.6-0.1l-8.1,6h-4.4c-0.7,0-2.1,0.7-3.1,1.6s-1.2,1.6-0.4,1.6l3.6-0.1
		l-8.1,6h-4.4c-0.7,0-2.1,0.7-3.1,1.6c-1,0.9-1.2,1.6-0.4,1.6l3.6-0.1l-8.1,6h-4.4c-0.7,0-2.1,0.7-3.1,1.6c-1,0.9-1.2,1.6-0.4,1.6
		l3.6-0.1l-8.1,6h-4.4c-0.7,0-2.1,0.7-3.1,1.6s-1.2,1.6-0.4,1.6l3.6-0.1l-8.1,6H827c-0.7,0-2.1,0.7-3.1,1.6c-1,0.9-1.2,1.6-0.4,1.6
		l3.6-0.1l-8.1,6h-4.4c-0.7,0-2.1,0.7-3.1,1.6c-1,0.9-1.2,1.6-0.4,1.6l3.6-0.1l-8.1,6h-4.4c-0.7,0-2.1,0.7-3.1,1.6
		c-1,0.9-1.2,1.6-0.4,1.6l3.6-0.1l-8.1,6h-4.4c-0.7,0-2.1,0.7-3.1,1.6c-1,0.9-1.2,1.6-0.4,1.6l3.6-0.1l-8.1,6h-4.4
		c-0.7,0-2.1,0.7-3.1,1.6c-1,0.9-1.2,1.6-0.4,1.6l3.6-0.1l-8.1,6H765c-0.7,0-2.1,0.7-3.1,1.6c-1,0.9-1.2,1.6-0.4,1.6h3.5l-8.1,6
		h-4.4c-0.7,0-2.1,0.7-3.1,1.6c-1,0.9-1.2,1.6-0.4,1.6l3.6-0.1l-6.3,4.7l3.9,2.4l-5.2,3.9l16.1,9.9l5.2-3.9l4.5,2.8l27.4-20.3h3.2
		c0.7,0,2.1-0.7,3.1-1.6c1-0.9,1.2-1.6,0.4-1.6h-2.4l9.2-6.8h3.2c0.7,0,2.1-0.7,3.1-1.6c1-0.9,1.2-1.6,0.4-1.6H816l8.1-6h3.2
		c0.7,0,2.1-0.7,3.1-1.6c1-0.9,1.2-1.6,0.4-1.6h-2.4l8.1-6h3.2c0.7,0,2.1-0.7,3.1-1.6c1-0.9,1.2-1.6,0.4-1.6h-2.4l8.1-6h3.2
		c0.7,0,2.1-0.7,3.1-1.6s1.2-1.6,0.4-1.6h-2.4l8.1-6h3.2c0.7,0,2.1-0.7,3.1-1.6c1-0.9,1.2-1.6,0.4-1.6h-2.4l8.1-6h3.2
		c0.7,0,2.1-0.7,3.1-1.6c1-0.9,1.2-1.6,0.4-1.6H878l8.1-6h3.2c0.7,0,2.1-0.7,3.1-1.6c1-0.9,1.2-1.6,0.4-1.6h-2.4l8.1-6h3.2
		c0.7,0,2.1-0.7,3.1-1.6s1.2-1.6,0.4-1.6h-2.4l8.1-6h3.2c0.7,0,2.1-0.7,3.1-1.6c1-0.9,1.2-1.6,0.4-1.6h-2.4l8.1-6h3.2
		c0.7,0,2.1-0.7,3.1-1.6c1-0.9,1.2-1.6,0.4-1.6h-2.4l8.1-6h3.2c0.7,0,2.1-0.7,3.1-1.6c1-0.9,1.2-1.6,0.4-1.6H940l8.1-6h3.2
		c0.7,0,2.1-0.7,3.1-1.6c1-0.9,1.2-1.6,0.4-1.6h-2.4l8.1-6h3.2c0.7,0,2.1-0.7,3.1-1.6c1-0.9,1.2-1.6,0.4-1.6h-2.4l8.1-6h3.2
		c0.7,0,2.1-0.7,3.1-1.6c1-0.9,1.2-1.6,0.4-1.6h-2.4l8.1-6h3.2c0.7,0,2.1-0.7,3.1-1.6c1-0.9,1.2-1.6,0.4-1.6h-2.4l8.1-6h3.2
		c0.7,0,2.1-0.7,3.1-1.6c1-0.9,1.2-1.6,0.4-1.6h-2.4l8.1-6h3.2c0.7,0,2.1-0.7,3.1-1.6c1-0.9,1.2-1.6,0.4-1.6h-2.4l9.2-6.8h3.2
		c0.7,0,2.1-0.7,3.1-1.6c1-0.9,1.2-1.6,0.4-1.6h-2.4l8.1-6h3.2c0.7,0,2.1-0.7,3.1-1.6s1.2-1.6,0.4-1.6h-2.4l8.1-6h3.2
		c0.7,0,2.1-0.7,3.1-1.6c1-0.9,1.2-1.6,0.4-1.6h-2.4l8.1-6h3.2c0.7,0,2.1-0.7,3.1-1.6c1-0.9,1.2-1.6,0.4-1.6h-2.4l8.1-6h3.2
		c0.7,0,2.1-0.7,3.1-1.6c1-0.9,1.2-1.6,0.4-1.6h-2.4l8.1-6h3.2c0.7,0,2.1-0.7,3.1-1.6s1.2-1.6,0.4-1.6h-2.4l8.1-6h3.2
		c0.7,0,2.1-0.7,3.1-1.6c1-0.9,1.2-1.6,0.4-1.6h-2.4l8.1-6h3.2c0.7,0,2.1-0.7,3.1-1.6c1-0.9,1.2-1.6,0.4-1.6h-2.4l8.1-6h3.2
		c0.7,0,2.1-0.7,3.1-1.6c1-0.9,1.2-1.6,0.4-1.6h-2.4l8.1-6h3.2c0.7,0,2.1-0.7,3.1-1.6s1.2-1.6,0.4-1.6h-2.4l8.1-6h3.2
		c0.7,0,2.1-0.7,3.1-1.6c1-0.9,1.2-1.6,0.4-1.6h-2.4l8.1-6h3.2c0.7,0,2.1-0.7,3.1-1.6c1-0.9,1.2-1.6,0.4-1.6h-2.4l8.1-6h3.2
		c0.7,0,2.1-0.7,3.1-1.6c1-0.9,1.2-1.6,0.4-1.6h-2.4l8.1-6h3.2c0.7,0,2.1-0.7,3.1-1.6c1-0.9,1.2-1.6,0.4-1.6h-2.4l8.1-6h3.2
		c0.7,0,2.1-0.7,3.1-1.6c1-0.9,1.2-1.6,0.4-1.6h-2.4l8.1-6h3.2c0.7,0,2.1-0.7,3.1-1.6c1-0.9,1.2-1.6,0.4-1.6h-2.4l8.1-6h3.2
		c0.7,0,2.1-0.7,3.1-1.6c1-0.9,1.2-1.6,0.4-1.6h-2.4l5.8-4.3h3.2c0.7,0,2.1-0.7,3.1-1.6c1-0.9,1.2-1.6,0.4-1.6h-2.4l8.1-6h3.2
		c0.7,0,2.1-0.7,3.1-1.6c1-0.9,1.2-1.6,0.4-1.6h-2.4l8.1-6h3.2c0.7,0,2.1-0.7,3.1-1.6c1-0.9,1.2-1.6,0.4-1.6h-2.4l8.1-6h3.2
		c0.7,0,2.1-0.7,3.1-1.6c1-0.9,1.2-1.6,0.4-1.6h-2.4l1.2-0.9L1250.4,525.2z"/>
	
		<rect x="1106.2" y="525.1" transform="matrix(-0.9952 -9.825525e-002 9.825525e-002 -0.9952 2153.6414 1500.2797)" width="15.2" height="344.1"/>
	<rect x="1230.8" y="613.7" transform="matrix(-0.357 0.9341 -0.9341 -0.357 2414.479 -90.4323)" width="15.2" height="344.1"/>
	<rect x="1291.9" y="558.6" transform="matrix(-0.4976 0.8674 -0.8674 -0.4976 2619.6042 35.7063)" width="15.2" height="435.7"/>
	<rect x="1025.3" y="757.4" width="213.1" height="104.7"/>
	<rect x="503" y="798.1" transform="matrix(-0.9864 0.1644 -0.1644 -0.9864 1350.5963 1589.1177)" width="213.1" height="104.7"/>
	<g>
		<path id="XMLID_43_" d="M1287.5,844.3c-8.9-3.2-18.6,0.8-22.9,8.9l35.1,12.5C1301.4,856.6,1296.5,847.5,1287.5,844.3z"/>
		<path id="XMLID_42_" d="M1274.9,879.9c8.9,3.2,18.6-0.8,22.9-8.9l-35.1-12.5C1261,867.6,1266,876.7,1274.9,879.9z"/>
		<path d="M1361.6,858.4h-12.3c-0.2-4.3-0.9-8.4-1.8-12.4l11.8-3.5c0.6-0.2,1.1-0.9,0.9-1.6l-1.4-4.6c-0.2-0.6-0.9-1.1-1.6-0.9
			l-11.8,3.5c-1.1-2.9-2.3-5.7-3.8-8.5l10.6-6.2c0.6-0.4,0.8-1.1,0.4-1.7l-2.5-4.2c-0.4-0.6-1.1-0.8-1.7-0.4l-10.6,6.2
			c-2-3-4.2-5.7-6.6-8.4l8.6-8.8c0.5-0.5,0.5-1.3,0-1.8l-3.5-3.4c-0.5-0.5-1.3-0.5-1.8,0l-8.6,8.8c-2.3-2.1-4.9-4-7.5-5.7l6.2-10.6
			c0.4-0.6,0.1-1.3-0.4-1.7l-4.2-2.4c-0.6-0.4-1.3-0.1-1.7,0.4l-6.2,10.6c-2.7-1.3-5.5-2.6-8.3-3.5l3.5-11.8
			c0.2-0.6-0.2-1.3-0.9-1.6l-4.6-1.3c-0.6-0.2-1.3,0.2-1.6,0.9l-3.5,11.8c-3.9-0.9-7.9-1.5-12-1.7v-12.1c0-0.7-0.6-1.3-1.3-1.3h-4.8
			c-0.7,0-1.3,0.6-1.3,1.3v12.3c-4,0.2-7.9,0.8-11.8,1.6l-3.4-11.8c-0.2-0.6-0.9-1.1-1.6-0.9l-4.6,1.3c-0.6,0.2-1.1,0.9-0.9,1.6
			l3.4,11.8c-3,1-5.8,2.3-8.5,3.6l-6.2-10.6c-0.4-0.6-1.1-0.8-1.7-0.4l-4.2,2.4c-0.6,0.4-0.8,1.1-0.4,1.7l6.2,10.6
			c-3,1.9-5.7,4.1-8.4,6.5l-8.9-8.6c-0.5-0.5-1.3-0.5-1.8,0l-3.4,3.4c-0.5,0.5-0.5,1.3,0,1.8l8.7,8.7c-2.1,2.3-4,4.8-5.8,7.4
			l-10.6-6.2c-0.6-0.4-1.3-0.1-1.7,0.4l-2.5,4.2c-0.4,0.6-0.1,1.3,0.4,1.7l10.6,6.2c-1.4,2.7-2.6,5.5-3.7,8.3l-11.8-3.5
			c-0.6-0.2-1.3,0.1-1.6,0.9l-1.4,4.6c-0.2,0.6,0.1,1.3,0.9,1.6l11.8,3.5c-1,4-1.6,8.3-1.8,12.6h-12.2c-0.7,0-1.3,0.6-1.3,1.3v4.8
			c0,0.7,0.6,1.3,1.3,1.3h12.3c0.2,4.3,0.9,8.4,1.8,12.4l-11.8,3.5c-0.6,0.2-1.1,0.9-0.9,1.6l1.4,4.6c0.2,0.6,0.9,1.1,1.6,0.9
			l11.8-3.5c1.1,2.9,2.3,5.7,3.8,8.5l-10.6,6.2c-0.6,0.4-0.8,1.1-0.4,1.7l2.5,4.2c0.4,0.6,1.1,0.8,1.7,0.4l10.6-6.2
			c2,3,4.2,5.7,6.6,8.4l-8.6,8.8c-0.5,0.5-0.5,1.3,0,1.8l3.5,3.4c0.5,0.5,1.3,0.5,1.8,0l8.6-8.8c2.3,2.1,4.9,4,7.5,5.7l-6.2,10.6
			c-0.4,0.6-0.1,1.3,0.4,1.7l4.2,2.4c0.6,0.4,1.3,0.1,1.7-0.4l6.2-10.6c2.7,1.3,5.5,2.6,8.3,3.5l-3.5,11.8c-0.2,0.6,0.2,1.3,0.9,1.6
			l4.6,1.3c0.6,0.2,1.3-0.2,1.6-0.9l3.5-11.8c3.9,0.9,7.9,1.5,12,1.7v12.3c0,0.7,0.6,1.3,1.3,1.3h4.8c0.7,0,1.3-0.6,1.3-1.3v-12.3
			c4-0.2,7.9-0.8,11.8-1.6l3.4,11.8c0.2,0.6,0.9,1.1,1.6,0.9l4.6-1.3c0.6-0.2,1.1-0.9,0.9-1.6l-3.4-11.8c3-1,5.8-2.3,8.5-3.6
			l6.2,10.6c0.4,0.6,1.1,0.8,1.7,0.4l4.2-2.4c0.6-0.4,0.8-1.1,0.4-1.7l-6.2-10.6c3-1.9,5.7-4.1,8.4-6.5l8.7,8.6
			c0.5,0.5,1.3,0.5,1.8,0l3.4-3.4c0.5-0.5,0.5-1.3,0-1.8l-8.5-8.8c2.1-2.3,4-4.8,5.8-7.4l10.6,6.2c0.6,0.4,1.3,0.1,1.7-0.4l2.5-4.2
			c0.4-0.6,0.1-1.3-0.4-1.7l-10.6-6.2c1.4-2.7,2.6-5.5,3.7-8.3l11.8,3.5c0.6,0.2,1.3-0.1,1.6-0.9l1.4-4.6c0.2-0.6-0.1-1.3-0.9-1.6
			l-11.8-3.5c1-4,1.6-8.3,1.8-12.6h12.3c0.7,0,1.3-0.6,1.3-1.3v-4.8C1362.8,859,1362.3,858.4,1361.6,858.4z M1281.2,904.9
			c-23.7,0-42.8-19.1-42.8-42.8c0-23.7,19.1-42.8,42.8-42.8s42.8,19.1,42.8,42.8C1324,885.8,1304.9,904.9,1281.2,904.9z"/>
	</g>
	<g>
		<path id="XMLID_4_" class="st0" d="M1177.4,768.7c-3.5-1.3-7.4,0.3-9.1,3.5l14,5C1183,773.6,1181,769.9,1177.4,768.7z"/>
		<path id="XMLID_3_" class="st0" d="M1172.4,782.8c3.5,1.3,7.4-0.3,9.1-3.5l-14-5C1166.9,777.9,1168.9,781.6,1172.4,782.8z"/>
		<path d="M1206.9,774.3h-4.9c-0.1-1.7-0.3-3.3-0.7-4.9l4.7-1.4c0.3-0.1,0.4-0.4,0.3-0.6l-0.6-1.8c-0.1-0.3-0.4-0.4-0.6-0.3
			l-4.7,1.4c-0.4-1.2-0.9-2.3-1.5-3.4l4.2-2.5c0.2-0.1,0.3-0.5,0.2-0.7l-1-1.7c-0.1-0.2-0.5-0.3-0.7-0.2l-4.2,2.5
			c-0.8-1.2-1.7-2.3-2.6-3.3l3.4-3.5c0.2-0.2,0.2-0.5,0-0.7l-1.4-1.4c-0.2-0.2-0.5-0.2-0.7,0l-3.4,3.5c-0.9-0.8-1.9-1.6-3-2.3
			l2.5-4.2c0.1-0.2,0.1-0.5-0.2-0.7l-1.7-1c-0.2-0.1-0.5-0.1-0.7,0.2l-2.5,4.2c-1.1-0.5-2.2-1-3.3-1.4l1.4-4.7
			c0.1-0.3-0.1-0.5-0.3-0.6l-1.8-0.5c-0.3-0.1-0.5,0.1-0.6,0.3l-1.4,4.7c-1.6-0.4-3.1-0.6-4.8-0.7v-4.9c0-0.3-0.2-0.5-0.5-0.5h-1.9
			c-0.3,0-0.5,0.2-0.5,0.5v4.9c-1.6,0.1-3.2,0.3-4.7,0.6l-1.4-4.7c-0.1-0.3-0.4-0.4-0.6-0.3l-1.8,0.5c-0.3,0.1-0.4,0.4-0.3,0.6
			l1.4,4.7c-1.2,0.4-2.3,0.9-3.4,1.4l-2.5-4.2c-0.1-0.2-0.5-0.3-0.7-0.2l-1.7,1c-0.2,0.1-0.3,0.5-0.2,0.7l2.5,4.2
			c-1.2,0.8-2.3,1.6-3.3,2.6l-3.6-3.4c-0.2-0.2-0.5-0.2-0.7,0l-1.4,1.4c-0.2,0.2-0.2,0.5,0,0.7l3.5,3.5c-0.8,0.9-1.6,1.9-2.3,3
			l-4.2-2.5c-0.2-0.1-0.5-0.1-0.7,0.2l-1,1.7c-0.1,0.2-0.1,0.5,0.2,0.7l4.2,2.5c-0.6,1.1-1,2.2-1.5,3.3l-4.7-1.4
			c-0.3-0.1-0.5,0.1-0.6,0.3l-0.6,1.8c-0.1,0.3,0.1,0.5,0.3,0.6l4.7,1.4c-0.4,1.6-0.6,3.3-0.7,5h-4.9c-0.3,0-0.5,0.2-0.5,0.5v1.9
			c0,0.3,0.2,0.5,0.5,0.5h4.9c0.1,1.7,0.3,3.3,0.7,4.9l-4.7,1.4c-0.3,0.1-0.4,0.4-0.3,0.6l0.6,1.8c0.1,0.3,0.4,0.4,0.6,0.3l4.7-1.4
			c0.4,1.2,0.9,2.3,1.5,3.4l-4.2,2.5c-0.2,0.1-0.3,0.5-0.2,0.7l1,1.7c0.1,0.2,0.5,0.3,0.7,0.2l4.2-2.5c0.8,1.2,1.7,2.3,2.6,3.3
			l-3.4,3.5c-0.2,0.2-0.2,0.5,0,0.7l1.4,1.4c0.2,0.2,0.5,0.2,0.7,0l3.4-3.5c0.9,0.8,1.9,1.6,3,2.3l-2.5,4.2
			c-0.1,0.2-0.1,0.5,0.2,0.7l1.7,1c0.2,0.1,0.5,0.1,0.7-0.2l2.5-4.2c1.1,0.5,2.2,1,3.3,1.4l-1.4,4.7c-0.1,0.3,0.1,0.5,0.3,0.6
			l1.8,0.5c0.3,0.1,0.5-0.1,0.6-0.3l1.4-4.7c1.6,0.4,3.1,0.6,4.8,0.7v4.9c0,0.3,0.2,0.5,0.5,0.5h1.9c0.3,0,0.5-0.2,0.5-0.5v-4.9
			c1.6-0.1,3.2-0.3,4.7-0.6l1.4,4.7c0.1,0.3,0.4,0.4,0.6,0.3l1.8-0.5c0.3-0.1,0.4-0.4,0.3-0.6l-1.4-4.7c1.2-0.4,2.3-0.9,3.4-1.4
			l2.5,4.2c0.1,0.2,0.5,0.3,0.7,0.2l1.7-1c0.2-0.1,0.3-0.5,0.2-0.7l-2.5-4.2c1.2-0.8,2.3-1.6,3.3-2.6l3.5,3.4c0.2,0.2,0.5,0.2,0.7,0
			l1.4-1.4c0.2-0.2,0.2-0.5,0-0.7l-3.4-3.5c0.8-0.9,1.6-1.9,2.3-3l4.2,2.5c0.2,0.1,0.5,0.1,0.7-0.2l1-1.7c0.1-0.2,0.1-0.5-0.2-0.7
			l-4.2-2.5c0.6-1.1,1-2.2,1.5-3.3l4.7,1.4c0.3,0.1,0.5-0.1,0.6-0.3l0.6-1.8c0.1-0.3-0.1-0.5-0.3-0.6l-4.7-1.4
			c0.4-1.6,0.6-3.3,0.7-5h4.9c0.3,0,0.5-0.2,0.5-0.5v-1.9C1207.4,774.5,1207.2,774.3,1206.9,774.3z M1174.9,792.8
			c-9.4,0-17-7.6-17-17c0-9.4,7.6-17,17-17s17,7.6,17,17C1191.9,785.2,1184.4,792.8,1174.9,792.8z"/>
	</g>
	<g>
		<path id="XMLID_6_" class="st0" d="M586.2,801.8c-3.5-1.3-7.4,0.3-9.1,3.5l14,5C591.7,806.7,589.7,803,586.2,801.8z"/>
		<path id="XMLID_5_" class="st0" d="M581.2,815.9c3.5,1.3,7.4-0.3,9.1-3.5l-14-5C575.6,811,577.6,814.7,581.2,815.9z"/>
		<path d="M615.7,807.4h-4.9c-0.1-1.7-0.3-3.3-0.7-4.9l4.7-1.4c0.3-0.1,0.4-0.4,0.3-0.6l-0.6-1.8c-0.1-0.3-0.4-0.4-0.6-0.3l-4.7,1.4
			c-0.4-1.2-0.9-2.3-1.5-3.4l4.2-2.5c0.2-0.1,0.3-0.5,0.2-0.7l-1-1.7c-0.1-0.2-0.5-0.3-0.7-0.2l-4.2,2.5c-0.8-1.2-1.7-2.3-2.6-3.3
			l3.4-3.5c0.2-0.2,0.2-0.5,0-0.7l-1.4-1.4c-0.2-0.2-0.5-0.2-0.7,0l-3.4,3.5c-0.9-0.8-1.9-1.6-3-2.3l2.5-4.2
			c0.1-0.2,0.1-0.5-0.2-0.7l-1.7-1c-0.2-0.1-0.5-0.1-0.7,0.2l-2.5,4.2c-1.1-0.5-2.2-1-3.3-1.4l1.4-4.7c0.1-0.3-0.1-0.5-0.3-0.6
			l-1.8-0.5c-0.3-0.1-0.5,0.1-0.6,0.3l-1.4,4.7c-1.6-0.4-3.1-0.6-4.8-0.7v-4.9c0-0.3-0.2-0.5-0.5-0.5h-1.9c-0.3,0-0.5,0.2-0.5,0.5
			v4.9c-1.6,0.1-3.2,0.3-4.7,0.6l-1.4-4.7c-0.1-0.3-0.4-0.4-0.6-0.3l-1.8,0.5c-0.3,0.1-0.4,0.4-0.3,0.6l1.4,4.7
			c-1.2,0.4-2.3,0.9-3.4,1.4l-2.5-4.2c-0.1-0.2-0.5-0.3-0.7-0.2l-1.7,1c-0.2,0.1-0.3,0.5-0.2,0.7l2.5,4.2c-1.2,0.8-2.3,1.6-3.3,2.6
			l-3.6-3.4c-0.2-0.2-0.5-0.2-0.7,0l-1.4,1.4c-0.2,0.2-0.2,0.5,0,0.7l3.5,3.5c-0.8,0.9-1.6,1.9-2.3,3l-4.2-2.5
			c-0.2-0.1-0.5-0.1-0.7,0.2l-1,1.7c-0.1,0.2-0.1,0.5,0.2,0.7l4.2,2.5c-0.6,1.1-1,2.2-1.5,3.3l-4.6-1.5c-0.3-0.1-0.5,0.1-0.6,0.3
			l-0.6,1.8c-0.1,0.3,0.1,0.5,0.3,0.6l4.7,1.4c-0.4,1.6-0.6,3.3-0.7,5h-4.9c-0.3,0-0.5,0.2-0.5,0.5v1.9c0,0.3,0.2,0.5,0.5,0.5h4.9
			c0.1,1.7,0.3,3.3,0.7,4.9l-4.7,1.4c-0.3,0.1-0.4,0.4-0.3,0.6l0.6,1.8c0.1,0.3,0.4,0.4,0.6,0.3l4.7-1.4c0.4,1.2,0.9,2.3,1.5,3.4
			l-4.2,2.5c-0.2,0.1-0.3,0.5-0.2,0.7l1,1.7c0.1,0.2,0.5,0.3,0.7,0.2l4.2-2.5c0.8,1.2,1.7,2.3,2.6,3.3l-3.4,3.5
			c-0.2,0.2-0.2,0.5,0,0.7l1.4,1.4c0.2,0.2,0.5,0.2,0.7,0l3.4-3.5c0.9,0.8,1.9,1.6,3,2.3l-2.5,4.2c-0.1,0.2-0.1,0.5,0.2,0.7l1.7,1
			c0.2,0.1,0.5,0.1,0.7-0.2l2.5-4.2c1.1,0.5,2.2,1,3.3,1.4l-1.4,4.7c-0.1,0.3,0.1,0.5,0.3,0.6l1.8,0.5c0.3,0.1,0.5-0.1,0.6-0.3
			l1.4-4.7c1.6,0.4,3.1,0.6,4.8,0.7v4.9c0,0.3,0.2,0.5,0.5,0.5h1.9c0.3,0,0.5-0.2,0.5-0.5v-4.9c1.6-0.1,3.2-0.3,4.7-0.6l1.4,4.7
			c0.1,0.3,0.4,0.4,0.6,0.3l1.8-0.5c0.3-0.1,0.4-0.4,0.3-0.6l-1.4-4.7c1.2-0.4,2.3-0.9,3.4-1.4l2.5,4.2c0.1,0.2,0.5,0.3,0.7,0.2
			l1.7-1c0.2-0.1,0.3-0.5,0.2-0.7l-2.5-4.2c1.2-0.8,2.3-1.6,3.3-2.6l3.5,3.4c0.2,0.2,0.5,0.2,0.7,0l1.4-1.4c0.2-0.2,0.2-0.5,0-0.7
			l-3.4-3.5c0.8-0.9,1.6-1.9,2.3-3l4.2,2.5c0.2,0.1,0.5,0.1,0.7-0.2l1-1.7c0.1-0.2,0.1-0.5-0.2-0.7l-4.2-2.5c0.6-1.1,1-2.2,1.5-3.3
			l4.7,1.4c0.3,0.1,0.5-0.1,0.6-0.3l0.6-1.8c0.1-0.3-0.1-0.5-0.3-0.6l-4.7-1.4c0.4-1.6,0.6-3.3,0.7-5h4.9c0.3,0,0.5-0.2,0.5-0.5
			v-1.9C616.2,807.6,616,807.4,615.7,807.4z M583.7,825.9c-9.4,0-17-7.6-17-17c0-9.4,7.6-17,17-17s17,7.6,17,17
			C600.7,818.3,593.1,825.9,583.7,825.9z"/>
	</g>
	<polygon points="977.3,548.9 976.4,546.9 996.5,534.2 997.4,536.1 	"/>
	<path d="M999.6,546.4l-16.3,10.3c-1.1,0.7-2.6-0.3-3.5-2.1l-1.9-4.1l20.1-12.7l1.9,4.1C1000.9,543.6,1000.7,545.7,999.6,546.4z"/>
	<path d="M1142.8,860l-6.3-13.7l1.1-2.3c0.2-0.4,0-1.2-0.4-1.8s-0.8-0.8-1-0.4l-0.9,1.9l-2.3-5l1.1-2.3c0.2-0.4,0-1.2-0.4-1.8
		c-0.4-0.6-0.8-0.8-1-0.4l-0.9,1.9l-2.3-5l1.1-2.3c0.2-0.4,0-1.2-0.4-1.8c-0.4-0.6-0.8-0.8-1-0.4l-0.9,1.9l-2.3-5l1.1-2.3
		c0.2-0.4,0-1.2-0.4-1.8c-0.4-0.6-0.8-0.8-1-0.4l-0.9,1.9l-2.3-5l1.1-2.3c0.2-0.4,0-1.2-0.4-1.8s-0.8-0.8-1-0.4l-0.9,1.9l-2.3-5
		l1.1-2.3c0.2-0.4,0-1.2-0.4-1.8c-0.4-0.6-0.8-0.8-1-0.4l-0.9,1.9l-2.3-5l1.1-2.3c0.2-0.4,0-1.2-0.4-1.8s-0.8-0.8-1-0.4l-0.9,1.9
		l-2.3-5l1.1-2.3c0.2-0.4,0-1.2-0.4-1.8c-0.4-0.6-0.8-0.8-1-0.4l-0.9,1.9l-2.3-5l1.1-2.3c0.2-0.4,0-1.2-0.4-1.8
		c-0.4-0.6-0.8-0.8-1-0.4l-0.9,1.9l-2.3-5l1.1-2.3c0.2-0.4,0-1.2-0.4-1.8c-0.4-0.6-0.8-0.8-1-0.4l-0.9,1.9l-2.3-5l1.1-2.3
		c0.2-0.4,0-1.2-0.4-1.8c-0.4-0.6-0.8-0.8-1-0.4l-0.9,1.9l-2.3-5l1.1-2.3c0.2-0.4,0-1.2-0.4-1.8c-0.4-0.6-0.8-0.8-1-0.4l-0.9,1.9
		l-2.3-5l1.1-2.3c0.2-0.4,0-1.2-0.4-1.8c-0.4-0.6-0.8-0.8-1-0.4l-0.9,1.9l-2.3-5l1.1-2.3c0.2-0.4,0-1.2-0.4-1.8
		c-0.4-0.6-0.8-0.8-1-0.4l-0.9,1.9l-2.3-5l1.1-2.3c0.2-0.4,0-1.2-0.4-1.8s-0.8-0.8-1-0.4l-0.9,1.9l-2.3-5l1.1-2.3
		c0.2-0.4,0-1.2-0.4-1.8c-0.4-0.6-0.8-0.8-1-0.4l-0.9,1.9l-2.3-5l1.1-2.3c0.2-0.4,0-1.2-0.4-1.8c-0.4-0.6-0.8-0.8-1-0.4l-0.9,1.9
		l-2.3-5l1.1-2.3c0.2-0.4,0-1.2-0.4-1.8c-0.4-0.6-0.8-0.8-1-0.4l-0.9,1.9l-2.3-5l1.1-2.3c0.2-0.4,0-1.2-0.4-1.8
		c-0.4-0.6-0.8-0.8-1-0.4l-0.9,1.9l-2.3-5l1.1-2.3c0.2-0.4,0-1.2-0.4-1.8s-0.8-0.8-1-0.4l-0.9,1.9l-2.3-5l1.1-2.3
		c0.2-0.4,0-1.2-0.4-1.8c-0.4-0.6-0.8-0.8-1-0.4l-0.9,1.9l-2.3-5l1.1-2.3c0.2-0.4,0-1.2-0.4-1.8c-0.4-0.6-0.8-0.8-1-0.4l-0.9,1.9
		l-2.3-5l1.1-2.3c0.2-0.4,0-1.2-0.4-1.8c-0.4-0.6-0.8-0.8-1-0.4l-0.9,1.9l-2.3-5l1.1-2.3c0.2-0.4,0-1.2-0.4-1.8
		c-0.4-0.6-0.8-0.8-1-0.4l-0.9,1.9l-2.3-5l1.1-2.3c0.2-0.4,0-1.2-0.4-1.8c-0.4-0.6-0.8-0.8-1-0.4l-0.9,1.9l-2.3-5l1.1-2.3
		c0.2-0.4,0-1.2-0.4-1.8c-0.4-0.6-0.8-0.8-1-0.4l-0.9,1.9l-2.3-5l1.1-2.3c0.2-0.4,0-1.2-0.4-1.8c-0.4-0.6-0.8-0.8-1-0.4l-0.9,1.9
		l-2.3-5l1.1-2.3c0.2-0.4,0-1.2-0.4-1.8c-0.4-0.6-0.8-0.8-1-0.4l-0.9,1.9l-2.3-5l1.1-2.3c0.2-0.4,0-1.2-0.4-1.8
		c-0.4-0.6-0.8-0.8-1-0.4l-0.9,1.9l-2.3-5l1.1-2.3c0.2-0.4,0-1.2-0.4-1.8c-0.4-0.6-0.8-0.8-1-0.4l-0.9,1.9l-2.3-5l1.1-2.3
		c0.2-0.4,0-1.2-0.4-1.8c-0.4-0.6-0.8-0.8-1-0.4l-0.9,1.9l-2.3-5l1.1-2.3c0.2-0.4,0-1.2-0.4-1.8c-0.4-0.6-0.8-0.8-1-0.4l-0.9,1.9
		l-2.3-5l1.1-2.3c0.2-0.4,0-1.2-0.4-1.8c-0.4-0.6-0.8-0.8-1-0.4l-0.9,1.9l-2.3-5l1.1-2.3c0.2-0.4,0-1.2-0.4-1.8
		c-0.4-0.6-0.8-0.8-1-0.4l-0.9,1.9l-2.3-5l1.1-2.3c0.2-0.4,0-1.2-0.4-1.8c-0.4-0.6-0.8-0.8-1-0.4l-0.9,1.9l-2.3-5l1.1-2.3
		c0.2-0.4,0-1.2-0.4-1.8c-0.4-0.6-0.8-0.8-1-0.4l-0.9,1.9l-2.3-5l1.1-2.3c0.2-0.4,0-1.2-0.4-1.8c-0.4-0.6-0.8-0.8-1-0.4l-0.9,1.9
		l-2.3-5l1.1-2.3c0.2-0.4,0-1.2-0.4-1.8c-0.4-0.6-0.8-0.8-1-0.4l-0.9,1.8l-2.3-5l1.1-2.3c0.2-0.4,0-1.2-0.4-1.8
		c-0.4-0.6-0.8-0.8-1-0.4l-0.9,1.9l-1.8-3.9l-2.6,1.7l-1.5-3.2l-11,7l1.5,3.2l-3.1,1.9l7.7,16.9l-0.8,1.7c-0.2,0.4,0,1.2,0.4,1.8
		c0.4,0.6,0.8,0.8,1,0.4l0.6-1.3l2.6,5.7l-0.8,1.7c-0.2,0.4,0,1.2,0.4,1.8c0.4,0.6,0.8,0.8,1,0.4l0.6-1.3l2.3,5L998,596
		c-0.2,0.4,0,1.2,0.4,1.8c0.4,0.6,0.8,0.8,1,0.4l0.6-1.3l2.3,5l-0.8,1.7c-0.2,0.4,0,1.2,0.4,1.8c0.4,0.6,0.8,0.8,1,0.4l0.6-1.3
		l2.3,5l-0.8,1.7c-0.2,0.4,0,1.2,0.4,1.8c0.4,0.6,0.8,0.8,1,0.4l0.6-1.3l2.3,5l-0.8,1.7c-0.2,0.4,0,1.2,0.4,1.8
		c0.4,0.6,0.8,0.8,1,0.4l0.6-1.3l2.3,5l-0.8,1.7c-0.2,0.4,0,1.2,0.4,1.8c0.4,0.6,0.8,0.8,1,0.4l0.6-1.3l2.3,5l-0.8,1.7
		c-0.2,0.4,0,1.2,0.4,1.8c0.4,0.6,0.8,0.8,1,0.4l0.6-1.3l2.3,5l-0.8,1.7c-0.2,0.4,0,1.2,0.4,1.8c0.4,0.6,0.8,0.8,1,0.4l0.6-1.3
		l2.3,5l-0.8,1.7c-0.2,0.4,0,1.2,0.4,1.8c0.4,0.6,0.8,0.8,1,0.4l0.6-1.3l2.3,5l-0.8,1.7c-0.2,0.4,0,1.2,0.4,1.8s0.8,0.8,1,0.4
		l0.6-1.3l2.3,5l-0.8,1.7c-0.2,0.4,0,1.2,0.4,1.8c0.4,0.6,0.8,0.8,1,0.4l0.6-1.3l2.3,5l-0.8,1.7c-0.2,0.4,0,1.2,0.4,1.8
		c0.4,0.6,0.8,0.8,1,0.4l0.6-1.3l2.3,5l-0.8,1.7c-0.2,0.4,0,1.2,0.4,1.8c0.4,0.6,0.8,0.8,1,0.4l0.6-1.3l2.3,5l-0.8,1.7
		c-0.2,0.4,0,1.2,0.4,1.8c0.4,0.6,0.8,0.8,1,0.4l0.6-1.3l2.3,5l-0.8,1.7c-0.2,0.4,0,1.2,0.4,1.8s0.8,0.8,1,0.4l0.6-1.3l2.3,5
		l-0.8,1.7c-0.2,0.4,0,1.2,0.4,1.8c0.4,0.6,0.8,0.8,1,0.4l0.6-1.3l2.3,5l-0.8,1.7c-0.2,0.4,0,1.2,0.4,1.8s0.8,0.8,1,0.4l0.6-1.3
		l2.6,5.7l-0.8,1.7c-0.2,0.4,0,1.2,0.4,1.8s0.8,0.8,1,0.4l0.6-1.3l2.3,5l-0.8,1.7c-0.2,0.4,0,1.2,0.4,1.8c0.4,0.6,0.8,0.8,1,0.4
		l0.6-1.3l2.3,5l-0.8,1.7c-0.2,0.4,0,1.2,0.4,1.8c0.4,0.6,0.8,0.8,1,0.4l0.6-1.3l2.3,5l-0.8,1.7c-0.2,0.4,0,1.2,0.4,1.8
		c0.4,0.6,0.8,0.8,1,0.4l0.6-1.3l2.3,5l-0.8,1.7c-0.2,0.4,0,1.2,0.4,1.8c0.4,0.6,0.8,0.8,1,0.4l0.6-1.3l2.3,5l-0.8,1.7
		c-0.2,0.4,0,1.2,0.4,1.8s0.8,0.8,1,0.4l0.6-1.3l2.3,5l-0.8,1.7c-0.2,0.4,0,1.2,0.4,1.8c0.4,0.6,0.8,0.8,1,0.4l0.6-1.3l2.3,5
		l-0.8,1.7c-0.2,0.4,0,1.2,0.4,1.8c0.4,0.6,0.8,0.8,1,0.4l0.6-1.3l2.3,5l-0.8,1.7c-0.2,0.4,0,1.2,0.4,1.8c0.4,0.6,0.8,0.8,1,0.4
		l0.6-1.3l2.3,5l-0.8,1.7c-0.2,0.4,0,1.2,0.4,1.8c0.4,0.6,0.8,0.8,1,0.4l0.6-1.3l2.3,5l-0.8,1.7c-0.2,0.4,0,1.2,0.4,1.8
		c0.4,0.6,0.8,0.8,1,0.4l0.6-1.3l2.3,5l-0.8,1.7c-0.2,0.4,0,1.2,0.4,1.8c0.4,0.6,0.8,0.8,1,0.4l0.6-1.3l2.3,5l-0.8,1.7
		c-0.2,0.4,0,1.2,0.4,1.8c0.4,0.6,0.8,0.8,1,0.4l0.6-1.3l2.3,5l-0.8,1.7c-0.2,0.4,0,1.2,0.4,1.8c0.4,0.6,0.8,0.8,1,0.4l0.6-1.3
		l2.3,5l-0.8,1.7c-0.2,0.4,0,1.2,0.4,1.8c0.4,0.6,0.8,0.8,1,0.4l0.6-1.3l2.3,5l-0.8,1.7c-0.2,0.4,0,1.2,0.4,1.8
		c0.4,0.6,0.8,0.8,1,0.4l0.6-1.3l2.3,5l-0.8,1.7c-0.2,0.4,0,1.2,0.4,1.8c0.4,0.6,0.8,0.8,1,0.4l0.6-1.3l1.6,3.6l-0.8,1.7
		c-0.2,0.4,0,1.2,0.4,1.8c0.4,0.6,0.8,0.8,1,0.4l0.6-1.3l2.3,5l-0.8,1.7c-0.2,0.4,0,1.2,0.4,1.8c0.4,0.6,0.8,0.8,1,0.4l0.6-1.3
		l2.3,5l-0.8,1.7c-0.2,0.4,0,1.2,0.4,1.8c0.4,0.6,0.8,0.8,1,0.4l0.6-1.3l2.3,5l-0.8,1.7c-0.2,0.4,0,1.2,0.4,1.8
		c0.4,0.6,0.8,0.8,1,0.4l0.6-1.3l0.3,0.8L1142.8,860z"/>
	<g>
		<path d="M1269.4,10.9l-58.3,0.4c-3.9,0-7,2.6-7,5.7v6.9l72.3-0.4v-6.9C1276.5,13.4,1273.3,10.9,1269.4,10.9z"/>
		
			<rect x="1238.7" y="-8.1" transform="matrix(6.214669e-003 1 -1 6.214669e-003 1260.6919 -1212.5288)" width="3.3" height="72.3"/>
		<path d="M1263.5,68.9c-1.8,0-3.2-1.6-3.3-3.7c0-2.1,1.5-3.7,3.2-3.7h2.6v-4.2h-2.6c-1.8,0-3.2-1.6-3.3-3.7s1.5-3.7,3.2-3.7h2.6
			v-4.2h-2.6c-1.8,0-3.2-1.6-3.3-3.7c0-2.1,1.5-3.7,3.2-3.7h2.6v-6.1l-50.8,0.3v6.1h2.5c1.8,0,3.2,1.6,3.3,3.7s-1.5,3.7-3.2,3.7
			h-2.5v4.2h2.5c1.8,0,3.2,1.6,3.3,3.7c0,2.1-1.5,3.7-3.2,3.7h-2.5v4.2h2.5c1.8,0,3.2,1.6,3.3,3.7s-1.5,3.7-3.2,3.7h-2.5v6.5
			l50.8-0.3v-6.5H1263.5z"/>
		<path class="st1" d="M1217.3,110.2c-13,36.6-58.9,36.4-82.2,66.2c-16.1,20.6-15.6,52.7-3.5,76.5c12.1,23.7,33.8,40.1,56.5,51
			c15.1,7.2,31.5,12.8,43.2,25.5c12.5,13.6,17.6,33,22.2,51.6c2.6,10.5,5.2,21.6,2.5,32.1c-3.4,12.9-14.1,21.5-22.8,31
			c-18.9,20.5-30.3,53.9-16.6,78.8c11,19.8,41.4,17.5,42,51.2c-3.7,18.8-18.6-1.2-25.7,6.9c-7,8.1-14.4,22.8-4.9,27.1
			c4.3,2,22.3-10.3,26.9-10.3s2.7,28.2,0.2,37.2c-10.6,44.7-41,74.9-33.5,121c7.5,46.1,27.8,88.6,37.7,134.2
			c5.2,24-0.6,43-10.3,65.2"/>
		<g>
			<path d="M1253.7,187.4c3.2,0,6-2.7,5.9-5.9v-7h1.4c0.8,0,1.4-0.6,1.4-1.5c0-0.7-0.7-1.5-1.5-1.5h-1.5v-2.9c0-3.2-2.7-5.8-6-5.8
				h-1.6l-0.4-69.1h3.9c3.2,0,6-2.7,5.9-5.9v-1.7h5.6c3,0,5.4-2.2,5.9-4.9l-61.7,0.4c0.5,2.8,2.9,4.9,5.8,4.9h3.2l-3.4,3.1
				c-4.6,4.1-5.7,12-2.4,17.8l1.5,2.5l4.8,7.6c3.4,3.5,8.3,4.1,12.1,1l0.3,44.6h-1.6c-3.2,0-6,2.7-5.9,5.9v2.9h-1.4
				c-0.8,0-1.4,0.6-1.4,1.5c0,0.7,0.7,1.5,1.5,1.5h1.4v6.9c0,3.2,2.7,5.8,6,5.8h1.7l18.6-0.1l0,0L1253.7,187.4z"/>
			<path d="M1256.6,939l-0.5-76.1h8c5.6,0,10.2-5.8,10.2-12.8l-0.2-27.4c0-7-4.7-12.7-10.3-12.7h-8l-0.7-108l-0.6-104.4l-0.8-127.5
				l-0.5-73.7l-1.2-196l-18.6,0.1l1.1,171.1v12l0.6,99.1l0.1,12.9l0.5,81.9l0.1,10.7l1.4,221.9l-14.8,0.1c-5.6,0-10.2,5.8-10.2,12.8
				l0.2,27.4c0,7,4.7,12.7,10.3,12.7l14.7-0.1l0.5,76.1L1256.6,939z"/>
		</g>
	</g>
	<rect x="727.9" y="795" transform="matrix(-0.9191 -0.3939 0.3939 -0.9191 1280.0736 1894.2435)" width="213.1" height="41.6"/>
	<rect x="696.6" y="719.6" transform="matrix(-0.9834 -0.1813 0.1813 -0.9834 1312.7382 1720.8275)" width="76.8" height="161.6"/>
	<rect x="751.2" y="799.6" transform="matrix(-0.9907 0.1359 -0.1359 -0.9907 1922.3046 1485.3873)" width="318.6" height="17.4"/>
	<path d="M1322.6,863.4l2.3-23.3l2.2-2.5c0.4-0.4,0.7-1.6,0.7-2.8s-0.3-1.7-0.6-1.2l-1.8,2.1l0.8-8.5l2.2-2.5
		c0.4-0.4,0.7-1.6,0.7-2.8c0-1.2-0.3-1.7-0.6-1.2l-1.8,2.1l0.8-8.5l2.2-2.5c0.4-0.4,0.7-1.6,0.7-2.8s-0.3-1.7-0.6-1.2l-1.8,2.1
		l0.8-8.5l2.2-2.5c0.4-0.4,0.7-1.6,0.7-2.8c0-1.2-0.3-1.7-0.6-1.2l-1.8,2.1l0.8-8.5l2.2-2.5c0.4-0.4,0.7-1.6,0.7-2.8
		s-0.3-1.7-0.6-1.2l-1.8,2.1l0.8-8.5l2.2-2.5c0.4-0.4,0.7-1.6,0.7-2.8s-0.3-1.7-0.6-1.2l-1.8,2.1l0.8-8.5l2.2-2.5
		c0.4-0.4,0.7-1.6,0.7-2.8c0-1.2-0.3-1.7-0.6-1.2l-1.8,2.1l0.8-8.5l2.2-2.5c0.4-0.4,0.7-1.6,0.7-2.8s-0.3-1.7-0.6-1.2l-1.8,2.1
		l0.8-8.5l2.2-2.5c0.4-0.4,0.7-1.6,0.7-2.8s-0.3-1.7-0.6-1.2l-1.8,2.1l0.8-8.5l2.2-2.5c0.4-0.4,0.7-1.6,0.7-2.8
		c0-1.2-0.3-1.7-0.6-1.2l-1.8,2.1l0.8-8.5l2.2-2.5c0.4-0.4,0.7-1.6,0.7-2.8s-0.3-1.7-0.6-1.2l-1.8,2.1l0.8-8.5l2.2-2.5
		c0.4-0.4,0.7-1.6,0.7-2.8c0-1.2-0.3-1.7-0.6-1.2l-1.8,2.1l0.8-8.5l2.2-2.5c0.4-0.4,0.7-1.6,0.7-2.8s-0.3-1.7-0.6-1.2l-1.8,2.1
		l0.8-8.5l2.2-2.5c0.4-0.4,0.7-1.6,0.7-2.8s-0.3-1.7-0.6-1.2l-1.8,2.1l0.8-8.5l2.2-2.5c0.4-0.4,0.7-1.6,0.7-2.8
		c0-1.2-0.3-1.7-0.6-1.2l-1.8,2.1l0.8-8.5l2.2-2.5c0.4-0.4,0.7-1.6,0.7-2.8s-0.3-1.7-0.6-1.2l-1.8,2.1l0.8-8.5l2.2-2.5
		c0.4-0.4,0.7-1.6,0.7-2.8c0-1.2-0.3-1.7-0.6-1.2l-1.8,2.1l0.8-8.5l2.2-2.5c0.4-0.4,0.7-1.6,0.7-2.8s-0.3-1.7-0.6-1.2l-1.8,2.1
		l0.8-8.5l2.2-2.5c0.4-0.4,0.7-1.6,0.7-2.8s-0.3-1.7-0.6-1.2l-1.8,2.1l0.8-8.5l2.2-2.5c0.4-0.4,0.7-1.6,0.7-2.8
		c0-1.2-0.3-1.7-0.6-1.2l-1.8,2.1l0.8-8.5l2.2-2.5c0.4-0.4,0.7-1.6,0.7-2.8s-0.3-1.7-0.6-1.2l-1.8,2.1l0.8-8.5l2.2-2.5
		c0.4-0.4,0.7-1.6,0.7-2.8c0-1.2-0.3-1.7-0.6-1.2l-1.8,2.1l0.8-8.5l2.2-2.5c0.4-0.4,0.7-1.6,0.7-2.8s-0.3-1.7-0.6-1.2l-1.8,2.1
		l0.8-8.5l2.2-2.5c0.4-0.4,0.7-1.6,0.7-2.8c0-1.2-0.3-1.7-0.6-1.2l-1.8,2.1l0.8-8.5l2.2-2.5c0.4-0.4,0.7-1.6,0.7-2.8
		s-0.3-1.7-0.6-1.2l-1.8,2.1l0.8-8.5l2.2-2.5c0.4-0.4,0.7-1.6,0.7-2.8c0-1.2-0.3-1.7-0.6-1.2l-1.8,2.1l0.8-8.5l2.2-2.5
		c0.4-0.4,0.7-1.6,0.7-2.8c0-1.2-0.3-1.7-0.6-1.2l-1.8,2.1l0.8-8.5l2.2-2.5c0.4-0.4,0.7-1.6,0.7-2.8c0-1.2-0.3-1.7-0.6-1.2l-1.8,2.1
		l0.8-8.5l2.2-2.5c0.4-0.4,0.7-1.6,0.7-2.8c0-1.2-0.3-1.7-0.6-1.2l-1.8,2.1l0.8-8.5l2.2-2.5c0.4-0.4,0.7-1.6,0.7-2.8
		c0-1.2-0.3-1.7-0.6-1.2l-1.8,2.1l0.8-8.5l2.2-2.5c0.4-0.4,0.7-1.6,0.7-2.8c0-1.2-0.3-1.7-0.6-1.2l-1.8,2.1l0.8-8.5l2.2-2.5
		c0.4-0.4,0.7-1.6,0.7-2.8c0-1.2-0.3-1.7-0.6-1.2l-1.8,2.1l0.8-8.5l2.2-2.5c0.4-0.4,0.7-1.6,0.7-2.8s-0.3-1.7-0.6-1.2l-1.8,2.1
		l0.8-8.5l2.2-2.5c0.4-0.4,0.7-1.6,0.7-2.8c0-1.2-0.3-1.7-0.6-1.2l-1.8,2.1l0.8-8.5l2.2-2.5c0.4-0.4,0.7-1.6,0.7-2.8
		c0-1.2-0.3-1.7-0.6-1.2l-1.8,2.1l0.8-8.5l2.2-2.5c0.4-0.4,0.7-1.6,0.7-2.8c0-1.2-0.3-1.7-0.6-1.2l-1.8,2.1l0.8-8.5l2.2-2.5
		c0.4-0.4,0.7-1.6,0.7-2.8c0-1.2-0.3-1.7-0.6-1.2l-1.8,2.1l0.8-8.5l2.2-2.5c0.4-0.4,0.7-1.6,0.7-2.8c0-1.2-0.3-1.7-0.6-1.2l-1.8,2
		l0.8-8.5l2.2-2.5c0.4-0.4,0.7-1.6,0.7-2.8s-0.3-1.7-0.6-1.2l-1.8,2.1l0.7-6.6l-3.2,0.7l0.5-5.5l-13.3,2.9l-0.5,5.5l-3.7,0.8
		l-2.9,28.7l-1.6,1.8c-0.4,0.4-0.7,1.6-0.7,2.8c0,1.2,0.3,1.7,0.6,1.2l1.2-1.4l-1,9.6l-1.6,1.8c-0.4,0.4-0.7,1.6-0.7,2.8
		c0,1.2,0.3,1.7,0.6,1.2l1.2-1.4l-0.8,8.5l-1.6,1.8c-0.4,0.4-0.7,1.6-0.7,2.8c0,1.2,0.3,1.7,0.6,1.2l1.2-1.4l-0.8,8.5l-1.6,1.8
		c-0.4,0.4-0.7,1.6-0.7,2.8c0,1.2,0.3,1.7,0.6,1.2l1.2-1.4l-0.8,8.5l-1.6,1.8c-0.4,0.4-0.7,1.6-0.7,2.8s0.3,1.7,0.6,1.2l1.2-1.4
		l-0.8,8.5l-1.6,1.8c-0.4,0.4-0.7,1.6-0.7,2.8c0,1.2,0.3,1.7,0.6,1.2l1.2-1.4l-0.8,8.5l-1.6,1.8c-0.4,0.4-0.7,1.6-0.7,2.8
		c0,1.2,0.3,1.7,0.6,1.2l1.2-1.4l-0.8,8.5l-1.6,1.8c-0.4,0.4-0.7,1.6-0.7,2.8c0,1.2,0.3,1.7,0.6,1.2l1.2-1.4l-0.8,8.5l-1.6,1.8
		c-0.4,0.4-0.7,1.6-0.7,2.8c0,1.2,0.3,1.7,0.6,1.2l1.2-1.4l-0.8,8.5l-1.6,1.8c-0.4,0.4-0.7,1.6-0.7,2.8c0,1.2,0.3,1.7,0.6,1.2
		l1.2-1.4l-0.8,8.5l-1.6,1.8c-0.4,0.4-0.7,1.6-0.7,2.8c0,1.2,0.3,1.7,0.6,1.2l1.2-1.4l-0.8,8.5l-1.6,1.8c-0.4,0.4-0.7,1.6-0.7,2.8
		c0,1.2,0.3,1.7,0.6,1.2l1.2-1.4l-0.8,8.5l-1.6,1.8c-0.4,0.4-0.7,1.6-0.7,2.8s0.3,1.7,0.6,1.2l1.2-1.4l-0.8,8.5l-1.6,1.8
		c-0.4,0.4-0.7,1.6-0.7,2.8s0.3,1.7,0.6,1.2l1.2-1.4l-0.8,8.5l-1.6,1.8c-0.4,0.4-0.7,1.6-0.7,2.8c0,1.2,0.3,1.7,0.6,1.2l1.2-1.4
		l-0.8,8.5l-1.6,1.8c-0.4,0.4-0.7,1.6-0.7,2.8c0,1.2,0.3,1.7,0.6,1.2l1.2-1.4l-0.8,8.5l-1.6,1.8c-0.4,0.4-0.7,1.6-0.7,2.8
		s0.3,1.7,0.6,1.2l1.2-1.4l-0.8,8.5l-1.6,1.8c-0.4,0.4-0.7,1.6-0.7,2.8s0.3,1.7,0.6,1.2l1.2-1.4l-1,9.6l-1.6,1.8
		c-0.4,0.4-0.7,1.6-0.7,2.8s0.3,1.7,0.6,1.2l1.2-1.4l-0.8,8.5l-1.6,1.8c-0.4,0.4-0.7,1.6-0.7,2.8s0.3,1.7,0.6,1.2l1.2-1.4l-0.8,8.5
		l-1.6,1.8c-0.4,0.4-0.7,1.6-0.7,2.8c0,1.2,0.3,1.7,0.6,1.2l1.2-1.4l-0.8,8.5l-1.6,1.8c-0.4,0.4-0.7,1.6-0.7,2.8s0.3,1.7,0.6,1.2
		l1.2-1.4l-0.8,8.5l-1.6,1.8c-0.4,0.4-0.7,1.6-0.7,2.8s0.3,1.7,0.6,1.2l1.2-1.4l-0.8,8.5l-1.6,1.8c-0.4,0.4-0.7,1.6-0.7,2.8
		c0,1.2,0.3,1.7,0.6,1.2l1.2-1.4l-0.8,8.5l-1.6,1.8c-0.4,0.4-0.7,1.6-0.7,2.8s0.3,1.7,0.6,1.2l1.2-1.4l-0.8,8.5l-1.6,1.8
		c-0.4,0.4-0.7,1.6-0.7,2.8c0,1.2,0.3,1.7,0.6,1.2l1.2-1.4l-0.8,8.5l-1.6,1.8c-0.4,0.4-0.7,1.6-0.7,2.8s0.3,1.7,0.6,1.2l1.2-1.4
		l-0.8,8.5l-1.6,1.8c-0.4,0.4-0.7,1.6-0.7,2.8c0,1.2,0.3,1.7,0.6,1.2l1.2-1.4l-0.8,8.5l-1.6,1.8c-0.4,0.4-0.7,1.6-0.7,2.8
		s0.3,1.7,0.6,1.2l1.2-1.4l-0.8,8.5l-1.6,1.8c-0.4,0.4-0.7,1.6-0.7,2.8s0.3,1.7,0.6,1.2l1.2-1.4l-0.8,8.5l-1.6,1.8
		c-0.4,0.4-0.7,1.6-0.7,2.8c0,1.2,0.3,1.7,0.6,1.2l1.2-1.4l-0.8,8.5l-1.6,1.8c-0.4,0.4-0.7,1.6-0.7,2.8s0.3,1.7,0.6,1.2l1.2-1.4
		l-0.8,8.5l-1.6,1.8c-0.4,0.4-0.7,1.6-0.7,2.8c0,1.2,0.3,1.7,0.6,1.2l1.2-1.4l-0.8,8.5l-1.6,1.8c-0.4,0.4-0.7,1.6-0.7,2.8
		s0.3,1.7,0.6,1.2l1.2-1.4l-0.8,8.5l-1.6,1.8c-0.4,0.4-0.7,1.6-0.7,2.8s0.3,1.7,0.6,1.2l1.2-1.4l-0.6,6.1l-1.6,1.8
		c-0.4,0.4-0.7,1.6-0.7,2.8s0.3,1.7,0.6,1.2l1.2-1.4l-0.8,8.5l-1.6,1.8c-0.4,0.4-0.7,1.6-0.7,2.8c0,1.2,0.3,1.7,0.6,1.2l1.2-1.4
		l-0.8,8.5l-1.6,1.8c-0.4,0.4-0.7,1.6-0.7,2.8s0.3,1.7,0.6,1.2l1.2-1.4l-0.8,8.5l-1.6,1.8c-0.4,0.4-0.7,1.6-0.7,2.8
		c0,1.2,0.3,1.7,0.6,1.2l1.2-1.4l-0.1,1.3L1322.6,863.4z"/>
	<rect x="590.4" y="733.8" transform="matrix(-0.6625 0.7491 -0.7491 -0.6625 1576.7158 860.682)" width="8.2" height="103.5"/>
	<rect x="728.4" y="835.7" width="309.1" height="41.2"/>
	<rect x="1367.7" y="783.3" transform="matrix(-0.9749 -0.2226 0.2226 -0.9749 2614.1091 1955.0836)" width="99" height="93.9"/>
</g>
<rect x="321.3" y="794.4" transform="matrix(-0.9488 0.316 -0.316 -0.9488 947.3319 1517.6193)" width="58.6" height="82.5"/>
<rect x="1233.4" y="181.9" width="18.6" height="37"/>
</svg>
