<?xml version="1.0" encoding="utf-8"?>
<!-- Generator: Adobe Illustrator 19.0.0, SVG Export Plug-In . SVG Version: 6.00 Build 0)  -->
<svg version="1.1" id="manche_d" xmlns="http://www.w3.org/2000/svg" xmlns:xlink="http://www.w3.org/1999/xlink" x="0px" y="0px"
	 viewBox="1224.7 -730.3 1159.6 840.5" style="enable-background:new 1224.7 -730.3 1159.6 840.5;" xml:space="preserve">
<style type="text/css">
	.st0{fill:#0D0D0F;}
	.st1{fill:none;stroke:#000000;stroke-width:6;stroke-miterlimit:10;}
</style>

<g >
	<g>
		<path id="XMLID_2_" class="st0" d="M2056.5-190.5c-5-1.8-10.6,0.4-13,5l20,7.1C2064.4-183.4,2061.6-188.6,2056.5-190.5z"/>
		<path id="XMLID_1_" class="st0" d="M2049.4-170.2c5,1.8,10.6-0.4,13-5l-20-7.1C2041.5-177.2,2044.3-172,2049.4-170.2z"/>
		<path d="M2098.7-182.4h-7c-0.1-2.4-0.5-4.8-1-7.1l6.7-2c0.4-0.1,0.6-0.5,0.5-0.9l-0.8-2.6c-0.1-0.4-0.5-0.6-0.9-0.5l-6.7,2
			c-0.6-1.7-1.3-3.3-2.1-4.8l6-3.5c0.3-0.2,0.4-0.6,0.2-1l-1.4-2.4c-0.2-0.3-0.6-0.4-1-0.2l-6,3.5c-1.1-1.7-2.4-3.3-3.7-4.8l4.9-5
			c0.3-0.3,0.3-0.7,0-1l-2-1.9c-0.3-0.3-0.7-0.3-1,0l-4.9,5c-1.3-1.2-2.8-2.3-4.3-3.3l3.5-6c0.2-0.3,0.1-0.8-0.2-1l-2.4-1.4
			c-0.3-0.2-0.8-0.1-1,0.2l-3.5,6c-1.5-0.8-3.1-1.5-4.7-2l2-6.7c0.1-0.4-0.1-0.8-0.5-0.9l-2.6-0.8c-0.4-0.1-0.8,0.1-0.9,0.5l-2,6.7
			c-2.2-0.5-4.5-0.8-6.8-1v-6.9c0-0.4-0.3-0.7-0.7-0.7h-2.7c-0.4,0-0.7,0.3-0.7,0.7v7c-2.3,0.1-4.5,0.4-6.7,0.9l-1.9-6.7
			c-0.1-0.4-0.5-0.6-0.9-0.5l-2.6,0.8c-0.4,0.1-0.6,0.5-0.5,0.9l1.9,6.7c-1.7,0.6-3.3,1.3-4.8,2.1l-3.5-6c-0.2-0.3-0.6-0.4-1-0.2
			l-2.4,1.4c-0.3,0.2-0.4,0.6-0.2,1l3.5,6c-1.7,1.1-3.3,2.3-4.8,3.7l-5.1-4.9c-0.3-0.3-0.7-0.3-1,0l-1.9,1.9c-0.3,0.3-0.3,0.7,0,1
			l5,5c-1.2,1.3-2.3,2.7-3.3,4.2l-6-3.5c-0.3-0.2-0.8-0.1-1,0.2l-1.4,2.4c-0.2,0.3-0.1,0.8,0.2,1l6,3.5c-0.8,1.5-1.5,3.1-2.1,4.7
			l-6.7-2c-0.4-0.1-0.8,0.1-0.9,0.5l-0.8,2.6c-0.1,0.4,0.1,0.8,0.5,0.9l6.7,2c-0.6,2.3-0.9,4.7-1,7.2h-6.9c-0.4,0-0.7,0.3-0.7,0.7
			v2.7c0,0.4,0.3,0.7,0.7,0.7h7c0.1,2.4,0.5,4.8,1,7.1l-6.7,2c-0.4,0.1-0.6,0.5-0.5,0.9l0.8,2.6c0.1,0.4,0.5,0.6,0.9,0.5l6.7-2
			c0.6,1.7,1.3,3.3,2.1,4.8l-6,3.5c-0.3,0.2-0.4,0.6-0.2,1l1.4,2.4c0.2,0.3,0.6,0.4,1,0.2l6-3.5c1.1,1.7,2.4,3.3,3.7,4.8l-4.9,5
			c-0.3,0.3-0.3,0.7,0,1l2,1.9c0.3,0.3,0.7,0.3,1,0l4.9-5c1.3,1.2,2.8,2.3,4.3,3.3l-3.5,6c-0.2,0.3-0.1,0.8,0.2,1l2.4,1.4
			c0.3,0.2,0.8,0.1,1-0.2l3.5-6c1.5,0.8,3.1,1.5,4.7,2l-2,6.7c-0.1,0.4,0.1,0.8,0.5,0.9l2.6,0.8c0.4,0.1,0.8-0.1,0.9-0.5l2-6.7
			c2.2,0.5,4.5,0.8,6.8,1v7c0,0.4,0.3,0.7,0.7,0.7h2.7c0.4,0,0.7-0.3,0.7-0.7v-7c2.3-0.1,4.5-0.4,6.7-0.9l1.9,6.7
			c0.1,0.4,0.5,0.6,0.9,0.5l2.6-0.8c0.4-0.1,0.6-0.5,0.5-0.9l-1.9-6.7c1.7-0.6,3.3-1.3,4.8-2.1l3.5,6c0.2,0.3,0.6,0.4,1,0.2l2.4-1.4
			c0.3-0.2,0.4-0.6,0.2-1l-3.5-6c1.7-1.1,3.3-2.3,4.8-3.7l5,4.9c0.3,0.3,0.7,0.3,1,0l1.9-1.9c0.3-0.3,0.3-0.7,0-1l-4.8-5
			c1.2-1.3,2.3-2.7,3.3-4.2l6,3.5c0.3,0.2,0.8,0.1,1-0.2l1.4-2.4c0.2-0.3,0.1-0.8-0.2-1l-6-3.5c0.8-1.5,1.5-3.1,2.1-4.7l6.7,2
			c0.4,0.1,0.8-0.1,0.9-0.5l0.8-2.6c0.1-0.4-0.1-0.8-0.5-0.9l-6.7-2c0.6-2.3,0.9-4.7,1-7.2h7c0.4,0,0.7-0.3,0.7-0.7v-2.7
			C2099.4-182.1,2099.1-182.4,2098.7-182.4z M2053-156c-13.5,0-24.4-10.9-24.4-24.4c0-13.5,10.9-24.4,24.4-24.4s24.4,10.9,24.4,24.4
			C2077.3-166.9,2066.4-156,2053-156z"/>
	</g>
	<path d="M2176-216l-22.2,16.5l-4.4,0c-0.7,0-2.1,0.7-3.1,1.6s-1.2,1.6-0.4,1.6l3.6-0.1l-8.1,6l-4.4,0c-0.7,0-2.1,0.7-3.1,1.6
		c-1,0.9-1.2,1.6-0.4,1.6l3.6-0.1l-8.1,6l-4.4,0c-0.7,0-2.1,0.7-3.1,1.6c-1,0.9-1.2,1.6-0.4,1.6l3.6-0.1l-8.1,6l-4.4,0
		c-0.7,0-2.1,0.7-3.1,1.6c-1,0.9-1.2,1.6-0.4,1.6l3.6-0.1l-8.1,6l-4.4,0c-0.7,0-2.1,0.7-3.1,1.6c-1,0.9-1.2,1.6-0.4,1.6l3.6-0.1
		l-8.1,6l-4.4,0c-0.7,0-2.1,0.7-3.1,1.6c-1,0.9-1.2,1.6-0.4,1.6l3.6-0.1l-8.1,6l-4.4,0c-0.7,0-2.1,0.7-3.1,1.6
		c-1,0.9-1.2,1.6-0.4,1.6l3.6-0.1l-8.1,6l-4.4,0c-0.7,0-2.1,0.7-3.1,1.6c-1,0.9-1.2,1.6-0.4,1.6l3.6-0.1l-8.1,6l-4.4,0
		c-0.7,0-2.1,0.7-3.1,1.6c-1,0.9-1.2,1.6-0.4,1.6l3.6-0.1l-8.1,6l-4.4,0c-0.7,0-2.1,0.7-3.1,1.6c-1,0.9-1.2,1.6-0.4,1.6l3.6-0.1
		l-8.1,6l-4.4,0c-0.7,0-2.1,0.7-3.1,1.6c-1,0.9-1.2,1.6-0.4,1.6l3.6-0.1l-8.1,6l-4.4,0c-0.7,0-2.1,0.7-3.1,1.6
		c-1,0.9-1.2,1.6-0.4,1.6l3.6-0.1l-8.1,6l-4.4,0c-0.7,0-2.1,0.7-3.1,1.6c-1,0.9-1.2,1.6-0.4,1.6l3.6-0.1l-8.1,6l-4.4,0
		c-0.7,0-2.1,0.7-3.1,1.6c-1,0.9-1.2,1.6-0.4,1.6l3.6-0.1l-8.1,6l-4.4,0c-0.7,0-2.1,0.7-3.1,1.6c-1,0.9-1.2,1.6-0.4,1.6l3.6-0.1
		l-8.1,6l-4.4,0c-0.7,0-2.1,0.7-3.1,1.6c-1,0.9-1.2,1.6-0.4,1.6l3.6-0.1l-8.1,6l-4.4,0c-0.7,0-2.1,0.7-3.1,1.6
		c-1,0.9-1.2,1.6-0.4,1.6l3.6-0.1l-8.1,6l-4.4,0c-0.7,0-2.1,0.7-3.1,1.6c-1,0.9-1.2,1.6-0.4,1.6l3.6-0.1l-8.1,6l-4.4,0
		c-0.7,0-2.1,0.7-3.1,1.6c-1,0.9-1.2,1.6-0.4,1.6l3.6-0.1l-8.1,6l-4.4,0c-0.7,0-2.1,0.7-3.1,1.6s-1.2,1.6-0.4,1.6l3.6-0.1l-8.1,6
		l-4.4,0c-0.7,0-2.1,0.7-3.1,1.6c-1,0.9-1.2,1.6-0.4,1.6l3.6-0.1l-8.1,6l-4.4,0c-0.7,0-2.1,0.7-3.1,1.6s-1.2,1.6-0.4,1.6l3.6-0.1
		l-8.1,6l-4.4,0c-0.7,0-2.1,0.7-3.1,1.6c-1,0.9-1.2,1.6-0.4,1.6l3.6-0.1l-8.1,6l-4.4,0c-0.7,0-2.1,0.7-3.1,1.6s-1.2,1.6-0.4,1.6
		l3.6-0.1l-8.1,6l-4.4,0c-0.7,0-2.1,0.7-3.1,1.6c-1,0.9-1.2,1.6-0.4,1.6l3.6-0.1l-8.1,6l-4.4,0c-0.7,0-2.1,0.7-3.1,1.6
		c-1,0.9-1.2,1.6-0.4,1.6l3.6-0.1l-8.1,6l-4.4,0c-0.7,0-2.1,0.7-3.1,1.6c-1,0.9-1.2,1.6-0.4,1.6l3.6-0.1l-8.1,6l-4.4,0
		c-0.7,0-2.1,0.7-3.1,1.6c-1,0.9-1.2,1.6-0.4,1.6l3.6-0.1l-8.1,6l-4.4,0c-0.7,0-2.1,0.7-3.1,1.6c-1,0.9-1.2,1.6-0.4,1.6l3.6-0.1
		l-8.1,6l-4.4,0c-0.7,0-2.1,0.7-3.1,1.6c-1,0.9-1.2,1.6-0.4,1.6l3.6-0.1l-8.1,6l-4.4,0c-0.7,0-2.1,0.7-3.1,1.6
		c-1,0.9-1.2,1.6-0.4,1.6l3.6-0.1l-8.1,6l-4.4,0c-0.7,0-2.1,0.7-3.1,1.6c-1,0.9-1.2,1.6-0.4,1.6l3.6-0.1l-8.1,6l-4.4,0
		c-0.7,0-2.1,0.7-3.1,1.6s-1.2,1.6-0.4,1.6l3.6-0.1l-8.1,6l-4.4,0c-0.7,0-2.1,0.7-3.1,1.6s-1.2,1.6-0.4,1.6l3.6-0.1l-8.1,6l-4.4,0
		c-0.7,0-2.1,0.7-3.1,1.6s-1.2,1.6-0.4,1.6l3.6-0.1l-8.1,6l-4.4,0c-0.7,0-2.1,0.7-3.1,1.6c-1,0.9-1.2,1.6-0.4,1.6l3.6-0.1l-8.1,6
		l-4.4,0c-0.7,0-2.1,0.7-3.1,1.6c-1,0.9-1.2,1.6-0.4,1.6l3.6-0.1l-8.1,6l-4.4,0c-0.7,0-2.1,0.7-3.1,1.6c-1,0.9-1.2,1.6-0.4,1.6
		l3.5,0l-8.1,6l-4.4,0c-0.7,0-2.1,0.7-3.1,1.6c-1,0.9-1.2,1.6-0.4,1.6l3.6-0.1l-6.3,4.7l3.9,2.4l-5.2,3.9l16.1,9.9l5.2-3.9l4.5,2.8
		l27.4-20.3l3.2,0c0.7,0,2.1-0.7,3.1-1.6c1-0.9,1.2-1.6,0.4-1.6l-2.4,0l9.2-6.8l3.2,0c0.7,0,2.1-0.7,3.1-1.6c1-0.9,1.2-1.6,0.4-1.6
		l-2.4,0l8.1-6l3.2,0c0.7,0,2.1-0.7,3.1-1.6s1.2-1.6,0.4-1.6l-2.4,0l8.1-6l3.2,0c0.7,0,2.1-0.7,3.1-1.6c1-0.9,1.2-1.6,0.4-1.6
		l-2.4,0l8.1-6l3.2,0c0.7,0,2.1-0.7,3.1-1.6c1-0.9,1.2-1.6,0.4-1.6l-2.4,0l8.1-6l3.2,0c0.7,0,2.1-0.7,3.1-1.6c1-0.9,1.2-1.6,0.4-1.6
		l-2.4,0l8.1-6l3.2,0c0.7,0,2.1-0.7,3.1-1.6c1-0.9,1.2-1.6,0.4-1.6l-2.4,0l8.1-6l3.2,0c0.7,0,2.1-0.7,3.1-1.6c1-0.9,1.2-1.6,0.4-1.6
		l-2.4,0l8.1-6l3.2,0c0.7,0,2.1-0.7,3.1-1.6c1-0.9,1.2-1.6,0.4-1.6l-2.4,0l8.1-6l3.2,0c0.7,0,2.1-0.7,3.1-1.6c1-0.9,1.2-1.6,0.4-1.6
		l-2.4,0l8.1-6l3.2,0c0.7,0,2.1-0.7,3.1-1.6c1-0.9,1.2-1.6,0.4-1.6l-2.4,0l8.1-6l3.2,0c0.7,0,2.1-0.7,3.1-1.6c1-0.9,1.2-1.6,0.4-1.6
		l-2.4,0l8.1-6l3.2,0c0.7,0,2.1-0.7,3.1-1.6c1-0.9,1.2-1.6,0.4-1.6l-2.4,0l8.1-6l3.2,0c0.7,0,2.1-0.7,3.1-1.6c1-0.9,1.2-1.6,0.4-1.6
		l-2.4,0l8.1-6l3.2,0c0.7,0,2.1-0.7,3.1-1.6c1-0.9,1.2-1.6,0.4-1.6l-2.4,0l8.1-6l3.2,0c0.7,0,2.1-0.7,3.1-1.6c1-0.9,1.2-1.6,0.4-1.6
		l-2.4,0l8.1-6l3.2,0c0.7,0,2.1-0.7,3.1-1.6c1-0.9,1.2-1.6,0.4-1.6l-2.4,0l8.1-6l3.2,0c0.7,0,2.1-0.7,3.1-1.6c1-0.9,1.2-1.6,0.4-1.6
		l-2.4,0l9.2-6.8l3.2,0c0.7,0,2.1-0.7,3.1-1.6c1-0.9,1.2-1.6,0.4-1.6l-2.4,0l8.1-6l3.2,0c0.7,0,2.1-0.7,3.1-1.6
		c1-0.9,1.2-1.6,0.4-1.6l-2.4,0l8.1-6l3.2,0c0.7,0,2.1-0.7,3.1-1.6c1-0.9,1.2-1.6,0.4-1.6l-2.4,0l8.1-6l3.2,0c0.7,0,2.1-0.7,3.1-1.6
		c1-0.9,1.2-1.6,0.4-1.6l-2.4,0l8.1-6l3.2,0c0.7,0,2.1-0.7,3.1-1.6c1-0.9,1.2-1.6,0.4-1.6l-2.4,0l8.1-6l3.2,0c0.7,0,2.1-0.7,3.1-1.6
		c1-0.9,1.2-1.6,0.4-1.6l-2.4,0l8.1-6l3.2,0c0.7,0,2.1-0.7,3.1-1.6c1-0.9,1.2-1.6,0.4-1.6l-2.4,0l8.1-6l3.2,0c0.7,0,2.1-0.7,3.1-1.6
		c1-0.9,1.2-1.6,0.4-1.6l-2.4,0l8.1-6l3.2,0c0.7,0,2.1-0.7,3.1-1.6c1-0.9,1.2-1.6,0.4-1.6l-2.4,0l8.1-6l3.2,0c0.7,0,2.1-0.7,3.1-1.6
		c1-0.9,1.2-1.6,0.4-1.6l-2.4,0l8.1-6l3.2,0c0.7,0,2.1-0.7,3.1-1.6c1-0.9,1.2-1.6,0.4-1.6l-2.4,0l8.1-6l3.2,0c0.7,0,2.1-0.7,3.1-1.6
		c1-0.9,1.2-1.6,0.4-1.6l-2.4,0l8.1-6l3.2,0c0.7,0,2.1-0.7,3.1-1.6c1-0.9,1.2-1.6,0.4-1.6l-2.4,0l8.1-6l3.2,0c0.7,0,2.1-0.7,3.1-1.6
		c1-0.9,1.2-1.6,0.4-1.6l-2.4,0l8.1-6l3.2,0c0.7,0,2.1-0.7,3.1-1.6c1-0.9,1.2-1.6,0.4-1.6l-2.4,0l8.1-6l3.2,0c0.7,0,2.1-0.7,3.1-1.6
		c1-0.9,1.2-1.6,0.4-1.6l-2.4,0l8.1-6l3.2,0c0.7,0,2.1-0.7,3.1-1.6c1-0.9,1.2-1.6,0.4-1.6l-2.4,0l5.8-4.3l3.2,0
		c0.7,0,2.1-0.7,3.1-1.6s1.2-1.6,0.4-1.6l-2.4,0l8.1-6l3.2,0c0.7,0,2.1-0.7,3.1-1.6s1.2-1.6,0.4-1.6l-2.4,0l8.1-6l3.2,0
		c0.7,0,2.1-0.7,3.1-1.6s1.2-1.6,0.4-1.6l-2.4,0l8.1-6l3.2,0c0.7,0,2.1-0.7,3.1-1.6s1.2-1.6,0.4-1.6l-2.4,0l1.2-0.9L2176-216z"/>
	
		<rect x="2031.7" y="-216.1" transform="matrix(0.9952 9.825908e-002 -9.825908e-002 0.9952 5.5395 -200.5932)" width="15.2" height="344.1"/>
	<rect x="2156.5" y="-127.3" transform="matrix(0.357 -0.9341 0.9341 0.357 1349.5962 2050.1458)" width="15.2" height="344.1"/>
	<rect x="2217.5" y="-182.5" transform="matrix(0.4976 -0.8674 0.8674 0.4976 1087.2058 1947.7844)" width="15.2" height="435.7"/>
	<rect x="1950.9" y="16.2" width="213.1" height="104.7"/>
	<rect x="1428.6" y="57" transform="matrix(0.9864 -0.1644 0.1644 0.9864 2.9058 253.8021)" width="213.1" height="104.7"/>
	<g>
		<path id="XMLID_43_" d="M2213.1,103.1c-8.9-3.2-18.6,0.8-22.9,8.9l35.1,12.5C2227,115.4,2222.1,106.3,2213.1,103.1z"/>
		<path id="XMLID_42_" d="M2200.5,138.7c8.9,3.2,18.6-0.8,22.9-8.9l-35.1-12.5C2186.6,126.4,2191.6,135.5,2200.5,138.7z"/>
		<path d="M2287.2,117.2h-12.3c-0.2-4.3-0.9-8.4-1.8-12.4l11.8-3.5c0.6-0.2,1.1-0.9,0.9-1.6l-1.4-4.6c-0.2-0.6-0.9-1.1-1.6-0.9
			l-11.8,3.5c-1.1-2.9-2.3-5.7-3.8-8.5l10.6-6.2c0.6-0.4,0.8-1.1,0.4-1.7l-2.5-4.2c-0.4-0.6-1.1-0.8-1.7-0.4l-10.6,6.2
			c-2-3-4.2-5.7-6.6-8.4l8.6-8.8c0.5-0.5,0.5-1.3,0-1.8l-3.5-3.4c-0.5-0.5-1.3-0.5-1.8,0l-8.6,8.8c-2.3-2.1-4.9-4-7.5-5.7l6.2-10.6
			c0.4-0.6,0.1-1.3-0.4-1.7l-4.2-2.4c-0.6-0.4-1.3-0.1-1.7,0.4l-6.2,10.6c-2.7-1.3-5.5-2.6-8.3-3.5l3.5-11.8
			c0.2-0.6-0.2-1.3-0.9-1.6l-4.6-1.3c-0.6-0.2-1.3,0.2-1.6,0.9l-3.5,11.8c-3.9-0.9-7.9-1.5-12-1.7V40.6c0-0.7-0.6-1.3-1.3-1.3h-4.8
			c-0.7,0-1.3,0.6-1.3,1.3v12.3c-4,0.2-7.9,0.8-11.8,1.6l-3.4-11.8c-0.2-0.6-0.9-1.1-1.6-0.9l-4.6,1.3c-0.6,0.2-1.1,0.9-0.9,1.6
			l3.4,11.8c-3,1-5.8,2.3-8.5,3.6l-6.2-10.6c-0.4-0.6-1.1-0.8-1.7-0.4l-4.2,2.4c-0.6,0.4-0.8,1.1-0.4,1.7l6.2,10.6
			c-3,1.9-5.7,4.1-8.4,6.5l-8.9-8.6c-0.5-0.5-1.3-0.5-1.8,0l-3.4,3.4c-0.5,0.5-0.5,1.3,0,1.8l8.7,8.7c-2.1,2.3-4,4.8-5.8,7.4
			l-10.6-6.2c-0.6-0.4-1.3-0.1-1.7,0.4l-2.5,4.2c-0.4,0.6-0.1,1.3,0.4,1.7l10.6,6.2c-1.4,2.7-2.6,5.5-3.7,8.3l-11.8-3.5
			c-0.6-0.2-1.3,0.1-1.6,0.9l-1.4,4.6c-0.2,0.6,0.1,1.3,0.9,1.6l11.8,3.5c-1,4-1.6,8.3-1.8,12.6h-12.2c-0.7,0-1.3,0.6-1.3,1.3v4.8
			c0,0.7,0.6,1.3,1.3,1.3h12.3c0.2,4.3,0.9,8.4,1.8,12.4l-11.8,3.5c-0.6,0.2-1.1,0.9-0.9,1.6l1.4,4.6c0.2,0.6,0.9,1.1,1.6,0.9
			l11.8-3.5c1.1,2.9,2.3,5.7,3.8,8.5l-10.6,6.2c-0.6,0.4-0.8,1.1-0.4,1.7l2.5,4.2c0.4,0.6,1.1,0.8,1.7,0.4l10.6-6.2
			c2,3,4.2,5.7,6.6,8.4l-8.6,8.8c-0.5,0.5-0.5,1.3,0,1.8l3.5,3.4c0.5,0.5,1.3,0.5,1.8,0l8.6-8.8c2.3,2.1,4.9,4,7.5,5.7l-6.2,10.6
			c-0.4,0.6-0.1,1.3,0.4,1.7l4.2,2.4c0.6,0.4,1.3,0.1,1.7-0.4l6.2-10.6c2.7,1.3,5.5,2.6,8.3,3.5l-3.5,11.8c-0.2,0.6,0.2,1.3,0.9,1.6
			l4.6,1.3c0.6,0.2,1.3-0.2,1.6-0.9l3.5-11.8c3.9,0.9,7.9,1.5,12,1.7v12.3c0,0.7,0.6,1.3,1.3,1.3h4.8c0.7,0,1.3-0.6,1.3-1.3v-12.3
			c4-0.2,7.9-0.8,11.8-1.6l3.4,11.8c0.2,0.6,0.9,1.1,1.6,0.9l4.6-1.3c0.6-0.2,1.1-0.9,0.9-1.6l-3.4-11.8c3-1,5.8-2.3,8.5-3.6
			l6.2,10.6c0.4,0.6,1.1,0.8,1.7,0.4l4.2-2.4c0.6-0.4,0.8-1.1,0.4-1.7l-6.2-10.6c3-1.9,5.7-4.1,8.4-6.5l8.7,8.6
			c0.5,0.5,1.3,0.5,1.8,0l3.4-3.4c0.5-0.5,0.5-1.3,0-1.8l-8.5-8.8c2.1-2.3,4-4.8,5.8-7.4l10.6,6.2c0.6,0.4,1.3,0.1,1.7-0.4l2.5-4.2
			c0.4-0.6,0.1-1.3-0.4-1.7l-10.6-6.2c1.4-2.7,2.6-5.5,3.7-8.3l11.8,3.5c0.6,0.2,1.3-0.1,1.6-0.9l1.4-4.6c0.2-0.6-0.1-1.3-0.9-1.6
			l-11.8-3.5c1-4,1.6-8.3,1.8-12.6h12.3c0.7,0,1.3-0.6,1.3-1.3v-4.8C2288.4,117.8,2287.9,117.2,2287.2,117.2z M2206.8,163.7
			c-23.7,0-42.8-19.1-42.8-42.8s19.1-42.8,42.8-42.8s42.8,19.1,42.8,42.8S2230.5,163.7,2206.8,163.7z"/>
	</g>
	<g>
		<path id="XMLID_4_" class="st0" d="M2103,27.5c-3.5-1.3-7.4,0.3-9.1,3.5l14,5C2108.6,32.4,2106.6,28.7,2103,27.5z"/>
		<path id="XMLID_3_" class="st0" d="M2098,41.6c3.5,1.3,7.4-0.3,9.1-3.5l-14-5C2092.5,36.7,2094.5,40.4,2098,41.6z"/>
		<path d="M2132.5,33.1h-4.9c-0.1-1.7-0.3-3.3-0.7-4.9l4.7-1.4c0.3-0.1,0.4-0.4,0.3-0.6l-0.6-1.8c-0.1-0.3-0.4-0.4-0.6-0.3l-4.7,1.4
			c-0.4-1.2-0.9-2.3-1.5-3.4l4.2-2.5c0.2-0.1,0.3-0.5,0.2-0.7l-1-1.7c-0.1-0.2-0.5-0.3-0.7-0.2l-4.2,2.5c-0.8-1.2-1.7-2.3-2.6-3.3
			l3.4-3.5c0.2-0.2,0.2-0.5,0-0.7l-1.4-1.4c-0.2-0.2-0.5-0.2-0.7,0l-3.4,3.5c-0.9-0.8-1.9-1.6-3-2.3l2.5-4.2
			c0.1-0.2,0.1-0.5-0.2-0.7l-1.7-1c-0.2-0.1-0.5-0.1-0.7,0.2l-2.5,4.2c-1.1-0.5-2.2-1-3.3-1.4l1.4-4.7c0.1-0.3-0.1-0.5-0.3-0.6
			l-1.8-0.5c-0.3-0.1-0.5,0.1-0.6,0.3l-1.4,4.7c-1.6-0.4-3.1-0.6-4.8-0.7V2.5c0-0.3-0.2-0.5-0.5-0.5h-1.9c-0.3,0-0.5,0.2-0.5,0.5
			v4.9c-1.6,0.1-3.2,0.3-4.7,0.6l-1.4-4.7c-0.1-0.3-0.4-0.4-0.6-0.3l-1.8,0.5c-0.3,0.1-0.4,0.4-0.3,0.6l1.4,4.7
			c-1.2,0.4-2.3,0.9-3.4,1.4l-2.5-4.2c-0.1-0.2-0.5-0.3-0.7-0.2l-1.7,1c-0.2,0.1-0.3,0.5-0.2,0.7l2.5,4.2c-1.2,0.8-2.3,1.6-3.3,2.6
			l-3.6-3.4c-0.2-0.2-0.5-0.2-0.7,0l-1.4,1.4c-0.2,0.2-0.2,0.5,0,0.7l3.5,3.5c-0.8,0.9-1.6,1.9-2.3,3l-4.2-2.5
			c-0.2-0.1-0.5-0.1-0.7,0.2l-1,1.7c-0.1,0.2-0.1,0.5,0.2,0.7l4.2,2.5c-0.6,1.1-1,2.2-1.5,3.3l-4.7-1.4c-0.3-0.1-0.5,0.1-0.6,0.3
			l-0.6,1.8c-0.1,0.3,0.1,0.5,0.3,0.6l4.7,1.4c-0.4,1.6-0.6,3.3-0.7,5h-4.9c-0.3,0-0.5,0.2-0.5,0.5v1.9c0,0.3,0.2,0.5,0.5,0.5h4.9
			c0.1,1.7,0.3,3.3,0.7,4.9l-4.7,1.4c-0.3,0.1-0.4,0.4-0.3,0.6l0.6,1.8c0.1,0.3,0.4,0.4,0.6,0.3l4.7-1.4c0.4,1.2,0.9,2.3,1.5,3.4
			l-4.2,2.5c-0.2,0.1-0.3,0.5-0.2,0.7l1,1.7c0.1,0.2,0.5,0.3,0.7,0.2l4.2-2.5c0.8,1.2,1.7,2.3,2.6,3.3l-3.4,3.5
			c-0.2,0.2-0.2,0.5,0,0.7l1.4,1.4c0.2,0.2,0.5,0.2,0.7,0l3.4-3.5c0.9,0.8,1.9,1.6,3,2.3l-2.5,4.2c-0.1,0.2-0.1,0.5,0.2,0.7l1.7,1
			c0.2,0.1,0.5,0.1,0.7-0.2l2.5-4.2c1.1,0.5,2.2,1,3.3,1.4l-1.4,4.7c-0.1,0.3,0.1,0.5,0.3,0.6l1.8,0.5c0.3,0.1,0.5-0.1,0.6-0.3
			l1.4-4.7c1.6,0.4,3.1,0.6,4.8,0.7v4.9c0,0.3,0.2,0.5,0.5,0.5h1.9c0.3,0,0.5-0.2,0.5-0.5v-4.9c1.6-0.1,3.2-0.3,4.7-0.6l1.4,4.7
			c0.1,0.3,0.4,0.4,0.6,0.3l1.8-0.5c0.3-0.1,0.4-0.4,0.3-0.6l-1.4-4.7c1.2-0.4,2.3-0.9,3.4-1.4l2.5,4.2c0.1,0.2,0.5,0.3,0.7,0.2
			l1.7-1c0.2-0.1,0.3-0.5,0.2-0.7l-2.5-4.2c1.2-0.8,2.3-1.6,3.3-2.6l3.5,3.4c0.2,0.2,0.5,0.2,0.7,0l1.4-1.4c0.2-0.2,0.2-0.5,0-0.7
			l-3.4-3.5c0.8-0.9,1.6-1.9,2.3-3l4.2,2.5c0.2,0.1,0.5,0.1,0.7-0.2l1-1.7c0.1-0.2,0.1-0.5-0.2-0.7l-4.2-2.5c0.6-1.1,1-2.2,1.5-3.3
			l4.7,1.4c0.3,0.1,0.5-0.1,0.6-0.3l0.6-1.8c0.1-0.3-0.1-0.5-0.3-0.6l-4.7-1.4c0.4-1.6,0.6-3.3,0.7-5h4.9c0.3,0,0.5-0.2,0.5-0.5
			v-1.9C2133,33.3,2132.8,33.1,2132.5,33.1z M2100.5,51.6c-9.4,0-17-7.6-17-17s7.6-17,17-17c9.4,0,17,7.6,17,17
			S2110,51.6,2100.5,51.6z"/>
	</g>
	<g>
		<path id="XMLID_6_" class="st0" d="M1511.8,60.6c-3.5-1.3-7.4,0.3-9.1,3.5l14,5C1517.3,65.5,1515.3,61.8,1511.8,60.6z"/>
		<path id="XMLID_5_" class="st0" d="M1506.8,74.7c3.5,1.3,7.4-0.3,9.1-3.5l-14-5C1501.2,69.8,1503.2,73.5,1506.8,74.7z"/>
		<path d="M1541.3,66.2h-4.9c-0.1-1.7-0.3-3.3-0.7-4.9l4.7-1.4c0.3-0.1,0.4-0.4,0.3-0.6l-0.6-1.8c-0.1-0.3-0.4-0.4-0.6-0.3l-4.7,1.4
			c-0.4-1.2-0.9-2.3-1.5-3.4l4.2-2.5c0.2-0.1,0.3-0.5,0.2-0.7l-1-1.7c-0.1-0.2-0.5-0.3-0.7-0.2l-4.2,2.5c-0.8-1.2-1.7-2.3-2.6-3.3
			l3.4-3.5c0.2-0.2,0.2-0.5,0-0.7l-1.4-1.4c-0.2-0.2-0.5-0.2-0.7,0l-3.4,3.5c-0.9-0.8-1.9-1.6-3-2.3l2.5-4.2
			c0.1-0.2,0.1-0.5-0.2-0.7l-1.7-1c-0.2-0.1-0.5-0.1-0.7,0.2l-2.5,4.2c-1.1-0.5-2.2-1-3.3-1.4l1.4-4.7c0.1-0.3-0.1-0.5-0.3-0.6
			l-1.8-0.5c-0.3-0.1-0.5,0.1-0.6,0.3l-1.4,4.7c-1.6-0.4-3.1-0.6-4.8-0.7v-4.9c0-0.3-0.2-0.5-0.5-0.5h-1.9c-0.3,0-0.5,0.2-0.5,0.5
			v4.9c-1.6,0.1-3.2,0.3-4.7,0.6l-1.4-4.7c-0.1-0.3-0.4-0.4-0.6-0.3l-1.8,0.5c-0.3,0.1-0.4,0.4-0.3,0.6l1.4,4.7
			c-1.2,0.4-2.3,0.9-3.4,1.4l-2.5-4.2c-0.1-0.2-0.5-0.3-0.7-0.2l-1.7,1c-0.2,0.1-0.3,0.5-0.2,0.7l2.5,4.2c-1.2,0.8-2.3,1.6-3.3,2.6
			l-3.6-3.4c-0.2-0.2-0.5-0.2-0.7,0l-1.4,1.4c-0.2,0.2-0.2,0.5,0,0.7l3.5,3.5c-0.8,0.9-1.6,1.9-2.3,3l-4.2-2.5
			c-0.2-0.1-0.5-0.1-0.7,0.2l-1,1.7c-0.1,0.2-0.1,0.5,0.2,0.7l4.2,2.5c-0.6,1.1-1,2.2-1.5,3.3L1479,57c-0.3-0.1-0.5,0.1-0.6,0.3
			l-0.6,1.8c-0.1,0.3,0.1,0.5,0.3,0.6l4.7,1.4c-0.4,1.6-0.6,3.3-0.7,5h-4.9c-0.3,0-0.5,0.2-0.5,0.5v1.9c0,0.3,0.2,0.5,0.5,0.5h4.9
			c0.1,1.7,0.3,3.3,0.7,4.9l-4.7,1.4c-0.3,0.1-0.4,0.4-0.3,0.6l0.6,1.8c0.1,0.3,0.4,0.4,0.6,0.3l4.7-1.4c0.4,1.2,0.9,2.3,1.5,3.4
			l-4.2,2.5c-0.2,0.1-0.3,0.5-0.2,0.7l1,1.7c0.1,0.2,0.5,0.3,0.7,0.2l4.2-2.5c0.8,1.2,1.7,2.3,2.6,3.3l-3.4,3.5
			c-0.2,0.2-0.2,0.5,0,0.7l1.4,1.4c0.2,0.2,0.5,0.2,0.7,0l3.4-3.5c0.9,0.8,1.9,1.6,3,2.3l-2.5,4.2c-0.1,0.2-0.1,0.5,0.2,0.7l1.7,1
			c0.2,0.1,0.5,0.1,0.7-0.2l2.5-4.2c1.1,0.5,2.2,1,3.3,1.4l-1.4,4.7c-0.1,0.3,0.1,0.5,0.3,0.6l1.8,0.5c0.3,0.1,0.5-0.1,0.6-0.3
			l1.4-4.7c1.6,0.4,3.1,0.6,4.8,0.7v4.9c0,0.3,0.2,0.5,0.5,0.5h1.9c0.3,0,0.5-0.2,0.5-0.5v-4.9c1.6-0.1,3.2-0.3,4.7-0.6l1.4,4.7
			c0.1,0.3,0.4,0.4,0.6,0.3l1.8-0.5c0.3-0.1,0.4-0.4,0.3-0.6l-1.4-4.7c1.2-0.4,2.3-0.9,3.4-1.4l2.5,4.2c0.1,0.2,0.5,0.3,0.7,0.2
			l1.7-1c0.2-0.1,0.3-0.5,0.2-0.7l-2.5-4.2c1.2-0.8,2.3-1.6,3.3-2.6l3.5,3.4c0.2,0.2,0.5,0.2,0.7,0l1.4-1.4c0.2-0.2,0.2-0.5,0-0.7
			l-3.4-3.5c0.8-0.9,1.6-1.9,2.3-3l4.2,2.5c0.2,0.1,0.5,0.1,0.7-0.2l1-1.7c0.1-0.2,0.1-0.5-0.2-0.7l-4.2-2.5c0.6-1.1,1-2.2,1.5-3.3
			l4.7,1.4c0.3,0.1,0.5-0.1,0.6-0.3l0.6-1.8c0.1-0.3-0.1-0.5-0.3-0.6l-4.7-1.4c0.4-1.6,0.6-3.3,0.7-5h4.9c0.3,0,0.5-0.2,0.5-0.5
			v-1.9C1541.8,66.4,1541.6,66.2,1541.3,66.2z M1509.3,84.7c-9.4,0-17-7.6-17-17s7.6-17,17-17c9.4,0,17,7.6,17,17
			S1518.7,84.7,1509.3,84.7z"/>
	</g>
	<polygon points="1902.9,-192.3 1902,-194.3 1922.1,-207 1923,-205.1 	"/>
	<path d="M1925.2-194.8l-16.3,10.3c-1.1,0.7-2.6-0.3-3.5-2.1l-1.9-4.1l20.1-12.7l1.9,4.1C1926.5-197.6,1926.3-195.5,1925.2-194.8z"
		/>
	<path d="M2068.4,118.8l-6.3-13.7l1.1-2.3c0.2-0.4,0-1.2-0.4-1.8c-0.4-0.6-0.8-0.8-1-0.4l-0.9,1.9l-2.3-5l1.1-2.3
		c0.2-0.4,0-1.2-0.4-1.8s-0.8-0.8-1-0.4l-0.9,1.9l-2.3-5l1.1-2.3c0.2-0.4,0-1.2-0.4-1.8s-0.8-0.8-1-0.4l-0.9,1.9l-2.3-5l1.1-2.3
		c0.2-0.4,0-1.2-0.4-1.8c-0.4-0.6-0.8-0.8-1-0.4l-0.9,1.9l-2.3-5l1.1-2.3c0.2-0.4,0-1.2-0.4-1.8c-0.4-0.6-0.8-0.8-1-0.4l-0.9,1.9
		l-2.3-5l1.1-2.3c0.2-0.4,0-1.2-0.4-1.8c-0.4-0.6-0.8-0.8-1-0.4l-0.9,1.9l-2.3-5l1.1-2.3c0.2-0.4,0-1.2-0.4-1.8s-0.8-0.8-1-0.4
		l-0.9,1.9l-2.3-5l1.1-2.3c0.2-0.4,0-1.2-0.4-1.8c-0.4-0.6-0.8-0.8-1-0.4l-0.9,1.9l-2.3-5l1.1-2.3c0.2-0.4,0-1.2-0.4-1.8
		s-0.8-0.8-1-0.4l-0.9,1.9l-2.3-5l1.1-2.3c0.2-0.4,0-1.2-0.4-1.8c-0.4-0.6-0.8-0.8-1-0.4l-0.9,1.9l-2.3-5l1.1-2.3
		c0.2-0.4,0-1.2-0.4-1.8c-0.4-0.6-0.8-0.8-1-0.4l-0.9,1.9l-2.3-5l1.1-2.3c0.2-0.4,0-1.2-0.4-1.8c-0.4-0.6-0.8-0.8-1-0.4l-0.9,1.9
		l-2.3-5l1.1-2.3c0.2-0.4,0-1.2-0.4-1.8c-0.4-0.6-0.8-0.8-1-0.4l-0.9,1.9l-2.3-5l1.1-2.3c0.2-0.4,0-1.2-0.4-1.8
		c-0.4-0.6-0.8-0.8-1-0.4l-0.9,1.9l-2.3-5l1.1-2.3c0.2-0.4,0-1.2-0.4-1.8c-0.4-0.6-0.8-0.8-1-0.4l-0.9,1.9l-2.3-5l1.1-2.3
		c0.2-0.4,0-1.2-0.4-1.8c-0.4-0.6-0.8-0.8-1-0.4l-0.9,1.9l-2.3-5l1.1-2.3c0.2-0.4,0-1.2-0.4-1.8c-0.4-0.6-0.8-0.8-1-0.4l-0.9,1.9
		l-2.3-5l1.1-2.3c0.2-0.4,0-1.2-0.4-1.8c-0.4-0.6-0.8-0.8-1-0.4l-0.9,1.9l-2.3-5l1.1-2.3c0.2-0.4,0-1.2-0.4-1.8
		c-0.4-0.6-0.8-0.8-1-0.4l-0.9,1.9l-2.3-5l1.1-2.3c0.2-0.4,0-1.2-0.4-1.8c-0.4-0.6-0.8-0.8-1-0.4l-0.9,1.9l-2.3-5l1.1-2.3
		c0.2-0.4,0-1.2-0.4-1.8c-0.4-0.6-0.8-0.8-1-0.4l-0.9,1.9l-2.3-5l1.1-2.3c0.2-0.4,0-1.2-0.4-1.8c-0.4-0.6-0.8-0.8-1-0.4l-0.9,1.9
		l-2.3-5l1.1-2.3c0.2-0.4,0-1.2-0.4-1.8c-0.4-0.6-0.8-0.8-1-0.4l-0.9,1.9l-2.3-5l1.1-2.3c0.2-0.4,0-1.2-0.4-1.8s-0.8-0.8-1-0.4
		l-0.9,1.9l-2.3-5l1.1-2.3c0.2-0.4,0-1.2-0.4-1.8c-0.4-0.6-0.8-0.8-1-0.4l-0.9,1.9l-2.3-5l1.1-2.3c0.2-0.4,0-1.2-0.4-1.8
		s-0.8-0.8-1-0.4l-0.9,1.9l-2.3-5l1.1-2.3c0.2-0.4,0-1.2-0.4-1.8s-0.8-0.8-1-0.4l-0.9,1.9l-2.3-5l1.1-2.3c0.2-0.4,0-1.2-0.4-1.8
		s-0.8-0.8-1-0.4l-0.9,1.9l-2.3-5l1.1-2.3c0.2-0.4,0-1.2-0.4-1.8c-0.4-0.6-0.8-0.8-1-0.4l-0.9,1.9l-2.3-5l1.1-2.3
		c0.2-0.4,0-1.2-0.4-1.8s-0.8-0.8-1-0.4l-0.9,1.9l-2.3-5l1.1-2.3c0.2-0.4,0-1.2-0.4-1.8s-0.8-0.8-1-0.4l-0.9,1.9l-2.3-5l1.1-2.3
		c0.2-0.4,0-1.2-0.4-1.8s-0.8-0.8-1-0.4l-0.9,1.9l-2.3-5l1.1-2.3c0.2-0.4,0-1.2-0.4-1.8s-0.8-0.8-1-0.4l-0.9,1.9l-2.3-5l1.1-2.3
		c0.2-0.4,0-1.2-0.4-1.8s-0.8-0.8-1-0.4l-0.9,1.9l-2.3-5l1.1-2.3c0.2-0.4,0-1.2-0.4-1.8c-0.4-0.6-0.8-0.8-1-0.4l-0.9,1.9l-2.3-5
		l1.1-2.3c0.2-0.4,0-1.2-0.4-1.8c-0.4-0.6-0.8-0.8-1-0.4l-0.9,1.9l-2.3-5l1.1-2.3c0.2-0.4,0-1.2-0.4-1.8s-0.8-0.8-1-0.4l-0.9,1.9
		l-2.3-5l1.1-2.3c0.2-0.4,0-1.2-0.4-1.8c-0.4-0.6-0.8-0.8-1-0.4l-0.9,1.8l-2.3-5l1.1-2.3c0.2-0.4,0-1.2-0.4-1.8s-0.8-0.8-1-0.4
		l-0.9,1.9l-1.8-3.9l-2.6,1.7l-1.5-3.2l-11,7l1.5,3.2l-3.1,1.9l7.7,16.9l-0.8,1.7c-0.2,0.4,0,1.2,0.4,1.8c0.4,0.6,0.8,0.8,1,0.4
		l0.6-1.3l2.6,5.7l-0.8,1.7c-0.2,0.4,0,1.2,0.4,1.8c0.4,0.6,0.8,0.8,1,0.4l0.6-1.3l2.3,5l-0.8,1.7c-0.2,0.4,0,1.2,0.4,1.8
		c0.4,0.6,0.8,0.8,1,0.4l0.6-1.3l2.3,5l-0.8,1.7c-0.2,0.4,0,1.2,0.4,1.8c0.4,0.6,0.8,0.8,1,0.4l0.6-1.3l2.3,5l-0.8,1.7
		c-0.2,0.4,0,1.2,0.4,1.8c0.4,0.6,0.8,0.8,1,0.4l0.6-1.3l2.3,5l-0.8,1.7c-0.2,0.4,0,1.2,0.4,1.8c0.4,0.6,0.8,0.8,1,0.4l0.6-1.3
		l2.3,5l-0.8,1.7c-0.2,0.4,0,1.2,0.4,1.8c0.4,0.6,0.8,0.8,1,0.4l0.6-1.3l2.3,5l-0.8,1.7c-0.2,0.4,0,1.2,0.4,1.8
		c0.4,0.6,0.8,0.8,1,0.4l0.6-1.3l2.3,5l-0.8,1.7c-0.2,0.4,0,1.2,0.4,1.8c0.4,0.6,0.8,0.8,1,0.4l0.6-1.3l2.3,5l-0.8,1.7
		c-0.2,0.4,0,1.2,0.4,1.8c0.4,0.6,0.8,0.8,1,0.4l0.6-1.3l2.3,5l-0.8,1.7c-0.2,0.4,0,1.2,0.4,1.8c0.4,0.6,0.8,0.8,1,0.4l0.6-1.3
		l2.3,5l-0.8,1.7c-0.2,0.4,0,1.2,0.4,1.8c0.4,0.6,0.8,0.8,1,0.4l0.6-1.3l2.3,5l-0.8,1.7c-0.2,0.4,0,1.2,0.4,1.8
		c0.4,0.6,0.8,0.8,1,0.4l0.6-1.3l2.3,5l-0.8,1.7c-0.2,0.4,0,1.2,0.4,1.8c0.4,0.6,0.8,0.8,1,0.4l0.6-1.3l2.3,5l-0.8,1.7
		c-0.2,0.4,0,1.2,0.4,1.8c0.4,0.6,0.8,0.8,1,0.4l0.6-1.3l2.3,5l-0.8,1.7c-0.2,0.4,0,1.2,0.4,1.8c0.4,0.6,0.8,0.8,1,0.4l0.6-1.3
		l2.3,5l-0.8,1.7c-0.2,0.4,0,1.2,0.4,1.8c0.4,0.6,0.8,0.8,1,0.4l0.6-1.3l2.3,5l-0.8,1.7c-0.2,0.4,0,1.2,0.4,1.8
		c0.4,0.6,0.8,0.8,1,0.4l0.6-1.3l2.6,5.7l-0.8,1.7c-0.2,0.4,0,1.2,0.4,1.8c0.4,0.6,0.8,0.8,1,0.4l0.6-1.3l2.3,5l-0.8,1.7
		c-0.2,0.4,0,1.2,0.4,1.8c0.4,0.6,0.8,0.8,1,0.4l0.6-1.3l2.3,5l-0.8,1.7c-0.2,0.4,0,1.2,0.4,1.8c0.4,0.6,0.8,0.8,1,0.4l0.6-1.3
		l2.3,5l-0.8,1.7c-0.2,0.4,0,1.2,0.4,1.8c0.4,0.6,0.8,0.8,1,0.4l0.6-1.3l2.3,5l-0.8,1.7c-0.2,0.4,0,1.2,0.4,1.8
		c0.4,0.6,0.8,0.8,1,0.4l0.6-1.3l2.3,5l-0.8,1.7c-0.2,0.4,0,1.2,0.4,1.8c0.4,0.6,0.8,0.8,1,0.4l0.6-1.3l2.3,5l-0.8,1.7
		c-0.2,0.4,0,1.2,0.4,1.8c0.4,0.6,0.8,0.8,1,0.4l0.6-1.3l2.3,5l-0.8,1.7c-0.2,0.4,0,1.2,0.4,1.8c0.4,0.6,0.8,0.8,1,0.4l0.6-1.3
		l2.3,5l-0.8,1.7c-0.2,0.4,0,1.2,0.4,1.8c0.4,0.6,0.8,0.8,1,0.4l0.6-1.3l2.3,5l-0.8,1.7c-0.2,0.4,0,1.2,0.4,1.8
		c0.4,0.6,0.8,0.8,1,0.4l0.6-1.3l2.3,5l-0.8,1.7c-0.2,0.4,0,1.2,0.4,1.8c0.4,0.6,0.8,0.8,1,0.4l0.6-1.3l2.3,5l-0.8,1.7
		c-0.2,0.4,0,1.2,0.4,1.8c0.4,0.6,0.8,0.8,1,0.4l0.6-1.3l2.3,5l-0.8,1.7c-0.2,0.4,0,1.2,0.4,1.8c0.4,0.6,0.8,0.8,1,0.4l0.6-1.3
		l2.3,5l-0.8,1.7c-0.2,0.4,0,1.2,0.4,1.8s0.8,0.8,1,0.4l0.6-1.3l2.3,5l-0.8,1.7c-0.2,0.4,0,1.2,0.4,1.8c0.4,0.6,0.8,0.8,1,0.4
		l0.6-1.3l2.3,5l-0.8,1.7c-0.2,0.4,0,1.2,0.4,1.8c0.4,0.6,0.8,0.8,1,0.4l0.6-1.3l2.3,5l-0.8,1.7c-0.2,0.4,0,1.2,0.4,1.8
		c0.4,0.6,0.8,0.8,1,0.4l0.6-1.3l1.6,3.6l-0.8,1.7c-0.2,0.4,0,1.2,0.4,1.8c0.4,0.6,0.8,0.8,1,0.4l0.6-1.3l2.3,5l-0.8,1.7
		c-0.2,0.4,0,1.2,0.4,1.8c0.4,0.6,0.8,0.8,1,0.4l0.6-1.3l2.3,5l-0.8,1.7c-0.2,0.4,0,1.2,0.4,1.8c0.4,0.6,0.8,0.8,1,0.4l0.6-1.3
		l2.3,5l-0.8,1.7c-0.2,0.4,0,1.2,0.4,1.8c0.4,0.6,0.8,0.8,1,0.4l0.6-1.3l0.3,0.8L2068.4,118.8z"/>
	<g>
		<path d="M2195-730.3l-58.3,0.4c-3.9,0-7,2.6-7,5.7l0,6.9l72.3-0.4l0-6.9C2202.1-727.8,2198.9-730.3,2195-730.3z"/>
		
			<rect x="2164.4" y="-749.2" transform="matrix(-6.214789e-003 -1 1 -6.214789e-003 2892.5178 1448.4678)" width="3.3" height="72.3"/>
		<path d="M2189.1-672.3c-1.8,0-3.2-1.6-3.3-3.7c0-2.1,1.5-3.7,3.2-3.7l2.6,0l0-4.2l-2.6,0c-1.8,0-3.2-1.6-3.3-3.7s1.5-3.7,3.2-3.7
			l2.6,0l0-4.2l-2.6,0c-1.8,0-3.2-1.6-3.3-3.7c0-2.1,1.5-3.7,3.2-3.7l2.6,0l0-6.1l-50.8,0.3l0,6.1l2.5,0c1.8,0,3.2,1.6,3.3,3.7
			s-1.5,3.7-3.2,3.7l-2.5,0l0,4.2l2.5,0c1.8,0,3.2,1.6,3.3,3.7c0,2.1-1.5,3.7-3.2,3.7l-2.5,0l0,4.2l2.5,0c1.8,0,3.2,1.6,3.3,3.7
			s-1.5,3.7-3.2,3.7l-2.5,0l0,6.5l50.8-0.3l0-6.5L2189.1-672.3z"/>
		<path class="st1" d="M2142.9-631c-13,36.6-58.9,36.4-82.2,66.2c-16.1,20.6-15.6,52.7-3.5,76.5c12.1,23.7,33.8,40.1,56.5,51
			c15.1,7.2,31.5,12.8,43.2,25.5c12.5,13.6,17.6,33,22.2,51.6c2.6,10.5,5.2,21.6,2.5,32.1c-3.4,12.9-14.1,21.5-22.8,31
			c-18.9,20.5-30.3,53.9-16.6,78.8c11,19.8,41.4,17.5,42,51.2c-3.7,18.8-18.6-1.2-25.7,6.9c-7,8.1-14.4,22.8-4.9,27.1
			c4.3,2,22.3-10.3,26.9-10.3s2.7,28.2,0.2,37.2c-10.6,44.7-41,74.9-33.5,121s27.8,88.6,37.7,134.2c5.2,24-0.6,43-10.3,65.2"/>
		<g>
			<path d="M2179.3-553.8c3.2,0,6-2.7,5.9-5.9l0-7l1.4,0c0.8,0,1.4-0.6,1.4-1.5c0-0.7-0.7-1.5-1.5-1.5l-1.5,0l0-2.9
				c0-3.2-2.7-5.8-6-5.8l-1.6,0l-0.4-69.1l3.9,0c3.2,0,6-2.7,5.9-5.9l0-1.7l5.6,0c3,0,5.4-2.2,5.9-4.9l-61.7,0.4
				c0.5,2.8,2.9,4.9,5.8,4.9l3.2,0l-3.4,3.1c-4.6,4.1-5.7,12-2.4,17.8l1.5,2.5l4.8,7.6c3.4,3.5,8.3,4.1,12.1,1l0.3,44.6l-1.6,0
				c-3.2,0-6,2.7-5.9,5.9l0,2.9l-1.4,0c-0.8,0-1.4,0.6-1.4,1.5c0,0.7,0.7,1.5,1.5,1.5l1.4,0l0,6.9c0,3.2,2.7,5.8,6,5.8l1.7,0
				l18.6-0.1v0L2179.3-553.8z"/>
			<path d="M2182.2,197.8l-0.5-76.1l8,0c5.6,0,10.2-5.8,10.2-12.8l-0.2-27.4c0-7-4.7-12.7-10.3-12.7l-8,0l-0.7-108l-0.6-104.4
				l-0.8-127.5l-0.5-73.7l-1.2-196l-18.6,0.1l1.1,171.1l0,12l0.6,99.1l0.1,12.9l0.5,81.9l0.1,10.7l1.4,221.9L2148,69
				c-5.6,0-10.2,5.8-10.2,12.8l0.2,27.4c0,7,4.7,12.7,10.3,12.7l14.7-0.1l0.5,76.1L2182.2,197.8z"/>
		</g>
	</g>
	<rect x="1653.6" y="53.8" transform="matrix(0.9191 0.3939 -0.3939 0.9191 171.6884 -687.3006)" width="213.1" height="41.6"/>
	<rect x="1622.3" y="-21.6" transform="matrix(0.9834 0.1813 -0.1813 0.9834 38.2364 -300.049)" width="76.8" height="161.6"/>
	<rect x="1676.8" y="58.4" transform="matrix(0.9907 -0.1359 0.1359 0.9907 7.9231 250.1979)" width="318.6" height="17.4"/>
	<path d="M2248.2,122.2l2.3-23.3l2.2-2.5c0.4-0.4,0.7-1.6,0.7-2.8c0-1.2-0.3-1.7-0.6-1.2l-1.8,2.1l0.8-8.5l2.2-2.5
		c0.4-0.4,0.7-1.6,0.7-2.8c0-1.2-0.3-1.7-0.6-1.2l-1.8,2.1l0.8-8.5l2.2-2.5c0.4-0.4,0.7-1.6,0.7-2.8c0-1.2-0.3-1.7-0.6-1.2l-1.8,2.1
		l0.8-8.5l2.2-2.5c0.4-0.4,0.7-1.6,0.7-2.8c0-1.2-0.3-1.7-0.6-1.2l-1.8,2.1l0.8-8.5l2.2-2.5c0.4-0.4,0.7-1.6,0.7-2.8
		c0-1.2-0.3-1.7-0.6-1.2l-1.8,2.1l0.8-8.5l2.2-2.5c0.4-0.4,0.7-1.6,0.7-2.8c0-1.2-0.3-1.7-0.6-1.2l-1.8,2.1l0.8-8.5l2.2-2.5
		c0.4-0.4,0.7-1.6,0.7-2.8c0-1.2-0.3-1.7-0.6-1.2l-1.8,2.1l0.8-8.5l2.2-2.5c0.4-0.4,0.7-1.6,0.7-2.8c0-1.2-0.3-1.7-0.6-1.2l-1.8,2.1
		l0.8-8.5l2.2-2.5c0.4-0.4,0.7-1.6,0.7-2.8s-0.3-1.7-0.6-1.2l-1.8,2.1l0.8-8.5l2.2-2.5c0.4-0.4,0.7-1.6,0.7-2.8
		c0-1.2-0.3-1.7-0.6-1.2l-1.8,2.1l0.8-8.5l2.2-2.5c0.4-0.4,0.7-1.6,0.7-2.8c0-1.2-0.3-1.7-0.6-1.2l-1.8,2.1l0.8-8.5l2.2-2.5
		c0.4-0.4,0.7-1.6,0.7-2.8c0-1.2-0.3-1.7-0.6-1.2l-1.8,2.1l0.8-8.5l2.2-2.5c0.4-0.4,0.7-1.6,0.7-2.8c0-1.2-0.3-1.7-0.6-1.2l-1.8,2.1
		l0.8-8.5l2.2-2.5c0.4-0.4,0.7-1.6,0.7-2.8c0-1.2-0.3-1.7-0.6-1.2l-1.8,2.1l0.8-8.5l2.2-2.5c0.4-0.4,0.7-1.6,0.7-2.8
		c0-1.2-0.3-1.7-0.6-1.2l-1.8,2.1l0.8-8.5l2.2-2.5c0.4-0.4,0.7-1.6,0.7-2.8c0-1.2-0.3-1.7-0.6-1.2l-1.8,2.1l0.8-8.5l2.2-2.5
		c0.4-0.4,0.7-1.6,0.7-2.8c0-1.2-0.3-1.7-0.6-1.2l-1.8,2.1l0.8-8.5l2.2-2.5c0.4-0.4,0.7-1.6,0.7-2.8s-0.3-1.7-0.6-1.2l-1.8,2.1
		l0.8-8.5l2.2-2.5c0.4-0.4,0.7-1.6,0.7-2.8c0-1.2-0.3-1.7-0.6-1.2l-1.8,2.1l0.8-8.5l2.2-2.5c0.4-0.4,0.7-1.6,0.7-2.8
		c0-1.2-0.3-1.7-0.6-1.2l-1.8,2.1l0.8-8.5l2.2-2.5c0.4-0.4,0.7-1.6,0.7-2.8c0-1.2-0.3-1.7-0.6-1.2l-1.8,2.1l0.8-8.5l2.2-2.5
		c0.4-0.4,0.7-1.6,0.7-2.8c0-1.2-0.3-1.7-0.6-1.2l-1.8,2.1l0.8-8.5l2.2-2.5c0.4-0.4,0.7-1.6,0.7-2.8c0-1.2-0.3-1.7-0.6-1.2l-1.8,2.1
		l0.8-8.5l2.2-2.5c0.4-0.4,0.7-1.6,0.7-2.8c0-1.2-0.3-1.7-0.6-1.2l-1.8,2.1l0.8-8.5l2.2-2.5c0.4-0.4,0.7-1.6,0.7-2.8
		c0-1.2-0.3-1.7-0.6-1.2l-1.8,2.1l0.8-8.5l2.2-2.5c0.4-0.4,0.7-1.6,0.7-2.8c0-1.2-0.3-1.7-0.6-1.2l-1.8,2.1l0.8-8.5l2.2-2.5
		c0.4-0.4,0.7-1.6,0.7-2.8s-0.3-1.7-0.6-1.2l-1.8,2.1l0.8-8.5l2.2-2.5c0.4-0.4,0.7-1.6,0.7-2.8c0-1.2-0.3-1.7-0.6-1.2l-1.8,2.1
		l0.8-8.5l2.2-2.5c0.4-0.4,0.7-1.6,0.7-2.8c0-1.2-0.3-1.7-0.6-1.2l-1.8,2.1l0.8-8.5l2.2-2.5c0.4-0.4,0.7-1.6,0.7-2.8
		c0-1.2-0.3-1.7-0.6-1.2l-1.8,2.1l0.8-8.5l2.2-2.5c0.4-0.4,0.7-1.6,0.7-2.8c0-1.2-0.3-1.7-0.6-1.2l-1.8,2.1l0.8-8.5l2.2-2.5
		c0.4-0.4,0.7-1.6,0.7-2.8c0-1.2-0.3-1.7-0.6-1.2l-1.8,2.1l0.8-8.5l2.2-2.5c0.4-0.4,0.7-1.6,0.7-2.8s-0.3-1.7-0.6-1.2l-1.8,2.1
		l0.8-8.5l2.2-2.5c0.4-0.4,0.7-1.6,0.7-2.8c0-1.2-0.3-1.7-0.6-1.2l-1.8,2.1l0.8-8.5l2.2-2.5c0.4-0.4,0.7-1.6,0.7-2.8
		c0-1.2-0.3-1.7-0.6-1.2l-1.8,2.1l0.8-8.5l2.2-2.5c0.4-0.4,0.7-1.6,0.7-2.8c0-1.2-0.3-1.7-0.6-1.2l-1.8,2.1l0.8-8.5l2.2-2.5
		c0.4-0.4,0.7-1.6,0.7-2.8c0-1.2-0.3-1.7-0.6-1.2l-1.8,2.1l0.8-8.5l2.2-2.5c0.4-0.4,0.7-1.6,0.7-2.8c0-1.2-0.3-1.7-0.6-1.2l-1.8,2
		l0.8-8.5l2.2-2.5c0.4-0.4,0.7-1.6,0.7-2.8s-0.3-1.7-0.6-1.2l-1.8,2.1l0.7-6.6l-3.2,0.7l0.5-5.5l-13.3,2.9l-0.5,5.5l-3.7,0.8
		l-2.9,28.7l-1.6,1.8c-0.4,0.4-0.7,1.6-0.7,2.8c0,1.2,0.3,1.7,0.6,1.2l1.2-1.4l-1,9.6l-1.6,1.8c-0.4,0.4-0.7,1.6-0.7,2.8
		c0,1.2,0.3,1.7,0.6,1.2l1.2-1.4l-0.8,8.5l-1.6,1.8c-0.4,0.4-0.7,1.6-0.7,2.8c0,1.2,0.3,1.7,0.6,1.2l1.2-1.4l-0.8,8.5l-1.6,1.8
		c-0.4,0.4-0.7,1.6-0.7,2.8c0,1.2,0.3,1.7,0.6,1.2l1.2-1.4l-0.8,8.5l-1.6,1.8c-0.4,0.4-0.7,1.6-0.7,2.8s0.3,1.7,0.6,1.2l1.2-1.4
		l-0.8,8.5l-1.6,1.8c-0.4,0.4-0.7,1.6-0.7,2.8c0,1.2,0.3,1.7,0.6,1.2l1.2-1.4l-0.8,8.5l-1.6,1.8c-0.4,0.4-0.7,1.6-0.7,2.8
		c0,1.2,0.3,1.7,0.6,1.2l1.2-1.4l-0.8,8.5l-1.6,1.8c-0.4,0.4-0.7,1.6-0.7,2.8c0,1.2,0.3,1.7,0.6,1.2l1.2-1.4l-0.8,8.5l-1.6,1.8
		c-0.4,0.4-0.7,1.6-0.7,2.8c0,1.2,0.3,1.7,0.6,1.2l1.2-1.4l-0.8,8.5l-1.6,1.8c-0.4,0.4-0.7,1.6-0.7,2.8c0,1.2,0.3,1.7,0.6,1.2
		l1.2-1.4l-0.8,8.5l-1.6,1.8c-0.4,0.4-0.7,1.6-0.7,2.8c0,1.2,0.3,1.7,0.6,1.2l1.2-1.4l-0.8,8.5l-1.6,1.8c-0.4,0.4-0.7,1.6-0.7,2.8
		c0,1.2,0.3,1.7,0.6,1.2l1.2-1.4l-0.8,8.5l-1.6,1.8c-0.4,0.4-0.7,1.6-0.7,2.8c0,1.2,0.3,1.7,0.6,1.2l1.2-1.4l-0.8,8.5l-1.6,1.8
		c-0.4,0.4-0.7,1.6-0.7,2.8c0,1.2,0.3,1.7,0.6,1.2l1.2-1.4l-0.8,8.5l-1.6,1.8c-0.4,0.4-0.7,1.6-0.7,2.8c0,1.2,0.3,1.7,0.6,1.2
		l1.2-1.4l-0.8,8.5l-1.6,1.8c-0.4,0.4-0.7,1.6-0.7,2.8c0,1.2,0.3,1.7,0.6,1.2l1.2-1.4l-0.8,8.5l-1.6,1.8c-0.4,0.4-0.7,1.6-0.7,2.8
		c0,1.2,0.3,1.7,0.6,1.2l1.2-1.4l-0.8,8.5l-1.6,1.8c-0.4,0.4-0.7,1.6-0.7,2.8c0,1.2,0.3,1.7,0.6,1.2l1.2-1.4l-1,9.6l-1.6,1.8
		c-0.4,0.4-0.7,1.6-0.7,2.8c0,1.2,0.3,1.7,0.6,1.2l1.2-1.4l-0.8,8.5l-1.6,1.8c-0.4,0.4-0.7,1.6-0.7,2.8c0,1.2,0.3,1.7,0.6,1.2
		l1.2-1.4l-0.8,8.5l-1.6,1.8c-0.4,0.4-0.7,1.6-0.7,2.8s0.3,1.7,0.6,1.2l1.2-1.4l-0.8,8.5l-1.6,1.8c-0.4,0.4-0.7,1.6-0.7,2.8
		s0.3,1.7,0.6,1.2l1.2-1.4l-0.8,8.5l-1.6,1.8c-0.4,0.4-0.7,1.6-0.7,2.8c0,1.2,0.3,1.7,0.6,1.2l1.2-1.4l-0.8,8.5l-1.6,1.8
		c-0.4,0.4-0.7,1.6-0.7,2.8s0.3,1.7,0.6,1.2l1.2-1.4l-0.8,8.5l-1.6,1.8c-0.4,0.4-0.7,1.6-0.7,2.8c0,1.2,0.3,1.7,0.6,1.2l1.2-1.4
		l-0.8,8.5l-1.6,1.8c-0.4,0.4-0.7,1.6-0.7,2.8c0,1.2,0.3,1.7,0.6,1.2l1.2-1.4l-0.8,8.5l-1.6,1.8c-0.4,0.4-0.7,1.6-0.7,2.8
		c0,1.2,0.3,1.7,0.6,1.2l1.2-1.4l-0.8,8.5l-1.6,1.8c-0.4,0.4-0.7,1.6-0.7,2.8c0,1.2,0.3,1.7,0.6,1.2l1.2-1.4l-0.8,8.5l-1.6,1.8
		c-0.4,0.4-0.7,1.6-0.7,2.8c0,1.2,0.3,1.7,0.6,1.2l1.2-1.4l-0.8,8.5l-1.6,1.8c-0.4,0.4-0.7,1.6-0.7,2.8c0,1.2,0.3,1.7,0.6,1.2
		l1.2-1.4l-0.8,8.5l-1.6,1.8c-0.4,0.4-0.7,1.6-0.7,2.8c0,1.2,0.3,1.7,0.6,1.2l1.2-1.4l-0.8,8.5l-1.6,1.8c-0.4,0.4-0.7,1.6-0.7,2.8
		c0,1.2,0.3,1.7,0.6,1.2l1.2-1.4l-0.8,8.5l-1.6,1.8c-0.4,0.4-0.7,1.6-0.7,2.8c0,1.2,0.3,1.7,0.6,1.2l1.2-1.4l-0.8,8.5l-1.6,1.8
		c-0.4,0.4-0.7,1.6-0.7,2.8s0.3,1.7,0.6,1.2l1.2-1.4l-0.8,8.5l-1.6,1.8c-0.4,0.4-0.7,1.6-0.7,2.8c0,1.2,0.3,1.7,0.6,1.2l1.2-1.4
		l-0.6,6.1l-1.6,1.8c-0.4,0.4-0.7,1.6-0.7,2.8c0,1.2,0.3,1.7,0.6,1.2l1.2-1.4l-0.8,8.5l-1.6,1.8c-0.4,0.4-0.7,1.6-0.7,2.8
		c0,1.2,0.3,1.7,0.6,1.2l1.2-1.4l-0.8,8.5l-1.6,1.8c-0.4,0.4-0.7,1.6-0.7,2.8c0,1.2,0.3,1.7,0.6,1.2l1.2-1.4l-0.8,8.5l-1.6,1.8
		c-0.4,0.4-0.7,1.6-0.7,2.8c0,1.2,0.3,1.7,0.6,1.2l1.2-1.4l-0.1,1.3L2248.2,122.2z"/>
	<rect x="1515.9" y="-7.3" transform="matrix(0.6625 -0.7491 0.7491 0.6625 479.7743 1153.5803)" width="8.2" height="103.5"/>
	<rect x="1654" y="94.5" width="309.1" height="41.2"/>
	<rect x="2293.4" y="42" transform="matrix(0.9749 0.2226 -0.2226 0.9749 78.5618 -519.1918)" width="99" height="93.9"/>
</g>
<rect x="1246.9" y="53.2" transform="matrix(0.9488 -0.316 0.316 0.9488 35.5382 408.1167)" width="58.6" height="82.5"/>
</svg>
