<?xml version="1.0" encoding="utf-8"?>
<!-- Generator: Adobe Illustrator 19.0.0, SVG Export Plug-In . SVG Version: 6.00 Build 0)  -->
<svg version="1.1" id="Calque_1" xmlns="http://www.w3.org/2000/svg" xmlns:xlink="http://www.w3.org/1999/xlink" x="0px" y="0px"
	 viewBox="0 0 550 482" style="enable-background:new 0 0 550 482;" xml:space="preserve">
<style type="text/css">
	.st0{fill:#FFFFFF;}
	.st1{fill:#FDFDFD;}
</style>
<g id="XMLID_18_">
	<path id="XMLID_44_" class="st0" d="M410.4,51.3L368,26.1c-29.5-17.5-71-2.7-92.2,33L219.4,154c8.1-0.1,18.9,0.4,27.1,2.7L279,102
		c21.2-35.7,62.7-50.5,92.2-33l0,0c29.5,17.5,36.3,61.1,15.1,96.8l-34.5,58.1c-21.2,35.7-62.7,50.5-92.2,33l0,0
		c-14.5-8.6-23.5-23.5-26.4-40.6c-7.1-4.1-21.5-9.9-39.7-3.9c-3,25.7,6.6,50.1,26.9,62.2l42.4,25.2c29.5,17.5,71,2.7,92.2-33
		L425.6,148C446.8,112.3,440,68.8,410.4,51.3z"/>
	<g id="XMLID_38_">
		<path id="XMLID_43_" class="st1" d="M411.7,49.1c-13.4-8-26.9-16-40.3-23.9c-20.3-12.1-44-11.1-64.5,0.1
			c-17.1,9.4-28.2,24.1-37.9,40.5c-9.6,16.2-19.2,32.3-28.8,48.5c-7.6,12.8-15.2,25.7-22.9,38.5c-1,1.6,0.3,3.8,2.2,3.8
			c8.9,0,17.8,0.3,26.4,2.6c1.1,0.3,2.3-0.2,2.8-1.1c11.1-18.7,21.9-37.5,33.3-56c11.7-18.9,31.1-34,53.5-37.3
			c20.8-3,41.4,6.1,52.2,24.4c11.9,20.3,10.5,46.3,0.8,67.1c-4.8,10.3-11.3,20-17.1,29.7c-15.8,26.7-29.8,58.2-60.3,70.8
			c-22.2,9.2-48.6,5.5-64-14.1c-4.3-5.4-7.4-11.7-9.5-18.3c-0.8-2.7-0.9-7.1-2.4-9.4c-1-1.6-3.6-2.4-5.2-3.1
			c-11.9-5.4-24.9-5.8-37.4-1.9c-1.1,0.4-1.7,1.3-1.8,2.4c-2.4,22.8,4.5,47.1,23.5,61.2c10.3,7.7,22.4,13.6,33.5,20.2
			c12.1,7.2,23.4,14.5,37.9,15.6c20.6,1.6,40.9-7.8,55.7-21.7c8.4-7.9,14.4-17.5,20.2-27.3c6.6-11.1,13.2-22.2,19.8-33.2
			c14.3-24.2,28.7-48.3,43-72.5c8.3-13.9,14.6-28.4,15.7-44.7C441.9,86.2,432.6,61.9,411.7,49.1c-2.8-1.7-5.3,2.6-2.5,4.3
			c19,11.6,27.3,33.6,26.1,55.2c-0.8,15-6.3,28.7-13.9,41.5c-12.8,21.5-25.6,43-38.3,64.5c-10.1,16.9-20,34-30.2,50.8
			c-11.2,18.5-29.1,33.4-50.6,37.9c-15.5,3.2-29.4-0.6-42.7-8.5c-12.3-7.3-24.6-14.5-36.8-21.9c-21.3-12.7-29.3-36.9-26.8-60.7
			c-0.6,0.8-1.2,1.6-1.8,2.4c7.6-2.4,15.5-3.3,23.4-1.8c3.5,0.7,11.6,2.2,13.6,5.2c0.5,0.7,0.5,3,0.8,3.9c0.4,1.7,0.9,3.4,1.5,5
			c0.9,2.8,2.1,5.5,3.3,8.1c2.5,5.2,5.8,10,9.8,14.2c14.6,15.5,36.7,20.3,56.9,15.1c21.5-5.5,39.3-20.8,50.6-39.5
			c6.1-10.2,12.2-20.5,18.2-30.7c5.9-10,12.2-19.9,17.8-30.1c11.3-20.5,15-46.2,6.4-68.4c-7.4-19.1-23.8-33.2-44.3-36.1
			c-21.4-3.1-43,6-58.6,20.3c-10.8,9.9-17.8,22.4-25.1,34.9c-7.5,12.6-15,25.2-22.4,37.8c-0.5,0.9-1.1,1.8-1.6,2.7
			c0.9-0.4,1.9-0.8,2.8-1.1c-9-2.4-18.4-2.9-27.7-2.8c0.7,1.3,1.4,2.5,2.2,3.8c15.8-26.6,31.6-53.2,47.4-79.8
			c8-13.4,15.4-26.8,27.5-37.1c19.5-16.5,47.6-23.3,70.6-9.9c14.1,8.2,28,16.6,42,25C411.9,55.1,414.5,50.8,411.7,49.1z"/>
	</g>
</g>
<g id="XMLID_11_">
	<path id="XMLID_36_" class="st0" d="M228.5,314.4l-53.5,39.7c-32.9,24.4-75.5,23.1-94.9-2.9l0,0c-19.3-26-8.3-67.3,24.6-91.7
		l53.5-39.7c32.9-24.4,75.5-23.1,94.9,2.9l0,0c5.6,7.5,8.6,16.4,9.3,25.7c9.5,5.5,26.5,12.8,41.8,6.2c0.8-12.3-2.1-24.2-9.4-34
		l-27.8-37.3c-19.3-26-62-27.3-94.9-2.9L63,261.7c-32.9,24.4-43.9,65.7-24.6,91.7l27.8,37.3c19.3,26,62,27.3,94.9,2.9l109.3-81.2
		c0.4-0.3,0.7-0.5,1-0.8c-8.4-2.5-19.5-6.3-28.3-10.6C238.9,305.8,234,310.3,228.5,314.4z"/>
	<g id="XMLID_31_">
		<path id="XMLID_35_" class="st1" d="M227.3,312.3c-17.4,12.9-34.8,25.9-52.3,38.8c-15.4,11.4-33.8,18.8-53.2,18
			c-19.9-0.8-39.1-11.6-45.9-31.1c-6.7-19.3-0.4-40.6,11-56.7c7.9-11.2,18.5-19.1,29.3-27.1c11.2-8.3,22.4-16.7,33.7-25
			c11.1-8.2,21.9-16.2,35.3-20.5c22.4-7.2,50.6-4.8,65.7,15.4c4,5.3,6.6,11.4,8,17.8c0.5,2.5,0.1,6.3,1.7,8.4
			c1.2,1.5,4.6,2.6,6.3,3.4c11.9,5.7,25.4,8.5,38,3.4c1.1-0.4,1.8-1.2,1.8-2.4c0.6-10.3-1.2-20.6-6.2-29.7
			c-2.1-3.8-4.8-7.3-7.4-10.8c-7.1-9.6-14.2-19.1-21.3-28.7c-7.5-10.1-16.4-17.9-28.7-21.9c-17.3-5.6-36.5-3.3-52.9,3.7
			c-16.9,7.2-31.6,20.2-46.3,31.1c-20.3,15.1-40.6,30.2-61,45.3c-15.2,11.3-31.6,21.9-42.6,37.7c-9.7,13.9-15.6,31.3-13.7,48.3
			c1.3,11.8,6.7,21.1,13.6,30.4c7,9.5,14.1,18.9,21.1,28.4c7.5,10.1,16.4,17.9,28.7,21.9c27.5,9,55.1-2.1,77.2-18.4
			c34-25.3,68-50.5,101.9-75.8c1.3-1,2.6-2,3.9-3c1.6-1.2,0.5-3.7-1.1-4.2c-9.4-2.9-18.8-6.1-27.7-10.3c-1-0.5-2.3-0.5-3,0.4
			C237.1,304,232.4,308.4,227.3,312.3c-2.5,1.9,0,6.3,2.5,4.3c5.5-4.2,10.5-8.7,15.1-13.9c-1,0.1-2,0.3-3,0.4
			c9.3,4.5,19,7.8,28.9,10.8c-0.4-1.4-0.7-2.8-1.1-4.2c-30.3,23.5-61.6,45.8-92.3,68.6c-16.1,12-31.5,24.4-51.8,28.7
			c-17.2,3.6-36.9,1.2-50.6-10.6c-7.3-6.3-12.7-15.2-18.4-22.9c-5.3-7.1-10.7-14.2-15.9-21.5c-9.7-13.4-11.2-30.1-6.7-45.8
			c4.9-17.1,16.3-31.9,30.4-42.5c3.6-2.7,7.2-5.4,10.8-8c32.4-24.1,64.8-48.3,97.3-72.3c24.4-18.1,63.5-27.7,87.9-4.1
			c6.7,6.5,11.9,14.9,17.4,22.3c5.3,7.2,11,14.2,16,21.6c6.4,9.3,8.7,20.2,8.1,31.4c0.6-0.8,1.2-1.6,1.8-2.4
			c-13.6,5.4-27.8,1-39.9-6c0.4,0.7,0.8,1.4,1.2,2.2c-1.9-20.9-14.7-38-34.6-45c-20-7.1-42.8-3.1-61.2,6.6
			c-10.3,5.4-19.5,13.1-28.7,20c-10.8,8-21.6,16-32.4,24c-12.1,9-22.9,19-30.3,32.3c-9,16.2-13,36.3-6.3,54.1
			c6.4,17,21.4,28.6,39,32.3c21.3,4.4,43.9-1.7,61.8-13.6c19.8-13.2,38.4-28.4,57.5-42.6C232.4,314.7,229.9,310.3,227.3,312.3z"/>
	</g>
</g>
<g id="XMLID_7_">
	<polygon id="XMLID_29_" class="st0" points="550,380.3 474.7,305 474.7,351.4 288,351.4 288,409.2 474.7,409.2 474.7,455.6 	"/>
	<g id="XMLID_24_">
		<path id="XMLID_28_" class="st1" d="M551.8,378.5c-21.9-21.9-43.9-43.9-65.8-65.8c-3.2-3.2-6.3-6.3-9.5-9.5
			c-1.5-1.5-4.3-0.4-4.3,1.8c0,15.5,0,30.9,0,46.4c0.8-0.8,1.7-1.7,2.5-2.5c-21,0-42,0-63,0c-33.5,0-67,0-100.5,0
			c-7.8,0-15.5,0-23.3,0c-1.4,0-2.5,1.1-2.5,2.5c0,19.3,0,38.5,0,57.8c0,1.4,1.1,2.5,2.5,2.5c21,0,42,0,63,0c33.5,0,67,0,100.5,0
			c7.8,0,15.5,0,23.3,0c-0.8-0.8-1.7-1.7-2.5-2.5c0,15.5,0,30.9,0,46.4c0,2.2,2.7,3.3,4.3,1.8c21.9-21.9,43.9-43.9,65.8-65.8
			c3.2-3.2,6.3-6.3,9.5-9.5c2.3-2.3-1.3-5.8-3.5-3.5c-21.9,21.9-43.9,43.9-65.8,65.8c-3.2,3.2-6.3,6.3-9.5,9.5
			c1.4,0.6,2.8,1.2,4.3,1.8c0-15.5,0-30.9,0-46.4c0-1.4-1.1-2.5-2.5-2.5c-21,0-42,0-63,0c-33.5,0-67,0-100.5,0c-7.8,0-15.5,0-23.3,0
			c0.8,0.8,1.7,1.7,2.5,2.5c0-19.3,0-38.5,0-57.8c-0.8,0.8-1.7,1.7-2.5,2.5c21,0,42,0,63,0c33.5,0,67,0,100.5,0c7.8,0,15.5,0,23.3,0
			c1.4,0,2.5-1.1,2.5-2.5c0-15.5,0-30.9,0-46.4c-1.4,0.6-2.8,1.2-4.3,1.8c21.9,21.9,43.9,43.9,65.8,65.8c3.2,3.2,6.3,6.3,9.5,9.5
			C550.5,384.3,554,380.8,551.8,378.5z"/>
	</g>
</g>
</svg>
