<?xml version="1.0" encoding="utf-8"?>
<!-- Generator: Adobe Illustrator 21.0.0, SVG Export Plug-In . SVG Version: 6.00 Build 0)  -->
<svg version="1.1" id="machine" xmlns="http://www.w3.org/2000/svg" xmlns:xlink="http://www.w3.org/1999/xlink" x="0px" y="0px"
	 viewBox="0 0 298.8 66" style="enable-background:new 0 0 298.8 66;" xml:space="preserve">
<style type="text/css">
	.st0{fill:#0F0F0F;}
</style>
<g>
	<g id="epaule">
		<polygon id="XMLID_3_" class="st0" points="242.2,55.8 244,30.6 242.8,30.6 240.9,55.8 		"/>
		<path id="XMLID_51_" class="st0" d="M259.1,56.1l1.9-25.1l-2.4,0l0,1.3c0,0.9-0.7,1.6-1.4,1.6l0,0c-0.7,0-1.3-0.7-1.2-1.6l0-1.3
			l-1.5,0l0,1.3c-0.1,0.9-0.7,1.6-1.4,1.6l0,0c-0.7,0-1.3-0.7-1.2-1.6l0-1.3l-1.5,0l0,1.3c0,0.9-0.7,1.6-1.4,1.6
			c-0.7,0-1.3-0.7-1.2-1.6l0-1.3l-2.3,0L243.5,56l2.3,0l0.1-1.2c0-0.9,0.7-1.6,1.4-1.6c0.7,0,1.3,0.7,1.2,1.6l-0.1,1.2l1.5,0
			l0.1-1.2c0.1-0.9,0.7-1.6,1.4-1.6l0,0c0.7,0,1.3,0.7,1.2,1.6l-0.1,1.2l1.5,0l0.1-1.2c0-0.9,0.7-1.6,1.4-1.6c0.7,0,1.3,0.7,1.2,1.6
			l-0.1,1.2L259.1,56.1z"/>
		<path id="XMLID_52_" class="st0" d="M296.9,37.4l-2.4,0l0.1-0.6c0-0.4-0.2-0.6-0.5-0.6c-0.3,0-0.5,0.3-0.6,0.6l-0.1,0.6l-1,0
			c-1.1,0-2.1,1-2.2,2.3l0,0.6l-24.4-0.5l0.2-1.6c0.1-1.3-0.7-2.5-1.9-2.5l-0.6,0l0.1-2.3c0.1-1.2-0.7-2.2-1.6-2.4L260,56
			c1-0.1,1.8-1.1,1.9-2.3l0.2-2.3l0.6,0c1.1,0,2.1-1,2.2-2.3l0.2-1.6l24.4,0.5l0,0.6c-0.1,1.3,0.7,2.5,1.9,2.5l1,0l-0.1,0.6
			c0,0.4,0.2,0.6,0.5,0.6c0.3,0,0.5-0.3,0.6-0.6l0.1-0.6l2.4,0c1.1,0,2.1-1,2.2-2.3l0.7-9C298.9,38.4,298.1,37.3,296.9,37.4z"/>
		<path id="XMLID_53_" class="st0" d="M239.8,55.6l1.9-25.1l-2.5,0c-1.1,0-2.1,1-2.2,2.3l-0.1,1.1c-4.1,0.6-7.5,3.9-7.7,8.2
			c-0.2,4.2,2.5,8,6.5,9l-0.2,2.1c-0.1,1.3,0.7,2.5,1.9,2.5L239.8,55.6z"/>
	</g>
	<path id="bras_x5F_haut_1_" class="st0" d="M235.7,38.5l-97.1-2.2l0.6-0.3c0.1-0.1,0.1-0.2,0-0.3l-0.3-0.6c-0.1-0.1-0.2-0.1-0.3,0
		l-1.5,0.8c-0.2-0.3-0.5-0.7-0.8-1l1.2-1.2c0.1-0.1,0.1-0.2,0-0.3l-0.5-0.5c-0.1-0.1-0.2-0.1-0.3,0l-1.2,1.2c-0.3-0.4-0.7-0.7-1.1-1
		l0.9-1.4c0.1-0.1,0-0.1,0-0.2l-0.5-0.4c-0.1-0.1-0.1,0-0.2,0l-0.9,1.4c-0.4-0.2-0.8-0.4-1.2-0.6l0.5-1.6c0,0,0-0.1-0.1-0.2
		l-0.7-0.2c0,0-0.1,0-0.2,0.1l-0.5,1.6c-0.5-0.2-1.2-0.2-1.7-0.3l0-1.8c0.1-0.1,0-0.1-0.1-0.2l-0.6,0c-0.1-0.1-0.1,0-0.2,0.1l0,1.8
		c-0.6,0-1.3,0.1-1.8,0.2l-0.5-1.6c-0.1-0.1-0.1-0.2-0.2-0.1l-0.7,0.1c-0.1,0.1-0.2,0.1-0.1,0.2l0.5,1.6c-0.4,0.2-0.8,0.3-1.1,0.5
		l-0.9-1.5c-0.1-0.1-0.2-0.1-0.3,0l-0.6,0.3c-0.1,0.1-0.1,0.2,0,0.3l0.9,1.5c-0.3,0.2-0.7,0.5-1,0.8l-1.2-1.2
		c-0.1-0.1-0.2-0.1-0.3,0l-0.5,0.5c-0.1,0.1-0.1,0.2,0,0.3l1.2,1.2c-0.3,0.4-0.7,0.8-1,1.2l-1.4-0.9c-0.1-0.1-0.1,0-0.2,0l-0.4,0.5
		c-0.1,0.1,0,0.1,0,0.2l1.4,0.9c-0.2,0.4-0.4,0.8-0.6,1.2l-1.6-0.5c0,0-0.1,0-0.2,0.1l-0.2,0.7c0,0,0,0.1,0.1,0.2l1.6,0.5
		c-0.1,0.6-0.2,1.1-0.2,1.7l-1.8,0c-0.1-0.1-0.1,0-0.2,0.1l0,0.6c-0.1,0.1,0,0.1,0.1,0.2l1.8,0c0,0.6,0,1.2,0.2,1.7l-1.7,0.4
		c-0.1,0.1-0.2,0.1-0.1,0.2L118,44c0.1,0.1,0.1,0.2,0.2,0.1l1.7-0.4c0.2,0.4,0.3,0.8,0.5,1.1l-1.5,0.9c-0.1,0.1-0.1,0.2,0,0.3
		l0.3,0.6c0.1,0.1,0.2,0.1,0.3,0l1.5-0.8c0.2,0.3,0.5,0.7,0.8,1l-1.2,1.2c-0.1,0.1-0.1,0.2,0,0.3l0.5,0.5c0.1,0.1,0.2,0.1,0.3,0
		l1.2-1.2c0.3,0.4,0.7,0.7,1.1,1l-0.9,1.4c-0.1,0.1,0,0.1,0,0.2l0.5,0.4c0.1,0.1,0.1,0,0.2,0l0.9-1.4c0.4,0.2,0.8,0.4,1.2,0.6
		l-0.5,1.6c0,0,0,0.1,0.1,0.2l0.7,0.2c0,0,0.1,0,0.2-0.1l0.5-1.6c0.5,0.2,1.2,0.2,1.7,0.3l0,1.8c-0.1,0.1,0,0.1,0.1,0.2l0.6,0
		c0.1,0.1,0.1,0,0.2-0.1l0-1.8c0.6,0,1.3-0.1,1.8-0.2l0.5,1.6c0.1,0.1,0.1,0.2,0.2,0.1l0.7-0.1c0.1-0.1,0.2-0.1,0.1-0.2l-0.5-1.6
		c0.4-0.2,0.8-0.3,1.1-0.5l0.9,1.5c0.1,0.1,0.2,0.1,0.3,0l0.6-0.3c0.1-0.1,0.1-0.2,0-0.3l-0.9-1.5c0.3-0.2,0.7-0.5,1-0.8l1.2,1.2
		c0.1,0.1,0.2,0.1,0.3,0l0.5-0.5c0.1-0.1,0.1-0.2,0-0.3l-1.2-1.2c0.3-0.4,0.7-0.8,1-1.2l1.4,0.9c0.1,0.1,0.1,0,0.2,0l0.4-0.5
		c0.1-0.1,0-0.1,0-0.2l-1.4-0.9c0.2-0.4,0.4-0.8,0.6-1.2l1.6,0.5c0,0,0.1,0,0.2-0.1l0.2-0.7l0,0l95.5,2.2c1.6-0.1,2.8-1.3,2.9-2.8
		l0-2.1C238.6,39.6,237.3,38.3,235.7,38.5z M132.7,35.9l-3.7-0.1c-1.6,0.1-2.8,1.3-2.9,2.8l0,2.1c0.1,1.6,1.3,2.8,2.8,2.9l5.5,0.1
		c-1.1,1.9-3.1,3.1-5.4,3.1c-3.3-0.1-6-2.8-5.9-6.2c0.1-3.3,2.8-6,6.2-5.9C130.5,34.8,131.7,35.2,132.7,35.9z"/>
	<path id="avant_x5F_bras" class="st0" d="M36.7,28.1c-6,5.3-6.4,14.4-1.2,20.3c5.3,6,14.4,6.4,20.3,1.2c1.9-1.7,3.2-3.7,4-5.9
		l68.1,1.4c2.4,1.3,5.3,1,7.4-0.8c2.6-2.4,2.9-6.5,0.5-9.1c-1.8-2-4.6-2.6-7-1.8c-0.5-0.5-1.1-0.8-1.9-0.8l-68.6-1.4
		c-0.4-0.6-0.8-1.3-1.3-1.8C51.7,23.4,42.5,23,36.7,28.1z M124.5,38c-0.1,0.4-0.1,0.8-0.1,1.3l-63.9-1.3c0.1-0.4,0-0.9-0.1-1.3
		L124.5,38z"/>
	<g id="pince_x5F_haut">
		<path id="XMLID_47_" class="st0" d="M14,12.1l18.5,6.1l3.3,6.3c-2.3,4-1.8,9.5,1.8,12.8c4.2,4,10.8,3.9,14.7-0.3
			c4-4.2,3.9-10.8-0.3-14.7c-1.7-1.7-3.9-2.7-6.1-2.9L40.4,9.1l-0.8,0.4l0.3-0.9L17.7,1.2L14,12.1z"/>
		<g id="XMLID_62_">
			<polygon id="XMLID_72_" class="st0" points="13.6,11.2 2.7,13.3 16.5,2.5 			"/>
			<g id="XMLID_65_">
				<path id="XMLID_70_" class="st0" d="M14.6,0.5C10,4.1,5.4,7.8,0.8,11.4c-2,1.7,0.1,4.7,2.3,4.3c3.6-0.7,7.3-1.4,10.9-2.1
					c0.9-0.1,1.6-0.9,1.9-1.7c1-2.9,1.9-5.9,2.9-8.8c1-3-3.7-4.5-4.8-1.5c-1,2.9-1.9,5.9-2.9,8.8c0.7-0.6,1.3-1.1,1.9-1.7
					c-3.6,0.7-7.3,1.4-10.9,2.1c0.9,1.4,1.6,2.8,2.3,4.3C9,11.6,13.6,7.9,18.2,4.3C20.8,2.3,17.2-1.3,14.6,0.5z"/>
			</g>
		</g>
	</g>
	<g id="pince_x5F_bas">
		<path id="XMLID_15_" class="st0" d="M20.3,56.7l1.7,7.4l15.9-5l-0.2-0.6l1.8-2.7c1.8,0.1,3.6-0.6,5.2-1.9c3.2-2.7,3.8-7.2,1.3-10
			c-1.3-1.5-3.3-2.2-5.3-2.1l-0.6-0.4l-0.3,0.4c-1.3,0.3-2.7,0.9-3.9,1.9c-2.5,2.1-3.3,5.3-2.5,8L32.7,53L20.3,56.7z"/>
		<g id="XMLID_60_">
			<polygon id="XMLID_77_" class="st0" points="19.1,57.4 11.7,56 20.4,63.5 			"/>
			<g id="XMLID_63_">
				<path id="XMLID_75_" class="st0" d="M22,61.4c-2.8-2.5-5.8-5-8.7-7.5c-0.7,1.5-1.3,2.9-2,4.4c2.4,0.4,4.9,1,7.4,1.4
					c-0.7-0.6-1.5-1.4-2.1-2.1c0.4,1.9,0.9,4,1.4,6c0.7,3.1,5.6,2.6,4.9-0.5c-0.4-1.9-0.9-4-1.4-6c-0.3-1.1-0.9-1.9-2.1-2.1
					c-2.4-0.4-4.9-1-7.4-1.4c-2.5-0.6-3.8,2.8-2,4.4c2.8,2.5,5.8,5,8.7,7.5C21.3,67.5,24.4,63.6,22,61.4z"/>
			</g>
		</g>
	</g>
</g>
</svg>
