<?xml version="1.0" encoding="utf-8"?>
<!-- Generator: Adobe Illustrator 21.0.0, SVG Export Plug-In . SVG Version: 6.00 Build 0)  -->
<svg version="1.1" id="machine" xmlns="http://www.w3.org/2000/svg" xmlns:xlink="http://www.w3.org/1999/xlink" x="0px" y="0px"
	 viewBox="0 0 299.4 65.9" style="enable-background:new 0 0 299.4 65.9;" xml:space="preserve">
<style type="text/css">
	.st0{fill:#0F0F0F;}
</style>
<g>
	<g id="epaule">
		<polygon id="XMLID_3_" class="st0" points="57.4,49.5 56.2,24.3 55.1,24.3 56.1,49.5 		"/>
		<path id="XMLID_51_" class="st0" d="M41.7,49.3l-0.1-1.2c0-0.9,0.5-1.6,1.3-1.6c0.8,0,1.4,0.8,1.4,1.6l0.1,1.2l1.5,0l-0.1-1.2
			c0-0.9,0.5-1.6,1.3-1.6l0,0c0.8,0,1.4,0.7,1.4,1.6l0.1,1.2l1.5,0l-0.1-1.2c0-0.9,0.5-1.6,1.3-1.6c0.8,0,1.4,0.8,1.4,1.6l0.1,1.2
			l2.3,0l-1.2-25.2l-2.3,0l0,1.3c0,0.9-0.5,1.6-1.3,1.6c-0.8,0-1.4-0.8-1.4-1.6l0-1.3l-1.5,0l0,1.3c0,0.9-0.5,1.6-1.3,1.6l0,0
			c-0.8,0-1.4-0.7-1.4-1.6l0-1.3l-1.5,0l0,1.3c0,0.9-0.5,1.6-1.3,1.6l0,0c-0.8,0-1.4-0.8-1.4-1.6l0-1.3l-2.4,0l1.2,25.2L41.7,49.3z"
			/>
		<path id="XMLID_52_" class="st0" d="M0,31.9l0.4,9.1c0.1,1.3,1,2.4,2.2,2.4l2.4,0l0.1,0.6c0,0.3,0.3,0.6,0.6,0.6
			c0.3,0,0.5-0.3,0.5-0.6l-0.1-0.6l1,0c1.1,0,2-1.1,1.9-2.4l0-0.6l24.4,0.2l0.1,1.6c0.1,1.3,1,2.4,2.2,2.4l0.6,0l0.1,2.3
			c0.1,1.2,0.8,2.2,1.8,2.4L37.2,24c-0.9,0.2-1.7,1.2-1.7,2.4l0,2.3l-0.6,0c-1.1,0-2,1.1-1.9,2.4l0.1,1.6L8.7,32.6l0-0.6
			c-0.1-1.3-1-2.4-2.2-2.4l-1,0l-0.1-0.6c0-0.3-0.3-0.6-0.6-0.6c-0.3,0-0.5,0.3-0.5,0.6l0.1,0.6l-2.4,0C0.8,29.4-0.1,30.5,0,31.9z"
			/>
		<path id="XMLID_53_" class="st0" d="M61,49.5c1.1,0,2-1.1,1.9-2.4L62.8,45c4-0.9,6.8-4.7,6.7-8.8c-0.1-4.3-3.4-7.7-7.5-8.4l0-1.1
			c-0.1-1.3-1-2.4-2.2-2.4l-2.5-0.1l1.2,25.2L61,49.5z"/>
	</g>
	<path id="bras_x5F_haut_1_" class="st0" d="M60.2,34.9l0,2.1c0,1.6,1.2,2.8,2.8,2.9l95.5,0.4l0,0l0.2,0.7c0,0.1,0.2,0.1,0.2,0.1
		l1.7-0.5c0.2,0.4,0.4,0.8,0.6,1.2l-1.5,0.9c-0.1,0.1-0.1,0.2,0,0.2l0.3,0.5c0.1,0.1,0.2,0.1,0.2,0l1.5-0.9c0.3,0.5,0.6,0.9,0.9,1.3
		l-1.2,1.2c-0.1,0.1,0,0.2,0,0.3l0.5,0.5c0.1,0.1,0.2,0,0.3,0l1.2-1.2c0.3,0.3,0.7,0.6,1,0.8l-0.9,1.5c-0.1,0.1,0,0.2,0,0.3l0.6,0.4
		c0.1,0.1,0.2,0,0.3,0l0.9-1.5c0.4,0.2,0.7,0.3,1.1,0.5l-0.5,1.6c-0.1,0.1,0,0.1,0.1,0.2l0.7,0.1c0.1,0.1,0.1,0,0.2-0.1l0.5-1.6
		c0.5,0.2,1.2,0.3,1.8,0.3l0,1.8c0,0.1,0.1,0.2,0.2,0.1l0.6,0c0.1,0,0.2-0.1,0.1-0.2l0-1.8c0.6-0.1,1.2-0.1,1.7-0.3l0.5,1.7
		c0,0.1,0.2,0.1,0.2,0.1l0.7-0.2c0.1,0,0.1-0.2,0.1-0.2l-0.5-1.7c0.4-0.2,0.8-0.4,1.2-0.6l0.9,1.5c0.1,0.1,0.2,0.1,0.2,0l0.5-0.3
		c0.1-0.1,0.1-0.2,0-0.2l-0.9-1.5c0.5-0.3,0.9-0.6,1.2-1l1.2,1.2c0.1,0.1,0.2,0,0.3,0l0.5-0.5c0.1-0.1,0-0.2,0-0.3l-1.2-1.2
		c0.3-0.3,0.6-0.7,0.8-1l1.5,0.8c0.1,0.1,0.2,0,0.3,0l0.4-0.6c0.1-0.1,0-0.2,0-0.3l-1.5-0.9c0.2-0.4,0.3-0.7,0.5-1.1l1.7,0.5
		c0.1,0.1,0.1,0,0.2-0.1l0.1-0.7c0.1-0.1,0-0.1-0.1-0.2l-1.7-0.5c0.2-0.5,0.2-1.1,0.2-1.7l1.8,0c0.1,0,0.2-0.1,0.1-0.2l0-0.6
		c0-0.1-0.1-0.2-0.2-0.1l-1.8,0c-0.1-0.6-0.1-1.1-0.2-1.7l1.7-0.5c0.1,0,0.1-0.2,0.1-0.2l-0.2-0.7c0-0.1-0.2-0.1-0.2-0.1l-1.7,0.5
		c-0.2-0.4-0.4-0.8-0.6-1.2l1.5-0.9c0.1-0.1,0.1-0.2,0-0.2l-0.3-0.5c-0.1-0.1-0.2-0.1-0.2,0l-1.5,0.9c-0.3-0.5-0.6-0.9-0.9-1.3
		L178,30c0.1-0.1,0-0.2,0-0.3l-0.5-0.5c-0.1-0.1-0.2,0-0.3,0l-1.2,1.2c-0.3-0.3-0.7-0.6-1-0.8l0.9-1.5c0.1-0.1,0-0.2,0-0.3l-0.6-0.4
		c-0.1-0.1-0.2,0-0.3,0L174,29c-0.4-0.2-0.7-0.3-1.1-0.5l0.5-1.6c0.1-0.1,0-0.1-0.1-0.2l-0.7-0.1c-0.1-0.1-0.1,0-0.2,0.1l-0.5,1.6
		c-0.5-0.2-1.2-0.3-1.8-0.3l0-1.8c0-0.1-0.1-0.2-0.2-0.1l-0.6,0c-0.1,0-0.2,0.1-0.1,0.2l0,1.8c-0.6,0.1-1.2,0.1-1.7,0.3l-0.5-1.7
		c0-0.1-0.2-0.1-0.2-0.1l-0.7,0.2c-0.1,0-0.1,0.2-0.1,0.2l0.5,1.7c-0.4,0.2-0.8,0.4-1.2,0.6l-0.9-1.5c-0.1-0.1-0.2-0.1-0.2,0
		l-0.5,0.3c-0.1,0.1-0.1,0.2,0,0.2l0.9,1.5c-0.5,0.3-0.9,0.6-1.2,1l-1.2-1.2c-0.1-0.1-0.2,0-0.3,0l-0.5,0.5c-0.1,0.1,0,0.2,0,0.3
		l1.2,1.2c-0.3,0.3-0.6,0.7-0.8,1l-1.5-0.8c-0.1-0.1-0.2,0-0.3,0l-0.4,0.6c-0.1,0.1,0,0.2,0,0.3l0.6,0.4l-97.2-0.5
		C61.5,32.1,60.2,33.4,60.2,34.9z M169.7,31.6c3.3,0,6,2.8,6,6.1c0,3.3-2.8,6-6.1,6c-2.3,0-4.3-1.3-5.3-3.3l5.5,0
		c1.6,0,2.8-1.2,2.9-2.8l0-2.1c0-1.6-1.2-2.8-2.8-2.9l-3.7,0C167.2,32,168.4,31.6,169.7,31.6z"/>
	<path id="avant_x5F_bras" class="st0" d="M242.1,28.2c-0.5,0.5-0.9,1.2-1.4,1.7l-68.6-0.6c-0.8,0-1.4,0.3-1.9,0.8
		c-2.4-0.9-5.2-0.3-7.1,1.6c-2.5,2.6-2.3,6.7,0.2,9.2c2.1,1.9,4.9,2.3,7.4,1l68.1,0.5c0.7,2.2,2,4.3,3.8,6
		c5.8,5.4,14.9,5.3,20.4-0.6c5.4-5.8,5.3-14.9-0.6-20.4C256.7,22.2,247.5,22.4,242.1,28.2z M238.4,35.5c-0.1,0.4-0.2,0.9-0.1,1.3
		l-63.9-0.5c0-0.5,0-0.9-0.1-1.3L238.4,35.5z"/>
	<g id="pince_x5F_haut">
		<path id="XMLID_47_" class="st0" d="M282.1,1.2l-22.3,6.7l0.3,0.9l-0.8-0.4l-5.8,10.3c-2.2,0.1-4.4,1-6.2,2.7
			c-4.2,3.9-4.6,10.4-0.7,14.7c3.9,4.2,10.4,4.6,14.7,0.7c3.7-3.3,4.4-8.7,2.1-12.8l3.5-6.2l18.6-5.5L282.1,1.2z"/>
		<g id="XMLID_62_">
			<polygon id="XMLID_72_" class="st0" points="283.3,2.5 296.8,13.7 285.9,11.3 			"/>
			<g id="XMLID_65_">
				<path id="XMLID_70_" class="st0" d="M281.5,4.2c4.5,3.8,9,7.5,13.5,11.3c0.8-1.4,1.6-2.8,2.5-4.2c-3.6-0.8-7.2-1.6-10.8-2.4
					c0.6,0.6,1.2,1.1,1.8,1.7c-0.9-2.9-1.7-5.9-2.6-8.9c-1-3-5.8-1.7-4.8,1.3c0.9,2.9,1.7,5.9,2.6,8.9c0.2,0.8,0.9,1.6,1.8,1.7
					c3.6,0.8,7.2,1.6,10.8,2.4c2.2,0.5,4.4-2.5,2.5-4.2c-4.5-3.8-9-7.5-13.5-11.3C282.6-1.4,279,2.2,281.5,4.2z"/>
			</g>
		</g>
	</g>
	<g id="pince_x5F_bas">
		<path id="XMLID_15_" class="st0" d="M265.7,52.5l-0.8-1.3c1-2.7,0.2-5.9-2.2-8.1c-1.2-1-2.5-1.7-3.8-2l-0.3-0.4l-0.6,0.4
			c-2-0.1-4,0.6-5.3,2c-2.5,2.8-2.1,7.2,1,10.1c1.6,1.4,3.3,2.1,5.2,2.1l1.7,2.8l-0.2,0.6L276,64l1.9-7.4L265.7,52.5z"/>
		<g id="XMLID_60_">
			<polygon id="XMLID_77_" class="st0" points="277.6,63.3 286.5,56.1 279.1,57.3 			"/>
			<g id="XMLID_63_">
				<path id="XMLID_75_" class="st0" d="M279.2,65.3c3-2.4,6-4.9,8.9-7.2c1.9-1.5,0.7-4.9-1.8-4.4c-2.4,0.4-4.9,0.9-7.4,1.2
					c-1.2,0.2-1.9,1-2.2,2.1c-0.5,1.9-1.1,4-1.6,5.9c-0.8,3.1,4.2,3.8,4.9,0.7c0.5-1.9,1.1-4,1.6-5.9c-0.7,0.7-1.5,1.5-2.2,2.1
					c2.4-0.4,4.9-0.9,7.4-1.2c-0.6-1.5-1.2-3-1.8-4.4c-3,2.4-6,4.9-8.9,7.2C273.6,63.4,276.6,67.3,279.2,65.3z"/>
			</g>
		</g>
	</g>
</g>
</svg>
