<?xml version="1.0" encoding="utf-8"?>
<!-- Generator: Adobe Illustrator 19.0.0, SVG Export Plug-In . SVG Version: 6.00 Build 0)  -->
<svg version="1.1" id="tige_tige-right" xmlns="http://www.w3.org/2000/svg" xmlns:xlink="http://www.w3.org/1999/xlink" x="0px"
	 y="0px" viewBox="-147 388 299.4 65.9" style="enable-background:new -147 388 299.4 65.9;" xml:space="preserve">
<style type="text/css">
	.st0{fill:#0F0F0F;}
</style>
<polygon id="XMLID_3_" class="st0" points="96.3,437.5 97.4,412.3 96.2,412.3 95,437.5 "/>
<path id="XMLID_51_" class="st0" d="M113.2,437.3l1.2-25.2H112v1.3c0,0.9-0.6,1.6-1.4,1.6l0,0c-0.7,0.1-1.3-0.6-1.3-1.6v-1.3h-1.5
	v1.3c0,0.9-0.6,1.6-1.4,1.6l0,0c-0.7,0.1-1.3-0.6-1.3-1.6v-1.3h-1.5v1.3c0,0.9-0.6,1.6-1.4,1.6c-0.7,0.1-1.3-0.6-1.3-1.6v-1.3h-2.3
	l-1.2,25.2h2.3l0.1-1.2c0-0.9,0.6-1.6,1.4-1.6c0.7-0.1,1.3,0.6,1.3,1.6l-0.1,1.2h1.5l0.1-1.2c0-0.9,0.6-1.6,1.4-1.6l0,0
	c0.7-0.1,1.3,0.6,1.3,1.6l-0.1,1.2h1.5l0.1-1.2c0-0.9,0.6-1.6,1.4-1.6c0.7-0.1,1.3,0.6,1.3,1.6l-0.1,1.2H113.2z"/>
<path id="XMLID_52_" class="st0" d="M150.4,417.5H148l0.1-0.6c0-0.4-0.2-0.6-0.5-0.6s-0.5,0.3-0.6,0.6l-0.1,0.6h-1
	c-1.1,0-2.1,1-2.2,2.4v0.6l-24.4,0.2l0.1-1.6c0.1-1.3-0.8-2.4-1.9-2.4h-0.6v-2.3c0.1-1.2-0.8-2.2-1.7-2.4l-1.1,25.1
	c1-0.2,1.8-1.2,1.8-2.4l0.1-2.3h0.6c1.1,0,2.1-1,2.2-2.4l0.1-1.6l24.4-0.2v0.6c-0.1,1.3,0.8,2.4,1.9,2.4h1l-0.1,0.6
	c0,0.4,0.2,0.6,0.5,0.6s0.5-0.3,0.6-0.6l0.1-0.6h2.4c1.1,0,2.1-1,2.2-2.4l0.4-9.1C152.5,418.5,151.6,417.4,150.4,417.5z"/>
<path id="XMLID_53_" class="st0" d="M93.9,437.3l1.2-25.2l-2.5,0.1c-1.1,0-2.1,1-2.2,2.4v1.1c-4.1,0.7-7.4,4.1-7.5,8.4
	c-0.1,4.2,2.8,7.9,6.7,8.8l-0.1,2.1c-0.1,1.3,0.8,2.4,1.9,2.4L93.9,437.3z"/>
<path id="bras_x5F_haut_1_" class="st0" d="M89.4,420.3l-97.2,0.5l0.6-0.4c0.1-0.1,0.1-0.2,0-0.3l-0.4-0.6c-0.1-0.1-0.2-0.1-0.3,0
	l-1.5,0.8c-0.3-0.3-0.6-0.7-0.8-1l1.2-1.2c0.1-0.1,0.1-0.2,0-0.3l-0.5-0.5c-0.1-0.1-0.2-0.1-0.3,0l-1.2,1.2c-0.3-0.4-0.7-0.7-1.2-1
	l0.9-1.5c0.1-0.1,0-0.1,0-0.2l-0.5-0.3c-0.1-0.1-0.1,0-0.2,0l-0.9,1.5c-0.4-0.2-0.8-0.4-1.2-0.6l0.5-1.7c0,0,0-0.1-0.1-0.2l-0.7-0.2
	c0,0-0.1,0-0.2,0.1l-0.5,1.7c-0.5-0.2-1.2-0.2-1.7-0.3V414c0.1-0.1,0-0.1-0.1-0.2h-0.6c-0.1-0.1-0.1,0-0.2,0.1v1.8
	c-0.6,0-1.3,0.1-1.8,0.3l-0.5-1.6c-0.1-0.1-0.1-0.2-0.2-0.1l-0.7,0.1c-0.1,0.1-0.2,0.1-0.1,0.2l0.5,1.6c-0.4,0.2-0.7,0.3-1.1,0.5
	l-0.9-1.5c-0.1-0.1-0.2-0.1-0.3,0l-0.6,0.4c-0.1,0.1-0.1,0.2,0,0.3l0.9,1.5c-0.3,0.3-0.7,0.6-1,0.8l-1.2-1.2c-0.1-0.1-0.2-0.1-0.3,0
	l-0.5,0.5c-0.1,0.1-0.1,0.2,0,0.3l1.2,1.2c-0.3,0.4-0.7,0.8-0.9,1.3l-1.5-0.9c-0.1-0.1-0.1,0-0.2,0l-0.3,0.5c-0.1,0.1,0,0.1,0,0.2
	l1.5,0.9c-0.2,0.4-0.4,0.8-0.6,1.2L-28,422c0,0-0.1,0-0.2,0.1l-0.2,0.7c0,0,0,0.1,0.1,0.2l1.7,0.5c-0.1,0.6-0.1,1.1-0.2,1.7h-1.8
	c-0.1-0.1-0.1,0-0.2,0.1v0.6c-0.1,0.1,0,0.1,0.1,0.2h1.8c0,0.6,0.1,1.2,0.2,1.7l-1.7,0.5c-0.1,0.1-0.2,0.1-0.1,0.2l0.1,0.7
	c0.1,0.1,0.1,0.2,0.2,0.1l1.7-0.5c0.2,0.4,0.3,0.7,0.5,1.1l-1.5,0.9c-0.1,0.1-0.1,0.2,0,0.3l0.4,0.6c0.1,0.1,0.2,0.1,0.3,0l1.5-0.8
	c0.3,0.3,0.6,0.7,0.8,1l-1.2,1.2c-0.1,0.1-0.1,0.2,0,0.3l0.5,0.5c0.1,0.1,0.2,0.1,0.3,0l1.2-1.2c0.3,0.4,0.7,0.7,1.2,1l-0.9,1.5
	c-0.1,0.1,0,0.1,0,0.2l0.5,0.3c0.1,0.1,0.1,0,0.2,0l0.9-1.5c0.4,0.2,0.8,0.4,1.2,0.6l-0.5,1.7c0,0,0,0.1,0.1,0.2l0.7,0.2
	c0,0,0.1,0,0.2-0.1l0.5-1.7c0.5,0.2,1.2,0.2,1.7,0.3v1.8c-0.1,0.1,0,0.1,0.1,0.2h0.6c0.1,0.1,0.1,0,0.2-0.1v-1.8
	c0.6,0,1.3-0.1,1.8-0.3l0.5,1.6c0.1,0.1,0.1,0.2,0.2,0.1l0.7-0.1c0.1-0.1,0.2-0.1,0.1-0.2l-0.5-1.6c0.4-0.2,0.7-0.3,1.1-0.5l0.9,1.5
	c0.1,0.1,0.2,0.1,0.3,0l0.6-0.4c0.1-0.1,0.1-0.2,0-0.3l-0.9-1.5c0.3-0.3,0.7-0.6,1-0.8l1.2,1.2c0.1,0.1,0.2,0.1,0.3,0l0.5-0.5
	c0.1-0.1,0.1-0.2,0-0.3l-1.2-1.2c0.3-0.4,0.7-0.8,0.9-1.3l1.5,0.9c0.1,0.1,0.1,0,0.2,0l0.3-0.5c0.1-0.1,0-0.1,0-0.2l-1.5-0.9
	c0.2-0.4,0.4-0.8,0.6-1.2l1.7,0.5c0,0,0.1,0,0.2-0.1l0.2-0.7l0,0l95.5-0.4c1.6-0.1,2.8-1.3,2.8-2.9v-2.1
	C92.2,421.4,91,420.1,89.4,420.3z M-13.7,420.6h-3.7c-1.6,0.1-2.8,1.3-2.8,2.9v2.1c0.1,1.6,1.3,2.8,2.9,2.8h5.5
	c-1,2-3.1,3.2-5.3,3.3c-3.3,0-6.1-2.7-6.1-6s2.7-6.1,6-6.1C-16,419.6-14.7,420-13.7,420.6z"/>
<path id="avant_x5F_bras" class="st0" d="M-109.9,415.6c-5.9,5.5-6,14.6-0.6,20.4c5.5,5.9,14.6,6,20.4,0.6c1.8-1.7,3.1-3.8,3.8-6
	l68.1-0.5c2.4,1.3,5.3,0.9,7.4-1c2.5-2.4,2.7-6.5,0.2-9.2c-1.8-2-4.7-2.5-7.1-1.6c-0.5-0.5-1.1-0.8-1.9-0.8l-68.6,0.6
	c-0.4-0.5-0.9-1.2-1.4-1.7C-95.1,410.4-104.2,410.2-109.9,415.6z M-21.8,423c0,0.4-0.1,0.8-0.1,1.3l-63.9,0.5c0-0.4,0-0.9-0.1-1.3
	L-21.8,423z"/>
<path id="XMLID_47_" class="st0" d="M-132.6,408.5l19.4-0.1l5.1,4.9c-0.9,4.6,1.3,9.5,5.7,11.7c5.2,2.5,11.5,0.3,13.9-4.9
	c2.5-5.2,0.3-11.5-4.9-13.9c-2.2-1.1-4.6-1.3-6.7-0.8l-8.4-8.1l-0.7,0.6l0-0.9l-23.4,0L-132.6,408.5z"/>
<polygon id="XMLID_72_" class="st0" points="-133.3,407.7 -143,413.1 -133.2,398.5 "/>
<g id="XMLID_65_">
	<path id="XMLID_70_" class="st0" d="M-135.7,397.3c-3.2,4.9-6.5,9.8-9.7,14.7c-1.3,2.2,1.5,4.4,3.6,3.3c3.2-1.8,6.4-3.6,9.7-5.4
		c0.8-0.4,1.3-1.3,1.2-2.1c0-3.1,0-6.3,0-9.4c0.1-3.2-4.9-3.1-5,0.1c0,3,0.1,6.1,0.1,9.3c0.5-0.8,0.8-1.5,1.2-2.1
		c-3.2,1.8-6.4,3.6-9.7,5.4c1.3,1.1,2.4,2.2,3.6,3.3c3.2-4.8,6.4-9.7,9.6-14.7C-129.3,397-133.8,394.6-135.7,397.3z"/>
</g>
<path id="XMLID_15_" class="st0" d="M-127.6,440.6l-0.5,7.6l16.7-0.1l0-0.6l2.5-2.1c1.7,0.6,3.6,0.5,5.6-0.4
	c3.8-1.7,5.7-5.8,4.1-9.3c-0.9-1.8-2.5-3-4.4-3.6l-0.4-0.6l-0.4,0.3c-1.3-0.1-2.9,0.1-4.2,0.7c-2.9,1.2-4.7,4.1-4.6,7l-1.2,1
	L-127.6,440.6z"/>
<polygon id="XMLID_77_" class="st0" points="-128.9,440.9 -135.6,437.4 -129.4,447 "/>
<g id="XMLID_63_">
	<path id="XMLID_75_" class="st0" d="M-127.4,445.6c-2-3.2-4.1-6.4-6.2-9.6c-1,1.2-2.1,2.5-3.1,3.6c2.2,1.1,4.4,2.4,6.6,3.5
		c-0.5-0.8-1-1.8-1.4-2.7c-0.1,2-0.2,4.1-0.3,6.1c-0.2,3.2,4.6,4.2,4.9,0.9c0.1-2,0.2-4.1,0.3-6.1c0.1-1.1-0.3-2.1-1.4-2.7
		c-2.2-1.1-4.4-2.4-6.6-3.5c-2.2-1.3-4.4,1.6-3.1,3.6c2,3.2,4.1,6.4,6.2,9.6C-129.7,451.2-125.6,448.4-127.4,445.6z"/>
</g>
</svg>
