<?xml version="1.0" encoding="utf-8"?>
<!-- Generator: Adobe Illustrator 21.0.0, SVG Export Plug-In . SVG Version: 6.00 Build 0)  -->
<svg version="1.1" id="manche_d" xmlns="http://www.w3.org/2000/svg" xmlns:xlink="http://www.w3.org/1999/xlink" x="0px" y="0px"
	 viewBox="0 0 850.4 103.7" style="enable-background:new 0 0 850.4 103.7;" xml:space="preserve">
<style type="text/css">
	.st0{fill:none;stroke:#000000;stroke-width:9;stroke-miterlimit:10;}
</style>
<g>
	<path class="st0" d="M763.5,64.7c-28,12.6-60.4,19.6-88.3,6.9c-10.8-5-20.4-12.6-30.5-18.8c-20.3-12.4-43-19.2-65.4-25.9
		c-6.3-1.9-12.8-3.8-19.3-2.5c-12.3,2.3-20.1,15-28.3,25.1c-17.7,22.2-43.4,36.9-70.4,40.2c-11.6,1.5-23.5,0.8-34.3-3.7
		c-16.5-7.1-28.4-22.5-41.3-35.7c-11.8-12-25.1-28.4-41.3-27.2c-20.9,1.4-34.1-1.7-45.9,10.5c-4.6,4.8-8,10.6-11.7,16.3
		c-14.7,23.3-35,45.8-61,49c-31.4,3.7-59.2-22.1-77.3-50.1c-8.2-12.7-19.3-23.4-33.6-24.7c-16.4-1.6-26.7,11.7-41.9,19
		C58.2,50.2,41,47,25.3,43.4"/>
	<g>
		<rect y="26.8" width="679.6" height="23.1"/>
		<rect x="832.7" y="0.2" width="3.1" height="76.4"/>
		<path d="M781.5,7.5v7h-1.6c-2.9,0-5.4,3.3-5.4,7.4v4.9h-63.7v-2c0-4-2.4-7.4-5.4-7.4h-2.6v-1.7c0-1-0.6-1.8-1.4-1.8
			c-0.8,0-1.4,0.8-1.4,1.8v1.7h-6.4c-2.9,0-5.4,3.3-5.4,7.4V52c0,4,2.4,7.4,5.4,7.4h6.4V61c0,1,0.6,1.8,1.4,1.8
			c0.8,0,1.4-0.8,1.4-1.8v-1.7h2.6c2.9,0,5.4-3.3,5.4-7.4v-2H752c-3.3,5.7-2,13.2,3.1,17.1l7.2,5.5c5.3,4,12.6,2.6,16.3-3.1l2.7-4.2
			v3.9c0,3.6,2,6.7,4.5,7.2V0.2C783.4,0.8,781.5,3.9,781.5,7.5z"/>
		<path d="M845,0h-6.6v76.5h6.6c2.9,0,5.4-3.3,5.4-7.4V7.4C850.4,3.4,847.9,0,845,0z"/>
		<path d="M823.9,9.8c0,2.2-1.6,4-3.5,4s-3.5-1.8-3.5-4V6.5h-4v3.3c0,2.2-1.6,4-3.5,4s-3.5-1.8-3.5-4V6.5h-4v3.3c0,2.2-1.6,4-3.5,4
			c-2,0-3.5-1.8-3.5-4V6.5h-5.8v63.4h5.8v-3.1c0-2.2,1.6-4,3.5-4c2,0,3.5,1.8,3.5,4v3.1h4v-3.1c0-2.2,1.6-4,3.5-4s3.5,1.8,3.5,4v3.1
			h4v-3.1c0-2.2,1.6-4,3.5-4s3.5,1.8,3.5,4v3.1h6.2V6.5h-6.2V9.8z"/>
	</g>
</g>
</svg>
