<?xml version="1.0" encoding="utf-8"?>
<!-- Generator: Adobe Illustrator 19.0.0, SVG Export Plug-In . SVG Version: 6.00 Build 0)  -->
<svg version="1.1" id="manche_g" xmlns="http://www.w3.org/2000/svg" xmlns:xlink="http://www.w3.org/1999/xlink" x="0px" y="0px"
	 viewBox="401 -42.3 883.4 176.3" style="enable-background:new 401 -42.3 883.4 176.3;" xml:space="preserve">
<style type="text/css">
	.st0{fill:none;stroke:#000000;stroke-width:6;stroke-miterlimit:10;}
</style>
<g>
	<path d="M455.4-19.7v58.3c0,3.9,2.6,7,5.7,7h6.9v-72.3H461C457.9-26.7,455.4-23.6,455.4-19.7z"/>
	<rect x="470.8" y="-26.7" width="3.3" height="72.3"/>
	<path d="M513.4-13.4c0,1.8-1.7,3.2-3.7,3.2c-2.1,0-3.7-1.5-3.7-3.2V-16h-4.2v2.6c0,1.8-1.7,3.2-3.7,3.2c-2.1,0-3.7-1.5-3.7-3.2V-16
		H490v2.6c0,1.8-1.7,3.2-3.7,3.2c-2.1,0-3.7-1.5-3.7-3.2V-16h-6.1v50.8h6.1v-2.5c0-1.8,1.7-3.2,3.7-3.2c2.1,0,3.7,1.5,3.7,3.2v2.5
		h4.2v-2.5c0-1.8,1.7-3.2,3.7-3.2c2.1,0,3.7,1.5,3.7,3.2v2.5h4.2v-2.5c0-1.8,1.7-3.2,3.7-3.2c2.1,0,3.7,1.5,3.7,3.2v2.5h6.5V-16
		h-6.5V-13.4z"/>
	<path class="st0" d="M554.3,33.1c36.6,13.2,36,59.1,65.7,82.7c20.5,16.3,52.6,16,76.4,4s40.3-33.5,51.3-56.2
		c7.3-15.1,13-31.4,25.8-43.1C787.2,8,806.7,3.1,825.3-1.4C835.8-4,847-6.5,857.4-3.7c12.9,3.5,21.5,14.2,30.9,23
		c20.4,19,53.7,30.7,78.7,17c19.9-10.9,17.8-41.3,51.5-41.7c18.8,3.8-1.3,18.6,6.8,25.7c8.1,7.1,22.7,14.5,27.1,5.1
		c2-4.3-10.2-22.3-10.1-27s28.2-2.5,37.2,0c44.6,10.8,74.7,41.4,120.8,34.2s88.8-27.2,134.4-36.8c24-5.1,43,0.9,65.1,10.7"/>
	<g>
		<path d="M631.8-2.8c0-3.2-2.7-6-5.8-6h-7v-1.4c0-0.8-0.6-1.5-1.5-1.5c-0.7,0-1.5,0.7-1.5,1.5v1.5h-2.9c-3.2,0-5.8,2.7-5.8,6v1.6
			h-69.1v-3.9c0-3.2-2.7-6-5.8-6h-1.7v-5.6c0-3-2.1-5.4-4.9-5.9v61.7c2.8-0.5,4.9-2.9,4.9-5.8v-3.2l3.1,3.4c4,4.6,12,5.7,17.7,2.5
			l2.6-1.5l7.7-4.8c3.5-3.3,4.1-8.3,1.1-12.1h44.6v1.6c0,3.2,2.7,6,5.8,6h2.9v1.4c0,0.8,0.6,1.5,1.5,1.5c0.7,0,1.5-0.7,1.5-1.5v-1.4
			h6.9c3.2,0,5.8-2.7,5.8-6v-1.7V-1.1h0V-2.8z"/>
		<path d="M1383.4-1.1h-76.1v-8c0-5.6-5.7-10.3-12.8-10.3h-27.4c-7,0-12.8,4.6-12.8,10.3v8h-108H1042H914.4h-73.7h-196v18.6h171.1
			l12,0.1H927h12.9h81.9h10.7h221.9v14.7c0,5.6,5.7,10.3,12.8,10.3h27.4c7,0,12.8-4.6,12.8-10.3V17.6h76.1V-1.1z"/>
	</g>
</g>
<rect x="401" y="-22.6" width="60.7" height="65.2"/>
</svg>
