<?xml version="1.0" encoding="utf-8"?>
<!-- Generator: Adobe Illustrator 19.0.0, SVG Export Plug-In . SVG Version: 6.00 Build 0)  -->
<svg version="1.1" id="machine" xmlns="http://www.w3.org/2000/svg" xmlns:xlink="http://www.w3.org/1999/xlink" x="0px" y="0px"
	 viewBox="-147 388 299.4 65.9" style="enable-background:new -147 388 299.4 65.9;" xml:space="preserve">
<style type="text/css">
	.st0{fill:#0F0F0F;}
</style>
<polygon id="XMLID_3_" class="st0" points="-89.6,437.5 -90.8,412.3 -91.9,412.3 -90.9,437.5 "/>
<path id="XMLID_51_" class="st0" d="M-105.3,437.3l-0.1-1.2c0-0.9,0.5-1.6,1.3-1.6s1.4,0.8,1.4,1.6l0.1,1.2h1.5l-0.1-1.2
	c0-0.9,0.5-1.6,1.3-1.6l0,0c0.8,0,1.4,0.7,1.4,1.6l0.1,1.2h1.5l-0.1-1.2c0-0.9,0.5-1.6,1.3-1.6s1.4,0.8,1.4,1.6l0.1,1.2h2.3
	l-1.2-25.2h-2.3v1.3c0,0.9-0.5,1.6-1.3,1.6s-1.4-0.8-1.4-1.6v-1.3h-1.5v1.3c0,0.9-0.5,1.6-1.3,1.6l0,0c-0.8,0-1.4-0.7-1.4-1.6v-1.3
	h-1.5v1.3c0,0.9-0.5,1.6-1.3,1.6l0,0c-0.8,0-1.4-0.8-1.4-1.6v-1.3h-2.4l1.2,25.2H-105.3z"/>
<path id="XMLID_52_" class="st0" d="M-147,419.9l0.4,9.1c0.1,1.3,1,2.4,2.2,2.4h2.4l0.1,0.6c0,0.3,0.3,0.6,0.6,0.6s0.5-0.3,0.5-0.6
	l-0.1-0.6h1c1.1,0,2-1.1,1.9-2.4v-0.6l24.4,0.2l0.1,1.6c0.1,1.3,1,2.4,2.2,2.4h0.6l0.1,2.3c0.1,1.2,0.8,2.2,1.8,2.4l-1-25.3
	c-0.9,0.2-1.7,1.2-1.7,2.4v2.3h-0.6c-1.1,0-2,1.1-1.9,2.4l0.1,1.6l-24.4-0.1V420c-0.1-1.3-1-2.4-2.2-2.4h-1l-0.1-0.6
	c0-0.3-0.3-0.6-0.6-0.6s-0.5,0.3-0.5,0.6l0.1,0.6h-2.4C-146.2,417.4-147.1,418.5-147,419.9z"/>
<path id="XMLID_53_" class="st0" d="M-86,437.5c1.1,0,2-1.1,1.9-2.4l-0.1-2.1c4-0.9,6.8-4.7,6.7-8.8c-0.1-4.3-3.4-7.7-7.5-8.4v-1.1
	c-0.1-1.3-1-2.4-2.2-2.4l-2.5-0.1l1.2,25.2L-86,437.5z"/>
<path id="bras_x5F_haut_1_" class="st0" d="M-86.8,422.9v2.1c0,1.6,1.2,2.8,2.8,2.9l95.5,0.4l0,0l0.2,0.7c0,0.1,0.2,0.1,0.2,0.1
	l1.7-0.5c0.2,0.4,0.4,0.8,0.6,1.2l-1.5,0.9c-0.1,0.1-0.1,0.2,0,0.2l0.3,0.5c0.1,0.1,0.2,0.1,0.2,0l1.5-0.9c0.3,0.5,0.6,0.9,0.9,1.3
	l-1.2,1.2c-0.1,0.1,0,0.2,0,0.3l0.5,0.5c0.1,0.1,0.2,0,0.3,0l1.2-1.2c0.3,0.3,0.7,0.6,1,0.8l-0.9,1.5c-0.1,0.1,0,0.2,0,0.3l0.6,0.4
	c0.1,0.1,0.2,0,0.3,0l0.9-1.5c0.4,0.2,0.7,0.3,1.1,0.5l-0.5,1.6c-0.1,0.1,0,0.1,0.1,0.2l0.7,0.1c0.1,0.1,0.1,0,0.2-0.1l0.5-1.6
	c0.5,0.2,1.2,0.3,1.8,0.3v1.8c0,0.1,0.1,0.2,0.2,0.1H23c0.1,0,0.2-0.1,0.1-0.2V435c0.6-0.1,1.2-0.1,1.7-0.3l0.5,1.7
	c0,0.1,0.2,0.1,0.2,0.1l0.7-0.2c0.1,0,0.1-0.2,0.1-0.2l-0.5-1.7c0.4-0.2,0.8-0.4,1.2-0.6l0.9,1.5c0.1,0.1,0.2,0.1,0.2,0l0.5-0.3
	c0.1-0.1,0.1-0.2,0-0.2l-0.9-1.5c0.5-0.3,0.9-0.6,1.2-1l1.2,1.2c0.1,0.1,0.2,0,0.3,0l0.5-0.5c0.1-0.1,0-0.2,0-0.3l-1.2-1.2
	c0.3-0.3,0.6-0.7,0.8-1l1.5,0.8c0.1,0.1,0.2,0,0.3,0l0.4-0.6c0.1-0.1,0-0.2,0-0.3l-1.5-0.9c0.2-0.4,0.3-0.7,0.5-1.1l1.7,0.5
	c0.1,0.1,0.1,0,0.2-0.1l0.1-0.7c0.1-0.1,0-0.1-0.1-0.2l-1.7-0.5c0.2-0.5,0.2-1.1,0.2-1.7h1.8c0.1,0,0.2-0.1,0.1-0.2v-0.6
	c0-0.1-0.1-0.2-0.2-0.1H32c-0.1-0.6-0.1-1.1-0.2-1.7l1.7-0.5c0.1,0,0.1-0.2,0.1-0.2l-0.2-0.7c0-0.1-0.2-0.1-0.2-0.1l-1.7,0.5
	c-0.2-0.4-0.4-0.8-0.6-1.2l1.5-0.9c0.1-0.1,0.1-0.2,0-0.2l-0.3-0.5c-0.1-0.1-0.2-0.1-0.2,0l-1.5,0.9c-0.3-0.5-0.6-0.9-0.9-1.3
	L31,418c0.1-0.1,0-0.2,0-0.3l-0.5-0.5c-0.1-0.1-0.2,0-0.3,0l-1.2,1.2c-0.3-0.3-0.7-0.6-1-0.8l0.9-1.5c0.1-0.1,0-0.2,0-0.3l-0.6-0.4
	c-0.1-0.1-0.2,0-0.3,0l-1,1.6c-0.4-0.2-0.7-0.3-1.1-0.5l0.5-1.6c0.1-0.1,0-0.1-0.1-0.2l-0.7-0.1c-0.1-0.1-0.1,0-0.2,0.1l-0.5,1.6
	c-0.5-0.2-1.2-0.3-1.8-0.3v-1.8c0-0.1-0.1-0.2-0.2-0.1h-0.6c-0.1,0-0.2,0.1-0.1,0.2v1.8c-0.6,0.1-1.2,0.1-1.7,0.3l-0.5-1.7
	c0-0.1-0.2-0.1-0.2-0.1l-0.7,0.2c-0.1,0-0.1,0.2-0.1,0.2l0.5,1.7c-0.4,0.2-0.8,0.4-1.2,0.6l-0.9-1.5c-0.1-0.1-0.2-0.1-0.2,0
	l-0.5,0.3c-0.1,0.1-0.1,0.2,0,0.2l0.9,1.5c-0.5,0.3-0.9,0.6-1.2,1l-1.2-1.2c-0.1-0.1-0.2,0-0.3,0l-0.5,0.5c-0.1,0.1,0,0.2,0,0.3
	l1.2,1.2c-0.3,0.3-0.6,0.7-0.8,1l-1.5-0.8c-0.1-0.1-0.2,0-0.3,0l-0.4,0.6c-0.1,0.1,0,0.2,0,0.3l0.6,0.4l-97.2-0.5
	C-85.5,420.1-86.8,421.4-86.8,422.9z M22.7,419.6c3.3,0,6,2.8,6,6.1c0,3.3-2.8,6-6.1,6c-2.3,0-4.3-1.3-5.3-3.3h5.5
	c1.6,0,2.8-1.2,2.9-2.8v-2.1c0-1.6-1.2-2.8-2.8-2.9h-3.7C20.2,420,21.4,419.6,22.7,419.6z"/>
<path id="avant_x5F_bras" class="st0" d="M95.1,416.2c-0.5,0.5-0.9,1.2-1.4,1.7l-68.6-0.6c-0.8,0-1.4,0.3-1.9,0.8
	c-2.4-0.9-5.2-0.3-7.1,1.6c-2.5,2.6-2.3,6.7,0.2,9.2c2.1,1.9,4.9,2.3,7.4,1l68.1,0.5c0.7,2.2,2,4.3,3.8,6c5.8,5.4,14.9,5.3,20.4-0.6
	c5.4-5.8,5.3-14.9-0.6-20.4C109.7,410.2,100.5,410.4,95.1,416.2z M91.4,423.5c-0.1,0.4-0.2,0.9-0.1,1.3l-63.9-0.5
	c0-0.5,0-0.9-0.1-1.3L91.4,423.5z"/>
<path id="XMLID_47_" class="st0" d="M141.2,398l-23.1-2.9L118,396l-0.6-0.7l-9.5,7.1c-2.1-0.8-4.4-0.9-6.8,0
	c-5.4,1.9-8.4,7.7-6.6,13.2c1.9,5.4,7.7,8.4,13.2,6.6c4.7-1.5,7.5-6.2,7.1-10.9l5.7-4.3l19.2,2.5L141.2,398z"/>
<polygon id="XMLID_72_" class="st0" points="141.8,399.6 149.6,415.3 140.6,408.7 "/>
<g id="XMLID_65_">
	<path id="XMLID_70_" class="st0" d="M139.4,400.5c2.6,5.3,5.2,10.5,7.8,15.8c1.3-1,2.6-1.9,4-2.8c-3-2.2-5.9-4.4-8.9-6.6
		c0.3,0.8,0.7,1.5,1,2.3c0.3-3,0.8-6.1,1.2-9.2c0.3-3.1-4.6-3.9-4.9-0.7c-0.3,3-0.8,6.1-1.2,9.2c-0.1,0.8,0.2,1.8,1,2.3
		c3,2.2,5.9,4.4,8.9,6.6c1.8,1.3,5-0.5,4-2.8c-2.6-5.3-5.2-10.5-7.8-15.8C142.7,395.8,137.9,397.6,139.4,400.5z"/>
</g>
<path id="XMLID_15_" class="st0" d="M118.7,441.2l-1.2-0.9c-0.1-2.9-2.1-5.5-5.1-6.6c-1.5-0.5-3-0.6-4.3-0.4l-0.4-0.3l-0.4,0.6
	c-1.9,0.7-3.5,2.1-4.1,3.9c-1.2,3.5,0.8,7.5,4.8,8.9c2,0.7,3.9,0.7,5.6-0.1l2.6,1.9l0,0.6l16.4-1.1l-1.1-7.6L118.7,441.2z"/>
<polygon id="XMLID_77_" class="st0" points="133.9,446.6 139.3,436.6 133,440.5 "/>
<g id="XMLID_63_">
	<path id="XMLID_75_" class="st0" d="M136.1,447.9c1.8-3.4,3.7-6.8,5.5-10.1c1.2-2.1-1.2-4.8-3.4-3.4c-2.1,1.3-4.2,2.7-6.4,4
		c-1,0.6-1.4,1.7-1.2,2.8c0.3,1.9,0.5,4.1,0.8,6.1c0.5,3.2,5.3,1.9,4.8-1.2c-0.3-1.9-0.5-4.1-0.8-6.1c-0.4,0.9-0.8,2-1.2,2.8
		c2.1-1.3,4.2-2.7,6.4-4c-1.1-1.2-2.3-2.3-3.4-3.4c-1.8,3.4-3.7,6.8-5.5,10.1C130.2,448.3,134.5,450.7,136.1,447.9z"/>
</g>
</svg>
