<?xml version="1.0" encoding="utf-8"?>
<!-- Generator: Adobe Illustrator 21.0.0, SVG Export Plug-In . SVG Version: 6.00 Build 0)  -->
<svg version="1.1" id="machine" xmlns="http://www.w3.org/2000/svg" xmlns:xlink="http://www.w3.org/1999/xlink" x="0px" y="0px"
	 viewBox="0 0 299.4 65.9" style="enable-background:new 0 0 299.4 65.9;" xml:space="preserve">
<style type="text/css">
	.st0{fill:#0F0F0F;}
</style>
<g>
	<g id="epaule">
		<polygon id="XMLID_3_" class="st0" points="243.3,49.5 244.4,24.3 243.2,24.3 242,49.5 		"/>
		<path id="XMLID_51_" class="st0" d="M260.2,49.3l1.2-25.2l-2.4,0l0,1.3c0,0.9-0.6,1.6-1.4,1.6l0,0c-0.7,0.1-1.3-0.6-1.3-1.6l0-1.3
			l-1.5,0l0,1.3c0,0.9-0.6,1.6-1.4,1.6l0,0c-0.7,0.1-1.3-0.6-1.3-1.6l0-1.3l-1.5,0l0,1.3c0,0.9-0.6,1.6-1.4,1.6
			c-0.7,0.1-1.3-0.6-1.3-1.6l0-1.3l-2.3,0l-1.2,25.2l2.3,0l0.1-1.2c0-0.9,0.6-1.6,1.4-1.6c0.7-0.1,1.3,0.6,1.3,1.6l-0.1,1.2l1.5,0
			l0.1-1.2c0-0.9,0.6-1.6,1.4-1.6l0,0c0.7-0.1,1.3,0.6,1.3,1.6l-0.1,1.2l1.5,0l0.1-1.2c0-0.9,0.6-1.6,1.4-1.6
			c0.7-0.1,1.3,0.6,1.3,1.6l-0.1,1.2L260.2,49.3z"/>
		<path id="XMLID_52_" class="st0" d="M297.4,29.5l-2.4,0l0.1-0.6c0-0.4-0.2-0.6-0.5-0.6c-0.3,0-0.5,0.3-0.6,0.6l-0.1,0.6l-1,0
			c-1.1,0-2.1,1-2.2,2.4l0,0.6l-24.4,0.2l0.1-1.6c0.1-1.3-0.8-2.4-1.9-2.4l-0.6,0l0-2.3c0.1-1.2-0.8-2.2-1.7-2.4l-1.1,25.1
			c1-0.2,1.8-1.2,1.8-2.4l0.1-2.3l0.6,0c1.1,0,2.1-1,2.2-2.4l0.1-1.6l24.4-0.2l0,0.6c-0.1,1.3,0.8,2.4,1.9,2.4l1,0l-0.1,0.6
			c0,0.4,0.2,0.6,0.5,0.6c0.3,0,0.5-0.3,0.6-0.6l0.1-0.6l2.4,0c1.1,0,2.1-1,2.2-2.4l0.4-9.1C299.5,30.5,298.6,29.4,297.4,29.5z"/>
		<path id="XMLID_53_" class="st0" d="M240.9,49.3l1.2-25.2l-2.5,0.1c-1.1,0-2.1,1-2.2,2.4l0,1.1c-4.1,0.7-7.4,4.1-7.5,8.4
			c-0.1,4.2,2.8,7.9,6.7,8.8l-0.1,2.1c-0.1,1.3,0.8,2.4,1.9,2.4L240.9,49.3z"/>
	</g>
	<path id="bras_x5F_haut_1_" class="st0" d="M236.4,32.3l-97.2,0.5l0.6-0.4c0.1-0.1,0.1-0.2,0-0.3l-0.4-0.6c-0.1-0.1-0.2-0.1-0.3,0
		l-1.5,0.8c-0.3-0.3-0.6-0.7-0.8-1l1.2-1.2c0.1-0.1,0.1-0.2,0-0.3l-0.5-0.5c-0.1-0.1-0.2-0.1-0.3,0l-1.2,1.2c-0.3-0.4-0.7-0.7-1.2-1
		l0.9-1.5c0.1-0.1,0-0.1,0-0.2l-0.5-0.3c-0.1-0.1-0.1,0-0.2,0l-0.9,1.5c-0.4-0.2-0.8-0.4-1.2-0.6l0.5-1.7c0,0,0-0.1-0.1-0.2
		l-0.7-0.2c0,0-0.1,0-0.2,0.1l-0.5,1.7c-0.5-0.2-1.2-0.2-1.7-0.3l0-1.8c0.1-0.1,0-0.1-0.1-0.2l-0.6,0c-0.1-0.1-0.1,0-0.2,0.1l0,1.8
		c-0.6,0-1.3,0.1-1.8,0.3l-0.5-1.6c-0.1-0.1-0.1-0.2-0.2-0.1l-0.7,0.1c-0.1,0.1-0.2,0.1-0.1,0.2l0.5,1.6c-0.4,0.2-0.7,0.3-1.1,0.5
		l-0.9-1.5c-0.1-0.1-0.2-0.1-0.3,0l-0.6,0.4c-0.1,0.1-0.1,0.2,0,0.3l0.9,1.5c-0.3,0.3-0.7,0.6-1,0.8l-1.2-1.2
		c-0.1-0.1-0.2-0.1-0.3,0l-0.5,0.5c-0.1,0.1-0.1,0.2,0,0.3l1.2,1.2c-0.3,0.4-0.7,0.8-0.9,1.3l-1.5-0.9c-0.1-0.1-0.1,0-0.2,0
		l-0.3,0.5c-0.1,0.1,0,0.1,0,0.2l1.5,0.9c-0.2,0.4-0.4,0.8-0.6,1.2L119,34c0,0-0.1,0-0.2,0.1l-0.2,0.7c0,0,0,0.1,0.1,0.2l1.7,0.5
		c-0.1,0.6-0.1,1.1-0.2,1.7l-1.8,0c-0.1-0.1-0.1,0-0.2,0.1l0,0.6c-0.1,0.1,0,0.1,0.1,0.2l1.8,0c0,0.6,0.1,1.2,0.2,1.7l-1.7,0.5
		c-0.1,0.1-0.2,0.1-0.1,0.2l0.1,0.7c0.1,0.1,0.1,0.2,0.2,0.1l1.7-0.5c0.2,0.4,0.3,0.7,0.5,1.1l-1.5,0.9c-0.1,0.1-0.1,0.2,0,0.3
		l0.4,0.6c0.1,0.1,0.2,0.1,0.3,0l1.5-0.8c0.3,0.3,0.6,0.7,0.8,1l-1.2,1.2c-0.1,0.1-0.1,0.2,0,0.3l0.5,0.5c0.1,0.1,0.2,0.1,0.3,0
		l1.2-1.2c0.3,0.4,0.7,0.7,1.2,1l-0.9,1.5c-0.1,0.1,0,0.1,0,0.2l0.5,0.3c0.1,0.1,0.1,0,0.2,0l0.9-1.5c0.4,0.2,0.8,0.4,1.2,0.6
		l-0.5,1.7c0,0,0,0.1,0.1,0.2l0.7,0.2c0,0,0.1,0,0.2-0.1l0.5-1.7c0.5,0.2,1.2,0.2,1.7,0.3l0,1.8c-0.1,0.1,0,0.1,0.1,0.2l0.6,0
		c0.1,0.1,0.1,0,0.2-0.1l0-1.8c0.6,0,1.3-0.1,1.8-0.3l0.5,1.6c0.1,0.1,0.1,0.2,0.2,0.1l0.7-0.1c0.1-0.1,0.2-0.1,0.1-0.2l-0.5-1.6
		c0.4-0.2,0.7-0.3,1.1-0.5l0.9,1.5c0.1,0.1,0.2,0.1,0.3,0l0.6-0.4c0.1-0.1,0.1-0.2,0-0.3l-0.9-1.5c0.3-0.3,0.7-0.6,1-0.8l1.2,1.2
		c0.1,0.1,0.2,0.1,0.3,0l0.5-0.5c0.1-0.1,0.1-0.2,0-0.3l-1.2-1.2c0.3-0.4,0.7-0.8,0.9-1.3l1.5,0.9c0.1,0.1,0.1,0,0.2,0l0.3-0.5
		c0.1-0.1,0-0.1,0-0.2l-1.5-0.9c0.2-0.4,0.4-0.8,0.6-1.2l1.7,0.5c0,0,0.1,0,0.2-0.1l0.2-0.7l0,0l95.5-0.4c1.6-0.1,2.8-1.3,2.8-2.9
		l0-2.1C239.2,33.4,238,32.1,236.4,32.3z M133.3,32.6l-3.7,0c-1.6,0.1-2.8,1.3-2.8,2.9l0,2.1c0.1,1.6,1.3,2.8,2.9,2.8l5.5,0
		c-1,2-3.1,3.2-5.3,3.3c-3.3,0-6.1-2.7-6.1-6c0-3.3,2.7-6.1,6-6.1C131,31.6,132.3,32,133.3,32.6z"/>
	<path id="avant_x5F_bras" class="st0" d="M37.1,27.6c-5.9,5.5-6,14.6-0.6,20.4c5.5,5.9,14.6,6,20.4,0.6c1.8-1.7,3.1-3.8,3.8-6
		l68.1-0.5c2.4,1.3,5.3,0.9,7.4-1c2.5-2.4,2.7-6.5,0.2-9.2c-1.8-2-4.7-2.5-7.1-1.6c-0.5-0.5-1.1-0.8-1.9-0.8l-68.6,0.6
		c-0.4-0.5-0.9-1.2-1.4-1.7C51.9,22.4,42.8,22.2,37.1,27.6z M125.2,35c0,0.4-0.1,0.8-0.1,1.3l-63.9,0.5c0-0.4,0-0.9-0.1-1.3
		L125.2,35z"/>
	<g id="pince_x5F_haut">
		<path id="XMLID_47_" class="st0" d="M14,12.2l18.6,5.5l3.5,6.2c-2.2,4.1-1.5,9.5,2.1,12.8c4.3,3.9,10.9,3.6,14.7-0.7
			c3.9-4.3,3.6-10.9-0.7-14.7c-1.8-1.7-4-2.6-6.2-2.7L40.3,8.4l-0.8,0.4l0.3-0.9L17.4,1.2L14,12.2z"/>
		<g id="XMLID_62_">
			<polygon id="XMLID_72_" class="st0" points="13.5,11.3 2.7,13.7 16.2,2.5 			"/>
			<g id="XMLID_65_">
				<path id="XMLID_70_" class="st0" d="M14.2,0.6c-4.5,3.8-9,7.5-13.5,11.3c-1.9,1.7,0.2,4.7,2.5,4.2c3.6-0.8,7.2-1.6,10.8-2.4
					c0.9-0.1,1.6-0.9,1.8-1.7C16.7,9,17.6,6,18.5,3c1-3-3.8-4.4-4.8-1.3c-0.9,2.9-1.7,5.9-2.6,8.9c0.7-0.6,1.2-1.2,1.8-1.7
					c-3.6,0.8-7.2,1.6-10.8,2.4c0.9,1.4,1.7,2.8,2.5,4.2C9,11.8,13.5,8,18,4.2C20.4,2.2,16.8-1.4,14.2,0.6z"/>
			</g>
		</g>
	</g>
	<g id="pince_x5F_bas">
		<path id="XMLID_15_" class="st0" d="M21.5,56.6l1.9,7.4l15.8-5.4L39,58l1.7-2.8c1.8,0,3.6-0.7,5.2-2.1c3.1-2.8,3.6-7.3,1-10.1
			c-1.4-1.4-3.3-2.1-5.3-2l-0.6-0.4l-0.3,0.4c-1.3,0.3-2.7,1-3.8,2c-2.4,2.1-3.2,5.4-2.2,8.1l-0.8,1.3L21.5,56.6z"/>
		<g id="XMLID_60_">
			<polygon id="XMLID_77_" class="st0" points="20.3,57.3 12.9,56.1 21.8,63.3 			"/>
			<g id="XMLID_63_">
				<path id="XMLID_75_" class="st0" d="M23.3,61.3c-2.9-2.4-5.9-4.8-8.9-7.2c-0.6,1.5-1.2,3-1.8,4.4c2.4,0.4,4.9,0.9,7.4,1.2
					c-0.7-0.6-1.5-1.4-2.2-2.1c0.5,1.9,1.1,4,1.6,5.9c0.8,3.1,5.7,2.5,4.9-0.7c-0.5-1.9-1.1-4-1.6-5.9c-0.3-1.1-0.9-1.9-2.2-2.1
					c-2.4-0.4-4.9-0.9-7.4-1.2c-2.5-0.5-3.7,2.9-1.8,4.4c2.9,2.4,5.9,4.8,8.9,7.2C22.8,67.3,25.8,63.4,23.3,61.3z"/>
			</g>
		</g>
	</g>
</g>
</svg>
