<?xml version="1.0" encoding="utf-8"?>
<!-- Generator: Adobe Illustrator 19.0.0, SVG Export Plug-In . SVG Version: 6.00 Build 0)  -->
<svg version="1.1" id="manche_d" xmlns="http://www.w3.org/2000/svg" xmlns:xlink="http://www.w3.org/1999/xlink" x="0px" y="0px"
	 viewBox="1473.8 -396.9 621.1 512" style="enable-background:new 1473.8 -396.9 621.1 512;" xml:space="preserve">
<style type="text/css">
	.st0{fill:#2D2D2D;}
</style>
<g>
	<rect x="1473.8" y="-68.3" width="3.7" height="72.3"/>
	<path d="M1494.9-61.5v58.4c0,3.9-2.9,7-6.4,7h-7.8v-72.4h7.8C1491.9-68.5,1494.9-65.3,1494.9-61.5z"/>
	<g>
		<path d="M2094.9-61.5h-26.3l-2.4-5.9c-0.4-1-1.7-1.5-3.1-1.2c-1.3,0.3-2,1.3-1.6,2.3l2,4.8h-9.6l-2.4-5.9c-0.4-1-1.7-1.5-3.1-1.2
			c-1.3,0.3-2,1.3-1.6,2.3l2,4.8h-9.6l-2.4-5.9c-0.4-1-1.7-1.5-3.1-1.2s-2,1.3-1.6,2.3l2,4.8h-9.6l-2.4-5.9c-0.4-1-1.7-1.5-3.1-1.2
			c-1.3,0.3-2,1.3-1.6,2.3l2,4.8h-9.6l-2.4-5.9c-0.4-1-1.7-1.5-3.1-1.2c-1.3,0.3-2,1.3-1.6,2.3l2,4.8h-9.6l-2.4-5.9
			c-0.4-1-1.7-1.5-3.1-1.2c-1.3,0.3-2,1.3-1.6,2.3l2,4.8h-9.6l-2.4-5.9c-0.4-1-1.7-1.5-3.1-1.2c-1.3,0.3-2,1.3-1.6,2.3l2,4.8h-9.6
			l-2.4-5.9c-0.4-1-1.7-1.5-3.1-1.2c-1.3,0.3-2,1.3-1.6,2.3l2,4.8h-9.6l-2.4-5.9c-0.4-1-1.7-1.5-3.1-1.2c-1.3,0.3-2,1.3-1.6,2.3
			l2,4.8h-9.6l-2.4-5.9c-0.4-1-1.7-1.5-3.1-1.2c-1.3,0.3-2,1.3-1.6,2.3l2,4.8h-9.6l-2.4-5.9c-0.4-1-1.7-1.5-3.1-1.2s-2,1.3-1.6,2.3
			l2,4.8h-9.6l-2.4-5.9c-0.4-1-1.7-1.5-3.1-1.2c-1.3,0.3-2,1.3-1.6,2.3l2,4.8h-9.6l-2.4-5.9c-0.4-1-1.7-1.5-3.1-1.2
			c-1.3,0.3-2,1.3-1.6,2.3l2,4.8h-9.6l-2.4-5.9c-0.4-1-1.7-1.5-3.1-1.2s-2,1.3-1.6,2.3l2,4.8h-9.6l-2.4-5.9c-0.4-1-1.7-1.5-3.1-1.2
			c-1.3,0.3-2,1.3-1.6,2.3l2,4.8h-9.6l-2.4-5.9c-0.4-1-1.7-1.5-3.1-1.2c-1.3,0.3-2,1.3-1.6,2.3l2,4.8h-9.6l-2.4-5.9
			c-0.4-1-1.7-1.5-3.1-1.2c-1.3,0.3-2,1.3-1.6,2.3l2,4.8h-9.6l-2.4-5.9c-0.4-1-1.7-1.5-3.1-1.2c-1.3,0.3-2,1.3-1.6,2.3l2,4.8h-9.6
			l-2.4-5.9c-0.4-1-1.7-1.5-3.1-1.2s-2,1.3-1.6,2.3l2,4.8h-9.6l-2.4-5.9c-0.4-1-1.7-1.5-3.1-1.2c-1.3,0.3-2,1.3-1.6,2.3l2,4.8h-9.6
			l-2.4-5.9c-0.4-1-1.7-1.5-3.1-1.2c-1.3,0.3-2,1.3-1.6,2.3l2,4.8h-9.6l-2.4-5.9c-0.4-1-1.7-1.5-3.1-1.2s-2,1.3-1.6,2.3l2,4.8h-9.6
			l-2.4-5.9c-0.4-1-1.7-1.5-3.1-1.2c-1.3,0.3-2,1.3-1.6,2.3l2,4.8h-9.6l-2.4-5.9c-0.4-1-1.7-1.5-3.1-1.2c-1.3,0.3-2,1.3-1.6,2.3
			l2,4.8h-9.6l-2.4-5.9c-0.4-1-1.7-1.5-3.1-1.2s-2,1.3-1.6,2.3l2,4.8h-9.6l-2.4-5.9c-0.4-1-1.7-1.5-3.1-1.2c-1.3,0.3-2,1.3-1.6,2.3
			l2,4.8h-9.6l-2.4-5.9c-0.4-1-1.7-1.5-3.1-1.2c-1.3,0.3-2,1.3-1.6,2.3l2,4.8h-9.6l-2.4-5.9c-0.4-1-1.7-1.5-3.1-1.2
			c-1.3,0.3-2,1.3-1.6,2.3l2,4.8h-9.6l-2.4-5.9c-0.4-1-1.7-1.5-3.1-1.2c-1.3,0.3-2,1.3-1.6,2.3l2,4.8h-9.6l-2.4-5.9
			c-0.4-1-1.7-1.5-3.1-1.2s-2,1.3-1.6,2.3l2,4.8h-9.6l-2.4-5.9c-0.4-1-1.7-1.5-3.1-1.2s-2,1.3-1.6,2.3l2,4.8h-9.6l-2.4-5.9
			c-0.4-1-1.7-1.5-3.1-1.2c-1.3,0.3-2,1.3-1.6,2.3l2,4.8h-9.6l-2.4-5.9c-0.4-1-1.7-1.5-3.1-1.2c-1.3,0.3-2,1.3-1.6,2.3l2,4.8h-9.6
			l-2.4-5.9c-0.4-1-1.7-1.5-3.1-1.2c-1.3,0.3-2,1.3-1.6,2.3l2,4.8h-9.6l-2.4-5.9c-0.4-1-1.7-1.5-3.1-1.2c-1.3,0.3-2,1.3-1.6,2.3
			l2,4.8h-9.6l-2.4-5.9c-0.4-1-1.7-1.5-3.1-1.2s-2,1.3-1.6,2.3l2,4.8h-9.6l-2.4-5.9c-0.4-1-1.7-1.5-3.1-1.2c-1.3,0.3-2,1.3-1.6,2.3
			l2,4.8h-9.6l-2.4-5.9c-0.4-1-1.7-1.5-3.1-1.2c-1.3,0.3-2,1.3-1.6,2.3l1.9,4.8h-9.6l-2.4-5.9c-0.4-1-1.7-1.5-3.1-1.2
			c-1.3,0.3-2,1.3-1.6,2.3l2,4.8h-7.4v9.5h-6.2v39.5h6.2v11.1h32.4l1.7,4.3c0.4,1,1.7,1.5,3.1,1.2c1.3-0.3,2-1.3,1.6-2.3l-1.3-3.2
			h10.9l1.7,4.3c0.4,1,1.7,1.5,3.1,1.2c1.3-0.3,2-1.3,1.6-2.3l-1.3-3.2h9.6l1.7,4.3c0.4,1,1.7,1.5,3.1,1.2c1.3-0.3,2-1.3,1.6-2.3
			l-1.3-3.2h9.6l1.7,4.3c0.4,1,1.7,1.5,3.1,1.2c1.3-0.3,2-1.3,1.6-2.3l-1.3-3.2h9.6l1.7,4.3c0.4,1,1.7,1.5,3.1,1.2
			c1.3-0.3,2-1.3,1.6-2.3l-1.3-3.2h9.6l1.7,4.3c0.4,1,1.7,1.5,3.1,1.2c1.3-0.3,2-1.3,1.6-2.3l-1.3-3.2h9.6l1.7,4.3
			c0.4,1,1.7,1.5,3.1,1.2c1.3-0.3,2-1.3,1.6-2.3l-1.3-3.2h9.6l1.7,4.3c0.4,1,1.7,1.5,3.1,1.2c1.3-0.3,2-1.3,1.6-2.3l-1.3-3.2h9.6
			l1.7,4.3c0.4,1,1.7,1.5,3.1,1.2c1.3-0.3,2-1.3,1.6-2.3l-1.3-3.2h9.6l1.7,4.3c0.4,1,1.7,1.5,3.1,1.2c1.3-0.3,2-1.3,1.6-2.3
			l-1.3-3.2h9.6l1.7,4.3c0.4,1,1.7,1.5,3.1,1.2c1.3-0.3,2-1.3,1.6-2.3l-1.3-3.2h9.6l1.7,4.3c0.4,1,1.7,1.5,3.1,1.2
			c1.3-0.3,2-1.3,1.6-2.3l-1.3-3.2h9.6l1.7,4.3c0.4,1,1.7,1.5,3.1,1.2c1.3-0.3,2-1.3,1.6-2.3l-1.3-3.2h9.6l1.7,4.3
			c0.4,1,1.7,1.5,3.1,1.2c1.3-0.3,2-1.3,1.6-2.3l-1.3-3.2h9.6l1.7,4.3c0.4,1,1.7,1.5,3.1,1.2c1.3-0.3,2-1.3,1.6-2.3l-1.3-3.2h9.6
			l1.7,4.3c0.4,1,1.7,1.5,3.1,1.2c1.3-0.3,2-1.3,1.6-2.3l-1.3-3.2h9.6l1.7,4.3c0.4,1,1.7,1.5,3.1,1.2c1.3-0.3,2-1.3,1.6-2.3
			l-1.3-3.2h9.6l1.7,4.3c0.4,1,1.7,1.5,3.1,1.2c1.3-0.3,2-1.3,1.6-2.3l-1.3-3.2h10.9l1.7,4.3c0.4,1,1.7,1.5,3.1,1.2
			c1.3-0.3,2-1.3,1.6-2.3l-1.3-3.2h9.6l1.7,4.3c0.4,1,1.7,1.5,3.1,1.2c1.3-0.3,2-1.3,1.6-2.3l-1.3-3.2h9.6l1.7,4.3
			c0.4,1,1.7,1.5,3.1,1.2c1.3-0.3,2-1.3,1.6-2.3l-1.3-3.2h9.6l1.7,4.3c0.4,1,1.7,1.5,3.1,1.2c1.3-0.3,2-1.3,1.6-2.3l-1.3-3.2h9.6
			l1.7,4.3c0.4,1,1.7,1.5,3.1,1.2c1.3-0.3,2-1.3,1.6-2.3l-1.3-3.2h9.6l1.7,4.3c0.4,1,1.7,1.5,3.1,1.2c1.3-0.3,2-1.3,1.6-2.3
			l-1.3-3.2h9.6l1.7,4.3c0.4,1,1.7,1.5,3.1,1.2c1.3-0.3,2-1.3,1.6-2.3l-1.3-3.2h9.6l1.7,4.3c0.4,1,1.7,1.5,3.1,1.2
			c1.3-0.3,2-1.3,1.6-2.3l-1.3-3.2h9.6l1.7,4.3c0.4,1,1.7,1.5,3.1,1.2c1.3-0.3,2-1.3,1.6-2.3l-1.3-3.2h9.6l1.7,4.3
			c0.4,1,1.7,1.5,3.1,1.2c1.3-0.3,2-1.3,1.6-2.3l-1.3-3.2h9.6l1.7,4.3c0.4,1,1.7,1.5,3.1,1.2c1.3-0.3,2-1.3,1.6-2.3l-1.3-3.2h9.6
			l1.7,4.3c0.4,1,1.7,1.5,3.1,1.2c1.3-0.3,2-1.3,1.6-2.3l-1.3-3.2h9.6l1.7,4.3c0.4,1,1.7,1.5,3.1,1.2c1.3-0.3,2-1.3,1.6-2.3
			l-1.3-3.2h9.6l1.7,4.3c0.4,1,1.7,1.5,3.1,1.2c1.3-0.3,2-1.3,1.6-2.3l-1.3-3.2h9.6l1.7,4.3c0.4,1,1.7,1.5,3.1,1.2
			c1.3-0.3,2-1.3,1.6-2.3l-1.3-3.2h9.6l1.7,4.3c0.4,1,1.7,1.5,3.1,1.2c1.3-0.3,2-1.3,1.6-2.3l-1.3-3.2h9.6l1.7,4.3
			c0.4,1,1.7,1.5,3.1,1.2c1.3-0.3,2-1.3,1.6-2.3l-1.3-3.2h6.9l1.7,4.3c0.4,1,1.7,1.5,3.1,1.2c1.3-0.3,2-1.3,1.6-2.3l-1.3-3.2h9.6
			l1.7,4.3c0.4,1,1.7,1.5,3.1,1.2c1.3-0.3,2-1.3,1.6-2.3l-1.3-3.2h9.6l1.7,4.3c0.4,1,1.7,1.5,3.1,1.2c1.3-0.3,2-1.3,1.6-2.3
			l-1.3-3.2h9.6l1.7,4.3c0.4,1,1.7,1.5,3.1,1.2c1.3-0.3,2-1.3,1.6-2.3l-1.3-3.2h1.5V-61.5z"/>
		<path class="st0" d="M2074.9-39.1h-549.4c-2.4,0-4.3-1.9-4.3-4.3v0c0-2.4,1.9-4.3,4.3-4.3h549.4c2.4,0,4.3,1.9,4.3,4.3v0
			C2079.1-41.1,2077.2-39.1,2074.9-39.1z"/>
	</g>
</g>
</svg>
