
<svg version="1.1" id="block" xmlns="http://www.w3.org/2000/svg" xmlns:xlink="http://www.w3.org/1999/xlink" x="0px" y="0px"
	 viewBox="1960.8 -396.9 134.1 512" style="enable-background:new 1960.8 -396.9 134.1 512;" xml:space="preserve">
<g>
	<path id="XMLID_43_" d="M2033-290.9c-7.3-2.6-15.2,0.6-18.8,7.3l28.8,10.2C2044.4-280.8,2040.3-288.3,2033-290.9z"/>
	<path id="XMLID_42_" d="M2022.7-261.7c7.3,2.6,15.2-0.6,18.8-7.3l-28.8-10.2C2011.3-271.8,2015.3-264.3,2022.7-261.7z"/>
	<path d="M2093.8-279.3h-10.1c-0.2-3.5-0.7-6.9-1.5-10.2l9.7-2.9c0.5-0.2,0.9-0.8,0.7-1.3l-1.2-3.8c-0.2-0.5-0.8-0.9-1.3-0.7
		l-9.7,2.9c-0.9-2.4-1.9-4.7-3.1-7l8.7-5.1c0.5-0.3,0.6-0.9,0.3-1.4l-2-3.4c-0.3-0.5-0.9-0.6-1.4-0.3l-8.7,5.1
		c-1.6-2.4-3.4-4.7-5.4-6.9l7-7.2c0.4-0.4,0.4-1,0-1.5l-2.9-2.8c-0.4-0.4-1-0.4-1.5,0l-7,7.2c-1.9-1.7-4-3.3-6.2-4.7l5.1-8.7
		c0.3-0.5,0.1-1.1-0.3-1.4l-3.4-2c-0.5-0.3-1.1-0.1-1.4,0.3l-5.1,8.7c-2.2-1.1-4.5-2.1-6.8-2.9l2.9-9.7c0.2-0.5-0.2-1.1-0.7-1.3
		l-3.8-1.1c-0.5-0.2-1.1,0.2-1.3,0.7l-2.9,9.7c-3.2-0.8-6.5-1.2-9.8-1.4v-10c0-0.6-0.5-1-1-1h-4c-0.6,0-1,0.5-1,1v10.1
		c-3.3,0.2-6.5,0.6-9.7,1.3l-2.8-9.7c-0.2-0.5-0.8-0.9-1.3-0.7l-3.8,1.1c-0.5,0.2-0.9,0.8-0.7,1.3l2.8,9.7c-2.4,0.8-4.8,1.9-7,3
		l-5.1-8.7c-0.3-0.5-0.9-0.6-1.4-0.3l-3.4,2c-0.5,0.3-0.6,0.9-0.3,1.4l5.1,8.7c-2.4,1.6-4.7,3.4-6.9,5.4l-7.3-7.1
		c-0.4-0.4-1-0.4-1.5,0l-2.8,2.8c-0.4,0.4-0.4,1,0,1.5l7.2,7.2c-1.7,1.9-3.3,4-4.8,6.1l-8.7-5.1c-0.5-0.3-1.1-0.1-1.4,0.3l-2,3.4
		c-0.3,0.5-0.1,1.1,0.3,1.4l8.7,5.1c-1.2,2.2-2.2,4.5-3,6.8l-9.7-2.9c-0.5-0.2-1.1,0.1-1.3,0.7l-1.2,3.8c-0.2,0.5,0.1,1.1,0.7,1.3
		l9.7,2.9c-0.8,3.3-1.3,6.8-1.5,10.4h-10c-0.6,0-1,0.5-1,1v4c0,0.6,0.5,1,1,1h10.1c0.2,3.5,0.7,6.9,1.5,10.2l-9.7,2.9
		c-0.5,0.2-0.9,0.8-0.7,1.3l1.2,3.8c0.2,0.5,0.8,0.9,1.3,0.7l9.7-2.9c0.9,2.4,1.9,4.7,3.1,7l-8.7,5.1c-0.5,0.3-0.6,0.9-0.3,1.4
		l2,3.4c0.3,0.5,0.9,0.6,1.4,0.3l8.7-5.1c1.6,2.4,3.4,4.7,5.4,6.9l-7,7.2c-0.4,0.4-0.4,1,0,1.5l2.9,2.8c0.4,0.4,1,0.4,1.5,0l7-7.2
		c1.9,1.7,4,3.3,6.2,4.7l-5.1,8.7c-0.3,0.5-0.1,1.1,0.3,1.4l3.4,2c0.5,0.3,1.1,0.1,1.4-0.3l5.1-8.7c2.2,1.1,4.5,2.1,6.8,2.9
		l-2.9,9.7c-0.2,0.5,0.2,1.1,0.7,1.3l3.8,1.1c0.5,0.2,1.1-0.2,1.3-0.7l2.9-9.7c3.2,0.8,6.5,1.2,9.8,1.4v10.1c0,0.6,0.5,1,1,1h4
		c0.6,0,1-0.5,1-1v-10.1c3.3-0.2,6.5-0.6,9.7-1.3l2.8,9.7c0.2,0.5,0.8,0.9,1.3,0.7l3.8-1.1c0.5-0.2,0.9-0.8,0.7-1.3l-2.8-9.7
		c2.4-0.8,4.8-1.9,7-3l5.1,8.7c0.3,0.5,0.9,0.6,1.4,0.3l3.4-2c0.5-0.3,0.6-0.9,0.3-1.4l-5.1-8.7c2.4-1.6,4.7-3.4,6.9-5.4l7.2,7.1
		c0.4,0.4,1,0.4,1.5,0l2.8-2.8c0.4-0.4,0.4-1,0-1.5l-7-7.2c1.7-1.9,3.3-4,4.8-6.1l8.7,5.1c0.5,0.3,1.1,0.1,1.4-0.3l2-3.4
		c0.3-0.5,0.1-1.1-0.3-1.4l-8.7-5.1c1.2-2.2,2.2-4.5,3-6.8l9.7,2.9c0.5,0.2,1.1-0.1,1.3-0.7l1.2-3.8c0.2-0.5-0.1-1.1-0.7-1.3
		l-9.7-2.9c0.8-3.3,1.3-6.8,1.5-10.4h10.1c0.6,0,1-0.5,1-1v-4C2094.8-278.9,2094.4-279.3,2093.8-279.3z M2027.8-241.2
		c-19.4,0-35.1-15.7-35.1-35.1s15.7-35.1,35.1-35.1s35.1,15.7,35.1,35.1S2047.3-241.2,2027.8-241.2z"/>
</g>
<g>
	<path id="XMLID_3_" d="M2042.7-218.5c-5.7-2-11.9,0.5-14.6,5.7l22.4,8C2051.6-210.6,2048.4-216.4,2042.7-218.5z"/>
	<path id="XMLID_2_" d="M2034.6-195.7c5.7,2,11.9-0.5,14.6-5.7l-22.4-8C2025.7-203.6,2028.9-197.7,2034.6-195.7z"/>
	<path d="M2090.1-209.4h-7.8c-0.1-2.7-0.5-5.3-1.1-7.9l7.5-2.3c0.4-0.1,0.7-0.6,0.5-1l-0.9-2.9c-0.1-0.4-0.6-0.7-1-0.5l-7.5,2.3
		c-0.7-1.9-1.5-3.7-2.4-5.4l6.8-4c0.4-0.2,0.5-0.7,0.3-1.1l-1.6-2.7c-0.2-0.4-0.7-0.5-1.1-0.3l-6.8,4c-1.3-1.9-2.7-3.7-4.2-5.3
		l5.5-5.6c0.3-0.3,0.3-0.8,0-1.1l-2.2-2.2c-0.3-0.3-0.8-0.3-1.1,0l-5.5,5.6c-1.5-1.3-3.1-2.5-4.8-3.7l3.9-6.8
		c0.2-0.4,0.1-0.9-0.3-1.1l-2.7-1.5c-0.4-0.2-0.9-0.1-1.1,0.3l-3.9,6.8c-1.7-0.9-3.5-1.6-5.3-2.3l2.2-7.5c0.1-0.4-0.1-0.9-0.5-1
		l-2.9-0.9c-0.4-0.1-0.9,0.1-1,0.5l-2.2,7.5c-2.5-0.6-5-1-7.7-1.1v-7.8c0-0.5-0.4-0.8-0.8-0.8h-3.1c-0.5,0-0.8,0.4-0.8,0.8v7.8
		c-2.6,0.1-5.1,0.5-7.5,1l-2.2-7.5c-0.1-0.4-0.6-0.7-1-0.5l-2.9,0.9c-0.4,0.1-0.7,0.6-0.5,1l2.2,7.5c-1.9,0.6-3.7,1.5-5.4,2.3
		l-3.9-6.8c-0.2-0.4-0.7-0.5-1.1-0.3l-2.7,1.5c-0.4,0.2-0.5,0.7-0.3,1.1l3.9,6.8c-1.9,1.2-3.7,2.6-5.3,4.2l-5.7-5.5
		c-0.3-0.3-0.8-0.3-1.1,0l-2.2,2.2c-0.3,0.3-0.3,0.8,0,1.1l5.6,5.6c-1.4,1.5-2.6,3.1-3.7,4.8l-6.8-4c-0.4-0.2-0.9-0.1-1.1,0.3
		l-1.6,2.7c-0.2,0.4-0.1,0.9,0.3,1.1l6.8,4c-0.9,1.7-1.7,3.5-2.4,5.3l-7.5-2.3c-0.4-0.1-0.9,0.1-1,0.5l-0.9,2.9
		c-0.1,0.4,0.1,0.9,0.5,1l7.5,2.3c-0.6,2.6-1,5.3-1.2,8.1h-7.8c-0.5,0-0.8,0.4-0.8,0.8v3.1c0,0.5,0.4,0.8,0.8,0.8h7.8
		c0.1,2.7,0.5,5.3,1.1,7.9l-7.5,2.3c-0.4,0.1-0.7,0.6-0.5,1l0.9,2.9c0.1,0.4,0.6,0.7,1,0.5l7.5-2.3c0.7,1.9,1.5,3.7,2.4,5.4l-6.8,4
		c-0.4,0.2-0.5,0.7-0.3,1.1l1.6,2.7c0.2,0.4,0.7,0.5,1.1,0.3l6.8-4c1.3,1.9,2.7,3.7,4.2,5.3l-5.5,5.6c-0.3,0.3-0.3,0.8,0,1.1
		l2.2,2.2c0.3,0.3,0.8,0.3,1.1,0l5.5-5.6c1.5,1.3,3.1,2.5,4.8,3.7l-3.9,6.8c-0.2,0.4-0.1,0.9,0.3,1.1l2.7,1.5
		c0.4,0.2,0.9,0.1,1.1-0.3l3.9-6.8c1.7,0.9,3.5,1.6,5.3,2.3l-2.2,7.5c-0.1,0.4,0.1,0.9,0.5,1l2.9,0.9c0.4,0.1,0.9-0.1,1-0.5l2.2-7.5
		c2.5,0.6,5,1,7.7,1.1v7.8c0,0.5,0.4,0.8,0.8,0.8h3.1c0.5,0,0.8-0.4,0.8-0.8v-7.8c2.6-0.1,5.1-0.5,7.5-1l2.2,7.5
		c0.1,0.4,0.6,0.7,1,0.5l2.9-0.9c0.4-0.1,0.7-0.6,0.5-1l-2.2-7.5c1.9-0.6,3.7-1.5,5.4-2.3l3.9,6.8c0.2,0.4,0.7,0.5,1.1,0.3l2.7-1.5
		c0.4-0.2,0.5-0.7,0.3-1.1l-3.9-6.8c1.9-1.2,3.7-2.6,5.3-4.2l5.6,5.5c0.3,0.3,0.8,0.3,1.1,0l2.2-2.2c0.3-0.3,0.3-0.8,0-1.1l-5.4-5.6
		c1.4-1.5,2.6-3.1,3.7-4.8l6.8,4c0.4,0.2,0.9,0.1,1.1-0.3l1.6-2.7c0.2-0.4,0.1-0.9-0.3-1.1l-6.8-4c0.9-1.7,1.7-3.5,2.4-5.3l7.5,2.3
		c0.4,0.1,0.9-0.1,1-0.5l0.9-2.9c0.1-0.4-0.1-0.9-0.5-1l-7.5-2.3c0.6-2.6,1-5.3,1.2-8.1h7.8c0.5,0,0.8-0.4,0.8-0.8v-3.1
		C2090.9-209.1,2090.5-209.4,2090.1-209.4z M2038.7-179.7c-15.1,0-27.4-12.2-27.4-27.4c0-15.1,12.2-27.4,27.4-27.4
		s27.4,12.2,27.4,27.4C2066-191.9,2053.8-179.7,2038.7-179.7z"/>
</g>
<polygon points="2015.1,-396.9 2015.1,-369.6 2001.6,-369.6 2001.6,-140.9 1960.8,-140.9 1960.8,29.3 2001.6,29.3 2011.3,29.3 
	2015.1,29.3 2015.1,115.1 2094.9,115.1 2094.9,-396.9 "/>
</svg>
