<?xml version="1.0" encoding="utf-8"?>
<!-- Generator: Adobe Illustrator 19.0.0, SVG Export Plug-In . SVG Version: 6.00 Build 0)  -->
<svg version="1.1" id="manche_d" xmlns="http://www.w3.org/2000/svg" xmlns:xlink="http://www.w3.org/1999/xlink" x="0px" y="0px"
	 viewBox="543.3 -529.2 1551.6 681.8" style="enable-background:new 543.3 -529.2 1551.6 681.8;" xml:space="preserve">
<style type="text/css">
	.st0{fill:none;stroke:#000000;stroke-width:6;stroke-miterlimit:10;}
	.st1{fill:#2D2D2D;}
</style>
<path d="M1159.6-63.7v58.3c0,3.9,2.6,7,5.7,7h6.9v-72.3h-6.9C1162.2-70.7,1159.6-67.6,1159.6-63.7z"/>
<rect x="1175" y="-70.7" width="3.3" height="72.3"/>
<path d="M1217.6-57.3c0,1.8-1.7,3.2-3.7,3.2c-2.1,0-3.7-1.5-3.7-3.2v-2.6h-4.2v2.6c0,1.8-1.7,3.2-3.7,3.2c-2.1,0-3.7-1.5-3.7-3.2
	v-2.6h-4.2v2.6c0,1.8-1.7,3.2-3.7,3.2c-2.1,0-3.7-1.5-3.7-3.2v-2.6h-6.1v50.8h6.1v-2.5c0-1.8,1.7-3.2,3.7-3.2c2.1,0,3.7,1.5,3.7,3.2
	v2.5h4.2v-2.5c0-1.8,1.7-3.2,3.7-3.2c2.1,0,3.7,1.5,3.7,3.2v2.5h4.2v-2.5c0-1.8,1.7-3.2,3.7-3.2c2.1,0,3.7,1.5,3.7,3.2v2.5h6.5
	v-50.8h-6.5V-57.3z"/>
<path class="st0" d="M1258.6-10.9c36.6,13.2,36,59.1,65.7,82.7c20.5,16.3,52.6,16,76.4,4s40.3-33.5,51.3-56.2
	c7.3-15.1,13-31.4,25.8-43.1c13.6-12.4,33.1-17.4,51.7-21.9c10.5-2.5,21.7-5.1,32.1-2.3c12.9,3.5,21.5,14.2,30.9,23
	c20.4,19,53.7,30.7,78.7,17c19.9-10.9,17.8-41.3,51.5-41.7c18.8,3.8-1.3,18.6,6.8,25.7c8.1,7.1,22.7,14.5,27.1,5.1
	c2-4.3-10.2-22.3-10.1-27s28.2-2.5,37.2,0c44.6,10.8,74.7,41.4,120.8,34.2s88.8-27.2,134.4-36.8c24-5.1,43,0.9,65.1,10.7"/>
<g>
	<path d="M1336.1-46.8c0-3.2-2.7-6-5.8-6h-7v-1.4c0-0.8-0.6-1.5-1.5-1.5c-0.7,0-1.5,0.7-1.5,1.5v1.5h-2.9c-3.2,0-5.8,2.7-5.8,6v1.6
		h-69.1V-49c0-3.2-2.7-6-5.8-6h-1.7v-5.6c0-3-2.1-5.4-4.9-5.9v61.7c2.8-0.5,4.9-2.9,4.9-5.8v-3.2l3.1,3.4c4,4.6,12,5.7,17.7,2.5
		l2.6-1.5l7.7-4.8c3.5-3.3,4.1-8.3,1.1-12.1h44.6v1.6c0,3.2,2.7,6,5.8,6h2.9v1.4c0,0.8,0.6,1.5,1.5,1.5c0.7,0,1.5-0.7,1.5-1.5v-1.4
		h6.9c3.2,0,5.8-2.7,5.8-6v-1.7v-18.6l0,0V-46.8z"/>
	<path d="M2087.6-45.1h-76.1v-8c0-5.6-5.7-10.3-12.8-10.3h-27.4c-7,0-12.8,4.6-12.8,10.3v8h-108h-104.4h-127.5H1545h-196v18.6h171.1
		l12,0.1h99.1h12.9h81.9h10.7h221.9v14.7c0,5.6,5.7,10.3,12.8,10.3h27.4c7,0,12.8-4.6,12.8-10.3v-14.7h76.1V-45.1z"/>
</g>
<g>
	<path id="XMLID_43_" d="M2033-290.9c-7.3-2.6-15.2,0.6-18.8,7.3l28.8,10.2C2044.4-280.8,2040.3-288.3,2033-290.9z"/>
	<path id="XMLID_42_" d="M2022.7-261.7c7.3,2.6,15.2-0.6,18.8-7.3l-28.8-10.2C2011.3-271.8,2015.3-264.3,2022.7-261.7z"/>
	<path d="M2093.8-279.3h-10.1c-0.2-3.5-0.7-6.9-1.5-10.2l9.7-2.9c0.5-0.2,0.9-0.8,0.7-1.3l-1.2-3.8c-0.2-0.5-0.8-0.9-1.3-0.7
		l-9.7,2.9c-0.9-2.4-1.9-4.7-3.1-7l8.7-5.1c0.5-0.3,0.6-0.9,0.3-1.4l-2-3.4c-0.3-0.5-0.9-0.6-1.4-0.3l-8.7,5.1
		c-1.6-2.4-3.4-4.7-5.4-6.9l7-7.2c0.4-0.4,0.4-1,0-1.5l-2.9-2.8c-0.4-0.4-1-0.4-1.5,0l-7,7.2c-1.9-1.7-4-3.3-6.2-4.7l5.1-8.7
		c0.3-0.5,0.1-1.1-0.3-1.4l-3.4-2c-0.5-0.3-1.1-0.1-1.4,0.3l-5.1,8.7c-2.2-1.1-4.5-2.1-6.8-2.9l2.9-9.7c0.2-0.5-0.2-1.1-0.7-1.3
		l-3.8-1.1c-0.5-0.2-1.1,0.2-1.3,0.7l-2.9,9.7c-3.2-0.8-6.5-1.2-9.8-1.4v-10c0-0.6-0.5-1-1-1h-4c-0.6,0-1,0.5-1,1v10.1
		c-3.3,0.2-6.5,0.6-9.7,1.3l-2.8-9.7c-0.2-0.5-0.8-0.9-1.3-0.7l-3.8,1.1c-0.5,0.2-0.9,0.8-0.7,1.3l2.8,9.7c-2.4,0.8-4.8,1.9-7,3
		l-5.1-8.7c-0.3-0.5-0.9-0.6-1.4-0.3l-3.4,2c-0.5,0.3-0.6,0.9-0.3,1.4l5.1,8.7c-2.4,1.6-4.7,3.4-6.9,5.4l-7.3-7.1
		c-0.4-0.4-1-0.4-1.5,0l-2.8,2.8c-0.4,0.4-0.4,1,0,1.5l7.2,7.2c-1.7,1.9-3.3,4-4.8,6.1l-8.7-5.1c-0.5-0.3-1.1-0.1-1.4,0.3l-2,3.4
		c-0.3,0.5-0.1,1.1,0.3,1.4l8.7,5.1c-1.2,2.2-2.2,4.5-3,6.8l-9.7-2.9c-0.5-0.2-1.1,0.1-1.3,0.7l-1.2,3.8c-0.2,0.5,0.1,1.1,0.7,1.3
		l9.7,2.9c-0.8,3.3-1.3,6.8-1.5,10.4h-10c-0.6,0-1,0.5-1,1v4c0,0.6,0.5,1,1,1h10.1c0.2,3.5,0.7,6.9,1.5,10.2l-9.7,2.9
		c-0.5,0.2-0.9,0.8-0.7,1.3l1.2,3.8c0.2,0.5,0.8,0.9,1.3,0.7l9.7-2.9c0.9,2.4,1.9,4.7,3.1,7l-8.7,5.1c-0.5,0.3-0.6,0.9-0.3,1.4
		l2,3.4c0.3,0.5,0.9,0.6,1.4,0.3l8.7-5.1c1.6,2.4,3.4,4.7,5.4,6.9l-7,7.2c-0.4,0.4-0.4,1,0,1.5l2.9,2.8c0.4,0.4,1,0.4,1.5,0l7-7.2
		c1.9,1.7,4,3.3,6.2,4.7l-5.1,8.7c-0.3,0.5-0.1,1.1,0.3,1.4l3.4,2c0.5,0.3,1.1,0.1,1.4-0.3l5.1-8.7c2.2,1.1,4.5,2.1,6.8,2.9
		l-2.9,9.7c-0.2,0.5,0.2,1.1,0.7,1.3l3.8,1.1c0.5,0.2,1.1-0.2,1.3-0.7l2.9-9.7c3.2,0.8,6.5,1.2,9.8,1.4v10.1c0,0.6,0.5,1,1,1h4
		c0.6,0,1-0.5,1-1v-10.1c3.3-0.2,6.5-0.6,9.7-1.3l2.8,9.7c0.2,0.5,0.8,0.9,1.3,0.7l3.8-1.1c0.5-0.2,0.9-0.8,0.7-1.3l-2.8-9.7
		c2.4-0.8,4.8-1.9,7-3l5.1,8.7c0.3,0.5,0.9,0.6,1.4,0.3l3.4-2c0.5-0.3,0.6-0.9,0.3-1.4l-5.1-8.7c2.4-1.6,4.7-3.4,6.9-5.4l7.2,7.1
		c0.4,0.4,1,0.4,1.5,0l2.8-2.8c0.4-0.4,0.4-1,0-1.5l-7-7.2c1.7-1.9,3.3-4,4.8-6.1l8.7,5.1c0.5,0.3,1.1,0.1,1.4-0.3l2-3.4
		c0.3-0.5,0.1-1.1-0.3-1.4l-8.7-5.1c1.2-2.2,2.2-4.5,3-6.8l9.7,2.9c0.5,0.2,1.1-0.1,1.3-0.7l1.2-3.8c0.2-0.5-0.1-1.1-0.7-1.3
		l-9.7-2.9c0.8-3.3,1.3-6.8,1.5-10.4h10.1c0.6,0,1-0.5,1-1v-4C2094.8-278.9,2094.4-279.3,2093.8-279.3z M2027.8-241.2
		c-19.4,0-35.1-15.7-35.1-35.1s15.7-35.1,35.1-35.1s35.1,15.7,35.1,35.1S2047.3-241.2,2027.8-241.2z"/>
</g>
<g>
	<path id="XMLID_3_" d="M2042.7-218.5c-5.7-2-11.9,0.5-14.6,5.7l22.4,8C2051.6-210.6,2048.4-216.4,2042.7-218.5z"/>
	<path id="XMLID_2_" d="M2034.6-195.7c5.7,2,11.9-0.5,14.6-5.7l-22.4-8C2025.7-203.6,2028.9-197.7,2034.6-195.7z"/>
	<path d="M2090.1-209.4h-7.8c-0.1-2.7-0.5-5.3-1.1-7.9l7.5-2.3c0.4-0.1,0.7-0.6,0.5-1l-0.9-2.9c-0.1-0.4-0.6-0.7-1-0.5l-7.5,2.3
		c-0.7-1.9-1.5-3.7-2.4-5.4l6.8-4c0.4-0.2,0.5-0.7,0.3-1.1l-1.6-2.7c-0.2-0.4-0.7-0.5-1.1-0.3l-6.8,4c-1.3-1.9-2.7-3.7-4.2-5.3
		l5.5-5.6c0.3-0.3,0.3-0.8,0-1.1l-2.2-2.2c-0.3-0.3-0.8-0.3-1.1,0l-5.5,5.6c-1.5-1.3-3.1-2.5-4.8-3.7l3.9-6.8
		c0.2-0.4,0.1-0.9-0.3-1.1l-2.7-1.5c-0.4-0.2-0.9-0.1-1.1,0.3l-3.9,6.8c-1.7-0.9-3.5-1.6-5.3-2.3l2.2-7.5c0.1-0.4-0.1-0.9-0.5-1
		l-2.9-0.9c-0.4-0.1-0.9,0.1-1,0.5l-2.2,7.5c-2.5-0.6-5-1-7.7-1.1v-7.8c0-0.5-0.4-0.8-0.8-0.8h-3.1c-0.5,0-0.8,0.4-0.8,0.8v7.8
		c-2.6,0.1-5.1,0.5-7.5,1l-2.2-7.5c-0.1-0.4-0.6-0.7-1-0.5l-2.9,0.9c-0.4,0.1-0.7,0.6-0.5,1l2.2,7.5c-1.9,0.6-3.7,1.5-5.4,2.3
		l-3.9-6.8c-0.2-0.4-0.7-0.5-1.1-0.3l-2.7,1.5c-0.4,0.2-0.5,0.7-0.3,1.1l3.9,6.8c-1.9,1.2-3.7,2.6-5.3,4.2l-5.7-5.5
		c-0.3-0.3-0.8-0.3-1.1,0l-2.2,2.2c-0.3,0.3-0.3,0.8,0,1.1l5.6,5.6c-1.4,1.5-2.6,3.1-3.7,4.8l-6.8-4c-0.4-0.2-0.9-0.1-1.1,0.3
		l-1.6,2.7c-0.2,0.4-0.1,0.9,0.3,1.1l6.8,4c-0.9,1.7-1.7,3.5-2.4,5.3l-7.5-2.3c-0.4-0.1-0.9,0.1-1,0.5l-0.9,2.9
		c-0.1,0.4,0.1,0.9,0.5,1l7.5,2.3c-0.6,2.6-1,5.3-1.2,8.1h-7.8c-0.5,0-0.8,0.4-0.8,0.8v3.1c0,0.5,0.4,0.8,0.8,0.8h7.8
		c0.1,2.7,0.5,5.3,1.1,7.9l-7.5,2.3c-0.4,0.1-0.7,0.6-0.5,1l0.9,2.9c0.1,0.4,0.6,0.7,1,0.5l7.5-2.3c0.7,1.9,1.5,3.7,2.4,5.4l-6.8,4
		c-0.4,0.2-0.5,0.7-0.3,1.1l1.6,2.7c0.2,0.4,0.7,0.5,1.1,0.3l6.8-4c1.3,1.9,2.7,3.7,4.2,5.3l-5.5,5.6c-0.3,0.3-0.3,0.8,0,1.1
		l2.2,2.2c0.3,0.3,0.8,0.3,1.1,0l5.5-5.6c1.5,1.3,3.1,2.5,4.8,3.7l-3.9,6.8c-0.2,0.4-0.1,0.9,0.3,1.1l2.7,1.5
		c0.4,0.2,0.9,0.1,1.1-0.3l3.9-6.8c1.7,0.9,3.5,1.6,5.3,2.3l-2.2,7.5c-0.1,0.4,0.1,0.9,0.5,1l2.9,0.9c0.4,0.1,0.9-0.1,1-0.5l2.2-7.5
		c2.5,0.6,5,1,7.7,1.1v7.8c0,0.5,0.4,0.8,0.8,0.8h3.1c0.5,0,0.8-0.4,0.8-0.8v-7.8c2.6-0.1,5.1-0.5,7.5-1l2.2,7.5
		c0.1,0.4,0.6,0.7,1,0.5l2.9-0.9c0.4-0.1,0.7-0.6,0.5-1l-2.2-7.5c1.9-0.6,3.7-1.5,5.4-2.3l3.9,6.8c0.2,0.4,0.7,0.5,1.1,0.3l2.7-1.5
		c0.4-0.2,0.5-0.7,0.3-1.1l-3.9-6.8c1.9-1.2,3.7-2.6,5.3-4.2l5.6,5.5c0.3,0.3,0.8,0.3,1.1,0l2.2-2.2c0.3-0.3,0.3-0.8,0-1.1l-5.4-5.6
		c1.4-1.5,2.6-3.1,3.7-4.8l6.8,4c0.4,0.2,0.9,0.1,1.1-0.3l1.6-2.7c0.2-0.4,0.1-0.9-0.3-1.1l-6.8-4c0.9-1.7,1.7-3.5,2.4-5.3l7.5,2.3
		c0.4,0.1,0.9-0.1,1-0.5l0.9-2.9c0.1-0.4-0.1-0.9-0.5-1l-7.5-2.3c0.6-2.6,1-5.3,1.2-8.1h7.8c0.5,0,0.8-0.4,0.8-0.8v-3.1
		C2090.9-209.1,2090.5-209.4,2090.1-209.4z M2038.7-179.7c-15.1,0-27.4-12.2-27.4-27.4c0-15.1,12.2-27.4,27.4-27.4
		s27.4,12.2,27.4,27.4C2066-191.9,2053.8-179.7,2038.7-179.7z"/>
</g>
<rect x="2001.6" y="-124.2" width="26.6" height="153.5"/>
<rect x="543.3" y="-70.6" width="3.7" height="72.3"/>
<path d="M564.3-63.8v58.4c0,3.9-2.9,7-6.4,7h-7.8v-72.4h7.8C561.4-70.8,564.3-67.6,564.3-63.8z"/>
<g>
	<path d="M1164.4-63.8h-26.3l-2.4-5.9c-0.4-1-1.7-1.5-3.1-1.2c-1.3,0.3-2,1.3-1.6,2.3l2,4.8h-9.6l-2.4-5.9c-0.4-1-1.7-1.5-3.1-1.2
		c-1.3,0.3-2,1.3-1.6,2.3l2,4.8h-9.6l-2.4-5.9c-0.4-1-1.7-1.5-3.1-1.2c-1.3,0.3-2,1.3-1.6,2.3l2,4.8h-9.6l-2.4-5.9
		c-0.4-1-1.7-1.5-3.1-1.2c-1.3,0.3-2,1.3-1.6,2.3l2,4.8h-9.6l-2.4-5.9c-0.4-1-1.7-1.5-3.1-1.2s-2,1.3-1.6,2.3l2,4.8h-9.6l-2.4-5.9
		c-0.4-1-1.7-1.5-3.1-1.2c-1.3,0.3-2,1.3-1.6,2.3l2,4.8h-9.6l-2.4-5.9c-0.4-1-1.7-1.5-3.1-1.2c-1.3,0.3-2,1.3-1.6,2.3l2,4.8h-9.6
		l-2.4-5.9c-0.4-1-1.7-1.5-3.1-1.2s-2,1.3-1.6,2.3l2,4.8h-9.6l-2.4-5.9c-0.4-1-1.7-1.5-3.1-1.2s-2,1.3-1.6,2.3l2,4.8h-9.6l-2.4-5.9
		c-0.4-1-1.7-1.5-3.1-1.2c-1.3,0.3-2,1.3-1.6,2.3l2,4.8h-9.6l-2.4-5.9c-0.4-1-1.7-1.5-3.1-1.2s-2,1.3-1.6,2.3l2,4.8h-9.6l-2.4-5.9
		c-0.4-1-1.7-1.5-3.1-1.2s-2,1.3-1.6,2.3l2,4.8h-9.6l-2.4-5.9c-0.4-1-1.7-1.5-3.1-1.2s-2,1.3-1.6,2.3l2,4.8h-9.6l-2.4-5.9
		c-0.4-1-1.7-1.5-3.1-1.2c-1.3,0.3-2,1.3-1.6,2.3l2,4.8h-9.6l-2.4-5.9c-0.4-1-1.7-1.5-3.1-1.2c-1.3,0.3-2,1.3-1.6,2.3l2,4.8H919
		l-2.4-5.9c-0.4-1-1.7-1.5-3.1-1.2s-2,1.3-1.6,2.3l2,4.8h-9.6l-2.4-5.9c-0.4-1-1.7-1.5-3.1-1.2s-2,1.3-1.6,2.3l2,4.8h-9.6l-2.4-5.9
		c-0.4-1-1.7-1.5-3.1-1.2c-1.3,0.3-2,1.3-1.6,2.3l2,4.8h-9.6l-2.4-5.9c-0.4-1-1.7-1.5-3.1-1.2s-2,1.3-1.6,2.3l2,4.8h-9.6l-2.4-5.9
		c-0.4-1-1.7-1.5-3.1-1.2s-2,1.3-1.6,2.3l2,4.8H846l-2.4-5.9c-0.4-1-1.7-1.5-3.1-1.2s-2,1.3-1.6,2.3l2,4.8h-9.6l-2.4-5.9
		c-0.4-1-1.7-1.5-3.1-1.2c-1.3,0.3-2,1.3-1.6,2.3l2,4.8h-9.6l-2.4-5.9c-0.4-1-1.7-1.5-3.1-1.2c-1.3,0.3-2,1.3-1.6,2.3l2,4.8h-9.6
		l-2.4-5.9c-0.4-1-1.7-1.5-3.1-1.2s-2,1.3-1.6,2.3l2,4.8h-9.6l-2.4-5.9c-0.4-1-1.7-1.5-3.1-1.2c-1.3,0.3-2,1.3-1.6,2.3l2,4.8H773
		l-2.4-5.9c-0.4-1-1.7-1.5-3.1-1.2c-1.3,0.3-2,1.3-1.6,2.3l2,4.8h-9.6l-2.4-5.9c-0.4-1-1.7-1.5-3.1-1.2c-1.3,0.3-2,1.3-1.6,2.3
		l2,4.8h-9.6l-2.4-5.9c-0.4-1-1.7-1.5-3.1-1.2s-2,1.3-1.6,2.3l2,4.8h-9.6l-2.4-5.9c-0.4-1-1.7-1.5-3.1-1.2s-2,1.3-1.6,2.3l2,4.8
		h-9.6l-2.4-5.9c-0.4-1-1.7-1.5-3.1-1.2c-1.3,0.3-2,1.3-1.6,2.3l2,4.8H700l-2.4-5.9c-0.4-1-1.7-1.5-3.1-1.2c-1.3,0.3-2,1.3-1.6,2.3
		l2,4.8h-9.6l-2.4-5.9c-0.4-1-1.7-1.5-3.1-1.2s-2,1.3-1.6,2.3l2,4.8h-9.6l-2.4-5.9c-0.4-1-1.7-1.5-3.1-1.2s-2,1.3-1.6,2.3l2,4.8
		h-9.6l-2.4-5.9c-0.4-1-1.7-1.5-3.1-1.2c-1.3,0.3-2,1.3-1.6,2.3l2,4.8h-9.6l-2.4-5.9c-0.4-1-1.7-1.5-3.1-1.2c-1.3,0.3-2,1.3-1.6,2.3
		l2,4.8h-9.6l-2.4-5.9c-0.4-1-1.7-1.5-3.1-1.2c-1.3,0.3-2,1.3-1.6,2.3l2,4.8h-9.6l-2.4-5.9c-0.4-1-1.7-1.5-3.1-1.2s-2,1.3-1.6,2.3
		l2,4.8h-9.6l-2.4-5.9c-0.4-1-1.7-1.5-3.1-1.2c-1.3,0.3-2,1.3-1.6,2.3l1.9,4.8H583l-2.4-5.9c-0.4-1-1.7-1.5-3.1-1.2s-2,1.3-1.6,2.3
		l2,4.8h-7.4v9.5h-6.2v39.5h6.2v11.1h32.4l1.7,4.3c0.4,1,1.7,1.5,3.1,1.2c1.3-0.3,2-1.3,1.6-2.3l-1.3-3.2h10.9l1.7,4.3
		c0.4,1,1.7,1.5,3.1,1.2c1.3-0.3,2-1.3,1.6-2.3l-1.3-3.2h9.6l1.7,4.3c0.4,1,1.7,1.5,3.1,1.2c1.3-0.3,2-1.3,1.6-2.3l-1.3-3.2h9.6
		l1.7,4.3c0.4,1,1.7,1.5,3.1,1.2c1.3-0.3,2-1.3,1.6-2.3l-1.3-3.2h9.6l1.7,4.3c0.4,1,1.7,1.5,3.1,1.2c1.3-0.3,2-1.3,1.6-2.3l-1.3-3.2
		h9.6l1.7,4.3c0.4,1,1.7,1.5,3.1,1.2c1.3-0.3,2-1.3,1.6-2.3l-1.3-3.2h9.6l1.7,4.3c0.4,1,1.7,1.5,3.1,1.2c1.3-0.3,2-1.3,1.6-2.3
		l-1.3-3.2h9.6l1.7,4.3c0.4,1,1.7,1.5,3.1,1.2c1.3-0.3,2-1.3,1.6-2.3l-1.3-3.2h9.6l1.7,4.3c0.4,1,1.7,1.5,3.1,1.2
		c1.3-0.3,2-1.3,1.6-2.3l-1.3-3.2h9.6l1.7,4.3c0.4,1,1.7,1.5,3.1,1.2c1.3-0.3,2-1.3,1.6-2.3l-1.3-3.2h9.6l1.7,4.3
		c0.4,1,1.7,1.5,3.1,1.2c1.3-0.3,2-1.3,1.6-2.3l-1.3-3.2h9.6l1.7,4.3c0.4,1,1.7,1.5,3.1,1.2c1.3-0.3,2-1.3,1.6-2.3l-1.3-3.2h9.6
		l1.7,4.3c0.4,1,1.7,1.5,3.1,1.2c1.3-0.3,2-1.3,1.6-2.3l-1.3-3.2h9.6l1.7,4.3c0.4,1,1.7,1.5,3.1,1.2c1.3-0.3,2-1.3,1.6-2.3l-1.3-3.2
		h9.6l1.7,4.3c0.4,1,1.7,1.5,3.1,1.2c1.3-0.3,2-1.3,1.6-2.3l-1.3-3.2h9.6l1.7,4.3c0.4,1,1.7,1.5,3.1,1.2c1.3-0.3,2-1.3,1.6-2.3
		l-1.3-3.2h9.6l1.7,4.3c0.4,1,1.7,1.5,3.1,1.2c1.3-0.3,2-1.3,1.6-2.3l-1.3-3.2h9.6l1.7,4.3c0.4,1,1.7,1.5,3.1,1.2
		c1.3-0.3,2-1.3,1.6-2.3l-1.3-3.2h10.9l1.7,4.3c0.4,1,1.7,1.5,3.1,1.2c1.3-0.3,2-1.3,1.6-2.3l-1.3-3.2h9.6l1.7,4.3
		c0.4,1,1.7,1.5,3.1,1.2c1.3-0.3,2-1.3,1.6-2.3l-1.3-3.2h9.6l1.7,4.3c0.4,1,1.7,1.5,3.1,1.2c1.3-0.3,2-1.3,1.6-2.3l-1.3-3.2h9.6
		l1.7,4.3c0.4,1,1.7,1.5,3.1,1.2c1.3-0.3,2-1.3,1.6-2.3l-1.3-3.2h9.6l1.7,4.3c0.4,1,1.7,1.5,3.1,1.2c1.3-0.3,2-1.3,1.6-2.3l-1.3-3.2
		h9.6l1.7,4.3c0.4,1,1.7,1.5,3.1,1.2c1.3-0.3,2-1.3,1.6-2.3l-1.3-3.2h9.6l1.7,4.3c0.4,1,1.7,1.5,3.1,1.2c1.3-0.3,2-1.3,1.6-2.3
		l-1.3-3.2h9.6l1.7,4.3c0.4,1,1.7,1.5,3.1,1.2c1.3-0.3,2-1.3,1.6-2.3l-1.3-3.2h9.6l1.7,4.3c0.4,1,1.7,1.5,3.1,1.2
		c1.3-0.3,2-1.3,1.6-2.3l-1.3-3.2h9.6l1.7,4.3c0.4,1,1.7,1.5,3.1,1.2c1.3-0.3,2-1.3,1.6-2.3l-1.3-3.2h9.6l1.7,4.3
		c0.4,1,1.7,1.5,3.1,1.2c1.3-0.3,2-1.3,1.6-2.3l-1.3-3.2h9.6l1.7,4.3c0.4,1,1.7,1.5,3.1,1.2c1.3-0.3,2-1.3,1.6-2.3l-1.3-3.2h9.6
		l1.7,4.3c0.4,1,1.7,1.5,3.1,1.2c1.3-0.3,2-1.3,1.6-2.3l-1.3-3.2h9.6l1.7,4.3c0.4,1,1.7,1.5,3.1,1.2c1.3-0.3,2-1.3,1.6-2.3l-1.3-3.2
		h9.6l1.7,4.3c0.4,1,1.7,1.5,3.1,1.2c1.3-0.3,2-1.3,1.6-2.3l-1.3-3.2h9.6l1.7,4.3c0.4,1,1.7,1.5,3.1,1.2c1.3-0.3,2-1.3,1.6-2.3
		l-1.3-3.2h9.6l1.7,4.3c0.4,1,1.7,1.5,3.1,1.2c1.3-0.3,2-1.3,1.6-2.3l-1.3-3.2h6.9l1.7,4.3c0.4,1,1.7,1.5,3.1,1.2
		c1.3-0.3,2-1.3,1.6-2.3l-1.3-3.2h9.6l1.7,4.3c0.4,1,1.7,1.5,3.1,1.2c1.3-0.3,2-1.3,1.6-2.3l-1.3-3.2h9.6l1.7,4.3
		c0.4,1,1.7,1.5,3.1,1.2c1.3-0.3,2-1.3,1.6-2.3l-1.3-3.2h9.6l1.7,4.3c0.4,1,1.7,1.5,3.1,1.2c1.3-0.3,2-1.3,1.6-2.3l-1.3-3.2h1.5
		V-63.8z"/>
	<path class="st1" d="M1144.4-41.4H594.9c-2.4,0-4.3-1.9-4.3-4.3v0c0-2.4,1.9-4.3,4.3-4.3h549.4c2.4,0,4.3,1.9,4.3,4.3v0
		C1148.6-43.3,1146.7-41.4,1144.4-41.4z"/>
</g>
<polygon points="2015.1,-369.6 2001.6,-369.6 2001.6,-88.8 2015.1,-88.8 2015.1,115.1 2094.9,115.1 2094.9,-396.9 2015.1,-396.9 "/>
</svg>
