<?xml version="1.0" encoding="utf-8"?>
<!-- Generator: Adobe Illustrator 19.0.0, SVG Export Plug-In . SVG Version: 6.00 Build 0)  -->
<svg version="1.1" id="Calque_1" xmlns="http://www.w3.org/2000/svg" xmlns:xlink="http://www.w3.org/1999/xlink" x="0px" y="0px"
	 viewBox="113 -115 242 246" style="enable-background:new 113 -115 242 246;" xml:space="preserve">
<style type="text/css">
	.st0{fill:#0D0D0F;}
	.st1{fill:#FFFFFF;}
	.st2{fill:#FFFFFF;stroke:#1D1D1B;stroke-miterlimit:10;}
	.st3{fill:#FDFDFC;}
</style>
<g>
	<path id="XMLID_43_" class="st0" d="M242.9-17.1c-12.5-4.5-26.2,1.1-32.3,12.5L260.1,13C262.5,0.3,255.5-12.6,242.9-17.1z"/>
	<path id="XMLID_42_" class="st0" d="M225.1,33.1c12.5,4.5,26.2-1.1,32.3-12.5L207.9,3C205.5,15.7,212.5,28.6,225.1,33.1z"/>
	<path class="st0" d="M347.4,2.8h-17.3c-0.3-6-1.2-11.8-2.5-17.5l16.6-5c0.9-0.3,1.5-1.3,1.2-2.2l-2-6.5c-0.3-0.9-1.3-1.5-2.2-1.2
		l-16.6,5c-1.5-4.1-3.3-8.1-5.3-12l14.9-8.8c0.8-0.5,1.1-1.6,0.6-2.4l-3.5-5.9c-0.5-0.8-1.6-1.1-2.4-0.6L314-45.5
		c-2.8-4.2-5.9-8.1-9.3-11.8l12.1-12.4c0.7-0.7,0.7-1.8,0-2.5l-4.9-4.8c-0.7-0.7-1.8-0.7-2.5,0l-12.1,12.4
		c-3.3-2.9-6.9-5.6-10.6-8.1l8.7-15c0.5-0.8,0.2-1.9-0.6-2.4l-5.9-3.4c-0.8-0.5-1.9-0.2-2.4,0.6l-8.7,15c-3.8-1.9-7.7-3.6-11.7-5
		l4.9-16.6c0.3-0.9-0.3-1.9-1.2-2.2l-6.5-1.9c-0.9-0.3-1.9,0.3-2.2,1.2l-4.9,16.6c-5.5-1.3-11.1-2.1-16.9-2.4v-17.2
		c0-1-0.8-1.8-1.8-1.8h-6.8c-1,0-1.8,0.8-1.8,1.8v17.3c-5.7,0.3-11.2,1.1-16.6,2.3l-4.8-16.6c-0.3-0.9-1.3-1.5-2.2-1.2l-6.5,1.9
		c-0.9,0.3-1.5,1.3-1.2,2.2l4.8,16.6c-4.2,1.4-8.2,3.2-12,5.1l-8.7-15c-0.5-0.8-1.6-1.1-2.4-0.6l-5.9,3.4c-0.8,0.5-1.1,1.6-0.6,2.4
		l8.7,15c-4.2,2.7-8.1,5.8-11.8,9.2l-12.6-12.2c-0.7-0.7-1.8-0.7-2.5,0l-4.8,4.8c-0.7,0.7-0.7,1.8,0,2.5L162.1-56
		c-3,3.3-5.7,6.8-8.2,10.5L139-54.3c-0.8-0.5-1.9-0.2-2.4,0.6l-3.5,5.9c-0.5,0.8-0.2,1.9,0.6,2.4l14.9,8.8c-2,3.8-3.7,7.7-5.2,11.7
		l-16.6-5c-0.9-0.3-1.9,0.2-2.2,1.2l-2,6.5c-0.3,0.9,0.2,1.9,1.2,2.2l16.6,5c-1.4,5.7-2.3,11.7-2.6,17.8h-17.2c-1,0-1.8,0.8-1.8,1.8
		v6.8c0,1,0.8,1.8,1.8,1.8h17.3c0.3,6,1.2,11.8,2.5,17.5l-16.6,5c-0.9,0.3-1.5,1.3-1.2,2.2l2,6.5c0.3,0.9,1.3,1.5,2.2,1.2l16.6-5
		c1.5,4.1,3.3,8.1,5.3,12l-14.9,8.8c-0.8,0.5-1.1,1.6-0.6,2.4l3.5,5.9c0.5,0.8,1.6,1.1,2.4,0.6l14.9-8.8c2.8,4.2,5.9,8.1,9.3,11.8
		l-12.1,12.4c-0.7,0.7-0.7,1.8,0,2.5l4.9,4.8c0.7,0.7,1.8,0.7,2.5,0l12.1-12.4c3.3,2.9,6.9,5.6,10.6,8.1l-8.7,15
		c-0.5,0.8-0.2,1.9,0.6,2.4l5.9,3.4c0.8,0.5,1.9,0.2,2.4-0.6l8.7-15c3.8,1.9,7.7,3.6,11.7,5l-4.9,16.6c-0.3,0.9,0.3,1.9,1.2,2.2
		l6.5,1.9c0.9,0.3,1.9-0.3,2.2-1.2l4.9-16.6c5.5,1.3,11.1,2.1,16.9,2.4v17.3c0,1,0.8,1.8,1.8,1.8h6.8c1,0,1.8-0.8,1.8-1.8v-17.3
		c5.7-0.3,11.2-1.1,16.6-2.3l4.8,16.6c0.3,0.9,1.3,1.5,2.2,1.2l6.5-1.9c0.9-0.3,1.5-1.3,1.2-2.2L265.6,99c4.2-1.4,8.2-3.2,12-5.1
		l8.7,15c0.5,0.8,1.6,1.1,2.4,0.6l5.9-3.4c0.8-0.5,1.1-1.6,0.6-2.4l-8.7-15c4.2-2.7,8.1-5.8,11.8-9.2l12.3,12.2
		c0.7,0.7,1.8,0.7,2.5,0l4.8-4.8c0.7-0.7,0.7-1.8,0-2.5l-12-12.4c3-3.3,5.7-6.8,8.2-10.5l14.9,8.8c0.8,0.5,1.9,0.2,2.4-0.6l3.5-5.9
		c0.5-0.8,0.2-1.9-0.6-2.4l-14.9-8.8c2-3.8,3.7-7.7,5.2-11.7l16.6,5c0.9,0.3,1.9-0.2,2.2-1.2l2-6.5c0.3-0.9-0.2-1.9-1.2-2.2l-16.6-5
		c1.4-5.7,2.3-11.7,2.6-17.8h17.3c1,0,1.8-0.8,1.8-1.8V4.6C349.2,3.6,348.4,2.8,347.4,2.8z M234,68.4c-33.4,0-60.4-27-60.4-60.4
		s27-60.4,60.4-60.4s60.4,27,60.4,60.4S267.4,68.4,234,68.4z"/>
</g>
<g id="XMLID_104_">
	<polygon class="st1" points="138.5,-145 138.5,-191.6 125.7,-191.6 125.7,-145 125.7,-134.2 125.7,-132 157.1,-132 157.1,-145 	"/>
	<g>
		<path class="st1" d="M141-145c0-15.5,0-31.1,0-46.6c0-1.4-1.1-2.5-2.5-2.5c-4.3,0-8.5,0-12.8,0c-1.4,0-2.5,1.1-2.5,2.5
			c0,19.9,0,39.7,0,59.6c0,1.4,1.1,2.5,2.5,2.5c10.5,0,20.9,0,31.4,0c1.4,0,2.5-1.1,2.5-2.5c0-4.3,0-8.7,0-13c0-1.4-1.1-2.5-2.5-2.5
			c-6.2,0-12.4,0-18.6,0c-3.2,0-3.2,5,0,5c6.2,0,12.4,0,18.6,0c-0.8-0.8-1.7-1.7-2.5-2.5c0,4.3,0,8.7,0,13c0.8-0.8,1.7-1.7,2.5-2.5
			c-10.5,0-20.9,0-31.4,0c0.8,0.8,1.7,1.7,2.5,2.5c0-19.9,0-39.7,0-59.6c-0.8,0.8-1.7,1.7-2.5,2.5c4.3,0,8.5,0,12.8,0
			c-0.8-0.8-1.7-1.7-2.5-2.5c0,15.5,0,31.1,0,46.6C136-141.8,141-141.8,141-145z"/>
	</g>
</g>
<g id="XMLID_96_">
	<polygon class="st1" points="215.7,-145.8 215.7,-192.4 203,-192.4 203,-145.8 203,-135 203,-132.8 234.3,-132.8 234.3,-145.8 	"/>
	<g>
		<path class="st1" d="M218.2-145.8c0-15.5,0-31.1,0-46.6c0-1.4-1.1-2.5-2.5-2.5c-4.3,0-8.5,0-12.8,0c-1.4,0-2.5,1.1-2.5,2.5
			c0,19.9,0,39.7,0,59.6c0,1.4,1.1,2.5,2.5,2.5c10.5,0,20.9,0,31.4,0c1.4,0,2.5-1.1,2.5-2.5c0-4.3,0-8.7,0-13c0-1.4-1.1-2.5-2.5-2.5
			c-6.2,0-12.4,0-18.6,0c-3.2,0-3.2,5,0,5c6.2,0,12.4,0,18.6,0c-0.8-0.8-1.7-1.7-2.5-2.5c0,4.3,0,8.7,0,13c0.8-0.8,1.7-1.7,2.5-2.5
			c-10.5,0-20.9,0-31.4,0c0.8,0.8,1.7,1.7,2.5,2.5c0-19.9,0-39.7,0-59.6c-0.8,0.8-1.7,1.7-2.5,2.5c4.3,0,8.5,0,12.8,0
			c-0.8-0.8-1.7-1.7-2.5-2.5c0,15.5,0,31.1,0,46.6C213.2-142.6,218.2-142.6,218.2-145.8z"/>
	</g>
</g>
<g id="XMLID_88_">
	<polygon class="st1" points="182.1,-192.4 182.1,-151.5 181.8,-151.5 176.1,-144.9 170.3,-151.5 170.1,-151.5 170.1,-192.4 
		157.3,-192.4 157.3,-151.5 157.5,-151.5 176.1,-131.9 194.6,-151.5 194.8,-151.5 194.8,-192.4 	"/>
	<g>
		<path class="st1" d="M179.6-192.4c0,13.6,0,27.3,0,40.9c0.8-0.8,1.7-1.7,2.5-2.5c-3,0-6,5.3-7.8,7.3c1.2,0,2.4,0,3.5,0
			c-1.8-2-4.7-7.3-7.7-7.3c0.8,0.8,1.7,1.7,2.5,2.5c0-13.6,0-27.3,0-40.9c0-1.4-1.1-2.5-2.5-2.5c-4.3,0-8.5,0-12.8,0
			c-1.4,0-2.5,1.1-2.5,2.5c0,13.6,0,27.3,0,40.9c0,1.4,1.1,2.5,2.5,2.5c-2.1,0-1.6-1.3-0.8,0.1c0.5,0.8,1.4,1.5,2,2.1
			c2.2,2.3,4.3,4.6,6.5,6.9c3.1,3.3,6.2,6.5,9.3,9.8c0.9,1,2.6,1,3.5,0c3.1-3.3,6.2-6.5,9.3-9.8c2.1-2.2,4.2-4.4,6.2-6.6
			c0.7-0.7,1.6-1.4,2.1-2.2c1-1.4,1.3-0.2-0.6-0.2c1.4,0,2.5-1.1,2.5-2.5c0-13.6,0-27.3,0-40.9c0-1.4-1.1-2.5-2.5-2.5
			c-4.3,0-8.5,0-12.8,0c-3.2,0-3.2,5,0,5c4.3,0,8.5,0,12.8,0c-0.8-0.8-1.7-1.7-2.5-2.5c0,13.6,0,27.3,0,40.9
			c0.8-0.8,1.7-1.7,2.5-2.5c-1.6,0-2.4,1.2-3.4,2.3c-2.2,2.3-4.3,4.6-6.5,6.9c-3.5,3.7-7.1,7.5-10.6,11.2c1.2,0,2.4,0,3.5,0
			c-3.5-3.7-7.1-7.5-10.6-11.2c-2.1-2.2-4.2-4.4-6.3-6.6c-1-1.1-1.9-2.5-3.6-2.5c0.8,0.8,1.7,1.7,2.5,2.5c0-13.6,0-27.3,0-40.9
			c-0.8,0.8-1.7,1.7-2.5,2.5c4.3,0,8.5,0,12.8,0c-0.8-0.8-1.7-1.7-2.5-2.5c0,13.6,0,27.3,0,40.9c0,1.4,1.1,2.5,2.5,2.5
			c-2.1,0-1.5-1.1-0.4,0.6c0.5,0.7,1.2,1.4,1.7,2c1,1.1,1.9,2.2,2.9,3.3c0.8,1,2.7,1,3.5,0c1-1.1,1.9-2.2,2.9-3.3
			c0.5-0.6,1.3-1.3,1.7-2c1.1-1.7,1.6-0.6-0.4-0.6c1.4,0,2.5-1.1,2.5-2.5c0-13.6,0-27.3,0-40.9C184.6-195.6,179.6-195.6,179.6-192.4
			z"/>
	</g>
</g>
<g id="XMLID_67_">
	<path class="st1" d="M292.3-192.4h-12.8c0,0,0.4,41.3,0.2,41.3c-0.2,4-5.6,6.4-5.6,6.4h-1.2c0,0-5.4-2.4-5.6-6.4
		c-0.1,0,0.2-41.3,0.2-41.3h-12.8v40.5c0,0-0.3,18.1,18.2,19.8h1.2c18.4-1.7,18.2-19,18.2-19L292.3-192.4z"/>
	<g>
		<path class="st1" d="M292.3-194.9c-4.3,0-8.5,0-12.8,0c-1.3,0-2.5,1.1-2.5,2.5c0.1,13.1,0.2,26.2,0.2,39.3c0,0.6,0.1,1.3,0,1.9
			c0-0.3,0.3-1,0,0c-0.3,0.9-0.7,1.7-1.4,2.4c-0.7,0.7-1.7,1.1-2.5,1.7c-0.4,0.4,0.5,0.1,0.6,0.1c-0.6-0.4-1.2-0.7-1.8-1.1
			c-1.3-1-2-2.1-2.3-3.6c0.1,0.7,0.1,0.5,0.1-0.1c-0.2-6.8,0-13.6,0.1-20.4c0-6.7,0.1-13.4,0.1-20.2c0-1.4-1.2-2.5-2.5-2.5
			c-4.3,0-8.5,0-12.8,0c-1.4,0-2.5,1.1-2.5,2.5c0,10.4,0,20.8,0,31.2c0,7.2-0.6,14.4,3.1,21c6.9,12.4,25,14.2,34.2,3.4
			c5.1-6,5.2-13,5.2-20.3c0-11.7,0-23.5,0-35.2c0-3.2-5-3.2-5,0c0,8.9,0,17.7,0,26.6c0,6,0.9,12.9-0.6,18.8
			c-3.6,14-23.4,16.9-29.9,3.5c-2.7-5.5-2-11.8-2-17.7c0-10.4,0-20.8,0-31.2c-0.8,0.8-1.7,1.7-2.5,2.5c4.3,0,8.5,0,12.8,0
			c-0.8-0.8-1.7-1.7-2.5-2.5c0,6.9-0.1,13.8-0.1,20.7c0,6.8-1,14.5,0,21.3c0.5,3.5,3.8,7.3,7.3,8.2c3.4,0.9,7.2-2.5,8.7-5.1
			c1.4-2.3,1.2-4.8,1.2-7.4c0-4.2,0-8.4,0-12.6c-0.1-8.4-0.1-16.7-0.2-25.1c-0.8,0.8-1.7,1.7-2.5,2.5c4.3,0,8.5,0,12.8,0
			C295.5-189.9,295.5-194.9,292.3-194.9z"/>
	</g>
</g>
<path id="XMLID_9_" class="st2" d="M326.4-192.4l-11.9,0v0h-12.8v60.1h12.8v-22.6h11.1c0,0,18.1,0.3,19.8-18.2v-1.2
	C343.7-192.7,326.4-192.4,326.4-192.4z M332.9-173.1c0,0-2.4,5.4-6.4,5.6c0,0-5.2,0-11.9,0v-12.4c6.7,0,11.9,0,11.9,0
	c4,0.2,6.4,5.6,6.4,5.6V-173.1z"/>
<g id="XMLID_117_">
	<g id="XMLID_119_">
		<path class="st1" d="M431.2-200.6c-23,0-41.6,18.6-41.6,41.6c0,11.6,4.7,22,12.3,29.6c0,0,0,0,0,0c7.1,14.8,10.8,28.1,12.8,38.1
			h32.1c3-11.2,7.5-26,13.8-38.1c0,0,0,0,0,0c7.6-7.5,12.3-18,12.3-29.6C472.8-182,454.2-200.6,431.2-200.6z"/>
		<g>
			<path class="st3" d="M431.2-203.1c-16.9,0.3-32.5,9.8-39.9,25.2c-8,17-4.2,37,8.8,50.3c0.4-1.4,0.7-2.8,1.1-4.2c0,0,0,0,0,0
				c-1.6,0.5-2.2,2.2-1.5,3.7c5.7,12,9.9,24.5,12.5,37.5c0.2,1.1,1.4,1.8,2.4,1.8c10.7,0,21.4,0,32.1,0c1.1,0,2.1-0.8,2.4-1.8
				c1.7-6.6,3.7-13.1,5.9-19.5c2.3-6.6,4.6-14.4,9.3-19.7c8.2-9.1,12-21.8,10.7-34C472.5-186.2,453.5-202.7,431.2-203.1
				c-3.2-0.1-3.2,4.9,0,5c22.3,0.4,40.4,19.1,39.1,41.6c-0.4,6.4-2.4,12.6-5.7,18.1c-2.9,4.7-6.4,8-8.7,13
				c-4.9,10.8-8.5,22-11.5,33.4c0.8-0.6,1.6-1.2,2.4-1.8c-10.7,0-21.4,0-32.1,0c0.8,0.6,1.6,1.2,2.4,1.8c-2.7-13.4-7.2-26.3-13-38.7
				c-0.5,1.2-1,2.4-1.5,3.7c0,0,0,0,0,0c1.8-0.6,2.5-2.8,1.1-4.2c-11.7-12.1-15.1-30.3-7.4-45.4c6.7-13.2,20.2-21.3,35-21.5
				C434.4-198.2,434.4-203.2,431.2-203.1z"/>
		</g>
	</g>
	<g id="XMLID_116_">
		<rect x="418.5" y="-84.9" class="st1" width="25.4" height="9.2"/>
		<g>
			<path class="st3" d="M443.9-78.2c-8.5,0-17,0-25.4,0c0.8,0.8,1.7,1.7,2.5,2.5c0-3.1,0-6.1,0-9.2c-0.8,0.8-1.7,1.7-2.5,2.5
				c8.5,0,17,0,25.4,0c-0.8-0.8-1.7-1.7-2.5-2.5c0,3.1,0,6.1,0,9.2c0,3.2,5,3.2,5,0c0-3.1,0-6.1,0-9.2c0-1.4-1.1-2.5-2.5-2.5
				c-8.5,0-17,0-25.4,0c-1.4,0-2.5,1.1-2.5,2.5c0,3.1,0,6.1,0,9.2c0,1.4,1.1,2.5,2.5,2.5c8.5,0,17,0,25.4,0
				C447.1-73.2,447.1-78.2,443.9-78.2z"/>
		</g>
	</g>
	<g id="XMLID_120_">
		<polygon class="st1" points="439.4,-63.1 422.6,-63.1 418.5,-68.7 443.9,-68.7 		"/>
		<g>
			<path class="st3" d="M439.4-65.6c-5.6,0-11.2,0-16.8,0c0.7,0.4,1.4,0.8,2.2,1.2c-1.4-1.9-2.7-3.7-4.1-5.6
				c-0.7,1.3-1.4,2.5-2.2,3.8c8.5,0,17,0,25.4,0c-0.6-1.4-1.2-2.8-1.8-4.3c-1.5,1.9-3,3.7-4.5,5.6c-2,2.5,1.5,6,3.5,3.5
				c1.5-1.9,3-3.7,4.5-5.6c1.3-1.6,0.6-4.3-1.8-4.3c-8.5,0-17,0-25.4,0c-1.7,0-3.3,2.2-2.2,3.8c2.5,3.4,3.8,6.8,8.2,6.8
				c5,0,9.9,0,14.9,0C442.7-60.6,442.7-65.6,439.4-65.6z"/>
		</g>
	</g>
</g>
</svg>
