<?xml version="1.0" encoding="utf-8"?>
<!-- Generator: Adobe Illustrator 19.0.0, SVG Export Plug-In . SVG Version: 6.00 Build 0)  -->
<svg version="1.1" id="Calque_1" xmlns="http://www.w3.org/2000/svg" xmlns:xlink="http://www.w3.org/1999/xlink" x="0px" y="0px"
	 viewBox="0 0 242 246" style="enable-background:new 0 0 242 246;" xml:space="preserve">
<style type="text/css">
	.st0{fill:#0D0D0F;}
</style>
<g>
	<path id="XMLID_43_" class="st0" d="M129.9,97.9c-12.5-4.5-26.2,1.1-32.3,12.5l49.5,17.6C149.5,115.3,142.5,102.4,129.9,97.9z"/>
	<path id="XMLID_42_" class="st0" d="M112.1,148.1c12.5,4.5,26.2-1.1,32.3-12.5L94.9,118C92.5,130.7,99.5,143.6,112.1,148.1z"/>
	<path class="st0" d="M234.4,117.8h-17.3c-0.3-6-1.2-11.8-2.5-17.5l16.6-5c0.9-0.3,1.5-1.3,1.2-2.2l-2-6.5c-0.3-0.9-1.3-1.5-2.2-1.2
		l-16.6,5c-1.5-4.1-3.3-8.1-5.3-12l14.9-8.8c0.8-0.5,1.1-1.6,0.6-2.4l-3.5-5.9c-0.5-0.8-1.6-1.1-2.4-0.6L201,69.5
		c-2.8-4.2-5.9-8.1-9.3-11.8l12.1-12.4c0.7-0.7,0.7-1.8,0-2.5l-4.9-4.8c-0.7-0.7-1.8-0.7-2.5,0l-12.1,12.4
		c-3.3-2.9-6.9-5.6-10.6-8.1l8.7-15c0.5-0.8,0.2-1.9-0.6-2.4l-5.9-3.4c-0.8-0.5-1.9-0.2-2.4,0.6l-8.7,15c-3.8-1.9-7.7-3.6-11.7-5
		l4.9-16.6c0.3-0.9-0.3-1.9-1.2-2.2l-6.5-1.9c-0.9-0.3-1.9,0.3-2.2,1.2l-4.9,16.6c-5.5-1.3-11.1-2.1-16.9-2.4V9.6
		c0-1-0.8-1.8-1.8-1.8h-6.8c-1,0-1.8,0.8-1.8,1.8v17.3c-5.7,0.3-11.2,1.1-16.6,2.3l-4.8-16.6c-0.3-0.9-1.3-1.5-2.2-1.2l-6.5,1.9
		c-0.9,0.3-1.5,1.3-1.2,2.2l4.8,16.6c-4.2,1.4-8.2,3.2-12,5.1l-8.7-15c-0.5-0.8-1.6-1.1-2.4-0.6l-5.9,3.4c-0.8,0.5-1.1,1.6-0.6,2.4
		l8.7,15c-4.2,2.7-8.1,5.8-11.8,9.2L44.1,39.4c-0.7-0.7-1.8-0.7-2.5,0l-4.8,4.8c-0.7,0.7-0.7,1.8,0,2.5L49.1,59
		c-3,3.3-5.7,6.8-8.2,10.5l-14.9-8.8c-0.8-0.5-1.9-0.2-2.4,0.6l-3.5,5.9c-0.5,0.8-0.2,1.9,0.6,2.4l14.9,8.8c-2,3.8-3.7,7.7-5.2,11.7
		l-16.6-5c-0.9-0.3-1.9,0.2-2.2,1.2l-2,6.5c-0.3,0.9,0.2,1.9,1.2,2.2l16.6,5c-1.4,5.7-2.3,11.7-2.6,17.8H7.6c-1,0-1.8,0.8-1.8,1.8
		v6.8c0,1,0.8,1.8,1.8,1.8h17.3c0.3,6,1.2,11.8,2.5,17.5l-16.6,5c-0.9,0.3-1.5,1.3-1.2,2.2l2,6.5c0.3,0.9,1.3,1.5,2.2,1.2l16.6-5
		c1.5,4.1,3.3,8.1,5.3,12l-14.9,8.8c-0.8,0.5-1.1,1.6-0.6,2.4l3.5,5.9c0.5,0.8,1.6,1.1,2.4,0.6l14.9-8.8c2.8,4.2,5.9,8.1,9.3,11.8
		l-12.1,12.4c-0.7,0.7-0.7,1.8,0,2.5l4.9,4.8c0.7,0.7,1.8,0.7,2.5,0l12.1-12.4c3.3,2.9,6.9,5.6,10.6,8.1l-8.7,15
		c-0.5,0.8-0.2,1.9,0.6,2.4l5.9,3.4c0.8,0.5,1.9,0.2,2.4-0.6l8.7-15c3.8,1.9,7.7,3.6,11.7,5l-4.9,16.6c-0.3,0.9,0.3,1.9,1.2,2.2
		l6.5,1.9c0.9,0.3,1.9-0.3,2.2-1.2l4.9-16.6c5.5,1.3,11.1,2.1,16.9,2.4v17.3c0,1,0.8,1.8,1.8,1.8h6.8c1,0,1.8-0.8,1.8-1.8v-17.3
		c5.7-0.3,11.2-1.1,16.6-2.3l4.8,16.6c0.3,0.9,1.3,1.5,2.2,1.2l6.5-1.9c0.9-0.3,1.5-1.3,1.2-2.2l-4.8-16.6c4.2-1.4,8.2-3.2,12-5.1
		l8.7,15c0.5,0.8,1.6,1.1,2.4,0.6l5.9-3.4c0.8-0.5,1.1-1.6,0.6-2.4l-8.7-15c4.2-2.7,8.1-5.8,11.8-9.2l12.3,12.2
		c0.7,0.7,1.8,0.7,2.5,0l4.8-4.8c0.7-0.7,0.7-1.8,0-2.5L192.9,187c3-3.3,5.7-6.8,8.2-10.5l14.9,8.8c0.8,0.5,1.9,0.2,2.4-0.6l3.5-5.9
		c0.5-0.8,0.2-1.9-0.6-2.4l-14.9-8.8c2-3.8,3.7-7.7,5.2-11.7l16.6,5c0.9,0.3,1.9-0.2,2.2-1.2l2-6.5c0.3-0.9-0.2-1.9-1.2-2.2l-16.6-5
		c1.4-5.7,2.3-11.7,2.6-17.8h17.3c1,0,1.8-0.8,1.8-1.8v-6.8C236.2,118.6,235.4,117.8,234.4,117.8z M121,183.4
		c-33.4,0-60.4-27-60.4-60.4s27-60.4,60.4-60.4c33.4,0,60.4,27,60.4,60.4S154.4,183.4,121,183.4z"/>
</g>
</svg>
