<?xml version="1.0" encoding="utf-8"?>
<!-- Generator: Adobe Illustrator 19.0.0, SVG Export Plug-In . SVG Version: 6.00 Build 0)  -->
<svg version="1.1" id="Calque_1" xmlns="http://www.w3.org/2000/svg" xmlns:xlink="http://www.w3.org/1999/xlink" x="0px" y="0px"
	 viewBox="0 0 276 236" style="enable-background:new 0 0 276 236;" xml:space="preserve">
<style type="text/css">
	.st0{fill:#FFFFFF;}
	.st1{fill:#FDFDFD;}
</style>
<g id="XMLID_21_">
	<path id="XMLID_242_" class="st0" d="M141.2,176.4"/>
	<g id="XMLID_236_">
		<path id="XMLID_241_" class="st1" d="M141.2,178.9c3.2,0,3.2-5,0-5C137.9,173.9,137.9,178.9,141.2,178.9L141.2,178.9z"/>
	</g>
</g>
<g id="XMLID_42_">
	<path id="XMLID_235_" class="st0" d="M109.3,151.5c-36.2,13.4-58.4,1.3-58.4,1.3s27.3,15.6,50.7,10.7s51-6.6,43.9-1.1
		c-5.7,4.4-21,4.6-27.5,7.6c-1.6,0.7-2.7,1.6-3,2.8c-1.4,5.9-1.4,18-11.3,22.9c-9.9,4.9-26.2,4.9-26.2,10.9c0,6,0.7,18.6,11.3,10.9
		s47.5-44.7,63.7-44.8c16.3-0.1,34.5-27.9,34.5-27.9s0.7-0.9,1.4-2.1C191.7,136.5,194.8,119.8,109.3,151.5z"/>
	<g id="XMLID_229_">
		<path id="XMLID_234_" class="st1" d="M108.6,149.1c-16.7,6-39.8,10.5-56.5,1.6c-2.8-1.5-5.3,2.7-2.5,4.3
			c13.9,7.9,31.4,13.4,47.5,11.7c12-1.2,23.7-4.4,35.9-5c2.3-0.1,4.7-0.2,7-0.1c0.5,0,4.1,0.7,4.3,0.5c0.1,0,0.2,0.1,0.3,0.1
			c0.1-1.9-0.3-2.3-1.2-1.3c-0.8,0-2.4,1.2-3.3,1.5c-2.8,1-5.8,1.5-8.8,2.1c-4.4,0.8-9,1.3-13.2,2.9c-4.2,1.6-5.5,4-6.2,8.3
			c-0.7,4.1-1.3,8.4-3.4,12.1c-3,5.4-8.5,7.2-14.1,8.7c-5.5,1.5-17.8,2.2-19.3,9.3c-1,4.9,0.3,14.2,5.6,16.3
			c5.8,2.3,11.7-4,15.7-7.4c6.3-5.4,12.4-10.9,18.7-16.2c7.4-6.2,14.9-12.3,23.1-17.4c3-1.8,6.1-3.6,9.4-4.7
			c3.1-1.1,6.3-0.8,9.5-1.6c13.6-3.4,24.6-17.2,32-28.4c2.1-3.2,4.2-7.3,2.4-11.1c-3-6.2-12.7-5.3-18.2-4.7
			C151.1,133.1,129.3,141.5,108.6,149.1c-3,1.1-1.7,5.9,1.3,4.8c18.8-6.9,38.1-14,57.9-17.5c4.4-0.8,9.1-1.5,13.7-1
			c2.1,0.2,4.2,0.7,5.2,1.8c0.3,0.3,0.5,1.3,0.4,1.9c-0.5,2.2-0.7,2.4-2.3,4.7c-6.7,10.1-17.4,24.2-30.1,26.4
			c-2.8,0.5-5.4,0.4-8.1,1.3c-3.2,1-6.3,2.6-9.2,4.3c-7.2,4.2-13.8,9.3-20.2,14.5c-6.5,5.3-12.8,10.8-19,16.3
			c-2.5,2.2-11.7,12.3-15.5,11c-2.6-0.9-2.8-7-2.7-9.2c0.2-3.9,4.8-4.3,8.1-5.2c8.3-2.1,18.1-3.4,23.5-10.9
			c2.3-3.1,3.5-6.9,4.3-10.7c1.1-5.1,0.6-8.8,6.6-10.4c7.6-2,18.5-1.5,24.7-7c5-4.5-1.2-7.2-5.4-7.6c-11.3-0.9-23.3,1.2-34.4,3.2
			c-6.5,1.2-12.6,2.5-19.3,2c-6-0.4-11.9-1.7-17.6-3.4c-6.3-2-12.7-4.5-18.5-7.7c-0.8,1.4-1.7,2.9-2.5,4.3
			c17.9,9.6,42.4,5.4,60.4-1.1C113,152.8,111.7,148,108.6,149.1z"/>
	</g>
</g>
<g id="XMLID_53_">
	<path id="XMLID_228_" class="st0" d="M189.4,21.6c1,0.9,2.2,1.6,3.5,2.2C191,22.4,189.4,21.6,189.4,21.6z"/>
	<g id="XMLID_222_">
		<path id="XMLID_227_" class="st1" d="M187.7,23.4c1.2,1.1,2.6,1.9,4.1,2.6c1.2,0.5,2.7,0.4,3.4-0.9c0.7-1.3,0.3-2.6-0.9-3.4
			c-1.1-0.8-2.3-1.5-3.5-2.2c-1.2-0.6-2.8-0.3-3.4,0.9c-0.6,1.2-0.3,2.8,0.9,3.4c1.2,0.6,2.4,1.4,3.5,2.2c0.8-1.4,1.7-2.9,2.5-4.3
			c-0.6-0.3-1.2-0.6-1.8-0.9c-0.3-0.2-0.5-0.3-0.8-0.5c-0.3-0.2,0.2,0.2,0,0c-0.1-0.1-0.3-0.2-0.4-0.4c-1-0.9-2.6-1-3.5,0
			C186.8,20.8,186.7,22.4,187.7,23.4z"/>
	</g>
</g>
<g id="XMLID_56_">
	<path id="XMLID_221_" class="st0" d="M202.4,34.3c-0.6-1.9-1.8-3.7-3.3-5.3C201.5,33.9,203.4,37.5,202.4,34.3z"/>
	<g id="XMLID_215_">
		<path id="XMLID_220_" class="st1" d="M204.8,33.6c-0.8-2.4-2.2-4.5-3.9-6.4c-0.8-0.9-2.4-0.9-3.3-0.2c-1,0.8-1.2,2.1-0.6,3.2
			c1,2.1,1.9,4.5,3.3,6.4c1,1.3,2.8,2,4.1,0.6C205.4,36.2,205.2,34.9,204.8,33.6c-0.9-3.1-5.7-1.8-4.8,1.3c0.1,0.2,0.1,0.5,0.2,0.7
			c0,0.1,0,0.1,0,0.2c-0.1-0.3-0.1-0.7,0-1c0.4-0.5,0.8-1,1.1-1.5c0,0,0,0,0,0c0.6-0.1,1.3-0.2,1.9-0.3c0.6,0.1,1,0.5,1.3,0.9
			c0-0.1-0.1-0.1-0.1-0.2c-0.1-0.2-0.2-0.3-0.3-0.4c-0.3-0.5-0.5-0.9-0.8-1.4c-0.7-1.4-1.4-2.8-2.1-4.3c-1.3,1-2.6,2-3.9,3
			c1.1,1.2,2.1,2.6,2.6,4.2c0.4,1.3,1.7,2.1,3.1,1.7C204.3,36.4,205.2,34.9,204.8,33.6z"/>
	</g>
</g>
<g id="XMLID_5_">
	<path id="XMLID_214_" class="st0" d="M202.4,34.3c-0.6-1.9-1.8-3.7-3.3-5.3C201.5,33.9,203.4,37.5,202.4,34.3z"/>
	<g id="XMLID_208_">
		<path id="XMLID_213_" class="st1" d="M204.8,33.6c-0.8-2.4-2.2-4.5-3.9-6.4c-0.8-0.9-2.4-0.9-3.3-0.2c-1,0.8-1.2,2.1-0.6,3.2
			c1,2.1,1.9,4.5,3.3,6.4c1,1.3,2.8,2,4.1,0.6C205.4,36.2,205.2,34.9,204.8,33.6c-0.9-3.1-5.7-1.8-4.8,1.3c0.1,0.2,0.1,0.5,0.2,0.7
			c0,0.1,0,0.1,0,0.2c-0.1-0.3-0.1-0.7,0-1c0.4-0.5,0.8-1,1.1-1.5c0,0,0,0,0,0c0.6-0.1,1.3-0.2,1.9-0.3c0.6,0.1,1,0.5,1.3,0.9
			c0-0.1-0.1-0.1-0.1-0.2c-0.1-0.2-0.2-0.3-0.3-0.4c-0.3-0.5-0.5-0.9-0.8-1.4c-0.7-1.4-1.4-2.8-2.1-4.3c-1.3,1-2.6,2-3.9,3
			c1.1,1.2,2.1,2.6,2.6,4.2c0.4,1.3,1.7,2.1,3.1,1.7C204.3,36.4,205.2,34.9,204.8,33.6z"/>
	</g>
</g>
<g id="XMLID_2_">
	<path id="XMLID_207_" class="st0" d="M202.4,34.3c-0.6-1.9-1.8-3.7-3.3-5.3C201.5,33.9,203.4,37.5,202.4,34.3z"/>
	<g id="XMLID_200_">
		<path id="XMLID_206_" class="st1" d="M204.8,33.6c-0.8-2.4-2.2-4.5-3.9-6.4c-0.8-0.9-2.4-0.9-3.3-0.2c-1,0.8-1.2,2.1-0.6,3.2
			c1,2.1,1.9,4.5,3.3,6.4c1,1.3,2.8,2,4.1,0.6C205.4,36.2,205.2,34.9,204.8,33.6c-0.9-3.1-5.7-1.8-4.8,1.3c0.1,0.2,0.1,0.5,0.2,0.7
			c0,0.1,0,0.1,0,0.2c-0.1-0.3-0.1-0.7,0-1c0.4-0.5,0.8-1,1.1-1.5c0,0,0,0,0,0c0.6-0.1,1.3-0.2,1.9-0.3c0.6,0.1,1,0.5,1.3,0.9
			c0-0.1-0.1-0.1-0.1-0.2c-0.1-0.2-0.2-0.3-0.3-0.4c-0.3-0.5-0.5-0.9-0.8-1.4c-0.7-1.4-1.4-2.8-2.1-4.3c-1.3,1-2.6,2-3.9,3
			c1.1,1.2,2.1,2.6,2.6,4.2c0.4,1.3,1.7,2.1,3.1,1.7C204.3,36.4,205.2,34.9,204.8,33.6z"/>
	</g>
</g>
<g id="XMLID_4_">
	<path id="XMLID_199_" class="st0" d="M202.4,34.3c-0.6-1.9-1.8-3.7-3.3-5.3C201.5,33.9,203.4,37.5,202.4,34.3z"/>
	<g id="XMLID_192_">
		<path id="XMLID_197_" class="st1" d="M204.8,33.6c-0.8-2.4-2.2-4.5-3.9-6.4c-0.8-0.9-2.4-0.9-3.3-0.2c-1,0.8-1.2,2.1-0.6,3.2
			c1,2.1,1.9,4.5,3.3,6.4c1,1.3,2.8,2,4.1,0.6C205.4,36.2,205.2,34.9,204.8,33.6c-0.9-3.1-5.7-1.8-4.8,1.3c0.1,0.2,0.1,0.5,0.2,0.7
			c0,0.1,0,0.1,0,0.2c-0.1-0.3-0.1-0.7,0-1c0.4-0.5,0.8-1,1.1-1.5c0,0,0,0,0,0c0.6-0.1,1.3-0.2,1.9-0.3c0.6,0.1,1,0.5,1.3,0.9
			c0-0.1-0.1-0.1-0.1-0.2c-0.1-0.2-0.2-0.3-0.3-0.4c-0.3-0.5-0.5-0.9-0.8-1.4c-0.7-1.4-1.4-2.8-2.1-4.3c-1.3,1-2.6,2-3.9,3
			c1.1,1.2,2.1,2.6,2.6,4.2c0.4,1.3,1.7,2.1,3.1,1.7C204.3,36.4,205.2,34.9,204.8,33.6z"/>
	</g>
</g>
<g id="XMLID_13_">
	<path id="XMLID_188_" class="st0" d="M50.9,74.5c0.2,7.4,0.3,1.6,0.4-7.9C51,69.3,50.8,72,50.9,74.5z"/>
	<g id="XMLID_179_">
		<path id="XMLID_187_" class="st1" d="M48.4,74.5c0,1.2-0.1,2.8,0.3,4c0.2,0.8,0.9,1.6,1.7,1.7c0,0,0,0,0,0
			c1.4,0.2,2.6-0.3,3.1-1.7c0.4-1.1,0.2-2.6,0.2-3.8c0.1-2.7,0.1-5.4,0.1-8.2c0-1.4-1.2-2.5-2.5-2.5c-1.5,0-2.3,1.2-2.5,2.5
			C48.5,69.2,48.3,71.8,48.4,74.5c0.1,3.2,5.1,3.2,5,0c-0.1-2.6,0.1-5.3,0.4-7.9c-1.7,0-3.3,0-5,0c0,2.6-0.1,5.2-0.1,7.8
			c0,0.8,0,1.5-0.1,2.3c0,0.5-0.3,1.5,0,0.5c1-0.6,2.1-1.2,3.1-1.7c0,0,0,0,0,0c0.6,0.6,1.2,1.2,1.7,1.7c0.3,0.9,0,0.1,0-0.3
			c0-0.8-0.1-1.6-0.1-2.4C53.3,71.3,48.3,71.2,48.4,74.5z"/>
	</g>
</g>
<g id="XMLID_16_">
	<path id="XMLID_259_" class="st0" d="M266.3,101c0.2-1.7-0.2-3-0.2-3c-2.7-22.8-8.3-24.7-18.4-36.9c-10.1-12.2-15.4-28-22.9-32.1
		c-5.5-3.1-18.4-2-27.6-3.9c0.6,1.3,1.3,2.7,1.9,3.9c1.5,1.6,2.7,3.4,3.3,5.3c1,3.2-0.9-0.4-3.3-5.3c-1.9-2.1-4.2-3.9-6.1-5.2
		c-1.4-0.6-2.6-1.3-3.5-2.2c-7.1-6.7-25.6-17.1-40.9-11.5c-3.9,1.4-7.6,2.6-11.1,3.6c3.3,2.5,6.3,5.5,8.2,8.9
		c5.3,9.8-7.9,14-13.4,18.1c-4.5,3.4-21.9,5.5-21.9,5.5s9.6-0.5,24.2-17.4c8.3-9.6-0.7-11.8-10-12c-3.1,0.7-5,1-5,1S77,15,59.4,40.1
		c-0.5,0.3-1,0.5-1.5,0.8c-2.5,6.9-5.4,16.6-6.5,25.6c-0.2,9.5-0.2,15.3-0.4,7.9c-0.1-2.5,0.1-5.2,0.4-7.9
		c0.1-6.7,0.3-15.3,0.7-22.3c-21.9,13.5-36,34.6-36,58.3c0,11.8,2.4,22.7,6.9,32.1c1.9,1.4,3.7,1.9,4.8,2.7
		c3.8,2.6,12.5,0.8,16.2-4.6c3.6-5.4-2.8-9,0.5-13.6c3.3-4.6,5.7,10.4,5.7,10.4s6.8,22.6-21,15.2c12.9,17.1,35.3,27.4,66.1,27.4
		c0,0-6.2-2.7-15.5-8.8c-6.6-4.3,18.2-10.5,25.6-12.3c-14.1-0.8-42.4-3.8-35.8-14c8.7-13.5,21.3-14.3,21.3-14.3h6.7
		c0,0-20.8,9.8-19.4,14.3c1.1,3.7,22.4,6.5,41.8,7.4c4.3-2.4,10-5.6,17.3-9.5c65.4-34.9,49.3-44.7,48-49.4
		c-1.4-4.7-13.8-9.4-24.4-7.7c-10.6,1.7-7.3,9.2-16.6,10.5c-9.3,1.3,5.5-12.4,5.5-12.4s20.1-24.9,45.5,6.1
		c14.5,17.6-6.3,34.3-27,45.5c34-8.6,31.5,4.8,28.7,11.1c2.6,0.2,5.3,0.3,8,0.3c2.6,0,5.2-0.1,7.7-0.3c-3.5-2.3-4.8-6.6-1.8-14.2
		c10.4-25.6,21.8-39.1,29.3-31.5c7.5,7.6,7.5,13.8,7.5,13.8s0.5,4-4.8,0.6c-5.3-3.4-11.4-14.4-16.1,5.7c-4.7,20-3.8,15.4,17.1,17.6
		c13.7-6.7,22.4-16.9,22.4-28.2C266.3,102,266.3,101.5,266.3,101z M107.3,108.4c-23.9-12.2-35.2-23-25.9-27.3
		c9.3-4.3,15.6-3.2,15.6-3.2s4.2,0.3-0.4,3.7c-4.6,3.4-17.1,6.1,2.4,13c19.6,7,14.8,5.4,21.7-10.3c6.9-15.7,6.9,3.9,6.9,3.9
		S131.2,120.6,107.3,108.4z"/>
	<g id="XMLID_204_">
		<path id="XMLID_258_" class="st1" d="M268.8,101c0.3-8.7-2.4-19.2-6.9-26.7c-4.6-7.4-11.4-13.2-16.3-20.4
			c-5.6-8.2-9.5-19.4-17.4-25.7c-7.8-6.3-20.9-3.8-30.2-5.6c-2.2-0.4-3.8,1.7-2.8,3.7c1.1,2.4,4.8,6.8,5,9.2
			c1.1-0.8,2.1-1.6,3.2-2.4c1.2,1,1.4,0.9,0.6-0.1c-0.4-0.7-0.8-1.5-1.2-2.3c-0.8-1.5-1.4-2.9-2.5-4.1c-2.6-3-6.1-4.5-9.1-6.8
			c-4.5-3.4-8.6-6.7-13.8-9.1c-5.8-2.7-12.1-4.6-18.5-4.8c-7.8-0.2-14.8,3.2-22.1,5.3c-2.2,0.7-2.2,3.3-0.6,4.6
			c4.7,3.6,11.4,10,5.8,15.5c-3,3-7.4,5-11,7.2c-5.8,3.6-13.9,4.4-20.7,5.2c-3.1,0.4-3.3,5.2,0,5c9.4-0.6,18.3-9.6,24.1-16
			c3.5-3.8,8.9-10.2,3.9-14.9c-4.6-4.3-12.5-3.4-18-2.6c-1.5,0.2-0.2,0.1-1.8,0.1c-1.4,0-2.7-0.1-4.1-0.1c-4.8,0-9.7,0.4-14.5,1.1
			c-12.5,1.8-25.2,5.8-35,14c-3,2.5-5.8,5.5-8.3,8.3c-2.6,2.8-3.4,8.2-4.5,11.9c-1.4,5-2.8,10.3-3.3,15.6c-0.3,3.8,0.2,7.8-0.3,11.6
			c1.6-0.2,3.3-0.4,4.9-0.7c-1.2-2.8,0.3-10,0.4-13.8c0.1-6.4,0.3-12.7,0.6-19.1c0.1-1.9-2.2-3.1-3.8-2.2
			C36.7,50.9,24.8,63,18.4,78.4c-6.6,15.8-6.4,34.3-0.6,50.3c1.2,3.3,2.2,7.1,5.3,9c2.5,1.5,5.3,3,8.2,3.2
			c5.8,0.4,12.9-2.7,15.4-8.2c1.2-2.7,0.7-5.1,0-7.8c-0.2-0.8-1.4-4.6-1.6-4.1c-0.1,0.2,1.3,3.3,1.4,3.7c0.6,2.2,1.1,4.5,1.5,6.7
			c0.5,2.7,0.8,5.9-0.5,8.4c-3.1,6.2-12.5,4-17.7,2.7c-2.6-0.7-3.9,2.3-2.4,4.2c16.2,20.8,42.6,28,67.9,28.1c2.3,0,3.6-3.6,1.3-4.7
			c-2.8-1.3-5.5-2.8-8.2-4.3c-1.4-0.8-2.8-1.6-4.2-2.5c-0.8-0.5-2.9-2.5-3.1-1.5c-0.1,0.7,2.5-1.1,3.1-1.4c6.8-3.3,14.5-5,21.8-6.8
			c2.9-0.7,2.1-4.7-0.7-4.9c-6.9-0.4-13.8-1-20.6-2.4c-3.2-0.6-14-2.2-13.5-6.9c0.4-3.5,6.4-8.1,9.1-9.9c2.5-1.7,5.2-2.9,8.1-3.7
			c3-0.8,6-0.5,9-0.5c-0.4-1.6-0.8-3.1-1.3-4.7c-3.6,1.7-7.2,3.6-10.6,5.7c-3.3,2-9,5.1-10,9.3c-1,4.5,4.4,6.1,7.7,7
			c8.3,2.3,17.3,3,25.9,3.7c3.6,0.3,8.4,1.4,11.9,0.3c4-1.3,8.1-4.5,11.8-6.5c9.1-4.9,18.3-9.8,27.1-15.3
			c9.3-5.8,19.4-12.3,26.2-21.2c2.9-3.8,5.1-8.4,3.9-13.2c-0.8-3.2-2.6-6.8-4.4-8.7c-5.1-5.4-14.6-7-21.6-6.7
			c-7.2,0.4-10.5,3-15,8.1c-1.2,1.3-2.4,2.2-4.2,2.6c-0.5,0.1-1.6,0-2,0.2c0.3,0.4,0.6,0.8,0.9,1.1c0.1-0.1,0.1-0.3,0.2-0.4
			c1.7-1.4,3-4.2,4.6-5.8c1.4-1.4,2.8-2.9,4.2-4.3c9.5-9.4,22.2-9.3,32.6-1c9,7.2,16.2,17.1,9.2,28.2c-6.3,9.8-17.4,16.3-27.4,21.8
			c-2.5,1.4-0.8,5.2,1.9,4.6c6.8-1.7,32.4-7.8,25.9,7.5c-0.8,1.8,0.1,3.6,2.2,3.8c5.2,0.4,10.4,0.4,15.6,0c2.6-0.2,3.2-3.2,1.3-4.7
			c-4.5-3.4-1.1-10.3,0.6-14.3c2-4.6,4.2-9.2,6.6-13.6c2.7-4.8,7.2-13.7,13.3-15.1c5.9-1.3,9.5,8.6,10.7,12.9c0.1,0.2,0,0.5,0,0.7
			c0.3-0.3,0.6-0.6,0.9-1c-0.6-0.3-1.3-0.7-1.9-1c-0.4-0.3-0.8-0.6-1.3-1c-1.7-1.3-3.1-2.9-4.9-4.1c-11.4-7-14.4,14.6-15.6,21.3
			c-0.5,3.1-1,6.9,1.8,9.1c3,2.3,8.1,1.8,11.7,2c4.2,0.2,7.7,1.2,11.5-0.9c4.3-2.3,8.3-5.1,11.8-8.5
			C265.3,117.3,269.1,109.6,268.8,101c-0.1-3.2-5.1-3.2-5,0c0.4,10.1-6,18.1-14,23.6c-1.7,1.1-3.6,2.8-5.6,3.3c-2,0.6-4.5,0-6.6-0.1
			c-2.7-0.2-5.6-0.1-8.2-0.5c-4.2-0.7-1.9-5.4-1.2-8.5c0.9-4.1,1.6-8.9,3.7-12.6c1.4-2.5,2.3-2.6,4.5-1c3,2.3,7.6,8,11.9,5.7
			c3.2-1.7,2-6.1,1.1-8.7c-1.8-5-6-12.1-11.6-13.5c-4.8-1.1-9.2,2.3-12.3,5.5c-6.8,7.2-11.2,16.7-15,25.6
			c-3.1,7.1-6.2,15.6,1.2,21.1c0.4-1.6,0.8-3.1,1.3-4.7c-5.2,0.3-10.4,0.3-15.6,0c0.7,1.3,1.4,2.5,2.2,3.8c1.9-4.5,3-10.1-0.8-14
			c-7.2-7.3-22.5-2.8-30.8-0.8c0.6,1.5,1.3,3,1.9,4.6c12.9-7.1,33.6-19,33-36.3c-0.3-8.5-6.8-15.5-12.9-20.8
			c-5.2-4.4-11.3-7.9-18.2-8.5c-8.6-0.8-16.7,3.1-22.6,9.1c-3.3,3.3-11.3,9.4-10.1,14.7c1.1,4.8,8.2,2.9,11,1.1
			c2.2-1.4,3.4-3.5,5.1-5.4c3.2-3.5,8-3.9,12.5-3.7c6.1,0.3,13.1,2,16.1,7.6c0.4,0.8,1.4,2.5,1.5,2.7c1.4,3.6-0.3,7.2-2.8,10.5
			c-7.5,9.8-19.3,16.6-29.7,22.8c-9.8,5.8-19.9,11-29.9,16.5c-4.8,2.7-10.4,1.4-15.8,0.9c-5.6-0.5-11.1-1.1-16.6-2.1
			c-2.2-0.4-8.2-0.8-9.6-2.8c-0.4-0.5-0.1,1,0.3,0.3c0.3-0.6,0.9-1.1,1.4-1.5c1.2-1.1,2.5-2,3.8-2.9c4.1-2.7,8.4-5,12.8-7.1
			c2.3-1.1,1.1-4.7-1.3-4.7c-4.6,0-8.6-0.1-13,1.5c-4,1.5-7.6,3.7-10.8,6.5c-3,2.7-7.2,6.8-7.6,11c-0.7,6.5,7.5,9.3,12.4,10.6
			c8.7,2.4,17.9,3.2,26.8,3.7c-0.2-1.6-0.4-3.3-0.7-4.9c-4.9,1.2-9.7,2.4-14.5,4c-4,1.3-9.5,2.7-12.5,5.9c-2.7,2.9-1.2,5.5,1.6,7.4
			c4.6,3.1,9.6,6,14.7,8.3c0.4-1.6,0.8-3.1,1.3-4.7c-24.2-0.2-49-6.8-64.4-26.7c-0.8,1.4-1.6,2.8-2.4,4.2c8.9,2.2,21.8,3.1,24.5-8.2
			c1.1-4.9-0.2-10.6-1.5-15.4c-0.8-3-2.5-9-6.8-7.6c-6.8,2.2-1.1,10.4-2.4,14.4c-1.2,3.8-7,6.2-10.8,5.6c-5.5-0.8-7.6-5.2-9.2-10
			c-3.1-9.5-4.3-19.9-3.2-29.8c2.4-21.3,16.8-38.6,34.4-49.7c-1.3-0.7-2.5-1.4-3.8-2.2c-0.3,6.9-0.4,13.8-0.6,20.7
			c-0.1,3.8-1.7,9.8-0.2,13.5c1.1,2.7,4.5,2.2,4.9-0.7c0.8-6.4,0.2-12.7,1.7-19.1c0.9-3.9,1.9-7.7,3.1-11.4c1.1-3.5,2.4-5,4.7-7.8
			c7.3-8.9,18.1-13.8,29.1-16.5c7.9-1.9,16-2.7,24.1-2.7c4.7,0,21.5-2.6,18.6,4c-1.7,4-6.5,7.9-9.8,10.8c-2.5,2.2-5.2,4.3-8.1,6
			c-1.6,0.9-3.3,1.7-5,2.3c-0.5,0.2-2.1,0.4-1.5,0.4c0,1.7,0,3.3,0,5c4.4-0.5,8.9-1.3,13.3-2.3c5.7-1.3,9.8-3.7,14.8-6.7
			c4.4-2.6,9.8-5.8,10.8-11.3c1.2-7.1-5.5-13.2-10.5-17c-0.2,1.5-0.4,3-0.6,4.6c6.8-2,13.5-5.3,20.8-5.2c6.9,0.2,13.8,2.7,19.8,6
			c4.7,2.6,8.6,6.1,13.1,8.9c3.5,2.2,5.5,5,7.4,8.6c0.7,1.4,1.3,2.8,2.9,3.4c1.5,0.5,3.3-0.9,3.2-2.4c-0.3-4.3-3.9-7.9-5.7-11.7
			c-0.9,1.2-1.9,2.4-2.8,3.7c5.2,1,10.5,1.2,15.8,1.6c4.3,0.3,9.4,0.3,12.9,3.3c3.5,3,5.8,7.6,8.2,11.5c2.8,4.7,5.5,9.5,8.6,13.9
			c4.5,6.3,10.4,11.5,14.7,17.9c4.6,6.9,7.3,17,7,25.3C263.7,104.2,268.7,104.2,268.8,101z"/>
		<path id="XMLID_257_" class="st1" d="M108.6,106.3c-8.7-4.5-19.4-9.5-25.8-17.2c-1.2-1.4-2.5-2.9-1.7-4.7c1.3-2.9,10.6-4,13.5-4.1
			c0.4,0,1.2,0.1,1.6,0c0.6-0.2,0.4-0.2,0.2,0c2.9-2.7,0.2,0.7,0.5,0.1c1.5-3.1-2.3-0.4-2.5-0.3c-1.8,1.2-3.8,1.9-5.5,3.1
			c-3.9,2.9-3.7,6.8,0.2,9.6c3.1,2.3,7.1,3.5,10.8,4.8c3.5,1.3,7.2,2.8,10.9,3.3c4.2,0.6,6.6-1.3,8.2-5.1c1.2-2.8,2-5.7,3.2-8.5
			c0.6-1.5,2.8-4.5,3-6.1c0.2-0.2,0.4-0.4,0.5-0.6c-0.6-0.1-1.1-0.2-1.7-0.4c-0.1,0.3,0.5,1.6,0.6,2c0.5,2.3,0.5,4.8,0.6,7.2
			c0.2,4.4,0.1,9-1.4,13.1C121.3,110,114.8,109.3,108.6,106.3c-2.9-1.4-5.4,2.9-2.5,4.3c5.9,2.9,13.4,5,18.8-0.1
			c4-3.8,5.1-9.9,5.5-15.2c0.3-4.5,1.2-20.9-5.8-19.5c-3.1,0.6-4.7,4.8-5.8,7.3c-1.6,3.6-2.5,8-4.4,11.4c-1.1,2-1.9,1.8-4.2,1.2
			c-5.5-1.3-11.8-3.4-16.7-6.2c-0.5-0.3-2.2-1-2.3-1.6c-0.2-0.8-0.3,0.8,0.1-0.1c0.4-0.8,2.2-1.5,3-1.9c2.4-1.4,6.5-3,7.1-6.1
			c1.1-5.9-7.9-4.6-11.4-4c-6.7,1.2-17.7,4.9-12.9,13.7c2.1,3.8,5.9,6.8,9.4,9.3c6.2,4.6,12.9,8.3,19.8,11.8
			C108.9,112.1,111.4,107.8,108.6,106.3z"/>
	</g>
</g>
<g id="XMLID_1_">
	<path id="XMLID_177_" class="st0" d="M181.1,162.8c0,0,42.1-3.3,45.5-12.7c3.4-9.4-1.1-10.4-1.1-10.4l-8.6-2.3l-0.6,5.6
		c0,0-14.4,5.3-20.6,4.5C189.6,146.9,194.3,156.5,181.1,162.8z"/>
	<g id="XMLID_171_">
		<path id="XMLID_176_" class="st1" d="M181.1,165.3c13.2-1,27.8-2.4,40-7.8c6.2-2.7,11.4-8.8,8.9-16.2c-1.6-5-8.1-5.2-12.4-6.3
			c-1.7-0.4-3,0.8-3.2,2.4c-0.2,1.9-0.4,3.8-0.6,5.6c0.6-0.8,1.2-1.6,1.8-2.4c-2.8,1-5.7,1.9-8.5,2.7c-2.3,0.6-4.7,1.2-7.1,1.6
			c-2,0.3-4-0.1-5.9,0.2c-2.6,0.5-3.7,2.4-4.7,4.7c-2.2,5.1-4.5,8.2-9.6,10.8c-2.9,1.5-0.3,5.8,2.5,4.3c4.2-2.1,7.8-5,10-9.2
			c0.7-1.3,1-2.7,1.7-4c0.9-1.8,0.4-1.3,2.2-1.7c4.1-0.8,8.2-0.8,12.3-1.9c2.9-0.8,5.7-1.7,8.5-2.7c1.1-0.4,1.7-1.2,1.8-2.4
			c0.2-1.9,0.4-3.8,0.6-5.6c-1.1,0.8-2.1,1.6-3.2,2.4c2.4,0.6,4.8,1.2,7.2,1.9c1.7,0.5,1.9,0.3,1.9,2.8c0.1,7.4-7.3,9.2-13.1,10.7
			c-10.1,2.8-20.8,4.2-31.2,5C177.9,160.6,177.9,165.6,181.1,165.3z"/>
	</g>
</g>
</svg>
