<?xml version="1.0" encoding="utf-8"?>
<!-- Generator: Adobe Illustrator 19.0.0, SVG Export Plug-In . SVG Version: 6.00 Build 0)  -->
<svg version="1.1" id="Calque_1" xmlns="http://www.w3.org/2000/svg" xmlns:xlink="http://www.w3.org/1999/xlink" x="0px" y="0px"
	 viewBox="0 0 314.7 381.9" style="enable-background:new 0 0 314.7 381.9;" xml:space="preserve">
<style type="text/css">
	.st0{fill:#FFFFFF;}
</style>
<g id="XMLID_119_">
	<path id="XMLID_60_" class="st0" d="M165.8,143.8c2-8.1-3.9-16.7-14.4-24v110.4H79.2V103.1c-29,3.4-55.9,20.1-63.4,60.2
		C-2.9,263.3,112,363.8,112,363.8s151.6-49.5,181.3-147.4C323.1,118.5,174.4,108.7,165.8,143.8z"/>
	<g id="XMLID_53_">
		<path id="XMLID_59_" class="st0" d="M168.2,144.4c2.3-11.7-6.9-20.6-15.6-26.8c-1.6-1.1-3.8,0.4-3.8,2.2c0,32.2,0,64.5,0,96.7
			c0,4.6,0,9.1,0,13.7c0.8-0.8,1.7-1.7,2.5-2.5c-24.1,0-48.1,0-72.2,0c0.8,0.8,1.7,1.7,2.5,2.5c0-37.1,0-74.2,0-111.4
			c0-5.2,0-10.5,0-15.7c0-1.2-1.2-2.7-2.5-2.5c-16.2,2-31.7,7.8-43.8,19.1c-13.9,13-20.7,31.3-23.1,49.8
			c-4.7,36.5,7.2,72.8,24.7,104.5C51.8,301,71,325.7,92.3,348.1c5.3,5.6,10.7,11,16.4,16.2c2.5,2.3,4,2,7,0.9
			c46.1-16.3,91.5-40.4,128.1-72.9c23.8-21.1,44.7-47.7,52.9-78.9c6.4-24.2,2-49.4-17.1-66.6c-16.6-15-39.6-22.1-61.6-23.7
			c-15.9-1.1-38.5-0.4-50.3,12.2c-2.1,2.2-3.7,4.9-4.5,7.9C162.6,146.2,167.4,147.5,168.2,144.4c2.1-8,11.3-11.8,18.5-13.8
			c11.6-3.3,24.2-3.5,36.1-2.2c26,2.9,55.1,14.7,66.9,39.7c15.5,32.8-5.8,72.5-26.8,97.5c-24.5,29.2-56.9,51.2-90.3,68.9
			c-12.9,6.8-26.1,13-39.5,18.6c-4.4,1.8-8.9,3.6-13.4,5.3c-2.3,0.9-5.3,1.4-7.4,2.7c-0.3,0.2-0.7,0.2-1,0.3
			c0.8,0.2,1.6,0.4,2.4,0.6C92.7,343.6,74,321.3,58,298.3C30.1,258.1,6.4,206,19.9,156.2c3.8-14,11.1-27,22.6-36.2
			c10.5-8.4,23.5-12.9,36.7-14.5c-0.8-0.8-1.7-1.7-2.5-2.5c0,37.1,0,74.2,0,111.4c0,5.2,0,10.5,0,15.7c0,1.4,1.1,2.5,2.5,2.5
			c24.1,0,48.1,0,72.2,0c1.4,0,2.5-1.1,2.5-2.5c0-32.2,0-64.5,0-96.7c0-4.6,0-9.1,0-13.7c-1.3,0.7-2.5,1.4-3.8,2.2
			c6.6,4.7,15.1,12.1,13.3,21.2C162.8,146.2,167.6,147.6,168.2,144.4z"/>
	</g>
</g>
<g id="XMLID_6_">
	<polygon id="XMLID_52_" class="st0" points="173,70 115.8,10.1 58.6,70 92,70 96.2,70 96.2,216.7 135.4,216.7 135.4,70 139.6,70 	
		"/>
	<g id="XMLID_45_">
		<path id="XMLID_50_" class="st0" d="M174.7,68.2c-19.1-20-38.1-39.9-57.2-59.9c-0.9-1-2.6-1-3.5,0C95,28.3,75.9,48.2,56.9,68.2
			c-1.5,1.6-0.4,4.3,1.8,4.3c12.5,0,25,0,37.6,0c-0.8-0.8-1.7-1.7-2.5-2.5c0,42.8,0,85.5,0,128.3c0,6.1,0,12.3,0,18.4
			c0,1.4,1.1,2.5,2.5,2.5c13.1,0,26.1,0,39.2,0c1.4,0,2.5-1.1,2.5-2.5c0-42.8,0-85.5,0-128.3c0-6.1,0-12.3,0-18.4
			c-0.8,0.8-1.7,1.7-2.5,2.5c12.5,0,25,0,37.6,0c3.2,0,3.2-5,0-5c-12.5,0-25,0-37.6,0c-1.4,0-2.5,1.1-2.5,2.5c0,42.8,0,85.5,0,128.3
			c0,6.1,0,12.3,0,18.4c0.8-0.8,1.7-1.7,2.5-2.5c-13.1,0-26.1,0-39.2,0c0.8,0.8,1.7,1.7,2.5,2.5c0-42.8,0-85.5,0-128.3
			c0-6.1,0-12.3,0-18.4c0-1.4-1.1-2.5-2.5-2.5c-12.5,0-25,0-37.6,0c0.6,1.4,1.2,2.8,1.8,4.3c19.1-20,38.1-39.9,57.2-59.9
			c-1.2,0-2.4,0-3.5,0c19.1,20,38.1,39.9,57.2,59.9C173.4,74.1,176.9,70.5,174.7,68.2z"/>
	</g>
</g>
<g id="XMLID_31_">
	<polygon id="XMLID_44_" class="st0" points="245.9,58.5 237.1,49.7 220.7,66 204.4,49.7 195.6,58.5 211.9,74.9 195.6,91.2 
		204.4,100.1 220.7,83.7 237.1,100.1 245.9,91.2 229.6,74.9 	"/>
	<g id="XMLID_38_">
		<path id="XMLID_43_" class="st0" d="M247.7,56.8c-2.9-2.9-5.9-5.9-8.8-8.8c-1-1-2.6-1-3.5,0c-5.4,5.4-10.9,10.9-16.3,16.3
			c1.2,0,2.4,0,3.5,0c-5.4-5.4-10.9-10.9-16.3-16.3c-1-1-2.6-1-3.5,0c-2.9,2.9-5.9,5.9-8.8,8.8c-1,1-1,2.6,0,3.5
			c5.4,5.4,10.9,10.9,16.3,16.3c0-1.2,0-2.4,0-3.5c-5.4,5.4-10.9,10.9-16.3,16.3c-1,1-1,2.6,0,3.5c2.9,2.9,5.9,5.9,8.8,8.8
			c1,1,2.6,1,3.5,0c5.4-5.4,10.9-10.9,16.3-16.3c-1.2,0-2.4,0-3.5,0c5.4,5.4,10.9,10.9,16.3,16.3c1,1,2.6,1,3.5,0
			c2.9-2.9,5.9-5.9,8.8-8.8c1-1,1-2.6,0-3.5c-5.4-5.4-10.9-10.9-16.3-16.3c0,1.2,0,2.4,0,3.5c5.4-5.4,10.9-10.9,16.3-16.3
			c2.3-2.3-1.3-5.8-3.5-3.5c-5.4,5.4-10.9,10.9-16.3,16.3c-1,1-1,2.6,0,3.5c5.4,5.4,10.9,10.9,16.3,16.3c0-1.2,0-2.4,0-3.5
			c-2.9,2.9-5.9,5.9-8.8,8.8c1.2,0,2.4,0,3.5,0c-5.4-5.4-10.9-10.9-16.3-16.3c-1-1-2.6-1-3.5,0c-5.4,5.4-10.9,10.9-16.3,16.3
			c1.2,0,2.4,0,3.5,0c-2.9-2.9-5.9-5.9-8.8-8.8c0,1.2,0,2.4,0,3.5c5.4-5.4,10.9-10.9,16.3-16.3c1-1,1-2.6,0-3.5
			c-5.4-5.4-10.9-10.9-16.3-16.3c0,1.2,0,2.4,0,3.5c2.9-2.9,5.9-5.9,8.8-8.8c-1.2,0-2.4,0-3.5,0c5.4,5.4,10.9,10.9,16.3,16.3
			c1,1,2.6,1,3.5,0c5.4-5.4,10.9-10.9,16.3-16.3c-1.2,0-2.4,0-3.5,0c2.9,2.9,5.9,5.9,8.8,8.8C246.4,62.6,250,59,247.7,56.8z"/>
	</g>
</g>
<g id="XMLID_25_">
	<path id="XMLID_107_" class="st0" d="M276.7,49.7l-11.7,0v0h-12.5v50.4H265V81.1h10.9c0,0,17.7,0.2,19.4-15.2v-1
		C293.6,49.5,276.7,49.7,276.7,49.7z M283,65.9c0,0-2.3,4.5-6.3,4.7c0,0-5.1,0-11.7,0V60.2c6.6,0,11.7,0,11.7,0
		c3.9,0.2,6.3,4.7,6.3,4.7V65.9z"/>
	<g id="XMLID_58_">
		<path id="XMLID_106_" class="st0" d="M276.7,47.2c-3.9,0-7.8,0-11.7,0c0.8,0.8,1.7,1.7,2.5,2.5c0,0,0,0,0,0c0-1.4-1.1-2.5-2.5-2.5
			c-4.2,0-8.3,0-12.5,0c-1.4,0-2.5,1.1-2.5,2.5c0,16.8,0,33.6,0,50.4c0,1.4,1.1,2.5,2.5,2.5c4.2,0,8.3,0,12.5,0
			c1.4,0,2.5-1.1,2.5-2.5c0-6.3,0-12.6,0-18.9c-0.8,0.8-1.7,1.7-2.5,2.5c10.8,0,24.1,1,30.4-10C303.1,60.3,290.2,47.1,276.7,47.2
			c-3.2,0-3.2,5,0,5c3.6,0,7.5,1.1,10.4,3.1c6.6,4.5,7.4,13.7,1.3,19.1c-6.3,5.5-15.7,4.3-23.4,4.3c-1.4,0-2.5,1.1-2.5,2.5
			c0,6.3,0,12.6,0,18.9c0.8-0.8,1.7-1.7,2.5-2.5c-4.2,0-8.3,0-12.5,0c0.8,0.8,1.7,1.7,2.5,2.5c0-16.8,0-33.6,0-50.4
			c-0.8,0.8-1.7,1.7-2.5,2.5c4.2,0,8.3,0,12.5,0c-0.8-0.8-1.7-1.7-2.5-2.5c0,0,0,0,0,0c0,1.4,1.1,2.5,2.5,2.5c3.9,0,7.8,0,11.7,0
			C279.9,52.2,279.9,47.2,276.7,47.2z"/>
		<path id="XMLID_105_" class="st0" d="M280.8,64.7c-2.9,5.4-10.7,3.5-15.8,3.4c0.8,0.8,1.7,1.7,2.5,2.5c0-3.5,0-6.9,0-10.4
			c-0.8,0.8-1.7,1.7-2.5,2.5c3.5,0,8.3-0.3,11.2,0c1.3,0.1,2.5,1,3.8,2.2c0.3,0.3,0.5,0.7,0.7,1.1c-0.1-0.2-0.2-1.5-0.2-0.1
			c0,3.2,5,3.2,5,0c0-3.3-2.9-6.2-5.8-7.5c-4.2-1.8-10.2-0.7-14.6-0.7c-1.4,0-2.5,1.1-2.5,2.5c0,3.5,0,6.9,0,10.4
			c0,1.4,1.1,2.5,2.5,2.5c7.3,0,15.9,1.8,20.1-5.9C286.7,64.3,282.3,61.8,280.8,64.7z"/>
	</g>
</g>
</svg>
