<?xml version="1.0" encoding="utf-8"?>
<!-- Generator: Adobe Illustrator 19.0.0, SVG Export Plug-In . SVG Version: 6.00 Build 0)  -->
<svg version="1.1" id="Calque_1" xmlns="http://www.w3.org/2000/svg" xmlns:xlink="http://www.w3.org/1999/xlink" x="0px" y="0px"
	 viewBox="0 0 611 514" style="enable-background:new 0 0 611 514;" xml:space="preserve">
<style type="text/css">
	.st0{fill:#010202;}
	.st1{fill:#010202;stroke:#010202;stroke-miterlimit:10;}
	.st2{fill:#262523;}
	.st3{fill:#605C54;}
</style>
<g id="XMLID_101_">
	<g id="XMLID_102_">
		<polygon id="XMLID_159_" class="st0" points="11.9,375.9 353.6,508 474,195.4 165.7,76.6 		"/>
		<g id="XMLID_154_">
			<path id="XMLID_158_" class="st0" d="M9.9,383.2c11.4,4.4,22.7,8.8,34.1,13.2c27.1,10.5,54.2,21,81.3,31.4
				c33,12.7,65.9,25.5,98.9,38.2c28.5,11,57,22,85.5,33c9.3,3.6,18.7,7.2,28,10.8c4.4,1.7,8.8,3.8,13.4,5.2c0.2,0.1,0.4,0.2,0.6,0.2
				c4,1.6,7.9-1.8,9.2-5.2c13.6-35.4,27.3-70.9,40.9-106.3c21.6-56,43.1-112,64.7-168c4.9-12.8,9.8-25.5,14.8-38.3
				c1.6-4-1.8-7.9-5.2-9.2c-34.9-13.4-69.7-26.9-104.6-40.3c-55.2-21.3-110.4-42.5-165.6-63.8c-12.7-4.9-25.4-9.8-38.1-14.7
				c-2.9-1.1-7.1,0.7-8.5,3.4c-17.3,33.7-34.6,67.4-52,101.1C79.6,227.7,52,281.4,24.4,335.1c-6.3,12.3-12.7,24.7-19,37
				c-4.4,8.6,8.5,16.2,13,7.6c17.3-33.7,34.6-67.4,52-101.1c27.6-53.7,55.2-107.4,82.8-161.2c6.3-12.3,12.7-24.7,19-37
				c-2.8,1.1-5.6,2.3-8.5,3.4c34.9,13.4,69.7,26.9,104.6,40.3c55.2,21.3,110.4,42.5,165.6,63.8c12.7,4.9,25.4,9.8,38.1,14.7
				c-1.7-3.1-3.5-6.2-5.2-9.2c-13.6,35.4-27.3,70.9-40.9,106.3c-21.6,56-43.1,112-64.7,168c-4.9,12.8-9.8,25.5-14.8,38.3
				c3.1-1.7,6.2-3.5,9.2-5.2c-11.4-4.4-22.7-8.8-34.1-13.2c-27.1-10.5-54.2-21-81.3-31.4c-33-12.7-65.9-25.5-98.9-38.2
				c-28.5-11-57-22-85.5-33c-9.3-3.6-18.7-7.2-28-10.8c-4.4-1.7-8.8-3.8-13.4-5.2c-0.2-0.1-0.4-0.2-0.6-0.2
				c-3.8-1.5-8.2,1.6-9.2,5.2C3.4,378.2,6.1,381.7,9.9,383.2z"/>
		</g>
	</g>
	<g id="XMLID_104_">
		<polygon id="XMLID_132_" class="st0" points="474,195.4 353.6,508 448,503.9 514,330.4 		"/>
		<g id="XMLID_125_">
			<path id="XMLID_130_" class="st0" d="M466.8,193.4c-13.6,35.4-27.3,70.9-40.9,106.3c-21.6,56-43.1,112-64.7,168
				c-4.9,12.8-9.8,25.5-14.8,38.3c-1.7,4.5,2.7,9.7,7.2,9.5c27.5-1.2,55-2.4,82.5-3.6c4-0.2,7.9-0.3,11.9-0.5c3.6-0.2,6-2.3,7.2-5.5
				c17-44.7,34.1-89.5,51.1-134.2c3.9-10.2,7.7-20.3,11.6-30.5c1.6-4.2,4.3-8.7,3.2-13.3c-1.8-7.6-4.5-15.2-6.7-22.7
				c-4.2-14.1-8.4-28.2-12.5-42.3c-6.9-23.1-13.7-46.3-20.6-69.4c-2.7-9.2-17.2-5.3-14.5,4c11.7,39.3,23.3,78.7,35,118
				c1.7,5.7,3.4,11.3,5,17c0-1.3,0-2.7,0-4c-7.5,19.6-14.9,39.2-22.4,58.8c-11.8,31.1-23.6,62.1-35.5,93.2
				c-2.7,7.2-5.5,14.4-8.2,21.6c2.4-1.8,4.8-3.7,7.2-5.5c-27.5,1.2-55,2.4-82.5,3.6c-4,0.2-7.9,0.3-11.9,0.5
				c2.4,3.2,4.8,6.3,7.2,9.5c13.6-35.4,27.3-70.9,40.9-106.3c21.6-56,43.1-112,64.7-168c4.9-12.8,9.8-25.5,14.8-38.3
				C484.7,188.3,470.2,184.4,466.8,193.4z"/>
		</g>
	</g>
</g>
<g id="XMLID_89_">
	<g id="XMLID_87_">
		<g id="XMLID_131_">
			<path id="XMLID_152_" class="st0" d="M428.8,243.1c34.6-6.3,69-13.3,103.3-21.1c5.8-1.3,6.9-8.6,3.3-12.5
				c-14.7-16-29.4-32-44.1-48.1c-1.1,4.2-2.2,8.4-3.3,12.5c30.8-6.1,61.5-12.3,92.3-18.4c5.1-1,6.4-7,4.5-11
				c-2.4-5-4.7-10.1-6.8-15.2c-1-2.6-2-5.2-3-7.8c-0.7-2-2.8-5.8-2.5-7.9c0.3-1.7,2.4-3.3,3.5-4.5c2-2.2,4.1-4.4,6.2-6.6
				c4.3-4.6,8.7-9.2,13-13.9c6.6-7-4-17.7-10.6-10.6c-5.2,5.6-10.5,11.2-15.7,16.8c-4.6,4.9-10.5,9.9-11.2,16.9
				c-0.6,6.7,2.7,13.7,5.1,19.8c2.7,7,5.7,13.8,8.9,20.6c1.5-3.7,3-7.3,4.5-11c-30.8,6.1-61.5,12.3-92.3,18.4
				c-5.8,1.2-6.9,8.7-3.3,12.5c14.7,16,29.4,32,44.1,48.1c1.1-4.2,2.2-8.4,3.3-12.5c-34.3,7.8-68.7,14.8-103.3,21.1
				C415.3,230.4,419.4,244.8,428.8,243.1L428.8,243.1z"/>
		</g>
	</g>
	<circle id="XMLID_88_" class="st1" cx="593" cy="83.3" r="17"/>
</g>
<g id="XMLID_2_">
	<circle id="XMLID_1_" class="st2" cx="186.5" cy="238.5" r="34.5"/>
	<circle id="XMLID_3_" class="st3" cx="186.5" cy="238.5" r="28"/>
</g>
<g id="XMLID_5_">
	<circle id="XMLID_7_" class="st2" cx="285.5" cy="295.1" r="43.5"/>
	<circle id="XMLID_6_" class="st3" cx="285.5" cy="295.1" r="35.3"/>
</g>
</svg>
