<svg id="Calque_1" data-name="Calque 1" xmlns="http://www.w3.org/2000/svg" xmlns:xlink="http://www.w3.org/1999/xlink" viewBox="0 0 56 68"><defs><style>.cls-1{fill:none;}.cls-2{clip-path:url(#clip-path);}.cls-3{clip-path:url(#clip-path-2);}.cls-4{fill:#747474;opacity:0.76;}.cls-5{clip-path:url(#clip-path-3);}.cls-6{clip-path:url(#clip-path-5);}.cls-7{clip-path:url(#clip-path-6);}.cls-8{clip-path:url(#clip-path-7);}.cls-9{clip-path:url(#clip-path-9);}</style><clipPath id="clip-path" transform="translate(5 5)"><path class="cls-1" d="M44,22.36v-.07a1.77,1.77,0,0,0,.1.71A1.45,1.45,0,0,1,44,22.36Z"/></clipPath><clipPath id="clip-path-2" transform="translate(5 5)"><rect class="cls-1" x="-490" y="-644" width="1024" height="768"/></clipPath><clipPath id="clip-path-3" transform="translate(5 5)"><path class="cls-1" d="M28.66,55.21a14.2,14.2,0,0,1-8.49-2.7L20,52.33a1.91,1.91,0,0,0-.55-.36,15,15,0,0,1-3-3.33L6,26.84a2,2,0,0,1,.09-1.62,2,2,0,0,1,1.19-1.08A2.18,2.18,0,0,1,10,25.4a.09.09,0,0,0,.09.09l4.29,9a1.54,1.54,0,0,0,1.64.81A1.44,1.44,0,0,0,17.16,34V5a2.19,2.19,0,0,1,4.38,0V23a1.46,1.46,0,0,0,2.92,0,2.19,2.19,0,0,1,4.38,0v2.16a1.46,1.46,0,0,0,2.92,0,2.19,2.19,0,0,1,4.38,0v2.16a1.46,1.46,0,0,0,2.92,0,2.19,2.19,0,0,1,4.38,0V41.7A14.88,14.88,0,0,1,28.66,55.21ZM41,22.34a5,5,0,0,0-2.65.72,5.1,5.1,0,0,0-7.21-2.16A5.06,5.06,0,0,0,26.56,18a5.94,5.94,0,0,0-2.19.45V5a5,5,0,0,0-5-5,5,5,0,0,0-5,5V27.47l-1.55-3.15A5.15,5.15,0,0,0,8,21.07a5.8,5.8,0,0,0-1.73.27A4.73,4.73,0,0,0,3.47,24a4.94,4.94,0,0,0-.18,3.78.09.09,0,0,0,.09.09l10.49,22c0,.09.09.09.09.18a19.7,19.7,0,0,0,3.92,4.32c.09.09.18.09.27.18l.18.18A17.59,17.59,0,0,0,28.66,58,17.19,17.19,0,0,0,46,41.7V27.29A4.91,4.91,0,0,0,41,22.34Z"/></clipPath><clipPath id="clip-path-5" transform="translate(5 5)"><path class="cls-1" d="M7,12.6V5.68L8.6,7.26a1.46,1.46,0,0,0,2,0,1.34,1.34,0,0,0,0-1.93L6.52,1.39c-.18-.18-.27-.26-.45-.26A1.19,1.19,0,0,0,5,1.13a2,2,0,0,0-.45.26L.45,5.33A1.39,1.39,0,0,0,0,6.3a1.39,1.39,0,0,0,.45,1,1.46,1.46,0,0,0,2,0L4.07,5.68V12.6A1.41,1.41,0,0,0,5.52,14,1.41,1.41,0,0,0,7,12.6Z"/></clipPath><clipPath id="clip-path-6" transform="translate(5 5)"><rect class="cls-1" x="-523" y="-109" width="1024" height="768"/></clipPath><clipPath id="clip-path-7" transform="translate(5 5)"><path class="cls-1" d="M39.3,6.5A2.19,2.19,0,0,0,39,6,2.19,2.19,0,0,1,39.3,6.5Z"/></clipPath><clipPath id="clip-path-9" transform="translate(5 5)"><path class="cls-1" d="M39,8.5a.85.85,0,0,0,.3-.5C39.3,8.2,39.2,8.3,39,8.5Z"/></clipPath></defs><title>finger-scroll</title><g class="cls-2"><g class="cls-3"><rect class="cls-4" x="44" y="22" width="10.1" height="11"/></g></g><g class="cls-5"><g class="cls-3"><rect class="cls-4" x="3" width="53" height="68"/></g></g><g class="cls-6"><g class="cls-7"><rect class="cls-4" y="1" width="21" height="23"/></g></g><g class="cls-8"><g class="cls-3"><rect class="cls-4" x="39" y="6" width="10.3" height="10.5"/></g></g><g class="cls-9"><g class="cls-3"><rect class="cls-4" x="39" y="8" width="10.3" height="10.5"/></g></g></svg>