<?xml version="1.0" encoding="UTF-8"?>
<svg width="140px" height="36px" viewBox="0 0 140 36" version="1.1" xmlns="http://www.w3.org/2000/svg" xmlns:xlink="http://www.w3.org/1999/xlink">
    <!-- Generator: Sketch 46.2 (44496) - http://www.bohemiancoding.com/sketch -->
    <title>cepegra-logo copy 2</title>
    <desc>Created with Sketch.</desc>
    <defs>
        <path d="M27.4149081,27.2455814 C32.6455748,22.0289208 33.6015076,13.9199044 29.7263151,7.63830613 C25.8511227,1.35670787 18.1563036,-1.45785622 11.1205522,0.832803417 C4.08480077,3.12346306 -0.455418608,9.92144093 0.142484433,17.2700403 C0.740387473,24.6186397 6.32034893,30.599737 13.6346066,31.732093 C14.8148347,31.9082393 15.9078992,32.4547195 16.754904,33.292093 L18.721784,35.2511628 C18.8084321,35.3383077 18.92646,35.3873365 19.0495974,35.3873365 C19.1727347,35.3873365 19.2907626,35.3383077 19.3774107,35.2511628 L27.4149081,27.2455814 L27.4149081,27.2455814 L27.4149081,27.2455814 Z M9.37303324,9.28744186 C12.0914533,6.57820614 16.1808491,5.7670607 19.733911,7.23232685 C23.2869729,8.69759301 25.6037901,12.1506308 25.6037901,15.9809302 C25.6037901,19.8112297 23.2869729,23.2642675 19.733911,24.7295336 C16.1808491,26.1947998 12.0914533,25.3836543 9.37303324,22.6744186 C5.66314412,18.9770635 5.66314412,12.984797 9.37303324,9.28744186 L9.37303324,9.28744186 Z" id="path-1"></path>
        <radialGradient cx="18.7574956%" cy="19.211624%" fx="18.7574956%" fy="19.211624%" r="104.395062%" gradientTransform="translate(0.187575,0.192116),scale(1.000000,0.949823),translate(-0.187575,-0.192116)" id="radialGradient-3">
            <stop stop-color="#FDBA2A" offset="0%"></stop>
            <stop stop-color="#FCB329" offset="11%"></stop>
            <stop stop-color="#F8A125" offset="27%"></stop>
            <stop stop-color="#F79A23" offset="32%"></stop>
            <stop stop-color="#F38D22" offset="55%"></stop>
            <stop stop-color="#F08521" offset="65%"></stop>
            <stop stop-color="#EA8220" offset="71%"></stop>
            <stop stop-color="#D9781E" offset="78%"></stop>
            <stop stop-color="#BC6919" offset="87%"></stop>
            <stop stop-color="#955414" offset="96%"></stop>
            <stop stop-color="#894E12" offset="100%"></stop>
        </radialGradient>
        <radialGradient cx="42.7227102%" cy="12.3511905%" fx="42.7227102%" fy="12.3511905%" r="120.577164%" gradientTransform="translate(0.427227,0.123512),scale(0.839814,1.000000),translate(-0.427227,-0.123512)" id="radialGradient-4">
            <stop stop-color="#894E12" stop-opacity="0.4" offset="0%"></stop>
            <stop stop-color="#8B4F11" stop-opacity="0.38" offset="30%"></stop>
            <stop stop-color="#90530E" stop-opacity="0.32" offset="49%"></stop>
            <stop stop-color="#9A590A" stop-opacity="0.21" offset="64%"></stop>
            <stop stop-color="#A76203" stop-opacity="0.07" offset="78%"></stop>
            <stop stop-color="#AD6600" stop-opacity="0" offset="82%"></stop>
        </radialGradient>
        <linearGradient x1="14.9411765%" y1="12.2850123%" x2="88.9411765%" y2="88.9434889%" id="linearGradient-5">
            <stop stop-color="#F8AD0A" offset="0%"></stop>
            <stop stop-color="#F39805" offset="100%"></stop>
        </linearGradient>
        <linearGradient x1="43.40124%" y1="6.16996508%" x2="56.0673162%" y2="93.5972061%" id="linearGradient-6">
            <stop stop-color="#B65E06" offset="0%"></stop>
            <stop stop-color="#8F4D05" offset="100%"></stop>
        </linearGradient>
        <linearGradient x1="37.279597%" y1="46.6055046%" x2="65.9949622%" y2="54.4036697%" id="linearGradient-7">
            <stop stop-color="#DC780B" offset="0%"></stop>
            <stop stop-color="#C76E0B" offset="100%"></stop>
        </linearGradient>
    </defs>
    <g id="Symbols" stroke="none" stroke-width="1" fill="none" fill-rule="evenodd">
        <g id="header-back" transform="translate(-834.000000, -25.000000)">
            <g id="cepegra-logo-copy-2" transform="translate(834.000000, 25.000000)">
                <g id="cepegra-logo">
                    <g id="Clipped">
                        <mask id="mask-2" fill="white">
                            <use xlink:href="#path-1"></use>
                        </mask>
                        <g id="Shape"></g>
                        <g id="Group" mask="url(#mask-2)">
                            <g transform="translate(-4.856494, -3.627907)">
                                <rect id="Rectangle-path" fill="url(#radialGradient-3)" x="0.364237043" y="0.278139535" width="41.3044807" height="43.4865116"></rect>
                                <polygon id="Shape" fill="#F6A202" points="22.2184596 32.76 23.6389841 31.732093 24.1731984 31.6111628 22.752674 32.7116279"></polygon>
                                <polygon id="Shape" fill="#F6A401" points="23.7118315 34.2232558 25.1687797 33.1227907 24.1731984 31.6111628 22.752674 32.7116279"></polygon>
                                <polygon id="Shape" fill="#F08604" points="23.116911 34.0781395 22.2184596 32.76 22.752674 32.7116279 23.7118315 34.2232558"></polygon>
                                <polygon id="Shape" fill="#F5A000" points="32.7206277 14.8139535 33.3519719 15.1767442 33.509808 15.7813953 32.8663225 15.4186047"></polygon>
                                <polygon id="Shape" fill="#F18900" points="32.2471196 15.8902326 32.9027462 16.1804651 33.509808 15.7813953 32.8663225 15.4186047"></polygon>
                                <polygon id="Shape" fill="#F5A000" points="32.1378484 15.2613953 32.7206277 14.8139535 32.8663225 15.4186047 32.2471196 15.8902326"></polygon>
                                <polygon id="Shape" fill="url(#radialGradient-4)" points="6.20417097 40.5962791 3.37526327 53.5116279 22.7283915 53.5116279 19.911625 37.2586047"></polygon>
                                <polygon id="Shape" fill="url(#linearGradient-5)" points="9.8101177 33.5581395 19.911625 37.2586047 20.1301673 30.8493023 11.0242412 27.4148837"></polygon>
                                <polygon id="Shape" fill="url(#linearGradient-6)" points="19.911625 37.2586047 15.9414413 43.9460465 6.20417097 40.5962791 9.8101177 33.5581395"></polygon>
                                <polygon id="Shape" fill="url(#linearGradient-7)" points="9.8101177 33.5581395 11.0242412 27.4148837 7.74610778 34.1990698 6.20417097 40.5962791"></polygon>
                                <polygon id="Shape" fill="#F4980E" points="6.33772455 8.4772093 8.06177989 6.63906977 10.4778856 9.0455814 8.6931241 10.8111628"></polygon>
                                <polygon id="Shape" fill="#FCC211" points="10.4778856 9.0455814 12.1169523 7.42511628 9.78583523 5.03069767 8.06177989 6.63906977"></polygon>
                                <polygon id="Shape" fill="#FCC510" points="9.49444559 21.7674419 10.7449928 21.4288372 11.7284328 22.5897674 10.4778856 22.9525581"></polygon>
                                <polygon id="Shape" fill="#F59E01" points="8.92380756 22.9525581 9.90724757 24.1013953 10.4778856 22.9525581 9.49444559 21.7674419"></polygon>
                                <polygon id="Shape" fill="#F29100" points="11.1577948 23.7506977 11.7284328 22.5897674 10.4778856 22.9525581 9.90724757 24.1013953"></polygon>
                                <polygon id="Shape" fill="#FDC904" points="20.9314887 26.8344186 21.8177989 26.2297674 22.7283915 26.8706977 21.9027875 27.56"></polygon>
                                <polygon id="Shape" fill="#F08502" points="22.6069791 27.6930233 22.7283915 26.8706977 21.9027875 27.56 21.7935164 28.3581395"></polygon>
                                <polygon id="Shape" fill="#F08600" points="21.9027875 27.56 21.7935164 28.3581395 20.8707826 27.6809302 20.9314887 26.8344186"></polygon>
                                <polygon id="Shape" fill="#FBBD09" points="29.9160025 34.0176744 30.9722899 35.3116279 32.1378484 34.4530233 31.0937023 33.1953488"></polygon>
                                <polygon id="Shape" fill="#D27202" points="30.6809003 35.9646512 30.9722899 35.3116279 32.1378484 34.4530233 31.8343176 35.1544186"></polygon>
                                <polygon id="Shape" fill="#E17B03" points="29.6367541 34.7311628 29.9160025 34.0176744 30.9722899 35.3116279 30.6809003 35.9646512"></polygon>
                                <polygon id="Shape" fill="#F39407" points="30.1588272 11.6818605 30.462358 10.6176744 31.5914929 11.1497674 31.3243857 12.2744186"></polygon>
                                <polygon id="Shape" fill="#F9B40A" points="26.4678918 31.4660465 29.1632459 31.6353488 29.9160025 28.5395349 27.2327896 28.4790698"></polygon>
                                <polygon id="Shape" fill="#F39702" points="31.5429279 29.9423256 29.9160025 28.5395349 29.1632459 31.6353488 30.8387363 32.8809302"></polygon>
                                <polygon id="Shape" fill="#E88403" points="28.1555234 32.6632558 26.4678918 31.4660465 29.1632459 31.6353488 30.8387363 32.8809302"></polygon>
                                <polygon id="Shape" fill="#F29100" points="5.584968 16.7246512 6.90836259 16.3376744 6.89622135 17.4139535 5.54854429 17.8493023"></polygon>
                                <polygon id="Shape" fill="#F8AF0D" points="30.3288045 25.48 31.0572785 24.4883721 31.8828825 24.464186 31.130126 25.5283721"></polygon>
                                <polygon id="Shape" fill="#F49A03" points="31.9435887 26.507907 32.7084865 25.467907 31.8828825 24.464186 31.130126 25.5283721"></polygon>
                                <polygon id="Shape" fill="#F18D00" points="31.1544084 26.4595349 30.3288045 25.48 31.130126 25.5283721 31.9435887 26.507907"></polygon>
                                <polygon id="Shape" fill="#F9B403" points="30.4866405 20.5944186 31.4336568 19.4697674 32.4535205 19.3609302 31.5065042 20.5460465"></polygon>
                                <polygon id="Shape" fill="#F7A806" points="32.5020855 21.8037209 33.4491018 20.6427907 32.4535205 19.3609302 31.5065042 20.5460465"></polygon>
                                <polygon id="Shape" fill="#F49B03" points="31.4579393 21.7432558 30.4866405 20.5944186 31.5065042 20.5460465 32.5020855 21.8037209"></polygon>
                                <polygon id="Shape" fill="#F6A202" points="8.70526533 16.1683721 10.1136486 15.1404651 10.6478629 15.0195349 9.23947966 16.12"></polygon>
                                <polygon id="Shape" fill="#F6A401" points="10.186496 17.6316279 11.6555854 16.5311628 10.6478629 15.0195349 9.23947966 16.12"></polygon>
                                <polygon id="Shape" fill="#F08604" points="9.6037167 17.4986047 8.70526533 16.1683721 9.23947966 16.12 10.186496 17.6316279"></polygon>
                                <polygon id="Shape" fill="#F9B40B" points="24.9502375 31.0186047 25.4116044 30.5469767 25.8365476 30.7646512 25.3751807 31.2362791"></polygon>
                                <polygon id="Shape" fill="#F29100" points="25.6787115 31.744186 26.1279372 31.2362791 25.8365476 30.7646512 25.3751807 31.2362791"></polygon>
                                <polygon id="Shape" fill="#F08800" points="25.2659096 31.4781395 24.9502375 31.0186047 25.3751807 31.2362791 25.6787115 31.744186"></polygon>
                                <polygon id="Shape" fill="#F9B108" points="28.2647945 24.44 28.8597151 23.7748837 29.3696469 23.7386047 28.7868676 24.427907"></polygon>
                                <polygon id="Shape" fill="#F9B207" points="29.3817881 25.1534884 29.9524262 24.464186 29.3696469 23.7386047 28.7868676 24.427907"></polygon>
                                <polygon id="Shape" fill="#F49B03" points="28.8232913 25.1172093 28.2647945 24.44 28.7868676 24.427907 29.3817881 25.1534884"></polygon>
                                <polygon id="Shape" fill="#F7A806" points="37.8806525 16.5553488 38.888375 16.4948837 39.6532728 16.9544186 38.681974 17.0148837"></polygon>
                                <polygon id="Shape" fill="#F18D00" points="38.4148668 18.1153488 39.3983068 18.0306977 39.6532728 16.9544186 38.681974 17.0148837"></polygon>
                                <polygon id="Shape" fill="#F6A508" points="37.6621103 17.6316279 37.8806525 16.5553488 38.681974 17.0148837 38.4148668 18.1153488"></polygon>
                                <polygon id="Shape" fill="#F5A000" points="32.1378484 26.6651163 32.4656618 26.2176744 33.6069378 26.8223256 33.2791245 27.2818605"></polygon>
                                <polygon id="Shape" fill="#EC8005" points="32.8298988 28.2855814 33.2305596 27.6083721 33.6069378 26.8223256 33.2791245 27.2818605"></polygon>
                                <polygon id="Shape" fill="#F08600" points="31.7129052 27.6567442 32.1378484 26.6651163 33.2791245 27.2818605 32.8298988 28.2855814"></polygon>
                                <polygon id="Shape" fill="#F18A00" points="35.318852 24.7181395 35.0760273 24.7906977 34.4204006 24.3311628 34.6632253 24.2344186"></polygon>
                                <polygon id="Shape" fill="#F6A202" points="35.0760273 23.6055814 34.8210613 23.7386047 34.4204006 24.3311628 34.6632253 24.2344186"></polygon>
                                <polygon id="Shape" fill="#F7A703" points="35.7316539 24.0772093 35.318852 24.7181395 34.6632253 24.2344186 35.0760273 23.6055814"></polygon>
                                <polygon id="Shape" fill="#F29301" points="32.9270287 17.667907 33.92261 16.9906977 34.5782366 18.212093 33.5826554 18.8409302"></polygon>
                            </g>
                        </g>
                    </g>
                    <path d="M50.3739831,13.4595349 C49.1981193,13.2152546 48.0044253,13.0656243 46.80446,13.012093 C45.861043,12.9066468 44.9180612,13.2137397 44.2194136,13.8539432 C43.5207659,14.4941467 43.1350718,15.4045817 43.1620896,16.3497674 C43.1330078,17.2589116 43.4991289,18.1363533 44.1665972,18.7571588 C44.8340654,19.3779643 45.7379812,19.6817711 46.646624,19.5906977 C47.9244436,19.5404824 49.1957099,19.3827108 50.4468305,19.1190698 L50.8960562,22.36 C49.421802,22.845621 47.883326,23.1105248 46.3309519,23.1460465 C42.0208135,23.1460465 39.046211,20.4613953 39.046211,16.3134884 C39.046211,12.1655814 42.0329548,9.52930233 46.440223,9.52930233 C47.9646571,9.54655008 49.4782623,9.78695033 50.9324799,10.2427907 L50.3739831,13.4595349 Z" id="Shape" fill="#747474"></path>
                    <path d="M65.7447863,15.3218605 C65.7581498,16.1347077 65.676662,16.9463496 65.5019616,17.7404651 L56.9181086,17.7404651 C57.4413144,19.0117817 58.7379169,19.7925465 60.1112534,19.6632558 C61.6588541,19.6133239 63.19699,19.4025687 64.7006401,19.0344186 L65.2591369,22.1423256 C63.5782494,22.7473034 61.8125092,23.0859913 60.0262647,23.1460465 C55.2426182,23.1460465 52.6079703,20.255814 52.6079703,16.3618605 C52.5098897,14.5493209 53.1865676,12.7801061 54.4705686,11.4919865 C55.7545695,10.2038668 57.5259325,9.51718813 59.3463556,9.60186047 C63.1344208,9.58976744 65.7205038,11.8753488 65.7447863,15.3218605 L65.7447863,15.3218605 Z M56.7724138,15.1404651 L62.0417097,15.1404651 C62.0134322,14.4965831 61.7283117,13.8905726 61.2496239,13.4569235 C60.7709361,13.0232744 60.138277,12.7978571 59.4920504,12.8306977 C58.1170934,12.7762701 56.9296144,13.780305 56.7602726,15.1404651 L56.7724138,15.1404651 Z" id="Shape" fill="#747474"></path>
                    <path d="M82.1111708,16.3013953 C82.2470127,18.0276955 81.6508678,19.7317746 80.4673743,21.0001845 C79.2838808,22.2685945 77.6211932,22.9854204 75.8827173,22.9767442 C74.7034908,22.9941136 73.5241629,22.9497112 72.349618,22.8437209 L72.349618,28.6604651 L68.0637621,28.6604651 L68.0637621,10.2186047 C70.5919401,9.83528064 73.1435436,9.62517489 75.7005988,9.58976744 C79.6829238,9.58976744 81.9776172,12.2744186 82.1111708,16.3013953 L82.1111708,16.3013953 Z M77.9952922,16.3860465 C77.9952922,14.4390698 77.0725583,13.0483721 74.9599835,13.0483721 C74.0129672,13.0483721 73.2480694,13.0483721 72.349618,13.1813953 L72.349618,19.227907 C73.2661088,19.3609552 74.1917277,19.4216094 75.1178195,19.4093023 C75.9091105,19.4037019 76.6637825,19.0764709 77.2070479,18.5033986 C77.7503133,17.9303262 78.0350432,17.1611271 77.9952922,16.3739535 L77.9952922,16.3860465 Z" id="Shape" fill="#747474"></path>
                    <path d="M97.0570308,15.3218605 C97.0703942,16.1347077 96.9889065,16.9463496 96.8142061,17.7404651 L88.2303531,17.7404651 C88.7535588,19.0117817 90.0501613,19.7925465 91.4234978,19.6632558 C92.9710985,19.6133239 94.5092344,19.4025687 96.0128846,19.0344186 L96.5713814,22.1423256 C94.8904939,22.7473034 93.1247537,23.0859913 91.3385092,23.1460465 C86.5548627,23.1460465 83.9202147,20.255814 83.9202147,16.3618605 C83.8221341,14.5493209 84.4988121,12.7801061 85.7828131,11.4919865 C87.066814,10.2038668 88.8381769,9.51718813 90.6586,9.60186047 C94.3859591,9.58976744 97.0327483,11.8753488 97.0570308,15.3218605 L97.0570308,15.3218605 Z M88.0846583,15.1404651 L93.3660954,15.1404651 C93.3378945,14.4943712 93.051088,13.8864369 92.56973,13.4524354 C92.0883719,13.018434 91.4525605,12.7945186 90.8042949,12.8306977 C89.4339166,12.7826967 88.2536418,13.7850954 88.0846583,15.1404651 L88.0846583,15.1404651 Z" id="Shape" fill="#747474"></path>
                    <path d="M113.168449,10.2186047 L113.168449,22.5534884 C113.168449,26.7860465 110.582366,29.5190698 105.531613,29.5190698 C103.952013,29.4778945 102.386313,29.2132305 100.88152,28.7330233 L101.488581,25.467907 C102.767284,25.7462466 104.066663,25.9201574 105.373777,25.987907 C107.644187,25.987907 108.785464,24.8874419 108.858311,22.8074419 C107.691915,22.9139346 106.520643,22.9583389 105.349494,22.9404651 C103.61253,22.9517187 101.949755,22.2400066 100.762515,20.9771158 C99.5752759,19.7142249 98.9714407,18.0148975 99.0967582,16.2893023 C99.1817469,12.2623256 101.525005,9.57767442 105.519471,9.57767442 C108.080337,9.626856 110.635328,9.84094619 113.168449,10.2186047 L113.168449,10.2186047 Z M103.200496,16.3739535 C103.150395,17.16722 103.430495,17.9460259 103.974905,18.5271699 C104.519316,19.108314 105.279981,19.4404981 106.077968,19.4455814 C106.995994,19.4578295 107.913539,19.3971723 108.821887,19.264186 L108.821887,13.2176744 C107.947718,13.1330233 107.158538,13.0846512 106.235804,13.0846512 C104.159653,13.0362791 103.200496,14.4269767 103.200496,16.3739535 L103.200496,16.3739535 Z" id="Shape" fill="#747474"></path>
                    <path d="M124.67834,13.7739535 C123.221392,13.7739535 121.752302,13.7739535 120.295354,13.9311628 L120.295354,22.7469767 L116.021639,22.7469767 L116.021639,10.4604651 C118.880186,9.95564548 121.775415,9.68466367 124.67834,9.65023256 L124.67834,13.7739535 L124.67834,13.7739535 Z" id="Shape" fill="#747474"></path>
                    <path d="M139.891307,10.2186047 L139.891307,22.7469767 L135.581169,22.7469767 L135.581169,21.8762791 C134.546166,22.6908274 133.257477,23.1186847 131.938798,23.0855814 C128.854925,23.0855814 125.868181,20.6669767 125.868181,16.2530233 C125.977452,12.2260465 128.296428,9.54139535 132.290894,9.54139535 C134.836401,9.60322103 137.375201,9.82943231 139.891307,10.2186047 L139.891307,10.2186047 Z M129.911212,16.3739535 C129.822307,17.1925507 130.083729,18.0105811 130.63135,18.6273724 C131.17897,19.2441638 131.962121,19.6026476 132.788685,19.6148837 C133.807026,19.5915402 134.782163,19.2004554 135.532604,18.5144186 L135.532604,13.1693023 C134.658435,13.0846512 133.869255,13.0362791 132.946521,13.0362791 C130.906793,13.0362791 129.911212,14.4269767 129.911212,16.3739535 L129.911212,16.3739535 Z" id="Shape" fill="#747474"></path>
                </g>
            </g>
        </g>
    </g>
</svg>