<?xml version="1.0" encoding="utf-8"?>
<!-- Generator: Adobe Illustrator 20.0.0, SVG Export Plug-In . SVG Version: 6.00 Build 0)  -->
<svg version="1.1" id="Calque_1" xmlns="http://www.w3.org/2000/svg" xmlns:xlink="http://www.w3.org/1999/xlink" x="0px" y="0px"
	 viewBox="0 0 280.6 244" style="enable-background:new 0 0 280.6 244;" xml:space="preserve">
<style type="text/css">
	.st0{fill:#5B5B5B;}
	.st1{fill:#262626;}
	.st2{fill:url(#SVGID_1_);}
	.st3{fill:url(#SVGID_2_);}
	.st4{fill:url(#SVGID_3_);}
	.st5{fill:url(#SVGID_4_);}
	.st6{fill:url(#SVGID_5_);}
	.st7{fill:url(#SVGID_6_);}
	.st8{fill:url(#SVGID_7_);}
	.st9{fill:url(#SVGID_8_);}
	.st10{fill:url(#SVGID_9_);}
	.st11{fill:url(#SVGID_10_);}
	.st12{fill:url(#SVGID_11_);}
	.st13{fill:url(#SVGID_12_);}
</style>
<g>
	<g>
		<g>
			<g>
				<path class="st0" d="M138.4,277.8c0,0-5.5-47.1,5.5-81.6c4-12.6,10.2-23.5,19.6-29.8c35.3-23.5,61.1-52.1,64.3-66.2
					s25.6-15.2,25.6-15.2S235.6,79.7,231,86s-11,20.2-11,20.2s-24.7,31.5-29.2,34.1c-4.5,2.5-33.6,23.6-38.6,28.7
					c-4.9,5.2-18.7,38.7-20,52.6c-1.3,13.9-2.7,29.8-2.7,29.8s-36-51.9-20.3-64c0,0,4.9-34.4,27.7-41.8
					c22.8-7.4,20.2-32.9,20.2-32.9s-2.5,12.7-8,17.3c-5.5,4.6-31.2,14.6-34.9,24.5s-24.4,38.4-17.6,54.6s28.7,54.1,21.8,51.2
					c-6.9-2.8-28.5-12.8-30.1-9.3s34.5,46.1,42.9,44.4S159.4,303.6,138.4,277.8z"/>
				<path class="st0" d="M181.8,194.6c-1.7,7.1,21.3-24.2,31.7-23c10.4,1.2-36.2,27.4-40.5,42.1s-35.9,29.3-35.9,29.3l0.3-7.2
					c0,0,24.5-10.8,27.6-19.5c3.1-8.7,10.6-35.8,22.2-50c11.6-14.1,36.7-40.9,48-37.3c11.4,3.6-3.2,6.9-3.2,6.9
					S193.2,147.8,181.8,194.6z"/>
				<path class="st0" d="M217.7,189.2c-2.1,3.4,15.5-4.2,21,1.7c5.5,5.8-24.2-1.3-28.9,5.5s-24.3,0.1-24.3,0.1l1.3-4.2
					c0,0,15.1,5.5,18.2,1.8c3.1-3.7,11.5-16.3,20.1-19.2c8.6-2.8,26.6-6.7,32.2,1.1c5.7,7.7-2.8,2.6-2.8,2.6
					S231.4,166.7,217.7,189.2z"/>
				<path class="st0" d="M144,159c-4.1,6.1,5.8-30.6-0.6-36.3s-0.1,42.2-8.2,55.4c-8.1,13.1-1.6,43.3-1.6,43.3l4.9-5.3
					c0,0-5.4-23.1-0.9-31.2c4.4-8.1,19.6-32.1,23.5-49.4c3.8-17.3,9.4-52.1,0.8-56.7c-8.6-4.6-3.2,6.9-3.2,6.9S170.9,118.5,144,159z
					"/>
				<path class="st0" d="M107.9,210.8c0,0-1.8-77.3-20.3-92.1s-9.1-31.6-9.1-31.6s-7.4,19.6-2.3,28.9c5,9.3,25.6,28.6,20.4,43.7
					s-15.6-33.9-34.1-14s-13.8,22.6-13.8,22.6s15.2-23.7,18-20.8c2.9,2.9,21.7,26.2,25.8,24.7s10.3,10.7,9.5,18
					C101.1,197.5,107.9,210.8,107.9,210.8z"/>
				<path class="st0" d="M130.9,254.7c0,0-1.8-77.3-20.3-92.1s-9.1-31.6-9.1-31.6s-7.4,19.6-2.3,28.9c5,9.3,25.6,28.6,20.4,43.7
					c-5.3,15.1-15.6-33.9-34.1-14s-13.8,22.6-13.8,22.6s15.2-23.7,18-20.8c2.9,2.9,21.7,26.2,25.8,24.7c4-1.4,10.3,10.7,9.5,18
					C124.1,241.3,130.9,254.7,130.9,254.7z"/>
				<path class="st0" d="M133.6,244c0,0,12.7-79,27-91.4s10.6-31,10.6-31s1.9,21.3-2.7,30.1c-4.7,8.8-21,25.5-19.8,41.7
					c1.2,16.3,15.3-32.5,24.4-9.1s5.7,25.3,5.7,25.3s-6.4-26.7-8.7-24.1c-2.3,2.6-18.1,23.5-20.5,21.4s-8.3,9.4-8.9,17
					C140.1,231.4,133.6,244,133.6,244z"/>
			</g>
			<path class="st0" d="M251.3,132.9c0,0-5.6,5.4-10.4,1.8c-4.8-3.6-7.9-1.7-7.9-1.7s5.1-3.5,5.8-3.2
				C239.5,130.2,243.5,123.2,251.3,132.9z"/>
			<path class="st0" d="M251.2,197.5c0,0-6.4,3.9-10-1c-3.6-4.9-6.9-3.9-6.9-3.9s5.5-2.2,6.1-1.6
				C240.9,191.6,246.1,185.5,251.2,197.5z"/>
			<path class="st0" d="M174.8,109.4c0,0-6.8,1.6-8.6-4.6c-1.8-6.3-5.1-6.4-5.1-6.4s5.5-0.2,5.9,0.6
				C167.3,99.7,173.7,95.4,174.8,109.4z"/>
			<path class="st0" d="M181.5,174.2c0,0-4,6.9-9.9,5.6c-5.9-1.3-8.5,1.5-8.5,1.5s4.1-5.1,4.9-5
				C168.9,176.4,170.7,168.6,181.5,174.2z"/>
			<path class="st0" d="M152.3,127.5c0,0-6.7-0.1-7-7s-3.3-7.9-3.3-7.9s5.2,1.2,5.3,2.1C147.4,115.7,154.2,113.1,152.3,127.5z"/>
			<path class="st0" d="M126.4,146.8c0,0-5.5-3.3-3.2-10.3s0.2-9.4,0.2-9.4s3.8,3.7,3.6,4.7C126.9,132.7,133.5,133.4,126.4,146.8z"
				/>
			<path class="st0" d="M140.1,173.6c0,0-5,6.1-10.3,3.5c-5.3-2.6-8.3-0.3-8.3-0.3s4.7-4.3,5.5-4
				C127.7,173.1,130.8,165.6,140.1,173.6z"/>
			<path class="st0" d="M178,152.7c0,0-4.8-4.3-1.7-11c3.1-6.7,1.4-9.5,1.4-9.5s3.2,4.4,2.9,5.3C180.3,138.5,186.6,140.3,178,152.7z
				"/>
			<g>
				<path class="st0" d="M91.3,148.6c0,0-5.2-3.7-2.6-10.6s0.7-9.4,0.7-9.4s3.6,4,3.3,4.9C92.5,134.5,99.1,135.6,91.3,148.6z"/>
				<path class="st0" d="M112.6,137.7c0,0-5,4.6-10.3,2.5c-5.3-2.1-8.2-0.3-8.2-0.3s4.7-3.2,5.5-3
					C100.3,137.1,103.3,131.4,112.6,137.7z"/>
				<path class="st0" d="M103.7,150.8c0,0-4.2,4.5-10,4.5s-8.4,1.9-8.4,1.9s4.2-3.5,5-3.5C91.1,153.6,93.1,148.9,103.7,150.8z"/>
				<path class="st0" d="M85.2,148.5c0,0-1.6,11.3-6.8,7.8c-5.2-3.4-6.6,1-6.6,1s2.1-8.1,2.8-7.8C75.3,149.8,74.9,136.6,85.2,148.5z
					"/>
			</g>
			<g>
				<path class="st0" d="M130.4,165.4c0,0,0.7-7.6,7-10c6.2-2.4,7.4-6.1,7.4-6.1s-1.6,6.2-2.4,6.7
					C141.5,156.4,143.3,163.5,130.4,165.4z"/>
				<path class="st0" d="M147.1,177.8c0,0-5.5-1.4-6-8c-0.6-6.5-3-8.1-3-8.1s4.3,2.2,4.4,3.1C142.6,165.7,148.1,164.5,147.1,177.8z"
					/>
				<path class="st0" d="M133.6,178.7c0,0-5.1-0.8-7.4-6.3c-2.3-5.5-4.8-6.6-4.8-6.6s4.3,1.5,4.7,2.2
					C126.5,168.7,130.9,167.3,133.6,178.7z"/>
				<path class="st0" d="M128,159.5c0,0-9.1,6.5-8.6-0.9S116,153,116,153s6.9-3.8,7-2.9S132.9,141.2,128,159.5z"/>
			</g>
			<g>
				<path class="st0" d="M217.5,180.9c0,0-5.2-3.7-2.6-10.6c2.6-6.9,0.7-9.4,0.7-9.4s3.6,4,3.3,4.9S225.2,167.9,217.5,180.9z"/>
				<path class="st0" d="M238.7,170.1c0,0-5,4.6-10.3,2.5s-8.2-0.3-8.2-0.3s4.7-3.2,5.5-3C226.5,169.4,229.5,163.7,238.7,170.1z"/>
				<path class="st0" d="M229.8,183.2c0,0-4.2,4.5-10,4.5c-5.8,0-8.4,1.9-8.4,1.9s4.2-3.5,5-3.5C217.2,186,219.3,181.2,229.8,183.2z
					"/>
				<path class="st0" d="M211.4,180.8c0,0-1.6,11.3-6.8,7.8c-5.2-3.4-6.6,1-6.6,1s2.1-8.1,2.8-7.8
					C201.5,182.1,201.1,168.9,211.4,180.8z"/>
			</g>
			<g>
				<path class="st0" d="M154.9,218.5c0,0-5.2-3.7-2.6-10.6c2.6-6.9,0.7-9.4,0.7-9.4s3.6,4,3.3,4.9
					C156.1,204.4,162.6,205.5,154.9,218.5z"/>
				<path class="st0" d="M176.1,207.7c0,0-5,4.6-10.3,2.5c-5.3-2.1-8.2-0.3-8.2-0.3s4.7-3.2,5.5-3
					C163.8,207,166.9,201.4,176.1,207.7z"/>
				<path class="st0" d="M167.2,220.8c0,0-4.2,4.5-10,4.5c-5.8,0-8.4,1.9-8.4,1.9s4.2-3.5,5-3.5
					C154.6,223.6,156.6,218.8,167.2,220.8z"/>
				<path class="st0" d="M148.7,218.4c0,0-1.6,11.3-6.8,7.8s-6.6,1-6.6,1s2.1-8.1,2.8-7.8C138.8,219.7,138.4,206.5,148.7,218.4z"/>
			</g>
			<g>
				<path class="st0" d="M232.7,90.4c0,0,6.7-0.5,7.7,6.2c0.9,6.7,4,7.4,4,7.4s-5.3-0.7-5.6-1.6S231.8,104.7,232.7,90.4z"/>
				<path class="st0" d="M218.1,111.6c0,0,2.4-6.5,8.5-8.3c6-1.8,7.9-4.9,7.9-4.9s-2.8,5.3-3.7,5.6S229.9,110.5,218.1,111.6z"/>
				<path class="st0" d="M220,96.4c0,0,1.7-5.9,7.2-9.5s7-6.7,7-6.7s-2.2,5.2-3,5.7C230.5,86.5,230.9,91.3,220,96.4z"/>
				<path class="st0" d="M238.5,86.6c0,0-4-9.3,2.6-10c6.6-0.7,5.7-4.9,5.7-4.9s2,7.3,1.2,7.5C247.2,79.5,254.1,89,238.5,86.6z"/>
			</g>
			<g>
				<path class="st0" d="M203.6,133.7c0,0-0.7-6.1,3.8-11.4c4.5-5.2,4.8-8.6,4.8-8.6s-0.2,5.6-0.7,6.4S213.4,125.2,203.6,133.7z"/>
				<path class="st0" d="M218.8,133.9c0,0-4.5,1.9-6.1-2.7c-1.6-4.6-3.8-4.4-3.8-4.4s3.7-0.7,4-0.1
					C213.3,127.2,217.4,123.3,218.8,133.9z"/>
				<path class="st0" d="M208.4,142c0,0-4.1,2.2-6.9-0.7s-4.9-2.4-4.9-2.4s3.6-1.2,4.1-0.9C201.1,138.4,204.3,134.9,208.4,142z"/>
				<path class="st0" d="M200.7,130.6c0,0-6.1,9.9-6.9,4.1s-3.6-2.3-3.6-2.3s4.8-6.6,5-6C195.4,126.9,201.4,114.1,200.7,130.6z"/>
			</g>
			<g>
				<path class="st0" d="M86.3,116.2c0,0-6.7,2.5-9.2-3.4c-2.5-5.9-5.8-5.6-5.8-5.6s5.6-0.9,6-0.2C77.7,107.7,83.8,102.7,86.3,116.2
					z"/>
				<path class="st0" d="M96.1,92.4c0,0-0.9,6.7-6.6,10.1c-5.7,3.4-6.9,6.8-6.9,6.8s1.6-5.7,2.4-6.2C85.8,102.5,84.4,96.9,96.1,92.4
					z"/>
				<path class="st0" d="M97.7,106.9c0,0-0.3,6-5.1,10.9s-5.5,8.2-5.5,8.2s1-5.4,1.7-6.1C89.4,119.1,87.9,114.8,97.7,106.9z"/>
				<path class="st0" d="M81.2,121.3c0,0,6.3,7.3-0.3,9.9c-6.5,2.6-4.7,6.2-4.7,6.2s-3.7-6.1-3-6.5S64.9,123.8,81.2,121.3z"/>
			</g>
			<g>
				<path class="st0" d="M196.8,162.1c0,0-5.2-3.7-2.6-10.6c2.6-6.9,0.7-9.4,0.7-9.4s3.6,4,3.3,4.9S204.5,149.1,196.8,162.1z"/>
				<path class="st0" d="M218,151.2c0,0-5,4.6-10.3,2.5s-8.2-0.3-8.2-0.3s4.7-3.2,5.5-3C205.8,150.6,208.8,144.9,218,151.2z"/>
				<path class="st0" d="M209.1,164.3c0,0-4.2,4.5-10,4.5c-5.8,0-8.4,1.9-8.4,1.9s4.2-3.5,5-3.5
					C196.5,167.1,198.6,162.3,209.1,164.3z"/>
				<path class="st0" d="M190.7,162c0,0-1.6,11.3-6.8,7.8c-5.2-3.4-6.6,1-6.6,1s2.1-8.1,2.8-7.8C180.8,163.3,180.4,150.1,190.7,162z
					"/>
			</g>
			<path class="st0" d="M127.9,239.1c0,0-16.5-9.6-19.3-15.9c-2.7-6.3,19.7,33.5,19.7,33.5l4.5-6.4L127.9,239.1z"/>
			<path class="st0" d="M126.6,227.6c0,0,7-14.5,7-20.6c0-6.1,0.7-16.2,0.7-16.2s11.2-10.6,13.3-10c2.1,0.6,10,7.1,13.6,4.9
				c3.6-2.2-2.9,6.3-2.9,6.3l-9.9-7.1c0,0-10.4,7.1-12.5,10.8c-2.1,3.8,0.1,19.2,0.1,19.2l-9,19.6L126.6,227.6z"/>
		</g>
		<g>
			<g>
				<path class="st1" d="M94.6,251.8c0,0,32.2-43.5,38-81.3c2.1-13.8,0.8-26.9-7-36.8c-29-36.9-44-74.9-40-89.9s-22-25-22-25
					s24,2,26,10s2,24,2,24s12,40.4,16,44.7c4,4.3,27,36.3,30,43.3s1,45-5,59c-6,14-13,30-13,30s71-36,59-54c0,0,13-35.3-10-51.7
					s-6-40-6-40s-4,13.3,0,20s29,26.7,28,37.7s8,47-9,60s-63.5,41-53.7,41s40.7-1,40.7,3s-66,31-75,26S55.6,268.5,94.6,251.8z"/>
				<path class="st1" d="M88.6,153.8c-1.8,7.6-12-32-25-35s28,41,25,57s26.5,42.7,26.5,42.7l3.6-7.1c0,0-23.1-20.3-22.1-29.9
					c1-9.7,7-39,1-57.3S76.4,69.8,61,68.8s0,8,0,8S100.6,103.8,88.6,153.8z"/>
				<path class="st1" d="M49,134.3c0.6,4.1-16.1-10.2-25.8-6.8c-9.7,3.4,29.4,8.4,31.2,16.9c1.8,8.4,28.8,9.8,28.8,9.8l0.7-4.6
					c0,0-20.9-0.7-22.6-5.5c-1.7-4.8-4.7-20.4-13.3-26.6c-8.6-6.2-27.9-17.1-38.8-11.8s2,3.7,2,3.7S45.1,107,49,134.3z"/>
				<path class="st1" d="M152.7,134.4c1.5,7.6,9.8-32,20.5-35c10.7-3-22.9,41-20.5,57c2.5,16-21.7,42.7-21.7,42.7l-3-7.1
					c0,0,18.9-20.3,18.1-29.9c-0.8-9.7-5.7-39-0.8-57.3c4.9-18.3,17.3-54.3,30-55.3c12.7-1,0,8,0,8S142.9,84.4,152.7,134.4z"/>
				<path class="st1" d="M167.2,199.1c0,0,44.3-74.2,74.3-81.2s28-27,28-27s-2,22-13,29s-46,17.6-48,34.3s37-26.7,48,0
					s4,27.4,4,27.4s-5-29.1-10-27.4c-5,1.7-40,16.7-44,13.7s-18,6.3-21,13.7C182.6,188.8,167.2,199.1,167.2,199.1z"/>
				<path class="st1" d="M116,232.4c0,0,44.3-74.2,74.3-81.2s28-27,28-27s-2,22-13,29s-46,17.6-48,34.3s37-26.7,48,0s4,27.4,4,27.4
					s-5-29.1-10-27.4c-5,1.7-40,16.7-44,13.7s-18,6.3-21,13.7C131.4,222.2,116,232.4,116,232.4z"/>
				<path class="st1" d="M118.6,221c0,0,28.1-81.7,17.9-99.4c-10.2-17.7,4.3-34.3,4.3-34.3s-13.9,19.9-13.1,30.3s11,33.1,0.7,48.4
					s-0.4-37.6-23.9-18.6S84,169.5,84,169.5s22.2-23.4,23.5-19.9c1.3,3.4,8.6,30,12.6,29c4-1.1,4.7,12.5,1.2,20S118.6,221,118.6,221
					z"/>
			</g>
			<path class="st1" d="M39.9,66.2c0,0,3.8,7.5,11.3,5.9c7.6-1.5,10.3,1.5,10.3,1.5s-4.1-5.5-5.2-5.4C55.3,68.3,54.4,59.9,39.9,66.2
				z"/>
			<path class="st1" d="M4.8,129c0,0,5.4,6.3,12.4,3s10.3-1,10.3-1s-5.3-4.3-6.3-4C20.2,127.3,17.3,119.3,4.8,129z"/>
			<path class="st1" d="M143.4,73.9c0,0,7.2,4.3,12.8-1.1c5.6-5.4,9.5-4.2,9.5-4.2s-6.4-2.4-7.3-1.8
				C157.5,67.5,152.3,60.8,143.4,73.9z"/>
			<path class="st1" d="M100,134.2c0,0,1,8.3,8.7,9.4s9.2,4.9,9.2,4.9s-2.1-6.5-3.1-6.8C113.8,141.3,115.8,133.1,100,134.2z"/>
			<path class="st1" d="M160.1,100.5c0,0,8,2.5,12.2-4s8.3-6.3,8.3-6.3s-6.8-0.9-7.5-0.1C172.3,91,165.7,85.7,160.1,100.5z"/>
			<path class="st1" d="M180.2,129.5c0,0,8.3-1.1,9.4-8.7c1.1-7.7,4.8-9.2,4.8-9.2s-6.5,2.1-6.8,3.1
				C187.3,115.7,179.1,113.7,180.2,129.5z"/>
			<path class="st1" d="M149.4,150.1c0,0,2.6,7.9,10.3,7.6c7.7-0.4,9.9,3,9.9,3s-3.3-6-4.3-6.1C164.3,154.5,164.7,146,149.4,150.1z"
				/>
			<path class="st1" d="M115.9,114.7c0,0,8-2.2,8-10s3.5-9.8,3.5-9.8s-6.2,3-6.3,4C120.9,100,112.5,99.2,115.9,114.7z"/>
			<g>
				<path class="st1" d="M220.8,145.3c0,0,8.2-1.5,8.8-9.3c0.6-7.7,4.3-9.4,4.3-9.4s-6.4,2.4-6.6,3.5
					C227.1,131.1,218.8,129.6,220.8,145.3z"/>
				<path class="st1" d="M201.6,126.3c0,0,3.4,6.5,10.8,6.6s9.9,2.9,9.9,2.9s-3.8-5-4.8-5.1C216.5,130.6,216,123.8,201.6,126.3z"/>
				<path class="st1" d="M205,142.5c0,0,2.5,6.1,9.4,8.3s8.9,5.2,8.9,5.2s-3.1-5-4-5.4C218.4,150.3,218.6,144.8,205,142.5z"/>
				<path class="st1" d="M228.1,147.6c0,0-4.2,11.6,3.8,10.3s7.3,3.6,7.3,3.6s1.9-8.7,0.9-8.7C239.2,152.9,246.8,140.2,228.1,147.6z
					"/>
			</g>
			<g>
				<path class="st1" d="M165.4,146c0,0,3.3-7.7-2.8-12.5s-5.5-8.8-5.5-8.8s-1.5,6.7-0.8,7.4C157.1,132.9,151.2,139,165.4,146z"/>
				<path class="st1" d="M138.9,151.4c0,0,7.2,0.8,11.5-5.3c4.2-6.1,8-6.6,8-6.6s-6.3,0.4-6.9,1.2
					C150.7,141.4,144.8,138.1,138.9,151.4z"/>
				<path class="st1" d="M154.3,157.6c0,0,6.4,1.3,12.2-3.2c5.7-4.5,9.3-4.5,9.3-4.5s-5.9-0.3-6.7,0.3
					C168.2,150.8,163.7,147.6,154.3,157.6z"/>
				<path class="st1" d="M171.4,141.2c0,0,7.3,9.9,10.7,2.6c3.4-7.4,7.1-4,7.1-4s-6.2-6.4-6.7-5.6S175.6,121.5,171.4,141.2z"/>
			</g>
			<g>
				<path class="st1" d="M53.7,126.3c0,0,8.2-1.5,8.8-9.3s4.3-9.4,4.3-9.4s-6.4,2.4-6.6,3.5C60,112.1,51.6,110.6,53.7,126.3z"/>
				<path class="st1" d="M34.5,107.3c0,0,3.4,6.5,10.8,6.6c7.4,0.1,9.9,2.9,9.9,2.9s-3.8-5-4.8-5.1
					C49.4,111.6,48.9,104.8,34.5,107.3z"/>
				<path class="st1" d="M37.9,123.6c0,0,2.5,6.1,9.4,8.3s8.9,5.2,8.9,5.2s-3.1-5-4-5.4S51.5,125.9,37.9,123.6z"/>
				<path class="st1" d="M61,128.7c0,0-4.2,11.6,3.8,10.3c8-1.3,7.3,3.6,7.3,3.6s1.9-8.7,0.9-8.7S79.7,121.2,61,128.7z"/>
			</g>
			<g>
				<path class="st1" d="M107.4,187.8c0,0,8.2-1.5,8.8-9.3s4.3-9.4,4.3-9.4s-6.4,2.4-6.6,3.5C113.7,173.6,105.3,172.1,107.4,187.8z"
					/>
				<path class="st1" d="M88.2,168.8c0,0,3.4,6.5,10.8,6.6c7.4,0.1,9.9,2.9,9.9,2.9s-3.8-5-4.8-5.1S102.5,166.3,88.2,168.8z"/>
				<path class="st1" d="M91.6,185.1c0,0,2.5,6.1,9.4,8.3s8.9,5.2,8.9,5.2s-3.1-5-4-5.4S105.1,187.4,91.6,185.1z"/>
				<path class="st1" d="M114.7,190.2c0,0-4.2,11.6,3.8,10.3s7.3,3.6,7.3,3.6s1.9-8.7,0.9-8.7S133.4,182.7,114.7,190.2z"/>
			</g>
			<g>
				<path class="st1" d="M85.1,32.4c0,0-7.7-3.2-12.5,3c-4.7,6.1-8.8,5.6-8.8,5.6s6.7,1.4,7.5,0.7S78.3,46.7,85.1,32.4z"/>
				<path class="st1" d="M90.9,58.8c0,0,0.7-7.2-5.5-11.4c-6.2-4.1-6.7-7.9-6.7-7.9s0.5,6.3,1.3,6.9S77.5,53,90.9,58.8z"/>
				<path class="st1" d="M96.9,43.3c0,0,1.2-6.5-3.3-12.1s-4.6-9.2-4.6-9.2s-0.2,5.9,0.4,6.7S86.8,34,96.9,43.3z"/>
				<path class="st1" d="M80.3,26.4c0,0,9.8-7.4,2.4-10.7s-4.1-7-4.1-7s-6.3,6.2-5.5,6.8C73.8,16,60.5,22.5,80.3,26.4z"/>
			</g>
			<g>
				<path class="st1" d="M95.9,86.1c0,0,4.2-5.7,1.8-12.5s-1-10.3-1-10.3s-2.8,5.5-2.6,6.5C94.4,70.7,89,73.9,95.9,86.1z"/>
				<path class="st1" d="M77.7,80.2c0,0,4.3,3.7,8.7-0.2s6.9-2.8,6.9-2.8s-4-2.2-4.7-1.7C88,75.9,85.2,70.5,77.7,80.2z"/>
				<path class="st1" d="M85.7,92.1c0,0,3.7,3.8,8.5,2.1c4.9-1.8,7.1-0.3,7.1-0.3s-3.6-2.6-4.3-2.5C96.3,91.6,94.4,86.9,85.7,92.1z"
					/>
				<path class="st1" d="M101,84.2c0,0,1.8,12,6,6.7c4.2-5.3,5.6-0.8,5.6-0.8s-2.1-8.4-2.6-7.9C109.4,82.7,109.2,67.9,101,84.2z"/>
			</g>
			<g>
				<path class="st1" d="M244.5,115.9c0,0,6.6,5.1,12.8,0.4c6.2-4.7,9.9-3.1,9.9-3.1s-6.1-3.1-7-2.6
					C259.3,111.1,254.8,103.8,244.5,115.9z"/>
				<path class="st1" d="M245.8,88.9c0,0-2.5,6.8,2.4,12.4c4.9,5.6,4.5,9.4,4.5,9.4s1.1-6.2,0.5-7
					C252.6,102.8,257.2,97.9,245.8,88.9z"/>
				<path class="st1" d="M236,102.3c0,0-2.8,5.9,0.1,12.6c2.9,6.6,2.1,10.1,2.1,10.1s1.7-5.6,1.4-6.6
					C239.2,117.4,243.3,113.9,236,102.3z"/>
				<path class="st1" d="M247.7,122.9c0,0-11.4,4.6-5.1,9.7c6.3,5.1,2.2,7.8,2.2,7.8s7.7-4.4,7.1-5.1
					C251.2,134.6,265.7,131.8,247.7,122.9z"/>
			</g>
			<g>
				<path class="st1" d="M88.5,116.3c0,0,8.2-1.5,8.8-9.3c0.6-7.7,4.3-9.4,4.3-9.4s-6.4,2.4-6.6,3.5
					C94.8,102.1,86.4,100.6,88.5,116.3z"/>
				<path class="st1" d="M69.3,97.3c0,0,3.4,6.5,10.8,6.6c7.4,0.1,9.9,2.9,9.9,2.9s-3.8-5-4.8-5.1S83.7,94.8,69.3,97.3z"/>
				<path class="st1" d="M72.7,113.5c0,0,2.5,6.1,9.4,8.3s8.9,5.2,8.9,5.2s-3.1-5-4-5.4C86.1,121.3,86.3,115.8,72.7,113.5z"/>
				<path class="st1" d="M95.8,118.6c0,0-4.2,11.6,3.8,10.3s7.3,3.6,7.3,3.6s1.9-8.7,0.9-8.7C106.9,123.9,114.5,111.2,95.8,118.6z"
					/>
			</g>
			<path class="st1" d="M128.1,218.5c0,0,24.8-2.7,31.5-7.7s-41.7,24.7-41.7,24.7l-1.9-8L128.1,218.5z"/>
			<path class="st1" d="M135.9,207.8c0,0-0.4-16.9,3-22.8c3.3-5.9,8-15.9,8-15.9s-7.5-14.7-10.3-15c-2.7-0.3-15.7,2.9-18.7-0.7
				c-3-3.6,0,7.3,0,7.3l15.6-2.9c0,0,8.5,11,8.9,15.5c0.4,4.5-10.6,18.6-10.6,18.6v22.7L135.9,207.8z"/>
		</g>
	</g>
	<radialGradient id="SVGID_1_" cx="159.9537" cy="117.2298" r="6.0896" gradientUnits="userSpaceOnUse">
		<stop  offset="0.6338" style="stop-color:#E91A00"/>
		<stop  offset="1" style="stop-color:#6A0800"/>
	</radialGradient>
	<circle class="st2" cx="160" cy="117.2" r="6.1"/>
	<radialGradient id="SVGID_2_" cx="85.4621" cy="127.3541" r="6.0896" gradientUnits="userSpaceOnUse">
		<stop  offset="0.6338" style="stop-color:#E91A00"/>
		<stop  offset="1" style="stop-color:#6A0800"/>
	</radialGradient>
	<circle class="st3" cx="85.5" cy="127.4" r="6.1"/>
	<radialGradient id="SVGID_3_" cx="57.833" cy="140.1854" r="6.0896" gradientUnits="userSpaceOnUse">
		<stop  offset="0.6338" style="stop-color:#E91A00"/>
		<stop  offset="1" style="stop-color:#6A0800"/>
	</radialGradient>
	<circle class="st4" cx="57.8" cy="140.2" r="6.1"/>
	<radialGradient id="SVGID_4_" cx="159.9537" cy="140.1854" r="6.0896" gradientUnits="userSpaceOnUse">
		<stop  offset="0.6338" style="stop-color:#E91A00"/>
		<stop  offset="1" style="stop-color:#6A0800"/>
	</radialGradient>
	<circle class="st5" cx="160" cy="140.2" r="6.1"/>
	<radialGradient id="SVGID_5_" cx="151.5491" cy="167.0665" r="6.0896" gradientUnits="userSpaceOnUse">
		<stop  offset="0.6338" style="stop-color:#E91A00"/>
		<stop  offset="1" style="stop-color:#6A0800"/>
	</radialGradient>
	<circle class="st6" cx="151.5" cy="167.1" r="6.1"/>
	<radialGradient id="SVGID_6_" cx="199.7674" cy="129.9621" r="6.0896" gradientUnits="userSpaceOnUse">
		<stop  offset="0.6338" style="stop-color:#E91A00"/>
		<stop  offset="1" style="stop-color:#6A0800"/>
	</radialGradient>
	<circle class="st7" cx="199.8" cy="130" r="6.1"/>
	<radialGradient id="SVGID_7_" cx="223.3232" cy="166.5075" r="6.0896" gradientUnits="userSpaceOnUse">
		<stop  offset="0.6338" style="stop-color:#E91A00"/>
		<stop  offset="1" style="stop-color:#6A0800"/>
	</radialGradient>
	<circle class="st8" cx="223.3" cy="166.5" r="6.1"/>
	<radialGradient id="SVGID_8_" cx="63.9226" cy="80.1936" r="6.0896" gradientUnits="userSpaceOnUse">
		<stop  offset="0.6338" style="stop-color:#E91A00"/>
		<stop  offset="1" style="stop-color:#6A0800"/>
	</radialGradient>
	<circle class="st9" cx="63.9" cy="80.2" r="6.1"/>
	<radialGradient id="SVGID_9_" cx="135.4199" cy="145.7767" r="6.0896" gradientUnits="userSpaceOnUse">
		<stop  offset="0.6338" style="stop-color:#E91A00"/>
		<stop  offset="1" style="stop-color:#6A0800"/>
	</radialGradient>
	<circle class="st10" cx="135.4" cy="145.8" r="6.1"/>
	<radialGradient id="SVGID_10_" cx="108.9153" cy="173.2677" r="6.0896" gradientUnits="userSpaceOnUse">
		<stop  offset="0.6338" style="stop-color:#E91A00"/>
		<stop  offset="1" style="stop-color:#6A0800"/>
	</radialGradient>
	<circle class="st11" cx="108.9" cy="173.3" r="6.1"/>
	<radialGradient id="SVGID_11_" cx="172.1328" cy="185.6288" r="6.0896" gradientUnits="userSpaceOnUse">
		<stop  offset="0.6338" style="stop-color:#E91A00"/>
		<stop  offset="1" style="stop-color:#6A0800"/>
	</radialGradient>
	<circle class="st12" cx="172.1" cy="185.6" r="6.1"/>
	<radialGradient id="SVGID_12_" cx="122.7079" cy="124.8845" r="6.0896" gradientUnits="userSpaceOnUse">
		<stop  offset="0.6338" style="stop-color:#E91A00"/>
		<stop  offset="1" style="stop-color:#6A0800"/>
	</radialGradient>
	<circle class="st13" cx="122.7" cy="124.9" r="6.1"/>
</g>
</svg>
