<?xml version="1.0" encoding="utf-8"?>
<!-- Generator: Adobe Illustrator 20.0.0, SVG Export Plug-In . SVG Version: 6.00 Build 0)  -->
<svg version="1.1" id="Calque_1" xmlns="http://www.w3.org/2000/svg" xmlns:xlink="http://www.w3.org/1999/xlink" x="0px" y="0px"
	 viewBox="0 0 215.6 303.9" style="enable-background:new 0 0 215.6 303.9;" xml:space="preserve">
<style type="text/css">
	.st0{fill:#FFFFFF;}
</style>
<g>
	<path class="st0" d="M15.6-17.1c0-0.2,0-0.4,0-0.4S15.6-17.4,15.6-17.1z"/>
	<path d="M15.6-17.5c0,0,0,0.1,0,0.4C15.6-17.4,15.6-17.5,15.6-17.5L15.6-17.5z"/>
</g>
<g>
	<path class="st0" d="M160.4,268.8c-0.4,0-1-1.6-1.4-2.5c-0.7-1.6-1.3-3-2.4-3.1c-0.8,0-1.2,0.9-2,2.7c-0.3,0.8-0.8,1.9-1.1,2.2
		c-8.1-1.1-17.5-2.2-26-3.1c-0.1-0.1-0.2-0.8-0.3-1.2c-0.2-0.9-0.3-1.8-1.1-1.9H126c-0.7,0-1.5,0.6-2.4,1.3
		c-0.6,0.4-1.4,1.1-1.7,1.1c-11.4-1.3-19.6-1.8-25.2-1.8c-3.5,0-5.9,0.3-7.4,0.7c-4.2,1.3-16.6,2.1-34.7,2.2
		c-0.4-0.2-1.1-1.9-1.6-2.9c-1-2.1-1.6-3.4-2.6-3.4c-0.7,0-1,1-1.6,3.5c-0.2,1-0.5,2.4-0.8,2.8c-4.3,0-8.6,0-13.1-0.1
		c-0.4-0.2-1.2-1.3-1.7-2.1c-1.4-1.9-1.8-2.5-2.4-2.5c-1,0-1.1,1.3-1.2,2.7c0,0.5-0.1,1.5-0.3,1.8C19,265,8.5,264.6-1.5,264.1V47.5
		c1.8,0.1,3.8,0.3,5.8,0.4c8.2,0.5,18.4,1.2,30.9,1.8c0.3,0.4,0.3,2.2,0.4,3.4c0.1,2.8,0.3,4.3,1.4,4.4c1.1,0,2.3-1.4,4.1-3.9
		c1-1.3,2.7-3.5,3.3-3.5c11,0.4,21.8,0.9,31.9,1.2c1.1,0.1,2.1,0.7,3.2,1.4c1.1,0.8,2.3,1.6,3.8,1.6c0.9,0,1.7-0.7,2.6-1.5
		c0.6-0.5,1.4-1.3,1.9-1.3c2.9,0.1,5.8,0.1,8.9,0.1c23.3,0,45.7-1.8,63.7-3.2c8-0.6,15-1.2,20.4-1.4c1.9-0.1,3.6-0.1,5.2-0.1
		c9.8,0,12,1.7,12.4,2.1c0,1.9-0.1,6.8-0.3,13.5c-0.5,18.4-1.3,49.1-0.9,73.5c0,0.4-0.7,1.8-1.2,2.8c-0.7,1.6-1.2,2.6-1.2,3.1
		s0.4,0.8,0.9,0.8c0.3,0,0.7-0.1,1.1-0.3c0.2-0.1,0.4-0.2,0.6-0.2c0.3,6.4,0.8,11.4,1.5,15.1c3.9,20.1,8,47.6,5.9,82.3
		c-0.1,0.6-0.8,1.3-1.5,2.1c-0.8,0.8-1.6,1.6-1.7,2.5c0,0.8,0.5,2,1.1,3.1c0.4,1,0.9,2,0.9,2.5c-0.2,3.8-0.1,6.5-0.1,8.7
		c0.1,3.8,0.1,5.5-0.9,7.1c-0.1,0.3-0.3,0.4-0.4,0.7c-1,2-2.6,4.9-15.3,4.9C180.3,271.3,171.4,270.5,160.4,268.8z"/>
	<path d="M186,47.2c8.9,0,11.4,1.3,12,1.6c0,2.1-0.1,6.8-0.3,13.4c-0.5,18.4-1.3,49.2-0.9,73.6c0,0.4-0.7,1.7-1.1,2.6
		c-0.9,1.7-1.3,2.7-1.3,3.3c0.1,0.7,0.6,1.3,1.4,1.3c0.4,0,0.8-0.1,1.2-0.3c0.2,6.1,0.7,10.9,1.4,14.5c3.9,20.1,8,47.6,5.9,82.2
		c-0.1,0.4-0.8,1.2-1.4,1.7c-0.8,0.9-1.7,1.7-1.8,2.8c0,0.9,0.5,2.1,1.1,3.3c0.4,0.8,0.9,1.9,0.9,2.3c-0.2,3.8-0.1,6.5-0.1,8.7
		c0,3.7,0.1,5.4-0.9,6.9c-0.1,0.2-0.3,0.4-0.4,0.7c-1,1.8-2.5,4.7-14.9,4.7c-6.5,0-15.5-0.8-26.5-2.4c-0.3-0.3-0.8-1.5-1.1-2.2
		c-0.8-1.7-1.4-3.2-2.7-3.4h-0.1h-0.1c-1.1,0-1.6,1.1-2.4,3c-0.3,0.5-0.6,1.3-0.9,1.8c-7.9-1-17.1-2.2-25.4-3c0-0.3-0.1-0.5-0.1-0.8
		c-0.1-0.9-0.3-2.2-1.5-2.2c-0.1,0-0.1,0-0.2,0c-0.9,0-1.7,0.6-2.7,1.4c-0.4,0.4-1.1,0.9-1.4,1c-11.3-1.3-19.5-1.8-25.1-1.8
		c-3.6,0-6,0.3-7.6,0.7c-4.2,1.3-16.4,2.1-34.4,2.2c-0.3-0.4-0.9-1.7-1.3-2.5c-1-2.2-1.7-3.8-3-3.8c-1.2,0-1.5,1.3-2.1,3.9
		c-0.2,0.8-0.5,2-0.7,2.5c-4.1,0-8.3,0-12.6-0.1c-0.3-0.4-0.9-1.2-1.4-1.8c-1.5-2-2-2.5-2.8-2.5l0,0c-1.5,0-1.6,1.4-1.7,3
		c0,0.4,0.1,0.9,0,1.3c-10.2-0.3-20.9-0.6-29.8-1.1l0-215.7c1,0.1,3.3,0.3,5.2,0.4c8.1,0.5,17.9,1.2,30.3,1.8c0.2,0.6,0.3,2.2,0.3,3
		c0.1,2.9,0.2,4.8,1.8,4.8l0,0h0.1c1.3,0,2.5-1.5,4.5-4.1c0.9-1.2,2.4-3.1,3-3.4c11,0.5,21.7,0.9,31.8,1.2c0.9,0,1.9,0.6,2.9,1.3
		c1.3,0.8,2.5,1.5,4.1,1.5l0,0c1.1,0,2-0.6,3-1.4c0.5-0.4,1.3-0.9,1.6-0.9c2.9,0.1,5.8,0.1,8.9,0.1c23.3,0,45.7-1.8,63.7-3.2
		c8-0.6,15-1.2,20.4-1.4C182.8,47.2,184.4,47.2,186,47.2 M186,46.3c-1.5,0-3.2,0-5.2,0c-17.3,0.8-50.1,4.6-84.1,4.6
		c-3,0-5.9-0.3-8.9-0.3l0,0c-1.4,0-3.3,2.7-4.6,2.7l0,0c-2.5,0-4.5-2.6-6.9-2.7c-11.1-0.4-21.9-0.9-31.9-0.9l0,0
		c-1.7,0-5.7,7.2-7.3,7.2l0,0c-1.3,0-0.1-7.7-1.4-7.8c-16.3-0.8-29.2-1.6-37.2-2.2v217.4c8.9,0.5,19.8,0.5,31,1.4l0,0
		c1,0,0.3-4.5,1.4-4.5l0,0c0.7,0,3.2,4.5,3.9,4.5c4.5,0,9.3-0.1,13.3-0.1l0,0c1,0,2-6.3,2-6.3l0,0c2,0,3.3,6.4,4.6,6.4l0,0
		c16.4,0,30.1-0.8,34.9-2.2c1.6-0.4,4.1-0.7,7.3-0.7c6.1,0,15.1,0.7,25.1,1.8c0.1,0,0.1,0,0.1,0c0.9,0,3-2.4,4-2.4
		c0.1,0,0.1,0,0.1,0c0.9,0.1,0.5,3,1.3,3c8.4,0.9,17.4,2.1,26.2,3.1l0,0c0.8,0,2.2-4.8,3-4.8l0,0c1.4,0.2,2.3,5.5,3.7,5.6
		c12.1,1.8,20.6,2.5,26.7,2.5c14.5,0,14.9-3.9,16.1-5.9c1.7-2.8,0.7-5.6,1.1-16c0-1.3-2.1-4.3-2-5.6c0.1-1.4,3.1-3,3.2-4.5
		c2.2-36.1-2.5-64.3-5.9-82.4c-0.8-3.9-1.3-9.1-1.5-15.2c-0.1-0.3-0.2-0.4-0.4-0.4c-0.4,0-1.3,0.4-1.8,0.4c-0.2,0-0.4-0.1-0.4-0.4
		c0-0.9,2.4-4.9,2.4-5.9c-0.5-33.8,1.3-80.7,1.3-87.2C198.6,48.2,196.7,46.3,186,46.3L186,46.3z M198.9,48.3c0,0.2,0,0.3,0,0.3
		C198.9,48.5,198.9,48.4,198.9,48.3L198.9,48.3z M198.9,48.5C198.9,48.6,198.9,48.6,198.9,48.5L198.9,48.5
		C198.9,48.6,198.9,48.6,198.9,48.5L198.9,48.5z M198.9,48.7L198.9,48.7L198.9,48.7L198.9,48.7z"/>
</g>
</svg>
