<?xml version="1.0" encoding="utf-8"?>
<!-- Generator: Adobe Illustrator 20.0.0, SVG Export Plug-In . SVG Version: 6.00 Build 0)  -->
<svg version="1.1" id="Calque_1" xmlns="http://www.w3.org/2000/svg" xmlns:xlink="http://www.w3.org/1999/xlink" x="0px" y="0px"
	 viewBox="0 0 348.259 236.318" enable-background="new 0 0 348.259 236.318" xml:space="preserve">
<polyline fill="none" stroke="#000000" stroke-miterlimit="10" points="553.714,83.698 553.714,426.357 -86.285,426.357 "/>
<g>
	<path d="M292.46,211.64c0,0,43.135-124.427-192.726-132.432c-55.213-1.874,13.863-19.978,75.589-7.872
		c45.313,8.887,140.541,28.539,145.428,122.655C323.576,213.698,283.944,232.806,292.46,211.64z"/>
	<g>
		<path d="M295.353,212.438c4.201-12.175,4.02-26.543,1.69-39.015c-5.827-31.198-29.449-54.265-56.835-68.302
			c-24.404-12.509-51.51-19.243-78.48-23.388c-18.791-2.888-37.758-4.528-56.747-5.326c-6.87-0.289-14.558,0.172-21.233-1.842
			c0.044,0.013-1.728-0.631-1.73-0.63c-0.05,0.03,0.543,2.508,0.282,2.456c0.492,0.099,3.275-1.382,4.081-1.624
			c14.505-4.355,30.713-4.675,45.724-4.564c17.255,0.128,34.162,2.287,51.039,5.746c22.662,4.644,45.287,10.613,66.184,20.733
			c23.594,11.425,44.68,28.326,56.808,51.984c7.218,14.079,10.674,29.603,11.614,45.325c0.639,10.684-9.635,21.243-19.805,23.59
			C293.291,218.654,293.931,216.184,295.353,212.438c1.372-3.613-4.426-5.176-5.786-1.595c-1.496,3.939-2.388,9.294,1.799,11.941
			c3.591,2.271,8.498,0.733,12.033-0.803c9.887-4.296,20.405-14.324,20.489-25.821c0.219-30.061-13.546-60.095-35.371-80.42
			c-19.501-18.161-44.373-29.475-69.635-37.135c-27.724-8.406-56.989-14.092-85.973-14.396c-15.682-0.164-32.592,0.251-47.777,4.67
			c-2.85,0.829-7.53,2.059-8.432,5.41c-0.992,3.689,2.947,5.383,5.762,6.138c7.213,1.936,15.132,1.67,22.519,1.979
			c10.9,0.457,21.79,1.192,32.645,2.282c17.853,1.792,35.641,4.559,53.067,8.872c37.678,9.326,80.657,27.749,96.197,66.392
			c6.722,16.715,6.474,33.445,2.933,50.078c-0.058,0.273-0.165,0.548-0.256,0.812C288.305,214.501,294.099,216.072,295.353,212.438z
			"/>
	</g>
</g>
<g>
	<path d="M100.394,124.177c0,0-108.897-13.183-74.79-63.803c19.082-28.321,47.084-39.479,47.084-39.479s24.701,0.924,4.39,21.894
		S38.856,76.838,39.619,83.54c0.951,8.346,45.527,21.397,52.73,23.577c12.617,3.819,18.4,9.914,18.4,9.914
		C116.495,120.157,111.761,126.615,100.394,124.177z"/>
	<g>
		<path d="M100.394,121.177c-0.739-0.09-0.281-0.034-0.353-0.044c-1.076-0.149-2.151-0.308-3.224-0.476
			c-3.369-0.527-6.726-1.133-10.069-1.805c-10.154-2.039-20.233-4.654-29.964-8.223c-17.286-6.339-42.241-19.591-32.473-41.855
			C31.404,52.61,47.118,39.089,61.86,29.996c3.714-2.291,7.67-4.732,11.78-6.274c-0.754,0.283-1.088-0.081,0.357,0.286
			c1.378,0.35,3.157,0.551,4.61,1.171c6.544,2.797,1.858,9.211-1.383,13.02c-7.633,8.971-16.863,16.753-25.4,24.844
			c-5.992,5.679-21.708,17.609-11.725,26.237c5.098,4.406,11.949,6.97,18.114,9.452c7.565,3.046,15.303,5.663,23.075,8.126
			c6.771,2.146,13.83,3.795,20.102,7.215c2.61,1.423,4.788,3.124,7.096,4.933c0.757,0.593,1.693,0.825,1.383,1.562
			c-0.877,2.083-7.291,0.966-8.676,0.715c-3.775-0.686-5.394,5.096-1.595,5.786c5.161,0.937,18.422,0.848,16.45-8.058
			c-0.98-4.426-8.664-8.559-12.181-10.418c-6.22-3.288-13.03-5.02-19.701-7.115c-7.685-2.413-15.334-4.976-22.832-7.924
			c-3.589-1.411-7.151-2.914-10.59-4.662c-2.222-1.13-6.056-2.619-7.489-4.844c-2.447-3.799,6.829-10.992,9.313-13.411
			c9.242-8.998,19.141-17.424,27.82-26.985c4.268-4.701,10.16-12.131,6.669-18.843c-3.118-5.995-12.229-8.251-18.045-5.546
			c-15.653,7.28-29.863,18.813-40.593,32.264C20.342,61.65,12.634,74.44,17.57,87.729c3.897,10.492,13.778,17.558,23.354,22.51
			c18.16,9.391,39.232,14.47,59.47,16.938C104.218,127.643,104.184,121.639,100.394,121.177z"/>
	</g>
</g>
</svg>
