<?xml version="1.0" encoding="utf-8"?>
<!-- Generator: Adobe Illustrator 16.0.0, SVG Export Plug-In . SVG Version: 6.00 Build 0)  -->
<!DOCTYPE svg PUBLIC "-//W3C//DTD SVG 1.1//EN" "http://www.w3.org/Graphics/SVG/1.1/DTD/svg11.dtd">
<svg version="1.1" id="Calque_1" xmlns="http://www.w3.org/2000/svg" xmlns:xlink="http://www.w3.org/1999/xlink" x="0px" y="0px"
	 width="450.893px" height="441.075px" viewBox="0 0 450.893 441.075" enable-background="new 0 0 450.893 441.075"
	 xml:space="preserve">
<circle fill="#FFFFFF" stroke="#000000" stroke-width="5" stroke-miterlimit="10" cx="226.107" cy="222.43" r="203"/>
<path d="M189.731,394.87c-2.247,4.232-7.211,5.676-11.088,3.224l-79.555-50.342c-3.877-2.453-5.199-7.875-2.952-12.107L208,124.85
	c2.246-4.234,7.211-5.677,11.088-3.224l79.555,50.341c3.877,2.453,5.199,7.875,2.952,12.108L189.731,394.87z"/>
<path d="M201.731,398.87c-2.247,4.232-7.211,5.676-11.088,3.224l-79.555-50.342c-3.877-2.453-5.199-7.875-2.952-12.107L220,128.85
	c2.246-4.234,7.211-5.677,11.088-3.224l79.555,50.341c3.877,2.453,5.199,7.875,2.952,12.108L201.731,398.87z"/>
<g>
	<path d="M313.946,69.617c-18.884,35.788-37.764,71.576-56.647,107.364c-3.37,6.39,12.098,11.994,15.434,5.665
		c18.883-35.788,37.764-71.577,56.648-107.366C332.749,68.891,317.286,63.287,313.946,69.617"/>
	<path fill="#D6D6D6" d="M236.702,221.374c-3.992,8.107-12.826,12.145-19.72,9.01c-6.893-3.126-9.246-12.236-5.251-20.342
		c3.998-8.106,12.827-12.141,19.723-9.009C238.349,204.16,240.698,213.267,236.702,221.374"/>
	<polygon fill="#D6D6D6" points="230.639,204.211 222.106,200.34 223.537,197.436 232.07,201.31 	"/>
	<polygon fill="#D6D6D6" points="217.613,230.638 209.082,226.767 210.295,224.294 218.83,228.17 	"/>
	<path fill="#FCFCFC" d="M228.789,217.783c-3.997,8.105-12.824,12.142-19.72,9.011c-6.897-3.131-9.249-12.241-5.251-20.347
		c3.994-8.106,12.824-12.138,19.72-9.011C230.43,200.566,232.782,209.676,228.789,217.783"/>
</g>
<line fill="none" stroke="#FFFFFF" stroke-width="4" stroke-miterlimit="10" x1="157.18" y1="272.388" x2="202.161" y2="300.696"/>
<line fill="none" stroke="#FFFFFF" stroke-width="4" stroke-miterlimit="10" x1="150.59" y1="283.067" x2="195.572" y2="311.376"/>
<line fill="none" stroke="#FFFFFF" stroke-width="4" stroke-miterlimit="10" x1="144.001" y1="293.747" x2="188.982" y2="322.056"/>
<polygon points="216.774,120.514 228.524,124.68 225.774,131.014 213.44,125.347 "/>
<polygon points="181.357,399.092 193.44,403.176 194.024,393.342 182.524,393.509 "/>
</svg>
