<?xml version="1.0" encoding="utf-8"?>
<!-- Generator: Adobe Illustrator 20.0.0, SVG Export Plug-In . SVG Version: 6.00 Build 0)  -->
<svg version="1.1" id="Calque_1" xmlns="http://www.w3.org/2000/svg" xmlns:xlink="http://www.w3.org/1999/xlink" x="0px" y="0px"
	 viewBox="0 0 450.893 441.075" enable-background="new 0 0 450.893 441.075" xml:space="preserve">
<polyline fill="none" stroke="#000000" stroke-miterlimit="10" points="626.597,168.248 626.597,510.907 -13.402,510.907 "/>
<g>
	<path d="M185.962,365.194c0,0,146.212-10.884,74.091-226.847c-16.883-50.555,25.846,4.51,34.142,65.035
		c6.09,44.431,17.859,138.196-79.918,180.269C194.418,394.086,160.688,365.982,185.962,365.194z"/>
	<g>
		<path d="M185.962,368.194c14.91-1.129,30.121-7.05,42.857-14.574c29.834-17.624,47.177-48.485,52.233-82.265
			c4.155-27.766,1.359-56.162-4.317-83.508c-3.911-18.846-9.948-36.894-15.375-55.314c-0.782-2.653-1.552-5.357-1.968-8.097
			c-0.109-0.722-0.304-3.805-0.191-3.755c0.376,0.167-1.923,1.249-1.897,0.748c0.004-0.07,1.453,1.083,1.437,1.068
			c1.413,1.423,2.68,2.923,3.859,4.547c17.965,24.761,26.235,56.649,29.937,86.525c2.726,21.999,3.924,44.454,0.488,66.448
			c-4.21,26.947-15.56,52.262-35.121,71.564c-11.797,11.64-25.886,20.673-40.899,27.591c-7.107,3.275-13.066,4.815-20.792,2.589
			c-5.21-1.502-10.953-4.281-14.514-8.514C178.21,369.096,181.598,368.408,185.962,368.194c3.843-0.189,3.866-6.19,0-6
			c-4.387,0.215-10.557,1.091-11.837,6.199c-1.041,4.151,2.121,8.146,4.98,10.743c8.841,8.028,23.42,12.726,34.845,7.949
			c30.155-12.609,56.682-33.786,71.579-63.289c11.943-23.653,15.979-50.351,15.56-76.634c-0.429-26.89-3.955-54.85-12.653-80.307
			c-5.064-14.821-11.426-30.072-20.653-42.84c-2.472-3.42-11.981-14.355-14.417-4.607c-1.146,4.587,0.938,10.401,2.21,14.719
			c2.927,9.934,6.371,19.696,9.138,29.684c4.945,17.849,8.873,36.055,10.877,54.482c4.638,42.647-1.23,90.223-35.438,119.865
			c-9.705,8.41-21.158,14.837-33.269,19.068c-4.26,1.488-8.612,2.727-13.025,3.673c-1.498,0.321-3.003,0.6-4.514,0.855
			c-0.59,0.1-1.182,0.185-1.774,0.268c0.531-0.074,0.046-0.029-0.619,0.072c-0.326,0.05-0.66,0.074-0.989,0.099
			C182.136,362.484,182.105,368.486,185.962,368.194z"/>
	</g>
</g>
<g>
	<path d="M212.762,156.938c0,0-23.274-103.506,41.865-92.998c36.445,5.879,57.8,26.673,57.8,26.673s7.463,22.651-21.634,12.722
		s-49.035-20.852-55.856-17.482c-8.494,4.197-7.055,49.63-6.897,57.001c0.276,12.91-4.189,20.565-4.189,20.565
		C222.51,169.853,214.069,168.167,212.762,156.938z"/>
	<g>
		<path d="M215.655,156.14c-6.553-29.288-11.5-93.137,33.856-89.809c18.787,1.378,37.882,9.493,53.169,20.295
			c2.677,1.892,5.066,4.054,7.611,6.092c-1.397-1.119-0.628-1.352-0.259,0.72c0.259,1.452,0.405,3.048,0.15,4.511
			c-0.982,5.624-7.159,5.267-11.64,4.413c-11.64-2.219-23.052-7.755-34.034-12.082c-7.528-2.966-15.358-6.64-23.439-7.791
			c-4.677-0.666-8.691,0.202-11.122,4.527c-3.3,5.871-3.734,13.63-4.294,20.181c-0.714,8.353-0.845,16.757-0.79,25.137
			c0.05,7.566,0.749,15.226-1.101,22.647c-0.63,2.527-1.473,4.965-2.651,7.283c-0.826,1.625-0.516,2.184-2.311,1.35
			C216.483,162.537,215.976,158.276,215.655,156.14c-0.572-3.805-6.354-2.188-5.786,1.595c0.861,5.733,6.249,16.181,13.649,11.386
			c4.479-2.902,6.244-12.557,6.93-17.175c1.029-6.921,0.43-14.008,0.407-20.981c-0.027-8.103,0.126-16.228,0.843-24.303
			c0.346-3.897,0.803-7.811,1.731-11.619c0.426-1.746,1.024-5.259,2.665-6.396c1.784-1.237,5.234-0.093,7.081,0.372
			c4.662,1.173,9.179,2.941,13.657,4.666c12.356,4.761,24.689,10.559,37.532,13.865c5.917,1.523,13.781,2.653,18.585-2.129
			c4.101-4.082,5.02-13.69,0.579-17.864c-11.447-10.759-27.093-18.156-41.915-22.727c-14.798-4.564-33.144-8.172-46.844,1.4
			c-9.643,6.737-14.557,18.018-16.883,29.212c-4.178,20.109-2.487,42.318,1.982,62.292
			C210.712,161.502,216.498,159.908,215.655,156.14z"/>
	</g>
</g>
</svg>
