<?xml version="1.0" encoding="utf-8"?>
<!-- Generator: Adobe Illustrator 16.0.0, SVG Export Plug-In . SVG Version: 6.00 Build 0)  -->
<!DOCTYPE svg PUBLIC "-//W3C//DTD SVG 1.1//EN" "http://www.w3.org/Graphics/SVG/1.1/DTD/svg11.dtd">
<svg version="1.1" id="Calque_1" xmlns="http://www.w3.org/2000/svg" xmlns:xlink="http://www.w3.org/1999/xlink" x="0px" y="0px"
	 width="450.893px" height="441.075px" viewBox="0 0 450.893 441.075" enable-background="new 0 0 450.893 441.075"
	 xml:space="preserve">
<circle fill="#FFFFFF" stroke="#000000" stroke-width="5" stroke-miterlimit="10" cx="226.107" cy="222.43" r="203"/>
<g>
	<path d="M335.063,334.625c-0.489,0.109-1.624-1.496-2.34-2.382c-1.256-1.578-2.34-2.964-3.714-2.771
		c-0.979,0.221-1.244,1.328-1.775,3.542c-0.168,0.969-0.506,2.325-0.799,2.739c-10.199,1.02-21.989,2.396-32.627,3.747
		c-0.148-0.083-0.445-0.831-0.668-1.246c-0.469-0.941-0.816-1.91-1.821-1.8l-0.122,0.027c-0.858,0.194-1.688,1.078-2.616,2.103
		c-0.637,0.608-1.44,1.605-1.809,1.688c-14.291,1.707-24.462,3.418-31.323,4.964c-4.288,0.967-7.154,1.962-8.892,2.819
		c-4.821,2.598-19.813,6.908-41.963,12.018c-0.54-0.111-1.822-1.801-2.685-2.77c-1.749-2.05-2.809-3.323-4.034-3.047
		c-0.858,0.193-0.976,1.384-1.087,4.316c0.004,1.163-0.014,2.797-0.281,3.322c-5.268,1.188-10.537,2.375-16.075,3.506
		c-0.539-0.109-1.794-1.107-2.607-1.855c-2.188-1.718-2.829-2.271-3.564-2.105c-1.226,0.276-1.023,1.743-0.796,3.32
		c0.125,0.554,0.252,1.689,0.081,2.077c-12.668,2.622-25.633,5.079-38.009,7.286L81.482,134.283c2.23-0.386,4.73-0.717,7.206-1.158
		c10.171-1.711,22.842-3.752,38.306-6.539c0.467,0.36,0.916,2.353,1.338,3.654c0.822,3.073,1.441,4.679,2.814,4.485
		c1.348-0.304,2.469-2.185,4.049-5.451c0.9-1.715,2.435-4.621,3.169-4.786c13.577-2.595,26.933-5.023,39.382-7.48
		c1.373-0.193,2.748,0.195,4.27,0.667c1.547,0.582,3.217,1.136,5.055,0.722c1.103-0.249,1.908-1.245,2.811-2.378
		c0.61-0.72,1.391-1.826,2.004-1.964c3.577-0.69,7.13-1.491,10.929-2.347c28.546-6.434,55.54-14.612,77.243-21.133
		c9.652-2.873,18.078-5.47,24.644-7.182c2.303-0.636,4.386-1.105,6.346-1.547c12.007-2.706,15.127-1.432,15.717-1.099
		c0.474,2.104,1.574,7.557,3.001,15.031c3.979,20.513,10.662,54.727,17.241,81.636c0.1,0.442-0.408,2.187-0.772,3.432
		c-0.458,1.965-0.82,3.21-0.696,3.764c0.125,0.554,0.689,0.776,1.304,0.639c0.366-0.083,0.832-0.306,1.272-0.638
		c0.219-0.165,0.439-0.332,0.685-0.388c1.964,7.006,3.825,12.403,5.606,16.308c9.795,21.179,21.681,50.498,27.767,89.501
		c0.029,0.692-0.654,1.66-1.313,2.74c-0.78,1.106-1.561,2.214-1.459,3.238c0.199,0.885,1.111,2.075,2.122,3.127
		c0.74,0.999,1.602,1.968,1.727,2.521c0.702,4.262,1.499,7.225,2.048,9.661c1.072,4.18,1.496,6.063,0.67,8.11
		c-0.048,0.359-0.268,0.526-0.315,0.885c-0.727,2.491-1.963,6.144-17.522,9.65C360.067,331.898,348.964,333.47,335.063,334.625z"/>
	<path d="M311.123,82.177c10.904-2.458,14.291-1.708,15.102-1.542c0.524,2.325,1.574,7.557,2.976,14.921
		c3.98,20.512,10.687,54.838,17.267,81.747c0.1,0.441-0.434,2.075-0.699,3.182c-0.679,2.132-0.919,3.349-0.769,4.014
		c0.297,0.748,1.06,1.273,2.039,1.053c0.489-0.11,0.955-0.331,1.396-0.663c1.768,6.699,3.577,11.876,5.334,15.67
		c9.795,21.179,21.681,50.498,27.742,89.391c-0.022,0.471-0.681,1.55-1.289,2.269c-0.757,1.219-1.66,2.353-1.508,3.599
		c0.225,0.996,1.137,2.187,2.172,3.35c0.689,0.775,1.577,1.855,1.677,2.299c0.704,4.263,1.5,7.226,2.049,9.66
		c0.923,4.098,1.47,5.951,0.619,7.891c-0.073,0.247-0.269,0.524-0.315,0.885c-0.776,2.269-1.891,5.895-17.082,9.318
		c-7.965,1.795-19.19,3.395-33.065,4.66c-0.442-0.249-1.354-1.441-1.896-2.133c-1.404-1.661-2.514-3.157-4.157-3.02l-0.122,0.028
		l-0.123,0.027c-1.347,0.304-1.686,1.659-2.191,3.984c-0.242,0.638-0.409,1.605-0.652,2.241c-9.93,1.075-21.499,2.287-31.867,3.693
		c-0.075-0.333-0.248-0.526-0.323-0.859c-0.348-0.969-0.917-2.354-2.387-2.021c-0.122,0.027-0.122,0.027-0.245,0.055
		c-1.103,0.249-1.934,1.135-2.959,2.296c-0.39,0.554-1.122,1.3-1.465,1.494c-14.168,1.681-24.341,3.392-31.201,4.938
		c-4.41,0.993-7.275,1.988-9.136,2.873c-4.821,2.599-19.568,6.854-41.596,11.935c-0.468-0.36-1.527-1.633-2.216-2.409
		c-1.774-2.159-3.031-3.738-4.624-3.379c-1.47,0.331-1.514,1.854-1.6,4.898c-0.045,0.941-0.114,2.352-0.234,2.962
		c-5.023,1.132-10.168,2.292-15.462,3.367c-0.468-0.36-1.402-1.08-2.164-1.606c-2.337-1.8-3.074-2.215-4.055-1.994l0,0
		c-1.837,0.414-1.611,1.992-1.334,3.79c0.1,0.443,0.347,0.97,0.324,1.44c-12.571,2.484-25.755,5.106-36.783,7.011L82.464,134.643
		c1.25-0.165,4.118-0.579,6.471-0.993c10.048-1.683,22.229-3.613,37.571-6.373c0.395,0.609,0.917,2.353,1.116,3.239
		c0.846,3.183,1.443,5.26,3.403,4.818l0,0l0.123-0.028c1.593-0.359,2.688-2.351,4.49-5.782c0.803-1.578,2.167-4.095,2.826-4.593
		c13.602-2.484,26.811-4.996,39.259-7.452c1.103-0.249,2.478,0.139,3.878,0.639c1.792,0.527,3.437,0.97,5.396,0.528l0,0
		c1.348-0.304,2.301-1.216,3.326-2.378c0.513-0.582,1.368-1.356,1.736-1.439c3.577-0.69,7.13-1.491,10.929-2.347
		c28.546-6.434,55.54-14.612,77.243-21.133c9.652-2.874,18.078-5.47,24.644-7.183C307.202,83.06,309.163,82.618,311.123,82.177
		 M310.898,81.18c-1.838,0.414-3.921,0.883-6.371,1.436c-20.995,5.663-60.232,18.928-101.887,28.316
		c-3.676,0.829-7.303,1.297-10.979,2.125l0,0c-1.715,0.387-3.369,3.901-4.962,4.26l0,0c-3.063,0.69-6.162-1.637-9.127-1.084
		c-13.699,2.622-27.055,5.051-39.307,7.812l0,0c-2.083,0.469-5.187,9.546-7.147,9.988l0,0c-1.592,0.359-2.043-8.499-3.662-8.251
		c-20.169,3.615-36.174,6.292-46.125,7.836l6.806,30.199l27.841,123.53l1.095,4.857l1.731,7.682l16.783,74.461
		c11.028-1.905,24.382-4.915,38.329-7.012l0,0c1.225-0.275-0.756-5.064,0.592-5.368l0,0c0.857-0.193,5.044,4.099,5.901,3.905
		c5.514-1.243,11.369-2.678,16.27-3.782l0,0c1.225-0.276,0.878-7.528,0.878-7.528l0,0c2.45-0.553,5.639,6.175,7.232,5.815l0,0
		c20.092-4.528,36.678-9.196,42.208-12.073c1.86-0.885,4.848-1.906,8.769-2.79c7.474-1.685,18.674-3.395,31.201-4.938
		c0.122-0.027,0.122-0.027,0.122-0.027c1.103-0.249,3.076-3.486,4.303-3.763c0.122-0.027,0.122-0.027,0.122-0.027
		c1.127-0.138,1.361,3.185,2.342,2.963c10.516-1.322,21.842-2.479,32.872-3.802l0,0c0.979-0.221,1.497-5.923,2.477-6.144l0,0
		c1.767-0.165,4.19,5.455,5.932,5.179c15.274-1.349,25.861-2.92,33.336-4.604c17.764-4.004,17.281-8.433,18.252-10.979
		c1.385-3.57-0.54-6.394-2.646-18.02c-0.325-1.439-3.646-4.183-3.848-5.65c-0.228-1.577,3.049-4.178,2.796-5.866
		c-6.313-40.581-19.108-70.509-27.792-89.611c-1.952-4.099-3.863-9.719-5.631-16.418c-0.197-0.305-0.345-0.388-0.591-0.332
		c-0.489,0.11-1.492,0.802-2.104,0.939c-0.245,0.056-0.516,0-0.59-0.332c-0.225-0.997,1.718-6.089,1.468-7.196
		c-9.048-37.289-18.548-89.719-20.17-96.916C326.81,79.804,324.007,78.226,310.898,81.18L310.898,81.18z M327.202,79.833
		c0.05,0.222,0.075,0.332,0.075,0.332C327.251,80.054,327.226,79.943,327.202,79.833L327.202,79.833z M327.251,80.054
		C327.277,80.165,327.277,80.165,327.251,80.054L327.251,80.054C327.277,80.165,327.277,80.165,327.251,80.054L327.251,80.054z
		 M327.301,80.275L327.301,80.275L327.301,80.275L327.301,80.275z"/>
</g>
<g>
	<line fill="#FFFFFF" x1="152.994" y1="320.386" x2="165.989" y2="298.808"/>
	<g>
		<path fill="#FFFFFF" d="M154.937,321.522c4.332-7.192,8.663-14.386,12.995-21.578c1.501-2.492-2.391-4.754-3.886-2.271
			c-4.332,7.192-8.663,14.386-12.995,21.578C149.55,321.743,153.442,324.004,154.937,321.522L154.937,321.522z"/>
	</g>
</g>
<g>
	<line fill="#FFFFFF" x1="170.245" y1="288.378" x2="176.754" y2="264.028"/>
	<g>
		<path fill="#FFFFFF" d="M172.414,288.977c2.17-8.117,4.34-16.234,6.51-24.352c0.75-2.807-3.59-3.996-4.339-1.195
			c-2.17,8.116-4.34,16.233-6.51,24.35C167.325,290.587,171.666,291.778,172.414,288.977L172.414,288.977z"/>
	</g>
</g>
<g>
	<line fill="#FFFFFF" x1="179.829" y1="253.54" x2="193.343" y2="232.285"/>
	<g>
		<path fill="#FFFFFF" d="M181.771,254.675c4.504-7.085,9.009-14.17,13.514-21.255c1.562-2.457-2.334-4.712-3.886-2.271
			c-4.505,7.085-9.009,14.17-13.514,21.255C176.324,254.861,180.22,257.116,181.771,254.675L181.771,254.675z"/>
	</g>
</g>
<g>
	<line fill="#FFFFFF" x1="198.664" y1="225.878" x2="219.552" y2="211.85"/>
	<g>
		<path fill="#FFFFFF" d="M199.799,227.821c6.962-4.676,13.925-9.352,20.888-14.028c2.395-1.608,0.146-5.508-2.271-3.885
			c-6.962,4.676-13.925,9.352-20.888,14.028C195.133,225.544,197.382,229.444,199.799,227.821L199.799,227.821z"/>
	</g>
</g>
<g>
	<line fill="#FFFFFF" x1="225.979" y1="206.419" x2="241.382" y2="186.499"/>
	<g>
		<path fill="#FFFFFF" d="M227.57,208.01c5.135-6.641,10.269-13.28,15.403-19.921c1.751-2.265-1.409-5.475-3.182-3.182
			c-5.135,6.64-10.269,13.28-15.403,19.921C222.637,207.093,225.797,210.303,227.57,208.01L227.57,208.01z"/>
	</g>
</g>
<g>
	<line fill="#FFFFFF" x1="274.792" y1="172.631" x2="295.083" y2="130.396"/>
	<g>
		<path fill="#FFFFFF" d="M276.734,173.767c6.764-14.078,13.527-28.157,20.291-42.235c1.251-2.603-2.629-4.886-3.885-2.271
			c-6.764,14.079-13.527,28.157-20.291,42.235C271.598,174.098,275.478,176.382,276.734,173.767L276.734,173.767z"/>
	</g>
</g>
<g>
	<line fill="#FFFFFF" x1="305.829" y1="161.438" x2="264.365" y2="139.616"/>
	<g>
		<path fill="#FFFFFF" d="M306.964,159.496c-13.821-7.274-27.643-14.549-41.464-21.823c-2.565-1.35-4.84,2.534-2.271,3.886
			c13.821,7.274,27.643,14.548,41.464,21.822C307.258,164.731,309.533,160.847,306.964,159.496L306.964,159.496z"/>
	</g>
</g>
</svg>
