<?xml version="1.0" encoding="utf-8"?>
<!-- Generator: Adobe Illustrator 16.0.0, SVG Export Plug-In . SVG Version: 6.00 Build 0)  -->
<!DOCTYPE svg PUBLIC "-//W3C//DTD SVG 1.1//EN" "http://www.w3.org/Graphics/SVG/1.1/DTD/svg11.dtd">
<svg version="1.1" id="Calque_1" xmlns="http://www.w3.org/2000/svg" xmlns:xlink="http://www.w3.org/1999/xlink" x="0px" y="0px"
	 width="450.893px" height="441.075px" viewBox="0 0 450.893 441.075" enable-background="new 0 0 450.893 441.075"
	 xml:space="preserve">
<circle fill="#FFFFFF" stroke="#000000" stroke-width="5" stroke-miterlimit="10" cx="226.107" cy="222.43" r="203"/>
<polyline fill="none" stroke="#000000" stroke-miterlimit="10" points="626.597,168.248 626.597,510.907 -13.402,510.907 "/>
<g>
	<path d="M161.563,109.456c0,0-12.836,11.701-26.554,11.862c-13.717,0.165-18.374,6.779-18.374,6.779s-9.172,12.21-16.275,18.486
		c-7.098,6.274-3.266,23.411-13.179,23.072c-9.913-0.345,8.917,7.469,8.917,7.469s-5.799,1.582-13.802,7.57
		c-8.01,5.99,24.945,0.797,17.733,8.862c-7.208,8.065-28.32,30.775-18.589,26.15c9.735-4.622,17.721-4.796,10.718,15.504
		c-7,20.303,13.994,21.157,13.994,21.157s32.606-126.223,66.144-125.693c33.54,0.529,57.018-14.881,82.767-8.168
		c25.75,6.702,51.337,19.617,57.017,23.523c5.679,3.902,46.175,31.352,50.848,17.478c4.674-13.886,3.602-25.8,3.602-25.8
		s-10.629,15.477-30.905,0.189c-20.275-15.283-40.341-31.241-52.464-27.042c-12.125,4.202-91.604-20.049-100.495-9.872
		C173.777,111.159,161.563,109.456,161.563,109.456"/>
	<path d="M359.371,279.06c1.193-2.209,2.276-4.479,3.305-6.776c-2.257,0.121-4.606,0.036-7.004-0.3
		c-13.463-1.874-23.372-10.571-22.14-19.417c1.233-8.849,13.146-14.493,26.61-12.613c3.868,0.538,7.42,1.654,10.526,3.157
		c7.261-63.206-47.353-122.502-123.281-133.098c-76.882-10.729-146.462,32.537-155.409,96.632
		c-8.942,64.1,46.134,124.76,123.015,135.49c18.38,2.563,36.322,2.009,53.132-1.135c-8.413-2.965-36.848-40.563-31.548-39.106
		c11.298,3.104,27.697,17.04,39.252,22.363c9.421,4.347,4.347,2.291,24.114,7.101c24.629-10.618,44.832-27.538,57.387-48.761
		C356.833,282.54,358.37,278.986,359.371,279.06 M264.627,257.58c-1.225,8.779-14.777,14.146-30.268,11.98
		c-15.488-2.156-27.052-11.03-25.827-19.81c0.089-0.624,0.243-1.231,0.451-1.819c-5.833,13.418,13.207,24.625,27.595,26.631
		c14.387,2.009,30.556-8.076,28.11-18.857C264.73,256.332,264.711,256.953,264.627,257.58 M265.32,238.687
		c-1.67,11.956-14.647,20.027-28.986,18.023c-14.34-2.003-24.61-13.311-22.943-25.271c1.667-11.954,14.644-20.024,28.986-18.024
		C256.714,215.419,266.987,226.733,265.32,238.687"/>
</g>
</svg>
