<?xml version="1.0" encoding="utf-8"?>
<!-- Generator: Adobe Illustrator 19.0.0, SVG Export Plug-In . SVG Version: 6.00 Build 0)  -->
<svg version="1.1" id="Calque_1" xmlns="http://www.w3.org/2000/svg" xmlns:xlink="http://www.w3.org/1999/xlink" x="0px" y="0px"
	 viewBox="0 0 302.085 292.453" enable-background="new 0 0 302.085 292.453" xml:space="preserve">
<path fill="#939393" d="M150.76,106.823c0,0,1.812-14.604,4.718-15.319s11.176,21.585,19.118,21.42s-10.237,4.179-10.237,4.179
	l-3.99-10.422c0,0-1.175-11.325-4.656-9.282s-2.095,13.395-2.095,13.395L150.76,106.823z"/>
<path d="M195.731,143.951c2.394,23.62-13.859,45.292-36.301,48.407s-42.577-13.508-44.971-37.128s13.859-45.292,36.301-48.407
	C173.203,103.709,193.337,120.331,195.731,143.951z"/>
<g>
	<path fill="#FFFFFF" d="M129.743,147.514l-1.771-0.523l2.333-10.137l1.771,0.523l-1.167,5.069l4.462-4.095l2.012,0.594
		l-3.779,3.451l1.447,6.686l-2.012-0.594l-1-4.674l-1.828,1.672L129.743,147.514z"/>
	<path fill="#FFFFFF" d="M141.936,151.116l-6.066-1.792l2.333-10.137l6.066,1.792l-0.467,2.029l-4.295-1.269l-0.467,2.029
		l2.906,0.859l-0.467,2.029l-2.906-0.859l-0.465,2.022l4.295,1.269L141.936,151.116z"/>
	<path fill="#FFFFFF" d="M150.265,152.467c-0.505,0.284-1.037,0.459-1.597,0.525c-0.56,0.066-1.114,0.018-1.661-0.143
		c-0.42-0.124-0.809-0.306-1.169-0.546c-0.36-0.24-0.683-0.524-0.97-0.853s-0.533-0.695-0.739-1.098
		c-0.206-0.403-0.364-0.829-0.474-1.276c-0.11-0.448-0.168-0.91-0.175-1.388c-0.007-0.478,0.046-0.957,0.156-1.437
		c0.111-0.481,0.272-0.929,0.484-1.344c0.212-0.416,0.463-0.788,0.752-1.118s0.61-0.614,0.964-0.852
		c0.353-0.238,0.726-0.421,1.118-0.549s0.797-0.197,1.214-0.208c0.417-0.01,0.836,0.047,1.256,0.171
		c0.547,0.162,1.051,0.425,1.512,0.79s0.85,0.813,1.167,1.345l-1.345,1.49c-0.185-0.397-0.435-0.734-0.749-1.01
		c-0.314-0.277-0.665-0.472-1.051-0.586c-0.391-0.115-0.776-0.139-1.157-0.07s-0.732,0.21-1.053,0.425
		c-0.322,0.214-0.602,0.497-0.841,0.846c-0.239,0.35-0.409,0.746-0.511,1.189c-0.102,0.443-0.124,0.881-0.065,1.313
		c0.059,0.433,0.182,0.833,0.37,1.2c0.188,0.368,0.433,0.687,0.735,0.957c0.302,0.271,0.649,0.464,1.04,0.579
		c0.387,0.114,0.777,0.138,1.17,0.07s0.757-0.223,1.089-0.467L150.265,152.467z"/>
	<path fill="#FFFFFF" d="M152.821,154.332l-1.771-0.523l2.333-10.137l1.771,0.523l-0.934,4.058l3.536,1.045l0.934-4.058l1.771,0.523
		l-2.333,10.137l-1.771-0.523l0.932-4.051l-3.536-1.045L152.821,154.332z"/>
	<path fill="#FFFFFF" d="M169.595,153.92c-0.111,0.481-0.272,0.928-0.483,1.341c-0.212,0.413-0.461,0.785-0.748,1.115
		c-0.287,0.33-0.607,0.615-0.961,0.852c-0.353,0.238-0.725,0.421-1.115,0.55s-0.795,0.198-1.214,0.208
		c-0.42,0.009-0.839-0.048-1.259-0.172c-0.42-0.124-0.809-0.306-1.169-0.546c-0.36-0.24-0.683-0.524-0.97-0.853
		c-0.287-0.329-0.533-0.695-0.739-1.098c-0.206-0.403-0.364-0.829-0.474-1.276c-0.11-0.448-0.168-0.91-0.175-1.388
		c-0.007-0.478,0.046-0.957,0.156-1.437c0.111-0.481,0.272-0.929,0.484-1.344c0.212-0.416,0.462-0.787,0.751-1.115
		c0.288-0.328,0.609-0.61,0.963-0.848c0.353-0.238,0.726-0.42,1.117-0.546c0.391-0.126,0.796-0.194,1.213-0.204
		c0.417-0.01,0.836,0.047,1.256,0.171c0.42,0.124,0.81,0.306,1.172,0.546c0.362,0.24,0.686,0.523,0.971,0.849
		s0.531,0.69,0.737,1.093s0.363,0.827,0.472,1.272c0.109,0.445,0.166,0.907,0.172,1.387
		C169.758,152.959,169.705,153.439,169.595,153.92z M167.836,153.4c0.102-0.443,0.124-0.883,0.067-1.32s-0.179-0.838-0.366-1.203
		c-0.186-0.365-0.432-0.682-0.736-0.954c-0.304-0.271-0.65-0.464-1.037-0.578c-0.391-0.115-0.776-0.139-1.157-0.07
		s-0.732,0.21-1.053,0.425c-0.322,0.214-0.602,0.497-0.841,0.846c-0.239,0.35-0.409,0.746-0.511,1.189
		c-0.102,0.443-0.124,0.881-0.065,1.313c0.059,0.433,0.182,0.833,0.37,1.2c0.188,0.368,0.433,0.687,0.735,0.957
		c0.302,0.271,0.649,0.464,1.04,0.579c0.387,0.114,0.771,0.137,1.154,0.069c0.383-0.068,0.734-0.211,1.054-0.428
		s0.599-0.499,0.837-0.844C167.565,154.237,167.734,153.843,167.836,153.4z"/>
	<path fill="#FFFFFF" d="M171.369,159.812l-1.771-0.523l2.333-10.137l1.771,0.523L171.369,159.812z"/>
	<path fill="#FFFFFF" d="M179.885,162.327l-2.147-0.634l-0.95-3.776l-2.463,2.768l-2.135-0.631l3.882-4.267l-1.549-5.871
		l2.135,0.631l0.956,3.778l2.456-2.77l2.147,0.634l-3.882,4.267L179.885,162.327z"/>
</g>
<linearGradient id="SVGID_1_" gradientUnits="userSpaceOnUse" x1="113.5585" y1="150.0019" x2="195.9651" y2="150.0019">
	<stop  offset="0" style="stop-color:#FFFFFF"/>
	<stop  offset="1" style="stop-color:#FFFFFF;stop-opacity:0"/>
</linearGradient>
<ellipse opacity="0.37" fill="url(#SVGID_1_)" cx="154.762" cy="150.002" rx="41.203" ry="43.964"/>
<path fill="#939393" d="M149.85,195.862L149.85,195.862c-1.76-1.111-2.398-3.673-1.417-5.693l33.649-69.288
	c0.981-2.02,3.224-2.764,4.984-1.652l0,0c1.76,1.111,2.398,3.673,1.417,5.693l-33.649,69.288
	C153.854,196.23,151.611,196.973,149.85,195.862z"/>
<path fill="#939393" d="M137.757,193.077L137.757,193.077c-2.002,0.278-3.779-0.867-3.949-2.545l-7.605-75.023
	c-0.17-1.678,1.329-3.277,3.331-3.555v0c2.002-0.278,3.779,0.867,3.949,2.545l7.605,75.023
	C141.257,191.199,139.759,192.799,137.757,193.077z"/>
</svg>
