<?xml version="1.0" encoding="utf-8"?>
<!-- Generator: Adobe Illustrator 20.0.0, SVG Export Plug-In . SVG Version: 6.00 Build 0)  -->
<svg version="1.1" id="Calque_1" xmlns="http://www.w3.org/2000/svg" xmlns:xlink="http://www.w3.org/1999/xlink" x="0px" y="0px"
	 viewBox="0 0 450.893 441.075" enable-background="new 0 0 450.893 441.075" xml:space="preserve">
<circle fill="#FFFFFF" stroke="#000000" stroke-width="5" stroke-miterlimit="10" cx="226.107" cy="222.43" r="203"/>
<polyline fill="none" stroke="#000000" stroke-miterlimit="10" points="626.597,168.248 626.597,510.907 -13.402,510.907 "/>
<path fill="#C92B2B" d="M276.441,260.105c0,0-11.016,14.272-14.215,2.681c-3.199-11.59-3.716-7.041-5.269,0
	c-1.553,7.041,3.448,11.76,12.96,10.22c9.512-1.54-0.87,17.371-7.691,13.824c-6.821-3.547,3.976,3.354,0.647,12.066
	c-3.328,8.712-7.469,23.741-14.714,16.226c-7.246-7.514,2.588,6.977,0,10.082s21.758-21.987,21.758-21.987l11.253-30.212
	L276.441,260.105z"/>
<path fill="#C92B2B" d="M233.612,335.309c0,0-10.888,1.284-9.297-5.705c1.591-6.988-4.319-17.319-8.092-14.483
	c-3.773,2.836,3.472,2.989,1.92,9.899c-1.553,6.911,0.437,17.304,3.755,18.803c3.318,1.499,11.28,6.985,2.469,6.086
	c-8.811-0.899-17.092-5.837-17.092-7.767c0-1.93,0.551,6.868,7.521,12.561c6.97,5.693,3.865,4.405-7.521,6.084
	c-11.386,1.679-15.248-7.909-17.975-10.878c-2.727-2.969-8.937-8.167-20.323-6.086c-11.386,2.081-7.246,26.134-17.079,6.086
	c-9.833-20.048,2.588-17.978,2.588-17.978s-29.312,5.693-6.375,25.877c22.936,20.184-8.768,9.833-8.768,9.833
	s-19.014,10.869,22.907,7.763c41.921-3.106-2.07-13.456,19.149-9.834s33.119-0.379,47.244,3.105
	c14.125,3.485,18.484,0.518,15.378-4.658C240.914,358.844,233.612,335.309,233.612,335.309z"/>
<path fill="#C92B2B" d="M276.441,83.512c0,0-44.326-0.438-49.501-17.816c-5.175-17.377-21.697-12.202-28.704-13.237
	c-7.007-1.035-19.099,3.45-19.099,3.45s34.347,2.208,31.759,17.235s-1.035,20.2,1.035,22.53c2.07,2.33-20.423-10.091-17.975-13.197
	c2.448-3.105-16.183-9.329-18.253-6.993c-2.07,2.335,13.216,8.546,13.595,14.239c0.379,5.693,21.279,29.717,16.94,36.058
	s20.184,60.529-1.035,49.239c-21.219-11.289-15.905-19.517-15.905-19.517s-2.588-12.872-10.162-1.546
	c-7.574,11.327,7.173-3.682,5.234,4.081c-1.939,7.763,4.79,31.406,18.763,31.488c13.973,0.082,33.136-12.857,35.458-2.506
	s-5.663,14.491-9.951,12.939c-4.288-1.553,15.152,8.542,33.586,3.105c18.434-5.436,18.538,5.495,15.95,10.769
	c-2.588,5.274-6.558,10.45-19.064,9.415c-12.506-1.035,16.886,2.604,9.177,9.324c-7.71,6.72,15.909,2.062,11.086,16.036
	c-4.822,13.974,46.911-31.734,20.268-59.082s-29.005-42.507-19.284-52.524C290.08,126.985,276.441,83.512,276.441,83.512z"/>
<path d="M294.74,148.126c0,0-7.775,8.414-3.33,10.529c4.445,2.115,10.409,0.802,10.409,0.802s7.044,11.339,7.693,14.29
	c0.649,2.951,18.816,30.197,9.85,44.75c-11.376,18.464-42.404,16.552-42.404,16.552s10.638-29.152,3.702-37.421
	c-6.936-8.269-21.025-28.369-19.396-33.884c1.629-5.514,12.259-16.619,12.259-16.619L294.74,148.126z"/>
<ellipse transform="matrix(0.9766 -0.215 0.215 0.9766 -32.0657 62.1955)" cx="269.917" cy="178.523" rx="10.271" ry="9.616"/>
<path d="M321.453,237.856c-4.222,11.556-16.335,18.559-27.057,15.641c-10.722-2.918-15.991-14.652-11.77-26.208
	c4.222-11.556,16.335-18.559,27.057-15.641C320.405,214.565,325.675,226.299,321.453,237.856z"/>
<path d="M319.81,233.38c0,0,11.026,28.749,11.026,40.33s-7.411-4.532-26.026,10.574c-18.615,15.106-7.658-41.745-11.887-46.324
	C288.694,233.38,319.81,233.38,319.81,233.38z"/>
<path d="M280.74,233.566c0,0-16.247,40.168-18.659,44.263c-2.412,4.095,39.14,14.177,39.14,14.177s7.816-49.87,3.016-52.008
	C299.437,237.859,280.74,233.566,280.74,233.566z"/>
<g>
	<path d="M296.459,160.542l19.26-32.656c0,0,18.944,11.747,12.711,16.537c-6.447,4.955-25.045,17.815-20.293,27.931
		C312.888,182.47,296.459,160.542,296.459,160.542z"/>
	<path d="M313.033,141.913l9.574-19.322c0,0,8.727,1.333,9.302,4.813c0.575,3.481-19.557,24.01-19.557,24.01L313.033,141.913z"/>
	<path d="M313.962,71.575c-2.047,4.321-9.094,5.192-15.74,1.945c-6.646-3.247-10.375-9.382-8.328-13.703s9.094-5.192,15.74-1.945
		C312.281,61.119,316.009,67.254,313.962,71.575z"/>
	<path d="M322.608,122.59c0,0-4.502-9.502-6.436-21.128s-9.393-24.975-9.393-24.975l5.132-3.345c0,0,25.383,44.866,23.155,47.889
		c-2.228,3.024-3.156,6.371-3.156,6.371L322.608,122.59z"/>
	<ellipse transform="matrix(0.3488 -0.9372 0.9372 0.3488 132.328 330.7831)" cx="304.203" cy="70.165" rx="7.153" ry="6.698"/>
</g>
<path d="M281.568,301.89l-10.499-5.607c-2.514-1.343-3.507-4.284-2.205-6.535l10.566-18.282c1.301-2.252,4.423-2.995,6.938-1.652
	l10.499,5.607c2.514,1.343,3.507,4.284,2.205,6.535l-10.566,18.282C287.204,302.489,284.082,303.233,281.568,301.89z"/>
<path d="M308.66,303.217h12.302c1.752,0,3.186-1.434,3.186-3.186v-23.839c0-1.752-1.434-3.186-3.186-3.186H308.66
	c-1.752,0-3.186,1.434-3.186,3.186v23.839C305.474,301.784,306.907,303.217,308.66,303.217z"/>
<path d="M270.76,288.101c0,0-4.773,9.358-7.886,10.795c-3.113,1.437-10.127,10.098-12.122,16.593
	c-1.996,6.495-17.139,19.821-17.139,19.821l9.354,6.834c0,0,36.856-41.675,41.007-39.498
	C288.124,304.823,270.76,288.101,270.76,288.101z"/>
<path d="M306.458,295.379c0,0,0.693,9.425-0.99,11.92s-2.992,12.361-1.521,18.323c1.471,5.962-3.816,23.057-3.816,23.057
	l10.156,1.232c0,0,8.637-48.84,12.753-48.963C327.158,300.824,306.458,295.379,306.458,295.379z"/>
<path d="M239.398,331.198l-5.912-1.593c0,0-4.045,7.022-6.385,7.183c-2.341,0.161-2.785,4.824-2.785,4.824
	s3.954,19.102,11.422,25.182s13.576,10.266,15.188,7.978c1.24-1.76,4.094-6.986-0.882-17.481
	c-4.976-10.494-5.381-15.691-0.199-18.497C255.026,335.988,239.398,331.198,239.398,331.198z"/>
<path d="M304.413,346.227l-5.406-1.146c0,0-0.84,7.843-2.419,9.012c-1.58,1.169-0.582,5.391-0.582,5.391s8.095,14.751,14.981,16.712
	c6.886,1.961,11.482,2.113,12.775,0.202c1.603-2.368,0.884-7.834-5.509-14.704c-6.393-6.87-8.13-11.178-5.32-15.882
	C315.744,341.109,304.413,346.227,304.413,346.227z"/>
<path d="M299.741,90.799c-1.946-2.144-4.485-3.335-6.917-3.489c-6.193-5.126-13.705-8.074-21.542-8.819
	c2.144-1.235,3.421-2.663,2.447-4.178c-2.747-4.276-6.098-6.716-6.098-6.716s2.006,6.079-5.979,7.525
	c-7.985,1.446-16.105,2.688-17.364,6.576c-1.258,3.888-23.155,17.636-22.206,22.095c0.949,4.458-1.883,7.029-1.883,7.029
	s0.581,5.76-2.053,9.118c-2.633,3.358-1.798,5.985-1.798,5.985s1.43,4.989,1.699,8.13c0.269,3.141,5.536,6.097,3.511,8.419
	c-2.024,2.322,3.709-0.466,3.709-0.466s-0.714,1.763-0.697,5.059c0.011,2.127,2.122-0.931,3.811-2.407
	c0.814,1.264,1.713,2.488,2.69,3.669c0.863,4.246,2.051,9.445,2.563,6.878c0.26-1.304,0.643-2.395,1.24-2.895
	c1.556,1.415,3.205,2.683,4.932,3.803c0.002,0.004,0.004,0.007,0.007,0.011c2.013,3.179,4.111,3.505,5.695,3.049
	c14.741,6.373,33.098,3.564,46.455-8.562c4.261-3.868,7.616-8.338,10.065-13.123c-2.422,1.366-4.952,1.467-6.238,0.049
	c-1.643-1.81-0.637-5.4,2.248-8.019c2.602-2.363,5.839-3.121,7.655-1.919c2.308-9.632,1.271-19.737-3.263-28.432
	C302.905,96.44,301.997,93.285,299.741,90.799z M276.585,129.45c-3.591,3.261-8.166,4.072-10.218,1.812
	c-0.146-0.161-0.273-0.334-0.386-0.516c2.223,1.696,6.406,0.783,9.742-2.246c3.336-3.029,4.648-7.104,3.174-9.48
	c0.17,0.13,0.33,0.273,0.476,0.434C281.424,121.714,280.176,126.189,276.585,129.45z"/>
<g>
	
		<ellipse transform="matrix(0.7404 -0.6722 0.6722 0.7404 -10.2181 209.2621)" fill="#FFFFFF" cx="265.796" cy="117.859" rx="8.346" ry="9.936"/>
</g>
<g>
	
		<ellipse transform="matrix(0.9443 -0.3291 0.3291 0.9443 -15.0594 102.384)" fill="#FFFFFF" cx="294.885" cy="95.673" rx="6.993" ry="7.018"/>
</g>
<path d="M260.663,174.924l-21.672-19.421c0,0-6.077,20.571-10.017,20.848c-3.94,0.278,28.151,17.716,42.927,13.865
	C286.677,186.365,260.663,174.924,260.663,174.924z"/>
<path d="M196.11,139.847l-11.739-10.52l6.925-9.468l30.601,35.388l-7.067,9.169C212.578,160.115,196.11,139.847,196.11,139.847z"/>
<path d="M260.663,174.924l1.564,14.602c0,0-46.704-23.398-47.184-25.807c-0.027-0.135-0.113-0.338-0.247-0.593l7.067-9.169
	l0.174,0.201L260.663,174.924z"/>
<path d="M184.176,113.407c-7.11-1.433-12.786,1.517-12.679,6.59s5.958,10.345,13.067,11.778c7.11,1.433,12.786-1.517,12.679-6.589
	C197.137,120.113,191.286,114.839,184.176,113.407z"/>
<ellipse cx="193.957" cy="120.465" rx="4.28" ry="7.42"/>
<ellipse cx="299.712" cy="72.707" rx="10.379" ry="5.111"/>
<ellipse cx="179.137" cy="114.696" rx="10.162" ry="7.895"/>
</svg>
