<?xml version="1.0" encoding="utf-8"?>
<!-- Generator: Adobe Illustrator 20.0.0, SVG Export Plug-In . SVG Version: 6.00 Build 0)  -->
<svg version="1.1" id="Calque_1" xmlns="http://www.w3.org/2000/svg" xmlns:xlink="http://www.w3.org/1999/xlink" x="0px" y="0px"
	 viewBox="0 0 450.893 441.075" enable-background="new 0 0 450.893 441.075" xml:space="preserve">
<circle fill="#FFFFFF" stroke="#000000" stroke-width="5" stroke-miterlimit="10" cx="226.107" cy="222.43" r="203"/>
<polyline fill="none" stroke="#000000" stroke-miterlimit="10" points="626.597,168.248 626.597,510.907 -13.402,510.907 "/>
<path d="M244.103,263.631c-6.382-7.572-15.363-14.508-25.535-21.19c-10.171-6.682-20.161-12.207-29.831-15.181l-24.114-15.841
	l-12.075,16.889c-7.791,10.898,9.061,34.952,37.895,53.894s58.193,25.245,65.984,14.347c0.588-0.823,1.627-1.33,0.997-2.914
	l10.339-14.461L244.103,263.631z"/>
<path fill="#212121" d="M228.675,228.304c28.834,18.942,45.892,43.131,38.101,54.029s-37.482,4.377-66.316-14.565
	c-28.834-18.942-45.892-43.131-38.101-54.029S199.841,209.363,228.675,228.304z"/>
<path fill="#212121" d="M214.568,248.036"/>
<g>
	<g>
		<path fill="#212121" d="M219.494,250.83c3.699-5.521,7.398-11.042,11.097-16.562c2.49-3.716,4.98-7.432,7.469-11.148
			c1.368-2.042,3.449-4.308,3.79-6.824c0.336-2.486-1.105-4.978-1.975-7.234c-1.595-4.135-3.19-8.27-4.786-12.405
			c-2.455-6.364-4.91-12.729-7.365-19.093c-0.919,2.259-1.838,4.517-2.757,6.776c24.727-12.231,49.453-24.463,74.18-36.694
			c6.922-3.424,0.849-13.778-6.057-10.362c-24.727,12.231-49.453,24.463-74.18,36.694c-2.168,1.072-3.654,4.453-2.757,6.776
			c4.673,12.113,9.346,24.227,14.019,36.34c0.202-1.541,0.403-3.082,0.605-4.623c-7.215,10.768-14.43,21.536-21.644,32.303
			C204.822,251.206,215.212,257.22,219.494,250.83L219.494,250.83z"/>
	</g>
</g>
<g>
	<polygon fill="#212121" points="293.598,135.928 316.029,132.594 301.088,145.84 	"/>
	<g>
		<path fill="#212121" d="M293.996,137.374c7.477-1.111,14.954-2.223,22.431-3.334c-0.486-0.836-0.973-1.671-1.459-2.507
			c-4.98,4.415-9.961,8.831-14.942,13.246c0.785,0.101,1.571,0.202,2.356,0.304c-2.497-3.304-4.993-6.608-7.49-9.912
			c-1.149-1.521-3.756-0.028-2.59,1.514c2.497,3.304,4.993,6.608,7.49,9.912c0.602,0.796,1.568,1.002,2.356,0.304
			c4.98-4.415,9.961-8.831,14.941-13.246c1.245-1.104-0.134-2.704-1.459-2.507c-7.477,1.111-14.954,2.223-22.431,3.334
			C291.296,134.764,292.105,137.655,293.996,137.374z"/>
	</g>
</g>
</svg>
