<?xml version="1.0" encoding="utf-8"?>
<!-- Generator: Adobe Illustrator 20.0.0, SVG Export Plug-In . SVG Version: 6.00 Build 0)  -->
<svg version="1.1" id="Calque_1" xmlns="http://www.w3.org/2000/svg" xmlns:xlink="http://www.w3.org/1999/xlink" x="0px" y="0px"
	 viewBox="0 0 450.893 441.075" enable-background="new 0 0 450.893 441.075" xml:space="preserve">
<circle fill="#FFFFFF" stroke="#000000" stroke-width="5" stroke-miterlimit="10" cx="226.107" cy="222.43" r="203"/>
<polyline fill="none" stroke="#000000" stroke-miterlimit="10" points="626.597,168.248 626.597,510.907 -13.402,510.907 "/>
<g>
	<ellipse transform="matrix(0.8749 -0.4844 0.4844 0.8749 -48.9467 142.4783)" cx="251.265" cy="165.966" rx="6.676" ry="7.943"/>
	<path fill="#D33333" d="M271.392,169.461c0,0,16.774,4.263,15.498,9.005s-7.879,16.115-4.052,17.075
		c3.827,0.959,13.89,6.558,11.219,21.356c-2.671,14.798,2.411,106.158-12.342,114.297s-20.411-7.618-20.411-7.618
		s-9.816-12.523-10.682-5.367s1.811,11.268,4.903,13.915c3.093,2.647-2.992,3.665-8.95-0.708c-5.958-4.373-12.18-5.165-6.554-0.517
		s8.507,9.979,15.989,10.27c7.482,0.292,16.755,1.258,11.525,4.48c-5.23,3.222,2.879,10.768,33.223-0.941
		c30.345-11.709,38.617,5.156,38.617,5.156s15.408,17.729,16.148,4.579s-1.466-11.823,4.225-11.673c5.692,0.15,30.68,3.027,19-8.704
		c-11.68-11.731-17.354-8.316-19.538-7.269s-25.836-14.932-6.398-13.995c19.438,0.937,6.089-35.241-4.524-41.484
		c-10.613-6.243-25.742-4.738-20.291-20.517c5.451-15.779,9.575-33.765-3.919-45.338c-13.494-11.574-24.826-24.178-19.335-27.045
		s-18.464-22.051-22.234-22.11C278.741,156.248,265.576,163.282,271.392,169.461z"/>
	<path d="M258.25,149.005c0,0-13.558,0.182-11.175,5.463c2.382,5.281,8.797,9.139,8.797,9.139s-2.417,14.579-4.116,17.405
		c-1.7,2.826-17.458,26.007-25.777,42.854c-11.123,22.523-51.199-21.819-51.199-21.819s20.004-5.135,23.833-21.404
		c2.773-11.783,19.35-32.807,25.005-35.936c21.872-12.1,27.517-3.983,27.517-3.983L258.25,149.005z"/>
	<ellipse transform="matrix(0.5155 -0.8569 0.8569 0.5155 -30.2399 256.4397)" cx="211.637" cy="154.959" rx="10.495" ry="12.589"/>
	<path d="M204.301,163.212l-4.397,26.874c0,0-16.563-9.608-19.607-7.232s10.138-29.959,23.207-37.018
		C216.574,138.776,204.301,163.212,204.301,163.212z"/>
	<path d="M205.993,234.31c-7.928,11.448-24.202,16.314-36.351,10.87c-12.149-5.444-15.57-19.138-7.643-30.585
		c7.928-11.448,24.202-16.314,36.351-10.87C210.498,209.169,213.92,222.863,205.993,234.31z"/>
	<path d="M194.275,194.762l-1.61-14.662l-12.645,1.389l11.106,41.911l12.475-1.645C201.313,217.884,194.275,194.762,194.275,194.762
		z"/>
	<path d="M226.512,233.59l-8.743,11.88l8.684,6.391l21-37.777l-8.75-6.1C237.538,212.214,226.512,233.59,226.512,233.59z"/>
	<path d="M246.445,171.926l11.696-3.513c0,0-9.364,44.932-11.246,45.71c-0.106,0.044-0.254,0.15-0.436,0.306l-9.052-4.951
		l0.129-0.184L246.445,171.926z"/>
	<path d="M215.103,225.296c0,0,9.823,29.923,10.013,42.562c0.189,12.638-8.001-4.827-27.663,11.957s-8.874-45.432-13.472-50.362
		S215.103,225.296,215.103,225.296z"/>
	<path d="M161.747,215.541c0,0-30.706,36.166-34.71,39.559c-4.004,3.393,41.02,30.214,41.02,30.214s23.844-49.706,18.933-53.834
		C182.078,227.353,161.747,215.541,161.747,215.541z"/>
	<path d="M157.884,282.334l-14.198-3.188c-3.4-0.763-5.504-3.621-4.676-6.35l6.724-22.158c0.828-2.729,4.288-4.337,7.688-3.574
		l14.198,3.188c3.4,0.763,5.504,3.621,4.676,6.35l-6.724,22.158C164.744,281.489,161.284,283.098,157.884,282.334z"/>
	<path d="M142.753,264.305c0,0-5.375,10.169-9.001,11.483c-3.625,1.314-11.653,10.457-13.836,17.652
		c-2.182,7.195-19.654,20.809-19.654,20.809l11.176,8.759c0,0,42.287-43.669,47.225-40.756S142.753,264.305,142.753,264.305z"/>
	<path d="M196.444,265.259c0,0,3.469,9.903,2.163,12.955c-1.307,3.052-0.101,13.887,3.324,19.914s1.916,25.497,1.916,25.497
		l12.455-1.027c0,0-3.396-54.137,1.477-55.217C222.652,266.3,196.444,265.259,196.444,265.259z"/>
	<path d="M109.677,312.047l-7.245-5.56c0,0-4.5,7.63-7.25,7.598c-2.75-0.032-3.1,5.241-3.1,5.241s-0.807,22.702,8.21,30.314
		c9.017,7.612,31.7,7.49,32.288,3.229c2.189-15.848-8.897-11.985-9.63-13.32c-6.684-12.184-6.917-18.371-0.921-21.093
		S109.677,312.047,109.677,312.047z"/>
	<path d="M208.264,320.019l-6.768,0.023c0,0,1.198,8.568-0.358,10.18c-1.556,1.612,0.818,5.89,0.818,5.89
		s13.789,13.883,22.549,14.389s12.088,0.958,15.289-2.73c1.791-2.064-1.142-8.568-10.692-14.429
		c-9.549-5.861-12.829-10.06-10.796-15.73S208.264,320.019,208.264,320.019z"/>
	<ellipse transform="matrix(0.8345 -0.551 0.551 0.8345 -104.7433 161.2928)" cx="216.114" cy="255.001" rx="11.618" ry="7.238"/>
	<path d="M230.386,144.765c0,0-7.557,2.202-21.253-0.907c-5.185-1.177,8.102,14.706,8.102,14.706L230.386,144.765z"/>
	<polygon points="211.895,151.69 194.983,161.514 188.104,186.343 183.259,217.243 230.268,169.424 	"/>
	<path d="M224.649,226.051c0,0-4.787,7.677-1.925,8.741c2.862,1.064-14.395-1.139-14.395-1.139l-2.163-16.804L224.649,226.051z"/>
	<path d="M187.846,188.027c0,0-20.021,21.516-27.233,21.165c-7.212-0.351,13.041,8.741,19.422,7.545
		C186.415,215.541,187.846,188.027,187.846,188.027z"/>
	<path fill="#AF2727" d="M295.978,336.825c0,0-10.6,8.768-16.401,6.208c-5.801-2.56-15.258-23.421-7.337-24.896
		c7.922-1.475,4.323,17.453,12.567,15.703c8.243-1.75,18.245,0.843,20.584,1.628C307.731,336.253,298.565,334.903,295.978,336.825z"
		/>
	
		<ellipse transform="matrix(0.0788 -0.9969 0.9969 0.0788 -31.4051 644.9643)" fill="#AF2727" cx="333.292" cy="339.476" rx="7.781" ry="16.758"/>
	
		<ellipse transform="matrix(0.0788 -0.9969 0.9969 0.0788 18.7829 614.2396)" fill="#AF2727" cx="341.761" cy="296.956" rx="7.781" ry="8.678"/>
	
		<ellipse transform="matrix(0.9028 -0.4302 0.4302 0.9028 -103.7658 149.4911)" fill="#AF2727" cx="278.743" cy="304.242" rx="3.591" ry="5.686"/>
	
		<ellipse transform="matrix(0.9028 -0.4302 0.4302 0.9028 -60.0465 155.4072)" fill="#AF2727" cx="313.687" cy="210.507" rx="2.317" ry="3.942"/>
	
		<ellipse transform="matrix(0.5667 -0.8239 0.8239 0.5667 -70.0502 354.8454)" fill="#AF2727" cx="302.359" cy="244.026" rx="6.163" ry="3.579"/>
	
		<ellipse transform="matrix(0.5667 -0.8239 0.8239 0.5667 -99.931 438.3486)" fill="#AF2727" cx="366.812" cy="314.188" rx="5.686" ry="3.591"/>
	<path d="M321.796,132.076c-0.129-2.078-0.86-3.948-1.973-5.412c-1.181-10.194-6.436-19.233-14.354-26.061
		c2.994,0.39,5.313,0.028,5.557-1.93c0.687-5.525-0.617-9.882-0.617-9.882s-2.785,6.57-11.498,2.415
		c-8.713-4.155-17.398-8.577-21.596-6.092c-4.199,2.485-35.645-0.517-38.184,3.948c-2.539,4.466-7.218,4.758-7.218,4.758
		s-3.894,5.333-8.992,6.434c-5.098,1.101-6.331,3.919-6.331,3.919s-2.491,5.245-4.66,8.122c-2.169,2.876,0.56,8.971-3.159,9.594
		c-3.718,0.623,3.889,2.106,3.889,2.106s-2.04,1.03-4.568,3.869c-1.632,1.832,2.737,0.635,5.484,0.51
		c-0.201,1.635-0.29,3.292-0.273,4.965c-2.457,4.225-5.34,9.487-2.871,7.631c1.254-0.942,2.461-1.62,3.414-1.645
		c0.388,2.265,0.978,4.467,1.756,6.595c-0.001,0.005-0.001,0.009-0.002,0.014c-0.539,4.087,1.206,5.784,3.064,6.464
		c9.104,15.427,28.738,25.422,50.808,24.045c7.04-0.439,8.249,2.464,14.273,0.014c-3.359-0.466-6.705-6.377-6.836-8.463
		c-0.166-2.662,0.327-7.172,5.094-7.469c4.3-0.268,17.495,3.198,18.295,5.456c8.369-5.824,14.61-13.66,17.678-22.518
		c-0.19,0.018-0.377,0.04-0.57,0.052c-5.934,0.37-10.915-2.056-11.125-5.42c-0.015-0.239-0.003-0.477,0.03-0.711
		c0.807,2.992,5.494,5.062,11.006,4.718c0.389-0.024,0.772-0.063,1.149-0.11c0.249-0.823,0.458-1.658,0.65-2.497
		C320.912,137.726,321.98,135.033,321.796,132.076z M271.18,147.939c-5.934,0.37-10.915-2.057-11.125-5.42
		c-0.015-0.239-0.003-0.477,0.03-0.711c0.807,2.992,5.494,5.062,11.006,4.718c5.512-0.344,9.905-2.98,10.334-6.05
		c0.062,0.229,0.103,0.463,0.118,0.702C281.755,144.541,277.114,147.568,271.18,147.939z"/>
	<circle fill="#FFFFFF" cx="314.222" cy="130.923" r="8.617"/>
	
		<ellipse transform="matrix(0.0788 -0.9969 0.9969 0.0788 120.1232 388.9969)" fill="#FFFFFF" cx="270.551" cy="129.499" rx="14.296" ry="14.296"/>
</g>
</svg>
