<?xml version="1.0" encoding="utf-8"?>
<!-- Generator: Adobe Illustrator 20.0.0, SVG Export Plug-In . SVG Version: 6.00 Build 0)  -->
<svg version="1.1" id="Calque_1" xmlns="http://www.w3.org/2000/svg" xmlns:xlink="http://www.w3.org/1999/xlink" x="0px" y="0px"
	 viewBox="0 0 450.893 441.075" enable-background="new 0 0 450.893 441.075" xml:space="preserve">
<circle fill="#FFFFFF" stroke="#000000" stroke-width="5" stroke-miterlimit="10" cx="226.107" cy="222.43" r="203"/>
<path stroke="#FFFFFF" stroke-miterlimit="10" d="M158.706,353.38c-2.585,3.155-8.331,3.224-12.531-0.218l-10.139-8.308
	c-4.2-3.441-5.263-9.088-2.677-12.243l75.292-91.895c2.585-3.156,8.086-2.925,12.286,0.518l10.139,8.307
	c4.2,3.441,5.508,8.789,2.923,11.943L158.706,353.38z"/>
<path fill="#020000" stroke="#000000" stroke-width="8" stroke-miterlimit="10" d="M336.931,123.544
	c-4.027-3.3-8.4-5.972-13.026-8.046c24.832,26.38,22.39,73.562-6.917,109.332c-27.17,33.16-68.494,45.607-98.877,31.981
	c1.692,1.799,3.51,3.5,5.456,5.096c30.499,24.988,80.6,14.271,111.904-23.937C366.777,199.764,367.429,148.533,336.931,123.544z"/>
<path stroke="#000000" stroke-width="4" stroke-miterlimit="10" d="M225.027,147.481c27.17-33.16,68.495-45.607,98.877-31.983
	c-1.692-1.798-3.51-3.501-5.457-5.096c-30.497-24.988-80.599-14.272-111.904,23.936c-31.304,38.208-31.959,89.439-1.46,114.426
	c4.029,3.302,8.403,5.974,13.028,8.047C193.278,230.431,195.72,183.249,225.027,147.481z"/>
<path fill="#FFFFFF" stroke="#000000" stroke-width="8" stroke-miterlimit="10" d="M316.988,224.83
	c29.307-35.77,31.749-82.952,6.917-109.332c-30.383-13.625-71.707-1.177-98.877,31.983c-29.307,35.768-31.749,82.95-6.917,109.33
	C248.494,270.437,289.818,257.99,316.988,224.83z"/>
<path stroke="#000000" stroke-miterlimit="10" d="M303.321,100.344c0,0,12.54,1.932,38.365,23.759
	c4.214,3.56-35.048-13.033-35.048-13.033L303.321,100.344z"/>
<path stroke="#FFFFFF" stroke-miterlimit="10" d="M364.072,365.416L364.072,365.416c-3.744,3.161-9.394,2.684-12.555-1.06
	L108.891,76.996c-3.161-3.744-2.684-9.394,1.06-12.555l0,0c3.744-3.161,9.394-2.684,12.555,1.06l242.627,287.361
	C368.293,356.606,367.816,362.255,364.072,365.416z"/>
</svg>
