<?xml version="1.0" encoding="utf-8"?>
<!-- Generator: Adobe Illustrator 20.0.0, SVG Export Plug-In . SVG Version: 6.00 Build 0)  -->
<svg version="1.1" id="Calque_1" xmlns="http://www.w3.org/2000/svg" xmlns:xlink="http://www.w3.org/1999/xlink" x="0px" y="0px"
	 viewBox="0 0 450.893 441.075" enable-background="new 0 0 450.893 441.075" xml:space="preserve">
<circle fill="#FFFFFF" stroke="#000000" stroke-width="5" stroke-miterlimit="10" cx="226.107" cy="222.43" r="203"/>
<polyline fill="none" stroke="#000000" stroke-miterlimit="10" points="626.597,168.248 626.597,510.907 -13.402,510.907 "/>
<g>
	<g>
		<path d="M297.839,261.076c0.051-0.001,0.1-0.003,0.145-0.004C297.936,261.074,297.888,261.075,297.839,261.076z"/>
		<g>
			<path d="M297.839,262.576c0.048-0.001,0.097-0.002,0.145-0.004c0.784-0.02,1.537-0.676,1.5-1.5c-0.036-0.796-0.66-1.521-1.5-1.5
				c-0.048,0.001-0.097,0.002-0.145,0.004c-0.784,0.02-1.537,0.676-1.5,1.5C296.374,261.872,296.998,262.597,297.839,262.576
				c0.048-0.001,0.097-0.002,0.145-0.004c0.784-0.02,1.537-0.676,1.5-1.5c-0.036-0.796-0.66-1.521-1.5-1.5
				c-0.048,0.001-0.097,0.002-0.145,0.004c-0.784,0.02-1.537,0.676-1.5,1.5C296.374,261.872,296.998,262.597,297.839,262.576z"/>
		</g>
	</g>
	<g>
		<path d="M297.714,261.079c0.042-0.001,0.083-0.002,0.124-0.003C297.8,261.077,297.756,261.078,297.714,261.079z"/>
		<g>
			<path d="M297.714,262.579c0.041-0.001,0.083-0.002,0.124-0.003c0.784-0.02,1.537-0.676,1.5-1.5c-0.036-0.796-0.66-1.521-1.5-1.5
				c-0.041,0.001-0.083,0.002-0.124,0.003c-0.784,0.02-1.537,0.676-1.5,1.5C296.25,261.875,296.874,262.601,297.714,262.579
				c0.041-0.001,0.083-0.002,0.124-0.003c0.784-0.02,1.537-0.676,1.5-1.5c-0.036-0.796-0.66-1.521-1.5-1.5
				c-0.041,0.001-0.083,0.002-0.124,0.003c-0.784,0.02-1.537,0.676-1.5,1.5C296.25,261.875,296.874,262.601,297.714,262.579z"/>
		</g>
	</g>
	<g>
		<path d="M298.572,261.058C298.629,261.056,298.623,261.056,298.572,261.058L298.572,261.058z"/>
		<g>
			<path d="M298.572,262.558c1.93,0,1.934-3,0-3C296.641,259.558,296.638,262.558,298.572,262.558z"/>
		</g>
	</g>
	<g>
		<path d="M297.984,261.072c0.268-0.007,0.496-0.012,0.588-0.015C298.497,261.06,298.314,261.064,297.984,261.072z"/>
		<g>
			<path d="M297.984,262.572c0.196-0.005,0.392-0.01,0.588-0.015c0.784-0.02,1.537-0.676,1.5-1.5c-0.036-0.796-0.66-1.521-1.5-1.5
				c-0.196,0.005-0.392,0.01-0.588,0.015c-0.784,0.02-1.537,0.676-1.5,1.5C296.519,261.868,297.143,262.594,297.984,262.572
				c0.196-0.005,0.392-0.01,0.588-0.015c0-1,0-2,0-3c-0.196,0.005-0.392,0.01-0.588,0.015c-0.784,0.02-1.537,0.676-1.5,1.5
				C296.519,261.868,297.143,262.594,297.984,262.572z"/>
		</g>
	</g>
	<g>
		<path d="M296.864,261.101c0.018,0,0.039-0.001,0.057-0.001C296.898,261.1,296.881,261.1,296.864,261.101z"/>
		<g>
			<path d="M296.864,262.601c0.019,0,0.038-0.001,0.057-0.001c0.784-0.02,1.537-0.676,1.5-1.5c-0.036-0.796-0.66-1.521-1.5-1.5
				c-0.019,0-0.038,0.001-0.057,0.001c-0.784,0.02-1.537,0.676-1.5,1.5C295.399,261.896,296.023,262.622,296.864,262.601
				c0.019,0,0.038-0.001,0.057-0.001c0.784-0.02,1.537-0.676,1.5-1.5c-0.036-0.796-0.66-1.521-1.5-1.5
				c-0.019,0-0.038,0.001-0.057,0.001c-0.784,0.02-1.537,0.676-1.5,1.5C295.399,261.896,296.023,262.622,296.864,262.601z"/>
		</g>
	</g>
	<g>
		<path d="M297.144,261.094c0.219-0.006,0.406-0.01,0.57-0.014C297.511,261.084,297.308,261.09,297.144,261.094z"/>
		<g>
			<path d="M297.144,262.594c0.19-0.005,0.38-0.01,0.57-0.014c0-1,0-2,0-3c-0.19,0.005-0.38,0.01-0.57,0.014
				c-0.784,0.02-1.537,0.676-1.5,1.5C295.68,261.889,296.304,262.615,297.144,262.594c0.19-0.005,0.38-0.01,0.57-0.014
				c0.784-0.02,1.537-0.676,1.5-1.5c-0.036-0.796-0.66-1.521-1.5-1.5c-0.19,0.005-0.38,0.01-0.57,0.014
				c-0.784,0.02-1.537,0.676-1.5,1.5C295.68,261.889,296.304,262.615,297.144,262.594z"/>
		</g>
	</g>
	<g>
		<path d="M296.921,261.099c0.059-0.002,0.135-0.003,0.223-0.006C297.072,261.095,296.999,261.097,296.921,261.099z"/>
		<g>
			<path d="M296.921,262.599c0.074-0.002,0.149-0.004,0.223-0.006c0.784-0.02,1.537-0.676,1.5-1.5c-0.036-0.796-0.66-1.521-1.5-1.5
				c-0.074,0.002-0.149,0.004-0.223,0.006c-0.784,0.02-1.537,0.676-1.5,1.5C295.456,261.895,296.08,262.621,296.921,262.599
				c0.074-0.002,0.149-0.004,0.223-0.006c0-1,0-2,0-3c-0.074,0.002-0.149,0.004-0.223,0.006c-0.784,0.02-1.537,0.676-1.5,1.5
				C295.456,261.895,296.08,262.621,296.921,262.599z"/>
		</g>
	</g>
	<g>
		<path d="M298.483,242.557c0.058-0.012,0.106-0.022,0.151-0.032C298.588,242.535,298.537,242.546,298.483,242.557z"/>
		<g>
			<path d="M298.882,244.003c0.05-0.011,0.101-0.021,0.151-0.032c0.793-0.168,1.253-1.097,1.048-1.845
				c-0.226-0.821-1.05-1.216-1.845-1.048c-0.05,0.011-0.101,0.021-0.151,0.032c-0.793,0.168-1.253,1.097-1.048,1.845
				C297.262,243.776,298.087,244.172,298.882,244.003c0.05-0.011,0.101-0.021,0.151-0.032c0.793-0.168,1.253-1.097,1.048-1.845
				c-0.226-0.821-1.05-1.216-1.845-1.048c-0.05,0.011-0.101,0.021-0.151,0.032c-0.793,0.168-1.253,1.097-1.048,1.845
				C297.262,243.776,298.087,244.172,298.882,244.003z"/>
		</g>
	</g>
	<g>
		<path d="M298.074,242.644c0.143-0.03,0.283-0.06,0.409-0.087C298.373,242.58,298.234,242.61,298.074,242.644z"/>
		<g>
			<path d="M298.473,244.09c0.136-0.029,0.273-0.058,0.409-0.087c-0.266-0.964-0.532-1.929-0.798-2.893
				c-0.136,0.029-0.273,0.058-0.409,0.087c-0.793,0.168-1.253,1.098-1.048,1.845C296.853,243.863,297.678,244.259,298.473,244.09
				c0.136-0.029,0.273-0.058,0.409-0.087c0.793-0.168,1.253-1.098,1.048-1.845c-0.226-0.821-1.05-1.216-1.845-1.048
				c-0.136,0.029-0.273,0.058-0.409,0.087c-0.793,0.168-1.253,1.098-1.048,1.845C296.853,243.863,297.678,244.259,298.473,244.09z"
				/>
		</g>
	</g>
	<g>
		<path d="M297.763,242.71c0.101-0.021,0.206-0.044,0.311-0.066C297.978,242.664,297.877,242.685,297.763,242.71z"/>
		<g>
			<path d="M298.161,244.156c0.104-0.022,0.208-0.044,0.311-0.066c0.793-0.168,1.253-1.098,1.048-1.845
				c-0.226-0.821-1.05-1.216-1.845-1.048c-0.104,0.022-0.208,0.044-0.311,0.066c-0.793,0.168-1.253,1.098-1.048,1.845
				C296.542,243.929,297.366,244.325,298.161,244.156c0.104-0.022,0.208-0.044,0.311-0.066c-0.266-0.964-0.532-1.929-0.798-2.893
				c-0.104,0.022-0.208,0.044-0.311,0.066c-0.793,0.168-1.253,1.098-1.048,1.845C296.542,243.93,297.366,244.325,298.161,244.156z"
				/>
		</g>
	</g>
	<g>
		<path d="M297.304,242.807c0.169-0.036,0.319-0.068,0.458-0.097C297.581,242.748,297.419,242.783,297.304,242.807z"/>
		<g>
			<path d="M297.703,244.253c0.153-0.032,0.306-0.065,0.458-0.097c-0.266-0.964-0.532-1.929-0.798-2.893
				c-0.153,0.032-0.306,0.065-0.458,0.097c-0.793,0.168-1.253,1.098-1.048,1.845C296.083,244.027,296.908,244.422,297.703,244.253
				c0.153-0.032,0.306-0.065,0.458-0.097c0.793-0.168,1.253-1.098,1.048-1.845c-0.226-0.821-1.05-1.216-1.845-1.048
				c-0.153,0.032-0.306,0.065-0.458,0.097c-0.793,0.168-1.253,1.098-1.048,1.845C296.083,244.027,296.908,244.422,297.703,244.253z"
				/>
		</g>
	</g>
	<g>
		<path d="M298.635,242.525c0.092-0.02,0.168-0.036,0.221-0.047C298.809,242.488,298.732,242.504,298.635,242.525z"/>
		<g>
			<path d="M299.033,243.971c0.074-0.016,0.147-0.031,0.221-0.047c-0.266-0.964-0.532-1.929-0.798-2.893
				c-0.074,0.016-0.147,0.031-0.221,0.047c-0.793,0.168-1.253,1.098-1.048,1.845C297.414,243.745,298.238,244.14,299.033,243.971
				c0.074-0.016,0.147-0.031,0.221-0.047c0.793-0.168,1.253-1.098,1.048-1.845c-0.226-0.821-1.05-1.216-1.845-1.048
				c-0.074,0.016-0.147,0.031-0.221,0.047c-0.793,0.168-1.253,1.098-1.048,1.845C297.414,243.744,298.238,244.14,299.033,243.971z"
				/>
		</g>
	</g>
	<g>
		<path d="M298.855,242.478C298.963,242.455,298.948,242.458,298.855,242.478L298.855,242.478z"/>
		<g>
			<path d="M298.855,243.978c1.93,0,1.934-3,0-3C296.925,240.978,296.922,243.978,298.855,243.978z"/>
		</g>
	</g>
	<g>
		<path d="M277.236,254.929c3.368,1.646,5.319,4.379,16.285-3.453c10.965-7.832,3.614-8.633,3.614-8.633s0.067-0.014,0.169-0.036
			c-2.223,0.471-7.135,1.513-17.157,3.638c-18.331,3.887-35.168-17.66-44.061-31.836c-0.189-3.557-0.474-6.68-0.893-9.05
			l-0.706-12.659c2.008,3.506,3.988,8.634,4.404,11.914c0.769,6.058,8.939,13.328,7.459,7.592
			c1.644,4.452,4.326,11.856,6.034,17.463c3.219,10.568,6.578,8.026,5.723,0.675c-0.856-7.351,12.474,2.791,15.044,6.45
			c2.57,3.659,15.236-0.302,10.996-2.653c-4.24-2.351-17.451-3.195-29.668-20.909c-2.48-3.596-4.882-7.599-7.139-11.693
			c0.802,0.892,1.616,1.491,2.42,1.594c1.97,0.253,4.802-6.488,7.049-13.54c2.927,1.486,9.757-2.755,7.175-4.847
			c-1.086-0.881-2.867-1.272-5.112-2.311c2.13-8.257,2.487-13.244-1.948-1.025c-3.557-2.122-7.941-6.218-12.485-15.639
			c-1.484-3.077-2.978-6.147-4.435-9.124c2.416,2.81,5.131,6.173,7.485,4.025c4.117-3.755,3.866,8.164,9.464,9.945
			c5.598,1.781,11.98-1.467,11.98-1.467s-10.702-4.878-12.11-6.913c-4.568-6.598-7.54-7.603-15.423-11.952
			c-4.559-2.515-5.976-10.679-1.181-12.12c2.478-0.745-3.26-7.816-8.275-13.383c0.2-4.665,0.386-9.256,0.515-13.53
			c0.471,1.828,0.822,3.591,0.963,5.006c0.604,6.062,6.475,13.39,5.369,7.645c1.21,4.463,3.186,11.885,4.452,17.502
			c2.387,10.589,4.748,8.072,4.07,0.717c-0.678-7.355,8.884,2.882,10.744,6.559c1.86,3.677,10.816-0.191,7.782-2.572
			c-3.033-2.381-12.422-3.322-21.267-21.12c-4.713-9.485-9.083-21.759-12.138-31.157c-0.119-1.712-0.294-3.112-0.544-4.097
			c-0.54-2.135-1.081-5.126-1.596-8.466c1.372,3.483,2.683,8.228,2.991,11.321c0.604,6.062,6.475,13.39,5.369,7.644
			c1.21,4.463,3.186,11.885,4.452,17.502c2.387,10.589,4.748,8.072,4.07,0.717c-0.678-7.355,7.154,2.035,9.014,5.712
			c1.86,3.677,11.434-1.503,8.401-3.884s-11.31-1.162-20.155-18.961c-6.041-12.157-12.254-24.232-15.587-30.669
			c-0.851-6.925-1.489-13.22-1.699-15.032c-0.298-2.566-1.193,7.81-1.964,16.994c-2.187,4.759-6.255,13.672-10.191,22.638
			c-5.766,13.137-12.034,12.567-14.193,14.392c-2.159,1.826,5.275,5.198,6.491,2.484c1.216-2.715,6.633-9.763,6.483-4.444
			c-0.15,5.318,1.744,7.042,3.018-0.667c0.676-4.089,1.796-9.504,2.485-12.76c-0.549,4.175,3.497-1.316,3.654-5.7
			c0.076-2.129,0.761-5.367,1.567-7.879c-0.063,0.711-0.123,1.369-0.178,1.943c-0.211,2.212-0.427,9.842-0.614,19.916
			c-3.008,6.872-7.976,18.313-12.793,29.816c-7.628,18.214-15.949,17.414-18.811,19.944c-2.862,2.53,7.012,7.219,8.621,3.455
			c1.608-3.764,8.785-13.533,8.596-6.156c-0.069,2.686,0.222,4.706,0.7,5.68c-7.252,9.77-15.444,15.451-20.391,1.75
			c-10.444-28.921,0.969,21.248,7,21.117c5.418-0.117,11.77-17.092,12.612-12.183c-9.544,12.738-20.766,25.652-26.123,24.196
			c-10.307-2.8,4.418,7.233,6.294,7.798c1.876,0.565,9.153-17.98,9.86-10.654c0.707,7.327,3.207-1.305,9.034-7.572
			c5.719-6.15,6.716-23.466,8.788-12.056c-1.958,4.562-4.054,9.49-6.124,14.431c-7.628,18.214-15.949,17.414-18.811,19.944
			c-2.862,2.53,7.012,7.219,8.621,3.455c1.608-3.764,8.785-13.533,8.596-6.156c-0.011,0.436-0.012,0.853-0.005,1.253
			c-7.372,10.591-16.954,19.683-27.419,17.698c-8.573-1.627-12.805-2.43-14.742-2.797c0.061,0.012,0.098,0.019,0.098,0.019
			s-6.269,1.147,3.343,8.424c9.611,7.276,11.203,4.462,14.038,2.664c2.835-1.799,5.372,4.135,2.937,8.347
			c-2.436,4.211,7.49-3.253,13.811-10.622c6.321-7.369,4.598-2.243,3.579,4.574c-1.02,6.817,4.936-2.179,7.792-10.985
			c2.723-8.396,10.909-24.943,11.691-19.708c-0.025-1.18-0.056-2.799-0.089-4.646c0.214,2.991,0.445,6.072,0.691,9.029
			c-2.431,6.885-8.841,23.955-16.6,36.018c-9.929,15.437-21.723,16.727-25.388,18.89c-2.501,1.476,2.097,3.236,5.936,3.193
			c-3.583,1.639-7.402,2.964-11.485,3.83c-14.977,3.176-21.321,4.522-23.648,5.015c0.601-0.127,1.21-0.257,1.21-0.257
			s-9.061,3.562,6.935,3.996c15.996,0.435,17.709-2.115,21.509-4.561c3.8-2.446,8.957,0.287,6.312,4.128
			c-2.645,3.841,10.388-5.483,18.08-13.128c7.692-7.645,6.32-3.527,6.39,1.379c0.069,4.906,6.838-3.637,9.039-10.664
			c0.481-1.536,1.29-3.481,2.279-5.529c-0.022,0.997-0.028,1.983,0.006,2.936c0.369,10.396-0.768,37.967-1.631,42.885
			c-0.863,4.918,18.308,5.659,18.308,5.659s-6.078-28.613-6.142-40.853c-0.02-3.92,0.095-9.98,0.164-16.662
			c2.746,4.979,5.844,12.407,7.236,17.185c2.689,9.222,8.974,19.128,8.281,12.178c-0.475-4.765-1.393-8.79,0.278-8.161
			c0.274,0.218,0.519,0.367,0.734,0.449c0.79,0.613,1.912,1.8,3.489,3.728c6.83,8.344,17.851,17.356,15.319,12.775
			c-2.532-4.581,0.854-10.086,4.026-7.843c3.172,2.242,4.822,5.298,16.547-0.417c11.725-5.715,4.505-7.855,4.505-7.855
			s0.03-0.001,0.073-0.002c-2.302,0.058-7.288,0.184-17.334,0.437c-2.264,0.057-4.465-0.259-6.6-0.876
			C272.329,257.125,274.588,253.635,277.236,254.929z M223.204,146.214c-0.727,1.104-1.612,2.436-2.625,3.938
			c1.036-2.573,1.988-4.707,2.631-4.979C223.208,145.521,223.206,145.869,223.204,146.214z M231.066,146.852
			c0.036,0.1,0.071,0.202,0.107,0.303l-0.116,0.007C231.061,147.058,231.063,146.956,231.066,146.852z M254.671,186.824
			c-2.385,4-5.166,4.276-8.036,2.323c0.523-0.811,0.75-3.015,0.476-6.043C246.548,176.868,251.922,182.672,254.671,186.824z
			 M244.619,187.443c-4.102-4.121-8.233-12-11.517-19.362l-1.007-18.042c0.748,2.565,1.339,5.215,1.532,7.191
			c0.591,6.062,6.286,13.394,5.209,7.649c1.177,4.464,3.098,11.887,4.331,17.505C243.663,184.641,244.156,186.297,244.619,187.443z
			 M213.325,148.872c0.889-5.672,2.365-13.181,3.274-17.697c-0.721,5.792,4.639-1.82,4.839-7.902
			c0.099-2.997,1.027-7.577,2.113-11.082c-0.095,6.395-0.178,13.297-0.243,20.166c-2.09,4.425-5.95,12.148-10.439,19.013
			C213.026,150.631,213.179,149.805,213.325,148.872z M214.841,158.461c-0.754,1.065-1.534,2.155-2.334,3.26
			C213.386,158.959,214.255,157.05,214.841,158.461z M214.351,192.921c0.786-4.367,1.679-8.889,2.305-11.995
			c-0.721,5.792,4.639-1.82,4.839-7.902c0.085-2.58,0.785-6.334,1.671-9.565c0.01,4.566,0.041,8.443,0.097,11.288
			C221.878,178.119,218.751,185.307,214.351,192.921z M215.74,239.021c-0.254,0.32-0.507,0.64-0.768,0.961
			c0.272-0.868,0.528-1.676,0.756-2.393C215.587,238.284,215.604,238.749,215.74,239.021z M203.91,251.345
			c-3.02,2.554-6.318,4.924-9.897,6.986C196.247,255.844,201.031,252.01,203.91,251.345z M222.057,230.108
			c0.503-3.809,2.877-9.749,4.809-11.955c0.09,0.427,0.181,0.793,0.272,1.081c0.129,0.409,0.212,0.899,0.276,1.423
			C226.174,223.136,224.394,226.422,222.057,230.108z"/>
		<g>
			<path d="M276.479,256.224c2.364,1.207,4.347,2.283,7.089,1.917c4.992-0.666,9.996-4.451,13.67-7.657
				c3.135-2.736,6.105-8.337-0.103-9.142c0.133,0.982,0.266,1.964,0.399,2.946c0.056-0.012,0.113-0.024,0.169-0.036
				c1.888-0.4,1.089-3.293-0.798-2.893c-7.332,1.555-15.605,4.652-23.082,3.961c-9.758-0.902-17.972-8.162-24.263-15.108
				c-3.18-3.512-6.075-7.271-8.765-11.169c-1.332-1.93-2.883-3.826-3.312-6.176c-0.381-2.088-0.41-4.339-0.646-6.462
				c-0.495-4.474-0.6-9.009-0.851-13.507c-0.932,0.252-1.863,0.505-2.795,0.757c3.57,6.559,3.554,15.139,9.209,20.421
				c2.729,2.549,6.229,2.387,5.396-2.071c-0.964,0.266-1.929,0.532-2.893,0.798c2.338,6.351,4.283,12.843,6.602,19.193
				c0.773,2.117,2.259,6.676,5.261,6.419c2.538-0.218,2.93-3.518,2.973-5.492c0.061-2.768-0.547-4.132,2.644-2.64
				c2.076,0.971,4.017,2.423,5.777,3.873c2.209,1.82,3.886,4.756,6.732,5.542c2.896,0.799,7.198,0.124,9.699-1.58
				c5.725-3.903-2.974-6.344-5.862-7.375c-14.399-5.139-22.887-16.832-30.095-29.761c-0.785,0.606-1.571,1.212-2.356,1.818
				c7.153,6.467,10.396-7.774,11.977-12.608c-0.615,0.349-1.23,0.698-1.845,1.048c2.964,0.982,7.278-0.507,8.967-3.224
				c2.516-4.05-2.979-5.502-5.749-6.676c0.23,0.565,0.46,1.129,0.689,1.694c0.557-2.209,2.586-7.179,1.252-9.494
				c-0.238-0.413-0.792-0.806-1.295-0.743c-2.884,0.362-4.06,6.416-4.798,8.414c0.734-0.299,1.469-0.598,2.203-0.896
				c-8.505-5.304-12.18-15.633-16.382-24.226c-0.785,0.606-1.571,1.212-2.356,1.818c2.343,2.719,4.457,5.499,8.273,4.861
				c1.837-0.307,0.719-1.464,2.133-0.428c0.469,0.344,0.728,1.529,0.951,2.027c0.659,1.474,1.21,3.013,2.096,4.374
				c3.778,5.806,11.832,4.56,17.293,1.905c0.963-0.468,0.998-2.133,0-2.59c-4.27-1.957-9.402-3.868-12.411-7.549
				c-1.773-2.168-3.47-4.201-5.745-5.872c-3.113-2.288-7.113-3.514-10.05-5.965c-1.639-1.368-2.975-3.69-2.694-5.916
				c0.292-2.32,2.022-2.123,2.898-3.58c0.85-1.413,0.606-2.5-0.055-3.998c-1.478-3.352-4.327-5.897-6.461-8.798
				c-2.901-3.944-1.364-10.156-1.213-14.925c-0.982,0.133-1.964,0.266-2.946,0.399c1.039,4.363,1.326,12.545,5.952,15.231
				c2.787,1.618,3.602-0.935,3.273-3.378c-0.964,0.266-1.929,0.532-2.893,0.798c1.791,6.624,3.183,13.385,5.081,19.973
				c0.514,1.785,1.783,6.775,4.718,5.526c0.905-0.385,1.243-1.391,1.502-2.256c0.332-1.107-0.28-6.036,0.136-6.319
				c1.763-1.197,7.34,7.541,8.21,8.531c3.532,4.02,14.352-0.058,9.908-4.708c-1.615-1.689-4.647-2.435-6.623-3.617
				c-5.021-3.003-8.828-7.528-11.832-12.49c-8.714-14.393-14.086-31.553-16.704-48.072c-0.964,0.266-1.929,0.532-2.893,0.798
				c2.403,6.41,2.128,15.116,6.863,20.435c2.606,2.927,4.876,1.344,4.39-2.267c-0.964,0.266-1.929,0.532-2.893,0.798
				c0.813,3.007,5.199,28.952,10.282,25.189c0.898-0.665,1.056-2.085,1.2-3.088c0.144-1.001,0.104-2.028,0.075-3.035
				c-0.056-2.009-0.91-2.497,0.576-1.753c3.545,1.776,4.074,7.38,7.719,8.731c4.771,1.768,13.708-4.869,7.016-8.413
				c-3.236-1.714-6.441-2.478-9.31-4.982c-5.92-5.168-9.034-12.757-12.485-19.619c-2.274-4.524-4.568-9.038-6.874-13.545
				c-1.691-3.303-4.002-6.739-5.027-10.303c-1.113-3.869-1.08-8.284-1.522-12.29c-0.132-1.199,0.039-2.833-1.091-3.586
				c-0.892-0.594-1.86,0.065-2.204,0.896c-2.261,5.471-0.355,12.402-2.136,18.025c-2.31,7.296-6.501,14.678-9.729,21.633
				c-2.581,5.562-5.605,10.01-11.242,12.64c-1.918,0.895-4.301,1.848-3.216,4.437c1.005,2.396,5.596,3.849,7.862,2.699
				c1.43-0.725,1.895-2.294,2.747-3.565c0.354-0.529,1.564-2.751,2.255-2.753c0.343-0.001,0.153,1.565,0.305,2.461
				c0.373,2.198,1.872,4.537,4.06,2.443c1.605-1.536,1.641-4.838,2.008-6.85c0.694-3.796,1.449-7.577,2.245-11.353
				c-0.982-0.133-1.964-0.266-2.946-0.399c-0.133,2.859,1.874,3.74,3.863,1.775c3.589-3.547,2.981-10.523,4.305-14.955
				c-0.982-0.133-1.964-0.266-2.946-0.399c-0.351,3.899-0.468,7.8-0.571,11.714c-0.088,3.347,0.387,7.269-0.507,10.511
				c-0.829,3.004-2.622,6.017-3.86,8.88c-2.64,6.107-5.237,12.231-7.832,18.357c-2.485,5.864-5.311,12.031-10.41,16.109
				c-2.365,1.892-10.655,3.819-9.604,7.93c0.56,2.189,3.431,3.566,5.384,4.111c3.128,0.872,5.039,0.146,6.717-2.421
				c0.86-1.315,1.536-2.719,2.484-3.993c0.389-0.522,1.533-2.3,2.264-2.621c1.613-0.708,0.71-0.029,0.755,1.87
				c0.021,0.867,0.387,2.049,0.28,2.903c-0.195,1.569-0.75,2.302-1.897,3.629c-1.907,2.205-4.596,5.308-7.643,5.849
				c-5.939,1.055-7.552-7.341-9.232-11.5c-0.552-1.366-1.211-4.089-2.543-4.972c-3.359-2.226-2.802,3.078-2.505,4.757
				c0.984,5.55,2.668,11.068,4.599,16.354c1.195,3.273,2.818,9.422,6.273,11.092c4.859,2.349,9.283-6.029,11.291-9.083
				c0.24-0.366,2.537-3.243,2.456-3.486c-0.737-2.233-6.502,5.685-7.504,6.9c-4.083,4.953-8.725,11.073-14.484,14.184
				c-2.113,1.142-3.283,0.707-5.49,0.511c-0.762-0.067-1.759-0.253-2.454,0.221c-1.763,1.203-0.693,2.957,0.393,4.193
				c2.008,2.285,8.418,8.167,11.553,6.21c1.722-1.075,2.913-4.13,3.868-5.791c0.826-1.436,1.6-2.928,2.547-4.29
				c0.387-0.557,0.743-1.188,1.261-1.639c-1.091-0.427-1.313,0.015-0.666,1.326c0.044,0.422,0.127,0.836,0.252,1.243
				c0.757,1.656,1.852,2.293,3.484,1.338c1.177-0.689,1.993-2.429,2.707-3.505c1.807-2.725,3.893-5.166,5.828-7.782
				c2.126-2.875,3.333-6.298,4.462-9.658c0.254-0.755,1.907-4.064,1.659-4.748c-1.114-3.078-1.278,2.509-0.887,1.577
				c-0.836,1.989-1.444,4.193-2.309,6.227c-4.481,10.539-8.101,20.977-19.016,26.106c-1.628,0.765-3.872,1.574-3.962,3.722
				c-0.124,2.97,4.01,4.789,6.369,5.229c3.311,0.618,4.699-0.661,6.24-3.344c0.96-1.67,2.558-5.098,4.369-5.893
				c1.741-0.765,0.854,0.594-0.02,2.21c-1.206,2.23-3.263,4.274-4.988,6.137c-5.167,5.578-11.742,10.591-19.763,9.499
				c-4.933-0.671-9.846-1.868-14.742-2.797c-1.887-0.358-2.695,2.532-0.798,2.893c0.033,0.006,0.065,0.012,0.098,0.019
				c0-0.964,0-1.929,0-2.893c-7.171,1.506,0.194,9.004,2.681,10.931c2.919,2.262,7.104,5.527,11.122,5.135
				c1.163-0.113,1.978-0.859,3.022-1.07c1.64-0.331,0.323-1.997,2.32,0.504c1.82,2.279-0.021,3.255-0.159,5.551
				c-0.47,7.791,14.48-7.373,15.576-8.569c0.424-0.463,3.239-3.866,3.095-3.898c-0.32-0.071,0.048-0.134-0.198,0.962
				c-0.123,0.547-0.188,1.128-0.274,1.682c-0.237,1.524-1.227,4.418-0.54,6.001c1.141,2.632,3.364,1.075,4.667-0.549
				c3.922-4.89,5.415-11.296,7.719-16.991c1.247-3.081,2.644-6.116,4.201-9.053c0.579-1.093,1.174-2.182,1.832-3.23
				c0.334-0.532,0.789-1.046,1.07-1.6c0.801-1.582,0.33,0.104,0.01-1.266c0.384,1.648,2.981,1.29,2.946-0.399
				c-0.032-1.549-0.061-3.098-0.089-4.646c-1,0-2,0-3,0c0.212,2.929,1.021,6.489,0.479,9.378c-0.291,1.55-1.171,3.223-1.731,4.699
				c-1.669,4.398-3.451,8.753-5.384,13.041c-4.251,9.433-9.056,19.568-16.986,26.484c-4.949,4.317-10.541,5.616-16.095,8.614
				c-6.445,3.478,2.619,6.271,5.854,6.414c-0.252-0.932-0.505-1.863-0.757-2.795c-10.859,4.783-23.201,6.24-34.774,8.694
				c0.266,0.964,0.532,1.929,0.798,2.893c0.403-0.086,0.807-0.171,1.21-0.257c-0.266-0.964-0.532-1.929-0.798-2.893
				c-2.816,1.136-5.482,4.036-1.537,5.86c4.703,2.174,11.916,1.305,16.885,1.01c3.655-0.217,7.427-0.683,10.709-2.415
				c0.934-0.493,1.898-1.531,2.88-1.838c1.559-0.488,4.267,0.946,4.68,2.034c0.116,0.306-0.545,0.833-0.279,1.234
				c1.327,2.001,2.378,1.566,4.498,0.345c4.464-2.571,8.598-6.161,12.444-9.551c2.373-2.091,4.893-4.245,7.072-6.527
				c0.99-1.037,0.77-1.793,0.826-0.082c0.034,1.051-0.176,2.144-0.054,3.189c0.334,2.862,2.33,3.637,4.642,1.887
				c5.286-4.001,6.837-11.681,9.471-17.324c-0.932-0.252-1.863-0.505-2.795-0.757c-0.18,14.595,0.209,29.29-1.373,43.834
				c-0.475,4.365,1.428,5.956,5.63,7.207c4.445,1.323,9.304,1.746,13.926,1.939c1.026,0.043,1.639-0.989,1.446-1.899
				c-1.54-7.271-2.9-14.589-4.072-21.928c-1.892-11.85-1.984-23.212-1.853-35.188c-0.932,0.252-1.863,0.505-2.795,0.757
				c3.309,6.163,5.547,12.562,7.833,19.134c1.331,3.829,3.245,10.279,6.83,12.63c2.139,1.404,3.434,0.088,3.703-2.154
				c0.167-1.391-0.291-2.997-0.445-4.379c0.039,0.35-0.353-2.703-0.274-2.729c-0.072,0.024-1.198,0.112,0.17,0.422
				c0.908,0.206,2.327,2.638,2.914,3.327c1.316,1.546,2.673,3.052,4.088,4.508c1.425,1.466,13.438,14.26,13.523,6.779
				c0.017-1.472-1.493-4.508-0.54-5.867c1.023-1.458,2.264-0.404,3.241,0.035c1.182,0.531,2.026,1.459,3.334,1.849
				c3.708,1.108,7.769-0.542,11.131-2c2.756-1.195,10.252-3.992,9.876-8.296c-0.155-1.775-1.68-2.92-3.273-3.428
				c-0.133,0.982-0.266,1.964-0.399,2.946c0.024-0.001,0.048-0.001,0.073-0.002c1.927-0.049,1.934-3.049,0-3
				c-7.634,0.193-16.123,1.475-23.536-0.385c0.367,0.482,0.734,0.964,1.101,1.446c-0.588-2.144,0.215-3.573,2.408-4.287
				c1.873,0.468,2.673-2.425,0.798-2.893c-4.58-1.143-6.441,3.216-6.205,7.179c0.039,0.651,0.437,1.28,1.101,1.446
				c7.775,1.951,16.361,0.693,24.333,0.492c0-1,0-2,0-3c-0.024,0.001-0.048,0.001-0.073,0.002c-1.707,0.043-2.016,2.431-0.399,2.946
				c3.962,1.264-9.128,7.019-10.424,7.416c-2.253,0.69-4.514,1.165-6.715,0.094c-1.337-0.65-2.269-1.959-3.709-2.428
				c-3.324-1.082-5.709,2.038-6.125,5.051c-0.127,0.919-0.2,2.668,0.258,3.542c0.05,0.119,0.101,0.239,0.151,0.358
				c0.211,1.773,0.916,1.898,2.117,0.374c-0.88-1.558-4.839-3.61-6.232-4.892c-2.576-2.37-5.02-4.889-7.305-7.541
				c-1.457-1.691-3.013-4.389-5.115-5.327c-3.359-1.5-3.664,1.812-3.463,4.39c0.152,1.953,0.578,3.884,0.614,5.847
				c0.257-0.191,0.515-0.382,0.772-0.573c-0.567-0.695-1.075-1.43-1.523-2.205c-2.065-3.349-3.433-7.08-4.637-10.803
				c-1.958-6.056-4.374-11.931-7.388-17.543c-0.719-1.34-2.779-0.689-2.795,0.757c-0.129,11.796-0.055,23.071,1.764,34.745
				c1.208,7.757,2.641,15.488,4.268,23.168c0.482-0.633,0.964-1.266,1.446-1.899c-3.951-0.164-7.996-0.541-11.838-1.489
				c-2.22-0.548-4.602-0.919-4.873-3.323c-0.213-1.89,0.413-4.271,0.541-6.175c0.871-13.005,0.826-25.976,0.986-38.993
				c0.017-1.413-2.148-2.144-2.795-0.757c-1.614,3.457-2.635,7.193-4.445,10.547c-0.624,1.157-1.315,2.326-2.09,3.39
				c-0.549,0.795-1.163,1.535-1.842,2.218c-0.149,1.081-0.197,1.062-0.145-0.059c-0.597-1.936,1.08-5.427-1.867-6.196
				c-3.559-0.93-8.975,6.477-11.1,8.35c-2.608,2.299-5.314,4.506-8.124,6.555c-1.099,0.802-2.208,1.624-3.378,2.323
				c-1.064,0.636-2.285,0.616-0.99,1.65c1.852,1.48,1.907-2.603,1.305-3.882c-0.755-1.604-2.515-2.465-4.191-2.683
				c-3.489-0.454-5.632,2.075-8.495,3.473c-5.036,2.459-11.513,2.117-16.952,1.948c-2.058-0.064-4.442-0.655-6.465-0.529
				c-1.435,0.089-0.745-0.719-1.575,0.375c0.294-0.387,1.293-0.811,1.504-0.896c1.76-0.71,1.133-3.302-0.798-2.893
				c-0.403,0.086-0.807,0.171-1.21,0.257c-1.888,0.4-1.089,3.293,0.798,2.893c11.858-2.515,24.36-4.093,35.491-8.996
				c1.458-0.642,0.593-2.736-0.757-2.795c-1.094-0.048-2.817,0.015-3.826-0.548c-1.217-0.68-1.014,0.261-0.175-0.414
				c0.62-0.498,1.843-0.697,2.585-0.98c2.415-0.921,4.796-1.916,7.052-3.186c6.705-3.775,11.878-9.475,15.909-15.962
				c4.398-7.079,7.89-14.723,11.078-22.409c1.406-3.389,2.738-6.809,3.996-10.255c1.423-3.896,0.539-7.773,0.242-11.875
				c-0.137-1.903-3.036-1.952-3,0c0.028,1.549,0.058,3.098,0.089,4.646c0.982-0.133,1.964-0.266,2.946-0.399
				c-1.678-7.199-8.6,5.755-9.205,6.958c-2.078,4.131-3.85,8.39-5.38,12.75c-1.148,3.272-2.448,6.522-4.25,9.499
				c-0.316,0.522-0.873,1.131-1.106,1.676c-0.427,1.002,0.493,1.033,0.401,1.251c0.567-1.331,0.549-3.515,0.769-4.988
				c0.26-1.744,1.118-5.158-1.376-5.679c-3.347-0.699-7.767,6.635-9.746,8.547c-2.156,2.084-4.761,3.744-6.879,5.819
				c-0.165,0.162-1.033,0.489-1.09,0.69c-0.005,0.018,0.12,1.536,0.837,1.374c0.506-0.114,1.027-2.843,1.08-3.216
				c0.375-2.65-0.475-7.071-3.684-7.615c-1.68-0.285-2.53,0.747-3.884,1.458c-1.899,0.997-3.137,0.898-5.16,0.026
				c-1.738-0.749-12.669-8.746-9.566-9.397c1.415-0.297,1.447-2.618,0-2.893c-0.033-0.006-0.065-0.012-0.098-0.019
				c-0.266,0.964-0.532,1.929-0.798,2.893c8.667,1.645,17.997,5.091,26.441,1.1c5.202-2.458,9.512-6.667,13.139-11.047
				c2.131-2.574,6.473-6.707,3.989-10.455c-3.856-5.816-9.091,6.686-10.896,8.201c-1.11,0.931-5.525,0.642-6.019-1.236
				c-0.226-0.86,0.855-1.021,1.682-1.423c2.64-1.284,5.13-2.433,7.376-4.391c3.171-2.765,5.571-6.362,7.515-10.06
				c1.644-3.13,2.926-6.446,4.301-9.698c1.268-3,3.663-6.667,4.203-9.866c0.239-1.413-0.5-5.131-2.289-5.616
				c-2.083-0.564-2.844,2.061-3.375,3.51c-1.316,3.59-2.168,7.396-4.183,10.694c-1.309,2.143-3.154,3.923-4.62,5.966
				c-0.803,1.118-1.535,2.282-2.296,3.428c-0.389,0.609-0.791,1.209-1.204,1.802c0.203-0.301,0.252-0.619,0.145-0.953
				c-0.815-1.379-0.628-3.264-2.962-2.699c-2.171,0.525-3.726,4.2-4.701,5.871c-0.714,1.223-1.386,2.471-2.115,3.686
				c-0.5,0.834-2.171,2.681-1.384,2.626c-2.432,0.169-6.232-4.644-8.072-5.831c-0.146-0.168-0.291-0.336-0.437-0.505
				c-0.88,1.027-0.67,1.458,0.628,1.292c0.452,0.251,1.518,0.399,2.087,0.418c1.336,0.044,2.61-0.393,3.801-0.961
				c4.953-2.361,8.985-7.071,12.538-11.092c2.171-2.456,4.245-4.997,6.273-7.572c1.094-1.389,4.013-4.1,4.314-5.778
				c0.324-1.809-1.209-3.142-2.883-2.571c-3.774,1.288-7.286,14.589-11.59,12.49c-1.335-0.651-2.445-4-2.991-5.248
				c-1.359-3.104-2.426-6.349-3.408-9.589c-0.826-2.728-1.583-5.484-2.195-8.268c-0.203-0.923-0.208-2.254-0.603-3.102
				c-0.043-0.092-0.588-5.589-2.211-0.757c-0.28,0.834,2.615,6.055,2.985,7.037c1.417,3.76,3.132,8.469,7.313,9.928
				c3.326,1.16,6.623-0.554,9.192-2.582c1.852-1.462,3.453-3.199,4.955-5.012c1.535-1.853,1.88-2.44,1.953-4.515
				c0.075-2.12,0.46-8.085-2.63-8.704c-2.903-0.581-5.626,3.791-6.954,5.732c-1.203,1.758-1.702,4.171-3.926,4.452
				c-0.923,0.117-2.642-0.571-3.357-1.165c-1.443-1.199-1.126-0.619-0.498-1.553c0.46-0.684,2.554-1.14,3.289-1.497
				c1.549-0.753,2.993-1.622,4.352-2.684c3.663-2.863,6.358-6.784,8.502-10.865c4.005-7.624,6.923-15.911,10.337-23.816
				c1.388-3.214,2.906-6.397,4.194-9.652c1.125-2.843,0.77-5.882,0.841-8.931c0.114-4.942,0.203-9.883,0.646-14.808
				c0.156-1.731-2.478-1.967-2.946-0.399c-0.683,2.288-1.169,4.567-1.508,6.93c-0.168,1.172-0.143,2.181-0.48,3.386
				c-0.245,0.636-0.49,1.273-0.735,1.909c-0.828,0.77-0.679,1.354,0.447,1.753c0.078-1.672-2.596-2.063-2.946-0.399
				c-0.586,2.782-1.164,5.565-1.694,8.358c-0.278,1.465-0.513,2.938-0.791,4.402c-0.119,0.816-0.286,1.621-0.503,2.415
				c-0.371,0.647-0.169,1.138,0.607,1.476c0.348-0.655-0.068-4.372-0.628-5.153c-0.519-0.723-1.151-1.094-2.054-1.092
				c-2.435,0.007-4.652,3.569-5.764,5.328c-0.657,1.04-0.671,1.526-1.791,1.867c-0.586,0.178-2.913-0.274-3.061-0.753
				c-0.094-0.303,1.516-0.815,2.282-1.176c9.455-4.462,12.517-15.109,16.513-23.992c2.067-4.595,5.428-9.604,5.884-14.656
				c0.409-4.534-0.138-10.978,1.626-15.246c-0.734,0.299-1.469,0.598-2.203,0.896c-1.101-0.733-0.291,1.962-0.216,2.658
				c0.217,2.006,0.437,4.011,0.666,6.015c0.424,3.712,0.768,6.042,2.445,9.292c3.84,7.444,7.646,14.905,11.401,22.393
				c3.302,6.585,6.465,13.542,12.095,18.516c2.797,2.471,5.82,3.625,9.136,5.146c2.527,1.159,1.539,2.107-1.186,3.02
				c-2.936,0.983-3.464-0.989-4.942-3.034c-1.466-2.027-4.764-6.973-7.906-6.266c-1.302,0.293-1.699,1.22-2.018,2.391
				c-0.357,1.309,0.089,2.84,0.066,4.174c0.019,0.547-0.016,1.09-0.102,1.629c-0.29,0.664-0.045,0.887,0.732,0.668
				c-3.341-7.022-4.293-15.783-6.324-23.296c-0.52-1.924-3.142-1.052-2.893,0.798c1.561,0.404,1.699,0.089,0.415-0.944
				c-0.419-0.611-0.797-1.245-1.136-1.904c-1.098-2.121-1.489-4.101-1.862-6.428c-0.578-3.603-1.604-7.075-2.884-10.488
				c-0.684-1.825-3.194-1.106-2.893,0.798c2.433,15.357,7.417,30.14,14.429,44.078c2.97,5.903,6.708,11.616,11.915,15.789
				c1.531,1.227,3.161,2.297,4.885,3.231c1.018,0.552,3.211,1.086,3.952,1.971c0.79,0.944,0.594,1.005-1.071,1.634
				c-1.337,0.505-2.531,0.447-3.606-0.447c-1.395-1.161-2.489-3.631-3.771-5.028c-1.638-1.784-5.228-5.897-8.111-4.641
				c-1.028,0.448-1.334,1.248-1.601,2.28c-0.326,1.256,0.084,2.692,0.063,3.97c-0.025,1.473,0.526,3.993,0.003,0.93
				c-1.25-7.32-3.755-14.747-5.697-21.929c-0.52-1.924-3.142-1.052-2.893,0.798c1.339,0.39,1.62,0.246,0.842-0.433
				c-0.391-0.425-0.725-0.893-1-1.403c-0.689-1.099-1.221-2.311-1.623-3.54c-0.851-2.6-1.025-5.411-1.658-8.072
				c-0.401-1.684-2.894-1.258-2.946,0.399c-0.088,2.776-0.188,5.551-0.298,8.326c-0.067,1.673-0.677,4.244-0.087,5.782
				c1.493,3.895,7.437,6.371,8.269,10.701c0.383,1.996,0.445,0.067-0.616,1.45c-0.329,0.428-0.878,0.709-1.224,1.167
				c-0.73,0.968-1.064,2.06-1.198,3.254c-0.283,2.507,0.573,5.176,2.084,7.176c2.166,2.868,5.888,4.088,8.905,5.844
				c3.852,2.243,5.889,5.02,8.852,8.195c3.205,3.435,8.321,5.37,12.531,7.299c0-0.863,0-1.727,0-2.59
				c-3.327,1.618-8.562,2.926-11.792,0.715c-2.311-1.582-2.849-4.959-4.102-7.289c-0.625-1.163-1.391-2.485-2.802-2.774
				c-0.729-0.149-1.25,0.275-1.898,0.305c-1.976,0.092,1.347,1.314-2.619-0.128c-2.009-0.731-2.541-1.522-3.898-3.097
				c-1.172-1.36-3.063,0.371-2.356,1.818c4.475,9.151,8.42,19.666,17.458,25.302c0.882,0.55,1.881-0.023,2.203-0.896
				c0.456-1.236,2.494-4.618,2.324-5.797c-0.136-0.944-0.88-1.867-1.81-1.023c-0.894,0.811-1.157,5.854-1.458,7.048
				c-0.145,0.575,0.081,1.436,0.689,1.694c1.243,0.527,4.834,1.11,4.369,2.875c-0.407,1.543-4.118,1.925-5.275,1.542
				c-0.795-0.264-1.604,0.309-1.845,1.048c-0.531,1.624-3.91,14.043-6.962,11.284c-1.247-1.127-3.207,0.291-2.356,1.818
				c6.3,11.3,13.636,22.422,25.502,28.446c3.249,1.649,6.771,2.471,10.064,3.947c2.258,1.012,1.364,0.95-0.808,1.584
				c-2.715,0.793-4.785,0.801-6.935-0.991c-2.953-2.461-11.747-12.499-16.301-8.238c-0.713,0.667-0.9,1.599-0.998,2.527
				c-0.194,1.84,1.124,7.334-1.197,3.756c-2.037-3.14-2.814-8.114-4.039-11.658c-1.14-3.301-2.331-6.584-3.537-9.862
				c-0.668-1.813-3.249-1.11-2.893,0.798c-0.261-1.394-2.078-2.667-2.86-3.952c-1.122-1.845-1.452-3.54-1.901-5.594
				c-0.852-3.899-2.46-7.621-4.361-11.115c-0.695-1.277-2.878-0.735-2.795,0.757c0.313,5.606,0.67,11.161,1.239,16.739
				c0.251,2.464,0.088,4.544,1.198,6.728c1.032,2.031,2.609,3.973,3.925,5.821c2.924,4.106,6.073,8.071,9.55,11.725
				c6.329,6.648,14.31,12.988,23.679,14.263c8.221,1.119,17.107-2.223,25.124-3.923c-0.266-0.964-0.532-1.929-0.798-2.893
				c-0.056,0.012-0.113,0.024-0.169,0.036c-1.805,0.383-1.135,2.748,0.399,2.946c0.489,0.063,0.715,0.169,0.602,1.239
				c-0.276,2.614-7.226,6.227-9.152,7.342c-4.059,2.349-6.559,2.769-10.593,0.71C276.277,252.758,274.757,255.345,276.479,256.224z"
				/>
			<path d="M221.909,145.457c-0.868,1.317-1.743,2.63-2.625,3.938c0.914,0.385,1.828,0.771,2.742,1.156
				c0.391-0.965,0.785-1.931,1.247-2.865c0.154-0.31,0.313-0.62,0.495-0.916c0.045-0.073,0.222-0.335,0.219-0.329
				c0.011-0.021,0.26-0.125-0.02,0.027c-0.752-0.432-1.505-0.863-2.257-1.295c-0.002,0.347-0.004,0.694-0.006,1.041
				c-0.011,1.931,2.989,1.933,3,0c0.002-0.347,0.004-0.694,0.006-1.041c0.007-1.164-1.272-1.834-2.257-1.295
				c-0.776,0.424-1.25,1.282-1.642,2.04c-0.641,1.238-1.155,2.545-1.678,3.836c-0.67,1.655,1.848,2.483,2.742,1.156
				c0.881-1.308,1.757-2.621,2.625-3.938C225.565,145.355,222.968,143.85,221.909,145.457z"/>
			<path d="M229.62,147.25c0.036,0.101,0.071,0.202,0.107,0.303c0.482-0.633,0.964-1.266,1.446-1.899
				c-0.039,0.002-0.077,0.004-0.116,0.007c0.5,0.5,1,1,1.5,1.5c0.003-0.103,0.006-0.207,0.009-0.31c0.023-0.785-0.706-1.536-1.5-1.5
				c-0.833,0.037-1.475,0.659-1.5,1.5c-0.003,0.103-0.006,0.207-0.009,0.31c-0.023,0.777,0.706,1.546,1.5,1.5
				c0.039-0.002,0.077-0.004,0.116-0.007c0.907-0.053,1.787-0.925,1.446-1.899c-0.035-0.101-0.071-0.202-0.107-0.303
				c-0.27-0.763-1.024-1.273-1.845-1.048C229.928,145.608,229.349,146.483,229.62,147.25z"/>
			<path d="M253.376,186.067c-0.688,1.1-1.58,2.407-2.94,2.7c-1.111,0.24-2.141-0.331-3.043-0.915
				c0.179,0.684,0.359,1.368,0.538,2.052c0.642-1.152,0.751-2.539,0.789-3.833c0.029-0.995-0.045-1.976-0.108-2.967
				c-0.022-0.345,0.26-2.038-0.353-1.264c-0.197,0.249-0.276-0.239,0.034,0.133c0.128,0.153,0.415,0.256,0.576,0.377
				c0.521,0.391,0.987,0.868,1.435,1.339c1.144,1.2,2.15,2.518,3.073,3.892c1.071,1.595,3.671,0.095,2.59-1.514
				c-1.201-1.789-2.531-3.548-4.085-5.049c-0.996-0.963-2.364-2.204-3.854-2.15c-4.325,0.157-1.413,7.232-2.688,9.522
				c-0.408,0.732-0.155,1.604,0.538,2.052c1.588,1.028,3.454,1.699,5.355,1.217c2.147-0.545,3.606-2.277,4.733-4.079
				C256.993,185.94,254.399,184.433,253.376,186.067z"/>
			<path d="M245.68,186.383c-5.196-5.55-10.847-14.167-11.277-21.878c-0.269-4.822-0.538-9.643-0.807-14.465
				c-0.982,0.133-1.964,0.266-2.946,0.399c1.46,5.263,1.341,12.758,5.715,16.812c2.391,2.216,4.364,0.71,3.973-2.371
				c-0.982,0.133-1.964,0.266-2.946,0.399c1.953,7.426,3.13,15.365,5.782,22.563c0.662,1.796,3.562,1.02,2.893-0.798
				c-2.652-7.198-3.83-15.137-5.782-22.563c-0.416-1.582-3.164-1.318-2.946,0.399c-0.134,1.329,0.249,1.412,1.149,0.249
				c-0.308-0.43-0.617-0.861-0.925-1.291c-0.36-1.669-1.684-3.279-2.121-5.033c-0.755-3.034-1.054-6.125-1.898-9.165
				c-0.441-1.589-3.043-1.33-2.946,0.399c0.302,5.405,0.581,10.812,0.905,16.216c0.182,3.03,1.551,5.386,2.917,8.132
				c2.501,5.027,5.284,9.995,9.141,14.116C244.881,189.916,246.999,187.792,245.68,186.383z"/>
			<path d="M214.772,149.271c0.953-5.924,2.094-11.815,3.274-17.697c-0.982-0.133-1.964-0.266-2.946-0.399
				c-0.233,3.696,2.423,4.48,4.602,1.626c4.234-5.544,3.412-13.783,5.297-20.211c-0.982-0.133-1.964-0.266-2.946-0.399
				c-0.053,3.61-0.101,7.219-0.144,10.829c-0.042,3.549,0.412,7.344-0.895,10.666c-2.316,5.886-6.036,11.627-9.438,16.926
				c0.914,0.385,1.828,0.771,2.742,1.156C214.49,150.94,214.642,150.108,214.772,149.271c0.32-1.888-2.571-2.7-2.893-0.798
				c-0.13,0.837-0.281,1.669-0.455,2.497c-0.325,1.65,1.795,2.63,2.742,1.156c3.575-5.568,8.198-12.14,10.202-18.514
				c0.852-2.71,0.487-5.881,0.519-8.736c0.048-4.229,0.103-8.457,0.165-12.685c0.025-1.71-2.473-2.012-2.946-0.399
				c-0.929,3.168-1.611,6.357-2.019,9.632c-0.228,1.832-0.273,3.638-0.822,5.423c-0.337,1.1-0.782,2.151-1.336,3.155
				c-0.833,0.711-0.776,1.101,0.171,1.172c0.105-1.672-2.613-2.062-2.946-0.399c-1.18,5.882-2.321,11.773-3.274,17.697
				C211.575,150.362,214.465,151.175,214.772,149.271z"/>
			<path d="M213.546,157.704c-0.773,1.09-1.551,2.177-2.334,3.26c0.914,0.385,1.828,0.771,2.742,1.156
				c0.256-0.798,0.503-1.62,0.874-2.373c0.068-0.137,0.149-0.268,0.216-0.404c0.033-0.057,0.068-0.113,0.106-0.168
				c-0.11,0.131-0.13,0.159-0.063,0.084c0.084-0.086,0.038-0.057-0.137,0.087c-0.34,0.199-0.665,0.191-0.977-0.025
				c-0.243-0.018-0.421-0.124-0.534-0.318c0.041,0.069,0.076,0.141,0.106,0.215c0.334,0.738,1.405,0.917,2.052,0.538
				c0.759-0.444,0.873-1.311,0.538-2.052c-0.617-1.364-2.252-1.575-3.239-0.487c-0.983,1.083-1.401,2.75-1.837,4.106
				c-0.226,0.704,0.206,1.503,0.868,1.77c0.736,0.296,1.423,0.009,1.873-0.614c0.783-1.083,1.561-2.17,2.334-3.26
				c0.469-0.661,0.118-1.669-0.538-2.052C214.847,156.727,214.016,157.041,213.546,157.704z"/>
			<path d="M215.798,193.32c0.731-4.006,1.504-8.003,2.305-11.995c-0.982-0.133-1.964-0.266-2.946-0.399
				c-0.198,3.142,1.883,4.669,4.217,2.146c4.491-4.856,3.713-13.29,5.24-19.214c-0.982-0.133-1.964-0.266-2.946-0.399
				c0.015,5.168,0.586,10.068-1.564,14.863c-2.121,4.73-4.484,9.336-7.046,13.842c-0.956,1.681,1.635,3.194,2.59,1.514
				c2.952-5.193,5.635-10.524,8-16.01c1.908-4.425,1.034-9.446,1.02-14.21c-0.005-1.674-2.519-2.059-2.946-0.399
				c-0.794,3.083-1.328,6.116-1.679,9.274c-0.208,1.873-0.444,3.553-1.12,5.31c-0.239,0.736-0.552,1.439-0.937,2.11
				c-0.833,0.711-0.776,1.101,0.171,1.172c0.105-1.672-2.613-2.062-2.946-0.399c-0.8,3.993-1.574,7.989-2.305,11.995
				C212.56,194.41,215.451,195.219,215.798,193.32z"/>
			<path d="M214.679,237.961c-0.255,0.321-0.51,0.642-0.768,0.961c0.836,0.486,1.671,0.973,2.507,1.459
				c0.25-0.798,0.502-1.596,0.756-2.393c-0.964-0.266-1.929-0.532-2.893-0.798c-0.175,0.925-0.215,1.713,0.163,2.588
				c0.321,0.744,1.414,0.912,2.052,0.538c0.769-0.45,0.86-1.305,0.538-2.052c0.089,0.226,0.111,0.257,0.067,0.092
				c0.028,0.214,0.037,0.228,0.028,0.042c0.001-0.097,0.007-0.194,0.017-0.291c-0.016,0.126-0.006,0.087,0.028-0.119
				c0.145-0.769-0.213-1.655-1.048-1.845c-0.819-0.187-1.59,0.247-1.845,1.048c-0.254,0.797-0.506,1.595-0.756,2.393
				c-0.198,0.63,0.131,1.367,0.689,1.694c0.532,0.311,1.405,0.275,1.818-0.235c0.258-0.319,0.513-0.639,0.768-0.961
				c0.502-0.634,0.619-1.502,0-2.121C216.279,237.439,215.185,237.322,214.679,237.961z"/>
			<path d="M202.849,250.284c-3.01,2.521-6.202,4.772-9.593,6.752c0.606,0.785,1.212,1.571,1.818,2.356
				c2.418-2.629,5.704-5.651,9.235-6.6c1.862-0.501,1.072-3.395-0.798-2.893c-4.026,1.082-7.794,4.366-10.558,7.372
				c-1.131,1.229,0.305,3.239,1.818,2.356c3.611-2.108,6.996-4.537,10.2-7.221C206.452,251.164,204.32,249.052,202.849,250.284z"/>
			<path d="M223.503,230.507c0.575-3.804,1.945-8.272,4.423-11.293c-0.836-0.221-1.671-0.441-2.507-0.662
				c0.124,0.541,0.508,1.347,0.425,1.892c-0.126,0.828-1.051,2.018-1.441,2.73c-1.147,2.099-2.37,4.153-3.642,6.178
				c-1.03,1.64,1.565,3.147,2.59,1.514c1.527-2.431,2.981-4.906,4.323-7.444c0.41-0.774,1.097-1.688,1.211-2.565
				c0.129-0.991-0.357-2.151-0.575-3.102c-0.237-1.035-1.793-1.533-2.507-0.662c-2.814,3.432-4.537,8.27-5.195,12.617
				C220.325,231.598,223.215,232.413,223.503,230.507z"/>
		</g>
	</g>
	<g>
		<path d="M167.212,215.696c-0.103-0.019-0.276-0.052-0.469-0.089C166.881,215.634,167.038,215.664,167.212,215.696z"/>
		<g>
			<path d="M167.611,214.25c-0.156-0.03-0.312-0.059-0.469-0.089c-0.768-0.146-1.655,0.214-1.845,1.048
				c-0.168,0.739,0.223,1.689,1.048,1.845c0.156,0.03,0.312,0.059,0.469,0.089c0.768,0.146,1.655-0.214,1.845-1.048
				C168.827,215.356,168.435,214.406,167.611,214.25c-0.156-0.03-0.312-0.059-0.469-0.089c-0.266,0.964-0.532,1.929-0.798,2.893
				c0.156,0.03,0.312,0.059,0.469,0.089c0.768,0.146,1.655-0.214,1.845-1.048C168.827,215.356,168.435,214.406,167.611,214.25z"/>
		</g>
	</g>
	<g>
		<path d="M166.743,215.608c-0.232-0.044-0.413-0.078-0.556-0.106C166.36,215.535,166.559,215.573,166.743,215.608z"/>
		<g>
			<path d="M167.142,214.161c-0.185-0.035-0.371-0.07-0.556-0.106c-0.768-0.146-1.655,0.214-1.845,1.048
				c-0.168,0.739,0.223,1.689,1.048,1.845c0.185,0.035,0.371,0.07,0.556,0.106c0.768,0.146,1.655-0.214,1.845-1.048
				C168.358,215.267,167.966,214.318,167.142,214.161c-0.185-0.035-0.371-0.07-0.556-0.106c-0.266,0.964-0.532,1.929-0.798,2.893
				c0.185,0.035,0.371,0.07,0.556,0.106c0.768,0.146,1.655-0.214,1.845-1.048C168.358,215.267,167.966,214.318,167.142,214.161z"/>
		</g>
	</g>
	<g>
		<path d="M224.566,199.316c-0.001-0.363-0.028-0.652-0.066-0.907C224.546,200.566,224.574,201.277,224.566,199.316z"/>
		<g>
			<path d="M226.066,199.316c-0.007-0.442-0.059-0.867-0.12-1.306c-0.102-0.736-0.992-1.162-1.646-1.074
				c-0.718,0.096-1.317,0.723-1.301,1.473c0.02,0.922-0.18,2.385,0.499,3.117c0.707,0.762,2.34,0.465,2.507-0.662
				C226.083,200.346,226.068,199.838,226.066,199.316c-0.003-0.785-0.688-1.536-1.5-1.5c-0.81,0.036-1.503,0.659-1.5,1.5
				c0.001,0.271,0.002,0.541,0.001,0.812c-0.001,0.2-0.058,0.645,0.046-0.062c0.836-0.221,1.671-0.441,2.507-0.662
				c-0.001-0.001-0.001-0.001-0.002-0.002c0.146,0.354,0.293,0.707,0.439,1.061c-0.09-0.669-0.044-1.382-0.058-2.054
				c-0.982,0.133-1.964,0.266-2.946,0.399c-0.033-0.237-0.01-0.032-0.002,0.092c0.009,0.139,0.012,0.278,0.014,0.417
				c0.012,0.784,0.681,1.537,1.5,1.5C225.368,200.78,226.079,200.156,226.066,199.316z"/>
		</g>
	</g>
	<g>
		<path d="M165.847,215.437C165.747,215.418,165.729,215.415,165.847,215.437L165.847,215.437z"/>
		<g>
			<path d="M165.847,216.937c1.93,0,1.934-3,0-3C163.916,213.937,163.913,216.937,165.847,216.937z"/>
		</g>
	</g>
	<g>
		<path d="M166.137,215.492c-0.138-0.026-0.231-0.044-0.29-0.055C165.914,215.45,166.016,215.469,166.137,215.492z"/>
		<g>
			<path d="M166.536,214.046c-0.097-0.018-0.194-0.037-0.29-0.055c-0.768-0.146-1.655,0.214-1.845,1.048
				c-0.168,0.739,0.223,1.689,1.048,1.845c0.097,0.018,0.194,0.037,0.29,0.055c0.768,0.146,1.655-0.214,1.845-1.048
				C167.752,215.152,167.36,214.202,166.536,214.046c-0.097-0.018-0.194-0.037-0.29-0.055c-0.266,0.964-0.532,1.929-0.798,2.893
				c0.097,0.018,0.194,0.037,0.29,0.055c0.768,0.146,1.655-0.214,1.845-1.048C167.752,215.152,167.36,214.202,166.536,214.046z"/>
		</g>
	</g>
	<g>
		<path d="M166.187,215.502c-0.017-0.003-0.034-0.006-0.05-0.01C166.152,215.495,166.171,215.499,166.187,215.502z"/>
		<g>
			<path d="M166.586,214.056c-0.017-0.003-0.034-0.006-0.05-0.01c-0.768-0.146-1.655,0.214-1.845,1.048
				c-0.168,0.739,0.223,1.689,1.048,1.845c0.017,0.003,0.034,0.006,0.05,0.01c0.768,0.146,1.655-0.214,1.845-1.048
				C167.802,215.162,167.41,214.212,166.586,214.056c-0.017-0.003-0.034-0.006-0.05-0.01c-0.768-0.146-1.655,0.214-1.845,1.048
				c-0.168,0.739,0.223,1.689,1.048,1.845c0.017,0.003,0.034,0.006,0.05,0.01c0.768,0.146,1.655-0.214,1.845-1.048
				C167.802,215.162,167.41,214.212,166.586,214.056z"/>
		</g>
	</g>
	<g>
		<path d="M152.774,269.979c-0.004,0.001-0.008,0.002-0.011,0.002C152.765,269.981,152.769,269.98,152.774,269.979z"/>
		<g>
			<path d="M152.375,268.533c-0.004,0.001-0.008,0.002-0.011,0.002c-0.793,0.168-1.253,1.098-1.048,1.845
				c0.226,0.821,1.05,1.216,1.845,1.048c0.004-0.001,0.008-0.002,0.011-0.002c0.793-0.168,1.253-1.098,1.048-1.845
				C153.994,268.759,153.17,268.364,152.375,268.533c-0.004,0.001-0.008,0.002-0.011,0.002c-0.793,0.168-1.253,1.098-1.048,1.845
				c0.226,0.821,1.05,1.216,1.845,1.048c0.004-0.001,0.008-0.002,0.011-0.002c0.793-0.168,1.253-1.098,1.048-1.845
				C153.994,268.759,153.17,268.364,152.375,268.533z"/>
		</g>
	</g>
	<g>
		<path d="M152.762,269.982C152.748,269.985,152.748,269.985,152.762,269.982L152.762,269.982z"/>
		<g>
			<path d="M152.762,271.482c1.93,0,1.934-3,0-3C150.832,268.482,150.829,271.482,152.762,271.482z"/>
		</g>
	</g>
	<g>
		<path d="M153.916,269.737c-0.026,0.006-0.052,0.011-0.078,0.017C153.864,269.748,153.889,269.743,153.916,269.737z"/>
		<g>
			<path d="M153.517,268.29c-0.026,0.005-0.052,0.011-0.078,0.017c-0.793,0.168-1.253,1.098-1.048,1.845
				c0.226,0.821,1.05,1.216,1.845,1.048c0.026-0.005,0.052-0.011,0.078-0.017c0.793-0.168,1.253-1.098,1.048-1.845
				C155.137,268.517,154.313,268.122,153.517,268.29c-0.026,0.005-0.052,0.011-0.078,0.017c-0.793,0.168-1.253,1.098-1.048,1.845
				c0.226,0.821,1.05,1.216,1.845,1.048c0.026-0.005,0.052-0.011,0.078-0.017c0.793-0.168,1.253-1.098,1.048-1.845
				C155.137,268.517,154.313,268.122,153.517,268.29z"/>
		</g>
	</g>
	<g>
		<path d="M152.942,269.943c-0.057,0.012-0.103,0.022-0.136,0.029C152.837,269.966,152.882,269.956,152.942,269.943z"/>
		<g>
			<path d="M152.543,268.497c-0.045,0.01-0.091,0.019-0.136,0.029c-0.793,0.168-1.253,1.098-1.048,1.845
				c0.226,0.821,1.05,1.216,1.845,1.048c0.045-0.01,0.091-0.019,0.136-0.029c0.793-0.168,1.253-1.098,1.048-1.845
				C154.163,268.724,153.338,268.328,152.543,268.497c-0.045,0.01-0.091,0.019-0.136,0.029c-0.793,0.168-1.253,1.098-1.048,1.845
				c0.226,0.821,1.05,1.216,1.845,1.048c0.045-0.01,0.091-0.019,0.136-0.029c0.793-0.168,1.253-1.098,1.048-1.845
				C154.163,268.724,153.338,268.328,152.543,268.497z"/>
		</g>
	</g>
	<g>
		<path d="M153.047,269.921c-0.039,0.008-0.074,0.016-0.105,0.022C152.974,269.937,153.009,269.929,153.047,269.921z"/>
		<g>
			<path d="M152.648,268.475c-0.035,0.007-0.07,0.015-0.105,0.022c-0.793,0.168-1.253,1.098-1.048,1.845
				c0.226,0.821,1.05,1.216,1.845,1.048c0.035-0.007,0.07-0.015,0.105-0.022c0.793-0.168,1.253-1.098,1.048-1.845
				C154.268,268.701,153.443,268.306,152.648,268.475c-0.035,0.007-0.07,0.015-0.105,0.022c-0.793,0.168-1.253,1.098-1.048,1.845
				c0.226,0.821,1.05,1.216,1.845,1.048c0.035-0.007,0.07-0.015,0.105-0.022c0.793-0.168,1.253-1.098,1.048-1.845
				C154.268,268.701,153.443,268.306,152.648,268.475z"/>
		</g>
	</g>
	<g>
		<path d="M152.806,269.972c-0.013,0.003-0.024,0.005-0.033,0.007C152.782,269.977,152.793,269.975,152.806,269.972z"/>
		<g>
			<path d="M152.407,268.526c-0.011,0.002-0.022,0.005-0.033,0.007c-0.793,0.167-1.253,1.098-1.048,1.845
				c0.226,0.822,1.05,1.215,1.845,1.048c0.011-0.002,0.022-0.005,0.033-0.007c0.793-0.167,1.253-1.098,1.048-1.845
				C154.027,268.752,153.203,268.358,152.407,268.526c-0.011,0.002-0.022,0.005-0.033,0.007c-0.793,0.167-1.253,1.098-1.048,1.845
				c0.226,0.822,1.05,1.215,1.845,1.048c0.011-0.002,0.022-0.005,0.033-0.007c0.793-0.167,1.253-1.098,1.048-1.845
				C154.027,268.752,153.203,268.358,152.407,268.526z"/>
		</g>
	</g>
	<g>
		<path d="M153.838,269.753c-0.204,0.043-0.375,0.08-0.517,0.11C153.48,269.829,153.657,269.792,153.838,269.753z"/>
		<g>
			<path d="M153.439,268.307c-0.172,0.036-0.344,0.073-0.517,0.11c0.266,0.964,0.532,1.929,0.798,2.893
				c0.172-0.036,0.344-0.073,0.517-0.11c0.793-0.168,1.253-1.098,1.048-1.845C155.059,268.534,154.235,268.138,153.439,268.307
				c-0.172,0.036-0.344,0.073-0.517,0.11c-0.793,0.168-1.253,1.098-1.048,1.845c0.226,0.821,1.05,1.216,1.845,1.048
				c0.172-0.036,0.344-0.073,0.517-0.11c0.793-0.168,1.253-1.098,1.048-1.845C155.059,268.534,154.235,268.138,153.439,268.307z"/>
		</g>
	</g>
	<g>
		<path d="M153.073,269.915c-0.009,0.002-0.018,0.004-0.027,0.006C153.055,269.919,153.064,269.917,153.073,269.915z"/>
		<g>
			<path d="M152.675,268.469c-0.009,0.002-0.018,0.004-0.027,0.006c-0.792,0.17-1.253,1.096-1.048,1.845
				c0.225,0.82,1.05,1.218,1.845,1.048c0.009-0.002,0.018-0.004,0.027-0.006c0.792-0.17,1.253-1.096,1.048-1.845
				C154.295,268.697,153.469,268.299,152.675,268.469c-0.009,0.002-0.018,0.004-0.027,0.006c-0.792,0.17-1.253,1.096-1.048,1.845
				c0.225,0.82,1.05,1.218,1.845,1.048c0.009-0.002,0.018-0.004,0.027-0.006c0.792-0.17,1.253-1.096,1.048-1.845
				C154.295,268.697,153.469,268.299,152.675,268.469z"/>
		</g>
	</g>
	<g>
		<path d="M153.322,269.863c-0.041,0.009-0.08,0.017-0.118,0.025C153.241,269.88,153.28,269.872,153.322,269.863z"/>
		<g>
			<path d="M152.923,268.416c-0.039,0.008-0.078,0.017-0.118,0.025c-0.793,0.168-1.253,1.098-1.048,1.845
				c0.226,0.821,1.05,1.216,1.845,1.048c0.039-0.008,0.078-0.017,0.118-0.025c0.793-0.168,1.253-1.098,1.048-1.845
				C154.542,268.643,153.718,268.248,152.923,268.416c-0.039,0.008-0.078,0.017-0.118,0.025c-0.793,0.168-1.253,1.098-1.048,1.845
				c0.226,0.821,1.05,1.216,1.845,1.048c0.039-0.008,0.078-0.017,0.118-0.025c0.793-0.168,1.253-1.098,1.048-1.845
				C154.542,268.643,153.718,268.248,152.923,268.416z"/>
		</g>
	</g>
	<g>
		<path d="M153.204,269.888c-0.048,0.01-0.091,0.019-0.131,0.028C153.114,269.907,153.158,269.898,153.204,269.888z"/>
		<g>
			<path d="M152.805,268.441c-0.044,0.009-0.087,0.018-0.131,0.028c-0.793,0.168-1.253,1.098-1.048,1.845
				c0.226,0.821,1.05,1.216,1.845,1.048c0.044-0.009,0.087-0.018,0.131-0.028c0.793-0.168,1.253-1.098,1.048-1.845
				C154.425,268.668,153.6,268.273,152.805,268.441c-0.044,0.009-0.087,0.018-0.131,0.028c-0.793,0.168-1.253,1.098-1.048,1.845
				c0.226,0.821,1.05,1.216,1.845,1.048c0.044-0.009,0.087-0.018,0.131-0.028c0.793-0.168,1.253-1.098,1.048-1.845
				C154.425,268.668,153.6,268.273,152.805,268.441z"/>
		</g>
	</g>
</g>
<circle stroke="#000000" stroke-miterlimit="10" cx="233.128" cy="335.028" r="18.983"/>
</svg>
