<?xml version="1.0" encoding="utf-8"?>
<!-- Generator: Adobe Illustrator 20.0.0, SVG Export Plug-In . SVG Version: 6.00 Build 0)  -->
<svg version="1.1" id="Calque_1" xmlns="http://www.w3.org/2000/svg" xmlns:xlink="http://www.w3.org/1999/xlink" x="0px" y="0px"
	 viewBox="0 0 450.893 441.075" enable-background="new 0 0 450.893 441.075" xml:space="preserve">
<circle fill="#FFFFFF" stroke="#000000" stroke-width="5" stroke-miterlimit="10" cx="226.107" cy="222.43" r="203"/>
<polyline fill="none" stroke="#000000" stroke-miterlimit="10" points="626.597,168.248 626.597,510.907 -13.402,510.907 "/>
<g>
	<path d="M162.987,115.679c0,0-12.39,11.293-25.628,11.449s-17.734,6.54-17.734,6.54s-8.854,11.786-15.707,17.842
		c-6.853,6.056-3.154,22.599-12.719,22.266c-9.566-0.333,8.606,7.211,8.606,7.211s-5.596,1.528-13.324,7.309
		s24.076,0.764,17.118,8.549s-27.333,29.706-17.941,25.241c9.392-4.465,17.1-4.628,10.344,14.965
		c-6.756,19.593,13.506,20.418,13.506,20.418s31.467-121.823,63.837-121.312s55.025-14.359,79.878-7.885
		c24.853,6.473,49.547,18.935,55.029,22.705c5.482,3.77,44.566,30.26,49.075,16.865c4.509-13.394,3.474-24.894,3.474-24.894
		s-10.257,14.932-29.826,0.181c-19.569-14.751-38.932-30.152-50.636-26.098c-11.704,4.054-88.407-19.349-96.987-9.528
		C174.773,117.324,162.987,115.679,162.987,115.679z"/>
	<path d="M353.893,279.371c1.151-2.134,2.195-4.323,3.186-6.538c-2.173,0.115-4.438,0.033-6.756-0.291
		c-12.992-1.813-22.558-10.204-21.367-18.742c1.191-8.538,12.689-13.99,25.681-12.177c3.731,0.521,7.164,1.597,10.156,3.051
		c7.012-61.004-45.698-118.229-118.978-128.455c-74.204-10.355-141.356,31.4-149.989,93.263
		c-8.633,61.863,44.523,120.407,118.727,130.762c17.734,2.475,35.053,1.943,51.279-1.098c-8.12-2.859-35.566-39.144-30.452-37.739
		c10.906,2.998,26.735,16.442,37.886,21.583c9.092,4.193,4.196,2.214,23.272,6.85c23.77-10.247,43.266-26.578,55.387-47.058
		C351.445,282.73,352.931,279.296,353.893,279.371z M262.453,258.636c-1.183,8.474-14.26,13.653-29.209,11.566
		c-14.949-2.086-26.109-10.647-24.927-19.121c0.084-0.603,0.235-1.187,0.436-1.755c-5.631,12.949,12.744,23.763,26.629,25.7
		c13.886,1.938,29.492-7.794,27.132-18.198C262.552,257.431,262.537,258.034,262.453,258.636z M263.123,240.405
		c-1.61,11.538-14.135,19.326-27.974,17.394c-13.84-1.931-23.754-12.85-22.144-24.388c1.61-11.538,14.135-19.326,27.974-17.394
		C254.819,217.948,264.733,228.867,263.123,240.405z"/>
</g>
</svg>
