<?xml version="1.0" encoding="utf-8"?>
<!-- Generator: Adobe Illustrator 20.0.0, SVG Export Plug-In . SVG Version: 6.00 Build 0)  -->
<svg version="1.1" id="Calque_1" xmlns="http://www.w3.org/2000/svg" xmlns:xlink="http://www.w3.org/1999/xlink" x="0px" y="0px"
	 viewBox="0 0 450.893 441.075" enable-background="new 0 0 450.893 441.075" xml:space="preserve">
<circle fill="#FFFFFF" stroke="#000000" stroke-width="5" stroke-miterlimit="10" cx="226.107" cy="222.43" r="203"/>
<polyline fill="none" stroke="#000000" stroke-miterlimit="10" points="626.597,168.248 626.597,510.907 -13.402,510.907 "/>
<path d="M297.156,166.004c0,0,14.939,5.206,10.106,9.907c-4.833,4.7-13.539,6.406-13.539,6.406s-3.381,16.303-2.673,19.918
	c0.708,3.615,8.528,33.944,10.741,54.826c2.959,27.919,65.767-4.126,65.767-4.126s-29.884-26.677-25.003-39.52
	c4.881-12.843,13.026-42.591,7.888-47.841c-5.138-5.249-25.35-11.925-25.35-11.925L297.156,166.004z"/>
<path d="M303.36,279.862c9.599,12.655,28.974,17.818,43.275,11.534c14.301-6.285,18.113-21.638,8.515-34.293
	c-9.599-12.655-28.974-17.818-43.275-11.534S293.761,267.208,303.36,279.862z"/>
<path d="M308.343,250.257c0,0-30.14-20.985-43.608-25.228c-13.468-4.244,3.057,8.685-20.069,20.793s46.258,22.555,50.321,28.241
	C299.05,279.75,308.343,250.257,308.343,250.257z"/>
<path d="M311.324,312.102c0,0-46.653-25.371-52.247-27.26c-5.594-1.889,33.268-50.348,33.268-50.348s44.227,42.896,40.433,49.472
	C328.984,290.541,311.324,312.102,311.324,312.102z"/>
<path d="M260.415,245.429l-9.033,14.67c-2.163,3.513-1.588,7.542,1.279,8.953l23.277,11.457c2.867,1.411,6.982-0.309,9.145-3.822
	l9.033-14.67c2.163-3.513,1.588-7.542-1.279-8.953l-23.277-11.457C266.694,240.196,262.579,241.916,260.415,245.429z"/>
<path d="M220.79,244.779l5.267-16.716c0.794-2.519,3.504-3.931,6.024-3.137l25.973,8.184c2.519,0.794,3.931,3.504,3.137,6.024
	l-5.267,16.716c-0.794,2.519-3.504,3.931-6.024,3.137l-25.973-8.184C221.408,250.009,219.996,247.298,220.79,244.779z"/>
<path d="M277.498,274.2c0,0-8.839,9.363-8.761,13.746s-6.539,16.26-13.467,21.129c-6.928,4.869-14.483,28.528-14.483,28.528
	l-14.193-9.046c0,0,29.96-60.996,24.732-65.327C246.099,258.9,277.498,274.2,277.498,274.2z"/>
<path d="M242.066,249.601c0,0-8.844,5.1-9.575,8.028c-0.731,2.927-8.234,9.986-14.719,12.34
	c-6.485,2.354-16.882,17.135-16.882,17.135l-9.839-7.84c0,0,35.281-36.765,31.838-40.318
	C219.445,235.394,242.066,249.601,242.066,249.601z"/>
<path d="M246.495,328.896l1.509,6.755c0,0-6.354,7.599-5.144,10.554s-4.361,5.229-4.361,5.229s-26.296,2.169-38.408-4.823
	s-20.33-12.139-19.14-15.839c0.889-2.765,6.279-7.647,22.415-5.371s22.887,0.857,23.276-6.591
	C227.032,311.363,246.495,328.896,246.495,328.896z"/>
<path d="M199.342,282.006l5.667,3.877c0,0-6.138,5.441-5.798,7.482c0.34,2.04-4.215,3.744-4.215,3.744s-19.889,2.059-27.546-2.577
	c-7.656-4.636-12.602-8.449-11.197-10.674c1.715-2.717,6.091-5.473,17.617-4.216c11.526,1.258,16.794,0.126,18.484-5.086
	C194.045,269.344,199.342,282.006,199.342,282.006z"/>
<path d="M305.085,190.585c2.185,3.567,7.607,4.473,12.111,2.022c4.503-2.451,6.382-7.329,4.197-10.897
	c-2.185-3.567-7.607-4.473-12.111-2.022S302.9,187.017,305.085,190.585z"/>
<path d="M220.092,152.832c-0.126-0.028-0.258-0.045-0.382-0.075c0.271,1.044,0.569,2.082,0.921,3.105
	c0.448,0.052,0.901,0.095,1.362,0.122c6.528,0.38,12.015-1.942,12.89-5.293c0.045,0.263,0.066,0.529,0.055,0.797
	c-0.158,3.766-5.983,6.488-13.011,6.08c-0.229-0.013-0.451-0.038-0.676-0.058c3.867,9.915,11.458,18.683,21.512,25.195
	c2.343-1.692,4.835-1.847,10.27-3.957c5.818-2.258,13.342-3.418,13.217-0.437c-0.098,2.335-6.216,10.583-10.176,11.107
	c7.19,2.737,15.088,4.485,23.425,4.97c26.138,1.52,49.09-9.689,59.442-26.971c2.18-0.763,4.198-2.664,3.451-7.24
	c-0.001-0.006-0.001-0.01-0.002-0.016c0.863-2.382,1.501-4.847,1.899-7.381c1.129,0.027,2.574,0.78,4.083,1.835
	c2.969,2.076-0.582-3.814-3.601-8.542c-0.025-1.874-0.175-3.729-0.457-5.559c3.252,0.138,8.451,1.474,6.472-0.576
	c-3.066-3.176-5.506-4.327-5.506-4.327s8.957-1.668,4.542-2.362c-4.414-0.695-1.351-7.521-3.993-10.739
	c-2.642-3.218-5.729-9.089-5.729-9.089s-1.534-3.154-7.592-4.382c-6.058-1.228-10.807-7.195-10.807-7.195s-5.541-0.322-8.664-5.32
	c-3.123-4.997-40.232-1.606-45.264-4.384c-5.032-2.778-15.184,2.181-25.377,6.842c-10.193,4.66-13.663-2.693-13.663-2.693
	s-1.425,4.88-0.464,11.064c0.341,2.193,3.092,2.595,6.623,2.156c-8.977,7.483-14.892,17.329-16.2,28.434
	c-1.25,1.334-2.156,3.019-2.525,4.947C215.42,146.809,217.075,150.621,220.092,152.832z M264.277,154.915
	c0.001-0.021,0.008-0.04,0.009-0.06c0.141,0.079,0.275,0.165,0.419,0.242c1.314,3.006,6.173,5.452,12.077,5.796
	c6.528,0.38,12.015-1.943,12.89-5.293c0.045,0.263,0.066,0.529,0.055,0.797c-0.158,3.766-5.983,6.488-13.011,6.08
	C269.688,162.066,264.119,158.682,264.277,154.915z"/>
<g>
	
		<ellipse transform="matrix(0.1878 -0.9822 0.9822 0.1878 72.9359 391.2922)" fill="#FFFFFF" cx="273.055" cy="151.547" rx="9.5" ry="9.5"/>
</g>
<g>
	
		<ellipse transform="matrix(0.9774 -0.2113 0.2113 0.9774 -25.9778 50.4369)" fill="#FFFFFF" cx="223.017" cy="146.774" rx="7.392" ry="8.828"/>
</g>
<path d="M211.789,206.837l-20.978,3.465l-4.074-14.225l63.045-2.841l3.64,14.132C247.001,206.259,211.789,206.837,211.789,206.837z"
	/>
<path d="M190.344,183.535c-7.482-5.774-15.163-5.093-17.155,1.52c-1.992,6.614,2.458,16.656,9.94,22.43s15.163,5.093,17.155-1.52
	C202.277,199.351,197.826,189.308,190.344,183.535z"/>
<g>
	<ellipse transform="matrix(0.8904 -0.4551 0.4551 0.8904 -56.6915 159.473)" cx="302.856" cy="197.476" rx="10.72" ry="13.941"/>
	<path d="M295.379,197.49l-24.767,12.659c0,0-2.828-20.812-6.729-22.077c-3.9-1.265,30.984-9.41,45.165-2.036
		S295.379,197.49,295.379,197.49z"/>
	<path d="M295.379,197.49l3.876-13.274c0,0-50.454,10-51.316,12.133c-0.048,0.12-0.167,0.287-0.342,0.492l5.623,10.388l0.206-0.144
		L295.379,197.49z"/>
</g>
<path d="M266.094,210.96l-20.416-4.337l-3.415,15.598l61.075,4.68l2.998-15.506C300.169,212.461,266.094,210.96,266.094,210.96z"/>
<path d="M245.572,234.37c-8.1,4.578-16.376,2.747-18.485-4.09c-2.109-6.837,2.748-16.091,10.848-20.669
	c8.1-4.578,16.376-2.747,18.485,4.09S253.672,229.792,245.572,234.37z"/>
<g>
	<path fill="#1E1E1E" d="M131.42,283.809c0,0-0.617,3.639-7.414,10.737c-6.797,7.098-12.719,17.273-18.013,18.255
		s-7.261,11.91-7.261,11.91s10.097,8.802,11.013,6.321s4.611-19.312,10.738-21.299c6.128-1.987,14.016-13.172,14.062-16.351
		c0.046-3.179,2.573-10.599,5.645-12.525c3.072-1.926-1.566-9.745-3.644-7.928S131.42,283.809,131.42,283.809z"/>
	<path fill="#1E1E1E" d="M136.282,284.837c0,0,0.366,3.674-4.114,12.167c-4.479,8.492-7.353,19.762-12.016,21.967
		c-4.662,2.205-3.669,13.268-3.669,13.268s11.645,6.145,11.855,3.522c0.21-2.623-0.701-19.819,4.476-23.196
		c5.177-3.377,9.616-16.092,8.838-19.185c-0.778-3.093-0.345-10.887,2.011-13.482c2.356-2.595-3.968-9.079-5.428-6.826
		C136.776,275.325,136.282,284.837,136.282,284.837z"/>
	<path fill="#1E1E1E" d="M134.821,286.503c0,0,1.92,2.734,1.973,11.856c0.053,9.122,2.651,19.611-0.216,23.821
		c-2.867,4.211,2.824,12.499,2.824,12.499s12.294-1.236,11.312-3.436s-9.308-15.416-6.533-20.831
		c2.774-5.415,0.828-17.879-1.175-19.933s-5.08-8.489-4.284-11.797c0.796-3.307-7.266-5.142-7.476-2.579
		S134.821,286.503,134.821,286.503z"/>
	<path fill="#1E1E1E" d="M131.97,291.942c0,0,3.002,2.147,6.41,11.364c3.409,9.217,9.966,18.995,8.533,24.185
		s7.532,11.74,7.532,11.74s12.333-5.227,10.502-7.137c-1.83-1.909-15.348-12.596-14.453-18.975
		c0.895-6.379-5.711-18.367-8.55-19.799c-2.838-1.432-8.404-6.951-8.792-10.557c-0.388-3.606-9.448-2.855-8.723-0.193
		S131.97,291.942,131.97,291.942z"/>
	<path fill="#1E1E1E" d="M125.954,289.792c0,0,3.587,0.867,10.2,8.137c6.612,7.27,16.355,13.881,16.969,19.23
		c0.614,5.349,11.381,8.065,11.381,8.065s9.478-9.465,7.066-10.55c-2.412-1.085-18.948-5.932-20.507-12.182
		s-12.174-14.892-15.342-15.156c-3.168-0.265-10.396-3.298-12.105-6.496c-1.71-3.198-9.829,0.89-8.161,3.088
		C117.121,286.123,125.954,289.792,125.954,289.792z"/>
	<path fill="#1E1E1E" d="M131.953,283.591c0,0-5.532,8.675-20.537,17.349S87.738,318.29,87.738,318.29s2.366,7.886,5.915,6.703
		s21.274-19.2,24.241-20.641c2.966-1.441,15.19-16.818,18.344-20.762s1.577-13.012,0-11.041
		C134.66,274.522,131.953,283.591,131.953,283.591z"/>
	<path fill="#1E1E1E" d="M131.805,286.608c0,0,9.684,3.475,21.465,16.187c11.781,12.712,22.16,19.252,22.16,19.252
		s7.167-4.053,5.228-7.252s-23.433-16.497-25.494-19.071c-2.061-2.574-19.763-11.091-24.307-13.294
		c-4.543-2.203-13.038,1.342-10.767,2.444C122.362,285.976,131.805,286.608,131.805,286.608z"/>
	<path fill="#303030" d="M104.903,327.845c0,0,6.051-5.166,7.665-3.429c1.614,1.737,6.736,1.833,6.736,1.833s2.185,5.66-2.793,8.67
		c-4.979,3.01-10.346,3.799-10.346,3.799S101.582,330.267,104.903,327.845z"/>
	<path fill="#303030" d="M166.572,313.857c0,0,6.09-6.231,8.075-4.436s7.658,1.479,7.658,1.479s3.072,6.1-2.082,9.849
		c-5.154,3.75-10.995,5.067-10.995,5.067S163.182,316.818,166.572,313.857z"/>
	<path fill="#303030" d="M138.209,329.15c0,0,7.954-0.214,8.117,2.152c0.163,2.366,4.087,5.66,4.087,5.66s-1.858,5.775-7.622,4.987
		c-5.764-0.789-10.434-3.549-10.434-3.549S134.103,328.946,138.209,329.15z"/>
	<path fill="#303030" d="M127.306,326.196c0,0,10.284-0.237,10.495,2.382s5.284,6.265,5.284,6.265s-2.403,6.393-9.855,5.52
		c-7.453-0.873-13.491-3.928-13.491-3.928S121.997,325.97,127.306,326.196z"/>
	<path fill="#303030" d="M112.973,314.955c0,0,7.954-0.214,8.117,2.151c0.163,2.366,4.087,5.66,4.087,5.66s-1.858,5.775-7.622,4.987
		s-10.434-3.549-10.434-3.549S108.867,314.751,112.973,314.955z"/>
	<path fill="#303030" d="M90.892,313.378c0,0,7.954-0.214,8.117,2.152c0.163,2.366,4.087,5.66,4.087,5.66s-1.858,5.775-7.622,4.987
		c-5.764-0.789-10.434-3.549-10.434-3.549S86.786,313.174,90.892,313.378z"/>
	<path fill="#303030" d="M128.745,314.955c0,0,7.954-0.214,8.117,2.151c0.163,2.366,4.087,5.66,4.087,5.66s-1.858,5.775-7.622,4.987
		s-10.434-3.549-10.434-3.549S124.64,314.751,128.745,314.955z"/>
	<path fill="#303030" d="M174.485,314.955c0,0,7.954-0.214,8.117,2.151c0.163,2.366,4.087,5.66,4.087,5.66s-1.858,5.775-7.622,4.987
		s-10.434-3.549-10.434-3.549S170.379,314.751,174.485,314.955z"/>
	<path fill="#303030" d="M161.867,322.841c0,0,7.954-0.214,8.117,2.152c0.163,2.366,4.087,5.66,4.087,5.66s-1.858,5.775-7.622,4.987
		c-5.764-0.789-10.434-3.549-10.434-3.549S157.761,322.638,161.867,322.841z"/>
	<path fill="#303030" d="M158.391,328.331c0,0,3.68,7.054,1.626,8.239c-2.055,1.184-3.294,6.155-3.294,6.155
		s-6.005,0.863-7.824-4.664s-1.386-10.934-1.386-10.934S156.774,324.552,158.391,328.331z"/>
	<path fill="#303030" d="M92.469,319.687c0,0,7.954-0.214,8.117,2.152c0.163,2.366,4.087,5.66,4.087,5.66s-1.858,5.775-7.622,4.987
		c-5.764-0.789-10.434-3.549-10.434-3.549S88.363,319.483,92.469,319.687z"/>
</g>
<path d="M311.324,312.102c0,0,47.883,6.771,49.121-12.071s5.084-22.618-5.295-42.928c-10.379-20.31-55.768,15.501-55.768,15.501
	L311.324,312.102z"/>
<path fill="#999999" d="M124.388,298.694c-1.381,0.798-18.357-4.461-19.715-13.262c-1.358-8.802,15.518-12.042,9.858-32.413
	c-5.66-20.37-15.845-33.162-22.79-36.257c-6.944-3.095-1.451-27.886,3.904-33.778s-9.898,25.299,7.451,33.778
	c17.349,8.479,27.826,16.039,28.143,20.129s4.484,17.979,4.021,20.757c-0.463,2.778,4.414-32.87-4.969-38.426
	c-9.383-5.556,12.256-0.463,17.177,10.648c4.922,11.111,15.57,16.819,15.107,7.021s12.529,12.299,0.015,24.167
	c-12.515,11.868,6.722,8.627,9.372,4.924s11.063-7.407,5.699-0.463c-5.364,6.944,3.969,20.751-10.211,29.014
	C153.27,302.795,124.388,298.694,124.388,298.694z"/>
</svg>
