<?xml version="1.0" encoding="utf-8"?>
<!-- Generator: Adobe Illustrator 20.0.0, SVG Export Plug-In . SVG Version: 6.00 Build 0)  -->
<svg version="1.1" id="Calque_1" xmlns="http://www.w3.org/2000/svg" xmlns:xlink="http://www.w3.org/1999/xlink" x="0px" y="0px"
	 viewBox="0 0 450.893 441.075" enable-background="new 0 0 450.893 441.075" xml:space="preserve">
<circle fill="#FFFFFF" stroke="#000000" stroke-width="5" stroke-miterlimit="10" cx="226.107" cy="222.43" r="203"/>
<polyline fill="none" stroke="#000000" stroke-miterlimit="10" points="626.597,168.248 626.597,510.907 -13.402,510.907 "/>
<g>
	<g>
		<path d="M235.661,150.614c0,0-10.376,6.432-6.087,9.401s11.028,2.969,11.028,2.969s4.902,12.37,4.902,15.338s-1.4,28.167,0,45.026
			c1.871,22.539-49.628,6.927-49.628,6.927s18.381-25.729,12.866-35.13c-5.514-9.401-15.93-31.667-12.866-36.614
			s17.155-13.359,17.155-13.359L235.661,150.614z"/>
		<ellipse cx="201.697" cy="174.542" rx="11.335" ry="9.45"/>
		<path d="M172.335,105.663c0,0-0.228,5.941-3.482,9.326s-2.759,6.11-2.759,6.11s0.776,5.17,0.602,8.409
			c-0.174,3.239,4.927,6.419,2.463,8.754c-2.464,2.335,3.964-0.381,3.964-0.381s-1.006,1.795-1.467,5.186s6.183-5.895,6.42-2.2
			c0.237,3.695,0.708,14.299,1.917,10.814s3.084-5.473,6.356,1.109c3.272,6.582,8.521,1.666,8.521,1.666
			s-22.963-38.261-14.781-46.316c8.182-8.055,10.06-17.48,17.879-22.151c7.819-4.671,17.112-7.813,19.429-8.26
			c2.317-0.448,18.736-3.736,16.472-8.208c-2.264-4.472-5.428-7.071-5.428-7.071s1.222,6.307-7.375,7.584
			c-8.597,1.276-17.307,2.339-19.194,6.306c-1.887,3.967-26.885,17.532-26.537,22.144
			C175.682,103.093,172.335,105.663,172.335,105.663z"/>
		<path d="M250.142,101.349c-0.131-0.171-0.242-0.355-0.335-0.547c2.107,1.829,6.648,1.019,10.593-2.008
			c0.279-0.214,0.545-0.435,0.803-0.66c-0.253-0.822-0.547-1.63-0.86-2.432c-0.511,0.578-1.096,1.13-1.754,1.635
			c-3.69,2.833-8.191,3.163-10.053,0.738c-1.862-2.425-0.379-6.688,3.311-9.521c1.06-0.814,2.186-1.413,3.298-1.808
			c-13.675-16.949-41.252-17.863-62.067-1.885c-21.078,16.179-27.231,43.541-13.742,61.113c13.488,17.572,41.51,18.702,62.588,2.522
			c5.038-3.867,9.212-8.376,12.48-13.234c-2.743,1.341-5.414,1.378-6.56-0.114c-1.462-1.905,0.117-5.572,3.527-8.19
			c3.077-2.362,6.587-3.056,8.319-1.772c3.324-8.557,4.046-17.548,1.885-25.707c-0.133,0.109-0.262,0.22-0.4,0.326
			C256.93,103.065,251.99,103.756,250.142,101.349z M233.213,116.088c1.848,2.407-0.097,7.001-4.343,10.26
			c-4.246,3.26-9.187,3.951-11.034,1.543c-0.131-0.171-0.241-0.355-0.335-0.547c2.107,1.829,6.648,1.019,10.593-2.008
			c3.944-3.028,5.9-7.205,4.678-9.714C232.933,115.763,233.082,115.916,233.213,116.088z M228.772,111.383
			c2.516,3.277,1.368,8.381-2.563,11.398s-9.158,2.807-11.673-0.47c-2.516-3.277-1.368-8.381,2.563-11.398
			C221.03,107.895,226.256,108.105,228.772,111.383z"/>
		<path d="M243.165,242.368c-7.291,10.199-22.008,14.36-32.872,9.295s-13.759-17.439-6.468-27.637s22.009-14.36,32.872-9.295
			S250.456,232.169,243.165,242.368z"/>
		<path d="M246.984,233.197c0,0,8.323,28.25,8.323,39.63c0,11.38-5.594-4.453-19.646,10.391
			c-14.052,14.844-5.781-41.02-8.973-45.521C223.495,233.197,246.984,233.197,246.984,233.197z"/>
		<path d="M199.826,236.717c0,0-7.528,42.047-9.109,46.5c-1.581,4.453,45.602,4.948,45.602,4.948s-3.941-49.479-9.632-50.468
			C220.996,236.707,199.826,236.717,199.826,236.717z"/>
		<path d="M243.717,158.522l13.314-20.588c0,0,10.202,13.897,13.57,13.034c3.368-0.864-29.767,32.447-32.49,22.178
			C234.684,160.218,243.717,158.522,243.717,158.522z"/>
		<path d="M289.037,114.415l7.212-11.152l-8.152-5.272l-16.819,35.092l8.196,5.007C280.29,134.225,289.037,114.415,289.037,114.415z
			"/>
		<path d="M243.717,158.522l2.321,11.466c0,0,33.281-30.415,33.084-32.367c-0.011-0.11,0.011-0.286,0.06-0.516l-8.196-5.007
			l-0.096,0.199L243.717,158.522z"/>
		<path d="M295.974,93.788c5.703-0.986,10.326,1.791,10.327,6.203c0.001,4.412-4.621,8.787-10.324,9.773
			c-5.703,0.986-10.326-1.791-10.327-6.203C285.649,99.15,290.271,94.774,295.974,93.788z"/>
		<path d="M188.679,179.952l-20.405,13.895c0,0,15.536,10.475,14.937,13.965c-0.598,3.489,20.368-19.949,20.315-33.745
			S188.679,179.952,188.679,179.952z"/>
		<path d="M150.432,196.164l-7.36-13.664l7.986-3.686l18.115,35.061l-8.363,6.134C159.886,216.037,150.432,196.164,150.432,196.164z
			"/>
		<path d="M185.003,185.484l11.822,3.993c0,0-33.365,30.325-35.388,29.851c-0.114-0.027-0.299-0.028-0.54-0.01l-3.206-8.495
			l-1.378-0.772L185.003,185.484z"/>
		<path d="M159.813,172.859c0.873-6.769-2.74-11.609-8.071-10.811c-5.33,0.798-10.359,6.932-11.232,13.7s2.74,11.609,8.071,10.811
			C153.911,185.762,158.94,179.628,159.813,172.859z"/>
		<path d="M214.53,302.499l-12.97-1.853c-3.106-0.444-5.197-2.859-4.648-5.367l4.462-20.366c0.55-2.508,3.54-4.197,6.646-3.753
			l12.97,1.853c3.106,0.444,5.197,2.859,4.648,5.367l-4.462,20.366C220.627,301.254,217.636,302.943,214.53,302.499z"/>
		<path d="M232.121,301.823h11.004c2.641,0,4.802-2.161,4.802-4.802v-20.082c0-2.641-2.161-4.802-4.802-4.802h-11.004
			c-2.641,0-4.802,2.161-4.802,4.802v20.082C227.318,299.662,229.479,301.823,232.121,301.823z"/>
		<path d="M196.913,295.279c0,0,1.839,10.192,0,13.137c-1.839,2.945-2.45,13.883,0,20.193c2.45,6.31-2.37,25.662-2.37,25.662h12.784
			c0,0,5.711-54.432,10.828-55.11C223.272,298.481,196.913,295.279,196.913,295.279z"/>
		<path d="M228.537,295.765c0,0,3.817,8.642,2.861,11.474c-0.956,2.832,0.895,12.472,4.397,17.637
			c3.502,5.166,3.53,22.749,3.53,22.749l11.106-1.806c0,0-6.891-48.349-2.594-49.665
			C252.134,294.839,228.537,295.765,228.537,295.765z"/>
		<path d="M196.825,345.759l-6.108,4.058c0,0,0.968,7.917-1.014,9.401c-1.981,1.484,0.659,5.443,0.659,5.443
			s15.959,12.865,26.572,13.359c10.613,0.495,19.034,0.504,18.727-2.474c-0.309-3.005-0.9-7.917-12.166-13.359
			c-11.266-5.443-15.01-9.331-12.219-14.561C214.067,342.396,196.825,345.759,196.825,345.759z"/>
		<path d="M243.033,344.076l-6.073,0.501c0,0,1.684,7.605,0.402,9.162c-1.282,1.558,1.153,5.229,1.153,5.229
			s13.362,11.482,21.261,11.314c7.899-0.167,13.108-1.111,13.529-3.535c0.421-2.429-1.634-7.609-10.621-12.192
			c-8.987-4.583-12.228-8.119-10.807-13.352C253.298,335.97,243.033,344.076,243.033,344.076z"/>
		<ellipse transform="matrix(0.5 -0.866 0.866 0.5 -26.6579 287.5085)" cx="235.661" cy="166.841" rx="6.011" ry="7.152"/>
		<g>
			<g>
				<rect x="277.389" y="50.698" width="35.754" height="46.779"/>
				<ellipse cx="295.266" cy="96.004" rx="17.877" ry="7.503"/>
			</g>
			<ellipse fill="#282828" cx="295.266" cy="50.864" rx="17.877" ry="7.503"/>
			<ellipse fill="#AFAFAF" cx="296.667" cy="80.002" rx="10.933" ry="9.981"/>
			<rect x="287.804" y="74.375" fill="none" width="20.754" height="14.771"/>
			<text transform="matrix(1.029 0 0 1 287.8042 84.4058)" font-family="'MyriadPro-Bold'" font-size="14.1287px">BG</text>
		</g>
		<ellipse transform="matrix(0.9458 -0.3247 0.3247 0.9458 -24.9965 76.8068)" cx="217.647" cy="113.303" rx="13.642" ry="13.642"/>
		<path fill="#FFFFFF" d="M261.705,120.83c0,0-14.477,8.113-22.193,7.946s8.311,11.864,19.766,6.798
			C270.733,130.508,261.705,120.83,261.705,120.83z"/>
		<path d="M199.719,174.278c4.904,0.782-8.694,18.873-15.722,24.868c-7.028,5.996-17.669,8.901-18.561,4.016
			c-0.436-2.388,2.601-7.737,6.89-17.696C175.964,177.019,194.846,173.501,199.719,174.278z"/>
		<path d="M270.439,138.336c5.048-0.881-0.104,12.285-7.661,18.731c-7.557,6.447-16.82,9.901-21.945,9.901
			c-9.137,0,1.602-18.561,9.901-24.019C257.279,138.645,258.193,140.472,270.439,138.336z"/>
		<ellipse transform="matrix(0.9671 -0.2543 0.2543 0.9671 -15.4261 67.5525)" cx="253.604" cy="93.45" rx="6.894" ry="7.275"/>
	</g>
	
		<ellipse transform="matrix(0.9458 -0.3247 0.3247 0.9458 -24.5693 77.1251)" fill="#FFFFFF" cx="218.815" cy="112.182" rx="13.642" ry="13.642"/>
	<circle fill="#FFFFFF" cx="253.604" cy="91.622" r="8.769"/>
</g>
<path d="M185.9,176.309c0,0,2.155,0.566,5.866-6.321c3.71-6.886,3.557,6.332,3.557,6.332l-6.644,3.632L185.9,176.309z"/>
</svg>
