<?xml version="1.0" encoding="utf-8"?>
<!-- Generator: Adobe Illustrator 20.0.0, SVG Export Plug-In . SVG Version: 6.00 Build 0)  -->
<svg version="1.1" id="Calque_1" xmlns="http://www.w3.org/2000/svg" xmlns:xlink="http://www.w3.org/1999/xlink" x="0px" y="0px"
	 viewBox="0 0 468.5 148.3" style="enable-background:new 0 0 468.5 148.3;" xml:space="preserve">
<style type="text/css">
	.st0{fill:#1D2326;}
	.st1{fill:#EDC48A;}
	.st2{fill:#EDC48A;stroke:#EDC48A;stroke-miterlimit:10;}
</style>
<path class="st0" d="M12.7,128.9c0,0,24.9-50.7,24.3-65c-0.8-16.4,29.2,27.3,36.9,24.3c14.9-5.8,31.2-40.3,36.1-31.4
	s4.6,43.3,8.4,45.6c3.8,2.3,8.1,4.6,8.9,8.4c0.8,3.9,11.8,7.6,11.8,7.6s8.5-32.1,13.4-35.4c4.9-3.3,10.6,0.5,12.7,0.7
	c2.2,0.3,5.7-7.7,5.7-7.7s5.7,3.9,5.7,9c0,5.1,12.7,23.6,12.7,23.6s10.3,5.3,15.4,3c5.1-2.3,6-13.4,9.7-14.2c3.8-0.8,18.3-7,18.3-7
	s13.4-50.5,17.2-49.4s9.2,12.6,9.2,12.6l1.6,28.6c0,0,4.9,23.8,8.9,26.4c4.1,2.6,1.6-32.5,4.3-35.3c2.7-2.8,4.1-7.7,6-8.7
	c1.9-1,13,7.9,14.1,10c1.1,2.1,31.1,18.8,45.8,13.3c6-2.2,15.4-16.6,24.8-32.8c2.8-4.8,2.4-21.2,5.1-26.1c1.5-2.8,6.1,5.9,7.6,3.3
	c8.5-15.7,11.3-26.7,13-26.8c4.2-0.1,34.3,90,35.8,90.9c20.3,11,27.9,35.7,27.9,35.7L12.7,128.9z"/>
<path class="st1" d="M454.2,136.1H8.1c-2.3,0-4.1-1.9-4.1-4.1l0,0c0-2.3,1.9-4.1,4.1-4.1h446.1c2.3,0,4.1,1.9,4.1,4.1l0,0
	C458.4,134.3,456.5,136.1,454.2,136.1z"/>
<g>
	<path class="st2" d="M428.8,74c0.2,0,0.3,0,0.3-0.1C429.1,74,428.9,74,428.8,74z"/>
	<path class="st2" d="M429.3,67c0.2-0.1,0.3-0.1,0.4-0.1C429.6,66.9,429.4,66.9,429.3,67z"/>
	<path class="st2" d="M428.3,74.1c0.2,0,0.3-0.1,0.4-0.1C428.6,74.1,428.4,74.1,428.3,74.1z"/>
	<path class="st2" d="M383,81c0-3.8,3.3-1.9,3.2,0c-0.1,1.9,3.6-2,4.9-4.8c0.3-0.6,0.7-1.4,1.3-2.3c0,0.4-0.1,0.8-0.1,1.1
		c-0.1,4-1.3,14.6-1.9,16.6c-0.6,2,9.2,0.7,9.2,0.7s-2.4-10.5-2.1-15.2c0-0.7,0.1-1.6,0.2-2.6l0.2,0c0.8,0.3,1.8,1,3.3,2.2
		c1.1,3.3,4.1,6.6,3.9,4c-0.1-1.8-0.5-3.3,0.3-3.2c0.1,0.1,0.2,0.1,0.3,0.1c0.4,0.2,0.9,0.5,1.7,1.1c3.3,2.6,8.7,5.2,7.5,3.6
		c-1.2-1.5,0.7-3.9,2.2-3.3c1.6,0.6,2.3,1.6,8.4-1.5c6.1-3.2,2.5-3.4,2.5-3.4s0,0,0,0c-1.2,0.2-3.7,0.7-8.8,1.6
		c-1.2,0.2-2.3,0.3-3.3,0.2c-0.2-1.3,1-2.8,2.3-2.5c1.7,0.4,2.6,1.2,8.4-2.7c5.8-3.9,2.1-3.6,2.1-3.6c-1.2,0.4-3.7,1.2-8.7,2.8
		c-4.3,1.4-8.3,0.7-11.8-0.9l-0.2-0.8c0.7,0.1,1.3-1,1.1-2.6c-0.3-2.7,6.3,0,7.5,1.2c1.2,1.2,7.8-1.4,5.7-1.9c-1.8-0.5-7,0-12.1-3.5
		c2.4-1.2,4.7-3.5,2.3-3c-1.7,0.4-4.3-1.2-6.5-2.9c0.4-0.3,0.8-0.8,1.2-1.4l0,0l0,0c0.7-1.1,1.5-2.6,2.2-4.1c1.5,0.3,5-1.9,3.8-2.4
		c-0.5-0.2-1.4-0.3-2.5-0.5c1.3-3.3,1.6-5.3-1-0.2c-1.8-0.5-3.9-1.7-6-5c-0.7-1.1-1.4-2.1-2-3.1c1.2,0.9,2.5,1.9,3.7,0.9
		c2.2-1.8,1.8,2.8,4.6,3c2.8,0.2,6.1-1.5,6.1-1.5s-5.3-1-6-1.7c-2.2-2.2-3.7-2.3-7.6-3.3c-2.3-0.6-2.8-3.6-0.3-4.6
		c0.6-0.2,0.4-0.8-0.3-1.4l1-0.1c0.3,0.9,0.5,1.7,0.7,2.5c1,3.9,2.2,2.7,2.1-0.1c-0.2-2.8,4.5,0.4,5.3,1.6c0.9,1.3,5.5-1,4-1.6
		c-1.5-0.7-6.2-0.3-10.3-6.4c-1.6-2.4-3-5.3-4.2-8l0.7-0.7c0.7,0.6,1.3,0.7,1.1-0.4c0.5,1.6,1.3,4.3,1.8,6.4c1,3.9,2.2,2.7,2.1-0.1
		s3.6,0.2,4.5,1.4c0.9,1.3,5.9-1.5,4.4-2.2c-1.5-0.7-5.7,0.5-9.8-5.6c-1.3-1.9-2.5-3.8-3.7-5.5l0,0l0,0c-1.4-2-2.6-3.8-3.5-5
		c-0.3-2.6-0.4-4.9-0.5-5.6c-0.1-1-0.8,3.1-1.4,6.7c-1.2,2-3.5,5.8-5.7,9.5c-0.5,0.9-1.1,1.7-1.6,2.3c-2.6,3.3-5,3.6-6,4.3
		c-1.1,0.9,2.6,1.6,3.2,0.4c0.4-0.6,1.4-1.8,2.2-2.5c0.1,0.2,0.1,0.3,0.1,0.3s0.4-0.1,1.1-0.3c0,0.1,0,0.1,0,0.2
		c-0.2,2.1,0.7,2.6,1.6-0.6c0,0,0,0,0,0c1-0.3,2-0.7,3-1.1c-1.1,1.9-2.6,4.5-4.2,7.2c-1.5,1.4-3.4,2.7-4.8,2.7
		c-2.9,0-2.7,1.7-2.7,1.7s2.5,0.2,4.9,0c-4.3,7.4-8.5,7.8-10,9c-1.5,1.2,3.4,2.2,4.3,0.6c0.9-1.6,4.8-5.9,4.5-3.1
		c-0.1,1,0,1.8,0.2,2.1c-3.9,4.3-8.2,7.2-10.4,2.3c-4.6-10.2,0,8.1,3,7.5c2.8-0.5,6.4-7.5,6.7-5.7c-5.2,5.7-11.2,11.5-13.9,11.4
		c-5.2-0.2,2.1,2.4,3,2.5c0.9,0.1,5.1-7.6,5.3-4.9c0.2,2.8,1.7-0.8,4.8-3.6c0.9-0.9,1.7-2.1,2.3-3.2l0.7,1c-0.5,1-1.1,1.9-1.7,2.9
		c-4.3,7.6-8.6,8-10.1,9.2c-1.5,1.2,3.4,2.2,4.3,0.6c0.9-1.6,4.8-5.9,4.5-3.1c0,0.2,0,0.3,0,0.5c-4,4.7-9.1,8.9-14.4,9
		c-4.3,0.1-6.5,0.1-7.5,0.1c0,0,0.1,0,0.1,0s-3.2,1,1.5,3c4.7,2,5.6,0.8,7.1-0.1c1.5-0.9,2.6,1.1,1.3,3s3.9-1.9,7.3-5.2
		c3.4-3.3,2.4-1.2,1.7,1.5c-0.7,2.7,2.6-1.2,4.2-4.9c0.7-1.4,1.9-3.5,3.1-5.3l0.1,5c-1.4,2.4-3.1,5-4.9,7.4l-7.7,7.2
		c-2.4,1.5-0.2,1.5,0.2,1.8c0.4,0.2,0.8,0.3,1.3,0.3L383,81z M404.9,48.3c-0.1-2.3,2.5-0.6,3.8,0.8c-1,1.3-2,1.8-3.1,1.8l-0.7-1.3
		C404.9,49.2,404.9,48.8,404.9,48.3z"/>
	<path class="st2" d="M362.6,67.4c0,0,0.1,0,0.3,0C362.8,67.4,362.7,67.4,362.6,67.4z"/>
	<ellipse transform="matrix(0.9677 -0.252 0.252 0.9677 -14.9999 103.4651)" class="st2" cx="396.5" cy="110.3" rx="7.3" ry="6.7"/>
</g>
</svg>
