<?xml version="1.0" encoding="utf-8"?>
<!-- Generator: Adobe Illustrator 19.0.0, SVG Export Plug-In . SVG Version: 6.00 Build 0)  -->
<svg version="1.1" id="Calque_1" xmlns="http://www.w3.org/2000/svg" xmlns:xlink="http://www.w3.org/1999/xlink" x="0px" y="0px"
	 viewBox="0 0 450.893 441.075" enable-background="new 0 0 450.893 441.075" xml:space="preserve">
<circle fill="#FFFFFF" stroke="#000000" stroke-width="5" stroke-miterlimit="10" cx="226.107" cy="222.43" r="203"/>
<path id="XMLID_3_" fill="#727272" d="M120.523,279.095c0,0,34.625,20.87,55.021,13.281c20.396-7.589,12.684-71.94,12.684-71.94
	l-27.627-52.196C160.602,168.24,137.124,254.43,120.523,279.095z"/>
<path id="XMLID_4_" fill="#727272" stroke="#FFFFFF" stroke-miterlimit="10" d="M262.857,317.426c0,0-74.928-0.972-76.851-39.099
	c-1.924-38.127,0-71.804,0-71.804l89.62,100.082L262.857,317.426z"/>
<path id="XMLID_1_" d="M308.828,129.684c0,0-95.47,26.81-158.963,15.065c76.906,175.612,125.761,194.585,125.761,194.585
	s43.989-36.072,57.393-24.665c22.293,18.973,9.961-38.42,35.574-32.728c25.613,5.692-5.692-29.882,17.076-34.151
	C408.435,243.521,371.438,250.635,308.828,129.684z"/>
<path id="XMLID_2_" fill="#494949" d="M149.865,144.749c0,0-19.856,128.18-65.865,139.089l36.523-4.743
	c0,0,37.469-59.492,40.079-110.855L149.865,144.749z"/>
<path id="XMLID_5_" d="M176.643,47.281l-2.115,6.793c0,0,15.31,2.284,20.492,6.382s-20.251,2.636-20.193,7.622
	c0.059,4.986,0.144,5.013,0.144,5.013s22.879,1.66,24.95,7.77s2.983-9.504,2.983-9.504l-15.229-1.265c0,0,17.19-6.57,17.613-7.928
	c0.423-1.359-3.626-7.091-3.626-7.091S197.356,47.77,176.643,47.281z"/>
<path id="XMLID_7_" d="M195.716,91.203l-2.005,3.906c0,0,9.082,3.015,11.806,6.058c2.724,3.043-12.61-0.548-13.1,2.49
	c-0.49,3.039-0.441,3.064-0.441,3.064s13.757,3.44,14.374,7.376c0.617,3.936,2.819-5.463,2.819-5.463l-9.14-2.387
	c0,0,11.16-2.169,11.561-2.951s-1.46-4.697-1.46-4.697S208.277,93.701,195.716,91.203z"/>
<path id="XMLID_8_" d="M174.012,115.234l-2.203,3.534c0,0,7.272,2.897,9.173,5.717c1.901,2.821-10.572-0.701-11.383,2.064
	c-0.811,2.766-0.773,2.789-0.773,2.789s11.162,3.359,11.169,6.961c0.007,3.602,3.093-4.941,3.093-4.941l-7.403-2.325
	c0,0,9.704-1.802,10.144-2.509c0.441-0.707-0.619-4.311-0.619-4.311S184.288,117.713,174.012,115.234z"/>
</svg>
