<?xml version="1.0" encoding="UTF-8"?>
<svg width="1024px" height="754px" viewBox="0 0 1024 754" version="1.1" xmlns="http://www.w3.org/2000/svg" xmlns:xlink="http://www.w3.org/1999/xlink">
    <!-- Generator: Sketch 46.2 (44496) - http://www.bohemiancoding.com/sketch -->
    <title>Group 10</title>
    <desc>Created with Sketch.</desc>
    <defs>
        <rect id="path-1" x="0" y="0" width="1024" height="754"></rect>
        <linearGradient x1="-18.3067322%" y1="120.008935%" x2="102.725693%" y2="-1.24069283%" id="linearGradient-3">
            <stop stop-color="#FAD961" offset="0%"></stop>
            <stop stop-color="#F76B1C" offset="30.4587851%"></stop>
            <stop stop-color="#E94E95" offset="100%"></stop>
        </linearGradient>
        <circle id="path-4" cx="259" cy="259" r="259"></circle>
        <filter x="-4.2%" y="-4.2%" width="108.3%" height="108.3%" filterUnits="objectBoundingBox" id="filter-6">
            <feGaussianBlur stdDeviation="17.5" in="SourceAlpha" result="shadowBlurInner1"></feGaussianBlur>
            <feOffset dx="0" dy="8" in="shadowBlurInner1" result="shadowOffsetInner1"></feOffset>
            <feComposite in="shadowOffsetInner1" in2="SourceAlpha" operator="arithmetic" k2="-1" k3="1" result="shadowInnerInner1"></feComposite>
            <feColorMatrix values="0 0 0 0 0.518202594   0 0 0 0 0.518202594   0 0 0 0 0.518202594  0 0 0 0.320538949 0" type="matrix" in="shadowInnerInner1"></feColorMatrix>
        </filter>
    </defs>
    <g id="UI" stroke="none" stroke-width="1" fill="none" fill-rule="evenodd">
        <g id="21-copy-5" transform="translate(0.000000, -14.000000)">
            <g id="Group-10" transform="translate(0.000000, 14.000000)">
                <g id="Oval-6">
                    <mask id="mask-2" fill="white">
                        <use xlink:href="#path-1"></use>
                    </mask>
                    <use id="Mask" fill="#F2F2F2" xlink:href="#path-1"></use>
                </g>
                <circle id="Oval-6" fill="#E9E6E6" cx="512" cy="381" r="259"></circle>
                <path d="M560,480.307692 C560,479.025641 559.043825,478 557.848606,478 L552.151394,478 C550.956175,478 550,479.025641 550,480.307692 C550,481.547009 550.916335,482.57265 552.111554,482.615385 C552.151394,482.188034 552.310757,481.803419 552.589641,481.547009 C552.549801,481.675214 552.549801,481.760684 552.549801,481.888889 L552.549801,484.452991 C552.549801,486.418803 554.023904,488 555.856574,488 C557.689243,488 559.163347,486.418803 559.163347,484.452991 L559.163347,482.188034 C559.641434,481.717949 560,481.076923 560,480.307692 Z" id="Shape" fill="#2E2E2E" fill-rule="nonzero" transform="translate(555.000000, 483.000000) rotate(12.000000) translate(-555.000000, -483.000000) "></path>
                <path d="M219.526267,598.029992 C218.378239,600.206187 217.258027,602.329578 216.107738,604.509991 L221.9508,604.509991 L222,604.605296 C218.246633,607.736891 214.493266,610.868405 210.7399,614 C210.716603,613.985968 210.693394,613.971936 210.670098,613.957985 C211.784052,611.836377 212.897918,609.714851 214.0416,607.536467 L208,607.536467 C208.049026,607.390387 208.071105,607.292892 208.113264,607.20367 C209.500947,604.267227 210.89428,601.333136 212.273878,598.393448 C212.407831,598.10802 212.56647,597.99698 212.915129,598.000062 C214.957189,598.01815 216.999596,598.008579 219.04183,598.009714 C219.18065,598.009714 219.319558,598.020989 219.526267,598.029992" id="Fill-1" fill="#E1E0E0" transform="translate(215.000000, 606.000000) rotate(-25.000000) translate(-215.000000, -606.000000) "></path>
                <path d="M522.759315,416.054361 C520.791266,419.998713 518.870903,423.847361 516.89898,427.799358 L526.915657,427.799358 L527,427.972098 C520.565657,433.648115 514.131314,439.323984 507.696971,445 C507.657034,444.974567 507.617247,444.949134 507.577311,444.923847 C509.486946,441.078434 511.396431,437.233168 513.357029,433.284846 L503,433.284846 C503.084045,433.020076 503.121895,432.843367 503.194167,432.681653 C505.573052,427.359349 507.961622,422.041309 510.326648,416.713125 C510.556281,416.195787 510.828235,415.994526 511.425936,416.000113 C514.92661,416.032897 518.42788,416.015549 521.928851,416.017607 C522.166829,416.017607 522.404956,416.038042 522.759315,416.054361" id="Fill-1" fill="url(#linearGradient-3)" transform="translate(515.000000, 430.500000) rotate(-25.000000) translate(-515.000000, -430.500000) "></path>
                <circle id="Oval-6" fill="#E9E6E6" cx="512" cy="381" r="259"></circle>
                <g id="Group-11" transform="translate(253.000000, 122.000000)">
                    <mask id="mask-5" fill="white">
                        <use xlink:href="#path-4"></use>
                    </mask>
                    <g id="Mask" style="mix-blend-mode: darken;">
                        <use fill="#E3E3E3" fill-rule="evenodd" xlink:href="#path-4"></use>
                        <use fill="black" fill-opacity="1" filter="url(#filter-6)" xlink:href="#path-4"></use>
                    </g>
                    <g mask="url(#mask-5)">
                        <g transform="translate(-16.000000, 55.000000)">
                            <path d="M265.597519,398.33081 C265.929076,398.33081 266.261158,398.340904 266.592322,398.328581 C267.21848,398.305641 267.759849,398.515648 268.247881,398.893451 C268.679429,399.22747 269.12618,399.543136 269.543968,399.89341 C269.817077,400.122425 270.02702,400.089128 270.277719,399.867323 C270.686989,399.50512 271.116179,399.165595 271.535802,398.81519 C272.350411,398.135223 273.124656,398.121327 273.961675,398.781237 C274.403052,399.129152 274.844823,399.477328 275.269557,399.845038 C275.488542,400.034595 275.651044,400.027909 275.865836,399.838876 C276.201063,399.543791 276.55136,399.263257 276.913976,399.002649 C277.70421,398.434634 278.460239,398.655521 278.847886,399.53042 C279.055732,399.999331 278.930841,400.381854 278.575301,400.686246 C277.908386,401.257014 277.226531,401.811134 276.534979,402.351752 C276.016019,402.757609 275.252127,402.731522 274.688218,402.307706 C274.212505,401.950222 273.738496,401.588805 273.285848,401.203005 C272.992164,400.952753 272.751425,400.954195 272.454465,401.194878 C271.902481,401.642159 271.354559,402.102549 270.758674,402.485465 C270.127011,402.89119 269.467304,402.821974 268.860148,402.368401 C268.51601,402.11107 268.129149,401.892935 267.839004,401.584348 C267.129235,400.829266 266.273083,400.612311 265.280377,400.722427 C264.936763,400.760574 264.584107,400.736323 264.236692,400.719281 C263.576723,400.68677 263.122502,400.221792 263.10101,399.57604 C263.079387,398.928845 263.547892,398.383639 264.205109,398.340773 C264.667324,398.310753 265.133208,398.335005 265.597519,398.335005 L265.597519,398.33081 Z M276.839395,390.867077 C276.463956,390.513471 276.146338,390.243448 275.862779,389.941207 C275.331172,389.37462 275.36127,388.837346 275.92786,388.288189 C276.462636,387.769665 277.000052,387.759762 277.547237,388.294263 C277.843469,388.583696 278.097326,388.916571 278.438706,389.308203 C278.810449,388.895444 279.06985,388.564814 279.372551,388.280398 C279.933333,387.753556 280.459264,387.773098 280.99338,388.301921 C281.553105,388.856228 281.575283,389.379505 281.019254,389.958504 C280.73345,390.256256 280.393654,390.501984 279.994322,390.842781 C280.424809,391.229264 280.757608,391.485423 281.038659,391.789513 C281.577527,392.373133 281.541092,392.897467 280.965261,393.444908 C280.425733,393.958019 279.909307,393.958679 279.344168,393.42431 C279.053349,393.149533 278.788271,392.84782 278.442799,392.48616 C278.133233,392.817318 277.864855,393.129595 277.570075,393.414539 C276.983551,393.981258 276.47861,393.975844 275.918752,393.420217 C275.352821,392.858515 275.332756,392.34831 275.881129,391.767198 C276.155315,391.476577 276.463296,391.217909 276.839395,390.867077 Z M263.113142,392.446673 C262.752233,392.827091 262.467527,393.152919 262.155833,393.450195 C261.603356,393.977202 261.088584,393.95711 260.536107,393.412258 C260.013529,392.896883 259.996198,392.317135 260.508854,391.788806 C260.799116,391.48968 261.115837,391.216196 261.554538,390.805905 C261.171138,390.48563 260.817902,390.231841 260.514807,389.928221 C259.986408,389.398966 260.007576,388.838913 260.534255,388.307941 C261.060934,387.7771 261.614866,387.755026 262.15107,388.26247 C262.453901,388.54904 262.735034,388.858476 263.070542,389.20347 C263.388852,388.892711 263.680966,388.606406 263.974403,388.321555 C264.545799,387.766658 265.096688,387.753572 265.637655,388.280843 C266.211962,388.840764 266.2199,389.384955 265.641492,389.968932 C265.360491,390.252594 265.052501,390.509687 264.688549,390.840801 C265.05131,391.184869 265.357183,391.460864 265.646784,391.752853 C266.204421,392.315285 266.206537,392.854056 265.667158,393.41054 C265.123677,393.971254 264.577418,393.984472 264.013696,393.427724 C263.718406,393.136264 263.4509,392.816781 263.113142,392.446673 Z M286.836942,393.000357 C286.835768,384.139486 279.737451,377.017089 270.916515,377.025475 C262.231009,377.033729 255.130866,384.181284 255.118341,392.928816 C255.105685,401.691154 262.214048,408.868976 270.914036,408.879196 C279.693482,408.889416 286.838116,401.764398 286.836942,393.000357 M246.757318,392.932223 C246.789023,387.672514 248.289448,382.872056 251.402505,378.642224 C255.242811,373.424051 260.367612,370.192124 266.749638,369.059391 C272.614736,368.018377 278.150653,369.019428 283.275976,372.046558 C288.212897,374.962183 291.742028,379.144191 293.651613,384.573711 C296.5186,392.72533 295.433988,400.407608 290.418653,407.425707 C289.093451,409.28014 287.371224,410.858368 285.765769,412.498833 C282.883908,415.443547 279.952599,418.339518 277.041252,421.255013 C276.714029,421.582844 276.383935,421.907661 276.051754,422.230513 C275.599017,422.670635 275.221171,422.67771 274.770652,422.231299 C273.912539,421.381192 273.050381,420.534361 272.21497,419.66211 C270.75199,418.134853 268.959308,417.29287 266.895897,416.943157 C262.243013,416.154633 258.167857,414.164062 254.673171,410.97092 C251.085328,407.69261 248.717004,403.679891 247.497223,398.979931 C246.983817,397.001153 246.742836,394.980446 246.757318,392.932223" id="Fill-1" fill="url(#linearGradient-3)" fill-rule="evenodd" opacity="0.595108696" transform="translate(270.984684, 395.612234) rotate(20.000000) translate(-270.984684, -395.612234) "></path>
                            <path d="M71.2565681,230.526484 L71.2565681,230.526484 C71.1324946,229.651653 70.7602738,229.151749 70.0158323,229.151749 C69.7676852,229.151749 69.519538,229.151749 69.1473172,229.151749 C68.8991701,229.151749 68.6510229,229.151749 68.5269493,229.151749 C67.9065814,229.151749 67.9065814,229.026773 67.4102871,228.401893 C67.2862135,228.151941 67.1621399,228.026965 66.9139928,227.652038 C66.7899192,227.527062 66.6658456,227.402086 66.6658456,227.152134 C65.1769626,224.902567 62.1991967,220.653385 55.2510761,220.403433 C55.1270025,220.403433 54.8788553,220.403433 54.7547817,220.403433 C48.0548083,220.403433 43.9603801,225.277495 43.0918651,227.027158 C42.0992764,228.901797 41.6029821,229.276725 37.0122595,229.276725 C32.7937578,229.276725 32.0493163,229.151749 30.932654,227.027158 C29.9400654,225.402471 25.9697108,220.403433 19.1456638,220.403433 C19.0215902,220.403433 18.773443,220.403433 18.6493694,220.403433 C11.5771753,220.653385 8.72348288,224.902567 7.2345999,227.152134 C7.11052632,227.27711 6.98645274,227.402086 6.98645274,227.652038 C6.86237916,227.901989 6.61423199,228.151941 6.49015841,228.401893 C6.11793767,229.026773 6.11793767,229.151749 5.37349617,229.151749 C5.12534901,229.151749 4.87720185,229.151749 4.75312826,229.151749 C4.38090752,229.151749 4.13276036,229.151749 3.88461319,229.151749 C3.1401717,229.151749 2.76795096,229.651653 2.64387737,230.526484 L2.64387737,230.65146 C2.64387737,231.27634 2.64387737,233.525907 2.64387737,234.275762 C2.64387737,235.650497 4.13276036,235.650497 5.00127543,235.650497 C5.00127543,235.650497 5.49756976,235.650497 5.62164334,235.650497 C5.74571692,235.650497 5.74571692,236.150401 5.74571692,236.400353 L5.74571692,236.525329 C6.61423199,241.149439 10.7086602,247.898139 19.0215902,247.898139 C22.3715769,247.898139 25.4734164,246.898332 27.8308145,244.773741 C29.8159918,243.024078 31.3048748,240.649535 32.0493163,238.02504 C33.0419049,234.275762 35.2752294,233.900834 36.5159652,233.900834 C36.7641124,233.900834 37.3844803,233.900834 37.5085539,233.900834 C38.7492897,233.900834 40.8585406,234.275762 41.9752028,238.02504 C42.7196443,240.649535 44.2085273,242.899102 46.1937046,244.648765 C48.5511027,246.773356 51.6529422,247.773163 55.0029289,247.773163 C63.1917853,247.773163 67.4102871,241.024463 68.2788022,236.400353 L68.2788022,236.275377 C68.2788022,236.025425 68.4028758,235.650497 68.4028758,235.650497 C68.5269493,235.650497 68.5269493,235.650497 68.6510229,235.650497 L69.0232437,235.650497 C69.8917587,235.650497 71.3806417,235.650497 71.3806417,234.275762 C71.2565681,233.400931 71.2565681,231.151364 71.2565681,230.526484 Z M19.1456638,243.648957 C13.9345733,243.648957 9.71607154,239.399775 9.71607154,234.150786 C9.71607154,228.901797 13.9345733,224.652615 19.1456638,224.652615 C24.3567542,224.652615 28.575256,228.901797 28.575256,234.150786 C28.575256,239.399775 24.3567542,243.648957 19.1456638,243.648957 Z M54.7547817,243.648957 C49.5436913,243.648957 45.3251895,239.399775 45.3251895,234.150786 C45.3251895,228.901797 49.5436913,224.652615 54.7547817,224.652615 C59.9658722,224.652615 64.184374,228.901797 64.184374,234.150786 C64.184374,239.399775 59.9658722,243.648957 54.7547817,243.648957 Z M54.7547817,226.02735 C50.2881328,226.02735 46.6899989,229.651653 46.6899989,234.150786 C46.6899989,238.64992 50.2881328,242.274222 54.7547817,242.274222 C59.2214307,242.274222 62.8195646,238.64992 62.8195646,234.150786 C62.8195646,229.651653 59.2214307,226.02735 54.7547817,226.02735 Z M54.7547817,239.524751 C51.7770158,239.524751 49.4196177,237.150209 49.4196177,234.150786 C49.4196177,231.151364 51.7770158,228.776821 54.7547817,228.776821 C57.7325477,228.776821 60.0899458,231.151364 60.0899458,234.150786 C60.0899458,237.150209 57.7325477,239.524751 54.7547817,239.524751 Z M19.1456638,226.02735 C14.6790148,226.02735 11.0808809,229.651653 11.0808809,234.150786 C11.0808809,238.64992 14.6790148,242.274222 19.1456638,242.274222 C23.6123127,242.274222 27.2104466,238.64992 27.2104466,234.150786 C27.086373,229.651653 23.4882391,226.02735 19.1456638,226.02735 Z M19.1456638,239.524751 C16.1678978,239.524751 13.8104997,237.150209 13.8104997,234.150786 C13.8104997,231.151364 16.1678978,228.776821 19.1456638,228.776821 C22.1234297,228.776821 24.4808278,231.151364 24.4808278,234.150786 C24.4808278,237.150209 21.9993561,239.524751 19.1456638,239.524751 Z" id="Shape" fill="url(#linearGradient-3)" fill-rule="nonzero" opacity="0.603091033" transform="translate(37.012260, 234.150786) rotate(-21.000000) translate(-37.012260, -234.150786) "></path>
                            <path d="M192.681191,304.391976 C188.171079,313.504791 183.770246,322.396494 179.251256,331.526971 L202.206142,331.526971 L202.399427,331.92606 C187.654058,345.039615 172.908688,358.15283 158.163318,371.266385 C158.071798,371.207625 157.980619,371.148866 157.889099,371.090446 C162.265344,362.206215 166.641248,353.322325 171.134285,344.200339 L147.399427,344.200339 C147.59203,343.588629 147.678769,343.180369 147.844394,342.806754 C153.296004,330.510398 158.769812,318.223891 164.189663,305.913949 C164.715905,304.71872 165.339132,304.253739 166.708864,304.266645 C174.731241,304.342387 182.754985,304.302309 190.778045,304.307064 C191.323411,304.307064 191.869118,304.354275 192.681191,304.391976" id="Fill-1" fill="url(#linearGradient-3)" fill-rule="evenodd" transform="translate(174.899427, 337.766385) rotate(10.000000) translate(-174.899427, -337.766385) "></path>
                            <path d="M329.234676,5.89375783 C328.934676,5.19375783 328.534676,4.79375783 328.234676,4.49375783 C316.334676,4.89375783 307.634676,5.29375783 306.634676,5.29375783 C306.434676,5.29375783 305.934676,5.39375783 305.434676,5.59375783 C304.934676,5.79375783 304.734676,5.99375783 304.434676,6.29375783 C304.134676,6.49375783 303.534676,6.79375783 302.834676,6.89375783 C302.034676,6.79375783 301.534676,6.59375783 301.234676,6.29375783 C300.834676,6.09375783 300.634676,5.79375783 300.234676,5.59375783 C299.734676,5.39375783 299.334676,5.29375783 299.034676,5.29375783 C298.134676,5.19375783 289.334676,4.89375783 277.434676,4.49375783 C277.134676,4.79375783 276.734676,5.19375783 276.434676,5.89375783 C276.134676,6.79375783 276.134676,7.59375783 276.234676,7.89375783 C276.634676,11.6937578 276.834676,13.5937578 276.934676,13.8937578 C277.134676,15.5937578 277.434676,17.2937578 278.134676,19.4937578 C278.334676,20.0937578 278.534676,20.7937578 279.234676,21.3937578 C280.134676,22.1937578 281.334676,22.2937578 281.834676,22.2937578 C289.534676,22.7937578 292.734676,23.0937578 294.834676,21.4937578 C295.634676,20.8937578 296.334676,20.1937578 296.334676,20.1937578 C296.934676,19.4937578 297.434676,18.7937578 298.034676,17.6937578 C299.034676,15.5937578 300.234676,12.1937578 300.734676,10.7937578 C300.834676,10.5937578 300.934676,10.1937578 301.334676,9.89375783 C301.634676,9.69375783 302.034676,9.59375783 302.134676,9.59375783 C302.434676,9.49375783 302.634676,9.59375783 302.834676,9.59375783 C303.034676,9.59375783 303.234676,9.59375783 303.534676,9.59375783 C303.634676,9.59375783 304.034676,9.69375783 304.334676,9.89375783 C304.734676,10.1937578 304.934676,10.5937578 304.934676,10.7937578 C305.534676,12.1937578 306.634676,15.5937578 307.634676,17.6937578 C308.134676,18.7937578 308.734676,19.5937578 309.334676,20.1937578 C309.334676,20.1937578 310.034676,20.8937578 310.834676,21.4937578 C313.034676,23.0937578 316.234676,22.7937578 323.834676,22.2937578 C324.334676,22.2937578 325.534676,22.1937578 326.434676,21.3937578 C327.134676,20.7937578 327.434676,19.9937578 327.534676,19.4937578 C328.234676,17.2937578 328.434676,15.4937578 328.734676,13.8937578 C328.734676,13.6937578 328.934676,11.7937578 329.434676,7.89375783 C329.534676,7.59375783 329.634676,6.79375783 329.234676,5.89375783 Z M297.534676,9.49375783 C296.634676,17.1937578 293.734676,19.2937578 293.734676,19.2937578 C291.834676,20.6937578 289.134676,20.5937578 283.734676,20.2937578 C282.934676,20.2937578 281.834676,20.1937578 281.034676,19.2937578 C280.534676,18.6937578 280.334676,18.0937578 280.234676,17.6937578 C279.634676,14.8937578 279.234676,10.3937578 279.234676,9.49375783 C279.234676,9.19375783 279.134676,8.69375783 279.434676,8.09375783 C279.634676,7.69375783 279.834676,7.39375783 280.034676,7.19375783 C288.634676,7.49375783 294.834676,7.79375783 296.134676,7.79375783 C296.434676,7.79375783 297.034676,7.89375783 297.434676,8.29375783 C297.534676,8.69375783 297.534676,9.09375783 297.534676,9.49375783 Z M326.534676,9.49375783 C326.434676,10.3937578 326.134676,14.8937578 325.534676,17.6937578 C325.434676,18.0937578 325.234676,18.7937578 324.734676,19.2937578 C323.934676,20.1937578 322.734676,20.2937578 322.034676,20.2937578 C316.634676,20.5937578 314.034676,20.6937578 312.034676,19.2937578 C312.034676,19.2937578 309.134676,17.1937578 308.234676,9.49375783 C308.234676,9.19375783 308.134676,8.69375783 308.434676,8.29375783 C308.834676,7.79375783 309.434676,7.79375783 309.734676,7.79375783 C310.934676,7.69375783 317.234676,7.49375783 325.834676,7.19375783 C326.034676,7.39375783 326.234676,7.69375783 326.434676,8.09375783 C326.634676,8.59375783 326.634676,9.19375783 326.534676,9.49375783 Z" id="Shape" fill="url(#linearGradient-3)" fill-rule="nonzero" opacity="0.577219203" transform="translate(302.849493, 13.593282) rotate(-10.000000) translate(-302.849493, -13.593282) "></path>
                            <path d="M470.601328,244.75361 C468.64374,248.657671 466.733583,252.467004 464.772141,256.378631 L474.735579,256.378631 L474.819473,256.549607 C468.41933,262.167642 462.019186,267.785532 455.619042,273.403568 C455.579318,273.378394 455.539743,273.353221 455.500019,273.328193 C457.399503,269.522061 459.298839,265.716074 461.249016,261.808084 L450.947037,261.808084 C451.030635,261.546019 451.068283,261.371115 451.140172,261.211053 C453.506412,255.943117 455.882287,250.679401 458.234743,245.405645 C458.463155,244.893591 458.733663,244.694387 459.328188,244.699916 C462.810255,244.732365 466.292915,244.715195 469.775278,244.717232 C470.011991,244.717232 470.248853,244.737458 470.601328,244.75361" id="Fill-1" fill="url(#linearGradient-3)" fill-rule="evenodd" opacity="0.464787138" transform="translate(462.883255, 259.051686) rotate(-25.000000) translate(-462.883255, -259.051686) "></path>
                            <path d="M403.608526,394.965027 C403.459289,394.936356 403.402069,394.925515 403.344695,394.914532 C402.136269,394.683025 402.136269,394.683025 401.445762,395.636153 C398.627596,399.525692 393.145295,401.016721 388.485881,399.140133 C388.263496,399.050555 388.033379,398.777397 388.000748,398.564434 C387.982035,398.442048 388.333707,398.171029 388.552689,398.132802 C393.343246,397.29778 397.518455,395.339317 401.134608,392.338718 C401.788927,391.795825 401.891769,391.81009 402.436442,392.424017 C402.919565,392.968764 403.416606,393.504809 403.863696,394.073947 C403.990508,394.235275 404.023448,394.50886 403.984786,394.712409 C403.962981,394.82695 403.707037,394.903691 403.608526,394.965027 Z M401.32611,387.912314 C400.372272,387.912314 399.418434,387.913197 398.464596,387.911579 C398.244859,387.911137 398.008898,387.951301 397.809005,387.884509 C397.515538,387.786232 397.063316,387.654707 397.014502,387.453299 C396.949174,387.182891 397.113434,386.70681 397.338097,386.540417 C397.979928,386.065365 398.65942,385.573247 399.401052,385.320053 C401.385209,384.642564 403.309108,384.881634 405.067299,386.083167 C405.376554,386.294579 405.649451,386.597205 405.860208,386.912043 C406.155702,387.353404 405.966528,387.762252 405.446371,387.863618 C405.124804,387.926438 404.79049,387.938649 404.461536,387.941591 C403.416442,387.950713 402.371204,387.944975 401.32611,387.944975 L401.32611,387.912314 Z M383.369099,387.89588 C382.252869,387.89588 381.135194,387.928578 380.021422,387.876438 C379.675609,387.860384 379.340205,387.614269 379.00003,387.47361 C379.158046,387.119534 379.237849,386.68828 379.488245,386.425669 C380.32343,385.548726 381.430985,385.171821 382.579743,385.014961 C384.227559,384.790055 385.791235,385.112612 387.165957,386.113127 C387.603572,386.43156 388.163928,386.81421 387.954879,387.44975 C387.755227,388.056569 387.09425,387.912376 386.607191,387.927989 C385.528839,387.962601 384.448608,387.93874 383.369099,387.93874 L383.369099,387.89588 Z M382.789521,372.486192 C376.287403,376.020975 371.825071,384.314085 374.010381,393.08289 C376.129599,401.586541 384.241897,407.587427 392.909467,407.028519 C401.899315,406.448922 409.149677,399.639794 410.198826,390.785647 C411.260861,381.823946 405.841242,374.364787 399.424924,371.702747 C398.490377,373.645843 397.207325,375.31481 395.459198,376.673289 C394.013037,374.760009 392.985262,372.697342 392.437721,370.280528 C390.190108,373.361217 387.668269,375.959973 384.602073,378.032528 C383.617804,376.285673 383.084362,374.451499 382.789521,372.486192 M403.884983,355.225906 C403.136435,356.626523 402.387888,358.027293 401.550357,359.594336 C406.083027,358.334434 410.493971,358.305682 414.936445,359.495758 C413.064621,361.151642 411.230846,362.77345 409.397071,364.395409 C409.415716,364.460823 409.43421,364.526237 409.452856,364.591651 C412.288939,364.402255 414.945844,365.097315 417.520738,366.157477 C420.10109,367.220072 422.500748,368.618103 424.896616,370.25345 C421.97443,371.674756 419.335716,373.584385 416.001511,373.926058 C416.496601,374.913503 416.974562,375.820779 417.411897,376.747221 C418.6522,379.374425 419.407267,382.141584 419.776083,385.023293 C420.398205,389.882783 419.781389,394.587714 417.990362,399.128957 C416.546474,402.789548 414.370108,405.979159 411.591325,408.756966 C407.019545,413.327114 402.450494,417.9 397.879775,422.471365 C397.25068,423.100555 396.848665,423.104206 396.224269,422.488403 C395.033232,421.314148 393.857658,420.123159 392.64843,418.967919 C391.106616,417.495043 389.197046,416.786747 387.142709,416.423928 C380.681824,415.282532 375.249775,412.289011 370.872636,407.373843 C367.472489,403.555955 365.286724,399.118461 364.273198,394.120689 C363.618484,390.891982 363.547995,387.62494 364.048694,384.353181 C364.473296,381.578264 365.263076,378.920331 366.472303,376.388206 C366.535971,376.25464 366.581599,376.112403 366.654665,375.925136 C365.425579,376.047749 364.247731,376.16519 363,376.289477 C363.982147,373.440626 365.869584,371.651025 368.865443,370.761244 C367.538582,369.841038 366.347545,369.01515 365.132406,368.172376 C366.891599,366.033342 369.253663,364.866541 372.150533,364.576895 C371.593746,362.082192 371.948313,359.755284 373.306553,357.592823 C375.754567,358.413539 378.192274,359.230756 380.721389,360.07855 C380.620885,358.579356 380.52887,357.20749 380.432005,355.761083 C381.944866,355.926595 383.332059,356.242255 384.671956,356.74655 C386.238176,357.336036 387.720112,358.096054 389.0638,359.105405 C389.32044,359.298148 389.489614,359.291454 389.75823,359.089736 C392.429384,357.08366 395.411144,355.762908 398.717154,355.310336 C400.397976,355.08017 402.112147,355.095535 403.811159,355 C403.835716,355.075302 403.860425,355.150604 403.884983,355.225906" id="Fill-1" fill="url(#linearGradient-3)" fill-rule="evenodd"></path>
                            <path d="M694.397464,41.0530113 C686.148171,45.5376212 680.486771,56.0591615 683.259294,67.1842211 C685.947963,77.9728771 696.240107,85.5862532 707.236728,84.8771614 C718.642227,84.1418213 727.840824,75.503022 729.171888,64.2696879 C730.519301,52.8999009 723.643383,43.4364012 715.502945,40.0590476 C714.317276,42.5242706 712.689458,44.6417029 710.471594,46.3652167 C708.636836,43.9378221 707.332889,41.320899 706.63822,38.2546657 C703.786653,42.1631626 700.587174,45.4602272 696.697065,48.0896955 C695.448315,45.8734459 694.771532,43.5464127 694.397464,41.0530113 M721.16146,19.1547359 C720.211771,20.9317115 719.262082,22.70888 718.1995,24.6970004 C723.950138,23.0985524 729.546341,23.0620749 735.182546,24.5719347 C732.807747,26.6727687 730.481221,28.7303701 728.154694,30.7881646 C728.17835,30.8711557 728.201813,30.9541468 728.225469,31.037138 C731.823632,30.7968497 735.19447,31.6786789 738.461262,33.0237144 C741.734977,34.371838 744.779444,36.1455325 747.819102,38.2203112 C744.1117,40.0235351 740.76394,42.4462975 736.533805,42.8797815 C737.16193,44.1325618 737.768324,45.2836297 738.323174,46.4590159 C739.896758,49.792172 740.854716,53.3028904 741.322637,56.9589399 C742.111929,63.1242171 741.329369,69.0934035 739.057077,74.854919 C737.225205,79.4991422 734.464029,83.5458291 730.938564,87.0700577 C725.138307,92.8682438 719.341512,98.6699039 713.542601,104.469634 C712.744462,105.267893 712.234423,105.272525 711.442246,104.49125 C709.931167,103.001463 708.439706,101.490445 706.905548,100.024783 C704.949435,98.1561308 702.526748,97.2575104 699.920392,96.797199 C691.723411,95.3491 684.831723,91.5511936 679.278408,85.3152775 C674.964613,80.4714896 672.191513,74.8416019 670.905644,68.5008853 C670.075003,64.4045967 669.985573,60.2596715 670.620815,56.1087632 C671.15951,52.5882016 672.161511,49.216059 673.695668,46.0035297 C673.776444,45.8340733 673.834333,45.6536158 673.927032,45.4160295 C672.367681,45.5715897 670.873334,45.7205878 669.290327,45.8782709 C670.536385,42.26391 672.930994,39.9934267 676.731865,38.8645541 C675.048465,37.697081 673.537387,36.6492695 671.995729,35.5800347 C674.227633,32.8662243 677.224403,31.3858938 680.899688,31.0184167 C680.193287,27.853366 680.643129,24.9011973 682.36634,22.1576644 C685.472157,23.1989138 688.564897,24.2357241 691.773607,25.3113279 C691.646097,23.4092867 691.529357,21.6687886 691.406463,19.8337193 C693.325843,20.0437062 695.085787,20.4441867 696.785726,21.0839906 C698.772803,21.8318759 700.652949,22.7961172 702.357696,24.0766899 C702.683298,24.3212243 702.89793,24.3127321 703.238726,24.0568106 C706.627642,21.5116845 710.410628,19.8360353 714.604991,19.2618524 C716.737464,18.9698394 718.912248,18.9893326 721.067799,18.868127 C721.098955,18.9636633 721.130304,19.0591996 721.16146,19.1547359" id="Fill-1" fill="url(#linearGradient-3)" fill-rule="evenodd" opacity="0.701992754" transform="translate(708.554715, 61.970468) rotate(-6.000000) translate(-708.554715, -61.970468) "></path>
                            <path d="M524.230967,240.505116 C521.634962,240.392549 519.679794,239.18839 518.44259,236.810063 C517.865783,235.701102 518.649529,234.431452 519.875753,234.492007 C521.224498,234.55873 522.57066,234.746088 523.918298,234.750454 C525.327474,234.75501 526.739509,234.633996 528.145732,234.511749 C529.203398,234.419968 529.776146,234.645671 530.128025,235.394058 C530.374266,235.917693 530.301842,236.415511 530.046559,236.8896 C528.785646,239.230816 526.836474,240.411152 524.230967,240.505116 Z M517.472864,230.972375 C516.50185,231.02829 515.530926,231.08945 514.559552,231.137547 C514.170462,231.156846 513.671438,231.200984 513.57376,230.721004 C513.53186,230.514959 513.952939,230.089014 514.240296,229.925623 C515.977146,228.938547 517.758059,228.885205 519.548974,229.765992 C519.722794,229.851498 519.882647,229.986684 520.026911,230.126324 C520.371218,230.459143 520.324902,230.732781 519.886612,230.907256 C519.708466,230.978214 519.507433,231.003054 519.316132,231.006815 C518.70249,231.018888 518.088578,231.011268 517.474756,231.011268 C517.474125,230.998304 517.473495,230.985339 517.472864,230.972375 Z M530.836274,217.544122 C530.77735,217.534563 530.718425,217.525004 530.6595,217.515445 C530.631339,217.627906 530.602249,217.740086 530.575203,217.852828 C530.329188,218.880443 530.135592,219.924457 529.825169,220.931922 C529.402474,222.303574 528.700769,223.538492 527.647655,224.524964 C526.441467,225.655011 524.963985,226.069712 523.344581,226.068119 C518.900051,226.063714 514.455614,226.073367 510.011177,226.055842 C509.582719,226.054155 509.397488,226.161274 509.281405,226.594625 C508.617992,229.070364 508.545777,231.554538 509.115691,234.051364 C511.351386,243.844204 522.409781,248.681722 531.049852,243.651239 C536.396746,240.538126 539.301709,234.340577 538.279545,228.218096 C538.003324,226.56351 537.481739,224.993458 536.625567,223.437089 C536.142553,225.725487 534.701038,227.187295 532.895195,228.354361 C533.642162,229.297723 533.786313,230.264046 533.184521,231.29241 C532.725857,232.076171 531.759364,232.564346 530.898637,232.414117 C529.508426,232.171388 528.849289,231.264857 528.764155,229.959932 L524.813792,229.959932 C526.925597,228.567756 528.666567,226.873435 529.797287,224.615308 C530.922152,222.368801 531.25107,220.000275 530.836274,217.544122 M546.299514,230.717171 C546.193189,236.981353 544.05787,242.408637 539.660276,246.875221 C535.928975,250.664975 532.162728,254.419774 528.411072,258.189192 C527.930754,258.671838 527.595515,258.671744 527.110085,258.185724 C526.329845,257.404494 525.540684,256.631604 524.779776,255.83163 C523.410198,254.391658 521.732241,253.589904 519.79656,253.261142 C515.201651,252.480755 511.212625,250.471636 507.853459,247.20745 C504.737521,244.179526 502.60341,240.55284 501.590446,236.318207 C500.003479,229.684402 501.028525,223.454895 504.840871,217.788163 C508.129494,212.899944 512.687784,209.749999 518.391757,208.41949 C524.431898,207.010632 530.174163,207.912665 535.471891,211.194376 C540.782538,214.484147 544.144584,219.250815 545.66008,225.340495 C546.098297,227.10145 546.302395,228.895487 546.299514,230.717171" id="Fill-1" fill="url(#linearGradient-3)" fill-rule="evenodd" transform="translate(523.585846, 233.163970) rotate(-2.000000) translate(-523.585846, -233.163970) "></path>
                            <g id="Group" opacity="0.537930254" stroke-width="1" fill="none" fill-rule="evenodd" transform="translate(425.000000, 94.000000)">
                                <path d="M18.2116111,3.00028407 C24.9358918,2.98454195 30.1538911,6.88814563 32.1212999,12.6273698 C34.1514875,18.5492914 32.6034899,25.1148663 28.100596,29.1765564 C26.6712032,30.465637 25.0369104,31.4868796 23.5038407,32.6424847 C22.6061248,33.3191744 21.8953137,33.9940903 21.8292631,35.4226327 C21.7321298,37.5267563 19.673109,39.3832185 17.3155312,39.8692289 C15.0008964,40.3463705 13.0490289,39.4982912 11.5593113,37.6442679 C10.9846913,36.9294424 10.6311262,35.8206203 10.5528062,34.8554728 C10.2693815,31.3664856 11.9065372,28.740433 14.2563444,26.6651331 C16.066704,25.0660879 18.0026212,23.574577 20.0548939,22.3841619 C20.9522008,21.8637848 21.8102454,21.4278832 22.5108319,20.6128402 C25.2009123,17.4823744 22.6545891,13.3903086 19.9794366,12.759515 C17.2815856,12.1234001 14.001344,14.4685334 13.8839661,17.4278312 C13.7960349,19.6483578 12.9985196,21.4462859 10.9302967,22.2670937 C8.10688817,23.3876669 5.02868371,21.1813304 5.00066843,17.9109593 C4.9532265,12.3176269 7.43349899,8.21092762 11.6975473,5.29907784 C13.9870296,3.73550785 16.5296719,2.98321163 18.2116111,3.00028407" id="Fill-1" fill="url(#linearGradient-3)" transform="translate(19.000000, 21.500000) rotate(-345.000000) translate(-19.000000, -21.500000) "></path>
                                <path d="M2,47.9673054 C2,45.1629167 4.20318728,42.9817719 7.01753837,43.0001148 C9.74529405,43.0178325 12.0175911,45.2702647 11.9998974,47.9389572 C11.9813709,50.724586 9.77152247,52.9607597 6.99901195,52.99953 C4.27396238,53.0376751 2.00020816,50.7487653 2,47.9673054" id="Fill-4" fill="url(#linearGradient-3)" transform="translate(7.000000, 48.000000) rotate(-345.000000) translate(-7.000000, -48.000000) "></path>
                            </g>
                            <g id="Group-Copy" opacity="0.537930254" stroke-width="1" fill="none" fill-rule="evenodd" transform="translate(189.000000, 422.500000) rotate(-26.000000) translate(-189.000000, -422.500000) translate(170.000000, 395.000000)">
                                <path d="M18.2116111,3.00028407 C24.9358918,2.98454195 30.1538911,6.88814563 32.1212999,12.6273698 C34.1514875,18.5492914 32.6034899,25.1148663 28.100596,29.1765564 C26.6712032,30.465637 25.0369104,31.4868796 23.5038407,32.6424847 C22.6061248,33.3191744 21.8953137,33.9940903 21.8292631,35.4226327 C21.7321298,37.5267563 19.673109,39.3832185 17.3155312,39.8692289 C15.0008964,40.3463705 13.0490289,39.4982912 11.5593113,37.6442679 C10.9846913,36.9294424 10.6311262,35.8206203 10.5528062,34.8554728 C10.2693815,31.3664856 11.9065372,28.740433 14.2563444,26.6651331 C16.066704,25.0660879 18.0026212,23.574577 20.0548939,22.3841619 C20.9522008,21.8637848 21.8102454,21.4278832 22.5108319,20.6128402 C25.2009123,17.4823744 22.6545891,13.3903086 19.9794366,12.759515 C17.2815856,12.1234001 14.001344,14.4685334 13.8839661,17.4278312 C13.7960349,19.6483578 12.9985196,21.4462859 10.9302967,22.2670937 C8.10688817,23.3876669 5.02868371,21.1813304 5.00066843,17.9109593 C4.9532265,12.3176269 7.43349899,8.21092762 11.6975473,5.29907784 C13.9870296,3.73550785 16.5296719,2.98321163 18.2116111,3.00028407" id="Fill-1" fill="url(#linearGradient-3)" transform="translate(19.000000, 21.500000) rotate(-345.000000) translate(-19.000000, -21.500000) "></path>
                                <path d="M2,47.9673054 C2,45.1629167 4.20318728,42.9817719 7.01753837,43.0001148 C9.74529405,43.0178325 12.0175911,45.2702647 11.9998974,47.9389572 C11.9813709,50.724586 9.77152247,52.9607597 6.99901195,52.99953 C4.27396238,53.0376751 2.00020816,50.7487653 2,47.9673054" id="Fill-4" fill="url(#linearGradient-3)" transform="translate(7.000000, 48.000000) rotate(-345.000000) translate(-7.000000, -48.000000) "></path>
                            </g>
                        </g>
                    </g>
                </g>
                <g id="Page-1" transform="translate(386.500000, 251.000000) rotate(-30.000000) translate(-386.500000, -251.000000) translate(270.000000, 200.000000)" fill="#DE5B43">
                    <path d="M20.6861312,78.5754603 L26.7635689,73.3594478 C27.6400338,72.6070062 28.0699308,71.582967 28.0514863,70.286978 C28.0333966,68.9916935 27.3967093,67.6227852 26.1424884,66.18131 C25.4898396,65.4313343 24.8290326,64.869469 24.1625504,64.4974754 C23.4950041,64.125834 22.8388083,63.902497 22.1928987,63.8274642 C21.5462798,63.7527836 20.9400967,63.8147826 20.3732853,64.0124042 C19.8061193,64.2114348 19.3106028,64.4914868 18.8877998,64.8543215 L13.0824173,69.8371334 L20.6861312,78.5754603 Z M27.8283797,101.715505 L0,69.7346238 L13.7425148,57.9400314 C15.2843978,56.6165656 16.9717079,55.7189901 18.8062187,55.2462483 C20.6396654,54.7742109 22.4621164,54.6533835 24.2728623,54.8820045 C26.0832534,55.1120347 27.8152558,55.6457187 29.4678053,56.4819997 C31.1203548,57.3196898 32.522131,58.3986826 33.6713605,59.7196826 C34.9000429,61.1312151 35.8265205,62.6966882 36.4507934,64.4157495 C37.0757756,66.1355153 37.3861385,67.8890988 37.3825915,69.6747385 C37.3790445,71.4617873 37.0037714,73.2002233 36.2560628,74.8903987 C35.5094183,76.5812787 34.3640905,78.0879232 32.8222076,79.4113891 L26.2911079,85.0166562 L35.2668032,95.3317287 L27.8283797,101.715505 Z" id="Fill-1"></path>
                    <path d="M60.3385646,68.2825983 C61.215413,67.7512361 61.9756276,67.0816563 62.6202561,66.2738588 C63.2641862,65.466414 63.7041818,64.6438075 63.9402429,63.8053341 C64.3512547,62.7221592 64.3550959,61.8403166 63.9496714,61.1583959 L62.4309882,58.6041904 C61.5607746,58.7614482 60.6661169,59.0135543 59.7491102,59.361214 C58.8310559,59.7092263 58.0184608,60.0977871 57.3102774,60.5268964 C55.8254669,61.427074 54.8057945,62.5088386 54.2495144,63.7725427 C53.6935834,65.036952 53.739329,66.2135649 54.3871003,67.3034392 C54.9748087,68.2914132 55.8265145,68.8753122 56.9432652,69.0551362 C58.0596668,69.2363705 59.1914332,68.9779176 60.3385646,68.2825983 M61.4542678,75.5993182 C60.1384714,76.3968903 58.7891515,76.9250792 57.4063082,77.1845898 C56.0227665,77.4444531 54.6989385,77.4356382 53.4337765,77.1602607 C52.1686145,76.8845306 50.9907533,76.3711508 49.9008912,75.6183583 C48.8106799,74.8662711 47.9017048,73.876534 47.1725692,72.6502051 C46.3826724,71.3219759 45.9423276,69.9447359 45.8504872,68.5170747 C45.7589961,67.0901186 45.9863271,65.6779716 46.5321312,64.2806336 C47.0786337,62.8843534 47.9111333,61.5455463 49.0310269,60.2638598 C50.1509204,58.9832311 51.5533191,57.8309473 53.2403181,56.8084189 C54.3535768,56.1335501 55.4884861,55.5736276 56.6457444,55.1261833 C57.8023043,54.6801494 58.8799443,54.409003 59.8790137,54.3127443 L59.1498781,53.086768 C57.3071346,49.9878016 54.6144314,49.5114444 51.072816,51.6584015 C49.6222273,52.5381286 48.3867476,53.6237717 47.3646308,54.9142731 C46.3428632,56.2061849 45.4000155,57.7854624 44.5371353,59.6521057 L39.1213481,55.9851072 C40.1864168,53.7644575 41.4913879,51.7916828 43.0362614,50.0667831 C44.5807856,48.3429412 46.4158466,46.8362985 48.540746,45.5479126 C52.5544837,43.1150001 56.2246058,42.1876726 59.5518106,42.7648723 C62.878317,43.343835 65.6352736,45.4713993 67.8226803,49.1496809 L71.9237187,56.0464589 C72.4094599,56.8637765 72.8752965,57.3581161 73.3208793,57.5280673 C73.7664622,57.6983712 74.3293772,57.6236209 75.0110212,57.3024059 L79.1120595,64.1991839 C78.5047958,64.7989497 77.9296587,65.2985783 77.3866482,65.6970118 C76.8432886,66.0961504 76.3358968,66.4385212 75.8637745,66.7244765 C74.3457897,67.6447521 73.0212633,68.0414226 71.891592,67.9162511 C70.7612224,67.7914321 69.7715815,67.2449082 68.9205741,66.2770322 L68.0398845,65.1430834 C67.7699507,67.3915882 67.0607197,69.420073 65.9111439,71.2292432 C64.7608696,73.0387659 63.2757099,74.4949875 61.4542678,75.5993182" id="Fill-3"></path>
                    <path d="M93.0218722,33.9045954 C90.8860375,34.8249688 89.0866504,35.9681987 87.6244251,37.3363778 C86.1614855,38.704557 85.3217953,40.2000329 85.1046402,41.8242006 L92.4761272,58.9381229 L83.5738396,62.594157 L71.2877899,34.0709532 L79.4668224,30.7117125 L81.9476765,36.4707595 C82.1223292,34.1400073 82.7630796,32.1074435 83.8720707,30.3730681 C84.9803475,28.6390414 86.4172142,27.3887427 88.1819565,26.6207767 C88.5898367,26.4533727 88.8862819,26.331656 89.0723639,26.2552779 C89.2573743,26.1792486 89.4505995,26.1220522 89.6520394,26.0808987 L93.0218722,33.9045954 Z" id="Fill-5"></path>
                    <path d="M106.503654,53.9005241 L100.546547,33.2551935 L96.75734,34.3729961 L94.7605988,27.4532658 L98.5498057,26.3354633 L97.8400702,23.8763681 C97.3014939,22.0087812 97.0564329,20.239544 97.1066303,18.5693616 C97.1564791,16.9005891 97.4803221,15.3978479 98.0771135,14.063253 C98.6742535,12.7293631 99.5307467,11.5865324 100.647639,10.6361711 C101.763834,9.6861623 103.09546,8.98326154 104.641819,8.5267638 C107.054083,7.81505033 109.807968,7.6444365 112.901383,8.01351228 L113.241262,15.3601296 C112.560808,15.2720026 111.828414,15.2494421 111.043731,15.2949156 C110.259048,15.3403891 109.546175,15.4574218 108.905461,15.6467185 C106.680391,16.3030882 105.975884,18.0420097 106.789849,20.8631305 L107.598585,23.6655684 L114.49794,21.6294827 L116.494681,28.5495654 L109.595327,30.5852986 L115.552434,51.2306292 L106.503654,53.9005241 Z" id="Fill-7"></path>
                    <path d="M135.791474,39.6462548 C136.806975,39.4974031 137.767792,39.1765294 138.674276,38.6836337 C139.579708,38.190738 140.302161,37.6051611 140.841985,36.9262008 C141.636999,36.0899632 141.97807,35.2807577 141.863445,34.497531 L141.434039,31.562625 C140.567516,31.3702412 139.642454,31.2557939 138.659553,31.2203363 C137.675951,31.1845277 136.774725,31.2270066 135.954122,31.347422 C134.234046,31.5998379 132.875372,32.1994575 131.876346,33.1452274 C130.877321,34.0920506 130.469298,35.190885 130.652628,36.4427839 C130.818781,37.5784801 131.384195,38.4445582 132.35027,39.0420714 C133.315293,39.6406377 134.462595,39.8414471 135.791474,39.6462548 M134.024426,46.8013168 C132.500649,47.0252965 131.047681,46.9884346 129.667624,46.6914334 C128.286164,46.3947832 127.063147,45.8745044 125.996468,45.1316502 C124.92979,44.388796 124.035574,43.4612815 123.313822,42.3473513 C122.59172,41.2344742 122.127962,39.9727455 121.922198,38.5639204 C121.698556,37.0378395 121.817738,35.6016314 122.279393,34.2542427 C122.740697,32.9075562 123.491894,31.6981362 124.532283,30.6252806 C125.573022,29.5534783 126.856331,28.6456234 128.384665,27.9010139 C129.912297,27.1578086 131.652354,26.6420937 133.606939,26.3552733 C134.896207,26.1660491 136.16234,26.0905701 137.405338,26.1274319 C138.647635,26.165347 139.750068,26.3331562 140.712287,26.6312106 L140.506173,25.2227366 C139.984927,21.6618812 137.672797,20.1817899 133.569782,20.7838669 C131.889316,21.0306658 130.329084,21.5502424 128.888033,22.3408415 C127.447334,23.1321427 125.969127,24.2186898 124.455516,25.5997808 L120.841498,20.1336939 C122.678302,18.5058041 124.642351,17.1980858 126.733644,16.2108902 C128.824236,15.2247477 131.100962,14.5503513 133.562771,14.1891051 C138.212621,13.5066341 141.967554,14.0750089 144.828973,15.8931761 C147.68934,17.7123965 149.429047,20.7347177 150.047741,24.961193 L151.207662,32.8861412 C151.345072,33.8252409 151.587292,34.4596159 151.934672,34.7882131 C152.282403,35.1175123 152.832744,35.266364 153.587095,35.2354703 L154.746666,43.1600674 C153.954456,43.4760262 153.230601,43.7126442 152.5751,43.8685172 C151.918898,44.0250924 151.31773,44.1434014 150.770895,44.2234443 C149.012611,44.4814773 147.633605,44.3336788 146.63493,43.781102 C145.635555,43.2288762 144.927473,42.3434895 144.509986,41.1249419 L144.127903,39.7417445 C143.017407,41.7038485 141.583718,43.2934723 139.826134,44.5106157 C138.06785,45.7284612 136.134648,46.4920283 134.024426,46.8013168" id="Fill-9"></path>
                    <path d="M158.548509,44.1856452 L157.812439,12.7230261 L167.667906,12.5048854 L168.403976,43.9675046 L158.548509,44.1856452 Z M157.728223,9.1274299 L157.525157,0.437629135 L167.380623,0.219133798 L167.584054,8.90893456 L157.728223,9.1274299 Z" id="Fill-11"></path>
                    <path d="M194.737377,43.5930881 C193.371718,44.0546285 191.817396,44.46162 190.076198,44.8151252 C188.33357,45.1689846 186.599519,45.2830414 184.873685,45.1576498 C183.669532,45.070159 182.545418,44.8385033 181.504201,44.4630368 C180.462269,44.0872161 179.563978,43.5413729 178.809685,42.8265698 C178.054678,42.1114124 177.486546,41.2000207 177.104576,40.0916862 C176.721534,38.9837059 176.586826,37.6738239 176.698666,36.1609774 L177.907107,19.8023286 L173.872658,19.5093939 L174.406845,12.2855609 L178.441293,12.5784956 L179.178078,2.60808987 L188.814517,3.30801604 L188.077375,13.2784217 L194.521559,13.7463379 L193.98773,20.970171 L187.543546,20.5022548 L186.577008,33.5769889 C186.5009,34.6123553 186.705999,35.377811 187.194806,35.8726475 C187.682542,36.3685466 188.328211,36.6451875 189.131456,36.7036327 C189.854305,36.7560563 190.605382,36.6905268 191.386116,36.5073983 C192.166493,36.3239157 192.847536,36.1135128 193.431032,35.8754812 L194.737377,43.5930881 Z" id="Fill-14"></path>
                    <path d="M216.301742,31.9184976 L222.744773,6.95490633 L232.119999,9.27603382 L225.676967,34.2396251 L216.301742,31.9184976 Z M212.124643,48.1019434 L214.583338,38.5754086 L223.958921,40.8965361 L221.500227,50.4230709 L212.124643,48.1019434 Z" id="Fill-16"></path>
                </g>
                <path d="M743.808031,180.157458 C738.149891,191.58248 732.628846,202.730287 726.959567,214.177451 L755.757514,214.177451 L756,214.677802 C737.501264,231.118677 719.002527,247.559125 700.503791,264 C700.388974,263.926331 700.274586,263.852663 700.15977,263.77942 C705.649969,252.640982 711.139739,241.50297 716.776458,230.06645 L687,230.06645 C687.241629,229.29953 687.350447,228.787683 687.558231,228.319269 C694.397524,212.902942 701.264664,197.498964 708.064114,182.065603 C708.724309,180.567107 709.506175,179.984145 711.224566,180.000327 C721.289003,180.095287 731.355154,180.045039 741.420447,180.051001 C742.104634,180.051001 742.789249,180.110191 743.808031,180.157458" id="Fill-1" fill="url(#linearGradient-3)"></path>
            </g>
        </g>
    </g>
</svg>