<svg xmlns="http://www.w3.org/2000/svg" viewBox="0 0 1045.8 681.73"><defs><style>.cls-1{fill:none;}.cls-2{fill:#e12c38;opacity:0.71;}.cls-3{fill:#ef4f2b;}.cls-18,.cls-3{opacity:0.92;}.cls-4{fill:#f23e15;}.cls-10,.cls-16,.cls-4,.cls-6{opacity:0.91;}.cls-20,.cls-5{fill:#f35b00;}.cls-13,.cls-5{opacity:0.53;isolation:isolate;}.cls-6{fill:#ef4715;}.cls-7{fill:#e54914;}.cls-8{fill:#e33a64;}.cls-9{fill:#f46f1e;}.cls-10{fill:#f0441d;}.cls-11,.cls-15{fill:#eb3516;}.cls-12,.cls-25{fill:#dc2754;}.cls-13{fill:#f57722;}.cls-14{fill:#f1530f;}.cls-15{opacity:0.96;}.cls-16,.cls-18{fill:#ee360c;}.cls-17{fill:#e02a3b;}.cls-19{fill:#e23653;}.cls-21{fill:#f67923;}.cls-22{fill:#f25412;}.cls-23{fill:#f3661b;}.cls-24{fill:#de2945;opacity:0.93;}.cls-25{opacity:0.87;}</style></defs><title>Fichier 2</title><g id="Calque_2" data-name="Calque 2"><g id="Calque_1-2" data-name="Calque 1"><path class="cls-1" d="M13.64,518.62a6.69,6.69,0,0,0,4.5,8.32l.09,0a6.52,6.52,0,0,0,2.12.24v-13.5A6.69,6.69,0,0,0,13.64,518.62Z"/><path class="cls-1" d="M8.68,517.19a11.87,11.87,0,0,0,11.67,15.23v-1.73a10.22,10.22,0,1,1,0-20.44v-1.73A11.93,11.93,0,0,0,8.68,517.19Z"/><path class="cls-1" d="M1041.46,293.6v23.81a18.28,18.28,0,0,0,4.2-9.65A18.55,18.55,0,0,0,1041.46,293.6Z"/><path class="cls-2" d="M949.52,366.54A16.44,16.44,0,0,0,928.84,371a15.85,15.85,0,0,0-2.13,3.55,16.35,16.35,0,0,0-1.17,9.42,16,16,0,0,0,4,8.31,6.28,6.28,0,0,1,1.71,3.68c.08.82.19,1.63.29,2.44,0,.43.26.58.69.54l.94-.11,8.33-1a30.6,30.6,0,0,0,4.61-.77,16.15,16.15,0,0,0,11.28-10.88,15.72,15.72,0,0,0-.31-11A16,16,0,0,0,949.52,366.54Zm.74,21.21a10.77,10.77,0,1,1-1.84-15.2,10.77,10.77,0,0,1,1.84,15.2Z"/><path class="cls-2" d="M942.41,386.12h-.91a.26.26,0,0,1-.32-.25c-.07-.37-.16-.75-.26-1.12a1.16,1.16,0,0,0-1.3-1H938.5a.33.33,0,0,1-.39-.25v0c-.08-.36-.18-.72-.28-1.08a1.69,1.69,0,0,0-.65-1l-.53-.41h0c-.25-.19-.49-.4-.75-.58a.8.8,0,0,0-1.11.2.78.78,0,0,0,.13,1.09,4.48,4.48,0,0,0,.56.44,1.93,1.93,0,0,1,1,1.53,5.12,5.12,0,0,0,.22.85,1.06,1.06,0,0,0,1,.86,13.24,13.24,0,0,0,1.45,0,.38.38,0,0,1,.44.31v0c.08.4.18.79.29,1.18a1,1,0,0,0,1,.8h1.79a.62.62,0,0,0,.63-.5.8.8,0,0,0-.88-1.07Z"/><path class="cls-2" d="M936.7,377.79a5.84,5.84,0,0,0,.93-.14,3.66,3.66,0,0,0,.07.9.7.7,0,0,0,.69.71l.2,0a.71.71,0,0,0,.68-.9,6.6,6.6,0,0,0-.13-.89,3.37,3.37,0,0,0,.87-.07.71.71,0,0,0,.7-.9.72.72,0,0,0-.74-.7l-.17,0-.85.09a6.05,6.05,0,0,0-.1-.89.79.79,0,0,0-1.57.21h0a4.68,4.68,0,0,0,.19.9,6.86,6.86,0,0,0-1,.09.71.71,0,0,0-.66.88.69.69,0,0,0,.89.71Z"/><path class="cls-3" d="M239.9,569.15a30.4,30.4,0,0,0-33.83,19.58,29.3,29.3,0,0,0-1.72,7.45,30.23,30.23,0,0,0,3.32,17.22,29.64,29.64,0,0,0,11.85,12.29,11.61,11.61,0,0,1,5.11,5.49c.61,1.39,1.26,2.76,1.91,4.13a1,1,0,0,0,1.51.55l1.59-.73c4.69-2.19,9.39-4.35,14.05-6.58a56.55,56.55,0,0,0,7.67-4c8.93-6.12,13.51-14.72,13.62-25.57a29.06,29.06,0,0,0-6.86-19.23A29.51,29.51,0,0,0,239.9,569.15ZM253.32,606a19.91,19.91,0,1,1-11.92-25.68A19.91,19.91,0,0,1,253.32,606Z"/><path class="cls-4" d="M459.69,400.35a5.46,5.46,0,0,1-2.88,3.13c1.42-1.23,1.77-2.56,1.3-3.22,0-.1-.31-.35-1-.4a43.93,43.93,0,0,0-9.92,2.63c-8.15-14.48-20.27-23-42.31-11.75l-3,1.55c-21.93,11.17-22.29,26-15.42,41a46.6,46.6,0,0,0-8.16,6.58A1.23,1.23,0,0,0,378,441c.21.66,1.59,1.11,3.47.78a5.62,5.62,0,0,1-4.22.49,4.92,4.92,0,0,0,.11,1.47,5.79,5.79,0,0,0,6.79,4.57h0c11.9-2.24,26.34-7.55,40.65-14.84s27.1-15.85,35.9-24.16a5.79,5.79,0,0,0,.31-8.18h0A8.48,8.48,0,0,1,459.69,400.35Z"/><path class="cls-5" d="M147.22,565.12a9.13,9.13,0,0,0-4.54,1.79,9.58,9.58,0,0,0-4.3,8.75,3.13,3.13,0,0,0,4.36,2.72,3.28,3.28,0,0,0,1.92-3.37,3.71,3.71,0,0,1,4-3.39l.15,0c1.92.33,3.87,3,2.07,5.2a6.18,6.18,0,0,1-1.68,1.28,26.07,26.07,0,0,0-4,3.1,6.34,6.34,0,0,0-2.34,5.66,3.54,3.54,0,0,0,.81,1.84,4.08,4.08,0,0,0,4.16,1.29c1.66-.42,3.05-1.74,3-3.16a2.28,2.28,0,0,1,1.09-1.94c1-.84,2.17-1.58,3.14-2.51a10.05,10.05,0,0,0-7.94-17.27Z"/><path class="cls-6" d="M455.18,448.42l-14.76-3.14a6.13,6.13,0,0,0-2.64,11.93,4.34,4.34,0,0,1,1.83-2.5,2.66,2.66,0,0,0-.29.86l-1.41,6.64c-1.08,5.09,1.87,10,6.61,11A9,9,0,0,0,455,465.86l1.25-5.87a7,7,0,0,0,3.2-4.41,5.89,5.89,0,0,0-4.26-7.16Z"/><path class="cls-7" d="M568.41,409.85a1.57,1.57,0,0,1,.66-.91,1,1,0,0,0-.11.31l-.51,2.41a3.18,3.18,0,1,0,6.21,1.32l.45-2.13a2.52,2.52,0,0,0,1.16-1.6,2.13,2.13,0,0,0-1.54-2.59h0l-5.35-1.14a2.22,2.22,0,0,0-1,4.32Z"/><path class="cls-8" d="M913.52,119l-1-.3-.75-.22c-.75-.22-.71-.37-1.09-1.3a9.64,9.64,0,0,0-.34-1.08.82.82,0,0,1-.13-.69c-1-3.24-3.15-9.42-11.48-12.13l-.6-.17a17.36,17.36,0,0,0-16.42,4c-1.85,1.92-2.58,2.21-8.14.61-5.11-1.46-6-1.87-6.58-4.83-.64-2.31-3.71-9.74-12-12.11l-.6-.17c-8.65-2.15-13.58,2-16.16,4.21a.82.82,0,0,0-.47.52c-.24.26-.62.48-.86.74-.67.63-.71.78-1.61.52l-.75-.22-1-.3c-.9-.26-1.53.22-2,1.23v.15l-1.26,4.39c-.48,1.66,1.33,2.18,2.38,2.48l.75.22c.15,0,0,.65-.11,1v.15c-.55,5.9,2.06,15.49,12.12,18.38a16.26,16.26,0,0,0,11.75-.72,17.9,17.9,0,0,0,7.45-6.71c2.5-4.19,5.34-3.87,6.84-3.44l1.2.34c1.5.43,3.93,1.62,4,6.54a17.43,17.43,0,0,0,2.81,9.48,16.26,16.26,0,0,0,9.58,6.84c9.91,2.84,17.36-3.86,20-9.16v-.15a3.23,3.23,0,0,1,.37-.71l.3.09.45.13c1,.3,2.85.82,3.33-.85.15-1.1.93-3.83,1.15-4.58C914.7,120,914.42,119.2,913.52,119Zm-51.9-8.33a11.88,11.88,0,1,1-8.12-14.77,11.88,11.88,0,0,1,8.12,14.77ZM904.72,123a11.88,11.88,0,1,1-8.12-14.77A11.88,11.88,0,0,1,904.72,123Z"/><path class="cls-8" d="M853,97.51a10.23,10.23,0,1,0,7,12.67v0A10.38,10.38,0,0,0,853,97.51Zm3.64,11.69a6.77,6.77,0,1,1,0-.06Z"/><path class="cls-8" d="M896.13,109.87A10.23,10.23,0,1,0,903,122.58l0-.08a10.17,10.17,0,0,0-6.9-12.62Zm3.64,11.69a6.88,6.88,0,1,1,0-.1l0,.09Z"/><path class="cls-9" d="M18.23,527a6.77,6.77,0,0,1,2.12-13.26v-3.46a10.22,10.22,0,1,0,0,20.44h0v-3.48A6.52,6.52,0,0,1,18.23,527Z"/><path class="cls-9" d="M16.8,532a12,12,0,0,1,3.55-23.44v-5.44c-6.26-.27-10.08,2.93-12.24,4.78a.82.82,0,0,0-.47.52c-.24.26-.62.48-.86.74-.67.63-.71.78-1.61.52l-.75-.22-1-.3c-.9-.26-1.53.22-2,1.23v.15L.08,514.89c-.48,1.66,1.33,2.18,2.38,2.48l.75.22c.15,0,0,.65-.11,1v.15c-.55,5.9,2.06,15.49,12.12,18.38a18.7,18.7,0,0,0,5.17.74v-5.38A11.81,11.81,0,0,1,16.8,532Z"/><path class="cls-9" d="M29.86,523.27a10.38,10.38,0,0,0-6.94-12.63,10.13,10.13,0,0,0-2.57-.38v3.46A6.82,6.82,0,0,1,22,514a6.69,6.69,0,0,1,4.62,8.26l0,.1a6.81,6.81,0,0,1-6.21,4.89v3.48A10.2,10.2,0,0,0,29.86,523.27Z"/><path class="cls-9" d="M34.37,529.64c2.5-4.19,5.34-3.87,6.84-3.44l1.2.34c1.5.43,3.93,1.62,4,6.54a17.43,17.43,0,0,0,2.81,9.48,16.26,16.26,0,0,0,9.58,6.84c9.91,2.84,17.36-3.86,20-9.16v-.15a3.22,3.22,0,0,1,.37-.71l.3.09.45.13c1.05.3,2.85.82,3.33-.85.15-1.1.93-3.83,1.15-4.58.15-1.1-.12-1.84-1-2.09l-1.05-.3-.75-.22c-.75-.22-.71-.37-1.09-1.3a9.65,9.65,0,0,0-.34-1.08.82.82,0,0,1-.13-.69c-1-3.24-3.15-9.42-11.48-12.13l-.6-.17a17.36,17.36,0,0,0-16.42,4c-1.85,1.92-2.58,2.21-8.14.61-5.11-1.46-6-1.87-6.58-4.83-.64-2.31-3.71-9.74-12-12.11l-.6-.17a19.58,19.58,0,0,0-3.92-.57v5.44a11.79,11.79,0,0,1,3,.44,12,12,0,0,1-3,23.45v5.38a14.88,14.88,0,0,0,6.57-1.46A17.9,17.9,0,0,0,34.37,529.64Zm17.42-.08a11.88,11.88,0,1,1,8.12,14.77,11.88,11.88,0,0,1-8.12-14.77v0Z"/><path class="cls-9" d="M60.38,542.66A10.23,10.23,0,1,0,53.46,530l0,.08a10.17,10.17,0,0,0,6.9,12.62ZM56.75,531a6.69,6.69,0,1,1,0,.1Z"/><path class="cls-10" d="M400.62,550.48l17.94-24.39c-.79-.18-1.32-.32-1.86-.41-7.9-1.4-15.81-2.75-23.7-4.22a2.33,2.33,0,0,0-2.77,1.18q-11.21,16.77-22.5,33.49c-.23.34-.38.73-.68,1.3l23.37,4.12-17.71,24.18.24.22,50.4-31.06-.12-.43Z"/><path class="cls-11" d="M586.35,442.57c-11.6-2.69-20.11-4.56-21.07-4.82a4,4,0,0,0-1.24,0,2.55,2.55,0,0,0-1.15.42,4.11,4.11,0,0,1-1.7.17,2.67,2.67,0,0,1-1.39-1c-.33-.3-.45-.64-.78-.93a3.46,3.46,0,0,0-1.08-.6c-.84-.33-9.27-2.9-20.66-6.36a4.2,4.2,0,0,0-1.33,1.09,3.83,3.83,0,0,0-.71,1.88c-.6,3.77-.9,5.66-.88,6a28.36,28.36,0,0,0-.29,5.72,3.77,3.77,0,0,0,.57,2.12,4,4,0,0,0,2.28,1.54c7.31,2.48,10.32,3.59,12.76,2.59a16,16,0,0,0,1.79-.87,13.5,13.5,0,0,0,2.29-2c1.51-1.77,3.55-4.74,4.39-6a1.58,1.58,0,0,1,1.66-.8,1.63,1.63,0,0,1,.68.18l.68.18a2,2,0,0,1,.7.5,1.4,1.4,0,0,1,.35,1c.22,1.51.4,5.08.82,7.36a8.38,8.38,0,0,0,1,2.85,16,16,0,0,0,1.11,1.64c1.71,2.11,4.88,2.65,12.35,4.14a4,4,0,0,0,2.74-.2,3.46,3.46,0,0,0,1.55-1.55,41,41,0,0,0,2.61-5.1c0-.19.74-2,2.23-5.61a3,3,0,0,0,.32-2A4.21,4.21,0,0,0,586.35,442.57Zm-31-3.12c-2.86,7.2-6.21,8.48-6.21,8.48-2.2.86-4.78.07-9.92-1.62a3.41,3.41,0,0,1-2.35-1.66,3.94,3.94,0,0,1-.36-1.75,60.32,60.32,0,0,1,1.16-8.18,2.59,2.59,0,0,1,.56-1.3,3.49,3.49,0,0,1,.81-.71c8.23,2.52,14.14,4.41,15.4,4.75a2,2,0,0,1,1.13.82,4.87,4.87,0,0,1-.22,1.18Zm28,7.51a81.91,81.91,0,0,1-3.09,7.66,3.42,3.42,0,0,1-1.19,1.34,3.53,3.53,0,0,1-2.87.27c-5.29-1.11-7.83-1.68-9.4-3.55,0,0-2.26-2.78-1.13-10.45a1.8,1.8,0,0,1,.5-1.11,1.55,1.55,0,0,1,1.39-.15c1.18.21,7.32,1.65,15.71,3.59a3.49,3.49,0,0,1,.35,1,2.33,2.33,0,0,1-.26,1.41Z"/><path class="cls-12" d="M869.5,181.33a3,3,0,0,0-.54-1.93,4.2,4.2,0,0,0-1.23-1.21c-11.65,2.46-20.15,4.36-21.13,4.54a4.05,4.05,0,0,0-1.13.5,2.55,2.55,0,0,0-.86.86,4.11,4.11,0,0,1-1.47.87,2.67,2.67,0,0,1-1.68-.31c-.43-.13-.68-.39-1.11-.52a3.46,3.46,0,0,0-1.23-.09c-.9.06-9.62,1.29-21.41,3a4.2,4.2,0,0,0-.74,1.55,3.83,3.83,0,0,0,.15,2c1,3.67,1.58,5.51,1.73,5.79a28.36,28.36,0,0,0,2.15,5.29,3.77,3.77,0,0,0,1.41,1.68,4,4,0,0,0,2.72.43c7.67-.84,10.87-1.1,12.66-3a16,16,0,0,0,1.25-1.54,13.49,13.49,0,0,0,1.24-2.76c.62-2.24,1.21-5.8,1.46-7.26a1.58,1.58,0,0,1,1.17-1.42,1.63,1.63,0,0,1,.69-.12l.69-.12a2,2,0,0,1,.84.16,1.4,1.4,0,0,1,.75.78c.83,1.27,2.51,4.43,3.86,6.33a8.38,8.38,0,0,0,2.11,2.17,16,16,0,0,0,1.7,1c2.44,1.19,5.54.34,12.94-1.47a4,4,0,0,0,2.4-1.34,3.46,3.46,0,0,0,.75-2.06,41,41,0,0,0,.21-5.72C869.81,187.17,869.68,185.26,869.5,181.33Zm-33.18,17.43c-1.63,1.71-4.3,2.08-9.67,2.72a3.41,3.41,0,0,1-2.83-.52,3.94,3.94,0,0,1-1.07-1.44,60.33,60.33,0,0,1-2.41-7.9,2.58,2.58,0,0,1,0-1.41,3.49,3.49,0,0,1,.43-1c8.52-1.2,14.68-2,16-2.2a2,2,0,0,1,1.37.27,4.87,4.87,0,0,1,.31,1.16c.36,7.75-2.13,10.32-2.13,10.32Zm31-7.1a3.43,3.43,0,0,1-.51,1.71,3.53,3.53,0,0,1-2.49,1.45c-5.27,1.23-7.81,1.78-10,.75,0,0-3.22-1.56-5.44-9a1.8,1.8,0,0,1,0-1.22,1.55,1.55,0,0,1,1.19-.72c1.16-.31,7.33-1.6,15.75-3.39a3.49,3.49,0,0,1,.75.78,2.33,2.33,0,0,1,.34,1.36,75.72,75.72,0,0,1,.45,8.28Z"/><path class="cls-13" d="M210.25,501a10.56,10.56,0,0,0,.53-1.2,8.91,8.91,0,0,0,.32-2c0-1.53-.22-3.9-.31-4.88a1,1,0,0,1,.5-1.11,1.08,1.08,0,0,1,.42-.2l.42-.2a1.32,1.32,0,0,1,.56,0,.92.92,0,0,1,.61.37c.75.67,2.36,2.4,3.54,3.37a5.53,5.53,0,0,0,1.71,1,10.56,10.56,0,0,0,1.26.36c1.76.34,3.59-.73,8-3.15a2.66,2.66,0,0,0,1.3-1.26,2.28,2.28,0,0,0,.13-1.44,27,27,0,0,0-.84-3.68c-.06-.12-.47-1.31-1.25-3.78a2,2,0,0,0-.68-1.14,2.77,2.77,0,0,0-1-.56c-7,3.56-12.1,6.22-12.69,6.5a2.67,2.67,0,0,0-.63.51,1.68,1.68,0,0,0-.4.7,2.71,2.71,0,0,1-.79.8,1.76,1.76,0,0,1-1.12.09c-.29,0-.5-.13-.79-.14a2.28,2.28,0,0,0-.8.16c-.57.19-5.91,2.47-13.14,5.55a2.77,2.77,0,0,0-.21,1.12,2.53,2.53,0,0,0,.44,1.25c1.3,2.16,1.95,3.24,2.09,3.39a18.71,18.71,0,0,0,2.28,3,2.49,2.49,0,0,0,1.19.83,2.66,2.66,0,0,0,1.81-.19C207.44,503.19,209.44,502.48,210.25,501Zm4.45-11.69a1,1,0,0,1,.64-.66c.69-.39,4.4-2.27,9.46-4.85a2.3,2.3,0,0,1,.61.37,1.54,1.54,0,0,1,.45.81c.19.57,1.27,3.34,1.69,5.18a2.26,2.26,0,0,1,0,1.18,2.33,2.33,0,0,1-1.34,1.35c-3.15,1.69-4.67,2.47-6.26,2.19,0,0-2.32-.45-5-4.8a1.19,1.19,0,0,1-.25-.8ZM209,500c-.75,1.37-2.39,2.06-5.7,3.39a2.25,2.25,0,0,1-1.89.15,2.6,2.6,0,0,1-.92-.73,39.81,39.81,0,0,1-2.88-4.62,1.71,1.71,0,0,1-.27-.89,2.3,2.3,0,0,1,.11-.71c5.23-2.22,9-3.77,9.8-4.13a1.29,1.29,0,0,1,.92-.06,3.21,3.21,0,0,1,.39.69C210.13,497.86,209,500,209,500Z"/><path class="cls-14" d="M105.82,453l.37-13c-.33.13-.55.22-.76.32-3.16,1.47-6.31,3-9.48,4.4a1,1,0,0,0-.69,1.1c.1,5.77.17,11.55.25,17.32a1.91,1.91,0,0,0,.08.62l9.34-4.35-.34,12.87h.14L115,448.84l-.15-.12Z"/><path class="cls-15" d="M521.58,365.69l9.34-4.35-.34,12.87h.14L541,350.84l-.15-.12-9,4.21.37-13c-.33.13-.55.22-.76.32-3.16,1.47-6.31,3-9.48,4.4a1,1,0,0,0-.69,1.1c.1,5.77.17,11.55.25,17.32A2.36,2.36,0,0,0,521.58,365.69Z"/><path class="cls-16" d="M547.62,524.15a22.68,22.68,0,0,0-10.39-.91l-.1-.24,6.34-6.92A31.52,31.52,0,0,0,526.6,518l2.4-5.8-.12-.28c-2.13.35-4.3.55-6.39,1.07a24.23,24.23,0,0,0-10.8,6,.61.61,0,0,1-.85.12h0a22.23,22.23,0,0,0-5.85-2.39,21.79,21.79,0,0,0-5.48-.68l.94,5.41-9.69-2.15a11.37,11.37,0,0,0-.53,9,12.66,12.66,0,0,0-8.38,5.47l5,2.77a10.46,10.46,0,0,0-6.67,7.75l4.56-.94c-.07.25-.11.43-.17.61A35.87,35.87,0,0,0,516,591.61a13,13,0,0,1,7.28,2.48c1.68,1.3,3.32,2.64,5,4,.87.69,1.38.64,2.09-.24l15.48-19.12a35.83,35.83,0,0,0,7.18-31,34.73,34.73,0,0,0-4.08-10.13c-.67-1.11-1.4-2.19-2.15-3.37,4.16-.87,7.24-3.63,10.74-5.81A51.14,51.14,0,0,0,547.62,524.15ZM522,579a23.47,23.47,0,0,1-17.35-42.24,20.08,20.08,0,0,0,3,6.76,40.06,40.06,0,0,0,8.86-10.82,20.82,20.82,0,0,0,4.66,7.67,17.33,17.33,0,0,0,4.34-6.8A23.46,23.46,0,0,1,522,579Z"/><path class="cls-16" d="M531.63,558.91c-.77-.7-.9-.71-1.65.07a33.59,33.59,0,0,1-15.11,9c-.27.08-.68.47-.64.62a1.12,1.12,0,0,0,.69.66,14,14,0,0,0,15.89-6.14c.74-1.29.74-1.29,2.3-1.16h.34c.12-.09.43-.22.44-.37a1.09,1.09,0,0,0-.24-.79C533,560.14,532.31,559.53,531.63,558.91Z"/><path class="cls-16" d="M527.43,550.44a10.11,10.11,0,0,0-2.44,1.81,1.36,1.36,0,0,0-.29,1.19c.09.25.68.35,1.06.44a2.73,2.73,0,0,0,.83,0l3.61-.38h0l4-.42a6.86,6.86,0,0,0,1.23-.23.73.73,0,0,0,.4-1.26,3.93,3.93,0,0,0-1.11-.94A7.76,7.76,0,0,0,527.43,550.44Z"/><path class="cls-16" d="M511.81,553.68a7.79,7.79,0,0,0-5.93-.78,6.41,6.41,0,0,0-3.71,2.19,4.64,4.64,0,0,0-.48,1.39,4.35,4.35,0,0,0,1.34.37c1.41-.08,2.82-.27,4.23-.42v0c1.36-.14,2.73-.26,4.08-.44.61-.08,1.47,0,1.64-.78S512.4,554,511.81,553.68Z"/><path class="cls-17" d="M938.36,286.51l-6.87-1.46,5.73-7.16-.56-.15c-2.4-.51-4.81-1-7.2-1.54a.71.71,0,0,0-.86.33q-3.59,4.94-7.21,9.86c-.07.1-.12.21-.22.38l7.11,1.51-5.65,7.1.07.07,15.72-8.81Z"/><path class="cls-7" d="M304.37,410.71c4.57,0,7.86-5.46,8.92-7.19a.76.76,0,0,0,.25-.33,1.78,1.78,0,0,1,1.17-.7,2.55,2.55,0,0,0,1.41-1c.72-1.43,1.54-3.37.59-4.2-.53-.55-4.13-2.3-7.44-3.7a60,60,0,0,0-7.74-2.74,66.83,66.83,0,0,0-6.68-1.42,11.78,11.78,0,0,1-7.36-3.13c-1.41-1-3.19-2.22-5.66-3.81a60.93,60.93,0,0,0-7.35-3.66c-3.22-1.37-7.07-2.79-7.84-2.78-1.26-.1-2,1.74-2.61,3.34a2.14,2.14,0,0,0,.24,1.73,2.56,2.56,0,0,1,.31,1.33c0,.13,0,.22-.06.41-.54,2-2.14,8.11,1,11.41A17.94,17.94,0,0,0,271,398a11.62,11.62,0,0,0,7.23.89,16.45,16.45,0,0,0,7.08-4.38c1.78-1.63,2.63-2.36,3.83-1.85s1.23,1.72,1.33,4a15.85,15.85,0,0,0,1.76,8.13,11.62,11.62,0,0,0,5.66,4.58A15.41,15.41,0,0,0,304.37,410.71ZM284.28,391c-5.1,6.64-8.87,5.8-12.28,4.35l-.55-.23c-4.2-1.89-4.87-4.13-5-5.6-.23-2.27,1.34-7.25,3.16-8.22,1.09-.52,3.4-.08,6.25,1.13a40.11,40.11,0,0,1,5.14,2.73c2.29,1.52,3.67,2.86,3.83,4A2,2,0,0,1,284.28,391ZM299.62,407l-.55-.23c-3.41-1.45-6.54-3.54-5.4-11.85a2.38,2.38,0,0,1,.93-1.67c.94-.69,2.78-.67,5.55,0a40.12,40.12,0,0,1,5.53,1.81c2.85,1.21,4.87,2.61,5.16,3.71.57,2-2,6.63-3.71,8-1.25.85-3.24,2-7.51.25Z"/><path class="cls-18" d="M313.42,510.3a8.27,8.27,0,0,0-4.41.27,8.68,8.68,0,0,0-6.16,6.34,2.84,2.84,0,0,0,3,3.56,3,3,0,0,0,2.6-2.37,3.37,3.37,0,0,1,4.42-1.79l.11.05c1.56.82,2.5,3.66.33,5.06a5.6,5.6,0,0,1-1.81.64,23.63,23.63,0,0,0-4.28,1.56,5.75,5.75,0,0,0-3.6,4.22,3.21,3.21,0,0,0,.18,1.82A3.7,3.7,0,0,0,307,532c1.54.11,3.12-.65,3.51-1.87a2.06,2.06,0,0,1,1.48-1.36c1.14-.43,2.31-.76,3.41-1.28a9.11,9.11,0,0,0-2-17.11Z"/><path class="cls-18" d="M306.29,535a3.27,3.27,0,0,0-4,2.24l0,.09a3.33,3.33,0,0,0,2.34,4.09h0a3.37,3.37,0,0,0,4.08-2.39A3.33,3.33,0,0,0,306.29,535Z"/><path class="cls-8" d="M1029.3,170.17l-2,.62c-14.52,4.44-16.33,13.43-13.76,23.27a28.74,28.74,0,0,0-5.66,3.12.76.76,0,0,0-.31.68c.06.42.85.84,2,.85a3.46,3.46,0,0,1-2.62-.15,3,3,0,0,0-.09.91,3.57,3.57,0,0,0,3.63,3.51h0c7.47-.08,16.81-1.76,26.28-4.66q2.37-.72,4.66-1.52V169.1C1038.19,168.41,1034.21,168.67,1029.3,170.17Z"/><path class="cls-19" d="M1037.89,309.45c-.54-.61-.65-.63-1.3-.09a26.48,26.48,0,0,1-12.58,5.79c-.22,0-.57.31-.55.43a.88.88,0,0,0,.49.58,11.07,11.07,0,0,0,13-3.5c.69-1,.69-1,1.9-.72l.26,0c.1-.06.35-.14.38-.25a.86.86,0,0,0-.12-.64C1038.87,310.53,1038.38,310,1037.89,309.45Z"/><path class="cls-19" d="M1041.32,304a3.1,3.1,0,0,0-.79-.83,6.11,6.11,0,0,0-5.67-.76,8,8,0,0,0-2.06,1.22,1.07,1.07,0,0,0-.32.91c0,.2.5.33.79.43a2.15,2.15,0,0,0,.66,0h6a5.41,5.41,0,0,0,1-.08.57.57,0,0,0,.39-.89Z"/><path class="cls-19" d="M1022.62,303.14A6.14,6.14,0,0,0,1018,302a5,5,0,0,0-3.09,1.41,3.66,3.66,0,0,0-.49,1,3.43,3.43,0,0,0,1,.4c1.11,0,2.23,0,3.35,0H1022c.49,0,1.15.13,1.35-.48S1023.06,303.45,1022.62,303.14Z"/><path class="cls-3" d="M239.25,607.86a15.86,15.86,0,0,0-1.6.54.48.48,0,0,1-.66-.15l0-.1c-.34-.62-.71-1.22-1.09-1.82a2.15,2.15,0,0,0-2.87-1h0c-.65.23-1.3.45-1.94.7a.61.61,0,0,1-.84-.2l0-.08c-.34-.59-.73-1.16-1.1-1.74a3.12,3.12,0,0,0-1.71-1.38c-.4-.13-.78-.28-1.17-.42h0c-.55-.2-1.09-.43-1.64-.59a1.48,1.48,0,0,0-1.83,1,1.44,1.44,0,0,0,.85,1.84,8.27,8.27,0,0,0,1.23.45,3.56,3.56,0,0,1,2.65,2.12,9.45,9.45,0,0,0,.87,1.36,2,2,0,0,0,2.19,1,24.45,24.45,0,0,0,2.55-.79.7.7,0,0,1,1,.27l0,.1c.37.65.77,1.28,1.18,1.91a1.92,1.92,0,0,0,2.16.84q1.57-.51,3.12-1.09a1.14,1.14,0,0,0,.82-1.25,1.48,1.48,0,0,0-2.07-1.52Z"/><path class="cls-3" d="M247.33,597.22c-.48.21-.93.48-1.54.81-.23-.61-.39-1.11-.62-1.58a1.48,1.48,0,0,0-2.69,1.22c.2.48.46.93.75,1.51-.59.25-1.07.43-1.52.65A1.48,1.48,0,0,0,243,602.5h0c.47-.21.92-.46,1.43-.72l.66,1.49a1.48,1.48,0,0,0,2.7-1.2c-.2-.48-.48-.92-.83-1.57.62-.23,1.12-.37,1.59-.6a1.48,1.48,0,0,0-1.22-2.69Z"/><path class="cls-3" d="M223.91,595.52c.5-.22,1-.48,1.56-.77.24.58.42,1.07.64,1.54a1.29,1.29,0,0,0,2,.69,1.31,1.31,0,0,0,.69-2c-.22-.47-.46-.93-.74-1.49l1.5-.62a1.31,1.31,0,0,0,.72-2,1.33,1.33,0,0,0-2-.67l-1.44.65-.68-1.5a1.47,1.47,0,0,0-2.65,1.26c.23.49.53.94.85,1.48-.69.3-1.18.48-1.66.71a1.31,1.31,0,0,0-.66,1.93,1.28,1.28,0,0,0,1.87.79Z"/><path class="cls-20" d="M147.84,593.1a3.6,3.6,0,0,0-3.49,3.71s0,.08,0,.12a3.68,3.68,0,0,0,3.85,3.49,3.72,3.72,0,0,0,3.47-3.9A3.68,3.68,0,0,0,147.84,593.1Z"/><path class="cls-21" d="M91.83,593.81a26.73,26.73,0,1,0-19.18,48.94,10.12,10.12,0,0,1,5.78,3.11c.87,1,1.78,1.87,2.68,2.8.56.58,1,.59,1.52,0,4.47-4.34,9-8.66,13.4-13a26.63,26.63,0,0,0,8.1-18.79,25.8,25.8,0,0,0-.64-6.31A26.19,26.19,0,0,0,91.83,593.81ZM86,631.72A17.41,17.41,0,0,1,60.5,620a17.88,17.88,0,0,1,.35-8.73c.14-.51.36-.63.87-.62,5.2.11,10.41.19,15.61.29a7,7,0,0,0,5.07-1.72,9.49,9.49,0,0,0,2.6-4.16c.38-1.17.63-2.39.94-3.59l.11-.39h.21a13.18,13.18,0,0,1-1.36,8.26,16.22,16.22,0,0,1-5.9,6.19l4.63.08A2.82,2.82,0,0,0,86,618.56a2.71,2.71,0,0,0,2.7-1.27,2.82,2.82,0,0,0-.28-3.45,9,9,0,0,0,4.47-5.68,17.35,17.35,0,0,1,1.84,5.63A17.64,17.64,0,0,1,86,631.72Z"/><path class="cls-21" d="M83.06,621.33c-1.65.11-3.31.23-5,.19s-3.15-.28-4.73-.39a1.82,1.82,0,0,0-1.73,2.69,7.53,7.53,0,0,0,13.59.33,1.85,1.85,0,0,0,.13-1.75C85,621.52,84.3,621.24,83.06,621.33Z"/><path class="cls-21" d="M73.75,617.29c.52-.2.58-.51.18-.91a2.31,2.31,0,0,0-.55-.43,6.3,6.3,0,0,0-6.22.08c-.34.19-.84.68-.8.92.1.56.69.52,1.15.51l3.41-.13h2.16A1.93,1.93,0,0,0,73.75,617.29Z"/><path class="cls-22" d="M370.26,625.56a60,60,0,0,0-7.74-2.74,66.84,66.84,0,0,0-6.68-1.42,11.78,11.78,0,0,1-7.36-3.13c-1.41-1-3.19-2.22-5.66-3.81a60.91,60.91,0,0,0-7.35-3.66c-3.22-1.37-7.07-2.79-7.84-2.78-1.26-.1-2,1.74-2.61,3.34a2.14,2.14,0,0,0,.24,1.73,2.56,2.56,0,0,1,.31,1.33c0,.13,0,.22-.06.41-.54,2-2.14,8.11,1,11.41A17.94,17.94,0,0,0,332,630a11.62,11.62,0,0,0,7.23.89,16.45,16.45,0,0,0,7.08-4.38c1.78-1.63,2.63-2.36,3.83-1.85s1.23,1.72,1.33,4a15.85,15.85,0,0,0,1.76,8.13,11.62,11.62,0,0,0,5.66,4.58,15.41,15.41,0,0,0,6.49,1.34c4.57,0,7.86-5.46,8.92-7.19a.76.76,0,0,0,.25-.33,1.78,1.78,0,0,1,1.17-.7,2.55,2.55,0,0,0,1.41-1c.72-1.43,1.54-3.37.59-4.2C377.18,628.71,373.57,627,370.26,625.56Zm-25-2.57c-5.1,6.64-8.87,5.8-12.28,4.35l-.55-.23c-4.2-1.89-4.87-4.13-5-5.6-.23-2.27,1.34-7.25,3.16-8.22,1.09-.52,3.4-.08,6.25,1.13a40.11,40.11,0,0,1,5.14,2.73c2.29,1.52,3.67,2.86,3.83,4a2,2,0,0,1-.53,1.82Zm22.85,15.78c-1.24.88-3.24,2-7.51.29l-.55-.23c-3.41-1.45-6.54-3.54-5.4-11.85a2.38,2.38,0,0,1,.93-1.67c.94-.69,2.78-.67,5.55,0a40.12,40.12,0,0,1,5.53,1.81c2.85,1.21,4.87,2.61,5.16,3.71.59,1.94-2,6.58-3.7,7.94Z"/><path class="cls-23" d="M311.59,663.32l-24,10.19,2.16-34c-.87.32-1.46.51-2,.76-8.39,3.56-16.76,7.16-25.18,10.64a2.64,2.64,0,0,0-1.91,2.82q-.25,14-.56,28h43.16L312,663.64Z"/><path class="cls-2" d="M947.86,381.8a5.5,5.5,0,0,0-.93.16,5.26,5.26,0,0,0,0-.92.8.8,0,1,0-1.59.18,5.52,5.52,0,0,0,.14.9,3.07,3.07,0,0,0-.89.08.8.8,0,0,0,.22,1.59,5.61,5.61,0,0,0,.86-.13,2.71,2.71,0,0,0,.09.88.8.8,0,0,0,1.59-.17,5.77,5.77,0,0,0-.16-.94h.92a.8.8,0,1,0-.18-1.59h0Z"/><path class="cls-24" d="M945.43,195.83a3.32,3.32,0,0,1,.25-2.36,2,2,0,0,0,.14.68l1.61,4.95A6.73,6.73,0,1,0,960.19,195l-1.42-4.37a5.34,5.34,0,0,0,.44-4.15,4.51,4.51,0,0,0-5.56-3.12h0l-11,3.57a4.51,4.51,0,0,0-2.72,5.77v0A4.56,4.56,0,0,0,945.43,195.83Z"/><path class="cls-12" d="M963.85,78.76l.32.21,52.28-46.39-.23-.47H989.1l15.9-32c-1,0-1.6-.1-2.25-.1H974.3a2.75,2.75,0,0,0-3,1.94Q961.69,23.68,952,45.41a17,17,0,0,0-.53,1.64h28Z"/><path class="cls-8" d="M993.92,128.8l.37-13c-.33.13-.55.22-.76.32-3.16,1.47-6.31,3-9.48,4.4a1,1,0,0,0-.69,1.1c.1,5.77.17,11.55.25,17.32a1.91,1.91,0,0,0,.08.62l9.34-4.35-.34,12.87h.14l10.28-23.39-.15-.12Z"/><path class="cls-19" d="M1039.34,272.2l-.07-.23c-1.7.1-3.41.08-5.09.31a19.09,19.09,0,0,0-9,3.78.48.48,0,0,1-.68,0h0a17.52,17.52,0,0,0-4.39-2.36,17.18,17.18,0,0,0-4.24-1l.29,4.32-7.41-2.49a9,9,0,0,0-1.16,7,10,10,0,0,0-7,3.6l3.73,2.59a8.24,8.24,0,0,0-5.87,5.53l3.65-.36c-.07.19-.12.33-.18.46a28.38,28.38,0,0,0,20.67,40.07,10.26,10.26,0,0,1,5.51,2.54c1.21,1.16,2.38,2.35,3.58,3.52.62.62,1,.61,1.66,0l8.12-8.12v-14a18.45,18.45,0,1,1-23.21-28A15.83,15.83,0,0,0,1020,295a31.58,31.58,0,0,0,7.84-7.75,16.41,16.41,0,0,0,3,6.39,13.66,13.66,0,0,0,4-5,17.36,17.36,0,0,1,6.58,4.93v-17.8a26.42,26.42,0,0,0-4.45.83Z"/><path class="cls-25" d="M985.15,225.76A22.83,22.83,0,1,0,971,268.35a8.64,8.64,0,0,1,5.07,2.4c.79.77,1.6,1.52,2.41,2.27.5.47.84.46,1.3,0,3.62-3.9,7.25-7.78,10.85-11.7a22.74,22.74,0,0,0,6.07-16.38,22,22,0,0,0-.83-5.35A22.36,22.36,0,0,0,985.15,225.76Zm-3.29,32.59a14.86,14.86,0,0,1-22.26-8.83,15.26,15.26,0,0,1-.09-7.46c.1-.44.28-.55.71-.56l13.33-.45a6,6,0,0,0,4.25-1.69,8.1,8.1,0,0,0,2-3.67c.28-1,.43-2.07.64-3.1l.07-.34h.18a11.25,11.25,0,0,1-.79,7.1,13.85,13.85,0,0,1-4.79,5.52l4-.14a2.41,2.41,0,0,0,2.22,2.38,2.32,2.32,0,0,0,2.25-1.2,2.4,2.4,0,0,0-.39-2.93,7.66,7.66,0,0,0,3.56-5,14.81,14.81,0,0,1,1.82,4.72,15.06,15.06,0,0,1-6.7,15.65Z"/><path class="cls-25" d="M979.35,250.07c-1.4.17-2.81.34-4.22.39s-2.7-.1-4-.12a1.56,1.56,0,0,0-1.35,2.37,6.43,6.43,0,0,0,11.6-.33,1.58,1.58,0,0,0,0-1.5C981,250.14,980.4,250,979.35,250.07Z"/><path class="cls-25" d="M970.83,246.75c.43-.19.47-.46.11-.79a2,2,0,0,0-.49-.34,5.38,5.38,0,0,0-5.3.34c-.28.17-.69.61-.64.82.11.48.61.41,1,.38l2.91-.27h0a16.17,16.17,0,0,0,1.84-.07A1.65,1.65,0,0,0,970.83,246.75Z"/></g></g></svg>