<?xml version="1.0" encoding="UTF-8"?>
<svg width="49px" height="40px" viewBox="0 0 49 40" version="1.1" xmlns="http://www.w3.org/2000/svg" xmlns:xlink="http://www.w3.org/1999/xlink">
    <!-- Generator: Sketch 46.2 (44496) - http://www.bohemiancoding.com/sketch -->
    <title>photo-camera (3)</title>
    <desc>Created with Sketch.</desc>
    <defs></defs>
    <g id="Symbols" stroke="none" stroke-width="1" fill="none" fill-rule="evenodd">
        <g id="button-photo" transform="translate(-11.000000, -13.000000)" fill-rule="nonzero" fill="#FFFFFF">
            <g id="Group-9">
                <g id="photo-camera-(3)" transform="translate(12.000000, 14.000000)">
                    <path d="M0,11.6283631 L0,32.2861453 C0,35.4392758 2.57061224,38 5.73591837,38 L41.2640816,38 C44.4293878,38 47,35.4392758 47,32.2861453 L47,11.6283631 C47,8.62811164 44.5540816,6.19160171 41.5422449,6.19160171 L33.9071429,6.19160171 L33.724898,5.39854161 C32.9863265,2.21674629 30.1759184,0 26.8955102,0 L20.094898,0 C16.8240816,0 14.0136735,2.21674629 13.2655102,5.39854161 L13.0832653,6.19160171 L5.4577551,6.19160171 C2.44591837,6.19160171 0,8.63766658 0,11.6283631 Z M14.0232653,8.53256223 C14.57,8.53256223 15.04,8.15991954 15.1646939,7.62484285 L15.5579592,5.92406336 C16.0567347,3.81242142 17.917551,2.34096052 20.094898,2.34096052 L26.8955102,2.34096052 C29.0728571,2.34096052 30.9336735,3.81242142 31.432449,5.92406336 L31.8257143,7.62484285 C31.9504082,8.1503646 32.4204082,8.53256223 32.9671429,8.53256223 L41.5326531,8.53256223 C43.2495918,8.53256223 44.6404082,9.91802866 44.6404082,11.6283631 L44.6404082,32.2861453 C44.6404082,34.1493588 43.124898,35.6590395 41.2544898,35.6590395 L5.73591837,35.6590395 C3.8655102,35.6590395 2.35,34.1493588 2.35,32.2861453 L2.35,11.6283631 C2.35,9.91802866 3.74081633,8.53256223 5.4577551,8.53256223 L14.0232653,8.53256223 Z" id="Shape" stroke="#FFFFFF" stroke-width="0.5"></path>
                    <circle id="Oval" cx="7.5" cy="13.5" r="1.5"></circle>
                    <path d="M24,31 C29.5102041,31 34,26.7346939 34,21.5 C34,16.2653061 29.5102041,12 24,12 C18.4897959,12 14,16.2560739 14,21.5 C14,26.7439261 18.4897959,31 24,31 Z M24,14.2619048 C28.1982507,14.2619048 31.6190476,17.5116618 31.6190476,21.5 C31.6190476,25.4883382 28.1982507,28.7380952 24,28.7380952 C19.8017493,28.7380952 16.3809524,25.4883382 16.3809524,21.5 C16.3809524,17.5116618 19.8017493,14.2619048 24,14.2619048 Z" id="Shape" stroke="#FFFFFF" stroke-width="0.5"></path>
                </g>
            </g>
        </g>
    </g>
</svg>