<?xml version="1.0" encoding="UTF-8"?>
<svg width="16px" height="16px" viewBox="0 0 16 16" version="1.1" xmlns="http://www.w3.org/2000/svg" xmlns:xlink="http://www.w3.org/1999/xlink">
    <!-- Generator: Sketch 46.2 (44496) - http://www.bohemiancoding.com/sketch -->
    <title>Shape</title>
    <desc>Created with Sketch.</desc>
    <defs>
        <linearGradient x1="0%" y1="0%" x2="101.999998%" y2="100.999999%" id="linearGradient-1">
            <stop stop-color="#00FFF9" offset="0%"></stop>
            <stop stop-color="#009CFF" offset="100%"></stop>
        </linearGradient>
    </defs>
    <g id="Symbols" stroke="none" stroke-width="1" fill="none" fill-rule="evenodd">
        <g id="delete" transform="translate(-13.000000, -13.000000)" fill-rule="nonzero" fill="url(#linearGradient-1)">
            <g id="cancel-copy">
                <path d="M13.4198251,28.579562 C13.6997085,28.859854 14.0612245,29 14.4344023,29 C14.8075802,29 15.1690962,28.859854 15.4489796,28.579562 L21,23.020438 L26.5510204,28.579562 C26.8309038,28.859854 27.1924198,29 27.5655977,29 C27.9387755,29 28.3002915,28.859854 28.5801749,28.579562 C29.1399417,28.0189781 29.1399417,27.119708 28.5801749,26.5591241 L23.0058309,21 L28.5568513,15.4408759 C29.1166181,14.880292 29.1166181,13.9810219 28.5568513,13.420438 C27.9970845,12.859854 27.0991254,12.859854 26.5393586,13.420438 L20.9883382,18.979562 L15.4373178,13.420438 C14.877551,12.859854 13.9795918,12.859854 13.4198251,13.420438 C12.8600583,13.9810219 12.8600583,14.880292 13.4198251,15.4408759 L18.9708455,21 L13.4198251,26.5591241 C12.8600583,27.119708 12.8600583,28.0189781 13.4198251,28.579562 Z" id="Shape"></path>
            </g>
        </g>
    </g>
</svg>