<?xml version="1.0" encoding="UTF-8"?>
<svg width="20px" height="40px" viewBox="0 0 20 40" version="1.1" xmlns="http://www.w3.org/2000/svg" xmlns:xlink="http://www.w3.org/1999/xlink">
    <!-- Generator: Sketch 46.2 (44496) - http://www.bohemiancoding.com/sketch -->
    <title>facebook</title>
    <desc>Created with Sketch.</desc>
    <defs></defs>
    <g id="UI" stroke="none" stroke-width="1" fill="none" fill-rule="evenodd">
        <g id="21-copy-4" transform="translate(-827.000000, -655.000000)" stroke="#FFFFFF" fill-rule="nonzero" fill="#FFFFFF">
            <g id="Group-4" transform="translate(745.000000, 593.000000)">
                <g id="Group-2" transform="translate(48.000000, 39.000000)">
                    <g transform="translate(-16.112676, -13.142857)" id="facebook">
                        <g transform="translate(50.826978, 36.991169)">
                            <path d="M12.1525521,38.0187013 L4.31666899,38.0187013 L4.31666899,20.9725993 L0,20.9725993 L0,13.1440854 L4.31654293,13.1440854 L4.31654293,8.74811421 C4.31654293,4.71237578 6.73487595,0 13.5533296,0 C15.9570397,0 17.7216261,0.235197618 17.7953711,0.245332043 L18.5188289,0.343517506 L18.3446141,7.6696535 L17.5474113,7.66201978 C17.5457725,7.66201978 15.7544614,7.64425163 13.800407,7.64425163 C12.3461801,7.64425163 12.1533084,8.01896211 12.1533084,9.50938059 L12.1533084,13.1457964 L18.5713959,13.1457964 L18.2157809,20.9743103 L12.1540648,20.9743103 L12.1540648,38.0187013 L12.1525521,38.0187013 Z M5.9360344,36.3269105 L10.5312958,36.3269105 L10.5312958,19.2817298 L16.6675133,19.2817298 L16.8700915,14.8358762 L10.5312958,14.8358762 L10.5312958,9.50766959 C10.5312958,7.7482282 10.9193081,5.95074981 13.7986422,5.95074981 C14.9556199,5.95074981 16.0549882,5.95667253 16.7621842,5.96259524 L16.8602588,1.84407041 C16.1448689,1.77720954 14.9547375,1.69179081 13.5515648,1.69179081 C7.93635281,1.69179081 5.93515198,5.33663001 5.93515198,8.74811421 L5.93515198,14.8358762 L1.61873511,14.8358762 L1.61873511,19.2817298 L5.93527804,19.2817298 L5.93527804,36.3269105 L5.9360344,36.3269105 Z" id="Shape"></path>
                        </g>
                    </g>
                </g>
            </g>
        </g>
    </g>
</svg>