<?xml version="1.0" encoding="UTF-8"?>
<svg width="39px" height="36px" viewBox="0 0 39 36" version="1.1" xmlns="http://www.w3.org/2000/svg" xmlns:xlink="http://www.w3.org/1999/xlink">
    <!-- Generator: Sketch 46.2 (44496) - http://www.bohemiancoding.com/sketch -->
    <title>Shape</title>
    <desc>Created with Sketch.</desc>
    <defs>
        <filter x="-8.1%" y="-5.6%" width="116.3%" height="115.7%" filterUnits="objectBoundingBox" id="filter-1">
            <feOffset dx="0" dy="2" in="SourceAlpha" result="shadowOffsetOuter1"></feOffset>
            <feGaussianBlur stdDeviation="2" in="shadowOffsetOuter1" result="shadowBlurOuter1"></feGaussianBlur>
            <feColorMatrix values="0 0 0 0 0   0 0 0 0 0   0 0 0 0 0  0 0 0 0.5 0" type="matrix" in="shadowBlurOuter1" result="shadowMatrixOuter1"></feColorMatrix>
            <feMerge>
                <feMergeNode in="shadowMatrixOuter1"></feMergeNode>
                <feMergeNode in="SourceGraphic"></feMergeNode>
            </feMerge>
        </filter>
    </defs>
    <g id="UI" stroke="none" stroke-width="1" fill="none" fill-rule="evenodd">
        <g id="21-copy-4" transform="translate(-916.000000, -578.000000)" fill-rule="nonzero" stroke="#FFFFFF" stroke-width="0.9" fill="#FFFFFF">
            <g id="Group-8" transform="translate(809.000000, 472.000000)">
                <g id="paper-plane-(1)-copy" filter="url(#filter-1)" transform="translate(83.000000, 81.000000)">
                    <path d="M28.6692368,41.0648471 C28.7049723,41.6976798 29.1040187,42.2302618 29.6817426,42.4119662 L40.3785684,45.8142252 L40.7716589,53.5711252 C40.7895267,53.8781431 40.9860719,54.1475669 41.266,54.2478176 C41.3434269,54.279146 41.4268097,54.2916773 41.5042366,54.2916773 C41.7126937,54.2916773 41.9092389,54.203958 42.0521809,54.0347848 L45.8341878,49.6300185 L51.1945126,53.5335312 C51.4327492,53.70897 51.7126773,53.802955 52.0045172,53.802955 C52.6775357,53.802955 53.2612155,53.3017014 53.4041575,52.5999463 L57.8532271,28.746539 C57.9068303,28.4708495 57.8055797,28.1826287 57.6030786,28.0071899 C57.3946215,27.8254854 57.1146934,27.7816258 56.864545,27.8881422 L29.5268888,39.5924145 C28.9729886,39.8555727 28.6335013,40.4320143 28.6692368,41.0648471 Z M42.1296078,51.6475644 L41.8854153,46.7540758 L44.6251368,48.746559 L42.1296078,51.6475644 Z M51.9806935,52.2428031 L42.2249025,45.1375328 L55.9056424,31.2152131 L51.9806935,52.2428031 Z M54.4047515,30.6011774 L40.8788654,44.3668554 L30.1939514,40.970862 L54.4047515,30.6011774 Z" id="Shape"></path>
                </g>
            </g>
        </g>
    </g>
</svg>