<?xml version="1.0" encoding="UTF-8"?>
<svg width="42px" height="39px" viewBox="0 0 42 39" version="1.1" xmlns="http://www.w3.org/2000/svg" xmlns:xlink="http://www.w3.org/1999/xlink">
    <!-- Generator: Sketch 46.2 (44496) - http://www.bohemiancoding.com/sketch -->
    <title>Shape</title>
    <desc>Created with Sketch.</desc>
    <defs></defs>
    <g id="UI" stroke="none" stroke-width="1" fill="none" fill-rule="evenodd">
        <g id="21-copy-6" transform="translate(-756.000000, -642.000000)" stroke="#FFFFFF" stroke-width="0.9" fill="#FFFFFF" fill-rule="nonzero">
            <g id="Group-8" transform="translate(601.000000, 491.000000)">
                <g id="paper-plane-(1)-copy" transform="translate(115.789474, 111.792746)">
                    <path d="M39.7876425,58.8031151 C39.8372368,59.6877619 40.39104,60.4322667 41.1928148,60.6862742 L56.0380471,65.442346 L56.5835846,76.2858392 C56.6083818,76.7150243 56.8811505,77.0916561 57.2696394,77.2317982 C57.3770937,77.2755926 57.4928138,77.2931103 57.6002681,77.2931103 C57.8895683,77.2931103 58.1623371,77.170486 58.3607143,76.9339963 L63.6094462,70.7765038 L71.0485938,76.2332859 C71.3792226,76.4785345 71.7677114,76.6099177 72.1727317,76.6099177 C73.106758,76.6099177 73.9167985,75.9092073 74.1151758,74.9282128 L80.2896683,41.5831574 C80.3640598,41.1977667 80.2235425,40.7948582 79.9425081,40.5496096 C79.6532079,40.2956021 79.2647191,40.2342899 78.9175589,40.3831909 L40.9779061,56.7447783 C40.2091942,57.1126513 39.7380482,57.9184682 39.7876425,58.8031151 Z M58.4681687,73.5968631 L58.1292742,66.7561779 L61.9315052,69.5415017 L58.4681687,73.5968631 Z M72.1396688,74.4289566 L58.6004202,64.4963869 L77.586778,45.034156 L72.1396688,74.4289566 Z M75.5038167,44.1757858 L56.7323676,63.4190447 L41.9036667,58.6717319 L75.5038167,44.1757858 Z" id="Shape"></path>
                </g>
            </g>
        </g>
    </g>
</svg>