<?xml version="1.0" encoding="UTF-8"?>
<svg width="45px" height="37px" viewBox="0 0 45 37" version="1.1" xmlns="http://www.w3.org/2000/svg" xmlns:xlink="http://www.w3.org/1999/xlink">
    <!-- Generator: Sketch 46.2 (44496) - http://www.bohemiancoding.com/sketch -->
    <title>photo-camera (3)</title>
    <desc>Created with Sketch.</desc>
    <defs></defs>
    <g id="Symbols" stroke="none" stroke-width="1" fill="none" fill-rule="evenodd">
        <g id="button-photo-option" transform="translate(-10.000000, -11.000000)" fill-rule="nonzero" fill="#FFFFFF">
            <g id="photo-camera-(3)" transform="translate(11.000000, 12.000000)">
                <path d="M31.2904141,18.8536318 C31.2904141,14.002255 27.2919659,10.0603069 22.3993827,10.0603069 C21.8915847,10.0530981 21.4231715,10.513624 21.4231715,11.0214881 C21.4231715,11.5293522 21.8915847,11.989854 22.3993827,11.9826692 C26.2658592,11.9826692 29.3680289,15.0541236 29.3680289,18.8536318 C29.3680289,21.1536902 27.6953827,24.192561 25.9483287,25.4450521 L26.4844512,23.2765549 C26.4893535,22.9299185 26.307231,22.6074946 26.0078219,22.4327458 C25.7084128,22.2579969 25.3381045,22.2579969 25.0386953,22.4327458 C24.7392862,22.6074946 24.5571637,22.9299185 24.562066,23.2765549 L24.562066,26.6406889 C24.5621191,27.1715126 24.9924286,27.601817 25.5232586,27.6018701 L28.8874326,27.6018701 C29.1475664,27.6059405 29.3982417,27.5043989 29.5822066,27.3204361 C29.7661715,27.1364734 29.8677143,26.8858012 29.8636438,26.6256705 C29.8596662,26.3707476 29.7545797,26.1278464 29.5715034,25.9504052 C29.388427,25.7729641 29.1423584,25.675519 28.8874326,25.6795078 L26.904128,26.486653 C28.9820168,24.9293845 31.2904141,21.5942236 31.2904141,18.8536318 Z M22.666315,27.1738705 C22.6584573,26.6705965 22.1933891,26.219827 21.6901138,26.2277086 C17.8236843,26.2277086 14.7215391,23.156257 14.7215391,19.3567592 C14.7215391,17.0567196 16.101516,14.2829426 18.148347,13.2772991 L17.6050873,14.9338328 C17.600185,15.2804689 17.7823056,15.6028925 18.0817117,15.7776412 C18.3811178,15.9523898 18.7514222,15.9523898 19.0508283,15.7776412 C19.3502344,15.6028925 19.532355,15.2804689 19.5274527,14.9338328 L19.5274527,11.5697017 C19.5273996,11.0388784 19.0970946,10.6085744 18.56627,10.6085213 L15.2021305,10.6085213 C14.9472074,10.6045326 14.7011412,10.7019776 14.5180668,10.8794186 C14.3349923,11.0568596 14.2299069,11.2997605 14.2259293,11.5546832 C14.2218588,11.8148137 14.3234007,12.0654857 14.5073637,12.2494483 C14.6913267,12.4334108 14.9419993,12.5349524 15.2021305,12.530882 L16.7689228,12.2435274 C14.2519888,13.8577076 12.7991737,16.6161867 12.7991737,19.3567592 C12.7991737,24.2081246 16.7975737,28.1500693 21.6901138,28.1500693 C22.2034094,28.157999 22.6743457,27.6871648 22.666315,27.1738705 Z" id="Shape" stroke="#FFFFFF" stroke-width="0.5" transform="translate(22.044794, 19.105196) rotate(-210.000000) translate(-22.044794, -19.105196) "></path>
                <path d="M0,10.7103344 L0,29.7372391 C0,32.6414383 2.35183673,35 5.2477551,35 L37.7522449,35 C40.6481633,35 43,32.6414383 43,29.7372391 L43,10.7103344 C43,7.94694493 40.7622449,5.70279105 38.0067347,5.70279105 L31.0214286,5.70279105 L30.8546939,4.97234096 C30.1789796,2.04174001 27.6077551,0 24.6065306,0 L18.3846939,0 C15.3922449,0 12.8210204,2.04174001 12.1365306,4.97234096 L11.9697959,5.70279105 L4.99326531,5.70279105 C2.2377551,5.70279105 0,7.95574554 0,10.7103344 Z M12.8297959,7.8589389 C13.33,7.8589389 13.76,7.51571536 13.8740816,7.02288157 L14.2338776,5.45637415 C14.6902041,3.51144078 16.3926531,2.15614785 18.3846939,2.15614785 L24.6065306,2.15614785 C26.5985714,2.15614785 28.3010204,3.51144078 28.7573469,5.45637415 L29.1171429,7.02288157 C29.2312245,7.50691476 29.6612245,7.8589389 30.1614286,7.8589389 L37.9979592,7.8589389 C39.5687755,7.8589389 40.8412245,9.1350264 40.8412245,10.7103344 L40.8412245,29.7372391 C40.8412245,31.4533568 39.4546939,32.8438521 37.7434694,32.8438521 L5.2477551,32.8438521 C3.53653061,32.8438521 2.15,31.4533568 2.15,29.7372391 L2.15,10.7103344 C2.15,9.1350264 3.42244898,7.8589389 4.99326531,7.8589389 L12.8297959,7.8589389 Z" id="Shape" stroke="#FFFFFF" stroke-width="0.5"></path>
                <circle id="Oval" cx="7.5" cy="12.5" r="1.5"></circle>
            </g>
        </g>
    </g>
</svg>