<?xml version="1.0" encoding="utf-8"?>
<!-- Generator: Adobe Illustrator 21.0.2, SVG Export Plug-In . SVG Version: 6.00 Build 0)  -->
<svg version="1.1" id="Calque_1" xmlns="http://www.w3.org/2000/svg" xmlns:xlink="http://www.w3.org/1999/xlink" x="0px" y="0px"
	 viewBox="0 0 56 49" style="enable-background:new 0 0 56 49;" xml:space="preserve">
<style type="text/css">
	.st0{filter:url(#filter-1);}
	.st1{fill:#FFFFFF;}
</style>
<filter  filterUnits="objectBoundingBox" height="137.2%" id="filter-1" width="129.2%" x="-14.6%" y="-12.5%">
	<feOffset  dx="0" dy="2" in="SourceAlpha" result="shadowOffsetOuter1"></feOffset>
	<feGaussianBlur  in="shadowOffsetOuter1" result="shadowBlurOuter1" stdDeviation="2"></feGaussianBlur>
	
		<feColorMatrix  in="shadowBlurOuter1" result="shadowMatrixOuter1" type="matrix" values="0 0 0 0 0   0 0 0 0 0   0 0 0 0 0  0 0 0 0.5 0">
		</feColorMatrix>
	<feMerge>
		<feMergeNode  in="shadowMatrixOuter1"></feMergeNode>
		<feMergeNode  in="SourceGraphic"></feMergeNode>
	</feMerge>
</filter>
<title>printer</title>
<desc>Created with Sketch.</desc>
<g id="UI">
	<g id="_x32_1-copy-4" transform="translate(-784.000000, -520.000000)">
		<g id="Group-7" transform="translate(678.000000, 416.000000)">
			<g id="Group-5" transform="translate(77.675889, 73.294606)">
				<g id="printer" transform="translate(-19.617125, -15.039885)">
					<g transform="translate(52.501203, 48.235610)" class="st0">
						<path id="Shape_1_" class="st1" d="M43.8,6H35V1.2C35,0.5,34.5,0,34,0H13.1c-0.6,0-1,0.5-1,1.2V6H3.3C1.5,6,0,7.8,0,9.9v18.5
							c0,2.1,1.5,3.9,3.3,3.9h8.8v6.6c0,0.6,0.4,1.2,1,1.2H34c0.6,0,1-0.5,1-1.2v-6.6h8.8c1.8,0,3.3-1.7,3.3-3.9V9.9
							C47.1,7.8,45.6,6,43.8,6z M45.1,28.4c0,0.8-0.6,1.5-1.3,1.5H35v-6.6h1.8c0.6,0,1-0.5,1-1.2c0-0.6-0.4-1.2-1-1.2H34H13.1h-2.8
							c-0.6,0-1,0.5-1,1.2c0,0.6,0.4,1.2,1,1.2h1.8v6.6H3.3c-0.7,0-1.3-0.7-1.3-1.5V9.9C2,9,2.6,8.3,3.3,8.3h40.4
							c0.7,0,1.3,0.7,1.3,1.5V28.4z"/>
					</g>
				</g>
			</g>
		</g>
	</g>
</g>
<path class="st1" d="M12.3,16.9H9.6c-0.9,0-1.6-0.7-1.6-1.6v0c0-0.9,0.7-1.6,1.6-1.6h2.6c0.9,0,1.6,0.7,1.6,1.6v0
	C13.9,16.1,13.1,16.9,12.3,16.9z"/>
</svg>
