<?xml version="1.0" encoding="UTF-8"?>
<svg width="29px" height="25px" viewBox="0 0 29 25" version="1.1" xmlns="http://www.w3.org/2000/svg" xmlns:xlink="http://www.w3.org/1999/xlink">
    <!-- Generator: Sketch 46.2 (44496) - http://www.bohemiancoding.com/sketch -->
    <title>Shape</title>
    <desc>Created with Sketch.</desc>
    <defs></defs>
    <g id="UI" stroke="none" stroke-width="1" fill="none" fill-rule="evenodd">
        <g id="21-copy-7" transform="translate(-460.000000, -453.000000)" fill-rule="nonzero" fill="#747474">
            <g id="Group-12" transform="translate(448.000000, 438.000000)">
                <path d="M38.7369887,18.6822368 L33.3672771,18.6822368 L33.3672771,15.7101133 C33.3672771,15.3180041 33.09414,15 32.7573532,15 L20.0057488,15 C19.6689621,15 19.395825,15.3180041 19.395825,15.7101133 L19.395825,18.6823022 L14.0261134,18.6823022 C12.9089028,18.6822368 12,19.7405064 12,21.0412362 L12,32.345819 C12,33.6465488 12.9089028,34.7048184 14.0261134,34.7048184 L19.395825,34.7048184 L19.395825,38.7600318 C19.395825,39.152141 19.6689621,39.4701451 20.0057488,39.4701451 L32.7574094,39.4701451 C33.0941961,39.4701451 33.3673332,39.152141 33.3673332,38.7600318 L33.3673332,34.7048184 L38.7370449,34.7048184 C39.8541992,34.7048184 40.7631582,33.6466142 40.7631582,32.345819 L40.7631582,21.0412362 C40.763102,19.7405064 39.8541431,18.6822368 38.7369887,18.6822368 Z M39.5433667,32.345819 C39.5433106,32.8635077 39.1815808,33.2846572 38.7370449,33.2846572 L33.3672771,33.2846572 L33.3672771,29.2544342 L34.479881,29.2544342 C34.8166678,29.2544342 35.0898049,28.93643 35.0898049,28.5443208 C35.0898049,28.1522117 34.8166678,27.8342075 34.479881,27.8342075 L32.7574094,27.8342075 L20.0057488,27.8342075 L18.2832772,27.8342075 C17.9464905,27.8342075 17.6733533,28.1522117 17.6733533,28.5443208 C17.6733533,28.93643 17.9464905,29.2544342 18.2832772,29.2544342 L19.3958811,29.2544342 L19.3958811,33.2846572 L14.0261134,33.2846572 C13.5815774,33.2846572 13.2198477,32.8635077 13.2198477,32.345819 L13.2198477,21.0412362 C13.2198477,20.5236129 13.5815774,20.102398 14.0261134,20.102398 L38.7370449,20.102398 C39.1815808,20.102398 39.5433667,20.5235475 39.5433667,21.0412362 L39.5433667,32.345819 Z" id="Shape"></path>
            </g>
        </g>
    </g>
</svg>