<?xml version="1.0" encoding="utf-8"?>
<!-- Generator: Adobe Illustrator 21.0.2, SVG Export Plug-In . SVG Version: 6.00 Build 0)  -->
<svg version="1.1" id="Calque_1" xmlns="http://www.w3.org/2000/svg" xmlns:xlink="http://www.w3.org/1999/xlink" x="0px" y="0px"
	 viewBox="0 0 181 183" style="enable-background:new 0 0 181 183;" xml:space="preserve">
<style type="text/css">
	.st0{fill:#FFFFFF;}
</style>
<title>Group 5</title>
<desc>Created with Sketch.</desc>
<g id="UI">
	<g id="_x32_1-copy-5" transform="translate(-794.000000, -542.000000)">
		<g id="Group-7" transform="translate(670.000000, 423.000000)">
			<g id="Group-5" transform="translate(124.000000, 119.000000)">
				<g transform="translate(-31.546063, -24.275510)">
					<g id="printer" transform="translate(84.426553, 77.855918)">
						<path id="Shape" class="st0" d="M110.2-18H78.8v-17.5c0-2.3-1.6-4.2-3.6-4.2H0.5c-2,0-3.6,1.9-3.6,4.2V-18h-31.5
							c-6.5,0-11.9,6.2-11.9,13.9v66.5c0,7.7,5.3,13.9,11.9,13.9h31.5v23.9c0,2.3,1.6,4.2,3.6,4.2h74.7c2,0,3.6-1.9,3.6-4.2V76.3
							h31.5c6.5,0,11.9-6.2,11.9-13.9V-4.1C122.1-11.8,116.8-18,110.2-18z M115,62.4c0,3-2.1,5.5-4.7,5.5H78.8V44.2h6.5
							c2,0,3.6-1.9,3.6-4.2c0-2.3-1.6-4.2-3.6-4.2H75.2H0.5H-9.6c-2,0-3.6,1.9-3.6,4.2c0,2.3,1.6,4.2,3.6,4.2h6.5v23.7h-31.5
							c-2.6,0-4.7-2.5-4.7-5.5V-4.1c0-3,2.1-5.5,4.7-5.5h144.8c2.6,0,4.7,2.5,4.7,5.5V62.4z"/>
					</g>
					<path id="Rectangle-21" class="st0" d="M46.1,87.3H59c2.7,0,4.9,2.2,4.9,4.9l0,0c0,2.7-2.2,4.9-4.9,4.9H46.1
						c-2.7,0-4.9-2.2-4.9-4.9l0,0C41.2,89.5,43.4,87.3,46.1,87.3z"/>
				</g>
			</g>
		</g>
	</g>
</g>
</svg>
