<?xml version="1.0" encoding="UTF-8"?>
<svg width="35px" height="39px" viewBox="0 0 35 39" version="1.1" xmlns="http://www.w3.org/2000/svg" xmlns:xlink="http://www.w3.org/1999/xlink">
    <!-- Generator: Sketch 46.2 (44496) - http://www.bohemiancoding.com/sketch -->
    <title>Shape</title>
    <desc>Created with Sketch.</desc>
    <defs></defs>
    <g id="UI" stroke="none" stroke-width="1" fill="none" fill-rule="evenodd">
        <g id="24" transform="translate(-49.000000, -582.000000)" stroke="#666666" stroke-width="0.4" fill="#666666" fill-rule="nonzero">
            <g id="reload" transform="translate(68.838457, 599.753521) rotate(-150.000000) translate(-68.838457, -599.753521) translate(50.838457, 579.253521)">
                <path d="M35.9189288,17.8521985 C35.9189288,8.00845476 27.8623986,0 17.9595438,0 C8.05668902,0 0,8.00845476 0,17.8521985 C0,18.4369433 0.476944684,18.9110373 1.06520557,18.9110373 C1.65346646,18.9110373 2.13041115,18.4368644 2.13041115,17.8521985 C2.13041115,9.17612916 9.23130524,2.11775647 17.9594644,2.11775647 C26.6876236,2.11775647 33.7885177,9.17620808 33.7885177,17.8521985 C33.7885177,26.52811 26.6876236,33.5865616 17.9594644,33.5865616 L16.1113931,33.5865616 L18.7539223,30.6462636 C19.145911,30.2102108 19.1078792,29.540781 18.6692045,29.1511352 C18.2305297,28.7614895 17.5569952,28.7993728 17.1650859,29.2354256 L13.3876396,33.438501 C12.7692868,34.1265568 12.7692868,35.164244 13.3876396,35.8522998 L17.1650859,40.0553751 C17.3755704,40.2896203 17.667041,40.4087949 17.9598614,40.4087949 C18.2124269,40.4087949 18.4660246,40.319927 18.6692045,40.1396655 C19.1079586,39.7500198 19.145911,39.08059 18.7539223,38.6445372 L16.1113931,35.7042392 L17.9594644,35.7042392 C27.8623986,35.7042392 35.9189288,27.6957844 35.9189288,17.8521985 Z" id="Shape"></path>
            </g>
        </g>
    </g>
</svg>