<?xml version="1.0" encoding="UTF-8"?>
<svg width="26px" height="28px" viewBox="0 0 26 28" version="1.1" xmlns="http://www.w3.org/2000/svg" xmlns:xlink="http://www.w3.org/1999/xlink">
    <!-- Generator: Sketch 46.2 (44496) - http://www.bohemiancoding.com/sketch -->
    <title>Group</title>
    <desc>Created with Sketch.</desc>
    <defs></defs>
    <g id="UI" stroke="none" stroke-width="1" fill="none" fill-rule="evenodd">
        <g id="24" transform="translate(-56.000000, -646.000000)" fill-rule="nonzero" fill="#00C6FF">
            <g id="Group" transform="translate(56.000000, 646.000000)">
                <path d="M20.1554755,27.86875 C21.4675071,27.86875 22.5378487,26.8207971 22.5723758,25.4933901 L23.2283916,5.8617394 L25.4726563,5.8617394 L25.4726563,3.76583363 L18.5326995,3.76583363 L18.5326995,2.61308545 C18.5326995,1.21581494 17.4278308,0.097998525 16.0467449,0.097998525 L9.55564109,0.097998525 C8.17455518,0.097998525 7.06968645,1.21581494 7.06968645,2.61308545 L7.06968645,3.76583363 L0.12972973,3.76583363 L0.12972973,5.8617394 L2.37399434,5.8617394 L3.03001015,25.4933901 C3.0645373,26.8207971 4.13487888,27.86875 5.4469105,27.86875 L20.1554755,27.86875 Z M9.14131532,2.64801721 C9.14131532,2.40349487 9.31395106,2.22883606 9.55564109,2.22883606 L16.0467449,2.22883606 C16.2884349,2.22883606 16.4610707,2.40349487 16.4610707,2.64801721 L16.4610707,3.80076539 L9.14131532,3.80076539 L9.14131532,2.64801721 Z M5.10163902,25.4235266 L4.44562321,5.8617394 L21.0877085,5.8617394 L20.4316927,25.4235266 C20.4316927,25.5981854 20.2590569,25.7728442 20.0864212,25.7728442 L5.4469105,25.7728442 C5.27427476,25.7728442 5.13616617,25.6331172 5.10163902,25.4235266 Z" id="Shape"></path>
                <rect id="Rectangle-path" x="11.7653786" y="10.5076639" width="2.07162887" height="10.4445971"></rect>
                <rect id="Rectangle-path" x="7.62212081" y="10.5076639" width="2.07162887" height="10.4445971"></rect>
                <rect id="Rectangle-path" x="15.9086363" y="10.5076639" width="2.07162887" height="10.4445971"></rect>
            </g>
        </g>
    </g>
</svg>